<?xml version="1.0" encoding="UTF-8" standalone="no"?>
<!DOCTYPE svg PUBLIC "-//W3C//DTD SVG 1.1//EN"
 "http://www.w3.org/Graphics/SVG/1.1/DTD/svg11.dtd">
<!-- Generated by graphviz version 2.43.0 (0)
 -->
<!-- Title: BCInterface.H Pages: 1 -->
<svg width="1143pt" height="196pt"
 viewBox="0.00 0.00 1142.50 196.00" xmlns="http://www.w3.org/2000/svg" xmlns:xlink="http://www.w3.org/1999/xlink">
<g id="graph0" class="graph" transform="scale(1 1) rotate(0) translate(4 192)">
<title>BCInterface.H</title>
<polygon fill="white" stroke="transparent" points="-4,4 -4,-192 1138.5,-192 1138.5,4 -4,4"/>
<!-- Node1 -->
<g id="node1" class="node">
<title>Node1</title>
<g id="a_node1"><a xlink:title=" ">
<polygon fill="#bfbfbf" stroke="black" points="576,-168.5 576,-187.5 660,-187.5 660,-168.5 576,-168.5"/>
<text text-anchor="middle" x="618" y="-175.5" font-family="Helvetica,sans-Serif" font-size="10.00">BCInterface.H</text>
</a>
</g>
</g>
<!-- Node2 -->
<g id="node2" class="node">
<title>Node2</title>
<g id="a_node2"><a xlink:href="_b_c_interface_8cpp.html" target="_top" xlink:title=" ">
<polygon fill="white" stroke="black" points="437,-112.5 437,-131.5 531,-131.5 531,-112.5 437,-112.5"/>
<text text-anchor="middle" x="484" y="-119.5" font-family="Helvetica,sans-Serif" font-size="10.00">BCInterface.cpp</text>
</a>
</g>
</g>
<!-- Node1&#45;&gt;Node2 -->
<g id="edge1" class="edge">
<title>Node1&#45;&gt;Node2</title>
<path fill="none" stroke="midnightblue" d="M587.32,-164.64C562.18,-154.5 527.25,-140.43 505.13,-131.52"/>
<polygon fill="midnightblue" stroke="midnightblue" points="586.18,-167.95 596.77,-168.44 588.8,-161.46 586.18,-167.95"/>
</g>
<!-- Node3 -->
<g id="node3" class="node">
<title>Node3</title>
<g id="a_node3"><a xlink:href="_field_8cpp.html" target="_top" xlink:title=" ">
<polygon fill="white" stroke="black" points="549,-112.5 549,-131.5 609,-131.5 609,-112.5 549,-112.5"/>
<text text-anchor="middle" x="579" y="-119.5" font-family="Helvetica,sans-Serif" font-size="10.00">Field.cpp</text>
</a>
</g>
</g>
<!-- Node1&#45;&gt;Node3 -->
<g id="edge2" class="edge">
<title>Node1&#45;&gt;Node3</title>
<path fill="none" stroke="midnightblue" d="M605.62,-159.86C598.86,-150.5 590.79,-139.33 585.32,-131.75"/>
<polygon fill="midnightblue" stroke="midnightblue" points="602.87,-162.03 611.56,-168.08 608.54,-157.93 602.87,-162.03"/>
</g>
<!-- Node4 -->
<g id="node4" class="node">
<title>Node4</title>
<g id="a_node4"><a xlink:href="_b_c_ops_8_h.html" target="_top" xlink:title=" ">
<polygon fill="white" stroke="black" points="627.5,-112.5 627.5,-131.5 686.5,-131.5 686.5,-112.5 627.5,-112.5"/>
<text text-anchor="middle" x="657" y="-119.5" font-family="Helvetica,sans-Serif" font-size="10.00">BCOps.H</text>
</a>
</g>
</g>
<!-- Node1&#45;&gt;Node4 -->
<g id="edge3" class="edge">
<title>Node1&#45;&gt;Node4</title>
<path fill="none" stroke="midnightblue" d="M630.38,-159.86C637.14,-150.5 645.21,-139.33 650.68,-131.75"/>
<polygon fill="midnightblue" stroke="midnightblue" points="627.46,-157.93 624.44,-168.08 633.13,-162.03 627.46,-157.93"/>
</g>
<!-- Node20 -->
<g id="node20" class="node">
<title>Node20</title>
<g id="a_node20"><a xlink:href="vof__bciface_8_h.html" target="_top" xlink:title=" ">
<polygon fill="white" stroke="black" points="880.5,-112.5 880.5,-131.5 963.5,-131.5 963.5,-112.5 880.5,-112.5"/>
<text text-anchor="middle" x="922" y="-119.5" font-family="Helvetica,sans-Serif" font-size="10.00">vof_bciface.H</text>
</a>
</g>
</g>
<!-- Node1&#45;&gt;Node20 -->
<g id="edge20" class="edge">
<title>Node1&#45;&gt;Node20</title>
<path fill="none" stroke="midnightblue" d="M670.19,-167.73C729.57,-157.18 825.36,-140.17 880.09,-130.44"/>
<polygon fill="midnightblue" stroke="midnightblue" points="669.5,-164.3 660.27,-169.49 670.73,-171.19 669.5,-164.3"/>
</g>
<!-- Node5 -->
<g id="node5" class="node">
<title>Node5</title>
<g id="a_node5"><a xlink:href="density_8cpp.html" target="_top" xlink:title=" ">
<polygon fill="white" stroke="black" points="514.5,-56.5 514.5,-75.5 585.5,-75.5 585.5,-56.5 514.5,-56.5"/>
<text text-anchor="middle" x="550" y="-63.5" font-family="Helvetica,sans-Serif" font-size="10.00">density.cpp</text>
</a>
</g>
</g>
<!-- Node4&#45;&gt;Node5 -->
<g id="edge4" class="edge">
<title>Node4&#45;&gt;Node5</title>
<path fill="none" stroke="midnightblue" d="M630.7,-107.73C610.89,-97.73 584.29,-84.31 567.15,-75.65"/>
<polygon fill="midnightblue" stroke="midnightblue" points="629.3,-110.94 639.81,-112.32 632.46,-104.69 629.3,-110.94"/>
</g>
<!-- Node6 -->
<g id="node6" class="node">
<title>Node6</title>
<g id="a_node6"><a xlink:href="icns__bcop_8_h.html" target="_top" xlink:title=" ">
<polygon fill="white" stroke="black" points="837.5,-56.5 837.5,-75.5 912.5,-75.5 912.5,-56.5 837.5,-56.5"/>
<text text-anchor="middle" x="875" y="-63.5" font-family="Helvetica,sans-Serif" font-size="10.00">icns_bcop.H</text>
</a>
</g>
</g>
<!-- Node4&#45;&gt;Node6 -->
<g id="edge5" class="edge">
<title>Node4&#45;&gt;Node6</title>
<path fill="none" stroke="midnightblue" d="M696.8,-111.14C737.91,-100.96 801.42,-85.23 840.48,-75.55"/>
<polygon fill="midnightblue" stroke="midnightblue" points="695.72,-107.8 686.85,-113.6 697.4,-114.6 695.72,-107.8"/>
</g>
<!-- Node8 -->
<g id="node8" class="node">
<title>Node8</title>
<g id="a_node8"><a xlink:href="levelset_8cpp.html" target="_top" xlink:title=" ">
<polygon fill="white" stroke="black" points="969,-56.5 969,-75.5 1045,-75.5 1045,-56.5 969,-56.5"/>
<text text-anchor="middle" x="1007" y="-63.5" font-family="Helvetica,sans-Serif" font-size="10.00">levelset.cpp</text>
</a>
</g>
</g>
<!-- Node4&#45;&gt;Node8 -->
<g id="edge7" class="edge">
<title>Node4&#45;&gt;Node8</title>
<path fill="none" stroke="midnightblue" d="M696.7,-115.28C753.85,-106.99 862.62,-90.97 955,-76 959.52,-75.27 964.26,-74.48 968.96,-73.68"/>
<polygon fill="midnightblue" stroke="midnightblue" points="696.04,-111.84 686.64,-116.74 697.04,-118.77 696.04,-111.84"/>
</g>
<!-- Node9 -->
<g id="node9" class="node">
<title>Node9</title>
<g id="a_node9"><a xlink:href="passive__scalar_8cpp.html" target="_top" xlink:title=" ">
<polygon fill="white" stroke="black" points="0,-56.5 0,-75.5 108,-75.5 108,-56.5 0,-56.5"/>
<text text-anchor="middle" x="54" y="-63.5" font-family="Helvetica,sans-Serif" font-size="10.00">passive_scalar.cpp</text>
</a>
</g>
</g>
<!-- Node4&#45;&gt;Node9 -->
<g id="edge8" class="edge">
<title>Node4&#45;&gt;Node9</title>
<path fill="none" stroke="midnightblue" d="M617.28,-112.15C395.5,-79.41 335.72,-99.45 117,-76 114.14,-75.69 111.22,-75.36 108.27,-75"/>
<polygon fill="midnightblue" stroke="midnightblue" points="616.87,-115.62 627.28,-113.64 617.91,-108.7 616.87,-115.62"/>
</g>
<!-- Node10 -->
<g id="node10" class="node">
<title>Node10</title>
<g id="a_node10"><a xlink:href="_s_d_r_8cpp.html" target="_top" xlink:title=" ">
<polygon fill="white" stroke="black" points="126.5,-56.5 126.5,-75.5 183.5,-75.5 183.5,-56.5 126.5,-56.5"/>
<text text-anchor="middle" x="155" y="-63.5" font-family="Helvetica,sans-Serif" font-size="10.00">SDR.cpp</text>
</a>
</g>
</g>
<!-- Node4&#45;&gt;Node10 -->
<g id="edge9" class="edge">
<title>Node4&#45;&gt;Node10</title>
<path fill="none" stroke="midnightblue" d="M617.32,-112.14C428.96,-83.39 376.99,-105.41 193,-76 189.92,-75.51 186.72,-74.9 183.54,-74.24"/>
<polygon fill="midnightblue" stroke="midnightblue" points="616.86,-115.6 627.27,-113.68 617.93,-108.69 616.86,-115.6"/>
</g>
<!-- Node11 -->
<g id="node11" class="node">
<title>Node11</title>
<g id="a_node11"><a xlink:href="temperature_8cpp.html" target="_top" xlink:title=" ">
<polygon fill="white" stroke="black" points="202,-56.5 202,-75.5 300,-75.5 300,-56.5 202,-56.5"/>
<text text-anchor="middle" x="251" y="-63.5" font-family="Helvetica,sans-Serif" font-size="10.00">temperature.cpp</text>
</a>
</g>
</g>
<!-- Node4&#45;&gt;Node11 -->
<g id="edge10" class="edge">
<title>Node4&#45;&gt;Node11</title>
<path fill="none" stroke="midnightblue" d="M617.21,-112.05C480.03,-88.7 442.79,-94.17 309,-76 306.07,-75.6 303.06,-75.18 300.03,-74.74"/>
<polygon fill="midnightblue" stroke="midnightblue" points="616.81,-115.53 627.26,-113.78 618,-108.63 616.81,-115.53"/>
</g>
<!-- Node12 -->
<g id="node12" class="node">
<title>Node12</title>
<g id="a_node12"><a xlink:href="_t_k_e_8cpp.html" target="_top" xlink:title=" ">
<polygon fill="white" stroke="black" points="318,-56.5 318,-75.5 374,-75.5 374,-56.5 318,-56.5"/>
<text text-anchor="middle" x="346" y="-63.5" font-family="Helvetica,sans-Serif" font-size="10.00">TKE.cpp</text>
</a>
</g>
</g>
<!-- Node4&#45;&gt;Node12 -->
<g id="edge11" class="edge">
<title>Node4&#45;&gt;Node12</title>
<path fill="none" stroke="midnightblue" d="M617.2,-111.98C512.49,-92.35 483.52,-95.89 383,-76 380.15,-75.44 377.18,-74.8 374.23,-74.13"/>
<polygon fill="midnightblue" stroke="midnightblue" points="616.76,-115.46 627.24,-113.89 618.07,-108.58 616.76,-115.46"/>
</g>
<!-- Node13 -->
<g id="node13" class="node">
<title>Node13</title>
<g id="a_node13"><a xlink:href="vof_8cpp.html" target="_top" xlink:title=" ">
<polygon fill="white" stroke="black" points="997,-0.5 997,-19.5 1049,-19.5 1049,-0.5 997,-0.5"/>
<text text-anchor="middle" x="1023" y="-7.5" font-family="Helvetica,sans-Serif" font-size="10.00">vof.cpp</text>
</a>
</g>
</g>
<!-- Node4&#45;&gt;Node13 -->
<g id="edge12" class="edge">
<title>Node4&#45;&gt;Node13</title>
<path fill="none" stroke="midnightblue" d="M696.65,-119.22C749.64,-115.75 845.73,-105.59 922,-76 940.76,-68.72 988.64,-35.47 1011.07,-19.55"/>
<polygon fill="midnightblue" stroke="midnightblue" points="696.41,-115.73 686.65,-119.83 696.84,-122.72 696.41,-115.73"/>
</g>
<!-- Node14 -->
<g id="node14" class="node">
<title>Node14</title>
<g id="a_node14"><a xlink:href="vof__bcop_8_h.html" target="_top" xlink:title=" ">
<polygon fill="white" stroke="black" points="1063.5,-56.5 1063.5,-75.5 1134.5,-75.5 1134.5,-56.5 1063.5,-56.5"/>
<text text-anchor="middle" x="1099" y="-63.5" font-family="Helvetica,sans-Serif" font-size="10.00">vof_bcop.H</text>
</a>
</g>
</g>
<!-- Node4&#45;&gt;Node14 -->
<g id="edge13" class="edge">
<title>Node4&#45;&gt;Node14</title>
<path fill="none" stroke="midnightblue" d="M696.96,-117.6C768.71,-111.24 924.01,-96.33 1054,-76 1056.99,-75.53 1060.09,-75 1063.19,-74.45"/>
<polygon fill="midnightblue" stroke="midnightblue" points="696.65,-114.11 687,-118.47 697.27,-121.08 696.65,-114.11"/>
</g>
<!-- Node15 -->
<g id="node15" class="node">
<title>Node15</title>
<g id="a_node15"><a xlink:href="hos__waves__ops_8_h.html" target="_top" xlink:title=" ">
<polygon fill="white" stroke="black" points="392,-56.5 392,-75.5 496,-75.5 496,-56.5 392,-56.5"/>
<text text-anchor="middle" x="444" y="-63.5" font-family="Helvetica,sans-Serif" font-size="10.00">hos_waves_ops.H</text>
</a>
</g>
</g>
<!-- Node4&#45;&gt;Node15 -->
<g id="edge15" class="edge">
<title>Node4&#45;&gt;Node15</title>
<path fill="none" stroke="midnightblue" d="M617.65,-111.02C577.41,-100.82 515.58,-85.15 477.57,-75.51"/>
<polygon fill="midnightblue" stroke="midnightblue" points="616.83,-114.43 627.38,-113.49 618.55,-107.64 616.83,-114.43"/>
</g>
<!-- Node17 -->
<g id="node17" class="node">
<title>Node17</title>
<g id="a_node17"><a xlink:href="waves2amr__ops_8_h.html" target="_top" xlink:title=" ">
<polygon fill="white" stroke="black" points="603.5,-56.5 603.5,-75.5 710.5,-75.5 710.5,-56.5 603.5,-56.5"/>
<text text-anchor="middle" x="657" y="-63.5" font-family="Helvetica,sans-Serif" font-size="10.00">waves2amr_ops.H</text>
</a>
</g>
</g>
<!-- Node4&#45;&gt;Node17 -->
<g id="edge17" class="edge">
<title>Node4&#45;&gt;Node17</title>
<path fill="none" stroke="midnightblue" d="M657,-101.8C657,-92.91 657,-82.78 657,-75.75"/>
<polygon fill="midnightblue" stroke="midnightblue" points="653.5,-102.08 657,-112.08 660.5,-102.08 653.5,-102.08"/>
</g>
<!-- Node19 -->
<g id="node19" class="node">
<title>Node19</title>
<g id="a_node19"><a xlink:href="_multi_phase_8cpp.html" target="_top" xlink:title=" ">
<polygon fill="white" stroke="black" points="728.5,-56.5 728.5,-75.5 819.5,-75.5 819.5,-56.5 728.5,-56.5"/>
<text text-anchor="middle" x="774" y="-63.5" font-family="Helvetica,sans-Serif" font-size="10.00">MultiPhase.cpp</text>
</a>
</g>
</g>
<!-- Node4&#45;&gt;Node19 -->
<g id="edge19" class="edge">
<title>Node4&#45;&gt;Node19</title>
<path fill="none" stroke="midnightblue" d="M684.66,-108.23C706.55,-98.13 736.5,-84.31 755.55,-75.52"/>
<polygon fill="midnightblue" stroke="midnightblue" points="683.15,-105.08 675.54,-112.44 686.09,-111.43 683.15,-105.08"/>
</g>
<!-- Node7 -->
<g id="node7" class="node">
<title>Node7</title>
<g id="a_node7"><a xlink:href="icns_8cpp.html" target="_top" xlink:title=" ">
<polygon fill="white" stroke="black" points="847,-0.5 847,-19.5 903,-19.5 903,-0.5 847,-0.5"/>
<text text-anchor="middle" x="875" y="-7.5" font-family="Helvetica,sans-Serif" font-size="10.00">icns.cpp</text>
</a>
</g>
</g>
<!-- Node6&#45;&gt;Node7 -->
<g id="edge6" class="edge">
<title>Node6&#45;&gt;Node7</title>
<path fill="none" stroke="midnightblue" d="M875,-45.8C875,-36.91 875,-26.78 875,-19.75"/>
<polygon fill="midnightblue" stroke="midnightblue" points="871.5,-46.08 875,-56.08 878.5,-46.08 871.5,-46.08"/>
</g>
<!-- Node14&#45;&gt;Node13 -->
<g id="edge14" class="edge">
<title>Node14&#45;&gt;Node13</title>
<path fill="none" stroke="midnightblue" d="M1078.42,-50.38C1064.69,-40.62 1047.07,-28.11 1035.43,-19.83"/>
<polygon fill="midnightblue" stroke="midnightblue" points="1076.61,-53.38 1086.79,-56.32 1080.66,-47.68 1076.61,-53.38"/>
</g>
<!-- Node16 -->
<g id="node16" class="node">
<title>Node16</title>
<g id="a_node16"><a xlink:href="_h_o_s_waves_8cpp.html" target="_top" xlink:title=" ">
<polygon fill="white" stroke="black" points="399,-0.5 399,-19.5 489,-19.5 489,-0.5 399,-0.5"/>
<text text-anchor="middle" x="444" y="-7.5" font-family="Helvetica,sans-Serif" font-size="10.00">HOSWaves.cpp</text>
</a>
</g>
</g>
<!-- Node15&#45;&gt;Node16 -->
<g id="edge16" class="edge">
<title>Node15&#45;&gt;Node16</title>
<path fill="none" stroke="midnightblue" d="M444,-45.8C444,-36.91 444,-26.78 444,-19.75"/>
<polygon fill="midnightblue" stroke="midnightblue" points="440.5,-46.08 444,-56.08 447.5,-46.08 440.5,-46.08"/>
</g>
<!-- Node18 -->
<g id="node18" class="node">
<title>Node18</title>
<g id="a_node18"><a xlink:href="_w2_a_waves_8cpp.html" target="_top" xlink:title=" ">
<polygon fill="white" stroke="black" points="611.5,-0.5 611.5,-19.5 702.5,-19.5 702.5,-0.5 611.5,-0.5"/>
<text text-anchor="middle" x="657" y="-7.5" font-family="Helvetica,sans-Serif" font-size="10.00">W2AWaves.cpp</text>
</a>
</g>
</g>
<!-- Node17&#45;&gt;Node18 -->
<g id="edge18" class="edge">
<title>Node17&#45;&gt;Node18</title>
<path fill="none" stroke="midnightblue" d="M657,-45.8C657,-36.91 657,-26.78 657,-19.75"/>
<polygon fill="midnightblue" stroke="midnightblue" points="653.5,-46.08 657,-56.08 660.5,-46.08 653.5,-46.08"/>
</g>
<!-- Node20&#45;&gt;Node14 -->
<g id="edge21" class="edge">
<title>Node20&#45;&gt;Node14</title>
<path fill="none" stroke="midnightblue" d="M959.9,-109.44C993.28,-99.26 1041.1,-84.66 1071.09,-75.52"/>
<polygon fill="midnightblue" stroke="midnightblue" points="958.59,-106.18 950.05,-112.44 960.63,-112.87 958.59,-106.18"/>
</g>
</g>
</svg>
