<?xml version="1.0" encoding="UTF-8" standalone="no"?>
<!DOCTYPE svg PUBLIC "-//W3C//DTD SVG 1.1//EN"
 "http://www.w3.org/Graphics/SVG/1.1/DTD/svg11.dtd">
<!-- Generated by graphviz version 2.43.0 (0)
 -->
<!-- Title: DirectionSelector.H Pages: 1 -->
<svg width="1878pt" height="319pt"
 viewBox="0.00 0.00 1878.00 319.00" xmlns="http://www.w3.org/2000/svg" xmlns:xlink="http://www.w3.org/1999/xlink">
<g id="graph0" class="graph" transform="scale(1 1) rotate(0) translate(4 315)">
<title>DirectionSelector.H</title>
<polygon fill="white" stroke="transparent" points="-4,4 -4,-315 1874,-315 1874,4 -4,4"/>
<!-- Node1 -->
<g id="node1" class="node">
<title>Node1</title>
<g id="a_node1"><a xlink:title=" ">
<polygon fill="#bfbfbf" stroke="black" points="641,-291.5 641,-310.5 751,-310.5 751,-291.5 641,-291.5"/>
<text text-anchor="middle" x="696" y="-298.5" font-family="Helvetica,sans-Serif" font-size="10.00">DirectionSelector.H</text>
</a>
</g>
</g>
<!-- Node2 -->
<g id="node2" class="node">
<title>Node2</title>
<g id="a_node2"><a xlink:href="_channel_flow_8cpp.html" target="_top" xlink:title=" ">
<polygon fill="white" stroke="black" points="154.5,-67.5 154.5,-86.5 253.5,-86.5 253.5,-67.5 154.5,-67.5"/>
<text text-anchor="middle" x="204" y="-74.5" font-family="Helvetica,sans-Serif" font-size="10.00">ChannelFlow.cpp</text>
</a>
</g>
</g>
<!-- Node1&#45;&gt;Node2 -->
<g id="edge1" class="edge">
<title>Node1&#45;&gt;Node2</title>
<path fill="none" stroke="midnightblue" d="M630.65,-293.69C498.41,-280.11 204.11,-245.54 115,-199 77.34,-179.33 31.73,-157.16 57,-123 79.22,-92.96 121.1,-82.32 154.49,-78.84"/>
<polygon fill="midnightblue" stroke="midnightblue" points="630.34,-297.18 640.65,-294.71 631.05,-290.21 630.34,-297.18"/>
</g>
<!-- Node3 -->
<g id="node3" class="node">
<title>Node3</title>
<g id="a_node3"><a xlink:href="_a_m_d_8cpp.html" target="_top" xlink:title=" ">
<polygon fill="white" stroke="black" points="1568,-123.5 1568,-142.5 1628,-142.5 1628,-123.5 1568,-123.5"/>
<text text-anchor="middle" x="1598" y="-130.5" font-family="Helvetica,sans-Serif" font-size="10.00">AMD.cpp</text>
</a>
</g>
</g>
<!-- Node1&#45;&gt;Node3 -->
<g id="edge2" class="edge">
<title>Node1&#45;&gt;Node3</title>
<path fill="none" stroke="midnightblue" d="M761.65,-299.56C884.01,-297.88 1154.92,-290.13 1380,-255 1481.82,-239.11 1541.54,-280.19 1605,-199 1617.86,-182.55 1608.62,-156.17 1602.4,-142.63"/>
<polygon fill="midnightblue" stroke="midnightblue" points="761.29,-296.06 751.34,-299.69 761.38,-303.06 761.29,-296.06"/>
</g>
<!-- Node4 -->
<g id="node4" class="node">
<title>Node4</title>
<g id="a_node4"><a xlink:href="_a_m_d_8_h.html" target="_top" xlink:title=" ">
<polygon fill="white" stroke="black" points="1546,-179.5 1546,-198.5 1596,-198.5 1596,-179.5 1546,-179.5"/>
<text text-anchor="middle" x="1571" y="-186.5" font-family="Helvetica,sans-Serif" font-size="10.00">AMD.H</text>
</a>
</g>
</g>
<!-- Node1&#45;&gt;Node4 -->
<g id="edge3" class="edge">
<title>Node1&#45;&gt;Node4</title>
<path fill="none" stroke="midnightblue" d="M761.58,-299.22C876.06,-296.99 1119.48,-288.36 1322,-255 1405.32,-241.27 1501.33,-212.39 1545.88,-198.21"/>
<polygon fill="midnightblue" stroke="midnightblue" points="761.18,-295.73 751.24,-299.41 761.31,-302.73 761.18,-295.73"/>
</g>
<!-- Node5 -->
<g id="node5" class="node">
<title>Node5</title>
<g id="a_node5"><a xlink:href="_field_plane_averaging_8_h.html" target="_top" xlink:title=" ">
<polygon fill="white" stroke="black" points="1187,-235.5 1187,-254.5 1313,-254.5 1313,-235.5 1187,-235.5"/>
<text text-anchor="middle" x="1250" y="-242.5" font-family="Helvetica,sans-Serif" font-size="10.00">FieldPlaneAveraging.H</text>
</a>
</g>
</g>
<!-- Node1&#45;&gt;Node5 -->
<g id="edge5" class="edge">
<title>Node1&#45;&gt;Node5</title>
<path fill="none" stroke="midnightblue" d="M761.19,-293.65C868.4,-283.2 1080.62,-262.51 1186.63,-252.18"/>
<polygon fill="midnightblue" stroke="midnightblue" points="760.76,-290.17 751.15,-294.62 761.44,-297.14 760.76,-290.17"/>
</g>
<!-- Node14 -->
<g id="node14" class="node">
<title>Node14</title>
<g id="a_node14"><a xlink:href="_second_moment_averaging_8_h.html" target="_top" xlink:title=" ">
<polygon fill="white" stroke="black" points="124,-179.5 124,-198.5 276,-198.5 276,-179.5 124,-179.5"/>
<text text-anchor="middle" x="200" y="-186.5" font-family="Helvetica,sans-Serif" font-size="10.00">SecondMomentAveraging.H</text>
</a>
</g>
</g>
<!-- Node1&#45;&gt;Node14 -->
<g id="edge64" class="edge">
<title>Node1&#45;&gt;Node14</title>
<path fill="none" stroke="midnightblue" d="M647.52,-289.25C549.14,-267.43 327.82,-218.35 238.48,-198.53"/>
<polygon fill="midnightblue" stroke="midnightblue" points="646.97,-292.71 657.49,-291.46 648.49,-285.88 646.97,-292.71"/>
</g>
<!-- Node17 -->
<g id="node17" class="node">
<title>Node17</title>
<g id="a_node17"><a xlink:href="_a_b_l_stats_8cpp.html" target="_top" xlink:title=" ">
<polygon fill="white" stroke="black" points="118,-6 118,-25 198,-25 198,-6 118,-6"/>
<text text-anchor="middle" x="158" y="-13" font-family="Helvetica,sans-Serif" font-size="10.00">ABLStats.cpp</text>
</a>
</g>
</g>
<!-- Node1&#45;&gt;Node17 -->
<g id="edge66" class="edge">
<title>Node1&#45;&gt;Node17</title>
<path fill="none" stroke="midnightblue" d="M630.81,-296.5C457.77,-286.35 0,-253.5 0,-190 0,-190 0,-190 0,-132 0,-71.18 77.25,-38.94 123.72,-25.05"/>
<polygon fill="midnightblue" stroke="midnightblue" points="630.62,-300 640.8,-297.08 631.02,-293.01 630.62,-300"/>
</g>
<!-- Node18 -->
<g id="node18" class="node">
<title>Node18</title>
<g id="a_node18"><a xlink:href="_third_moment_averaging_8_h.html" target="_top" xlink:title=" ">
<polygon fill="white" stroke="black" points="575.5,-179.5 575.5,-198.5 716.5,-198.5 716.5,-179.5 575.5,-179.5"/>
<text text-anchor="middle" x="646" y="-186.5" font-family="Helvetica,sans-Serif" font-size="10.00">ThirdMomentAveraging.H</text>
</a>
</g>
</g>
<!-- Node1&#45;&gt;Node18 -->
<g id="edge65" class="edge">
<title>Node1&#45;&gt;Node18</title>
<path fill="none" stroke="midnightblue" d="M682.57,-283.27C676.54,-275.12 669.73,-264.94 665,-255 655.91,-235.89 650.21,-211.52 647.63,-198.73"/>
<polygon fill="midnightblue" stroke="midnightblue" points="679.81,-285.42 688.68,-291.22 685.36,-281.15 679.81,-285.42"/>
</g>
<!-- Node34 -->
<g id="node34" class="node">
<title>Node34</title>
<g id="a_node34"><a xlink:href="_field_plane_averaging_fine_8_h.html" target="_top" xlink:title=" ">
<polygon fill="white" stroke="black" points="674,-235.5 674,-254.5 820,-254.5 820,-235.5 674,-235.5"/>
<text text-anchor="middle" x="747" y="-242.5" font-family="Helvetica,sans-Serif" font-size="10.00">FieldPlaneAveragingFine.H</text>
</a>
</g>
</g>
<!-- Node1&#45;&gt;Node34 -->
<g id="edge48" class="edge">
<title>Node1&#45;&gt;Node34</title>
<path fill="none" stroke="midnightblue" d="M711.38,-283.72C720.37,-274.2 731.36,-262.56 738.74,-254.75"/>
<polygon fill="midnightblue" stroke="midnightblue" points="708.74,-281.41 704.42,-291.08 713.83,-286.22 708.74,-281.41"/>
</g>
<!-- Node4&#45;&gt;Node3 -->
<g id="edge4" class="edge">
<title>Node4&#45;&gt;Node3</title>
<path fill="none" stroke="midnightblue" d="M1580.01,-169.98C1584.59,-160.82 1589.95,-150.09 1593.62,-142.75"/>
<polygon fill="midnightblue" stroke="midnightblue" points="1576.8,-168.57 1575.46,-179.08 1583.06,-171.7 1576.8,-168.57"/>
</g>
<!-- Node5&#45;&gt;Node4 -->
<g id="edge15" class="edge">
<title>Node5&#45;&gt;Node4</title>
<path fill="none" stroke="midnightblue" d="M1323.25,-234.64C1381.47,-226.69 1464.83,-214.17 1537,-199 1539.87,-198.4 1542.86,-197.7 1545.82,-196.98"/>
<polygon fill="midnightblue" stroke="midnightblue" points="1322.48,-231.21 1313.04,-236.02 1323.42,-238.15 1322.48,-231.21"/>
</g>
<!-- Node6 -->
<g id="node6" class="node">
<title>Node6</title>
<g id="a_node6"><a xlink:href="_a_b_l_mean_boussinesq_8_h.html" target="_top" xlink:title=" ">
<polygon fill="white" stroke="black" points="1339,-67.5 1339,-86.5 1467,-86.5 1467,-67.5 1339,-67.5"/>
<text text-anchor="middle" x="1403" y="-74.5" font-family="Helvetica,sans-Serif" font-size="10.00">ABLMeanBoussinesq.H</text>
</a>
</g>
</g>
<!-- Node5&#45;&gt;Node6 -->
<g id="edge6" class="edge">
<title>Node5&#45;&gt;Node6</title>
<path fill="none" stroke="midnightblue" d="M1255.36,-225.58C1263.69,-199.74 1282,-152.58 1312,-123 1329.7,-105.55 1355.51,-93.67 1375.12,-86.52"/>
<polygon fill="midnightblue" stroke="midnightblue" points="1251.98,-224.65 1252.39,-235.24 1258.67,-226.7 1251.98,-224.65"/>
</g>
<!-- Node9 -->
<g id="node9" class="node">
<title>Node9</title>
<g id="a_node9"><a xlink:href="_hurricane_forcing_8_h.html" target="_top" xlink:title=" ">
<polygon fill="white" stroke="black" points="1485,-67.5 1485,-86.5 1595,-86.5 1595,-67.5 1485,-67.5"/>
<text text-anchor="middle" x="1540" y="-74.5" font-family="Helvetica,sans-Serif" font-size="10.00">HurricaneForcing.H</text>
</a>
</g>
</g>
<!-- Node5&#45;&gt;Node9 -->
<g id="edge9" class="edge">
<title>Node5&#45;&gt;Node9</title>
<path fill="none" stroke="midnightblue" d="M1263.18,-226.86C1287.69,-195.16 1338.84,-129.94 1350,-123 1372.74,-108.86 1439.79,-95.03 1487.78,-86.52"/>
<polygon fill="midnightblue" stroke="midnightblue" points="1260.1,-225.13 1256.76,-235.18 1265.64,-229.4 1260.1,-225.13"/>
</g>
<!-- Node11 -->
<g id="node11" class="node">
<title>Node11</title>
<g id="a_node11"><a xlink:href="_hurricane_temp_forcing_8_h.html" target="_top" xlink:title=" ">
<polygon fill="white" stroke="black" points="1613,-67.5 1613,-86.5 1749,-86.5 1749,-67.5 1613,-67.5"/>
<text text-anchor="middle" x="1681" y="-74.5" font-family="Helvetica,sans-Serif" font-size="10.00">HurricaneTempForcing.H</text>
</a>
</g>
</g>
<!-- Node5&#45;&gt;Node11 -->
<g id="edge12" class="edge">
<title>Node5&#45;&gt;Node11</title>
<path fill="none" stroke="midnightblue" d="M1275.01,-230.58C1301.42,-216.7 1344.48,-194.86 1383,-179 1479.48,-139.27 1597.87,-102.6 1651.78,-86.54"/>
<polygon fill="midnightblue" stroke="midnightblue" points="1273.27,-227.54 1266.07,-235.31 1276.55,-233.73 1273.27,-227.54"/>
</g>
<!-- Node13 -->
<g id="node13" class="node">
<title>Node13</title>
<g id="a_node13"><a xlink:href="_field_plane_averaging_8cpp.html" target="_top" xlink:title=" ">
<polygon fill="white" stroke="black" points="1392,-179.5 1392,-198.5 1528,-198.5 1528,-179.5 1392,-179.5"/>
<text text-anchor="middle" x="1460" y="-186.5" font-family="Helvetica,sans-Serif" font-size="10.00">FieldPlaneAveraging.cpp</text>
</a>
</g>
</g>
<!-- Node5&#45;&gt;Node13 -->
<g id="edge16" class="edge">
<title>Node5&#45;&gt;Node13</title>
<path fill="none" stroke="midnightblue" d="M1293.19,-232.89C1332.85,-222.7 1390.77,-207.8 1426.88,-198.52"/>
<polygon fill="midnightblue" stroke="midnightblue" points="1292.09,-229.56 1283.28,-235.44 1293.83,-236.34 1292.09,-229.56"/>
</g>
<!-- Node5&#45;&gt;Node14 -->
<g id="edge17" class="edge">
<title>Node5&#45;&gt;Node14</title>
<path fill="none" stroke="midnightblue" d="M1176.7,-242.06C1015.35,-237.45 617.39,-224.33 285,-199 282.19,-198.79 279.33,-198.55 276.44,-198.31"/>
<polygon fill="midnightblue" stroke="midnightblue" points="1176.88,-245.56 1186.98,-242.35 1177.08,-238.56 1176.88,-245.56"/>
</g>
<!-- Node16 -->
<g id="node16" class="node">
<title>Node16</title>
<g id="a_node16"><a xlink:href="_a_b_l_stats_8_h.html" target="_top" xlink:title=" ">
<polygon fill="white" stroke="black" points="646.5,-67.5 646.5,-86.5 717.5,-86.5 717.5,-67.5 646.5,-67.5"/>
<text text-anchor="middle" x="682" y="-74.5" font-family="Helvetica,sans-Serif" font-size="10.00">ABLStats.H</text>
</a>
</g>
</g>
<!-- Node5&#45;&gt;Node16 -->
<g id="edge39" class="edge">
<title>Node5&#45;&gt;Node16</title>
<path fill="none" stroke="midnightblue" d="M1186.35,-233.74C1101.41,-218.99 947.06,-188.46 821,-143 774.89,-126.37 723.25,-100.07 697.86,-86.59"/>
<polygon fill="midnightblue" stroke="midnightblue" points="1185.91,-237.22 1196.36,-235.46 1187.1,-230.32 1185.91,-237.22"/>
</g>
<!-- Node5&#45;&gt;Node18 -->
<g id="edge21" class="edge">
<title>Node5&#45;&gt;Node18</title>
<path fill="none" stroke="midnightblue" d="M1176.49,-237.43C1059.36,-226.96 831.86,-206.62 716.6,-196.31"/>
<polygon fill="midnightblue" stroke="midnightblue" points="1176.52,-240.94 1186.79,-238.35 1177.14,-233.97 1176.52,-240.94"/>
</g>
<!-- Node20 -->
<g id="node20" class="node">
<title>Node20</title>
<g id="a_node20"><a xlink:href="_a_b_l_8_h.html" target="_top" xlink:title=" ">
<polygon fill="white" stroke="black" points="1075,-67.5 1075,-86.5 1121,-86.5 1121,-67.5 1075,-67.5"/>
<text text-anchor="middle" x="1098" y="-74.5" font-family="Helvetica,sans-Serif" font-size="10.00">ABL.H</text>
</a>
</g>
</g>
<!-- Node5&#45;&gt;Node20 -->
<g id="edge24" class="edge">
<title>Node5&#45;&gt;Node20</title>
<path fill="none" stroke="midnightblue" d="M1241.47,-226.41C1228.62,-201.24 1202.33,-154.52 1170,-123 1153.96,-107.36 1131.58,-94.43 1116.05,-86.5"/>
<polygon fill="midnightblue" stroke="midnightblue" points="1238.4,-228.1 1245.99,-235.49 1244.66,-224.98 1238.4,-228.1"/>
</g>
<!-- Node31 -->
<g id="node31" class="node">
<title>Node31</title>
<g id="a_node31"><a xlink:href="_a_b_l_wall_function_8_h.html" target="_top" xlink:title=" ">
<polygon fill="white" stroke="black" points="1044.5,-179.5 1044.5,-198.5 1151.5,-198.5 1151.5,-179.5 1044.5,-179.5"/>
<text text-anchor="middle" x="1098" y="-186.5" font-family="Helvetica,sans-Serif" font-size="10.00">ABLWallFunction.H</text>
</a>
</g>
</g>
<!-- Node5&#45;&gt;Node31 -->
<g id="edge40" class="edge">
<title>Node5&#45;&gt;Node31</title>
<path fill="none" stroke="midnightblue" d="M1216.33,-232.04C1187.73,-221.88 1147.39,-207.55 1121.97,-198.52"/>
<polygon fill="midnightblue" stroke="midnightblue" points="1215.32,-235.39 1225.92,-235.44 1217.66,-228.8 1215.32,-235.39"/>
</g>
<!-- Node7 -->
<g id="node7" class="node">
<title>Node7</title>
<g id="a_node7"><a xlink:href="_a_b_l_mean_boussinesq_8cpp.html" target="_top" xlink:title=" ">
<polygon fill="white" stroke="black" points="1356,-6 1356,-25 1494,-25 1494,-6 1356,-6"/>
<text text-anchor="middle" x="1425" y="-13" font-family="Helvetica,sans-Serif" font-size="10.00">ABLMeanBoussinesq.cpp</text>
</a>
</g>
</g>
<!-- Node6&#45;&gt;Node7 -->
<g id="edge7" class="edge">
<title>Node6&#45;&gt;Node7</title>
<path fill="none" stroke="midnightblue" d="M1409.66,-58C1413.7,-47.05 1418.69,-33.57 1421.85,-25.01"/>
<polygon fill="midnightblue" stroke="midnightblue" points="1406.34,-56.88 1406.15,-67.48 1412.9,-59.31 1406.34,-56.88"/>
</g>
<!-- Node8 -->
<g id="node8" class="node">
<title>Node8</title>
<g id="a_node8"><a xlink:href="_a_b_l_8cpp.html" target="_top" xlink:title=" ">
<polygon fill="white" stroke="black" points="1512,-6 1512,-25 1568,-25 1568,-6 1512,-6"/>
<text text-anchor="middle" x="1540" y="-13" font-family="Helvetica,sans-Serif" font-size="10.00">ABL.cpp</text>
</a>
</g>
</g>
<!-- Node6&#45;&gt;Node8 -->
<g id="edge8" class="edge">
<title>Node6&#45;&gt;Node8</title>
<path fill="none" stroke="midnightblue" d="M1431.83,-63.48C1458.44,-51.92 1497.23,-35.08 1520.41,-25.01"/>
<polygon fill="midnightblue" stroke="midnightblue" points="1430.41,-60.28 1422.63,-67.48 1433.2,-66.7 1430.41,-60.28"/>
</g>
<!-- Node9&#45;&gt;Node8 -->
<g id="edge11" class="edge">
<title>Node9&#45;&gt;Node8</title>
<path fill="none" stroke="midnightblue" d="M1540,-57.32C1540,-46.5 1540,-33.4 1540,-25.01"/>
<polygon fill="midnightblue" stroke="midnightblue" points="1536.5,-57.48 1540,-67.48 1543.5,-57.48 1536.5,-57.48"/>
</g>
<!-- Node10 -->
<g id="node10" class="node">
<title>Node10</title>
<g id="a_node10"><a xlink:href="_hurricane_forcing_8cpp.html" target="_top" xlink:title=" ">
<polygon fill="white" stroke="black" points="1586.5,-6 1586.5,-25 1705.5,-25 1705.5,-6 1586.5,-6"/>
<text text-anchor="middle" x="1646" y="-13" font-family="Helvetica,sans-Serif" font-size="10.00">HurricaneForcing.cpp</text>
</a>
</g>
</g>
<!-- Node9&#45;&gt;Node10 -->
<g id="edge10" class="edge">
<title>Node9&#45;&gt;Node10</title>
<path fill="none" stroke="midnightblue" d="M1563.95,-62.56C1584.46,-51.04 1613.38,-34.81 1630.84,-25.01"/>
<polygon fill="midnightblue" stroke="midnightblue" points="1562.19,-59.53 1555.19,-67.48 1565.62,-65.63 1562.19,-59.53"/>
</g>
<!-- Node11&#45;&gt;Node8 -->
<g id="edge14" class="edge">
<title>Node11&#45;&gt;Node8</title>
<path fill="none" stroke="midnightblue" d="M1651.33,-63.48C1623.95,-51.92 1584.02,-35.08 1560.16,-25.01"/>
<polygon fill="midnightblue" stroke="midnightblue" points="1650.22,-66.81 1660.8,-67.48 1652.95,-60.36 1650.22,-66.81"/>
</g>
<!-- Node12 -->
<g id="node12" class="node">
<title>Node12</title>
<g id="a_node12"><a xlink:href="_hurricane_temp_forcing_8cpp.html" target="_top" xlink:title=" ">
<polygon fill="white" stroke="black" points="1724,-6 1724,-25 1870,-25 1870,-6 1724,-6"/>
<text text-anchor="middle" x="1797" y="-13" font-family="Helvetica,sans-Serif" font-size="10.00">HurricaneTempForcing.cpp</text>
</a>
</g>
</g>
<!-- Node11&#45;&gt;Node12 -->
<g id="edge13" class="edge">
<title>Node11&#45;&gt;Node12</title>
<path fill="none" stroke="midnightblue" d="M1706.6,-62.87C1729.09,-51.33 1761.13,-34.9 1780.41,-25.01"/>
<polygon fill="midnightblue" stroke="midnightblue" points="1704.92,-59.8 1697.62,-67.48 1708.12,-66.03 1704.92,-59.8"/>
</g>
<!-- Node15 -->
<g id="node15" class="node">
<title>Node15</title>
<g id="a_node15"><a xlink:href="_second_moment_averaging_8cpp.html" target="_top" xlink:title=" ">
<polygon fill="white" stroke="black" points="66.5,-123.5 66.5,-142.5 227.5,-142.5 227.5,-123.5 66.5,-123.5"/>
<text text-anchor="middle" x="147" y="-130.5" font-family="Helvetica,sans-Serif" font-size="10.00">SecondMomentAveraging.cpp</text>
</a>
</g>
</g>
<!-- Node14&#45;&gt;Node15 -->
<g id="edge18" class="edge">
<title>Node14&#45;&gt;Node15</title>
<path fill="none" stroke="midnightblue" d="M184.02,-171.72C174.68,-162.2 163.25,-150.56 155.59,-142.75"/>
<polygon fill="midnightblue" stroke="midnightblue" points="181.75,-174.4 191.25,-179.08 186.74,-169.49 181.75,-174.4"/>
</g>
<!-- Node14&#45;&gt;Node16 -->
<g id="edge19" class="edge">
<title>Node14&#45;&gt;Node16</title>
<path fill="none" stroke="midnightblue" d="M213.43,-171.69C227.15,-156.28 249.96,-133.95 275,-123 341.36,-93.99 559.9,-82.65 646.35,-79.23"/>
<polygon fill="midnightblue" stroke="midnightblue" points="210.65,-169.56 206.78,-179.42 215.95,-174.12 210.65,-169.56"/>
</g>
<!-- Node16&#45;&gt;Node17 -->
<g id="edge20" class="edge">
<title>Node16&#45;&gt;Node17</title>
<path fill="none" stroke="midnightblue" d="M636.09,-74.6C550.83,-71.34 362.56,-61.09 207,-31 199.25,-29.5 190.96,-27.29 183.45,-25.05"/>
<polygon fill="midnightblue" stroke="midnightblue" points="636.09,-78.1 646.21,-74.97 636.35,-71.1 636.09,-78.1"/>
</g>
<!-- Node18&#45;&gt;Node16 -->
<g id="edge23" class="edge">
<title>Node18&#45;&gt;Node16</title>
<path fill="none" stroke="midnightblue" d="M656.37,-170.49C660.81,-162.36 665.72,-152.43 669,-143 675.81,-123.44 679.47,-99.25 681.04,-86.61"/>
<polygon fill="midnightblue" stroke="midnightblue" points="653.23,-168.93 651.33,-179.35 659.32,-172.39 653.23,-168.93"/>
</g>
<!-- Node19 -->
<g id="node19" class="node">
<title>Node19</title>
<g id="a_node19"><a xlink:href="_third_moment_averaging_8cpp.html" target="_top" xlink:title=" ">
<polygon fill="white" stroke="black" points="508.5,-123.5 508.5,-142.5 659.5,-142.5 659.5,-123.5 508.5,-123.5"/>
<text text-anchor="middle" x="584" y="-130.5" font-family="Helvetica,sans-Serif" font-size="10.00">ThirdMomentAveraging.cpp</text>
</a>
</g>
</g>
<!-- Node18&#45;&gt;Node19 -->
<g id="edge22" class="edge">
<title>Node18&#45;&gt;Node19</title>
<path fill="none" stroke="midnightblue" d="M628.25,-172.54C617.19,-162.91 603.37,-150.87 594.14,-142.83"/>
<polygon fill="midnightblue" stroke="midnightblue" points="626.2,-175.4 636.04,-179.32 630.8,-170.12 626.2,-175.4"/>
</g>
<!-- Node20&#45;&gt;Node7 -->
<g id="edge27" class="edge">
<title>Node20&#45;&gt;Node7</title>
<path fill="none" stroke="midnightblue" d="M1131.07,-70.08C1178.77,-61.52 1269.67,-45.18 1347,-31 1357.43,-29.09 1368.64,-27.01 1379.23,-25.05"/>
<polygon fill="midnightblue" stroke="midnightblue" points="1130.23,-66.67 1121.01,-71.88 1131.47,-73.56 1130.23,-66.67"/>
</g>
<!-- Node20&#45;&gt;Node8 -->
<g id="edge36" class="edge">
<title>Node20&#45;&gt;Node8</title>
<path fill="none" stroke="midnightblue" d="M1131.61,-75.24C1201.67,-73 1368.05,-64.32 1503,-31 1509.03,-29.51 1515.39,-27.28 1521.11,-25.01"/>
<polygon fill="midnightblue" stroke="midnightblue" points="1131.1,-71.75 1121.21,-75.54 1131.31,-78.75 1131.1,-71.75"/>
</g>
<!-- Node20&#45;&gt;Node10 -->
<g id="edge29" class="edge">
<title>Node20&#45;&gt;Node10</title>
<path fill="none" stroke="midnightblue" d="M1131.23,-74.18C1209.34,-69.62 1410.58,-56.22 1577,-31 1587.53,-29.4 1598.87,-27.22 1609.26,-25.03"/>
<polygon fill="midnightblue" stroke="midnightblue" points="1130.83,-70.7 1121.05,-74.77 1131.23,-77.69 1130.83,-70.7"/>
</g>
<!-- Node20&#45;&gt;Node12 -->
<g id="edge31" class="edge">
<title>Node20&#45;&gt;Node12</title>
<path fill="none" stroke="midnightblue" d="M1131.22,-74.77C1223.89,-71.09 1493.04,-58.64 1715,-31 1727.62,-29.43 1741.26,-27.22 1753.72,-25.01"/>
<polygon fill="midnightblue" stroke="midnightblue" points="1130.91,-71.28 1121.05,-75.17 1131.18,-78.28 1130.91,-71.28"/>
</g>
<!-- Node21 -->
<g id="node21" class="node">
<title>Node21</title>
<g id="a_node21"><a xlink:href="_c_f_d_sim_8cpp.html" target="_top" xlink:title=" ">
<polygon fill="white" stroke="black" points="728,-6 728,-25 804,-25 804,-6 728,-6"/>
<text text-anchor="middle" x="766" y="-13" font-family="Helvetica,sans-Serif" font-size="10.00">CFDSim.cpp</text>
</a>
</g>
</g>
<!-- Node20&#45;&gt;Node21 -->
<g id="edge25" class="edge">
<title>Node20&#45;&gt;Node21</title>
<path fill="none" stroke="midnightblue" d="M1064.59,-71.29C1000.23,-62.12 861.25,-41.83 814,-31 806.79,-29.35 799.07,-27.19 791.98,-25.05"/>
<polygon fill="midnightblue" stroke="midnightblue" points="1064.22,-74.77 1074.62,-72.71 1065.21,-67.84 1064.22,-74.77"/>
</g>
<!-- Node22 -->
<g id="node22" class="node">
<title>Node22</title>
<g id="a_node22"><a xlink:href="_a_b_l_forcing_8cpp.html" target="_top" xlink:title=" ">
<polygon fill="white" stroke="black" points="822.5,-6 822.5,-25 913.5,-25 913.5,-6 822.5,-6"/>
<text text-anchor="middle" x="868" y="-13" font-family="Helvetica,sans-Serif" font-size="10.00">ABLForcing.cpp</text>
</a>
</g>
</g>
<!-- Node20&#45;&gt;Node22 -->
<g id="edge26" class="edge">
<title>Node20&#45;&gt;Node22</title>
<path fill="none" stroke="midnightblue" d="M1065.03,-67.59C1029.84,-58.59 972.46,-43.88 923,-31 915.64,-29.08 907.73,-27.01 900.27,-25.04"/>
<polygon fill="midnightblue" stroke="midnightblue" points="1064.22,-70.99 1074.78,-70.08 1065.95,-64.21 1064.22,-70.99"/>
</g>
<!-- Node23 -->
<g id="node23" class="node">
<title>Node23</title>
<g id="a_node23"><a xlink:href="_a_b_l_meso_forcing_mom_8cpp.html" target="_top" xlink:title=" ">
<polygon fill="white" stroke="black" points="216,-6 216,-25 358,-25 358,-6 216,-6"/>
<text text-anchor="middle" x="287" y="-13" font-family="Helvetica,sans-Serif" font-size="10.00">ABLMesoForcingMom.cpp</text>
</a>
</g>
</g>
<!-- Node20&#45;&gt;Node23 -->
<g id="edge28" class="edge">
<title>Node20&#45;&gt;Node23</title>
<path fill="none" stroke="midnightblue" d="M1064.8,-71.15C1053.46,-69.64 1040.7,-68.08 1029,-67 735.59,-39.93 659.65,-65.34 367,-31 354.38,-29.52 340.75,-27.29 328.37,-25.02"/>
<polygon fill="midnightblue" stroke="midnightblue" points="1064.35,-74.63 1074.73,-72.52 1065.3,-67.69 1064.35,-74.63"/>
</g>
<!-- Node24 -->
<g id="node24" class="node">
<title>Node24</title>
<g id="a_node24"><a xlink:href="_a_b_l_meso_forcing_temp_8cpp.html" target="_top" xlink:title=" ">
<polygon fill="white" stroke="black" points="376.5,-6 376.5,-25 519.5,-25 519.5,-6 376.5,-6"/>
<text text-anchor="middle" x="448" y="-13" font-family="Helvetica,sans-Serif" font-size="10.00">ABLMesoForcingTemp.cpp</text>
</a>
</g>
</g>
<!-- Node20&#45;&gt;Node24 -->
<g id="edge30" class="edge">
<title>Node20&#45;&gt;Node24</title>
<path fill="none" stroke="midnightblue" d="M1064.79,-71.27C1053.45,-69.76 1040.69,-68.18 1029,-67 807.33,-44.58 750.07,-58.67 529,-31 516.53,-29.44 503.06,-27.24 490.75,-25.02"/>
<polygon fill="midnightblue" stroke="midnightblue" points="1064.34,-74.74 1074.72,-72.62 1065.29,-67.81 1064.34,-74.74"/>
</g>
<!-- Node25 -->
<g id="node25" class="node">
<title>Node25</title>
<g id="a_node25"><a xlink:href="helics_8cpp.html" target="_top" xlink:title=" ">
<polygon fill="white" stroke="black" points="931.5,-6 931.5,-25 996.5,-25 996.5,-6 931.5,-6"/>
<text text-anchor="middle" x="964" y="-13" font-family="Helvetica,sans-Serif" font-size="10.00">helics.cpp</text>
</a>
</g>
</g>
<!-- Node20&#45;&gt;Node25 -->
<g id="edge32" class="edge">
<title>Node20&#45;&gt;Node25</title>
<path fill="none" stroke="midnightblue" d="M1069.46,-63.33C1043.45,-51.78 1005.74,-35.03 983.16,-25.01"/>
<polygon fill="midnightblue" stroke="midnightblue" points="1068.24,-66.62 1078.8,-67.48 1071.08,-60.22 1068.24,-66.62"/>
</g>
<!-- Node26 -->
<g id="node26" class="node">
<title>Node26</title>
<g id="a_node26"><a xlink:href="incflo_8cpp.html" target="_top" xlink:title=" ">
<polygon fill="white" stroke="black" points="1014.5,-6 1014.5,-25 1077.5,-25 1077.5,-6 1014.5,-6"/>
<text text-anchor="middle" x="1046" y="-13" font-family="Helvetica,sans-Serif" font-size="10.00">incflo.cpp</text>
</a>
</g>
</g>
<!-- Node20&#45;&gt;Node26 -->
<g id="edge33" class="edge">
<title>Node20&#45;&gt;Node26</title>
<path fill="none" stroke="midnightblue" d="M1083.73,-59.67C1073.92,-48.45 1061.31,-34.02 1053.44,-25.01"/>
<polygon fill="midnightblue" stroke="midnightblue" points="1081.33,-62.25 1090.55,-67.48 1086.6,-57.64 1081.33,-62.25"/>
</g>
<!-- Node27 -->
<g id="node27" class="node">
<title>Node27</title>
<g id="a_node27"><a xlink:href="incflo__apply__nodal__projection_8cpp.html" target="_top" xlink:title=" ">
<polygon fill="white" stroke="black" points="1095.5,-0.5 1095.5,-30.5 1202.5,-30.5 1202.5,-0.5 1095.5,-0.5"/>
<text text-anchor="start" x="1103.5" y="-18.5" font-family="Helvetica,sans-Serif" font-size="10.00">incflo_apply_nodal</text>
<text text-anchor="middle" x="1149" y="-7.5" font-family="Helvetica,sans-Serif" font-size="10.00">_projection.cpp</text>
</a>
</g>
</g>
<!-- Node20&#45;&gt;Node27 -->
<g id="edge34" class="edge">
<title>Node20&#45;&gt;Node27</title>
<path fill="none" stroke="midnightblue" d="M1111.88,-59.81C1119.73,-50.65 1129.45,-39.3 1136.98,-30.52"/>
<polygon fill="midnightblue" stroke="midnightblue" points="1109.16,-57.6 1105.31,-67.48 1114.47,-62.16 1109.16,-57.6"/>
</g>
<!-- Node28 -->
<g id="node28" class="node">
<title>Node28</title>
<g id="a_node28"><a xlink:href="init_8cpp.html" target="_top" xlink:title=" ">
<polygon fill="white" stroke="black" points="537.5,-6 537.5,-25 590.5,-25 590.5,-6 537.5,-6"/>
<text text-anchor="middle" x="564" y="-13" font-family="Helvetica,sans-Serif" font-size="10.00">init.cpp</text>
</a>
</g>
</g>
<!-- Node20&#45;&gt;Node28 -->
<g id="edge35" class="edge">
<title>Node20&#45;&gt;Node28</title>
<path fill="none" stroke="midnightblue" d="M1064.78,-71.35C1053.44,-69.85 1040.68,-68.25 1029,-67 838.75,-46.62 786.15,-75.24 600,-31 594.1,-29.6 587.9,-27.39 582.34,-25.12"/>
<polygon fill="midnightblue" stroke="midnightblue" points="1064.34,-74.82 1074.72,-72.69 1065.27,-67.89 1064.34,-74.82"/>
</g>
<!-- Node29 -->
<g id="node29" class="node">
<title>Node29</title>
<g id="a_node29"><a xlink:href="_a_b_l_anelastic_8cpp.html" target="_top" xlink:title=" ">
<polygon fill="white" stroke="black" points="608.5,-6 608.5,-25 709.5,-25 709.5,-6 608.5,-6"/>
<text text-anchor="middle" x="659" y="-13" font-family="Helvetica,sans-Serif" font-size="10.00">ABLAnelastic.cpp</text>
</a>
</g>
</g>
<!-- Node20&#45;&gt;Node29 -->
<g id="edge37" class="edge">
<title>Node20&#45;&gt;Node29</title>
<path fill="none" stroke="midnightblue" d="M1064.75,-71.57C1053.41,-70.08 1040.66,-68.44 1029,-67 891.34,-50.03 855.55,-55.34 719,-31 709.93,-29.38 700.18,-27.22 691.23,-25.05"/>
<polygon fill="midnightblue" stroke="midnightblue" points="1064.32,-75.04 1074.7,-72.88 1065.24,-68.1 1064.32,-75.04"/>
</g>
<!-- Node30 -->
<g id="node30" class="node">
<title>Node30</title>
<g id="a_node30"><a xlink:href="_a_b_l_wall_function_8cpp.html" target="_top" xlink:title=" ">
<polygon fill="white" stroke="black" points="1220.5,-6 1220.5,-25 1337.5,-25 1337.5,-6 1220.5,-6"/>
<text text-anchor="middle" x="1279" y="-13" font-family="Helvetica,sans-Serif" font-size="10.00">ABLWallFunction.cpp</text>
</a>
</g>
</g>
<!-- Node20&#45;&gt;Node30 -->
<g id="edge38" class="edge">
<title>Node20&#45;&gt;Node30</title>
<path fill="none" stroke="midnightblue" d="M1131.06,-65.13C1166.09,-53.62 1220.72,-35.66 1252.87,-25.09"/>
<polygon fill="midnightblue" stroke="midnightblue" points="1129.7,-61.9 1121.29,-68.34 1131.88,-68.55 1129.7,-61.9"/>
</g>
<!-- Node31&#45;&gt;Node16 -->
<g id="edge43" class="edge">
<title>Node31&#45;&gt;Node16</title>
<path fill="none" stroke="midnightblue" d="M1045.85,-177.42C1005.13,-168.9 947.22,-156.19 897,-143 828.17,-124.92 748.21,-99.58 707.97,-86.53"/>
<polygon fill="midnightblue" stroke="midnightblue" points="1045.32,-180.89 1055.82,-179.5 1046.74,-174.03 1045.32,-180.89"/>
</g>
<!-- Node31&#45;&gt;Node20 -->
<g id="edge42" class="edge">
<title>Node31&#45;&gt;Node20</title>
<path fill="none" stroke="midnightblue" d="M1123.93,-174.43C1143.31,-162.32 1164.88,-143.38 1155,-123 1146.97,-106.43 1129.56,-94.13 1116.08,-86.61"/>
<polygon fill="midnightblue" stroke="midnightblue" points="1122.15,-171.42 1115.3,-179.5 1125.7,-177.45 1122.15,-171.42"/>
</g>
<!-- Node31&#45;&gt;Node30 -->
<g id="edge47" class="edge">
<title>Node31&#45;&gt;Node30</title>
<path fill="none" stroke="midnightblue" d="M1123.55,-174.55C1137.92,-166.39 1155.78,-155.2 1170,-143 1214.88,-104.49 1257.45,-47.03 1272.89,-25.27"/>
<polygon fill="midnightblue" stroke="midnightblue" points="1121.73,-171.55 1114.68,-179.46 1125.12,-177.68 1121.73,-171.55"/>
</g>
<!-- Node32 -->
<g id="node32" class="node">
<title>Node32</title>
<g id="a_node32"><a xlink:href="_boussinesq_bubble_8cpp.html" target="_top" xlink:title=" ">
<polygon fill="white" stroke="black" points="906,-123.5 906,-142.5 1032,-142.5 1032,-123.5 906,-123.5"/>
<text text-anchor="middle" x="969" y="-130.5" font-family="Helvetica,sans-Serif" font-size="10.00">BoussinesqBubble.cpp</text>
</a>
</g>
</g>
<!-- Node31&#45;&gt;Node32 -->
<g id="edge41" class="edge">
<title>Node31&#45;&gt;Node32</title>
<path fill="none" stroke="midnightblue" d="M1068.15,-175.5C1043.96,-165.38 1010.54,-151.39 989.34,-142.52"/>
<polygon fill="midnightblue" stroke="midnightblue" points="1066.98,-178.81 1077.56,-179.44 1069.69,-172.35 1066.98,-178.81"/>
</g>
<!-- Node33 -->
<g id="node33" class="node">
<title>Node33</title>
<g id="a_node33"><a xlink:href="_a_b_l_stats_base_8_h.html" target="_top" xlink:title=" ">
<polygon fill="white" stroke="black" points="1050.5,-123.5 1050.5,-142.5 1145.5,-142.5 1145.5,-123.5 1050.5,-123.5"/>
<text text-anchor="middle" x="1098" y="-130.5" font-family="Helvetica,sans-Serif" font-size="10.00">ABLStatsBase.H</text>
</a>
</g>
</g>
<!-- Node31&#45;&gt;Node33 -->
<g id="edge44" class="edge">
<title>Node31&#45;&gt;Node33</title>
<path fill="none" stroke="midnightblue" d="M1098,-168.8C1098,-159.91 1098,-149.78 1098,-142.75"/>
<polygon fill="midnightblue" stroke="midnightblue" points="1094.5,-169.08 1098,-179.08 1101.5,-169.08 1094.5,-169.08"/>
</g>
<!-- Node33&#45;&gt;Node16 -->
<g id="edge46" class="edge">
<title>Node33&#45;&gt;Node16</title>
<path fill="none" stroke="midnightblue" d="M1040.17,-122.95C900.07,-104.25 862.52,-108.28 727,-87 724.01,-86.53 720.91,-86 717.81,-85.44"/>
<polygon fill="midnightblue" stroke="midnightblue" points="1040.06,-126.47 1050.44,-124.34 1040.99,-119.53 1040.06,-126.47"/>
</g>
<!-- Node33&#45;&gt;Node20 -->
<g id="edge45" class="edge">
<title>Node33&#45;&gt;Node20</title>
<path fill="none" stroke="midnightblue" d="M1098,-112.8C1098,-103.91 1098,-93.78 1098,-86.75"/>
<polygon fill="midnightblue" stroke="midnightblue" points="1094.5,-113.08 1098,-123.08 1101.5,-113.08 1094.5,-113.08"/>
</g>
<!-- Node34&#45;&gt;Node16 -->
<g id="edge62" class="edge">
<title>Node34&#45;&gt;Node16</title>
<path fill="none" stroke="midnightblue" d="M741.64,-225.8C737.66,-212.67 731.9,-194.6 726,-179 712.8,-144.12 694.18,-103.77 686.06,-86.53"/>
<polygon fill="midnightblue" stroke="midnightblue" points="738.33,-226.92 744.54,-235.49 745.03,-224.91 738.33,-226.92"/>
</g>
<!-- Node34&#45;&gt;Node31 -->
<g id="edge63" class="edge">
<title>Node34&#45;&gt;Node31</title>
<path fill="none" stroke="midnightblue" d="M812.63,-233.9C879.56,-223.61 982.15,-207.82 1044.37,-198.25"/>
<polygon fill="midnightblue" stroke="midnightblue" points="811.97,-230.46 802.62,-235.44 813.03,-237.38 811.97,-230.46"/>
</g>
<!-- Node35 -->
<g id="node35" class="node">
<title>Node35</title>
<g id="a_node35"><a xlink:href="_wall_function_8_h.html" target="_top" xlink:title=" ">
<polygon fill="white" stroke="black" points="468.5,-179.5 468.5,-198.5 557.5,-198.5 557.5,-179.5 468.5,-179.5"/>
<text text-anchor="middle" x="513" y="-186.5" font-family="Helvetica,sans-Serif" font-size="10.00">WallFunction.H</text>
</a>
</g>
</g>
<!-- Node34&#45;&gt;Node35 -->
<g id="edge49" class="edge">
<title>Node34&#45;&gt;Node35</title>
<path fill="none" stroke="midnightblue" d="M700,-233.15C655.78,-222.95 590.48,-207.88 549.9,-198.52"/>
<polygon fill="midnightblue" stroke="midnightblue" points="699.39,-236.61 709.92,-235.44 700.97,-229.78 699.39,-236.61"/>
</g>
<!-- Node38 -->
<g id="node38" class="node">
<title>Node38</title>
<g id="a_node38"><a xlink:href="_a_b_l_meso_forcing_mom_8_h.html" target="_top" xlink:title=" ">
<polygon fill="white" stroke="black" points="736,-67.5 736,-86.5 868,-86.5 868,-67.5 736,-67.5"/>
<text text-anchor="middle" x="802" y="-74.5" font-family="Helvetica,sans-Serif" font-size="10.00">ABLMesoForcingMom.H</text>
</a>
</g>
</g>
<!-- Node34&#45;&gt;Node38 -->
<g id="edge53" class="edge">
<title>Node34&#45;&gt;Node38</title>
<path fill="none" stroke="midnightblue" d="M753.16,-225.39C765.03,-189.59 790.62,-112.34 799.16,-86.57"/>
<polygon fill="midnightblue" stroke="midnightblue" points="749.78,-224.48 749.96,-235.08 756.42,-226.68 749.78,-224.48"/>
</g>
<!-- Node39 -->
<g id="node39" class="node">
<title>Node39</title>
<g id="a_node39"><a xlink:href="_a_b_l_meso_forcing_temp_8_h.html" target="_top" xlink:title=" ">
<polygon fill="white" stroke="black" points="886,-67.5 886,-86.5 1020,-86.5 1020,-67.5 886,-67.5"/>
<text text-anchor="middle" x="953" y="-74.5" font-family="Helvetica,sans-Serif" font-size="10.00">ABLMesoForcingTemp.H</text>
</a>
</g>
</g>
<!-- Node34&#45;&gt;Node39 -->
<g id="edge57" class="edge">
<title>Node34&#45;&gt;Node39</title>
<path fill="none" stroke="midnightblue" d="M765.39,-229.15C793.67,-206.31 849.53,-161.22 897,-123 912.74,-110.33 930.98,-95.67 942.26,-86.62"/>
<polygon fill="midnightblue" stroke="midnightblue" points="763.12,-226.48 757.54,-235.48 767.52,-231.92 763.12,-226.48"/>
</g>
<!-- Node40 -->
<g id="node40" class="node">
<title>Node40</title>
<g id="a_node40"><a xlink:href="_field_plane_averaging_fine_8cpp.html" target="_top" xlink:title=" ">
<polygon fill="white" stroke="black" points="294,-179.5 294,-198.5 450,-198.5 450,-179.5 294,-179.5"/>
<text text-anchor="middle" x="372" y="-186.5" font-family="Helvetica,sans-Serif" font-size="10.00">FieldPlaneAveragingFine.cpp</text>
</a>
</g>
</g>
<!-- Node34&#45;&gt;Node40 -->
<g id="edge61" class="edge">
<title>Node34&#45;&gt;Node40</title>
<path fill="none" stroke="midnightblue" d="M677.41,-233.98C606.58,-223.78 497.95,-208.14 431.14,-198.52"/>
<polygon fill="midnightblue" stroke="midnightblue" points="677.18,-237.48 687.58,-235.44 678.18,-230.55 677.18,-237.48"/>
</g>
<!-- Node36 -->
<g id="node36" class="node">
<title>Node36</title>
<g id="a_node36"><a xlink:href="_wall_function_8cpp.html" target="_top" xlink:title=" ">
<polygon fill="white" stroke="black" points="391.5,-123.5 391.5,-142.5 490.5,-142.5 490.5,-123.5 391.5,-123.5"/>
<text text-anchor="middle" x="441" y="-130.5" font-family="Helvetica,sans-Serif" font-size="10.00">WallFunction.cpp</text>
</a>
</g>
</g>
<!-- Node35&#45;&gt;Node36 -->
<g id="edge50" class="edge">
<title>Node35&#45;&gt;Node36</title>
<path fill="none" stroke="midnightblue" d="M493.13,-173.1C480.18,-163.38 463.7,-151.03 452.78,-142.83"/>
<polygon fill="midnightblue" stroke="midnightblue" points="491.33,-176.12 501.43,-179.32 495.53,-170.52 491.33,-176.12"/>
</g>
<!-- Node37 -->
<g id="node37" class="node">
<title>Node37</title>
<g id="a_node37"><a xlink:href="_channel_flow_8_h.html" target="_top" xlink:title=" ">
<polygon fill="white" stroke="black" points="284.5,-123.5 284.5,-142.5 373.5,-142.5 373.5,-123.5 284.5,-123.5"/>
<text text-anchor="middle" x="329" y="-130.5" font-family="Helvetica,sans-Serif" font-size="10.00">ChannelFlow.H</text>
</a>
</g>
</g>
<!-- Node35&#45;&gt;Node37 -->
<g id="edge51" class="edge">
<title>Node35&#45;&gt;Node37</title>
<path fill="none" stroke="midnightblue" d="M474.05,-176.57C439.34,-166.38 389.32,-151.7 358.02,-142.52"/>
<polygon fill="midnightblue" stroke="midnightblue" points="473.26,-179.99 483.84,-179.44 475.23,-173.27 473.26,-179.99"/>
</g>
<!-- Node37&#45;&gt;Node2 -->
<g id="edge52" class="edge">
<title>Node37&#45;&gt;Node2</title>
<path fill="none" stroke="midnightblue" d="M299.76,-119.37C276.35,-109.26 244.16,-95.35 223.71,-86.52"/>
<polygon fill="midnightblue" stroke="midnightblue" points="298.63,-122.69 309.19,-123.44 301.4,-116.26 298.63,-122.69"/>
</g>
<!-- Node38&#45;&gt;Node8 -->
<g id="edge55" class="edge">
<title>Node38&#45;&gt;Node8</title>
<path fill="none" stroke="midnightblue" d="M878.21,-66.96C1156.4,-43.5 1233.95,-89.89 1503,-31 1509.2,-29.64 1515.72,-27.39 1521.54,-25.06"/>
<polygon fill="midnightblue" stroke="midnightblue" points="877.89,-63.48 868.23,-67.83 878.49,-70.45 877.89,-63.48"/>
</g>
<!-- Node38&#45;&gt;Node17 -->
<g id="edge56" class="edge">
<title>Node38&#45;&gt;Node17</title>
<path fill="none" stroke="midnightblue" d="M725.7,-66.93C494.59,-45.94 431.76,-71.53 207,-31 199.05,-29.57 190.57,-27.32 182.93,-25.02"/>
<polygon fill="midnightblue" stroke="midnightblue" points="725.49,-70.43 735.77,-67.87 726.13,-63.46 725.49,-70.43"/>
</g>
<!-- Node38&#45;&gt;Node23 -->
<g id="edge54" class="edge">
<title>Node38&#45;&gt;Node23</title>
<path fill="none" stroke="midnightblue" d="M725.54,-66.86C565.44,-49.57 522.97,-52.9 367,-31 355.12,-29.33 342.31,-27.17 330.49,-25.03"/>
<polygon fill="midnightblue" stroke="midnightblue" points="725.43,-70.37 735.75,-67.98 726.19,-63.42 725.43,-70.37"/>
</g>
<!-- Node39&#45;&gt;Node8 -->
<g id="edge59" class="edge">
<title>Node39&#45;&gt;Node8</title>
<path fill="none" stroke="midnightblue" d="M1030.22,-69.83C1180.32,-57.81 1497.3,-32.32 1503,-31 1509.05,-29.6 1515.42,-27.39 1521.13,-25.12"/>
<polygon fill="midnightblue" stroke="midnightblue" points="1029.84,-66.35 1020.15,-70.63 1030.4,-73.32 1029.84,-66.35"/>
</g>
<!-- Node39&#45;&gt;Node17 -->
<g id="edge60" class="edge">
<title>Node39&#45;&gt;Node17</title>
<path fill="none" stroke="midnightblue" d="M875.66,-66.95C578.09,-42.34 497.57,-81.09 207,-31 198.96,-29.61 190.37,-27.35 182.66,-25.02"/>
<polygon fill="midnightblue" stroke="midnightblue" points="875.63,-70.46 885.89,-67.82 876.22,-63.49 875.63,-70.46"/>
</g>
<!-- Node39&#45;&gt;Node24 -->
<g id="edge58" class="edge">
<title>Node39&#45;&gt;Node24</title>
<path fill="none" stroke="midnightblue" d="M875.51,-66.86C720.71,-49.97 679.66,-52.25 529,-31 517.12,-29.32 504.31,-27.19 492.47,-25.07"/>
<polygon fill="midnightblue" stroke="midnightblue" points="875.55,-70.38 885.87,-68 876.31,-63.42 875.55,-70.38"/>
</g>
</g>
</svg>
