<?xml version="1.0" encoding="UTF-8" standalone="no"?>
<!DOCTYPE svg PUBLIC "-//W3C//DTD SVG 1.1//EN"
 "http://www.w3.org/Graphics/SVG/1.1/DTD/svg11.dtd">
<!-- Generated by graphviz version 2.43.0 (0)
 -->
<!-- Title: FieldPlaneAveraging.H Pages: 1 -->
<svg width="1791pt" height="263pt"
 viewBox="0.00 0.00 1791.00 263.00" xmlns="http://www.w3.org/2000/svg" xmlns:xlink="http://www.w3.org/1999/xlink">
<g id="graph0" class="graph" transform="scale(1 1) rotate(0) translate(4 259)">
<title>FieldPlaneAveraging.H</title>
<polygon fill="white" stroke="transparent" points="-4,4 -4,-259 1787,-259 1787,4 -4,4"/>
<!-- Node1 -->
<g id="node1" class="node">
<title>Node1</title>
<g id="a_node1"><a xlink:title=" ">
<polygon fill="#bfbfbf" stroke="black" points="1064,-235.5 1064,-254.5 1190,-254.5 1190,-235.5 1064,-235.5"/>
<text text-anchor="middle" x="1127" y="-242.5" font-family="Helvetica,sans-Serif" font-size="10.00">FieldPlaneAveraging.H</text>
</a>
</g>
</g>
<!-- Node2 -->
<g id="node2" class="node">
<title>Node2</title>
<g id="a_node2"><a xlink:href="_a_b_l_mean_boussinesq_8_h.html" target="_top" xlink:title=" ">
<polygon fill="white" stroke="black" points="79,-67.5 79,-86.5 207,-86.5 207,-67.5 79,-67.5"/>
<text text-anchor="middle" x="143" y="-74.5" font-family="Helvetica,sans-Serif" font-size="10.00">ABLMeanBoussinesq.H</text>
</a>
</g>
</g>
<!-- Node1&#45;&gt;Node2 -->
<g id="edge1" class="edge">
<title>Node1&#45;&gt;Node2</title>
<path fill="none" stroke="midnightblue" d="M1053.68,-239.33C965.02,-233.05 811.42,-220.17 681,-199 486.57,-167.44 257.15,-108.45 174.57,-86.51"/>
<polygon fill="midnightblue" stroke="midnightblue" points="1053.69,-242.84 1063.91,-240.04 1054.17,-235.85 1053.69,-242.84"/>
</g>
<!-- Node5 -->
<g id="node5" class="node">
<title>Node5</title>
<g id="a_node5"><a xlink:href="_hurricane_forcing_8_h.html" target="_top" xlink:title=" ">
<polygon fill="white" stroke="black" points="235,-67.5 235,-86.5 345,-86.5 345,-67.5 235,-67.5"/>
<text text-anchor="middle" x="290" y="-74.5" font-family="Helvetica,sans-Serif" font-size="10.00">HurricaneForcing.H</text>
</a>
</g>
</g>
<!-- Node1&#45;&gt;Node5 -->
<g id="edge4" class="edge">
<title>Node1&#45;&gt;Node5</title>
<path fill="none" stroke="midnightblue" d="M1053.76,-236.89C983.47,-229.49 874.49,-216.54 781,-199 604.11,-165.81 395.67,-108.18 319.64,-86.54"/>
<polygon fill="midnightblue" stroke="midnightblue" points="1053.54,-240.38 1063.84,-237.94 1054.26,-233.42 1053.54,-240.38"/>
</g>
<!-- Node7 -->
<g id="node7" class="node">
<title>Node7</title>
<g id="a_node7"><a xlink:href="_hurricane_temp_forcing_8_h.html" target="_top" xlink:title=" ">
<polygon fill="white" stroke="black" points="373,-67.5 373,-86.5 509,-86.5 509,-67.5 373,-67.5"/>
<text text-anchor="middle" x="441" y="-74.5" font-family="Helvetica,sans-Serif" font-size="10.00">HurricaneTempForcing.H</text>
</a>
</g>
</g>
<!-- Node1&#45;&gt;Node7 -->
<g id="edge7" class="edge">
<title>Node1&#45;&gt;Node7</title>
<path fill="none" stroke="midnightblue" d="M1053.59,-234.01C999.48,-226.08 924.25,-213.87 859,-199 708.36,-164.67 531.66,-107.97 466.65,-86.55"/>
<polygon fill="midnightblue" stroke="midnightblue" points="1053.38,-237.51 1063.78,-235.49 1054.39,-230.59 1053.38,-237.51"/>
</g>
<!-- Node9 -->
<g id="node9" class="node">
<title>Node9</title>
<g id="a_node9"><a xlink:href="_a_m_d_8_h.html" target="_top" xlink:title=" ">
<polygon fill="white" stroke="black" points="1579,-179.5 1579,-198.5 1629,-198.5 1629,-179.5 1579,-179.5"/>
<text text-anchor="middle" x="1604" y="-186.5" font-family="Helvetica,sans-Serif" font-size="10.00">AMD.H</text>
</a>
</g>
</g>
<!-- Node1&#45;&gt;Node9 -->
<g id="edge10" class="edge">
<title>Node1&#45;&gt;Node9</title>
<path fill="none" stroke="midnightblue" d="M1200.34,-240.1C1288.61,-234.59 1441.06,-222.46 1570,-199 1572.88,-198.48 1575.88,-197.83 1578.85,-197.13"/>
<polygon fill="midnightblue" stroke="midnightblue" points="1199.93,-236.62 1190.16,-240.72 1200.36,-243.6 1199.93,-236.62"/>
</g>
<!-- Node11 -->
<g id="node11" class="node">
<title>Node11</title>
<g id="a_node11"><a xlink:href="_field_plane_averaging_8cpp.html" target="_top" xlink:title=" ">
<polygon fill="white" stroke="black" points="1647,-179.5 1647,-198.5 1783,-198.5 1783,-179.5 1647,-179.5"/>
<text text-anchor="middle" x="1715" y="-186.5" font-family="Helvetica,sans-Serif" font-size="10.00">FieldPlaneAveraging.cpp</text>
</a>
</g>
</g>
<!-- Node1&#45;&gt;Node11 -->
<g id="edge12" class="edge">
<title>Node1&#45;&gt;Node11</title>
<path fill="none" stroke="midnightblue" d="M1200.62,-238.18C1299.98,-230.17 1482.48,-214.93 1638,-199 1640.95,-198.7 1643.95,-198.38 1646.99,-198.06"/>
<polygon fill="midnightblue" stroke="midnightblue" points="1200.08,-234.71 1190.39,-239 1200.64,-241.69 1200.08,-234.71"/>
</g>
<!-- Node12 -->
<g id="node12" class="node">
<title>Node12</title>
<g id="a_node12"><a xlink:href="_second_moment_averaging_8_h.html" target="_top" xlink:title=" ">
<polygon fill="white" stroke="black" points="1409,-179.5 1409,-198.5 1561,-198.5 1561,-179.5 1409,-179.5"/>
<text text-anchor="middle" x="1485" y="-186.5" font-family="Helvetica,sans-Serif" font-size="10.00">SecondMomentAveraging.H</text>
</a>
</g>
</g>
<!-- Node1&#45;&gt;Node12 -->
<g id="edge13" class="edge">
<title>Node1&#45;&gt;Node12</title>
<path fill="none" stroke="midnightblue" d="M1193.85,-233.92C1261.48,-223.71 1364.89,-208.12 1428.54,-198.52"/>
<polygon fill="midnightblue" stroke="midnightblue" points="1193.09,-230.49 1183.73,-235.44 1194.14,-237.41 1193.09,-230.49"/>
</g>
<!-- Node14 -->
<g id="node14" class="node">
<title>Node14</title>
<g id="a_node14"><a xlink:href="_a_b_l_stats_8_h.html" target="_top" xlink:title=" ">
<polygon fill="white" stroke="black" points="1260.5,-67.5 1260.5,-86.5 1331.5,-86.5 1331.5,-67.5 1260.5,-67.5"/>
<text text-anchor="middle" x="1296" y="-74.5" font-family="Helvetica,sans-Serif" font-size="10.00">ABLStats.H</text>
</a>
</g>
</g>
<!-- Node1&#45;&gt;Node14 -->
<g id="edge35" class="edge">
<title>Node1&#45;&gt;Node14</title>
<path fill="none" stroke="midnightblue" d="M1136.04,-226.14C1149.66,-200.65 1177.55,-153.53 1212,-123 1230.33,-106.76 1255.54,-94.26 1273.55,-86.6"/>
<polygon fill="midnightblue" stroke="midnightblue" points="1132.76,-224.86 1131.24,-235.35 1138.97,-228.1 1132.76,-224.86"/>
</g>
<!-- Node16 -->
<g id="node16" class="node">
<title>Node16</title>
<g id="a_node16"><a xlink:href="_third_moment_averaging_8_h.html" target="_top" xlink:title=" ">
<polygon fill="white" stroke="black" points="1225.5,-179.5 1225.5,-198.5 1366.5,-198.5 1366.5,-179.5 1225.5,-179.5"/>
<text text-anchor="middle" x="1296" y="-186.5" font-family="Helvetica,sans-Serif" font-size="10.00">ThirdMomentAveraging.H</text>
</a>
</g>
</g>
<!-- Node1&#45;&gt;Node16 -->
<g id="edge17" class="edge">
<title>Node1&#45;&gt;Node16</title>
<path fill="none" stroke="midnightblue" d="M1163.6,-232.3C1195.45,-222.13 1240.84,-207.62 1269.35,-198.52"/>
<polygon fill="midnightblue" stroke="midnightblue" points="1162.24,-229.07 1153.78,-235.44 1164.37,-235.73 1162.24,-229.07"/>
</g>
<!-- Node18 -->
<g id="node18" class="node">
<title>Node18</title>
<g id="a_node18"><a xlink:href="_a_b_l_8_h.html" target="_top" xlink:title=" ">
<polygon fill="white" stroke="black" points="784,-67.5 784,-86.5 830,-86.5 830,-67.5 784,-67.5"/>
<text text-anchor="middle" x="807" y="-74.5" font-family="Helvetica,sans-Serif" font-size="10.00">ABL.H</text>
</a>
</g>
</g>
<!-- Node1&#45;&gt;Node18 -->
<g id="edge20" class="edge">
<title>Node1&#45;&gt;Node18</title>
<path fill="none" stroke="midnightblue" d="M1053.78,-241.32C982.95,-234.49 878.43,-212.36 823,-143 809.65,-126.3 807.22,-100.02 806.92,-86.57"/>
<polygon fill="midnightblue" stroke="midnightblue" points="1053.71,-244.83 1063.98,-242.22 1054.32,-237.86 1053.71,-244.83"/>
</g>
<!-- Node29 -->
<g id="node29" class="node">
<title>Node29</title>
<g id="a_node29"><a xlink:href="_a_b_l_wall_function_8_h.html" target="_top" xlink:title=" ">
<polygon fill="white" stroke="black" points="944.5,-179.5 944.5,-198.5 1051.5,-198.5 1051.5,-179.5 944.5,-179.5"/>
<text text-anchor="middle" x="998" y="-186.5" font-family="Helvetica,sans-Serif" font-size="10.00">ABLWallFunction.H</text>
</a>
</g>
</g>
<!-- Node1&#45;&gt;Node29 -->
<g id="edge36" class="edge">
<title>Node1&#45;&gt;Node29</title>
<path fill="none" stroke="midnightblue" d="M1097.15,-231.5C1072.96,-221.38 1039.54,-207.39 1018.34,-198.52"/>
<polygon fill="midnightblue" stroke="midnightblue" points="1095.98,-234.81 1106.56,-235.44 1098.69,-228.35 1095.98,-234.81"/>
</g>
<!-- Node3 -->
<g id="node3" class="node">
<title>Node3</title>
<g id="a_node3"><a xlink:href="_a_b_l_mean_boussinesq_8cpp.html" target="_top" xlink:title=" ">
<polygon fill="white" stroke="black" points="74,-6 74,-25 212,-25 212,-6 74,-6"/>
<text text-anchor="middle" x="143" y="-13" font-family="Helvetica,sans-Serif" font-size="10.00">ABLMeanBoussinesq.cpp</text>
</a>
</g>
</g>
<!-- Node2&#45;&gt;Node3 -->
<g id="edge2" class="edge">
<title>Node2&#45;&gt;Node3</title>
<path fill="none" stroke="midnightblue" d="M143,-57.32C143,-46.5 143,-33.4 143,-25.01"/>
<polygon fill="midnightblue" stroke="midnightblue" points="139.5,-57.48 143,-67.48 146.5,-57.48 139.5,-57.48"/>
</g>
<!-- Node4 -->
<g id="node4" class="node">
<title>Node4</title>
<g id="a_node4"><a xlink:href="_a_b_l_8cpp.html" target="_top" xlink:title=" ">
<polygon fill="white" stroke="black" points="0,-6 0,-25 56,-25 56,-6 0,-6"/>
<text text-anchor="middle" x="28" y="-13" font-family="Helvetica,sans-Serif" font-size="10.00">ABL.cpp</text>
</a>
</g>
</g>
<!-- Node2&#45;&gt;Node4 -->
<g id="edge3" class="edge">
<title>Node2&#45;&gt;Node4</title>
<path fill="none" stroke="midnightblue" d="M117.62,-62.87C95.33,-51.33 63.56,-34.9 44.45,-25.01"/>
<polygon fill="midnightblue" stroke="midnightblue" points="116.03,-65.99 126.52,-67.48 119.25,-59.77 116.03,-65.99"/>
</g>
<!-- Node5&#45;&gt;Node4 -->
<g id="edge6" class="edge">
<title>Node5&#45;&gt;Node4</title>
<path fill="none" stroke="midnightblue" d="M224.79,-66.08C179.48,-58.44 117.95,-46.54 65,-31 59.44,-29.37 53.54,-27.25 48.13,-25.13"/>
<polygon fill="midnightblue" stroke="midnightblue" points="224.35,-69.56 234.79,-67.75 225.5,-62.65 224.35,-69.56"/>
</g>
<!-- Node6 -->
<g id="node6" class="node">
<title>Node6</title>
<g id="a_node6"><a xlink:href="_hurricane_forcing_8cpp.html" target="_top" xlink:title=" ">
<polygon fill="white" stroke="black" points="230.5,-6 230.5,-25 349.5,-25 349.5,-6 230.5,-6"/>
<text text-anchor="middle" x="290" y="-13" font-family="Helvetica,sans-Serif" font-size="10.00">HurricaneForcing.cpp</text>
</a>
</g>
</g>
<!-- Node5&#45;&gt;Node6 -->
<g id="edge5" class="edge">
<title>Node5&#45;&gt;Node6</title>
<path fill="none" stroke="midnightblue" d="M290,-57.32C290,-46.5 290,-33.4 290,-25.01"/>
<polygon fill="midnightblue" stroke="midnightblue" points="286.5,-57.48 290,-67.48 293.5,-57.48 286.5,-57.48"/>
</g>
<!-- Node7&#45;&gt;Node4 -->
<g id="edge9" class="edge">
<title>Node7&#45;&gt;Node4</title>
<path fill="none" stroke="midnightblue" d="M362.36,-67.67C260.63,-56.72 93.09,-38.06 65,-31 59.11,-29.52 52.9,-27.34 47.28,-25.13"/>
<polygon fill="midnightblue" stroke="midnightblue" points="362.28,-71.18 372.6,-68.77 363.03,-64.22 362.28,-71.18"/>
</g>
<!-- Node8 -->
<g id="node8" class="node">
<title>Node8</title>
<g id="a_node8"><a xlink:href="_hurricane_temp_forcing_8cpp.html" target="_top" xlink:title=" ">
<polygon fill="white" stroke="black" points="368,-6 368,-25 514,-25 514,-6 368,-6"/>
<text text-anchor="middle" x="441" y="-13" font-family="Helvetica,sans-Serif" font-size="10.00">HurricaneTempForcing.cpp</text>
</a>
</g>
</g>
<!-- Node7&#45;&gt;Node8 -->
<g id="edge8" class="edge">
<title>Node7&#45;&gt;Node8</title>
<path fill="none" stroke="midnightblue" d="M441,-57.32C441,-46.5 441,-33.4 441,-25.01"/>
<polygon fill="midnightblue" stroke="midnightblue" points="437.5,-57.48 441,-67.48 444.5,-57.48 437.5,-57.48"/>
</g>
<!-- Node10 -->
<g id="node10" class="node">
<title>Node10</title>
<g id="a_node10"><a xlink:href="_a_m_d_8cpp.html" target="_top" xlink:title=" ">
<polygon fill="white" stroke="black" points="1646,-123.5 1646,-142.5 1706,-142.5 1706,-123.5 1646,-123.5"/>
<text text-anchor="middle" x="1676" y="-130.5" font-family="Helvetica,sans-Serif" font-size="10.00">AMD.cpp</text>
</a>
</g>
</g>
<!-- Node9&#45;&gt;Node10 -->
<g id="edge11" class="edge">
<title>Node9&#45;&gt;Node10</title>
<path fill="none" stroke="midnightblue" d="M1623.87,-173.1C1636.82,-163.38 1653.3,-151.03 1664.22,-142.83"/>
<polygon fill="midnightblue" stroke="midnightblue" points="1621.47,-170.52 1615.57,-179.32 1625.67,-176.12 1621.47,-170.52"/>
</g>
<!-- Node13 -->
<g id="node13" class="node">
<title>Node13</title>
<g id="a_node13"><a xlink:href="_second_moment_averaging_8cpp.html" target="_top" xlink:title=" ">
<polygon fill="white" stroke="black" points="1428.5,-123.5 1428.5,-142.5 1589.5,-142.5 1589.5,-123.5 1428.5,-123.5"/>
<text text-anchor="middle" x="1509" y="-130.5" font-family="Helvetica,sans-Serif" font-size="10.00">SecondMomentAveraging.cpp</text>
</a>
</g>
</g>
<!-- Node12&#45;&gt;Node13 -->
<g id="edge14" class="edge">
<title>Node12&#45;&gt;Node13</title>
<path fill="none" stroke="midnightblue" d="M1493.14,-169.69C1497.18,-160.59 1501.88,-150.01 1505.11,-142.75"/>
<polygon fill="midnightblue" stroke="midnightblue" points="1489.83,-168.52 1488.96,-179.08 1496.22,-171.37 1489.83,-168.52"/>
</g>
<!-- Node12&#45;&gt;Node14 -->
<g id="edge15" class="edge">
<title>Node12&#45;&gt;Node14</title>
<path fill="none" stroke="midnightblue" d="M1539.45,-176.97C1578.72,-166.59 1621.22,-148.77 1599,-123 1564.83,-83.38 1404.21,-78.08 1331.69,-77.75"/>
<polygon fill="midnightblue" stroke="midnightblue" points="1538.42,-173.62 1529.57,-179.45 1540.12,-180.41 1538.42,-173.62"/>
</g>
<!-- Node15 -->
<g id="node15" class="node">
<title>Node15</title>
<g id="a_node15"><a xlink:href="_a_b_l_stats_8cpp.html" target="_top" xlink:title=" ">
<polygon fill="white" stroke="black" points="1672,-6 1672,-25 1752,-25 1752,-6 1672,-6"/>
<text text-anchor="middle" x="1712" y="-13" font-family="Helvetica,sans-Serif" font-size="10.00">ABLStats.cpp</text>
</a>
</g>
</g>
<!-- Node14&#45;&gt;Node15 -->
<g id="edge16" class="edge">
<title>Node14&#45;&gt;Node15</title>
<path fill="none" stroke="midnightblue" d="M1341.97,-72.82C1411.87,-67.44 1548.82,-54.72 1663,-31 1670.56,-29.43 1678.64,-27.25 1686.01,-25.06"/>
<polygon fill="midnightblue" stroke="midnightblue" points="1341.46,-69.35 1331.75,-73.59 1341.98,-76.33 1341.46,-69.35"/>
</g>
<!-- Node16&#45;&gt;Node14 -->
<g id="edge19" class="edge">
<title>Node16&#45;&gt;Node14</title>
<path fill="none" stroke="midnightblue" d="M1335.28,-175.98C1363.89,-164.99 1395.33,-146.81 1381,-123 1369.89,-104.55 1348.39,-93.26 1329.8,-86.61"/>
<polygon fill="midnightblue" stroke="midnightblue" points="1333.96,-172.74 1325.75,-179.44 1336.35,-179.32 1333.96,-172.74"/>
</g>
<!-- Node17 -->
<g id="node17" class="node">
<title>Node17</title>
<g id="a_node17"><a xlink:href="_third_moment_averaging_8cpp.html" target="_top" xlink:title=" ">
<polygon fill="white" stroke="black" points="1220.5,-123.5 1220.5,-142.5 1371.5,-142.5 1371.5,-123.5 1220.5,-123.5"/>
<text text-anchor="middle" x="1296" y="-130.5" font-family="Helvetica,sans-Serif" font-size="10.00">ThirdMomentAveraging.cpp</text>
</a>
</g>
</g>
<!-- Node16&#45;&gt;Node17 -->
<g id="edge18" class="edge">
<title>Node16&#45;&gt;Node17</title>
<path fill="none" stroke="midnightblue" d="M1296,-168.8C1296,-159.91 1296,-149.78 1296,-142.75"/>
<polygon fill="midnightblue" stroke="midnightblue" points="1292.5,-169.08 1296,-179.08 1299.5,-169.08 1292.5,-169.08"/>
</g>
<!-- Node18&#45;&gt;Node3 -->
<g id="edge23" class="edge">
<title>Node18&#45;&gt;Node3</title>
<path fill="none" stroke="midnightblue" d="M773.62,-74.69C683.92,-70.9 430.27,-58.41 221,-31 208.98,-29.43 196.01,-27.22 184.16,-25"/>
<polygon fill="midnightblue" stroke="midnightblue" points="773.6,-78.19 783.74,-75.11 773.89,-71.2 773.6,-78.19"/>
</g>
<!-- Node18&#45;&gt;Node4 -->
<g id="edge32" class="edge">
<title>Node18&#45;&gt;Node4</title>
<path fill="none" stroke="midnightblue" d="M773.56,-74.59C638.19,-68.79 134.71,-46.37 65,-31 58.8,-29.63 52.28,-27.38 46.47,-25.05"/>
<polygon fill="midnightblue" stroke="midnightblue" points="773.6,-78.09 783.74,-75.02 773.89,-71.1 773.6,-78.09"/>
</g>
<!-- Node18&#45;&gt;Node6 -->
<g id="edge25" class="edge">
<title>Node18&#45;&gt;Node6</title>
<path fill="none" stroke="midnightblue" d="M773.35,-73.86C698.54,-68.82 512.88,-54.83 359,-31 348.6,-29.39 337.4,-27.22 327.11,-25.06"/>
<polygon fill="midnightblue" stroke="midnightblue" points="773.36,-77.36 783.57,-74.53 773.82,-70.38 773.36,-77.36"/>
</g>
<!-- Node18&#45;&gt;Node8 -->
<g id="edge27" class="edge">
<title>Node18&#45;&gt;Node8</title>
<path fill="none" stroke="midnightblue" d="M773.6,-70.91C720.48,-62.76 613.51,-46.17 523,-31 511.74,-29.11 499.62,-27.01 488.24,-25"/>
<polygon fill="midnightblue" stroke="midnightblue" points="773.37,-74.41 783.78,-72.47 774.43,-67.49 773.37,-74.41"/>
</g>
<!-- Node19 -->
<g id="node19" class="node">
<title>Node19</title>
<g id="a_node19"><a xlink:href="_c_f_d_sim_8cpp.html" target="_top" xlink:title=" ">
<polygon fill="white" stroke="black" points="532,-6 532,-25 608,-25 608,-6 532,-6"/>
<text text-anchor="middle" x="570" y="-13" font-family="Helvetica,sans-Serif" font-size="10.00">CFDSim.cpp</text>
</a>
</g>
</g>
<!-- Node18&#45;&gt;Node19 -->
<g id="edge21" class="edge">
<title>Node18&#45;&gt;Node19</title>
<path fill="none" stroke="midnightblue" d="M773.75,-68.83C735.69,-60.46 671.56,-45.86 617,-31 610.41,-29.2 603.35,-27.12 596.75,-25.09"/>
<polygon fill="midnightblue" stroke="midnightblue" points="773.25,-72.3 783.77,-71.02 774.75,-65.47 773.25,-72.3"/>
</g>
<!-- Node20 -->
<g id="node20" class="node">
<title>Node20</title>
<g id="a_node20"><a xlink:href="_a_b_l_forcing_8cpp.html" target="_top" xlink:title=" ">
<polygon fill="white" stroke="black" points="626.5,-6 626.5,-25 717.5,-25 717.5,-6 626.5,-6"/>
<text text-anchor="middle" x="672" y="-13" font-family="Helvetica,sans-Serif" font-size="10.00">ABLForcing.cpp</text>
</a>
</g>
</g>
<!-- Node18&#45;&gt;Node20 -->
<g id="edge22" class="edge">
<title>Node18&#45;&gt;Node20</title>
<path fill="none" stroke="midnightblue" d="M778.25,-63.33C752.04,-51.78 714.05,-35.03 691.31,-25.01"/>
<polygon fill="midnightblue" stroke="midnightblue" points="777.1,-66.64 787.66,-67.48 779.92,-60.24 777.1,-66.64"/>
</g>
<!-- Node21 -->
<g id="node21" class="node">
<title>Node21</title>
<g id="a_node21"><a xlink:href="_a_b_l_meso_forcing_mom_8cpp.html" target="_top" xlink:title=" ">
<polygon fill="white" stroke="black" points="736,-6 736,-25 878,-25 878,-6 736,-6"/>
<text text-anchor="middle" x="807" y="-13" font-family="Helvetica,sans-Serif" font-size="10.00">ABLMesoForcingMom.cpp</text>
</a>
</g>
</g>
<!-- Node18&#45;&gt;Node21 -->
<g id="edge24" class="edge">
<title>Node18&#45;&gt;Node21</title>
<path fill="none" stroke="midnightblue" d="M807,-57.32C807,-46.5 807,-33.4 807,-25.01"/>
<polygon fill="midnightblue" stroke="midnightblue" points="803.5,-57.48 807,-67.48 810.5,-57.48 803.5,-57.48"/>
</g>
<!-- Node22 -->
<g id="node22" class="node">
<title>Node22</title>
<g id="a_node22"><a xlink:href="_a_b_l_meso_forcing_temp_8cpp.html" target="_top" xlink:title=" ">
<polygon fill="white" stroke="black" points="896.5,-6 896.5,-25 1039.5,-25 1039.5,-6 896.5,-6"/>
<text text-anchor="middle" x="968" y="-13" font-family="Helvetica,sans-Serif" font-size="10.00">ABLMesoForcingTemp.cpp</text>
</a>
</g>
</g>
<!-- Node18&#45;&gt;Node22 -->
<g id="edge26" class="edge">
<title>Node18&#45;&gt;Node22</title>
<path fill="none" stroke="midnightblue" d="M839.65,-63.93C870.94,-52.37 917.38,-35.21 944.98,-25.01"/>
<polygon fill="midnightblue" stroke="midnightblue" points="838.23,-60.73 830.07,-67.48 840.66,-67.29 838.23,-60.73"/>
</g>
<!-- Node23 -->
<g id="node23" class="node">
<title>Node23</title>
<g id="a_node23"><a xlink:href="helics_8cpp.html" target="_top" xlink:title=" ">
<polygon fill="white" stroke="black" points="1057.5,-6 1057.5,-25 1122.5,-25 1122.5,-6 1057.5,-6"/>
<text text-anchor="middle" x="1090" y="-13" font-family="Helvetica,sans-Serif" font-size="10.00">helics.cpp</text>
</a>
</g>
</g>
<!-- Node18&#45;&gt;Node23 -->
<g id="edge28" class="edge">
<title>Node18&#45;&gt;Node23</title>
<path fill="none" stroke="midnightblue" d="M840.12,-67.83C841.43,-67.55 842.73,-67.27 844,-67 934.11,-48.11 958.88,-54.09 1048,-31 1054.27,-29.37 1060.95,-27.25 1067.09,-25.14"/>
<polygon fill="midnightblue" stroke="midnightblue" points="839,-64.5 830.04,-70.15 840.57,-71.32 839,-64.5"/>
</g>
<!-- Node24 -->
<g id="node24" class="node">
<title>Node24</title>
<g id="a_node24"><a xlink:href="incflo_8cpp.html" target="_top" xlink:title=" ">
<polygon fill="white" stroke="black" points="1140.5,-6 1140.5,-25 1203.5,-25 1203.5,-6 1140.5,-6"/>
<text text-anchor="middle" x="1172" y="-13" font-family="Helvetica,sans-Serif" font-size="10.00">incflo.cpp</text>
</a>
</g>
</g>
<!-- Node18&#45;&gt;Node24 -->
<g id="edge29" class="edge">
<title>Node18&#45;&gt;Node24</title>
<path fill="none" stroke="midnightblue" d="M840.1,-67.75C841.42,-67.49 842.72,-67.23 844,-67 970.88,-43.72 1006.58,-61.17 1132,-31 1138.32,-29.48 1145.02,-27.29 1151.1,-25.07"/>
<polygon fill="midnightblue" stroke="midnightblue" points="839.02,-64.41 830.01,-69.97 840.52,-71.24 839.02,-64.41"/>
</g>
<!-- Node25 -->
<g id="node25" class="node">
<title>Node25</title>
<g id="a_node25"><a xlink:href="incflo__apply__nodal__projection_8cpp.html" target="_top" xlink:title=" ">
<polygon fill="white" stroke="black" points="1221.5,-0.5 1221.5,-30.5 1328.5,-30.5 1328.5,-0.5 1221.5,-0.5"/>
<text text-anchor="start" x="1229.5" y="-18.5" font-family="Helvetica,sans-Serif" font-size="10.00">incflo_apply_nodal</text>
<text text-anchor="middle" x="1275" y="-7.5" font-family="Helvetica,sans-Serif" font-size="10.00">_projection.cpp</text>
</a>
</g>
</g>
<!-- Node18&#45;&gt;Node25 -->
<g id="edge30" class="edge">
<title>Node18&#45;&gt;Node25</title>
<path fill="none" stroke="midnightblue" d="M840.21,-67.69C841.49,-67.44 842.75,-67.21 844,-67 1006.46,-39.46 1050.42,-57.82 1213,-31 1215.73,-30.55 1218.51,-30.05 1221.32,-29.51"/>
<polygon fill="midnightblue" stroke="midnightblue" points="839.43,-64.27 830.38,-69.78 840.89,-71.12 839.43,-64.27"/>
</g>
<!-- Node26 -->
<g id="node26" class="node">
<title>Node26</title>
<g id="a_node26"><a xlink:href="init_8cpp.html" target="_top" xlink:title=" ">
<polygon fill="white" stroke="black" points="1346.5,-6 1346.5,-25 1399.5,-25 1399.5,-6 1346.5,-6"/>
<text text-anchor="middle" x="1373" y="-13" font-family="Helvetica,sans-Serif" font-size="10.00">init.cpp</text>
</a>
</g>
</g>
<!-- Node18&#45;&gt;Node26 -->
<g id="edge31" class="edge">
<title>Node18&#45;&gt;Node26</title>
<path fill="none" stroke="midnightblue" d="M840.2,-67.65C841.48,-67.41 842.75,-67.2 844,-67 1061.48,-32.87 1123.8,-81.78 1338,-31 1343.89,-29.6 1350.06,-27.34 1355.56,-25.01"/>
<polygon fill="midnightblue" stroke="midnightblue" points="839.45,-64.23 830.37,-69.7 840.87,-71.08 839.45,-64.23"/>
</g>
<!-- Node27 -->
<g id="node27" class="node">
<title>Node27</title>
<g id="a_node27"><a xlink:href="_a_b_l_anelastic_8cpp.html" target="_top" xlink:title=" ">
<polygon fill="white" stroke="black" points="1417.5,-6 1417.5,-25 1518.5,-25 1518.5,-6 1417.5,-6"/>
<text text-anchor="middle" x="1468" y="-13" font-family="Helvetica,sans-Serif" font-size="10.00">ABLAnelastic.cpp</text>
</a>
</g>
</g>
<!-- Node18&#45;&gt;Node27 -->
<g id="edge33" class="edge">
<title>Node18&#45;&gt;Node27</title>
<path fill="none" stroke="midnightblue" d="M840.2,-67.63C841.48,-67.4 842.75,-67.19 844,-67 1092.75,-29.12 1160.29,-69.18 1409,-31 1418.38,-29.56 1428.46,-27.34 1437.59,-25.07"/>
<polygon fill="midnightblue" stroke="midnightblue" points="839.45,-64.21 830.36,-69.66 840.87,-71.07 839.45,-64.21"/>
</g>
<!-- Node28 -->
<g id="node28" class="node">
<title>Node28</title>
<g id="a_node28"><a xlink:href="_a_b_l_wall_function_8cpp.html" target="_top" xlink:title=" ">
<polygon fill="white" stroke="black" points="1536.5,-6 1536.5,-25 1653.5,-25 1653.5,-6 1536.5,-6"/>
<text text-anchor="middle" x="1595" y="-13" font-family="Helvetica,sans-Serif" font-size="10.00">ABLWallFunction.cpp</text>
</a>
</g>
</g>
<!-- Node18&#45;&gt;Node28 -->
<g id="edge34" class="edge">
<title>Node18&#45;&gt;Node28</title>
<path fill="none" stroke="midnightblue" d="M840.2,-67.61C841.48,-67.39 842.75,-67.18 844,-67 1145.2,-22.83 1226.26,-71.33 1528,-31 1538.73,-29.57 1550.3,-27.32 1560.76,-25.02"/>
<polygon fill="midnightblue" stroke="midnightblue" points="839.46,-64.19 830.36,-69.62 840.86,-71.05 839.46,-64.19"/>
</g>
<!-- Node29&#45;&gt;Node14 -->
<g id="edge39" class="edge">
<title>Node29&#45;&gt;Node14</title>
<path fill="none" stroke="midnightblue" d="M1036.92,-176.56C1064.58,-168.1 1102.44,-155.87 1135,-143 1154.6,-135.25 1158.59,-131.2 1178,-123 1210.11,-109.43 1247.85,-95.36 1271.85,-86.64"/>
<polygon fill="midnightblue" stroke="midnightblue" points="1035.77,-173.25 1027.22,-179.5 1037.8,-179.95 1035.77,-173.25"/>
</g>
<!-- Node29&#45;&gt;Node18 -->
<g id="edge38" class="edge">
<title>Node29&#45;&gt;Node18</title>
<path fill="none" stroke="midnightblue" d="M934.24,-180.59C904.34,-174.47 869.72,-163.33 844,-143 825.05,-128.02 814.11,-100.5 809.54,-86.56"/>
<polygon fill="midnightblue" stroke="midnightblue" points="933.71,-184.05 944.18,-182.47 935.01,-177.17 933.71,-184.05"/>
</g>
<!-- Node29&#45;&gt;Node28 -->
<g id="edge43" class="edge">
<title>Node29&#45;&gt;Node28</title>
<path fill="none" stroke="midnightblue" d="M938.59,-177.17C897.53,-167.09 854.09,-149.59 877,-123 972.38,-12.32 1384.04,-55.92 1528,-31 1537.85,-29.29 1548.45,-27.15 1558.25,-25.03"/>
<polygon fill="midnightblue" stroke="midnightblue" points="937.86,-180.59 948.39,-179.45 939.44,-173.77 937.86,-180.59"/>
</g>
<!-- Node30 -->
<g id="node30" class="node">
<title>Node30</title>
<g id="a_node30"><a xlink:href="_boussinesq_bubble_8cpp.html" target="_top" xlink:title=" ">
<polygon fill="white" stroke="black" points="1000,-123.5 1000,-142.5 1126,-142.5 1126,-123.5 1000,-123.5"/>
<text text-anchor="middle" x="1063" y="-130.5" font-family="Helvetica,sans-Serif" font-size="10.00">BoussinesqBubble.cpp</text>
</a>
</g>
</g>
<!-- Node29&#45;&gt;Node30 -->
<g id="edge37" class="edge">
<title>Node29&#45;&gt;Node30</title>
<path fill="none" stroke="midnightblue" d="M1016.27,-172.82C1027.92,-163.15 1042.6,-150.95 1052.37,-142.83"/>
<polygon fill="midnightblue" stroke="midnightblue" points="1013.9,-170.24 1008.44,-179.32 1018.37,-175.63 1013.9,-170.24"/>
</g>
<!-- Node31 -->
<g id="node31" class="node">
<title>Node31</title>
<g id="a_node31"><a xlink:href="_a_b_l_stats_base_8_h.html" target="_top" xlink:title=" ">
<polygon fill="white" stroke="black" points="886.5,-123.5 886.5,-142.5 981.5,-142.5 981.5,-123.5 886.5,-123.5"/>
<text text-anchor="middle" x="934" y="-130.5" font-family="Helvetica,sans-Serif" font-size="10.00">ABLStatsBase.H</text>
</a>
</g>
</g>
<!-- Node29&#45;&gt;Node31 -->
<g id="edge40" class="edge">
<title>Node29&#45;&gt;Node31</title>
<path fill="none" stroke="midnightblue" d="M980.01,-172.82C968.54,-163.15 954.09,-150.95 944.47,-142.83"/>
<polygon fill="midnightblue" stroke="midnightblue" points="977.82,-175.55 987.72,-179.32 982.33,-170.2 977.82,-175.55"/>
</g>
<!-- Node31&#45;&gt;Node14 -->
<g id="edge42" class="edge">
<title>Node31&#45;&gt;Node14</title>
<path fill="none" stroke="midnightblue" d="M991.61,-122.92C1095.49,-107.09 1205.11,-91.13 1260.3,-83.15"/>
<polygon fill="midnightblue" stroke="midnightblue" points="990.94,-119.48 981.58,-124.45 991.99,-126.4 990.94,-119.48"/>
</g>
<!-- Node31&#45;&gt;Node18 -->
<g id="edge41" class="edge">
<title>Node31&#45;&gt;Node18</title>
<path fill="none" stroke="midnightblue" d="M904.61,-119.5C880.8,-109.38 847.89,-95.39 827.03,-86.52"/>
<polygon fill="midnightblue" stroke="midnightblue" points="903.3,-122.75 913.88,-123.44 906.04,-116.31 903.3,-122.75"/>
</g>
</g>
</svg>
