<?xml version="1.0" encoding="UTF-8" standalone="no"?>
<!DOCTYPE svg PUBLIC "-//W3C//DTD SVG 1.1//EN"
 "http://www.w3.org/Graphics/SVG/1.1/DTD/svg11.dtd">
<!-- Generated by graphviz version 2.43.0 (0)
 -->
<!-- Title: IOManager.H Pages: 1 -->
<svg width="2835pt" height="364pt"
 viewBox="0.00 0.00 2834.50 364.00" xmlns="http://www.w3.org/2000/svg" xmlns:xlink="http://www.w3.org/1999/xlink">
<g id="graph0" class="graph" transform="scale(1 1) rotate(0) translate(4 360)">
<title>IOManager.H</title>
<polygon fill="white" stroke="transparent" points="-4,4 -4,-360 2830.5,-360 2830.5,4 -4,4"/>
<!-- Node1 -->
<g id="node1" class="node">
<title>Node1</title>
<g id="a_node1"><a xlink:title=" ">
<polygon fill="#bfbfbf" stroke="black" points="2033.5,-336.5 2033.5,-355.5 2113.5,-355.5 2113.5,-336.5 2033.5,-336.5"/>
<text text-anchor="middle" x="2073.5" y="-343.5" font-family="Helvetica,sans-Serif" font-size="10.00">IOManager.H</text>
</a>
</g>
</g>
<!-- Node2 -->
<g id="node2" class="node">
<title>Node2</title>
<g id="a_node2"><a xlink:href="_c_f_d_sim_8cpp.html" target="_top" xlink:title=" ">
<polygon fill="white" stroke="black" points="1173.5,-280.5 1173.5,-299.5 1249.5,-299.5 1249.5,-280.5 1173.5,-280.5"/>
<text text-anchor="middle" x="1211.5" y="-287.5" font-family="Helvetica,sans-Serif" font-size="10.00">CFDSim.cpp</text>
</a>
</g>
</g>
<!-- Node1&#45;&gt;Node2 -->
<g id="edge1" class="edge">
<title>Node1&#45;&gt;Node2</title>
<path fill="none" stroke="midnightblue" d="M2023.2,-344.56C1895.13,-342.94 1546.48,-335.36 1258.5,-300 1255.61,-299.65 1252.64,-299.22 1249.65,-298.75"/>
<polygon fill="midnightblue" stroke="midnightblue" points="2023.43,-348.07 2033.47,-344.69 2023.52,-341.07 2023.43,-348.07"/>
</g>
<!-- Node3 -->
<g id="node3" class="node">
<title>Node3</title>
<g id="a_node3"><a xlink:href="_p_d_e_ops_8_h.html" target="_top" xlink:title=" ">
<polygon fill="white" stroke="black" points="1268,-280.5 1268,-299.5 1333,-299.5 1333,-280.5 1268,-280.5"/>
<text text-anchor="middle" x="1300.5" y="-287.5" font-family="Helvetica,sans-Serif" font-size="10.00">PDEOps.H</text>
</a>
</g>
</g>
<!-- Node1&#45;&gt;Node3 -->
<g id="edge2" class="edge">
<title>Node1&#45;&gt;Node3</title>
<path fill="none" stroke="midnightblue" d="M2023.25,-341.49C1876.93,-331.27 1453.88,-301.71 1333.07,-293.28"/>
<polygon fill="midnightblue" stroke="midnightblue" points="2023.08,-344.99 2033.3,-342.19 2023.57,-338 2023.08,-344.99"/>
</g>
<!-- Node54 -->
<g id="node32" class="node">
<title>Node54</title>
<g id="a_node32"><a xlink:href="incflo_8cpp.html" target="_top" xlink:title=" ">
<polygon fill="white" stroke="black" points="1528,-280.5 1528,-299.5 1591,-299.5 1591,-280.5 1528,-280.5"/>
<text text-anchor="middle" x="1559.5" y="-287.5" font-family="Helvetica,sans-Serif" font-size="10.00">incflo.cpp</text>
</a>
</g>
</g>
<!-- Node1&#45;&gt;Node54 -->
<g id="edge65" class="edge">
<title>Node1&#45;&gt;Node54</title>
<path fill="none" stroke="midnightblue" d="M2023.23,-342.33C1936.39,-337.24 1752.86,-324.43 1599.5,-300 1596.83,-299.57 1594.07,-299.08 1591.31,-298.54"/>
<polygon fill="midnightblue" stroke="midnightblue" points="2023.15,-345.83 2033.33,-342.91 2023.55,-338.84 2023.15,-345.83"/>
</g>
<!-- Node55 -->
<g id="node33" class="node">
<title>Node55</title>
<g id="a_node33"><a xlink:href="_tioga_interface_8cpp.html" target="_top" xlink:title=" ">
<polygon fill="white" stroke="black" points="1609,-280.5 1609,-299.5 1716,-299.5 1716,-280.5 1609,-280.5"/>
<text text-anchor="middle" x="1662.5" y="-287.5" font-family="Helvetica,sans-Serif" font-size="10.00">TiogaInterface.cpp</text>
</a>
</g>
</g>
<!-- Node1&#45;&gt;Node55 -->
<g id="edge66" class="edge">
<title>Node1&#45;&gt;Node55</title>
<path fill="none" stroke="midnightblue" d="M2023.45,-338.8C1955.65,-330.34 1830.86,-314.58 1724.5,-300 1721.81,-299.63 1719.05,-299.25 1716.26,-298.86"/>
<polygon fill="midnightblue" stroke="midnightblue" points="2023.08,-342.28 2033.43,-340.04 2023.94,-335.33 2023.08,-342.28"/>
</g>
<!-- Node56 -->
<g id="node34" class="node">
<title>Node56</title>
<g id="a_node34"><a xlink:href="_turb_model_base_8_h.html" target="_top" xlink:title=" ">
<polygon fill="white" stroke="black" points="1734,-280.5 1734,-299.5 1835,-299.5 1835,-280.5 1734,-280.5"/>
<text text-anchor="middle" x="1784.5" y="-287.5" font-family="Helvetica,sans-Serif" font-size="10.00">TurbModelBase.H</text>
</a>
</g>
</g>
<!-- Node1&#45;&gt;Node56 -->
<g id="edge67" class="edge">
<title>Node1&#45;&gt;Node56</title>
<path fill="none" stroke="midnightblue" d="M2023.2,-335.6C1968.72,-325.42 1882.6,-309.33 1830.05,-299.51"/>
<polygon fill="midnightblue" stroke="midnightblue" points="2022.84,-339.1 2033.32,-337.49 2024.13,-332.21 2022.84,-339.1"/>
</g>
<!-- Node69 -->
<g id="node41" class="node">
<title>Node69</title>
<g id="a_node41"><a xlink:href="_re_averaging_8cpp.html" target="_top" xlink:title=" ">
<polygon fill="white" stroke="black" points="1853.5,-280.5 1853.5,-299.5 1951.5,-299.5 1951.5,-280.5 1853.5,-280.5"/>
<text text-anchor="middle" x="1902.5" y="-287.5" font-family="Helvetica,sans-Serif" font-size="10.00">ReAveraging.cpp</text>
</a>
</g>
</g>
<!-- Node1&#45;&gt;Node69 -->
<g id="edge74" class="edge">
<title>Node1&#45;&gt;Node69</title>
<path fill="none" stroke="midnightblue" d="M2036.46,-333.3C2004.24,-323.13 1958.31,-308.62 1929.47,-299.52"/>
<polygon fill="midnightblue" stroke="midnightblue" points="2035.81,-336.77 2046.4,-336.44 2037.92,-330.09 2035.81,-336.77"/>
</g>
<!-- Node70 -->
<g id="node42" class="node">
<title>Node70</title>
<g id="a_node42"><a xlink:href="_reynolds_stress_8cpp.html" target="_top" xlink:title=" ">
<polygon fill="white" stroke="black" points="1969.5,-280.5 1969.5,-299.5 2081.5,-299.5 2081.5,-280.5 1969.5,-280.5"/>
<text text-anchor="middle" x="2025.5" y="-287.5" font-family="Helvetica,sans-Serif" font-size="10.00">ReynoldsStress.cpp</text>
</a>
</g>
</g>
<!-- Node1&#45;&gt;Node70 -->
<g id="edge75" class="edge">
<title>Node1&#45;&gt;Node70</title>
<path fill="none" stroke="midnightblue" d="M2058.77,-328.43C2050.36,-318.97 2040.15,-307.48 2033.28,-299.75"/>
<polygon fill="midnightblue" stroke="midnightblue" points="2056.31,-330.93 2065.57,-336.08 2061.55,-326.28 2056.31,-330.93"/>
</g>
<!-- Node71 -->
<g id="node43" class="node">
<title>Node71</title>
<g id="a_node43"><a xlink:href="io_8cpp.html" target="_top" xlink:title=" ">
<polygon fill="white" stroke="black" points="2099.5,-280.5 2099.5,-299.5 2145.5,-299.5 2145.5,-280.5 2099.5,-280.5"/>
<text text-anchor="middle" x="2122.5" y="-287.5" font-family="Helvetica,sans-Serif" font-size="10.00">io.cpp</text>
</a>
</g>
</g>
<!-- Node1&#45;&gt;Node71 -->
<g id="edge76" class="edge">
<title>Node1&#45;&gt;Node71</title>
<path fill="none" stroke="midnightblue" d="M2088.53,-328.43C2097.12,-318.97 2107.54,-307.48 2114.56,-299.75"/>
<polygon fill="midnightblue" stroke="midnightblue" points="2085.72,-326.33 2081.59,-336.08 2090.9,-331.03 2085.72,-326.33"/>
</g>
<!-- Node72 -->
<g id="node44" class="node">
<title>Node72</title>
<g id="a_node44"><a xlink:href="_i_o_manager_8cpp.html" target="_top" xlink:title=" ">
<polygon fill="white" stroke="black" points="2164,-280.5 2164,-299.5 2253,-299.5 2253,-280.5 2164,-280.5"/>
<text text-anchor="middle" x="2208.5" y="-287.5" font-family="Helvetica,sans-Serif" font-size="10.00">IOManager.cpp</text>
</a>
</g>
</g>
<!-- Node1&#45;&gt;Node72 -->
<g id="edge77" class="edge">
<title>Node1&#45;&gt;Node72</title>
<path fill="none" stroke="midnightblue" d="M2104.41,-332.64C2129.74,-322.5 2164.93,-308.43 2187.21,-299.52"/>
<polygon fill="midnightblue" stroke="midnightblue" points="2102.88,-329.48 2094.89,-336.44 2105.48,-335.98 2102.88,-329.48"/>
</g>
<!-- Node73 -->
<g id="node45" class="node">
<title>Node73</title>
<g id="a_node45"><a xlink:href="_enstrophy_8cpp.html" target="_top" xlink:title=" ">
<polygon fill="white" stroke="black" points="2270.5,-280.5 2270.5,-299.5 2354.5,-299.5 2354.5,-280.5 2270.5,-280.5"/>
<text text-anchor="middle" x="2312.5" y="-287.5" font-family="Helvetica,sans-Serif" font-size="10.00">Enstrophy.cpp</text>
</a>
</g>
</g>
<!-- Node1&#45;&gt;Node73 -->
<g id="edge78" class="edge">
<title>Node1&#45;&gt;Node73</title>
<path fill="none" stroke="midnightblue" d="M2121.22,-334.22C2166.39,-324.01 2233.27,-308.9 2274.81,-299.52"/>
<polygon fill="midnightblue" stroke="midnightblue" points="2120.35,-330.83 2111.37,-336.44 2121.9,-337.65 2120.35,-330.83"/>
</g>
<!-- Node74 -->
<g id="node46" class="node">
<title>Node74</title>
<g id="a_node46"><a xlink:href="_field_norms_8cpp.html" target="_top" xlink:title=" ">
<polygon fill="white" stroke="black" points="2372.5,-280.5 2372.5,-299.5 2464.5,-299.5 2464.5,-280.5 2372.5,-280.5"/>
<text text-anchor="middle" x="2418.5" y="-287.5" font-family="Helvetica,sans-Serif" font-size="10.00">FieldNorms.cpp</text>
</a>
</g>
</g>
<!-- Node1&#45;&gt;Node74 -->
<g id="edge79" class="edge">
<title>Node1&#45;&gt;Node74</title>
<path fill="none" stroke="midnightblue" d="M2123.84,-337.32C2181.7,-328.46 2279.49,-313.39 2363.5,-300 2366.37,-299.54 2369.32,-299.07 2372.29,-298.59"/>
<polygon fill="midnightblue" stroke="midnightblue" points="2123.22,-333.87 2113.86,-338.84 2124.28,-340.79 2123.22,-333.87"/>
</g>
<!-- Node75 -->
<g id="node47" class="node">
<title>Node75</title>
<g id="a_node47"><a xlink:href="_kinetic_energy_8cpp.html" target="_top" xlink:title=" ">
<polygon fill="white" stroke="black" points="2483,-280.5 2483,-299.5 2586,-299.5 2586,-280.5 2483,-280.5"/>
<text text-anchor="middle" x="2534.5" y="-287.5" font-family="Helvetica,sans-Serif" font-size="10.00">KineticEnergy.cpp</text>
</a>
</g>
</g>
<!-- Node1&#45;&gt;Node75 -->
<g id="edge80" class="edge">
<title>Node1&#45;&gt;Node75</title>
<path fill="none" stroke="midnightblue" d="M2123.8,-339.9C2199.68,-332.09 2347.91,-316.32 2473.5,-300 2476.58,-299.6 2479.74,-299.17 2482.93,-298.74"/>
<polygon fill="midnightblue" stroke="midnightblue" points="2123.17,-336.45 2113.58,-340.95 2123.89,-343.41 2123.17,-336.45"/>
</g>
<!-- Node76 -->
<g id="node48" class="node">
<title>Node76</title>
<g id="a_node48"><a xlink:href="_wave_energy_8cpp.html" target="_top" xlink:title=" ">
<polygon fill="white" stroke="black" points="2604.5,-280.5 2604.5,-299.5 2700.5,-299.5 2700.5,-280.5 2604.5,-280.5"/>
<text text-anchor="middle" x="2652.5" y="-287.5" font-family="Helvetica,sans-Serif" font-size="10.00">WaveEnergy.cpp</text>
</a>
</g>
</g>
<!-- Node1&#45;&gt;Node76 -->
<g id="edge81" class="edge">
<title>Node1&#45;&gt;Node76</title>
<path fill="none" stroke="midnightblue" d="M2123.53,-341.87C2216.64,-335.78 2422.74,-321.06 2595.5,-300 2598.38,-299.65 2601.35,-299.26 2604.33,-298.85"/>
<polygon fill="midnightblue" stroke="midnightblue" points="2123.3,-338.37 2113.55,-342.52 2123.75,-345.36 2123.3,-338.37"/>
</g>
<!-- Node77 -->
<g id="node49" class="node">
<title>Node77</title>
<g id="a_node49"><a xlink:href="turbine__fast__ops_8_h.html" target="_top" xlink:title=" ">
<polygon fill="white" stroke="black" points="2718.5,-280.5 2718.5,-299.5 2826.5,-299.5 2826.5,-280.5 2718.5,-280.5"/>
<text text-anchor="middle" x="2772.5" y="-287.5" font-family="Helvetica,sans-Serif" font-size="10.00">turbine_fast_ops.H</text>
</a>
</g>
</g>
<!-- Node1&#45;&gt;Node77 -->
<g id="edge82" class="edge">
<title>Node1&#45;&gt;Node77</title>
<path fill="none" stroke="midnightblue" d="M2124.02,-342.65C2231.8,-337.37 2492.2,-323.18 2709.5,-300 2712.36,-299.7 2715.28,-299.36 2718.23,-299"/>
<polygon fill="midnightblue" stroke="midnightblue" points="2123.59,-339.17 2113.77,-343.15 2123.93,-346.16 2123.59,-339.17"/>
</g>
<!-- Node4 -->
<g id="node4" class="node">
<title>Node4</title>
<g id="a_node4"><a xlink:href="_adv_op___godunov_8_h.html" target="_top" xlink:title=" ">
<polygon fill="white" stroke="black" points="944,-112.5 944,-131.5 1051,-131.5 1051,-112.5 944,-112.5"/>
<text text-anchor="middle" x="997.5" y="-119.5" font-family="Helvetica,sans-Serif" font-size="10.00">AdvOp_Godunov.H</text>
</a>
</g>
</g>
<!-- Node3&#45;&gt;Node4 -->
<g id="edge3" class="edge">
<title>Node3&#45;&gt;Node4</title>
<path fill="none" stroke="midnightblue" d="M1257.97,-279.51C1217,-269.96 1158.26,-255.1 1137.5,-244 1079.42,-212.94 1024.59,-154.04 1005.04,-131.8"/>
<polygon fill="midnightblue" stroke="midnightblue" points="1257.44,-282.98 1267.97,-281.81 1259.02,-276.16 1257.44,-282.98"/>
</g>
<!-- Node9 -->
<g id="node8" class="node">
<title>Node9</title>
<g id="a_node8"><a xlink:href="icns__ops_8_h.html" target="_top" xlink:title=" ">
<polygon fill="white" stroke="black" points="1386,-56.5 1386,-75.5 1455,-75.5 1455,-56.5 1386,-56.5"/>
<text text-anchor="middle" x="1420.5" y="-63.5" font-family="Helvetica,sans-Serif" font-size="10.00">icns_ops.H</text>
</a>
</g>
</g>
<!-- Node3&#45;&gt;Node9 -->
<g id="edge63" class="edge">
<title>Node3&#45;&gt;Node9</title>
<path fill="none" stroke="midnightblue" d="M1308.47,-271.19C1323.17,-238.79 1356.14,-168.35 1389.5,-112 1397.23,-98.94 1407.41,-84.63 1413.95,-75.73"/>
<polygon fill="midnightblue" stroke="midnightblue" points="1305.27,-269.75 1304.36,-280.3 1311.66,-272.63 1305.27,-269.75"/>
</g>
<!-- Node16 -->
<g id="node15" class="node">
<title>Node16</title>
<g id="a_node15"><a xlink:href="_adv_op___m_o_l_8_h.html" target="_top" xlink:title=" ">
<polygon fill="white" stroke="black" points="759.5,-112.5 759.5,-131.5 845.5,-131.5 845.5,-112.5 759.5,-112.5"/>
<text text-anchor="middle" x="802.5" y="-119.5" font-family="Helvetica,sans-Serif" font-size="10.00">AdvOp_MOL.H</text>
</a>
</g>
</g>
<!-- Node3&#45;&gt;Node16 -->
<g id="edge15" class="edge">
<title>Node3&#45;&gt;Node16</title>
<path fill="none" stroke="midnightblue" d="M1257.97,-279.66C1204.57,-267.87 1118.13,-248.58 1103.5,-244 993.58,-209.59 867.2,-152.94 820.8,-131.54"/>
<polygon fill="midnightblue" stroke="midnightblue" points="1257.34,-283.1 1267.86,-281.84 1258.85,-276.27 1257.34,-283.1"/>
</g>
<!-- Node17 -->
<g id="node16" class="node">
<title>Node17</title>
<g id="a_node16"><a xlink:href="_b_c_ops_8_h.html" target="_top" xlink:title=" ">
<polygon fill="white" stroke="black" points="598,-112.5 598,-131.5 657,-131.5 657,-112.5 598,-112.5"/>
<text text-anchor="middle" x="627.5" y="-119.5" font-family="Helvetica,sans-Serif" font-size="10.00">BCOps.H</text>
</a>
</g>
</g>
<!-- Node3&#45;&gt;Node17 -->
<g id="edge25" class="edge">
<title>Node3&#45;&gt;Node17</title>
<path fill="none" stroke="midnightblue" d="M1257.93,-279.98C1162.91,-262.18 1136.58,-264.58 1046.5,-244 895.55,-209.5 718.39,-152.91 653.22,-131.53"/>
<polygon fill="midnightblue" stroke="midnightblue" points="1257.49,-283.46 1267.97,-281.89 1258.8,-276.58 1257.49,-283.46"/>
</g>
<!-- Node25 -->
<g id="node22" class="node">
<title>Node25</title>
<g id="a_node22"><a xlink:href="_comp_r_h_s_ops_8_h.html" target="_top" xlink:title=" ">
<polygon fill="white" stroke="black" points="1147,-224.5 1147,-243.5 1242,-243.5 1242,-224.5 1147,-224.5"/>
<text text-anchor="middle" x="1194.5" y="-231.5" font-family="Helvetica,sans-Serif" font-size="10.00">CompRHSOps.H</text>
</a>
</g>
</g>
<!-- Node3&#45;&gt;Node25 -->
<g id="edge40" class="edge">
<title>Node3&#45;&gt;Node25</title>
<path fill="none" stroke="midnightblue" d="M1274.44,-275.73C1254.82,-265.73 1228.47,-252.31 1211.49,-243.65"/>
<polygon fill="midnightblue" stroke="midnightblue" points="1272.97,-278.9 1283.47,-280.32 1276.15,-272.67 1272.97,-278.9"/>
</g>
<!-- Node26 -->
<g id="node23" class="node">
<title>Node26</title>
<g id="a_node23"><a xlink:href="_p_d_e_8_h.html" target="_top" xlink:title=" ">
<polygon fill="white" stroke="red" points="1164,-168.5 1164,-187.5 1211,-187.5 1211,-168.5 1164,-168.5"/>
<text text-anchor="middle" x="1187.5" y="-175.5" font-family="Helvetica,sans-Serif" font-size="10.00">PDE.H</text>
</a>
</g>
</g>
<!-- Node3&#45;&gt;Node26 -->
<g id="edge64" class="edge">
<title>Node3&#45;&gt;Node26</title>
<path fill="none" stroke="midnightblue" d="M1289.38,-271.83C1279.98,-258.04 1265.65,-238.62 1250.5,-224 1235.41,-209.44 1215.32,-195.91 1201.92,-187.57"/>
<polygon fill="midnightblue" stroke="midnightblue" points="1286.6,-273.97 1295.06,-280.36 1292.43,-270.09 1286.6,-273.97"/>
</g>
<!-- Node30 -->
<g id="node26" class="node">
<title>Node30</title>
<g id="a_node26"><a xlink:href="icns__diffusion_8_h.html" target="_top" xlink:title=" ">
<polygon fill="white" stroke="black" points="1473.5,-56.5 1473.5,-75.5 1567.5,-75.5 1567.5,-56.5 1473.5,-56.5"/>
<text text-anchor="middle" x="1520.5" y="-63.5" font-family="Helvetica,sans-Serif" font-size="10.00">icns_diffusion.H</text>
</a>
</g>
</g>
<!-- Node3&#45;&gt;Node30 -->
<g id="edge62" class="edge">
<title>Node3&#45;&gt;Node30</title>
<path fill="none" stroke="midnightblue" d="M1343.19,-283.05C1395.16,-273.28 1480.87,-248.47 1520.5,-188 1539.42,-159.13 1542.37,-146.02 1536.5,-112 1534.24,-98.93 1528.56,-84.62 1524.61,-75.72"/>
<polygon fill="midnightblue" stroke="midnightblue" points="1342.51,-279.61 1333.27,-284.81 1343.73,-286.51 1342.51,-279.61"/>
</g>
<!-- Node52 -->
<g id="node30" class="node">
<title>Node52</title>
<g id="a_node30"><a xlink:href="_diffusion_ops_8_h.html" target="_top" xlink:title=" ">
<polygon fill="white" stroke="black" points="1355,-224.5 1355,-243.5 1444,-243.5 1444,-224.5 1355,-224.5"/>
<text text-anchor="middle" x="1399.5" y="-231.5" font-family="Helvetica,sans-Serif" font-size="10.00">DiffusionOps.H</text>
</a>
</g>
</g>
<!-- Node3&#45;&gt;Node52 -->
<g id="edge57" class="edge">
<title>Node3&#45;&gt;Node52</title>
<path fill="none" stroke="midnightblue" d="M1325.34,-275.45C1343.61,-265.48 1367.92,-252.23 1383.63,-243.65"/>
<polygon fill="midnightblue" stroke="midnightblue" points="1323.51,-272.46 1316.41,-280.32 1326.86,-278.61 1323.51,-272.46"/>
</g>
<!-- Node5 -->
<g id="node5" class="node">
<title>Node5</title>
<g id="a_node5"><a xlink:href="density_8cpp.html" target="_top" xlink:title=" ">
<polygon fill="white" stroke="black" points="807,-56.5 807,-75.5 878,-75.5 878,-56.5 807,-56.5"/>
<text text-anchor="middle" x="842.5" y="-63.5" font-family="Helvetica,sans-Serif" font-size="10.00">density.cpp</text>
</a>
</g>
</g>
<!-- Node4&#45;&gt;Node5 -->
<g id="edge4" class="edge">
<title>Node4&#45;&gt;Node5</title>
<path fill="none" stroke="midnightblue" d="M963.17,-109.04C934,-98.88 892.86,-84.55 866.95,-75.52"/>
<polygon fill="midnightblue" stroke="midnightblue" points="962.34,-112.46 972.94,-112.44 964.65,-105.85 962.34,-112.46"/>
</g>
<!-- Node6 -->
<g id="node6" class="node">
<title>Node6</title>
<g id="a_node6"><a xlink:href="icns__advection_8_h.html" target="_top" xlink:title=" ">
<polygon fill="white" stroke="red" points="1229.5,-56.5 1229.5,-75.5 1329.5,-75.5 1329.5,-56.5 1229.5,-56.5"/>
<text text-anchor="middle" x="1279.5" y="-63.5" font-family="Helvetica,sans-Serif" font-size="10.00">icns_advection.H</text>
</a>
</g>
</g>
<!-- Node4&#45;&gt;Node6 -->
<g id="edge5" class="edge">
<title>Node4&#45;&gt;Node6</title>
<path fill="none" stroke="midnightblue" d="M1052.14,-110.54C1105.44,-100.33 1185.5,-85 1235.03,-75.52"/>
<polygon fill="midnightblue" stroke="midnightblue" points="1051.35,-107.13 1042.18,-112.44 1052.66,-114 1051.35,-107.13"/>
</g>
<!-- Node4&#45;&gt;Node9 -->
<g id="edge7" class="edge">
<title>Node4&#45;&gt;Node9</title>
<path fill="none" stroke="midnightblue" d="M1061.41,-111.76C1186.66,-94.96 1323.23,-78.52 1385.87,-71.08"/>
<polygon fill="midnightblue" stroke="midnightblue" points="1060.7,-108.33 1051.26,-113.13 1061.64,-115.26 1060.7,-108.33"/>
</g>
<!-- Node10 -->
<g id="node9" class="node">
<title>Node10</title>
<g id="a_node9"><a xlink:href="levelset_8cpp.html" target="_top" xlink:title=" ">
<polygon fill="white" stroke="black" points="484.5,-56.5 484.5,-75.5 560.5,-75.5 560.5,-56.5 484.5,-56.5"/>
<text text-anchor="middle" x="522.5" y="-63.5" font-family="Helvetica,sans-Serif" font-size="10.00">levelset.cpp</text>
</a>
</g>
</g>
<!-- Node4&#45;&gt;Node10 -->
<g id="edge9" class="edge">
<title>Node4&#45;&gt;Node10</title>
<path fill="none" stroke="midnightblue" d="M933.53,-111.94C770.9,-92.74 727.52,-98.87 569.5,-76 566.62,-75.58 563.65,-75.11 560.67,-74.61"/>
<polygon fill="midnightblue" stroke="midnightblue" points="933.56,-115.47 943.9,-113.18 934.39,-108.52 933.56,-115.47"/>
</g>
<!-- Node11 -->
<g id="node10" class="node">
<title>Node11</title>
<g id="a_node10"><a xlink:href="passive__scalar_8cpp.html" target="_top" xlink:title=" ">
<polygon fill="white" stroke="black" points="971.5,-56.5 971.5,-75.5 1079.5,-75.5 1079.5,-56.5 971.5,-56.5"/>
<text text-anchor="middle" x="1025.5" y="-63.5" font-family="Helvetica,sans-Serif" font-size="10.00">passive_scalar.cpp</text>
</a>
</g>
</g>
<!-- Node4&#45;&gt;Node11 -->
<g id="edge10" class="edge">
<title>Node4&#45;&gt;Node11</title>
<path fill="none" stroke="midnightblue" d="M1006.84,-102.98C1011.59,-93.82 1017.16,-83.09 1020.96,-75.75"/>
<polygon fill="midnightblue" stroke="midnightblue" points="1003.62,-101.59 1002.12,-112.08 1009.83,-104.82 1003.62,-101.59"/>
</g>
<!-- Node12 -->
<g id="node11" class="node">
<title>Node12</title>
<g id="a_node11"><a xlink:href="_s_d_r_8cpp.html" target="_top" xlink:title=" ">
<polygon fill="white" stroke="black" points="896,-56.5 896,-75.5 953,-75.5 953,-56.5 896,-56.5"/>
<text text-anchor="middle" x="924.5" y="-63.5" font-family="Helvetica,sans-Serif" font-size="10.00">SDR.cpp</text>
</a>
</g>
</g>
<!-- Node4&#45;&gt;Node12 -->
<g id="edge11" class="edge">
<title>Node4&#45;&gt;Node12</title>
<path fill="none" stroke="midnightblue" d="M977.36,-106.1C964.22,-96.38 947.52,-84.03 936.44,-75.83"/>
<polygon fill="midnightblue" stroke="midnightblue" points="975.65,-109.19 985.77,-112.32 979.81,-103.56 975.65,-109.19"/>
</g>
<!-- Node13 -->
<g id="node12" class="node">
<title>Node13</title>
<g id="a_node12"><a xlink:href="temperature_8cpp.html" target="_top" xlink:title=" ">
<polygon fill="white" stroke="black" points="578.5,-56.5 578.5,-75.5 676.5,-75.5 676.5,-56.5 578.5,-56.5"/>
<text text-anchor="middle" x="627.5" y="-63.5" font-family="Helvetica,sans-Serif" font-size="10.00">temperature.cpp</text>
</a>
</g>
</g>
<!-- Node4&#45;&gt;Node13 -->
<g id="edge12" class="edge">
<title>Node4&#45;&gt;Node13</title>
<path fill="none" stroke="midnightblue" d="M933.84,-111.9C856.93,-100.89 732.05,-82.97 685.5,-76 682.58,-75.56 679.57,-75.11 676.54,-74.65"/>
<polygon fill="midnightblue" stroke="midnightblue" points="933.5,-115.39 943.9,-113.34 934.49,-108.46 933.5,-115.39"/>
</g>
<!-- Node14 -->
<g id="node13" class="node">
<title>Node14</title>
<g id="a_node13"><a xlink:href="_t_k_e_8cpp.html" target="_top" xlink:title=" ">
<polygon fill="white" stroke="black" points="694.5,-56.5 694.5,-75.5 750.5,-75.5 750.5,-56.5 694.5,-56.5"/>
<text text-anchor="middle" x="722.5" y="-63.5" font-family="Helvetica,sans-Serif" font-size="10.00">TKE.cpp</text>
</a>
</g>
</g>
<!-- Node4&#45;&gt;Node14 -->
<g id="edge13" class="edge">
<title>Node4&#45;&gt;Node14</title>
<path fill="none" stroke="midnightblue" d="M943.87,-110.47C886.03,-99.11 796.14,-81.46 750.76,-72.55"/>
<polygon fill="midnightblue" stroke="midnightblue" points="943.44,-113.95 953.93,-112.44 944.79,-107.08 943.44,-113.95"/>
</g>
<!-- Node15 -->
<g id="node14" class="node">
<title>Node15</title>
<g id="a_node14"><a xlink:href="vof_8cpp.html" target="_top" xlink:title=" ">
<polygon fill="white" stroke="black" points="591.5,-0.5 591.5,-19.5 643.5,-19.5 643.5,-0.5 591.5,-0.5"/>
<text text-anchor="middle" x="617.5" y="-7.5" font-family="Helvetica,sans-Serif" font-size="10.00">vof.cpp</text>
</a>
</g>
</g>
<!-- Node4&#45;&gt;Node15 -->
<g id="edge14" class="edge">
<title>Node4&#45;&gt;Node15</title>
<path fill="none" stroke="midnightblue" d="M1037.58,-109.27C1070.58,-97.67 1108.88,-78.42 1088.5,-56 1058.39,-22.87 738.01,-13.53 643.56,-11.49"/>
<polygon fill="midnightblue" stroke="midnightblue" points="1036.38,-105.98 1028.02,-112.48 1038.61,-112.62 1036.38,-105.98"/>
</g>
<!-- Node7 -->
<g id="node7" class="node">
<title>Node7</title>
<g id="a_node7"><a xlink:href="icns_8cpp.html" target="_top" xlink:title=" ">
<polygon fill="white" stroke="black" points="1329.5,-0.5 1329.5,-19.5 1385.5,-19.5 1385.5,-0.5 1329.5,-0.5"/>
<text text-anchor="middle" x="1357.5" y="-7.5" font-family="Helvetica,sans-Serif" font-size="10.00">icns.cpp</text>
</a>
</g>
</g>
<!-- Node6&#45;&gt;Node7 -->
<g id="edge6" class="edge">
<title>Node6&#45;&gt;Node7</title>
<path fill="none" stroke="midnightblue" d="M1300.27,-50.62C1314.52,-40.76 1332.96,-27.99 1345,-19.65"/>
<polygon fill="midnightblue" stroke="midnightblue" points="1298.26,-47.75 1292.03,-56.32 1302.25,-53.51 1298.26,-47.75"/>
</g>
<!-- Node9&#45;&gt;Node7 -->
<g id="edge8" class="edge">
<title>Node9&#45;&gt;Node7</title>
<path fill="none" stroke="midnightblue" d="M1402.46,-49.54C1391.23,-39.91 1377.18,-27.87 1367.81,-19.83"/>
<polygon fill="midnightblue" stroke="midnightblue" points="1400.51,-52.47 1410.38,-56.32 1405.06,-47.16 1400.51,-52.47"/>
</g>
<!-- Node16&#45;&gt;Node5 -->
<g id="edge16" class="edge">
<title>Node16&#45;&gt;Node5</title>
<path fill="none" stroke="midnightblue" d="M815.2,-103.86C822.13,-94.5 830.41,-83.33 836.02,-75.75"/>
<polygon fill="midnightblue" stroke="midnightblue" points="812.25,-101.96 809.11,-112.08 817.87,-106.13 812.25,-101.96"/>
</g>
<!-- Node16&#45;&gt;Node6 -->
<g id="edge17" class="edge">
<title>Node16&#45;&gt;Node6</title>
<path fill="none" stroke="midnightblue" d="M855.92,-111.9C1017.79,-90.32 1061.05,-95.68 1219.5,-76 1222.74,-75.6 1226.08,-75.16 1229.44,-74.7"/>
<polygon fill="midnightblue" stroke="midnightblue" points="855.04,-108.49 845.59,-113.29 855.97,-115.43 855.04,-108.49"/>
</g>
<!-- Node16&#45;&gt;Node9 -->
<g id="edge18" class="edge">
<title>Node16&#45;&gt;Node9</title>
<path fill="none" stroke="midnightblue" d="M855.59,-111.98C1070.29,-85.88 1126.95,-95.47 1338.5,-76 1354.04,-74.57 1371.22,-72.73 1385.81,-71.08"/>
<polygon fill="midnightblue" stroke="midnightblue" points="855.08,-108.52 845.58,-113.21 855.93,-115.47 855.08,-108.52"/>
</g>
<!-- Node16&#45;&gt;Node10 -->
<g id="edge19" class="edge">
<title>Node16&#45;&gt;Node10</title>
<path fill="none" stroke="midnightblue" d="M749.44,-110.77C694.37,-100.15 609.58,-83.79 560.73,-74.37"/>
<polygon fill="midnightblue" stroke="midnightblue" points="748.88,-114.22 759.36,-112.68 750.21,-107.35 748.88,-114.22"/>
</g>
<!-- Node16&#45;&gt;Node11 -->
<g id="edge20" class="edge">
<title>Node16&#45;&gt;Node11</title>
<path fill="none" stroke="midnightblue" d="M847.56,-110.09C889.69,-99.89 951.74,-84.86 990.33,-75.52"/>
<polygon fill="midnightblue" stroke="midnightblue" points="846.73,-106.69 837.84,-112.44 848.38,-113.49 846.73,-106.69"/>
</g>
<!-- Node16&#45;&gt;Node12 -->
<g id="edge21" class="edge">
<title>Node16&#45;&gt;Node12</title>
<path fill="none" stroke="midnightblue" d="M831.04,-108.37C853.89,-98.26 885.31,-84.35 905.26,-75.52"/>
<polygon fill="midnightblue" stroke="midnightblue" points="829.56,-105.2 821.83,-112.44 832.39,-111.6 829.56,-105.2"/>
</g>
<!-- Node16&#45;&gt;Node13 -->
<g id="edge22" class="edge">
<title>Node16&#45;&gt;Node13</title>
<path fill="none" stroke="midnightblue" d="M765.03,-109.44C732.03,-99.26 684.74,-84.66 655.1,-75.52"/>
<polygon fill="midnightblue" stroke="midnightblue" points="764.18,-112.84 774.77,-112.44 766.25,-106.15 764.18,-112.84"/>
</g>
<!-- Node16&#45;&gt;Node14 -->
<g id="edge23" class="edge">
<title>Node16&#45;&gt;Node14</title>
<path fill="none" stroke="midnightblue" d="M781.2,-106.62C766.58,-96.76 747.67,-83.99 735.32,-75.65"/>
<polygon fill="midnightblue" stroke="midnightblue" points="779.4,-109.63 789.65,-112.32 783.32,-103.83 779.4,-109.63"/>
</g>
<!-- Node16&#45;&gt;Node15 -->
<g id="edge24" class="edge">
<title>Node16&#45;&gt;Node15</title>
<path fill="none" stroke="midnightblue" d="M794.77,-102.99C787.62,-88.35 775.66,-68.2 759.5,-56 724.72,-29.75 674.21,-18.56 643.74,-13.98"/>
<polygon fill="midnightblue" stroke="midnightblue" points="791.77,-104.84 799.12,-112.48 798.14,-101.93 791.77,-104.84"/>
</g>
<!-- Node17&#45;&gt;Node5 -->
<g id="edge26" class="edge">
<title>Node17&#45;&gt;Node5</title>
<path fill="none" stroke="midnightblue" d="M667.22,-111.02C707.84,-100.82 770.25,-85.15 808.61,-75.51"/>
<polygon fill="midnightblue" stroke="midnightblue" points="666.24,-107.66 657.39,-113.49 667.95,-114.45 666.24,-107.66"/>
</g>
<!-- Node17&#45;&gt;Node10 -->
<g id="edge29" class="edge">
<title>Node17&#45;&gt;Node10</title>
<path fill="none" stroke="midnightblue" d="M601.69,-107.73C582.25,-97.73 556.15,-84.31 539.33,-75.65"/>
<polygon fill="midnightblue" stroke="midnightblue" points="600.14,-110.86 610.63,-112.32 603.34,-104.64 600.14,-110.86"/>
</g>
<!-- Node17&#45;&gt;Node11 -->
<g id="edge30" class="edge">
<title>Node17&#45;&gt;Node11</title>
<path fill="none" stroke="midnightblue" d="M667.26,-112.04C798.3,-89.3 833.74,-92.78 961.5,-76 964.73,-75.58 968.04,-75.13 971.39,-74.68"/>
<polygon fill="midnightblue" stroke="midnightblue" points="666.49,-108.62 657.24,-113.8 667.7,-115.52 666.49,-108.62"/>
</g>
<!-- Node17&#45;&gt;Node12 -->
<g id="edge31" class="edge">
<title>Node17&#45;&gt;Node12</title>
<path fill="none" stroke="midnightblue" d="M667.31,-111.96C765.44,-92.99 792.48,-94.8 886.5,-76 889.56,-75.39 892.74,-74.71 895.91,-74"/>
<polygon fill="midnightblue" stroke="midnightblue" points="666.41,-108.57 657.27,-113.92 667.75,-115.44 666.41,-108.57"/>
</g>
<!-- Node17&#45;&gt;Node13 -->
<g id="edge32" class="edge">
<title>Node17&#45;&gt;Node13</title>
<path fill="none" stroke="midnightblue" d="M627.5,-101.8C627.5,-92.91 627.5,-82.78 627.5,-75.75"/>
<polygon fill="midnightblue" stroke="midnightblue" points="624,-102.08 627.5,-112.08 631,-102.08 624,-102.08"/>
</g>
<!-- Node17&#45;&gt;Node14 -->
<g id="edge33" class="edge">
<title>Node17&#45;&gt;Node14</title>
<path fill="none" stroke="midnightblue" d="M651.82,-107.18C669.3,-97.24 692.33,-84.15 707.27,-75.65"/>
<polygon fill="midnightblue" stroke="midnightblue" points="649.73,-104.34 642.76,-112.32 653.19,-110.43 649.73,-104.34"/>
</g>
<!-- Node17&#45;&gt;Node15 -->
<g id="edge34" class="edge">
<title>Node17&#45;&gt;Node15</title>
<path fill="none" stroke="midnightblue" d="M587.86,-121.51C552.07,-119.59 501.21,-110.42 475.5,-76 443.94,-33.75 542.31,-18.18 591.39,-13.14"/>
<polygon fill="midnightblue" stroke="midnightblue" points="587.86,-125.02 597.98,-121.89 588.12,-118.02 587.86,-125.02"/>
</g>
<!-- Node18 -->
<g id="node17" class="node">
<title>Node18</title>
<g id="a_node17"><a xlink:href="icns__bcop_8_h.html" target="_top" xlink:title=" ">
<polygon fill="white" stroke="black" points="1136,-56.5 1136,-75.5 1211,-75.5 1211,-56.5 1136,-56.5"/>
<text text-anchor="middle" x="1173.5" y="-63.5" font-family="Helvetica,sans-Serif" font-size="10.00">icns_bcop.H</text>
</a>
</g>
</g>
<!-- Node17&#45;&gt;Node18 -->
<g id="edge27" class="edge">
<title>Node17&#45;&gt;Node18</title>
<path fill="none" stroke="midnightblue" d="M667.11,-112.13C854.16,-83.14 904.32,-93.6 1088.5,-76 1104.01,-74.52 1121.1,-72.74 1135.86,-71.15"/>
<polygon fill="midnightblue" stroke="midnightblue" points="666.56,-108.68 657.23,-113.68 667.65,-115.59 666.56,-108.68"/>
</g>
<!-- Node19 -->
<g id="node18" class="node">
<title>Node19</title>
<g id="a_node18"><a xlink:href="vof__bcop_8_h.html" target="_top" xlink:title=" ">
<polygon fill="white" stroke="black" points="357,-56.5 357,-75.5 428,-75.5 428,-56.5 357,-56.5"/>
<text text-anchor="middle" x="392.5" y="-63.5" font-family="Helvetica,sans-Serif" font-size="10.00">vof_bcop.H</text>
</a>
</g>
</g>
<!-- Node17&#45;&gt;Node19 -->
<g id="edge35" class="edge">
<title>Node17&#45;&gt;Node19</title>
<path fill="none" stroke="midnightblue" d="M587.82,-111.88C543.12,-101.61 471.13,-85.07 428.16,-75.19"/>
<polygon fill="midnightblue" stroke="midnightblue" points="587.21,-115.33 597.74,-114.16 588.77,-108.51 587.21,-115.33"/>
</g>
<!-- Node20 -->
<g id="node19" class="node">
<title>Node20</title>
<g id="a_node19"><a xlink:href="hos__waves__ops_8_h.html" target="_top" xlink:title=" ">
<polygon fill="white" stroke="red" points="234.5,-56.5 234.5,-75.5 338.5,-75.5 338.5,-56.5 234.5,-56.5"/>
<text text-anchor="middle" x="286.5" y="-63.5" font-family="Helvetica,sans-Serif" font-size="10.00">hos_waves_ops.H</text>
</a>
</g>
</g>
<!-- Node17&#45;&gt;Node20 -->
<g id="edge37" class="edge">
<title>Node17&#45;&gt;Node20</title>
<path fill="none" stroke="midnightblue" d="M587.72,-114.7C525.99,-104.92 407.12,-86.1 338.61,-75.25"/>
<polygon fill="midnightblue" stroke="midnightblue" points="587.41,-118.2 597.84,-116.3 588.51,-111.28 587.41,-118.2"/>
</g>
<!-- Node22 -->
<g id="node20" class="node">
<title>Node22</title>
<g id="a_node20"><a xlink:href="waves2amr__ops_8_h.html" target="_top" xlink:title=" ">
<polygon fill="white" stroke="red" points="0,-56.5 0,-75.5 107,-75.5 107,-56.5 0,-56.5"/>
<text text-anchor="middle" x="53.5" y="-63.5" font-family="Helvetica,sans-Serif" font-size="10.00">waves2amr_ops.H</text>
</a>
</g>
</g>
<!-- Node17&#45;&gt;Node22 -->
<g id="edge38" class="edge">
<title>Node17&#45;&gt;Node22</title>
<path fill="none" stroke="midnightblue" d="M587.58,-118.26C501.28,-112.18 290.99,-96.43 115.5,-76 112.8,-75.69 110.03,-75.35 107.24,-74.99"/>
<polygon fill="midnightblue" stroke="midnightblue" points="587.5,-121.77 597.72,-118.97 587.99,-114.78 587.5,-121.77"/>
</g>
<!-- Node24 -->
<g id="node21" class="node">
<title>Node24</title>
<g id="a_node21"><a xlink:href="_multi_phase_8cpp.html" target="_top" xlink:title=" ">
<polygon fill="white" stroke="black" points="125,-56.5 125,-75.5 216,-75.5 216,-56.5 125,-56.5"/>
<text text-anchor="middle" x="170.5" y="-63.5" font-family="Helvetica,sans-Serif" font-size="10.00">MultiPhase.cpp</text>
</a>
</g>
</g>
<!-- Node17&#45;&gt;Node24 -->
<g id="edge39" class="edge">
<title>Node17&#45;&gt;Node24</title>
<path fill="none" stroke="midnightblue" d="M587.92,-117.24C515.74,-110.24 357.95,-94.24 225.5,-76 222.43,-75.58 219.27,-75.12 216.09,-74.64"/>
<polygon fill="midnightblue" stroke="midnightblue" points="587.64,-120.73 597.93,-118.21 588.31,-113.76 587.64,-120.73"/>
</g>
<!-- Node18&#45;&gt;Node7 -->
<g id="edge28" class="edge">
<title>Node18&#45;&gt;Node7</title>
<path fill="none" stroke="midnightblue" d="M1212.55,-53.54C1247.59,-43.26 1298.18,-28.41 1329.39,-19.25"/>
<polygon fill="midnightblue" stroke="midnightblue" points="1211.27,-50.27 1202.66,-56.44 1213.24,-56.99 1211.27,-50.27"/>
</g>
<!-- Node19&#45;&gt;Node15 -->
<g id="edge36" class="edge">
<title>Node19&#45;&gt;Node15</title>
<path fill="none" stroke="midnightblue" d="M437.91,-54.1C484.06,-43.03 553.95,-26.25 591.48,-17.24"/>
<polygon fill="midnightblue" stroke="midnightblue" points="437.06,-50.71 428.15,-56.44 438.69,-57.51 437.06,-50.71"/>
</g>
<!-- Node25&#45;&gt;Node26 -->
<g id="edge41" class="edge">
<title>Node25&#45;&gt;Node26</title>
<path fill="none" stroke="midnightblue" d="M1192.05,-214.1C1190.89,-205.14 1189.56,-194.86 1188.63,-187.75"/>
<polygon fill="midnightblue" stroke="midnightblue" points="1188.59,-214.62 1193.34,-224.08 1195.53,-213.72 1188.59,-214.62"/>
</g>
<!-- Node27 -->
<g id="node24" class="node">
<title>Node27</title>
<g id="a_node24"><a xlink:href="density_8_h.html" target="_top" xlink:title=" ">
<polygon fill="white" stroke="red" points="863.5,-112.5 863.5,-131.5 925.5,-131.5 925.5,-112.5 863.5,-112.5"/>
<text text-anchor="middle" x="894.5" y="-119.5" font-family="Helvetica,sans-Serif" font-size="10.00">density.H</text>
</a>
</g>
</g>
<!-- Node26&#45;&gt;Node27 -->
<g id="edge42" class="edge">
<title>Node26&#45;&gt;Node27</title>
<path fill="none" stroke="midnightblue" d="M1153.75,-171.5C1105.16,-163.46 1012.73,-147.75 934.5,-132 931.71,-131.44 928.81,-130.83 925.91,-130.21"/>
<polygon fill="midnightblue" stroke="midnightblue" points="1153.28,-174.97 1163.71,-173.14 1154.42,-168.06 1153.28,-174.97"/>
</g>
<!-- Node29 -->
<g id="node25" class="node">
<title>Node29</title>
<g id="a_node25"><a xlink:href="icns_8_h.html" target="_top" xlink:title=" ">
<polygon fill="white" stroke="red" points="1251,-112.5 1251,-131.5 1298,-131.5 1298,-112.5 1251,-112.5"/>
<text text-anchor="middle" x="1274.5" y="-119.5" font-family="Helvetica,sans-Serif" font-size="10.00">icns.H</text>
</a>
</g>
</g>
<!-- Node26&#45;&gt;Node29 -->
<g id="edge44" class="edge">
<title>Node26&#45;&gt;Node29</title>
<path fill="none" stroke="midnightblue" d="M1210.22,-162.9C1226.17,-153 1247,-140.07 1260.56,-131.65"/>
<polygon fill="midnightblue" stroke="midnightblue" points="1208.13,-160.08 1201.48,-168.32 1211.82,-166.02 1208.13,-160.08"/>
</g>
<!-- Node36 -->
<g id="node27" class="node">
<title>Node36</title>
<g id="a_node27"><a xlink:href="levelset_8_h.html" target="_top" xlink:title=" ">
<polygon fill="white" stroke="red" points="675.5,-112.5 675.5,-131.5 741.5,-131.5 741.5,-112.5 675.5,-112.5"/>
<text text-anchor="middle" x="708.5" y="-119.5" font-family="Helvetica,sans-Serif" font-size="10.00">levelset.H</text>
</a>
</g>
</g>
<!-- Node26&#45;&gt;Node36 -->
<g id="edge51" class="edge">
<title>Node26&#45;&gt;Node36</title>
<path fill="none" stroke="midnightblue" d="M1153.62,-174.77C1079.96,-169.64 899.85,-155.62 750.5,-132 747.7,-131.56 744.81,-131.05 741.91,-130.5"/>
<polygon fill="midnightblue" stroke="midnightblue" points="1153.48,-178.27 1163.7,-175.46 1153.96,-171.28 1153.48,-178.27"/>
</g>
<!-- Node38 -->
<g id="node28" class="node">
<title>Node38</title>
<g id="a_node28"><a xlink:href="passive__scalar_8_h.html" target="_top" xlink:title=" ">
<polygon fill="white" stroke="black" points="1134.5,-112.5 1134.5,-131.5 1232.5,-131.5 1232.5,-112.5 1134.5,-112.5"/>
<text text-anchor="middle" x="1183.5" y="-119.5" font-family="Helvetica,sans-Serif" font-size="10.00">passive_scalar.H</text>
</a>
</g>
</g>
<!-- Node26&#45;&gt;Node38 -->
<g id="edge53" class="edge">
<title>Node26&#45;&gt;Node38</title>
<path fill="none" stroke="midnightblue" d="M1186.1,-158.1C1185.44,-149.14 1184.67,-138.86 1184.15,-131.75"/>
<polygon fill="midnightblue" stroke="midnightblue" points="1182.61,-158.37 1186.84,-168.08 1189.59,-157.85 1182.61,-158.37"/>
</g>
<!-- Node39 -->
<g id="node29" class="node">
<title>Node39</title>
<g id="a_node29"><a xlink:href="_s_d_r_8_h.html" target="_top" xlink:title=" ">
<polygon fill="white" stroke="red" points="1069,-112.5 1069,-131.5 1116,-131.5 1116,-112.5 1069,-112.5"/>
<text text-anchor="middle" x="1092.5" y="-119.5" font-family="Helvetica,sans-Serif" font-size="10.00">SDR.H</text>
</a>
</g>
</g>
<!-- Node26&#45;&gt;Node39 -->
<g id="edge55" class="edge">
<title>Node26&#45;&gt;Node39</title>
<path fill="none" stroke="midnightblue" d="M1163.18,-163.18C1145.7,-153.24 1122.67,-140.15 1107.73,-131.65"/>
<polygon fill="midnightblue" stroke="midnightblue" points="1161.81,-166.43 1172.24,-168.32 1165.27,-160.34 1161.81,-166.43"/>
</g>
<!-- Node27&#45;&gt;Node5 -->
<g id="edge43" class="edge">
<title>Node27&#45;&gt;Node5</title>
<path fill="none" stroke="midnightblue" d="M878.82,-104.72C869.66,-95.2 858.45,-83.56 850.93,-75.75"/>
<polygon fill="midnightblue" stroke="midnightblue" points="876.46,-107.31 885.91,-112.08 881.5,-102.45 876.46,-107.31"/>
</g>
<!-- Node29&#45;&gt;Node6 -->
<g id="edge46" class="edge">
<title>Node29&#45;&gt;Node6</title>
<path fill="none" stroke="midnightblue" d="M1276.25,-102.1C1277.08,-93.14 1278.03,-82.86 1278.69,-75.75"/>
<polygon fill="midnightblue" stroke="midnightblue" points="1272.76,-101.8 1275.33,-112.08 1279.73,-102.45 1272.76,-101.8"/>
</g>
<!-- Node29&#45;&gt;Node7 -->
<g id="edge45" class="edge">
<title>Node29&#45;&gt;Node7</title>
<path fill="none" stroke="midnightblue" d="M1301.76,-107.44C1314.58,-99.81 1329.09,-89.15 1338.5,-76 1350.95,-58.6 1355.3,-33.09 1356.78,-19.79"/>
<polygon fill="midnightblue" stroke="midnightblue" points="1299.82,-104.51 1292.81,-112.46 1303.25,-110.62 1299.82,-104.51"/>
</g>
<!-- Node29&#45;&gt;Node9 -->
<g id="edge50" class="edge">
<title>Node29&#45;&gt;Node9</title>
<path fill="none" stroke="midnightblue" d="M1307.2,-108.91C1334.65,-98.75 1373.17,-84.51 1397.47,-75.52"/>
<polygon fill="midnightblue" stroke="midnightblue" points="1305.8,-105.69 1297.63,-112.44 1308.23,-112.26 1305.8,-105.69"/>
</g>
<!-- Node29&#45;&gt;Node18 -->
<g id="edge47" class="edge">
<title>Node29&#45;&gt;Node18</title>
<path fill="none" stroke="midnightblue" d="M1249.42,-107.59C1230.74,-97.61 1205.8,-84.27 1189.69,-75.65"/>
<polygon fill="midnightblue" stroke="midnightblue" points="1247.8,-110.7 1258.27,-112.32 1251.1,-104.52 1247.8,-110.7"/>
</g>
<!-- Node29&#45;&gt;Node30 -->
<g id="edge48" class="edge">
<title>Node29&#45;&gt;Node30</title>
<path fill="none" stroke="midnightblue" d="M1308,-113.65C1353.3,-103.7 1433.9,-86.01 1481.76,-75.5"/>
<polygon fill="midnightblue" stroke="midnightblue" points="1307.1,-110.26 1298.09,-115.82 1308.61,-117.1 1307.1,-110.26"/>
</g>
<!-- Node30&#45;&gt;Node7 -->
<g id="edge49" class="edge">
<title>Node30&#45;&gt;Node7</title>
<path fill="none" stroke="midnightblue" d="M1484.8,-53.17C1454.1,-43 1410.58,-28.59 1383.21,-19.52"/>
<polygon fill="midnightblue" stroke="midnightblue" points="1484.08,-56.62 1494.67,-56.44 1486.28,-49.98 1484.08,-56.62"/>
</g>
<!-- Node36&#45;&gt;Node10 -->
<g id="edge52" class="edge">
<title>Node36&#45;&gt;Node10</title>
<path fill="none" stroke="midnightblue" d="M669.12,-109.57C634.03,-99.38 583.48,-84.7 551.83,-75.52"/>
<polygon fill="midnightblue" stroke="midnightblue" points="668.45,-113.02 679.03,-112.44 670.4,-106.29 668.45,-113.02"/>
</g>
<!-- Node38&#45;&gt;Node11 -->
<g id="edge54" class="edge">
<title>Node38&#45;&gt;Node11</title>
<path fill="none" stroke="midnightblue" d="M1148.89,-109.17C1119.14,-99 1076.95,-84.59 1050.42,-75.52"/>
<polygon fill="midnightblue" stroke="midnightblue" points="1147.87,-112.52 1158.46,-112.44 1150.13,-105.9 1147.87,-112.52"/>
</g>
<!-- Node39&#45;&gt;Node12 -->
<g id="edge56" class="edge">
<title>Node39&#45;&gt;Node12</title>
<path fill="none" stroke="midnightblue" d="M1059.08,-110.26C1027.38,-100.07 980.39,-84.96 951.14,-75.56"/>
<polygon fill="midnightblue" stroke="midnightblue" points="1058.19,-113.65 1068.79,-113.38 1060.34,-106.99 1058.19,-113.65"/>
</g>
<!-- Node52&#45;&gt;Node9 -->
<g id="edge60" class="edge">
<title>Node52&#45;&gt;Node9</title>
<path fill="none" stroke="midnightblue" d="M1390.92,-215.05C1385.74,-202.07 1380.65,-184.07 1383.5,-168 1389.83,-132.33 1407.81,-92.72 1416.15,-75.63"/>
<polygon fill="midnightblue" stroke="midnightblue" points="1387.73,-216.49 1394.94,-224.25 1394.14,-213.68 1387.73,-216.49"/>
</g>
<!-- Node52&#45;&gt;Node26 -->
<g id="edge61" class="edge">
<title>Node52&#45;&gt;Node26</title>
<path fill="none" stroke="midnightblue" d="M1356.09,-221.94C1312.21,-210.77 1246.05,-193.91 1211.09,-185.01"/>
<polygon fill="midnightblue" stroke="midnightblue" points="1355.35,-225.37 1365.91,-224.44 1357.08,-218.58 1355.35,-225.37"/>
</g>
<!-- Node52&#45;&gt;Node30 -->
<g id="edge59" class="edge">
<title>Node52&#45;&gt;Node30</title>
<path fill="none" stroke="midnightblue" d="M1450.29,-221.26C1468.76,-214.51 1488.11,-204.04 1500.5,-188 1527.05,-153.63 1523.99,-97.2 1521.65,-75.69"/>
<polygon fill="midnightblue" stroke="midnightblue" points="1449.12,-217.97 1440.76,-224.47 1451.35,-224.6 1449.12,-217.97"/>
</g>
<!-- Node53 -->
<g id="node31" class="node">
<title>Node53</title>
<g id="a_node31"><a xlink:href="_diffusion_ops_8cpp.html" target="_top" xlink:title=" ">
<polygon fill="white" stroke="black" points="1393,-168.5 1393,-187.5 1492,-187.5 1492,-168.5 1393,-168.5"/>
<text text-anchor="middle" x="1442.5" y="-175.5" font-family="Helvetica,sans-Serif" font-size="10.00">DiffusionOps.cpp</text>
</a>
</g>
</g>
<!-- Node52&#45;&gt;Node53 -->
<g id="edge58" class="edge">
<title>Node52&#45;&gt;Node53</title>
<path fill="none" stroke="midnightblue" d="M1412.92,-216.14C1420.41,-206.74 1429.44,-195.4 1435.53,-187.75"/>
<polygon fill="midnightblue" stroke="midnightblue" points="1410.09,-214.08 1406.6,-224.08 1415.57,-218.44 1410.09,-214.08"/>
</g>
<!-- Node57 -->
<g id="node35" class="node">
<title>Node57</title>
<g id="a_node35"><a xlink:href="_a_m_d_8_h.html" target="_top" xlink:title=" ">
<polygon fill="white" stroke="red" points="1898.5,-224.5 1898.5,-243.5 1948.5,-243.5 1948.5,-224.5 1898.5,-224.5"/>
<text text-anchor="middle" x="1923.5" y="-231.5" font-family="Helvetica,sans-Serif" font-size="10.00">AMD.H</text>
</a>
</g>
</g>
<!-- Node56&#45;&gt;Node57 -->
<g id="edge68" class="edge">
<title>Node56&#45;&gt;Node57</title>
<path fill="none" stroke="midnightblue" d="M1815.98,-276.77C1842.09,-266.63 1878.54,-252.47 1901.58,-243.52"/>
<polygon fill="midnightblue" stroke="midnightblue" points="1814.58,-273.56 1806.52,-280.44 1817.11,-280.08 1814.58,-273.56"/>
</g>
<!-- Node59 -->
<g id="node36" class="node">
<title>Node59</title>
<g id="a_node36"><a xlink:href="_a_m_d_no_therm_8_h.html" target="_top" xlink:title=" ">
<polygon fill="white" stroke="red" points="1967,-224.5 1967,-243.5 2062,-243.5 2062,-224.5 1967,-224.5"/>
<text text-anchor="middle" x="2014.5" y="-231.5" font-family="Helvetica,sans-Serif" font-size="10.00">AMDNoTherm.H</text>
</a>
</g>
</g>
<!-- Node56&#45;&gt;Node59 -->
<g id="edge69" class="edge">
<title>Node56&#45;&gt;Node59</title>
<path fill="none" stroke="midnightblue" d="M1830.7,-278.15C1874.16,-267.95 1938.34,-252.88 1978.23,-243.52"/>
<polygon fill="midnightblue" stroke="midnightblue" points="1829.88,-274.75 1820.94,-280.44 1831.48,-281.57 1829.88,-274.75"/>
</g>
<!-- Node61 -->
<g id="node37" class="node">
<title>Node61</title>
<g id="a_node37"><a xlink:href="_kosovic_8_h.html" target="_top" xlink:title=" ">
<polygon fill="white" stroke="red" points="2080,-224.5 2080,-243.5 2145,-243.5 2145,-224.5 2080,-224.5"/>
<text text-anchor="middle" x="2112.5" y="-231.5" font-family="Helvetica,sans-Serif" font-size="10.00">Kosovic.H</text>
</a>
</g>
</g>
<!-- Node56&#45;&gt;Node61 -->
<g id="edge70" class="edge">
<title>Node56&#45;&gt;Node61</title>
<path fill="none" stroke="midnightblue" d="M1845.18,-279.69C1922.77,-267.75 2049.74,-248.09 2071.5,-244 2074.22,-243.49 2077.04,-242.93 2079.86,-242.35"/>
<polygon fill="midnightblue" stroke="midnightblue" points="1844.4,-276.27 1835.05,-281.25 1845.46,-283.18 1844.4,-276.27"/>
</g>
<!-- Node64 -->
<g id="node38" class="node">
<title>Node64</title>
<g id="a_node38"><a xlink:href="_one_eq_ksgs_8_h.html" target="_top" xlink:title=" ">
<polygon fill="white" stroke="red" points="1586.5,-224.5 1586.5,-243.5 1668.5,-243.5 1668.5,-224.5 1586.5,-224.5"/>
<text text-anchor="middle" x="1627.5" y="-231.5" font-family="Helvetica,sans-Serif" font-size="10.00">OneEqKsgs.H</text>
</a>
</g>
</g>
<!-- Node56&#45;&gt;Node64 -->
<g id="edge71" class="edge">
<title>Node56&#45;&gt;Node64</title>
<path fill="none" stroke="midnightblue" d="M1750.11,-277.17C1720.55,-267 1678.63,-252.59 1652.26,-243.52"/>
<polygon fill="midnightblue" stroke="midnightblue" points="1749.03,-280.5 1759.62,-280.44 1751.3,-273.88 1749.03,-280.5"/>
</g>
<!-- Node65 -->
<g id="node39" class="node">
<title>Node65</title>
<g id="a_node39"><a xlink:href="_smagorinsky_8_h.html" target="_top" xlink:title=" ">
<polygon fill="white" stroke="red" points="1687,-224.5 1687,-243.5 1776,-243.5 1776,-224.5 1687,-224.5"/>
<text text-anchor="middle" x="1731.5" y="-231.5" font-family="Helvetica,sans-Serif" font-size="10.00">Smagorinsky.H</text>
</a>
</g>
</g>
<!-- Node56&#45;&gt;Node65 -->
<g id="edge72" class="edge">
<title>Node56&#45;&gt;Node65</title>
<path fill="none" stroke="midnightblue" d="M1768.52,-272.72C1759.18,-263.2 1747.75,-251.56 1740.09,-243.75"/>
<polygon fill="midnightblue" stroke="midnightblue" points="1766.25,-275.4 1775.75,-280.08 1771.24,-270.49 1766.25,-275.4"/>
</g>
<!-- Node67 -->
<g id="node40" class="node">
<title>Node67</title>
<g id="a_node40"><a xlink:href="_k_omega_s_s_t_8_h.html" target="_top" xlink:title=" ">
<polygon fill="white" stroke="red" points="1794.5,-224.5 1794.5,-243.5 1880.5,-243.5 1880.5,-224.5 1794.5,-224.5"/>
<text text-anchor="middle" x="1837.5" y="-231.5" font-family="Helvetica,sans-Serif" font-size="10.00">KOmegaSST.H</text>
</a>
</g>
</g>
<!-- Node56&#45;&gt;Node67 -->
<g id="edge73" class="edge">
<title>Node56&#45;&gt;Node67</title>
<path fill="none" stroke="midnightblue" d="M1800.48,-272.72C1809.82,-263.2 1821.25,-251.56 1828.91,-243.75"/>
<polygon fill="midnightblue" stroke="midnightblue" points="1797.76,-270.49 1793.25,-280.08 1802.75,-275.4 1797.76,-270.49"/>
</g>
<!-- Node78 -->
<g id="node50" class="node">
<title>Node78</title>
<g id="a_node50"><a xlink:href="_turbine_fast_8cpp.html" target="_top" xlink:title=" ">
<polygon fill="white" stroke="black" points="2726.5,-224.5 2726.5,-243.5 2818.5,-243.5 2818.5,-224.5 2726.5,-224.5"/>
<text text-anchor="middle" x="2772.5" y="-231.5" font-family="Helvetica,sans-Serif" font-size="10.00">TurbineFast.cpp</text>
</a>
</g>
</g>
<!-- Node77&#45;&gt;Node78 -->
<g id="edge83" class="edge">
<title>Node77&#45;&gt;Node78</title>
<path fill="none" stroke="midnightblue" d="M2772.5,-269.8C2772.5,-260.91 2772.5,-250.78 2772.5,-243.75"/>
<polygon fill="midnightblue" stroke="midnightblue" points="2769,-270.08 2772.5,-280.08 2776,-270.08 2769,-270.08"/>
</g>
</g>
</svg>
