<?xml version="1.0" encoding="UTF-8" standalone="no"?>
<!DOCTYPE svg PUBLIC "-//W3C//DTD SVG 1.1//EN"
 "http://www.w3.org/Graphics/SVG/1.1/DTD/svg11.dtd">
<!-- Generated by graphviz version 2.43.0 (0)
 -->
<!-- Title: MultiPhase.H Pages: 1 -->
<svg width="2704pt" height="252pt"
 viewBox="0.00 0.00 2703.50 252.00" xmlns="http://www.w3.org/2000/svg" xmlns:xlink="http://www.w3.org/1999/xlink">
<g id="graph0" class="graph" transform="scale(1 1) rotate(0) translate(4 248)">
<title>MultiPhase.H</title>
<polygon fill="white" stroke="transparent" points="-4,4 -4,-248 2699.5,-248 2699.5,4 -4,4"/>
<!-- Node1 -->
<g id="node1" class="node">
<title>Node1</title>
<g id="a_node1"><a xlink:title=" ">
<polygon fill="#bfbfbf" stroke="black" points="1196,-224.5 1196,-243.5 1277,-243.5 1277,-224.5 1196,-224.5"/>
<text text-anchor="middle" x="1236.5" y="-231.5" font-family="Helvetica,sans-Serif" font-size="10.00">MultiPhase.H</text>
</a>
</g>
</g>
<!-- Node2 -->
<g id="node2" class="node">
<title>Node2</title>
<g id="a_node2"><a xlink:href="_a_b_l_forcing_8cpp.html" target="_top" xlink:title=" ">
<polygon fill="white" stroke="black" points="0,-168.5 0,-187.5 91,-187.5 91,-168.5 0,-168.5"/>
<text text-anchor="middle" x="45.5" y="-175.5" font-family="Helvetica,sans-Serif" font-size="10.00">ABLForcing.cpp</text>
</a>
</g>
</g>
<!-- Node1&#45;&gt;Node2 -->
<g id="edge1" class="edge">
<title>Node1&#45;&gt;Node2</title>
<path fill="none" stroke="midnightblue" d="M1185.81,-233.26C1025.82,-233.59 517.5,-230.93 99.5,-188 96.76,-187.72 93.94,-187.39 91.11,-187.02"/>
<polygon fill="midnightblue" stroke="midnightblue" points="1185.84,-236.76 1195.83,-233.23 1185.83,-229.76 1185.84,-236.76"/>
</g>
<!-- Node3 -->
<g id="node3" class="node">
<title>Node3</title>
<g id="a_node3"><a xlink:href="_geostrophic_forcing_8cpp.html" target="_top" xlink:title=" ">
<polygon fill="white" stroke="black" points="109,-168.5 109,-187.5 240,-187.5 240,-168.5 109,-168.5"/>
<text text-anchor="middle" x="174.5" y="-175.5" font-family="Helvetica,sans-Serif" font-size="10.00">GeostrophicForcing.cpp</text>
</a>
</g>
</g>
<!-- Node1&#45;&gt;Node3 -->
<g id="edge2" class="edge">
<title>Node1&#45;&gt;Node3</title>
<path fill="none" stroke="midnightblue" d="M1185.54,-232.04C1039.42,-228.98 606.57,-217.89 248.5,-188 245.79,-187.77 243.03,-187.52 240.24,-187.26"/>
<polygon fill="midnightblue" stroke="midnightblue" points="1185.89,-235.54 1195.96,-232.25 1186.04,-228.55 1185.89,-235.54"/>
</g>
<!-- Node4 -->
<g id="node4" class="node">
<title>Node4</title>
<g id="a_node4"><a xlink:href="levelset__ops_8_h.html" target="_top" xlink:title=" ">
<polygon fill="white" stroke="black" points="258,-168.5 258,-187.5 347,-187.5 347,-168.5 258,-168.5"/>
<text text-anchor="middle" x="302.5" y="-175.5" font-family="Helvetica,sans-Serif" font-size="10.00">levelset_ops.H</text>
</a>
</g>
</g>
<!-- Node1&#45;&gt;Node4 -->
<g id="edge3" class="edge">
<title>Node1&#45;&gt;Node4</title>
<path fill="none" stroke="midnightblue" d="M1185.91,-232.49C1050.74,-230.67 670.04,-222.62 355.5,-188 352.81,-187.7 350.05,-187.36 347.27,-186.98"/>
<polygon fill="midnightblue" stroke="midnightblue" points="1185.93,-235.99 1195.97,-232.62 1186.02,-228.99 1185.93,-235.99"/>
</g>
<!-- Node6 -->
<g id="node6" class="node">
<title>Node6</title>
<g id="a_node6"><a xlink:href="vof__ops_8_h.html" target="_top" xlink:title=" ">
<polygon fill="white" stroke="black" points="365,-168.5 365,-187.5 430,-187.5 430,-168.5 365,-168.5"/>
<text text-anchor="middle" x="397.5" y="-175.5" font-family="Helvetica,sans-Serif" font-size="10.00">vof_ops.H</text>
</a>
</g>
</g>
<!-- Node1&#45;&gt;Node6 -->
<g id="edge5" class="edge">
<title>Node1&#45;&gt;Node6</title>
<path fill="none" stroke="midnightblue" d="M1185.46,-232.85C1058.67,-231.88 719.38,-225.66 439.5,-188 436.54,-187.6 433.49,-187.11 430.43,-186.56"/>
<polygon fill="midnightblue" stroke="midnightblue" points="1185.62,-236.35 1195.65,-232.92 1185.67,-229.35 1185.62,-236.35"/>
</g>
<!-- Node8 -->
<g id="node8" class="node">
<title>Node8</title>
<g id="a_node8"><a xlink:href="_ocean_waves_8cpp.html" target="_top" xlink:title=" ">
<polygon fill="white" stroke="black" points="448.5,-168.5 448.5,-187.5 548.5,-187.5 548.5,-168.5 448.5,-168.5"/>
<text text-anchor="middle" x="498.5" y="-175.5" font-family="Helvetica,sans-Serif" font-size="10.00">OceanWaves.cpp</text>
</a>
</g>
</g>
<!-- Node1&#45;&gt;Node8 -->
<g id="edge7" class="edge">
<title>Node1&#45;&gt;Node8</title>
<path fill="none" stroke="midnightblue" d="M1185.74,-231.12C1072.66,-226.59 791.54,-213.56 557.5,-188 554.62,-187.69 551.66,-187.33 548.67,-186.95"/>
<polygon fill="midnightblue" stroke="midnightblue" points="1185.7,-234.62 1195.83,-231.51 1185.98,-227.62 1185.7,-234.62"/>
</g>
<!-- Node9 -->
<g id="node9" class="node">
<title>Node9</title>
<g id="a_node9"><a xlink:href="hos__waves__ops_8_h.html" target="_top" xlink:title=" ">
<polygon fill="white" stroke="black" points="566.5,-168.5 566.5,-187.5 670.5,-187.5 670.5,-168.5 566.5,-168.5"/>
<text text-anchor="middle" x="618.5" y="-175.5" font-family="Helvetica,sans-Serif" font-size="10.00">hos_waves_ops.H</text>
</a>
</g>
</g>
<!-- Node1&#45;&gt;Node9 -->
<g id="edge8" class="edge">
<title>Node1&#45;&gt;Node9</title>
<path fill="none" stroke="midnightblue" d="M1185.66,-230.02C1087.58,-224.01 865.51,-209.21 679.5,-188 676.63,-187.67 673.68,-187.31 670.71,-186.93"/>
<polygon fill="midnightblue" stroke="midnightblue" points="1185.68,-233.53 1195.88,-230.64 1186.11,-226.54 1185.68,-233.53"/>
</g>
<!-- Node11 -->
<g id="node11" class="node">
<title>Node11</title>
<g id="a_node11"><a xlink:href="linear__waves__ops_8_h.html" target="_top" xlink:title=" ">
<polygon fill="white" stroke="black" points="688.5,-168.5 688.5,-187.5 802.5,-187.5 802.5,-168.5 688.5,-168.5"/>
<text text-anchor="middle" x="745.5" y="-175.5" font-family="Helvetica,sans-Serif" font-size="10.00">linear_waves_ops.H</text>
</a>
</g>
</g>
<!-- Node1&#45;&gt;Node11 -->
<g id="edge10" class="edge">
<title>Node1&#45;&gt;Node11</title>
<path fill="none" stroke="midnightblue" d="M1185.46,-228.1C1105.61,-220.31 946.32,-204.33 811.5,-188 808.63,-187.65 805.69,-187.29 802.72,-186.91"/>
<polygon fill="midnightblue" stroke="midnightblue" points="1185.43,-231.61 1195.72,-229.09 1186.11,-224.64 1185.43,-231.61"/>
</g>
<!-- Node13 -->
<g id="node13" class="node">
<title>Node13</title>
<g id="a_node13"><a xlink:href="relaxation__zones__ops_8cpp.html" target="_top" xlink:title=" ">
<polygon fill="white" stroke="black" points="821,-168.5 821,-187.5 964,-187.5 964,-168.5 821,-168.5"/>
<text text-anchor="middle" x="892.5" y="-175.5" font-family="Helvetica,sans-Serif" font-size="10.00">relaxation_zones_ops.cpp</text>
</a>
</g>
</g>
<!-- Node1&#45;&gt;Node13 -->
<g id="edge12" class="edge">
<title>Node1&#45;&gt;Node13</title>
<path fill="none" stroke="midnightblue" d="M1185.44,-224.98C1121.46,-214.94 1012.3,-197.81 946.83,-187.53"/>
<polygon fill="midnightblue" stroke="midnightblue" points="1185.27,-228.5 1195.69,-226.59 1186.35,-221.58 1185.27,-228.5"/>
</g>
<!-- Node14 -->
<g id="node14" class="node">
<title>Node14</title>
<g id="a_node14"><a xlink:href="stokes__waves__ops_8_h.html" target="_top" xlink:title=" ">
<polygon fill="white" stroke="black" points="982.5,-168.5 982.5,-187.5 1100.5,-187.5 1100.5,-168.5 982.5,-168.5"/>
<text text-anchor="middle" x="1041.5" y="-175.5" font-family="Helvetica,sans-Serif" font-size="10.00">stokes_waves_ops.H</text>
</a>
</g>
</g>
<!-- Node1&#45;&gt;Node14 -->
<g id="edge13" class="edge">
<title>Node1&#45;&gt;Node14</title>
<path fill="none" stroke="midnightblue" d="M1195.69,-221.7C1158.89,-211.51 1105.57,-196.74 1072.25,-187.52"/>
<polygon fill="midnightblue" stroke="midnightblue" points="1195.03,-225.15 1205.6,-224.44 1196.9,-218.4 1195.03,-225.15"/>
</g>
<!-- Node16 -->
<g id="node16" class="node">
<title>Node16</title>
<g id="a_node16"><a xlink:href="waves2amr__ops_8_h.html" target="_top" xlink:title=" ">
<polygon fill="white" stroke="black" points="1119,-168.5 1119,-187.5 1226,-187.5 1226,-168.5 1119,-168.5"/>
<text text-anchor="middle" x="1172.5" y="-175.5" font-family="Helvetica,sans-Serif" font-size="10.00">waves2amr_ops.H</text>
</a>
</g>
</g>
<!-- Node1&#45;&gt;Node16 -->
<g id="edge15" class="edge">
<title>Node1&#45;&gt;Node16</title>
<path fill="none" stroke="midnightblue" d="M1218.51,-217.82C1207.04,-208.15 1192.59,-195.95 1182.97,-187.83"/>
<polygon fill="midnightblue" stroke="midnightblue" points="1216.32,-220.55 1226.22,-224.32 1220.83,-215.2 1216.32,-220.55"/>
</g>
<!-- Node18 -->
<g id="node18" class="node">
<title>Node18</title>
<g id="a_node18"><a xlink:href="_breaking_waves_8cpp.html" target="_top" xlink:title=" ">
<polygon fill="white" stroke="black" points="1244,-168.5 1244,-187.5 1357,-187.5 1357,-168.5 1244,-168.5"/>
<text text-anchor="middle" x="1300.5" y="-175.5" font-family="Helvetica,sans-Serif" font-size="10.00">BreakingWaves.cpp</text>
</a>
</g>
</g>
<!-- Node1&#45;&gt;Node18 -->
<g id="edge17" class="edge">
<title>Node1&#45;&gt;Node18</title>
<path fill="none" stroke="midnightblue" d="M1254.49,-217.82C1265.96,-208.15 1280.41,-195.95 1290.03,-187.83"/>
<polygon fill="midnightblue" stroke="midnightblue" points="1252.17,-215.2 1246.78,-224.32 1256.68,-220.55 1252.17,-215.2"/>
</g>
<!-- Node19 -->
<g id="node19" class="node">
<title>Node19</title>
<g id="a_node19"><a xlink:href="_dam_break_8cpp.html" target="_top" xlink:title=" ">
<polygon fill="white" stroke="black" points="1375,-168.5 1375,-187.5 1464,-187.5 1464,-168.5 1375,-168.5"/>
<text text-anchor="middle" x="1419.5" y="-175.5" font-family="Helvetica,sans-Serif" font-size="10.00">DamBreak.cpp</text>
</a>
</g>
</g>
<!-- Node1&#45;&gt;Node19 -->
<g id="edge18" class="edge">
<title>Node1&#45;&gt;Node19</title>
<path fill="none" stroke="midnightblue" d="M1275.24,-221.57C1309.76,-211.38 1359.51,-196.7 1390.64,-187.52"/>
<polygon fill="midnightblue" stroke="midnightblue" points="1274.1,-218.26 1265.5,-224.44 1276.08,-224.97 1274.1,-218.26"/>
</g>
<!-- Node20 -->
<g id="node20" class="node">
<title>Node20</title>
<g id="a_node20"><a xlink:href="_multi_phase_8cpp.html" target="_top" xlink:title=" ">
<polygon fill="white" stroke="black" points="1482,-168.5 1482,-187.5 1573,-187.5 1573,-168.5 1482,-168.5"/>
<text text-anchor="middle" x="1527.5" y="-175.5" font-family="Helvetica,sans-Serif" font-size="10.00">MultiPhase.cpp</text>
</a>
</g>
</g>
<!-- Node1&#45;&gt;Node20 -->
<g id="edge19" class="edge">
<title>Node1&#45;&gt;Node20</title>
<path fill="none" stroke="midnightblue" d="M1287.13,-223.6C1342.02,-213.42 1428.83,-197.31 1481.74,-187.49"/>
<polygon fill="midnightblue" stroke="midnightblue" points="1286.46,-220.17 1277.27,-225.43 1287.74,-227.05 1286.46,-220.17"/>
</g>
<!-- Node21 -->
<g id="node21" class="node">
<title>Node21</title>
<g id="a_node21"><a xlink:href="_rain_drop_8cpp.html" target="_top" xlink:title=" ">
<polygon fill="white" stroke="black" points="1591.5,-168.5 1591.5,-187.5 1673.5,-187.5 1673.5,-168.5 1591.5,-168.5"/>
<text text-anchor="middle" x="1632.5" y="-175.5" font-family="Helvetica,sans-Serif" font-size="10.00">RainDrop.cpp</text>
</a>
</g>
</g>
<!-- Node1&#45;&gt;Node21 -->
<g id="edge20" class="edge">
<title>Node1&#45;&gt;Node21</title>
<path fill="none" stroke="midnightblue" d="M1287.55,-227.07C1354.98,-219.07 1477.36,-203.97 1581.5,-188 1584.7,-187.51 1588.01,-186.98 1591.33,-186.43"/>
<polygon fill="midnightblue" stroke="midnightblue" points="1286.73,-223.64 1277.21,-228.29 1287.55,-230.59 1286.73,-223.64"/>
</g>
<!-- Node22 -->
<g id="node22" class="node">
<title>Node22</title>
<g id="a_node22"><a xlink:href="_vortex_patch_8cpp.html" target="_top" xlink:title=" ">
<polygon fill="white" stroke="black" points="1692,-168.5 1692,-187.5 1787,-187.5 1787,-168.5 1692,-168.5"/>
<text text-anchor="middle" x="1739.5" y="-175.5" font-family="Helvetica,sans-Serif" font-size="10.00">VortexPatch.cpp</text>
</a>
</g>
</g>
<!-- Node1&#45;&gt;Node22 -->
<g id="edge21" class="edge">
<title>Node1&#45;&gt;Node22</title>
<path fill="none" stroke="midnightblue" d="M1287.33,-228.81C1370.23,-221.75 1539.65,-206.47 1682.5,-188 1685.58,-187.6 1688.75,-187.17 1691.94,-186.71"/>
<polygon fill="midnightblue" stroke="midnightblue" points="1286.84,-225.33 1277.17,-229.66 1287.43,-232.31 1286.84,-225.33"/>
</g>
<!-- Node23 -->
<g id="node23" class="node">
<title>Node23</title>
<g id="a_node23"><a xlink:href="_vortex_patch_scalar_vel_8cpp.html" target="_top" xlink:title=" ">
<polygon fill="white" stroke="black" points="1805.5,-168.5 1805.5,-187.5 1945.5,-187.5 1945.5,-168.5 1805.5,-168.5"/>
<text text-anchor="middle" x="1875.5" y="-175.5" font-family="Helvetica,sans-Serif" font-size="10.00">VortexPatchScalarVel.cpp</text>
</a>
</g>
</g>
<!-- Node1&#45;&gt;Node23 -->
<g id="edge22" class="edge">
<title>Node1&#45;&gt;Node23</title>
<path fill="none" stroke="midnightblue" d="M1287.46,-229.44C1385.79,-222.45 1608.49,-206.04 1795.5,-188 1798.7,-187.69 1801.97,-187.37 1805.27,-187.03"/>
<polygon fill="midnightblue" stroke="midnightblue" points="1286.95,-225.97 1277.22,-230.17 1287.44,-232.95 1286.95,-225.97"/>
</g>
<!-- Node24 -->
<g id="node24" class="node">
<title>Node24</title>
<g id="a_node24"><a xlink:href="_zalesak_disk_8cpp.html" target="_top" xlink:title=" ">
<polygon fill="white" stroke="black" points="1963.5,-168.5 1963.5,-187.5 2061.5,-187.5 2061.5,-168.5 1963.5,-168.5"/>
<text text-anchor="middle" x="2012.5" y="-175.5" font-family="Helvetica,sans-Serif" font-size="10.00">ZalesakDisk.cpp</text>
</a>
</g>
</g>
<!-- Node1&#45;&gt;Node24 -->
<g id="edge23" class="edge">
<title>Node1&#45;&gt;Node24</title>
<path fill="none" stroke="midnightblue" d="M1287.24,-231.41C1404.83,-227.39 1705.01,-215.12 1954.5,-188 1957.44,-187.68 1960.45,-187.32 1963.49,-186.93"/>
<polygon fill="midnightblue" stroke="midnightblue" points="1286.97,-227.92 1277.1,-231.76 1287.21,-234.92 1286.97,-227.92"/>
</g>
<!-- Node25 -->
<g id="node25" class="node">
<title>Node25</title>
<g id="a_node25"><a xlink:href="_zalesak_disk_scalar_vel_8cpp.html" target="_top" xlink:title=" ">
<polygon fill="white" stroke="black" points="2080,-168.5 2080,-187.5 2223,-187.5 2223,-168.5 2080,-168.5"/>
<text text-anchor="middle" x="2151.5" y="-175.5" font-family="Helvetica,sans-Serif" font-size="10.00">ZalesakDiskScalarVel.cpp</text>
</a>
</g>
</g>
<!-- Node1&#45;&gt;Node25 -->
<g id="edge24" class="edge">
<title>Node1&#45;&gt;Node25</title>
<path fill="none" stroke="midnightblue" d="M1287.43,-231.26C1417.84,-226.58 1774.32,-212.42 2070.5,-188 2073.6,-187.74 2076.77,-187.47 2079.97,-187.17"/>
<polygon fill="midnightblue" stroke="midnightblue" points="1287.21,-227.76 1277.34,-231.62 1287.46,-234.76 1287.21,-227.76"/>
</g>
<!-- Node26 -->
<g id="node26" class="node">
<title>Node26</title>
<g id="a_node26"><a xlink:href="_two_phase_transport_8_h.html" target="_top" xlink:title=" ">
<polygon fill="white" stroke="black" points="2241.5,-168.5 2241.5,-187.5 2361.5,-187.5 2361.5,-168.5 2241.5,-168.5"/>
<text text-anchor="middle" x="2301.5" y="-175.5" font-family="Helvetica,sans-Serif" font-size="10.00">TwoPhaseTransport.H</text>
</a>
</g>
</g>
<!-- Node1&#45;&gt;Node26 -->
<g id="edge25" class="edge">
<title>Node1&#45;&gt;Node26</title>
<path fill="none" stroke="midnightblue" d="M1287.39,-232.18C1434.14,-229.51 1870.64,-219.3 2231.5,-188 2234.67,-187.72 2237.92,-187.41 2241.21,-187.07"/>
<polygon fill="midnightblue" stroke="midnightblue" points="1287.27,-228.68 1277.33,-232.36 1287.39,-235.68 1287.27,-228.68"/>
</g>
<!-- Node37 -->
<g id="node37" class="node">
<title>Node37</title>
<g id="a_node37"><a xlink:href="_wave_energy_8cpp.html" target="_top" xlink:title=" ">
<polygon fill="white" stroke="black" points="2379.5,-168.5 2379.5,-187.5 2475.5,-187.5 2475.5,-168.5 2379.5,-168.5"/>
<text text-anchor="middle" x="2427.5" y="-175.5" font-family="Helvetica,sans-Serif" font-size="10.00">WaveEnergy.cpp</text>
</a>
</g>
</g>
<!-- Node1&#45;&gt;Node37 -->
<g id="edge38" class="edge">
<title>Node1&#45;&gt;Node37</title>
<path fill="none" stroke="midnightblue" d="M1287.52,-233.1C1447.57,-232.95 1953.84,-229.02 2370.5,-188 2373.39,-187.72 2376.36,-187.38 2379.35,-187.01"/>
<polygon fill="midnightblue" stroke="midnightblue" points="1287.04,-229.6 1277.05,-233.1 1287.05,-236.6 1287.04,-229.6"/>
</g>
<!-- Node5 -->
<g id="node5" class="node">
<title>Node5</title>
<g id="a_node5"><a xlink:href="levelset_8cpp.html" target="_top" xlink:title=" ">
<polygon fill="white" stroke="black" points="264.5,-112.5 264.5,-131.5 340.5,-131.5 340.5,-112.5 264.5,-112.5"/>
<text text-anchor="middle" x="302.5" y="-119.5" font-family="Helvetica,sans-Serif" font-size="10.00">levelset.cpp</text>
</a>
</g>
</g>
<!-- Node4&#45;&gt;Node5 -->
<g id="edge4" class="edge">
<title>Node4&#45;&gt;Node5</title>
<path fill="none" stroke="midnightblue" d="M302.5,-157.8C302.5,-148.91 302.5,-138.78 302.5,-131.75"/>
<polygon fill="midnightblue" stroke="midnightblue" points="299,-158.08 302.5,-168.08 306,-158.08 299,-158.08"/>
</g>
<!-- Node7 -->
<g id="node7" class="node">
<title>Node7</title>
<g id="a_node7"><a xlink:href="vof_8cpp.html" target="_top" xlink:title=" ">
<polygon fill="white" stroke="black" points="371.5,-112.5 371.5,-131.5 423.5,-131.5 423.5,-112.5 371.5,-112.5"/>
<text text-anchor="middle" x="397.5" y="-119.5" font-family="Helvetica,sans-Serif" font-size="10.00">vof.cpp</text>
</a>
</g>
</g>
<!-- Node6&#45;&gt;Node7 -->
<g id="edge6" class="edge">
<title>Node6&#45;&gt;Node7</title>
<path fill="none" stroke="midnightblue" d="M397.5,-157.8C397.5,-148.91 397.5,-138.78 397.5,-131.75"/>
<polygon fill="midnightblue" stroke="midnightblue" points="394,-158.08 397.5,-168.08 401,-158.08 394,-158.08"/>
</g>
<!-- Node10 -->
<g id="node10" class="node">
<title>Node10</title>
<g id="a_node10"><a xlink:href="_h_o_s_waves_8cpp.html" target="_top" xlink:title=" ">
<polygon fill="white" stroke="black" points="573.5,-112.5 573.5,-131.5 663.5,-131.5 663.5,-112.5 573.5,-112.5"/>
<text text-anchor="middle" x="618.5" y="-119.5" font-family="Helvetica,sans-Serif" font-size="10.00">HOSWaves.cpp</text>
</a>
</g>
</g>
<!-- Node9&#45;&gt;Node10 -->
<g id="edge9" class="edge">
<title>Node9&#45;&gt;Node10</title>
<path fill="none" stroke="midnightblue" d="M618.5,-157.8C618.5,-148.91 618.5,-138.78 618.5,-131.75"/>
<polygon fill="midnightblue" stroke="midnightblue" points="615,-158.08 618.5,-168.08 622,-158.08 615,-158.08"/>
</g>
<!-- Node12 -->
<g id="node12" class="node">
<title>Node12</title>
<g id="a_node12"><a xlink:href="_linear_waves_8cpp.html" target="_top" xlink:title=" ">
<polygon fill="white" stroke="black" points="696,-112.5 696,-131.5 795,-131.5 795,-112.5 696,-112.5"/>
<text text-anchor="middle" x="745.5" y="-119.5" font-family="Helvetica,sans-Serif" font-size="10.00">LinearWaves.cpp</text>
</a>
</g>
</g>
<!-- Node11&#45;&gt;Node12 -->
<g id="edge11" class="edge">
<title>Node11&#45;&gt;Node12</title>
<path fill="none" stroke="midnightblue" d="M745.5,-157.8C745.5,-148.91 745.5,-138.78 745.5,-131.75"/>
<polygon fill="midnightblue" stroke="midnightblue" points="742,-158.08 745.5,-168.08 749,-158.08 742,-158.08"/>
</g>
<!-- Node15 -->
<g id="node15" class="node">
<title>Node15</title>
<g id="a_node15"><a xlink:href="_stokes_waves_8cpp.html" target="_top" xlink:title=" ">
<polygon fill="white" stroke="black" points="991,-112.5 991,-131.5 1092,-131.5 1092,-112.5 991,-112.5"/>
<text text-anchor="middle" x="1041.5" y="-119.5" font-family="Helvetica,sans-Serif" font-size="10.00">StokesWaves.cpp</text>
</a>
</g>
</g>
<!-- Node14&#45;&gt;Node15 -->
<g id="edge14" class="edge">
<title>Node14&#45;&gt;Node15</title>
<path fill="none" stroke="midnightblue" d="M1041.5,-157.8C1041.5,-148.91 1041.5,-138.78 1041.5,-131.75"/>
<polygon fill="midnightblue" stroke="midnightblue" points="1038,-158.08 1041.5,-168.08 1045,-158.08 1038,-158.08"/>
</g>
<!-- Node17 -->
<g id="node17" class="node">
<title>Node17</title>
<g id="a_node17"><a xlink:href="_w2_a_waves_8cpp.html" target="_top" xlink:title=" ">
<polygon fill="white" stroke="black" points="1127,-112.5 1127,-131.5 1218,-131.5 1218,-112.5 1127,-112.5"/>
<text text-anchor="middle" x="1172.5" y="-119.5" font-family="Helvetica,sans-Serif" font-size="10.00">W2AWaves.cpp</text>
</a>
</g>
</g>
<!-- Node16&#45;&gt;Node17 -->
<g id="edge16" class="edge">
<title>Node16&#45;&gt;Node17</title>
<path fill="none" stroke="midnightblue" d="M1172.5,-157.8C1172.5,-148.91 1172.5,-138.78 1172.5,-131.75"/>
<polygon fill="midnightblue" stroke="midnightblue" points="1169,-158.08 1172.5,-168.08 1176,-158.08 1169,-158.08"/>
</g>
<!-- Node27 -->
<g id="node27" class="node">
<title>Node27</title>
<g id="a_node27"><a xlink:href="_turb_model_defs_8_h.html" target="_top" xlink:title=" ">
<polygon fill="white" stroke="black" points="2251.5,-112.5 2251.5,-131.5 2351.5,-131.5 2351.5,-112.5 2251.5,-112.5"/>
<text text-anchor="middle" x="2301.5" y="-119.5" font-family="Helvetica,sans-Serif" font-size="10.00">TurbModelDefs.H</text>
</a>
</g>
</g>
<!-- Node26&#45;&gt;Node27 -->
<g id="edge26" class="edge">
<title>Node26&#45;&gt;Node27</title>
<path fill="none" stroke="midnightblue" d="M2301.5,-157.8C2301.5,-148.91 2301.5,-138.78 2301.5,-131.75"/>
<polygon fill="midnightblue" stroke="midnightblue" points="2298,-158.08 2301.5,-168.08 2305,-158.08 2298,-158.08"/>
</g>
<!-- Node28 -->
<g id="node28" class="node">
<title>Node28</title>
<g id="a_node28"><a xlink:href="_laminar_model_8cpp.html" target="_top" xlink:title=" ">
<polygon fill="white" stroke="black" points="1836,-56.5 1836,-75.5 1943,-75.5 1943,-56.5 1836,-56.5"/>
<text text-anchor="middle" x="1889.5" y="-63.5" font-family="Helvetica,sans-Serif" font-size="10.00">LaminarModel.cpp</text>
</a>
</g>
</g>
<!-- Node27&#45;&gt;Node28 -->
<g id="edge27" class="edge">
<title>Node27&#45;&gt;Node28</title>
<path fill="none" stroke="midnightblue" d="M2241.15,-113.47C2171.55,-104.73 2053.7,-89.75 1952.5,-76 1949.43,-75.58 1946.29,-75.15 1943.11,-74.71"/>
<polygon fill="midnightblue" stroke="midnightblue" points="2241.12,-117 2251.48,-114.77 2241.99,-110.05 2241.12,-117"/>
</g>
<!-- Node29 -->
<g id="node29" class="node">
<title>Node29</title>
<g id="a_node29"><a xlink:href="_a_m_d_8cpp.html" target="_top" xlink:title=" ">
<polygon fill="white" stroke="black" points="1961.5,-56.5 1961.5,-75.5 2021.5,-75.5 2021.5,-56.5 1961.5,-56.5"/>
<text text-anchor="middle" x="1991.5" y="-63.5" font-family="Helvetica,sans-Serif" font-size="10.00">AMD.cpp</text>
</a>
</g>
</g>
<!-- Node27&#45;&gt;Node29 -->
<g id="edge28" class="edge">
<title>Node27&#45;&gt;Node29</title>
<path fill="none" stroke="midnightblue" d="M2241.45,-112.13C2186.4,-103.73 2102.73,-90.32 2030.5,-76 2027.64,-75.43 2024.66,-74.81 2021.69,-74.16"/>
<polygon fill="midnightblue" stroke="midnightblue" points="2240.97,-115.59 2251.38,-113.63 2242.02,-108.67 2240.97,-115.59"/>
</g>
<!-- Node30 -->
<g id="node30" class="node">
<title>Node30</title>
<g id="a_node30"><a xlink:href="_a_m_d_no_therm_8cpp.html" target="_top" xlink:title=" ">
<polygon fill="white" stroke="black" points="2040,-56.5 2040,-75.5 2145,-75.5 2145,-56.5 2040,-56.5"/>
<text text-anchor="middle" x="2092.5" y="-63.5" font-family="Helvetica,sans-Serif" font-size="10.00">AMDNoTherm.cpp</text>
</a>
</g>
</g>
<!-- Node27&#45;&gt;Node30 -->
<g id="edge29" class="edge">
<title>Node27&#45;&gt;Node30</title>
<path fill="none" stroke="midnightblue" d="M2258.52,-109.89C2219.05,-99.7 2161.4,-84.8 2125.46,-75.52"/>
<polygon fill="midnightblue" stroke="midnightblue" points="2257.83,-113.33 2268.38,-112.44 2259.58,-106.55 2257.83,-113.33"/>
</g>
<!-- Node31 -->
<g id="node31" class="node">
<title>Node31</title>
<g id="a_node31"><a xlink:href="_kosovic_8cpp.html" target="_top" xlink:title=" ">
<polygon fill="white" stroke="black" points="2163.5,-56.5 2163.5,-75.5 2237.5,-75.5 2237.5,-56.5 2163.5,-56.5"/>
<text text-anchor="middle" x="2200.5" y="-63.5" font-family="Helvetica,sans-Serif" font-size="10.00">Kosovic.cpp</text>
</a>
</g>
</g>
<!-- Node27&#45;&gt;Node31 -->
<g id="edge30" class="edge">
<title>Node27&#45;&gt;Node31</title>
<path fill="none" stroke="midnightblue" d="M2276.42,-107.59C2257.74,-97.61 2232.8,-84.27 2216.69,-75.65"/>
<polygon fill="midnightblue" stroke="midnightblue" points="2274.8,-110.7 2285.27,-112.32 2278.1,-104.52 2274.8,-110.7"/>
</g>
<!-- Node32 -->
<g id="node32" class="node">
<title>Node32</title>
<g id="a_node32"><a xlink:href="_one_eq_ksgs_8cpp.html" target="_top" xlink:title=" ">
<polygon fill="white" stroke="black" points="2255.5,-56.5 2255.5,-75.5 2347.5,-75.5 2347.5,-56.5 2255.5,-56.5"/>
<text text-anchor="middle" x="2301.5" y="-63.5" font-family="Helvetica,sans-Serif" font-size="10.00">OneEqKsgs.cpp</text>
</a>
</g>
</g>
<!-- Node27&#45;&gt;Node32 -->
<g id="edge31" class="edge">
<title>Node27&#45;&gt;Node32</title>
<path fill="none" stroke="midnightblue" d="M2301.5,-101.8C2301.5,-92.91 2301.5,-82.78 2301.5,-75.75"/>
<polygon fill="midnightblue" stroke="midnightblue" points="2298,-102.08 2301.5,-112.08 2305,-102.08 2298,-102.08"/>
</g>
<!-- Node33 -->
<g id="node33" class="node">
<title>Node33</title>
<g id="a_node33"><a xlink:href="_smagorinsky_8cpp.html" target="_top" xlink:title=" ">
<polygon fill="white" stroke="black" points="2365.5,-56.5 2365.5,-75.5 2463.5,-75.5 2463.5,-56.5 2365.5,-56.5"/>
<text text-anchor="middle" x="2414.5" y="-63.5" font-family="Helvetica,sans-Serif" font-size="10.00">Smagorinsky.cpp</text>
</a>
</g>
</g>
<!-- Node27&#45;&gt;Node33 -->
<g id="edge32" class="edge">
<title>Node27&#45;&gt;Node33</title>
<path fill="none" stroke="midnightblue" d="M2328.5,-108.1C2349.61,-98.01 2378.36,-84.27 2396.68,-75.52"/>
<polygon fill="midnightblue" stroke="midnightblue" points="2326.92,-104.97 2319.41,-112.44 2329.94,-111.29 2326.92,-104.97"/>
</g>
<!-- Node34 -->
<g id="node34" class="node">
<title>Node34</title>
<g id="a_node34"><a xlink:href="_k_omega_s_s_t_8cpp.html" target="_top" xlink:title=" ">
<polygon fill="white" stroke="black" points="2452,-0.5 2452,-19.5 2547,-19.5 2547,-0.5 2452,-0.5"/>
<text text-anchor="middle" x="2499.5" y="-7.5" font-family="Helvetica,sans-Serif" font-size="10.00">KOmegaSST.cpp</text>
</a>
</g>
</g>
<!-- Node27&#45;&gt;Node34 -->
<g id="edge33" class="edge">
<title>Node27&#45;&gt;Node34</title>
<path fill="none" stroke="midnightblue" d="M2361.89,-118.25C2397.78,-113.68 2442.07,-102.54 2472.5,-76 2489.63,-61.06 2496.12,-33.52 2498.39,-19.57"/>
<polygon fill="midnightblue" stroke="midnightblue" points="2361.08,-114.82 2351.53,-119.42 2361.86,-121.78 2361.08,-114.82"/>
</g>
<!-- Node35 -->
<g id="node35" class="node">
<title>Node35</title>
<g id="a_node35"><a xlink:href="_k_omega_s_s_t_i_8_h.html" target="_top" xlink:title=" ">
<polygon fill="white" stroke="black" points="2520,-56.5 2520,-75.5 2609,-75.5 2609,-56.5 2520,-56.5"/>
<text text-anchor="middle" x="2564.5" y="-63.5" font-family="Helvetica,sans-Serif" font-size="10.00">KOmegaSSTI.H</text>
</a>
</g>
</g>
<!-- Node27&#45;&gt;Node35 -->
<g id="edge34" class="edge">
<title>Node27&#45;&gt;Node35</title>
<path fill="none" stroke="midnightblue" d="M2353.08,-110.41C2402.78,-100.2 2477.03,-84.96 2523.02,-75.52"/>
<polygon fill="midnightblue" stroke="midnightblue" points="2352.26,-107 2343.17,-112.44 2353.67,-113.86 2352.26,-107"/>
</g>
<!-- Node36 -->
<g id="node36" class="node">
<title>Node36</title>
<g id="a_node36"><a xlink:href="_k_omega_s_s_t_i_d_d_e_s_8cpp.html" target="_top" xlink:title=" ">
<polygon fill="white" stroke="black" points="2569.5,-0.5 2569.5,-19.5 2695.5,-19.5 2695.5,-0.5 2569.5,-0.5"/>
<text text-anchor="middle" x="2632.5" y="-7.5" font-family="Helvetica,sans-Serif" font-size="10.00">KOmegaSSTIDDES.cpp</text>
</a>
</g>
</g>
<!-- Node27&#45;&gt;Node36 -->
<g id="edge37" class="edge">
<title>Node27&#45;&gt;Node36</title>
<path fill="none" stroke="midnightblue" d="M2361.66,-120.3C2442.76,-118.07 2581.19,-109.33 2617.5,-76 2633.37,-61.43 2634.1,-33.72 2633.31,-19.65"/>
<polygon fill="midnightblue" stroke="midnightblue" points="2361.49,-116.8 2351.58,-120.55 2361.67,-123.8 2361.49,-116.8"/>
</g>
<!-- Node35&#45;&gt;Node34 -->
<g id="edge35" class="edge">
<title>Node35&#45;&gt;Node34</title>
<path fill="none" stroke="midnightblue" d="M2546.23,-49.82C2534.58,-40.15 2519.9,-27.95 2510.13,-19.83"/>
<polygon fill="midnightblue" stroke="midnightblue" points="2544.13,-52.63 2554.06,-56.32 2548.6,-47.24 2544.13,-52.63"/>
</g>
<!-- Node35&#45;&gt;Node36 -->
<g id="edge36" class="edge">
<title>Node35&#45;&gt;Node36</title>
<path fill="none" stroke="midnightblue" d="M2583.26,-50.1C2595.5,-40.38 2611.06,-28.03 2621.38,-19.83"/>
<polygon fill="midnightblue" stroke="midnightblue" points="2581.08,-47.36 2575.43,-56.32 2585.43,-52.85 2581.08,-47.36"/>
</g>
</g>
</svg>
