<?xml version="1.0" encoding="UTF-8" standalone="no"?>
<!DOCTYPE svg PUBLIC "-//W3C//DTD SVG 1.1//EN"
 "http://www.w3.org/Graphics/SVG/1.1/DTD/svg11.dtd">
<!-- Generated by graphviz version 2.43.0 (0)
 -->
<!-- Title: MultiParser.H Pages: 1 -->
<svg width="2368pt" height="420pt"
 viewBox="0.00 0.00 2368.00 420.00" xmlns="http://www.w3.org/2000/svg" xmlns:xlink="http://www.w3.org/1999/xlink">
<g id="graph0" class="graph" transform="scale(1 1) rotate(0) translate(4 416)">
<title>MultiParser.H</title>
<polygon fill="white" stroke="transparent" points="-4,4 -4,-416 2364,-416 2364,4 -4,4"/>
<!-- Node1 -->
<g id="node1" class="node">
<title>Node1</title>
<g id="a_node1"><a xlink:title=" ">
<polygon fill="#bfbfbf" stroke="black" points="515.5,-392.5 515.5,-411.5 596.5,-411.5 596.5,-392.5 515.5,-392.5"/>
<text text-anchor="middle" x="556" y="-399.5" font-family="Helvetica,sans-Serif" font-size="10.00">MultiParser.H</text>
</a>
</g>
</g>
<!-- Node2 -->
<g id="node2" class="node">
<title>Node2</title>
<g id="a_node2"><a xlink:href="bluff__body__ops_8cpp.html" target="_top" xlink:title=" ">
<polygon fill="white" stroke="black" points="0,-280.5 0,-299.5 110,-299.5 110,-280.5 0,-280.5"/>
<text text-anchor="middle" x="55" y="-287.5" font-family="Helvetica,sans-Serif" font-size="10.00">bluff_body_ops.cpp</text>
</a>
</g>
</g>
<!-- Node1&#45;&gt;Node2 -->
<g id="edge1" class="edge">
<title>Node1&#45;&gt;Node2</title>
<path fill="none" stroke="midnightblue" d="M504.98,-398.38C437.44,-394 315.1,-382.83 214,-356 160.1,-341.69 100.1,-313.6 71.68,-299.5"/>
<polygon fill="midnightblue" stroke="midnightblue" points="505.13,-401.9 515.33,-399.03 505.57,-394.92 505.13,-401.9"/>
</g>
<!-- Node3 -->
<g id="node3" class="node">
<title>Node3</title>
<g id="a_node3"><a xlink:href="bluff__body__ops_8_h.html" target="_top" xlink:title=" ">
<polygon fill="white" stroke="black" points="223.5,-336.5 223.5,-355.5 324.5,-355.5 324.5,-336.5 223.5,-336.5"/>
<text text-anchor="middle" x="274" y="-343.5" font-family="Helvetica,sans-Serif" font-size="10.00">bluff_body_ops.H</text>
</a>
</g>
</g>
<!-- Node1&#45;&gt;Node3 -->
<g id="edge2" class="edge">
<title>Node1&#45;&gt;Node3</title>
<path fill="none" stroke="midnightblue" d="M505.39,-391.31C452.15,-381.11 369.19,-365.23 318.41,-355.5"/>
<polygon fill="midnightblue" stroke="midnightblue" points="504.82,-394.76 515.3,-393.21 506.13,-387.89 504.82,-394.76"/>
</g>
<!-- Node10 -->
<g id="node10" class="node">
<title>Node10</title>
<g id="a_node10"><a xlink:href="_i_b_8cpp.html" target="_top" xlink:title=" ">
<polygon fill="white" stroke="black" points="475.5,-224.5 475.5,-243.5 522.5,-243.5 522.5,-224.5 475.5,-224.5"/>
<text text-anchor="middle" x="499" y="-231.5" font-family="Helvetica,sans-Serif" font-size="10.00">IB.cpp</text>
</a>
</g>
</g>
<!-- Node1&#45;&gt;Node10 -->
<g id="edge10" class="edge">
<title>Node1&#45;&gt;Node10</title>
<path fill="none" stroke="midnightblue" d="M549.61,-382.39C537.32,-346.59 510.79,-269.34 501.94,-243.57"/>
<polygon fill="midnightblue" stroke="midnightblue" points="546.38,-383.75 552.94,-392.08 553,-381.48 546.38,-383.75"/>
</g>
<!-- Node11 -->
<g id="node11" class="node">
<title>Node11</title>
<g id="a_node11"><a xlink:href="_i_b_model_8_h.html" target="_top" xlink:title=" ">
<polygon fill="white" stroke="black" points="336.5,-280.5 336.5,-299.5 403.5,-299.5 403.5,-280.5 336.5,-280.5"/>
<text text-anchor="middle" x="370" y="-287.5" font-family="Helvetica,sans-Serif" font-size="10.00">IBModel.H</text>
</a>
</g>
</g>
<!-- Node1&#45;&gt;Node11 -->
<g id="edge11" class="edge">
<title>Node1&#45;&gt;Node11</title>
<path fill="none" stroke="midnightblue" d="M532.34,-387.01C493.3,-363.92 416.52,-318.51 384.53,-299.59"/>
<polygon fill="midnightblue" stroke="midnightblue" points="531.02,-390.29 541.4,-392.37 534.58,-384.27 531.02,-390.29"/>
</g>
<!-- Node12 -->
<g id="node12" class="node">
<title>Node12</title>
<g id="a_node12"><a xlink:href="_ocean_waves_8cpp.html" target="_top" xlink:title=" ">
<polygon fill="white" stroke="black" points="579,-224.5 579,-243.5 679,-243.5 679,-224.5 579,-224.5"/>
<text text-anchor="middle" x="629" y="-231.5" font-family="Helvetica,sans-Serif" font-size="10.00">OceanWaves.cpp</text>
</a>
</g>
</g>
<!-- Node1&#45;&gt;Node12 -->
<g id="edge16" class="edge">
<title>Node1&#45;&gt;Node12</title>
<path fill="none" stroke="midnightblue" d="M554.99,-382.15C554.5,-357.15 556.62,-312.41 575,-280 584.03,-264.08 601.02,-251.36 613.54,-243.57"/>
<polygon fill="midnightblue" stroke="midnightblue" points="551.5,-382.55 555.37,-392.42 558.5,-382.3 551.5,-382.55"/>
</g>
<!-- Node13 -->
<g id="node13" class="node">
<title>Node13</title>
<g id="a_node13"><a xlink:href="_ocean_waves_model_8_h.html" target="_top" xlink:title=" ">
<polygon fill="white" stroke="black" points="1014,-280.5 1014,-299.5 1134,-299.5 1134,-280.5 1014,-280.5"/>
<text text-anchor="middle" x="1074" y="-287.5" font-family="Helvetica,sans-Serif" font-size="10.00">OceanWavesModel.H</text>
</a>
</g>
</g>
<!-- Node1&#45;&gt;Node13 -->
<g id="edge17" class="edge">
<title>Node1&#45;&gt;Node13</title>
<path fill="none" stroke="midnightblue" d="M606.59,-399.27C678.01,-395.82 811.97,-385.65 922,-356 973.82,-342.04 1031.04,-313.79 1058.12,-299.58"/>
<polygon fill="midnightblue" stroke="midnightblue" points="606.34,-395.78 596.51,-399.73 606.66,-402.77 606.34,-395.78"/>
</g>
<!-- Node18 -->
<g id="node18" class="node">
<title>Node18</title>
<g id="a_node18"><a xlink:href="relaxation__zones__ops_8cpp.html" target="_top" xlink:title=" ">
<polygon fill="white" stroke="black" points="584.5,-280.5 584.5,-299.5 727.5,-299.5 727.5,-280.5 584.5,-280.5"/>
<text text-anchor="middle" x="656" y="-287.5" font-family="Helvetica,sans-Serif" font-size="10.00">relaxation_zones_ops.cpp</text>
</a>
</g>
</g>
<!-- Node1&#45;&gt;Node18 -->
<g id="edge23" class="edge">
<title>Node1&#45;&gt;Node18</title>
<path fill="none" stroke="midnightblue" d="M570.64,-384.9C592.14,-361.25 631.5,-317.95 648.19,-299.59"/>
<polygon fill="midnightblue" stroke="midnightblue" points="567.98,-382.61 563.85,-392.37 573.16,-387.32 567.98,-382.61"/>
</g>
<!-- Node19 -->
<g id="node19" class="node">
<title>Node19</title>
<g id="a_node19"><a xlink:href="relaxation__zones__ops_8_h.html" target="_top" xlink:title=" ">
<polygon fill="white" stroke="black" points="780.5,-336.5 780.5,-355.5 913.5,-355.5 913.5,-336.5 780.5,-336.5"/>
<text text-anchor="middle" x="847" y="-343.5" font-family="Helvetica,sans-Serif" font-size="10.00">relaxation_zones_ops.H</text>
</a>
</g>
</g>
<!-- Node1&#45;&gt;Node19 -->
<g id="edge24" class="edge">
<title>Node1&#45;&gt;Node19</title>
<path fill="none" stroke="midnightblue" d="M606.94,-391.55C661.67,-381.39 747.9,-365.39 800.75,-355.58"/>
<polygon fill="midnightblue" stroke="midnightblue" points="605.96,-388.17 596.77,-393.43 607.24,-395.05 605.96,-388.17"/>
</g>
<!-- Node24 -->
<g id="node24" class="node">
<title>Node24</title>
<g id="a_node24"><a xlink:href="_act_parser_8_h.html" target="_top" xlink:title=" ">
<polygon fill="white" stroke="black" points="1934,-336.5 1934,-355.5 2006,-355.5 2006,-336.5 1934,-336.5"/>
<text text-anchor="middle" x="1970" y="-343.5" font-family="Helvetica,sans-Serif" font-size="10.00">ActParser.H</text>
</a>
</g>
</g>
<!-- Node1&#45;&gt;Node24 -->
<g id="edge34" class="edge">
<title>Node1&#45;&gt;Node24</title>
<path fill="none" stroke="midnightblue" d="M607.04,-399.05C833.08,-390.42 1741.4,-355.73 1934,-348.37"/>
<polygon fill="midnightblue" stroke="midnightblue" points="606.65,-395.56 596.79,-399.44 606.92,-402.56 606.65,-395.56"/>
</g>
<!-- Node3&#45;&gt;Node2 -->
<g id="edge3" class="edge">
<title>Node3&#45;&gt;Node2</title>
<path fill="none" stroke="midnightblue" d="M229.49,-334.02C188.12,-323.82 127.36,-308.84 89.54,-299.52"/>
<polygon fill="midnightblue" stroke="midnightblue" points="228.75,-337.45 239.3,-336.44 230.43,-330.65 228.75,-337.45"/>
</g>
<!-- Node4 -->
<g id="node4" class="node">
<title>Node4</title>
<g id="a_node4"><a xlink:href="box__ops_8_h.html" target="_top" xlink:title=" ">
<polygon fill="white" stroke="black" points="422,-280.5 422,-299.5 490,-299.5 490,-280.5 422,-280.5"/>
<text text-anchor="middle" x="456" y="-287.5" font-family="Helvetica,sans-Serif" font-size="10.00">box_ops.H</text>
</a>
</g>
</g>
<!-- Node3&#45;&gt;Node4 -->
<g id="edge4" class="edge">
<title>Node3&#45;&gt;Node4</title>
<path fill="none" stroke="midnightblue" d="M312.53,-333.57C346.86,-323.38 396.33,-308.7 427.3,-299.52"/>
<polygon fill="midnightblue" stroke="midnightblue" points="311.43,-330.24 302.84,-336.44 313.42,-336.95 311.43,-330.24"/>
</g>
<!-- Node6 -->
<g id="node6" class="node">
<title>Node6</title>
<g id="a_node6"><a xlink:href="cylinder__ops_8_h.html" target="_top" xlink:title=" ">
<polygon fill="white" stroke="black" points="229.5,-280.5 229.5,-299.5 318.5,-299.5 318.5,-280.5 229.5,-280.5"/>
<text text-anchor="middle" x="274" y="-287.5" font-family="Helvetica,sans-Serif" font-size="10.00">cylinder_ops.H</text>
</a>
</g>
</g>
<!-- Node3&#45;&gt;Node6 -->
<g id="edge6" class="edge">
<title>Node3&#45;&gt;Node6</title>
<path fill="none" stroke="midnightblue" d="M274,-325.8C274,-316.91 274,-306.78 274,-299.75"/>
<polygon fill="midnightblue" stroke="midnightblue" points="270.5,-326.08 274,-336.08 277.5,-326.08 270.5,-326.08"/>
</g>
<!-- Node8 -->
<g id="node8" class="node">
<title>Node8</title>
<g id="a_node8"><a xlink:href="sphere__ops_8_h.html" target="_top" xlink:title=" ">
<polygon fill="white" stroke="black" points="128.5,-280.5 128.5,-299.5 211.5,-299.5 211.5,-280.5 128.5,-280.5"/>
<text text-anchor="middle" x="170" y="-287.5" font-family="Helvetica,sans-Serif" font-size="10.00">sphere_ops.H</text>
</a>
</g>
</g>
<!-- Node3&#45;&gt;Node8 -->
<g id="edge8" class="edge">
<title>Node3&#45;&gt;Node8</title>
<path fill="none" stroke="midnightblue" d="M248.17,-331.59C228.94,-321.61 203.26,-308.27 186.67,-299.65"/>
<polygon fill="midnightblue" stroke="midnightblue" points="246.8,-334.82 257.29,-336.32 250.03,-328.61 246.8,-334.82"/>
</g>
<!-- Node5 -->
<g id="node5" class="node">
<title>Node5</title>
<g id="a_node5"><a xlink:href="_box_8cpp.html" target="_top" xlink:title=" ">
<polygon fill="white" stroke="black" points="362,-224.5 362,-243.5 418,-243.5 418,-224.5 362,-224.5"/>
<text text-anchor="middle" x="390" y="-231.5" font-family="Helvetica,sans-Serif" font-size="10.00">Box.cpp</text>
</a>
</g>
</g>
<!-- Node4&#45;&gt;Node5 -->
<g id="edge5" class="edge">
<title>Node4&#45;&gt;Node5</title>
<path fill="none" stroke="midnightblue" d="M437.45,-273.82C425.62,-264.15 410.71,-251.95 400.8,-243.83"/>
<polygon fill="midnightblue" stroke="midnightblue" points="435.44,-276.7 445.4,-280.32 439.87,-271.28 435.44,-276.7"/>
</g>
<!-- Node7 -->
<g id="node7" class="node">
<title>Node7</title>
<g id="a_node7"><a xlink:href="_cylinder_8cpp.html" target="_top" xlink:title=" ">
<polygon fill="white" stroke="black" points="250.5,-224.5 250.5,-243.5 327.5,-243.5 327.5,-224.5 250.5,-224.5"/>
<text text-anchor="middle" x="289" y="-231.5" font-family="Helvetica,sans-Serif" font-size="10.00">Cylinder.cpp</text>
</a>
</g>
</g>
<!-- Node6&#45;&gt;Node7 -->
<g id="edge7" class="edge">
<title>Node6&#45;&gt;Node7</title>
<path fill="none" stroke="midnightblue" d="M279.17,-270.4C281.68,-261.36 284.57,-250.94 286.57,-243.75"/>
<polygon fill="midnightblue" stroke="midnightblue" points="275.78,-269.51 276.48,-280.08 282.53,-271.38 275.78,-269.51"/>
</g>
<!-- Node9 -->
<g id="node9" class="node">
<title>Node9</title>
<g id="a_node9"><a xlink:href="_sphere_8cpp.html" target="_top" xlink:title=" ">
<polygon fill="white" stroke="black" points="155.5,-224.5 155.5,-243.5 226.5,-243.5 226.5,-224.5 155.5,-224.5"/>
<text text-anchor="middle" x="191" y="-231.5" font-family="Helvetica,sans-Serif" font-size="10.00">Sphere.cpp</text>
</a>
</g>
</g>
<!-- Node8&#45;&gt;Node9 -->
<g id="edge9" class="edge">
<title>Node8&#45;&gt;Node9</title>
<path fill="none" stroke="midnightblue" d="M177.12,-270.69C180.66,-261.59 184.77,-251.01 187.6,-243.75"/>
<polygon fill="midnightblue" stroke="midnightblue" points="173.83,-269.49 173.47,-280.08 180.35,-272.03 173.83,-269.49"/>
</g>
<!-- Node11&#45;&gt;Node5 -->
<g id="edge12" class="edge">
<title>Node11&#45;&gt;Node5</title>
<path fill="none" stroke="midnightblue" d="M376.78,-270.69C380.15,-261.59 384.07,-251.01 386.76,-243.75"/>
<polygon fill="midnightblue" stroke="midnightblue" points="373.49,-269.49 373.3,-280.08 380.06,-271.92 373.49,-269.49"/>
</g>
<!-- Node11&#45;&gt;Node7 -->
<g id="edge13" class="edge">
<title>Node11&#45;&gt;Node7</title>
<path fill="none" stroke="midnightblue" d="M348.43,-274.62C333.64,-264.76 314.49,-251.99 301.98,-243.65"/>
<polygon fill="midnightblue" stroke="midnightblue" points="346.72,-277.69 356.99,-280.32 350.61,-271.86 346.72,-277.69"/>
</g>
<!-- Node11&#45;&gt;Node9 -->
<g id="edge14" class="edge">
<title>Node11&#45;&gt;Node9</title>
<path fill="none" stroke="midnightblue" d="M331.67,-277.44C297.92,-267.26 249.55,-252.66 219.23,-243.52"/>
<polygon fill="midnightblue" stroke="midnightblue" points="331.05,-280.91 341.64,-280.44 333.07,-274.2 331.05,-280.91"/>
</g>
<!-- Node11&#45;&gt;Node10 -->
<g id="edge15" class="edge">
<title>Node11&#45;&gt;Node10</title>
<path fill="none" stroke="midnightblue" d="M399.85,-276.5C424.04,-266.38 457.46,-252.39 478.66,-243.52"/>
<polygon fill="midnightblue" stroke="midnightblue" points="398.31,-273.35 390.44,-280.44 401.02,-279.81 398.31,-273.35"/>
</g>
<!-- Node13&#45;&gt;Node12 -->
<g id="edge18" class="edge">
<title>Node13&#45;&gt;Node12</title>
<path fill="none" stroke="midnightblue" d="M1003.85,-279.87C881.21,-264.57 749.41,-249.04 679.2,-240.84"/>
<polygon fill="midnightblue" stroke="midnightblue" points="1003.44,-283.34 1013.79,-281.11 1004.31,-276.4 1003.44,-283.34"/>
</g>
<!-- Node14 -->
<g id="node14" class="node">
<title>Node14</title>
<g id="a_node14"><a xlink:href="_h_o_s_waves_8cpp.html" target="_top" xlink:title=" ">
<polygon fill="white" stroke="black" points="1273,-224.5 1273,-243.5 1363,-243.5 1363,-224.5 1273,-224.5"/>
<text text-anchor="middle" x="1318" y="-231.5" font-family="Helvetica,sans-Serif" font-size="10.00">HOSWaves.cpp</text>
</a>
</g>
</g>
<!-- Node13&#45;&gt;Node14 -->
<g id="edge19" class="edge">
<title>Node13&#45;&gt;Node14</title>
<path fill="none" stroke="midnightblue" d="M1122.43,-278.28C1168.54,-268.08 1237.03,-252.92 1279.52,-243.52"/>
<polygon fill="midnightblue" stroke="midnightblue" points="1121.67,-274.87 1112.66,-280.44 1123.18,-281.7 1121.67,-274.87"/>
</g>
<!-- Node15 -->
<g id="node15" class="node">
<title>Node15</title>
<g id="a_node15"><a xlink:href="_linear_waves_8cpp.html" target="_top" xlink:title=" ">
<polygon fill="white" stroke="black" points="811.5,-224.5 811.5,-243.5 910.5,-243.5 910.5,-224.5 811.5,-224.5"/>
<text text-anchor="middle" x="861" y="-231.5" font-family="Helvetica,sans-Serif" font-size="10.00">LinearWaves.cpp</text>
</a>
</g>
</g>
<!-- Node13&#45;&gt;Node15 -->
<g id="edge20" class="edge">
<title>Node13&#45;&gt;Node15</title>
<path fill="none" stroke="midnightblue" d="M1030.45,-277.96C990.22,-267.76 931.3,-252.82 894.59,-243.52"/>
<polygon fill="midnightblue" stroke="midnightblue" points="1029.7,-281.38 1040.25,-280.44 1031.42,-274.59 1029.7,-281.38"/>
</g>
<!-- Node16 -->
<g id="node16" class="node">
<title>Node16</title>
<g id="a_node16"><a xlink:href="_stokes_waves_8cpp.html" target="_top" xlink:title=" ">
<polygon fill="white" stroke="black" points="985.5,-224.5 985.5,-243.5 1086.5,-243.5 1086.5,-224.5 985.5,-224.5"/>
<text text-anchor="middle" x="1036" y="-231.5" font-family="Helvetica,sans-Serif" font-size="10.00">StokesWaves.cpp</text>
</a>
</g>
</g>
<!-- Node13&#45;&gt;Node16 -->
<g id="edge21" class="edge">
<title>Node13&#45;&gt;Node16</title>
<path fill="none" stroke="midnightblue" d="M1061.94,-271.86C1055.36,-262.5 1047.49,-251.33 1042.16,-243.75"/>
<polygon fill="midnightblue" stroke="midnightblue" points="1059.11,-273.92 1067.73,-280.08 1064.83,-269.89 1059.11,-273.92"/>
</g>
<!-- Node17 -->
<g id="node17" class="node">
<title>Node17</title>
<g id="a_node17"><a xlink:href="_w2_a_waves_8cpp.html" target="_top" xlink:title=" ">
<polygon fill="white" stroke="black" points="1151.5,-224.5 1151.5,-243.5 1242.5,-243.5 1242.5,-224.5 1151.5,-224.5"/>
<text text-anchor="middle" x="1197" y="-231.5" font-family="Helvetica,sans-Serif" font-size="10.00">W2AWaves.cpp</text>
</a>
</g>
</g>
<!-- Node13&#45;&gt;Node17 -->
<g id="edge22" class="edge">
<title>Node13&#45;&gt;Node17</title>
<path fill="none" stroke="midnightblue" d="M1102.77,-276.37C1125.81,-266.26 1157.48,-252.35 1177.6,-243.52"/>
<polygon fill="midnightblue" stroke="midnightblue" points="1101.24,-273.22 1093.49,-280.44 1104.05,-279.63 1101.24,-273.22"/>
</g>
<!-- Node19&#45;&gt;Node18 -->
<g id="edge29" class="edge">
<title>Node19&#45;&gt;Node18</title>
<path fill="none" stroke="midnightblue" d="M807.03,-333.7C770.98,-323.51 718.76,-308.74 686.12,-299.52"/>
<polygon fill="midnightblue" stroke="midnightblue" points="806.16,-337.09 816.74,-336.44 808.06,-330.35 806.16,-337.09"/>
</g>
<!-- Node20 -->
<g id="node20" class="node">
<title>Node20</title>
<g id="a_node20"><a xlink:href="hos__waves__ops_8_h.html" target="_top" xlink:title=" ">
<polygon fill="white" stroke="black" points="1278,-280.5 1278,-299.5 1382,-299.5 1382,-280.5 1278,-280.5"/>
<text text-anchor="middle" x="1330" y="-287.5" font-family="Helvetica,sans-Serif" font-size="10.00">hos_waves_ops.H</text>
</a>
</g>
</g>
<!-- Node19&#45;&gt;Node20 -->
<g id="edge25" class="edge">
<title>Node19&#45;&gt;Node20</title>
<path fill="none" stroke="midnightblue" d="M923.83,-337.66C1008.3,-329.4 1147.99,-315.12 1268,-300 1271.24,-299.59 1274.57,-299.16 1277.92,-298.7"/>
<polygon fill="midnightblue" stroke="midnightblue" points="923.42,-334.19 913.81,-338.64 924.1,-341.15 923.42,-334.19"/>
</g>
<!-- Node21 -->
<g id="node21" class="node">
<title>Node21</title>
<g id="a_node21"><a xlink:href="linear__waves__ops_8_h.html" target="_top" xlink:title=" ">
<polygon fill="white" stroke="black" points="746,-280.5 746,-299.5 860,-299.5 860,-280.5 746,-280.5"/>
<text text-anchor="middle" x="803" y="-287.5" font-family="Helvetica,sans-Serif" font-size="10.00">linear_waves_ops.H</text>
</a>
</g>
</g>
<!-- Node19&#45;&gt;Node21 -->
<g id="edge27" class="edge">
<title>Node19&#45;&gt;Node21</title>
<path fill="none" stroke="midnightblue" d="M833.27,-328.14C825.6,-318.74 816.37,-307.4 810.13,-299.75"/>
<polygon fill="midnightblue" stroke="midnightblue" points="830.7,-330.54 839.73,-336.08 836.13,-326.12 830.7,-330.54"/>
</g>
<!-- Node22 -->
<g id="node22" class="node">
<title>Node22</title>
<g id="a_node22"><a xlink:href="stokes__waves__ops_8_h.html" target="_top" xlink:title=" ">
<polygon fill="white" stroke="black" points="878,-280.5 878,-299.5 996,-299.5 996,-280.5 878,-280.5"/>
<text text-anchor="middle" x="937" y="-287.5" font-family="Helvetica,sans-Serif" font-size="10.00">stokes_waves_ops.H</text>
</a>
</g>
</g>
<!-- Node19&#45;&gt;Node22 -->
<g id="edge30" class="edge">
<title>Node19&#45;&gt;Node22</title>
<path fill="none" stroke="midnightblue" d="M870.04,-331.18C886.6,-321.24 908.42,-308.15 922.58,-299.65"/>
<polygon fill="midnightblue" stroke="midnightblue" points="868.23,-328.18 861.46,-336.32 871.84,-334.18 868.23,-328.18"/>
</g>
<!-- Node23 -->
<g id="node23" class="node">
<title>Node23</title>
<g id="a_node23"><a xlink:href="waves2amr__ops_8_h.html" target="_top" xlink:title=" ">
<polygon fill="white" stroke="black" points="1152.5,-280.5 1152.5,-299.5 1259.5,-299.5 1259.5,-280.5 1152.5,-280.5"/>
<text text-anchor="middle" x="1206" y="-287.5" font-family="Helvetica,sans-Serif" font-size="10.00">waves2amr_ops.H</text>
</a>
</g>
</g>
<!-- Node19&#45;&gt;Node23 -->
<g id="edge32" class="edge">
<title>Node19&#45;&gt;Node23</title>
<path fill="none" stroke="midnightblue" d="M914.19,-334.89C983.06,-324.53 1088.81,-308.63 1152.31,-299.08"/>
<polygon fill="midnightblue" stroke="midnightblue" points="913.25,-331.49 903.88,-336.44 914.29,-338.42 913.25,-331.49"/>
</g>
<!-- Node20&#45;&gt;Node14 -->
<g id="edge26" class="edge">
<title>Node20&#45;&gt;Node14</title>
<path fill="none" stroke="midnightblue" d="M1325.8,-270.1C1323.81,-261.14 1321.52,-250.86 1319.94,-243.75"/>
<polygon fill="midnightblue" stroke="midnightblue" points="1322.43,-271.08 1328.02,-280.08 1329.27,-269.56 1322.43,-271.08"/>
</g>
<!-- Node21&#45;&gt;Node15 -->
<g id="edge28" class="edge">
<title>Node21&#45;&gt;Node15</title>
<path fill="none" stroke="midnightblue" d="M819.91,-273.25C830.2,-263.67 842.97,-251.79 851.51,-243.83"/>
<polygon fill="midnightblue" stroke="midnightblue" points="817.25,-270.95 812.32,-280.32 822.02,-276.07 817.25,-270.95"/>
</g>
<!-- Node22&#45;&gt;Node16 -->
<g id="edge31" class="edge">
<title>Node22&#45;&gt;Node16</title>
<path fill="none" stroke="midnightblue" d="M961.84,-275.45C980.11,-265.48 1004.42,-252.23 1020.13,-243.65"/>
<polygon fill="midnightblue" stroke="midnightblue" points="960.01,-272.46 952.91,-280.32 963.36,-278.61 960.01,-272.46"/>
</g>
<!-- Node23&#45;&gt;Node17 -->
<g id="edge33" class="edge">
<title>Node23&#45;&gt;Node17</title>
<path fill="none" stroke="midnightblue" d="M1202.85,-270.1C1201.36,-261.14 1199.64,-250.86 1198.46,-243.75"/>
<polygon fill="midnightblue" stroke="midnightblue" points="1199.42,-270.79 1204.51,-280.08 1206.32,-269.64 1199.42,-270.79"/>
</g>
<!-- Node25 -->
<g id="node25" class="node">
<title>Node25</title>
<g id="a_node25"><a xlink:href="_actuator_8cpp.html" target="_top" xlink:title=" ">
<polygon fill="white" stroke="black" points="1984.5,-0.5 1984.5,-19.5 2061.5,-19.5 2061.5,-0.5 1984.5,-0.5"/>
<text text-anchor="middle" x="2023" y="-7.5" font-family="Helvetica,sans-Serif" font-size="10.00">Actuator.cpp</text>
</a>
</g>
</g>
<!-- Node24&#45;&gt;Node25 -->
<g id="edge35" class="edge">
<title>Node24&#45;&gt;Node25</title>
<path fill="none" stroke="midnightblue" d="M2016.28,-342.41C2094.67,-337.41 2249.76,-324.67 2298,-300 2333.55,-281.82 2360,-274.92 2360,-235 2360,-235 2360,-235 2360,-121 2360,-58.84 2150.18,-26.29 2061.66,-15.32"/>
<polygon fill="midnightblue" stroke="midnightblue" points="2015.97,-338.92 2006.2,-343.04 2016.4,-345.91 2015.97,-338.92"/>
</g>
<!-- Node26 -->
<g id="node26" class="node">
<title>Node26</title>
<g id="a_node26"><a xlink:href="actuator__ops_8_h.html" target="_top" xlink:title=" ">
<polygon fill="white" stroke="black" points="1764,-224.5 1764,-243.5 1854,-243.5 1854,-224.5 1764,-224.5"/>
<text text-anchor="middle" x="1809" y="-231.5" font-family="Helvetica,sans-Serif" font-size="10.00">actuator_ops.H</text>
</a>
</g>
</g>
<!-- Node24&#45;&gt;Node26 -->
<g id="edge36" class="edge">
<title>Node24&#45;&gt;Node26</title>
<path fill="none" stroke="midnightblue" d="M1923.73,-343.28C1890.36,-339.49 1846.8,-328.83 1821,-300 1806.92,-284.27 1806.88,-257.57 1807.97,-243.8"/>
<polygon fill="midnightblue" stroke="midnightblue" points="1923.44,-346.77 1933.73,-344.25 1924.11,-339.8 1923.44,-346.77"/>
</g>
<!-- Node28 -->
<g id="node28" class="node">
<title>Node28</title>
<g id="a_node28"><a xlink:href="_actuator_model_8_h.html" target="_top" xlink:title=" ">
<polygon fill="white" stroke="black" points="1641,-112.5 1641,-131.5 1739,-131.5 1739,-112.5 1641,-112.5"/>
<text text-anchor="middle" x="1690" y="-119.5" font-family="Helvetica,sans-Serif" font-size="10.00">ActuatorModel.H</text>
</a>
</g>
</g>
<!-- Node24&#45;&gt;Node28 -->
<g id="edge66" class="edge">
<title>Node24&#45;&gt;Node28</title>
<path fill="none" stroke="midnightblue" d="M1923.89,-338.73C1804.32,-321.44 1489.41,-268.9 1429,-188 1423.68,-180.88 1423.27,-174.8 1429,-168 1442.5,-151.98 1569.06,-135.96 1640.86,-128.06"/>
<polygon fill="midnightblue" stroke="midnightblue" points="1923.44,-342.2 1933.83,-340.15 1924.43,-335.27 1923.44,-342.2"/>
</g>
<!-- Node47 -->
<g id="node43" class="node">
<title>Node47</title>
<g id="a_node43"><a xlink:href="wing__ops_8_h.html" target="_top" xlink:title=" ">
<polygon fill="white" stroke="black" points="1926.5,-168.5 1926.5,-187.5 1999.5,-187.5 1999.5,-168.5 1926.5,-168.5"/>
<text text-anchor="middle" x="1963" y="-175.5" font-family="Helvetica,sans-Serif" font-size="10.00">wing_ops.H</text>
</a>
</g>
</g>
<!-- Node24&#45;&gt;Node47 -->
<g id="edge78" class="edge">
<title>Node24&#45;&gt;Node47</title>
<path fill="none" stroke="midnightblue" d="M1969.2,-325.93C1967.68,-289.92 1964.44,-213.23 1963.36,-187.57"/>
<polygon fill="midnightblue" stroke="midnightblue" points="1965.71,-326.23 1969.62,-336.08 1972.7,-325.94 1965.71,-326.23"/>
</g>
<!-- Node48 -->
<g id="node44" class="node">
<title>Node48</title>
<g id="a_node44"><a xlink:href="wing__ops_8cpp.html" target="_top" xlink:title=" ">
<polygon fill="white" stroke="black" points="1989.5,-112.5 1989.5,-131.5 2072.5,-131.5 2072.5,-112.5 1989.5,-112.5"/>
<text text-anchor="middle" x="2031" y="-119.5" font-family="Helvetica,sans-Serif" font-size="10.00">wing_ops.cpp</text>
</a>
</g>
</g>
<!-- Node24&#45;&gt;Node48 -->
<g id="edge77" class="edge">
<title>Node24&#45;&gt;Node48</title>
<path fill="none" stroke="midnightblue" d="M1975.06,-326.58C1987.55,-281.14 2019.48,-164.92 2028.56,-131.88"/>
<polygon fill="midnightblue" stroke="midnightblue" points="1971.67,-325.73 1972.39,-336.3 1978.42,-327.58 1971.67,-325.73"/>
</g>
<!-- Node42 -->
<g id="node45" class="node">
<title>Node42</title>
<g id="a_node45"><a xlink:href="uniform__ct__ops_8cpp.html" target="_top" xlink:title=" ">
<polygon fill="white" stroke="black" points="1830,-280.5 1830,-299.5 1942,-299.5 1942,-280.5 1830,-280.5"/>
<text text-anchor="middle" x="1886" y="-287.5" font-family="Helvetica,sans-Serif" font-size="10.00">uniform_ct_ops.cpp</text>
</a>
</g>
</g>
<!-- Node24&#45;&gt;Node42 -->
<g id="edge67" class="edge">
<title>Node24&#45;&gt;Node42</title>
<path fill="none" stroke="midnightblue" d="M1948.07,-330.9C1932.66,-321 1912.55,-308.07 1899.46,-299.65"/>
<polygon fill="midnightblue" stroke="midnightblue" points="1946.2,-333.86 1956.5,-336.32 1949.98,-327.97 1946.2,-333.86"/>
</g>
<!-- Node49 -->
<g id="node46" class="node">
<title>Node49</title>
<g id="a_node46"><a xlink:href="_f_l_l_c_8_h.html" target="_top" xlink:title=" ">
<polygon fill="white" stroke="black" points="2083,-280.5 2083,-299.5 2133,-299.5 2133,-280.5 2083,-280.5"/>
<text text-anchor="middle" x="2108" y="-287.5" font-family="Helvetica,sans-Serif" font-size="10.00">FLLC.H</text>
</a>
</g>
</g>
<!-- Node24&#45;&gt;Node49 -->
<g id="edge68" class="edge">
<title>Node24&#45;&gt;Node49</title>
<path fill="none" stroke="midnightblue" d="M2001.25,-332.77C2027.17,-322.63 2063.36,-308.47 2086.24,-299.52"/>
<polygon fill="midnightblue" stroke="midnightblue" points="1999.9,-329.54 1991.87,-336.44 2002.45,-336.06 1999.9,-329.54"/>
</g>
<!-- Node53 -->
<g id="node50" class="node">
<title>Node53</title>
<g id="a_node50"><a xlink:href="turbine__utils_8_h.html" target="_top" xlink:title=" ">
<polygon fill="white" stroke="black" points="2201,-280.5 2201,-299.5 2289,-299.5 2289,-280.5 2201,-280.5"/>
<text text-anchor="middle" x="2245" y="-287.5" font-family="Helvetica,sans-Serif" font-size="10.00">turbine_utils.H</text>
</a>
</g>
</g>
<!-- Node24&#45;&gt;Node53 -->
<g id="edge74" class="edge">
<title>Node24&#45;&gt;Node53</title>
<path fill="none" stroke="midnightblue" d="M2016.13,-335.94C2067.77,-325.8 2150.84,-309.49 2201.42,-299.56"/>
<polygon fill="midnightblue" stroke="midnightblue" points="2015.37,-332.52 2006.23,-337.88 2016.72,-339.39 2015.37,-332.52"/>
</g>
<!-- Node27 -->
<g id="node27" class="node">
<title>Node27</title>
<g id="a_node27"><a xlink:href="_act_src_line_op_8_h.html" target="_top" xlink:title=" ">
<polygon fill="white" stroke="black" points="1438,-168.5 1438,-187.5 1530,-187.5 1530,-168.5 1438,-168.5"/>
<text text-anchor="middle" x="1484" y="-175.5" font-family="Helvetica,sans-Serif" font-size="10.00">ActSrcLineOp.H</text>
</a>
</g>
</g>
<!-- Node26&#45;&gt;Node27 -->
<g id="edge37" class="edge">
<title>Node26&#45;&gt;Node27</title>
<path fill="none" stroke="midnightblue" d="M1753.67,-223.81C1690.7,-213.34 1588.98,-196.44 1530.12,-186.66"/>
<polygon fill="midnightblue" stroke="midnightblue" points="1753.37,-227.31 1763.81,-225.49 1754.52,-220.4 1753.37,-227.31"/>
</g>
<!-- Node26&#45;&gt;Node28 -->
<g id="edge45" class="edge">
<title>Node26&#45;&gt;Node28</title>
<path fill="none" stroke="midnightblue" d="M1812.14,-214.41C1813.46,-200.32 1812.85,-181.18 1803,-168 1787.89,-147.79 1762.27,-136.64 1739.23,-130.5"/>
<polygon fill="midnightblue" stroke="midnightblue" points="1808.66,-214.06 1810.81,-224.43 1815.59,-214.98 1808.66,-214.06"/>
</g>
<!-- Node36 -->
<g id="node34" class="node">
<title>Node36</title>
<g id="a_node34"><a xlink:href="_act_src_disk_op_8_h.html" target="_top" xlink:title=" ">
<polygon fill="white" stroke="black" points="1548.5,-168.5 1548.5,-187.5 1641.5,-187.5 1641.5,-168.5 1548.5,-168.5"/>
<text text-anchor="middle" x="1595" y="-175.5" font-family="Helvetica,sans-Serif" font-size="10.00">ActSrcDiskOp.H</text>
</a>
</g>
</g>
<!-- Node26&#45;&gt;Node36 -->
<g id="edge46" class="edge">
<title>Node26&#45;&gt;Node36</title>
<path fill="none" stroke="midnightblue" d="M1765.24,-221.96C1724.83,-211.76 1665.63,-196.82 1628.75,-187.52"/>
<polygon fill="midnightblue" stroke="midnightblue" points="1764.54,-225.39 1775.09,-224.44 1766.25,-218.6 1764.54,-225.39"/>
</g>
<!-- Node37 -->
<g id="node35" class="node">
<title>Node37</title>
<g id="a_node35"><a xlink:href="disk__ops_8_h.html" target="_top" xlink:title=" ">
<polygon fill="white" stroke="red" points="1312,-168.5 1312,-187.5 1382,-187.5 1382,-168.5 1312,-168.5"/>
<text text-anchor="middle" x="1347" y="-175.5" font-family="Helvetica,sans-Serif" font-size="10.00">disk_ops.H</text>
</a>
</g>
</g>
<!-- Node26&#45;&gt;Node37 -->
<g id="edge48" class="edge">
<title>Node26&#45;&gt;Node37</title>
<path fill="none" stroke="midnightblue" d="M1753.76,-226.54C1657.62,-215.31 1462.19,-192.46 1382.27,-183.12"/>
<polygon fill="midnightblue" stroke="midnightblue" points="1753.52,-230.04 1763.86,-227.72 1754.33,-223.09 1753.52,-230.04"/>
</g>
<!-- Node43 -->
<g id="node39" class="node">
<title>Node43</title>
<g id="a_node39"><a xlink:href="_act_src_disk_op___turbine_8_h.html" target="_top" xlink:title=" ">
<polygon fill="white" stroke="black" points="1660,-168.5 1660,-187.5 1794,-187.5 1794,-168.5 1660,-168.5"/>
<text text-anchor="middle" x="1727" y="-175.5" font-family="Helvetica,sans-Serif" font-size="10.00">ActSrcDiskOp_Turbine.H</text>
</a>
</g>
</g>
<!-- Node26&#45;&gt;Node43 -->
<g id="edge54" class="edge">
<title>Node26&#45;&gt;Node43</title>
<path fill="none" stroke="midnightblue" d="M1787.17,-218.62C1772.19,-208.76 1752.8,-195.99 1740.14,-187.65"/>
<polygon fill="midnightblue" stroke="midnightblue" points="1785.55,-221.75 1795.83,-224.32 1789.4,-215.9 1785.55,-221.75"/>
</g>
<!-- Node44 -->
<g id="node40" class="node">
<title>Node44</title>
<g id="a_node40"><a xlink:href="turbine__fast__ops_8_h.html" target="_top" xlink:title=" ">
<polygon fill="white" stroke="black" points="2056,-168.5 2056,-187.5 2164,-187.5 2164,-168.5 2056,-168.5"/>
<text text-anchor="middle" x="2110" y="-175.5" font-family="Helvetica,sans-Serif" font-size="10.00">turbine_fast_ops.H</text>
</a>
</g>
</g>
<!-- Node26&#45;&gt;Node44 -->
<g id="edge56" class="edge">
<title>Node26&#45;&gt;Node44</title>
<path fill="none" stroke="midnightblue" d="M1863.94,-223.14C1920.73,-212.96 2008.46,-197.22 2062.39,-187.54"/>
<polygon fill="midnightblue" stroke="midnightblue" points="1863.29,-219.7 1854.06,-224.92 1864.52,-226.59 1863.29,-219.7"/>
</g>
<!-- Node45 -->
<g id="node41" class="node">
<title>Node45</title>
<g id="a_node41"><a xlink:href="fixed__wing__ops_8_h.html" target="_top" xlink:title=" ">
<polygon fill="white" stroke="black" points="1757.5,-112.5 1757.5,-131.5 1858.5,-131.5 1858.5,-112.5 1757.5,-112.5"/>
<text text-anchor="middle" x="1808" y="-119.5" font-family="Helvetica,sans-Serif" font-size="10.00">fixed_wing_ops.H</text>
</a>
</g>
</g>
<!-- Node26&#45;&gt;Node45 -->
<g id="edge58" class="edge">
<title>Node26&#45;&gt;Node45</title>
<path fill="none" stroke="midnightblue" d="M1822.9,-216.07C1831.78,-203.17 1840.81,-184.83 1836,-168 1832.01,-154.02 1822.28,-140.16 1815.41,-131.59"/>
<polygon fill="midnightblue" stroke="midnightblue" points="1819.85,-214.3 1816.66,-224.4 1825.46,-218.5 1819.85,-214.3"/>
</g>
<!-- Node46 -->
<g id="node42" class="node">
<title>Node46</title>
<g id="a_node42"><a xlink:href="flat__plate__ops_8_h.html" target="_top" xlink:title=" ">
<polygon fill="white" stroke="black" points="1876.5,-112.5 1876.5,-131.5 1971.5,-131.5 1971.5,-112.5 1876.5,-112.5"/>
<text text-anchor="middle" x="1924" y="-119.5" font-family="Helvetica,sans-Serif" font-size="10.00">flat_plate_ops.H</text>
</a>
</g>
</g>
<!-- Node26&#45;&gt;Node46 -->
<g id="edge60" class="edge">
<title>Node26&#45;&gt;Node46</title>
<path fill="none" stroke="midnightblue" d="M1825.51,-217.21C1850.16,-193.63 1895.74,-150.03 1915.02,-131.59"/>
<polygon fill="midnightblue" stroke="midnightblue" points="1822.83,-214.93 1818.02,-224.37 1827.67,-219.99 1822.83,-214.93"/>
</g>
<!-- Node26&#45;&gt;Node47 -->
<g id="edge62" class="edge">
<title>Node26&#45;&gt;Node47</title>
<path fill="none" stroke="midnightblue" d="M1843.11,-221.04C1872.09,-210.88 1912.96,-196.55 1938.71,-187.52"/>
<polygon fill="midnightblue" stroke="midnightblue" points="1841.68,-217.83 1833.4,-224.44 1844,-224.44 1841.68,-217.83"/>
</g>
<!-- Node27&#45;&gt;Node28 -->
<g id="edge38" class="edge">
<title>Node27&#45;&gt;Node28</title>
<path fill="none" stroke="midnightblue" d="M1526.62,-165.83C1565.51,-155.63 1622.16,-140.78 1657.51,-131.52"/>
<polygon fill="midnightblue" stroke="midnightblue" points="1525.43,-162.52 1516.64,-168.44 1527.2,-169.29 1525.43,-162.52"/>
</g>
<!-- Node29 -->
<g id="node29" class="node">
<title>Node29</title>
<g id="a_node29"><a xlink:href="_actuator_8_h.html" target="_top" xlink:title=" ">
<polygon fill="white" stroke="red" points="1662,-56.5 1662,-75.5 1730,-75.5 1730,-56.5 1662,-56.5"/>
<text text-anchor="middle" x="1696" y="-63.5" font-family="Helvetica,sans-Serif" font-size="10.00">Actuator.H</text>
</a>
</g>
</g>
<!-- Node28&#45;&gt;Node29 -->
<g id="edge39" class="edge">
<title>Node28&#45;&gt;Node29</title>
<path fill="none" stroke="midnightblue" d="M1692.1,-102.1C1693.1,-93.14 1694.24,-82.86 1695.03,-75.75"/>
<polygon fill="midnightblue" stroke="midnightblue" points="1688.62,-101.76 1690.99,-112.08 1695.57,-102.53 1688.62,-101.76"/>
</g>
<!-- Node32 -->
<g id="node30" class="node">
<title>Node32</title>
<g id="a_node30"><a xlink:href="_actuator_disk_8cpp.html" target="_top" xlink:title=" ">
<polygon fill="white" stroke="black" points="1505,-56.5 1505,-75.5 1605,-75.5 1605,-56.5 1505,-56.5"/>
<text text-anchor="middle" x="1555" y="-63.5" font-family="Helvetica,sans-Serif" font-size="10.00">ActuatorDisk.cpp</text>
</a>
</g>
</g>
<!-- Node28&#45;&gt;Node32 -->
<g id="edge41" class="edge">
<title>Node28&#45;&gt;Node32</title>
<path fill="none" stroke="midnightblue" d="M1659.09,-108.64C1633.76,-98.5 1598.57,-84.43 1576.29,-75.52"/>
<polygon fill="midnightblue" stroke="midnightblue" points="1658.02,-111.98 1668.61,-112.44 1660.62,-105.48 1658.02,-111.98"/>
</g>
<!-- Node33 -->
<g id="node31" class="node">
<title>Node33</title>
<g id="a_node31"><a xlink:href="_turbine_fast_8cpp.html" target="_top" xlink:title=" ">
<polygon fill="white" stroke="black" points="2015,-56.5 2015,-75.5 2107,-75.5 2107,-56.5 2015,-56.5"/>
<text text-anchor="middle" x="2061" y="-63.5" font-family="Helvetica,sans-Serif" font-size="10.00">TurbineFast.cpp</text>
</a>
</g>
</g>
<!-- Node28&#45;&gt;Node33 -->
<g id="edge42" class="edge">
<title>Node28&#45;&gt;Node33</title>
<path fill="none" stroke="midnightblue" d="M1749.34,-111.96C1850.54,-96.97 1956.08,-81.89 2014.99,-73.52"/>
<polygon fill="midnightblue" stroke="midnightblue" points="1748.63,-108.53 1739.25,-113.46 1749.66,-115.45 1748.63,-108.53"/>
</g>
<!-- Node34 -->
<g id="node32" class="node">
<title>Node34</title>
<g id="a_node32"><a xlink:href="_fixed_wing_8cpp.html" target="_top" xlink:title=" ">
<polygon fill="white" stroke="black" points="1759.5,-56.5 1759.5,-75.5 1846.5,-75.5 1846.5,-56.5 1759.5,-56.5"/>
<text text-anchor="middle" x="1803" y="-63.5" font-family="Helvetica,sans-Serif" font-size="10.00">FixedWing.cpp</text>
</a>
</g>
</g>
<!-- Node28&#45;&gt;Node34 -->
<g id="edge43" class="edge">
<title>Node28&#45;&gt;Node34</title>
<path fill="none" stroke="midnightblue" d="M1717,-108.1C1738.11,-98.01 1766.86,-84.27 1785.18,-75.52"/>
<polygon fill="midnightblue" stroke="midnightblue" points="1715.42,-104.97 1707.91,-112.44 1718.44,-111.29 1715.42,-104.97"/>
</g>
<!-- Node35 -->
<g id="node33" class="node">
<title>Node35</title>
<g id="a_node33"><a xlink:href="_flat_plate_8cpp.html" target="_top" xlink:title=" ">
<polygon fill="white" stroke="black" points="1877,-56.5 1877,-75.5 1957,-75.5 1957,-56.5 1877,-56.5"/>
<text text-anchor="middle" x="1917" y="-63.5" font-family="Helvetica,sans-Serif" font-size="10.00">FlatPlate.cpp</text>
</a>
</g>
</g>
<!-- Node28&#45;&gt;Node35 -->
<g id="edge44" class="edge">
<title>Node28&#45;&gt;Node35</title>
<path fill="none" stroke="midnightblue" d="M1735.87,-110.09C1778.75,-99.89 1841.92,-84.86 1881.2,-75.52"/>
<polygon fill="midnightblue" stroke="midnightblue" points="1734.89,-106.72 1725.97,-112.44 1736.51,-113.53 1734.89,-106.72"/>
</g>
<!-- Node29&#45;&gt;Node25 -->
<g id="edge40" class="edge">
<title>Node29&#45;&gt;Node25</title>
<path fill="none" stroke="midnightblue" d="M1740.32,-57.68C1804.8,-47.03 1923.44,-27.44 1984.48,-17.36"/>
<polygon fill="midnightblue" stroke="midnightblue" points="1739.37,-54.29 1730.07,-59.37 1740.51,-61.2 1739.37,-54.29"/>
</g>
<!-- Node36&#45;&gt;Node28 -->
<g id="edge47" class="edge">
<title>Node36&#45;&gt;Node28</title>
<path fill="none" stroke="midnightblue" d="M1619.32,-163.18C1636.8,-153.24 1659.83,-140.15 1674.77,-131.65"/>
<polygon fill="midnightblue" stroke="midnightblue" points="1617.23,-160.34 1610.26,-168.32 1620.69,-166.43 1617.23,-160.34"/>
</g>
<!-- Node38 -->
<g id="node36" class="node">
<title>Node38</title>
<g id="a_node36"><a xlink:href="disk__ops_8cpp.html" target="_top" xlink:title=" ">
<polygon fill="white" stroke="black" points="1355,-112.5 1355,-131.5 1435,-131.5 1435,-112.5 1355,-112.5"/>
<text text-anchor="middle" x="1395" y="-119.5" font-family="Helvetica,sans-Serif" font-size="10.00">disk_ops.cpp</text>
</a>
</g>
</g>
<!-- Node37&#45;&gt;Node38 -->
<g id="edge49" class="edge">
<title>Node37&#45;&gt;Node38</title>
<path fill="none" stroke="midnightblue" d="M1361.73,-160.43C1370.14,-150.97 1380.35,-139.48 1387.22,-131.75"/>
<polygon fill="midnightblue" stroke="midnightblue" points="1358.95,-158.28 1354.93,-168.08 1364.19,-162.93 1358.95,-158.28"/>
</g>
<!-- Node39 -->
<g id="node37" class="node">
<title>Node39</title>
<g id="a_node37"><a xlink:href="_joukowsky__ops_8cpp.html" target="_top" xlink:title=" ">
<polygon fill="white" stroke="black" points="1299,-56.5 1299,-75.5 1409,-75.5 1409,-56.5 1299,-56.5"/>
<text text-anchor="middle" x="1354" y="-63.5" font-family="Helvetica,sans-Serif" font-size="10.00">Joukowsky_ops.cpp</text>
</a>
</g>
</g>
<!-- Node37&#45;&gt;Node39 -->
<g id="edge50" class="edge">
<title>Node37&#45;&gt;Node39</title>
<path fill="none" stroke="midnightblue" d="M1345.68,-158.1C1345.03,-145.11 1344.63,-127.48 1346,-112 1347.13,-99.2 1350.03,-84.58 1352.01,-75.57"/>
<polygon fill="midnightblue" stroke="midnightblue" points="1342.19,-158.38 1346.29,-168.15 1349.18,-157.96 1342.19,-158.38"/>
</g>
<!-- Node40 -->
<g id="node38" class="node">
<title>Node40</title>
<g id="a_node38"><a xlink:href="_joukowsky__ops_8_h.html" target="_top" xlink:title=" ">
<polygon fill="white" stroke="black" points="1453.5,-112.5 1453.5,-131.5 1554.5,-131.5 1554.5,-112.5 1453.5,-112.5"/>
<text text-anchor="middle" x="1504" y="-119.5" font-family="Helvetica,sans-Serif" font-size="10.00">Joukowsky_ops.H</text>
</a>
</g>
</g>
<!-- Node37&#45;&gt;Node40 -->
<g id="edge51" class="edge">
<title>Node37&#45;&gt;Node40</title>
<path fill="none" stroke="midnightblue" d="M1381.39,-165.17C1410.95,-155 1452.87,-140.59 1479.24,-131.52"/>
<polygon fill="midnightblue" stroke="midnightblue" points="1380.2,-161.88 1371.88,-168.44 1382.47,-168.5 1380.2,-161.88"/>
</g>
<!-- Node40&#45;&gt;Node32 -->
<g id="edge52" class="edge">
<title>Node40&#45;&gt;Node32</title>
<path fill="none" stroke="midnightblue" d="M1519.38,-104.72C1528.37,-95.2 1539.36,-83.56 1546.74,-75.75"/>
<polygon fill="midnightblue" stroke="midnightblue" points="1516.74,-102.41 1512.42,-112.08 1521.83,-107.22 1516.74,-102.41"/>
</g>
<!-- Node40&#45;&gt;Node39 -->
<g id="edge53" class="edge">
<title>Node40&#45;&gt;Node39</title>
<path fill="none" stroke="midnightblue" d="M1470.78,-109.04C1442.55,-98.88 1402.74,-84.55 1377.66,-75.52"/>
<polygon fill="midnightblue" stroke="midnightblue" points="1469.64,-112.35 1480.23,-112.44 1472.01,-105.76 1469.64,-112.35"/>
</g>
<!-- Node43&#45;&gt;Node28 -->
<g id="edge55" class="edge">
<title>Node43&#45;&gt;Node28</title>
<path fill="none" stroke="midnightblue" d="M1715.05,-159.57C1708.69,-150.27 1701.13,-139.25 1696,-131.75"/>
<polygon fill="midnightblue" stroke="midnightblue" points="1712.35,-161.81 1720.89,-168.08 1718.13,-157.86 1712.35,-161.81"/>
</g>
<!-- Node44&#45;&gt;Node33 -->
<g id="edge57" class="edge">
<title>Node44&#45;&gt;Node33</title>
<path fill="none" stroke="midnightblue" d="M2102.35,-158.85C2096.8,-145.78 2089.06,-127.75 2082,-112 2076.28,-99.26 2069.39,-84.62 2065.1,-75.59"/>
<polygon fill="midnightblue" stroke="midnightblue" points="2099.16,-160.29 2106.28,-168.13 2105.61,-157.56 2099.16,-160.29"/>
</g>
<!-- Node45&#45;&gt;Node34 -->
<g id="edge59" class="edge">
<title>Node45&#45;&gt;Node34</title>
<path fill="none" stroke="midnightblue" d="M1806.25,-102.1C1805.42,-93.14 1804.47,-82.86 1803.81,-75.75"/>
<polygon fill="midnightblue" stroke="midnightblue" points="1802.77,-102.45 1807.17,-112.08 1809.74,-101.8 1802.77,-102.45"/>
</g>
<!-- Node46&#45;&gt;Node35 -->
<g id="edge61" class="edge">
<title>Node46&#45;&gt;Node35</title>
<path fill="none" stroke="midnightblue" d="M1921.55,-102.1C1920.39,-93.14 1919.06,-82.86 1918.13,-75.75"/>
<polygon fill="midnightblue" stroke="midnightblue" points="1918.09,-102.62 1922.84,-112.08 1925.03,-101.72 1918.09,-102.62"/>
</g>
<!-- Node47&#45;&gt;Node45 -->
<g id="edge63" class="edge">
<title>Node47&#45;&gt;Node45</title>
<path fill="none" stroke="midnightblue" d="M1928.67,-165.04C1899.5,-154.88 1858.36,-140.55 1832.45,-131.52"/>
<polygon fill="midnightblue" stroke="midnightblue" points="1927.84,-168.46 1938.44,-168.44 1930.15,-161.85 1927.84,-168.46"/>
</g>
<!-- Node47&#45;&gt;Node46 -->
<g id="edge64" class="edge">
<title>Node47&#45;&gt;Node46</title>
<path fill="none" stroke="midnightblue" d="M1950.62,-159.86C1943.86,-150.5 1935.79,-139.33 1930.32,-131.75"/>
<polygon fill="midnightblue" stroke="midnightblue" points="1947.87,-162.03 1956.56,-168.08 1953.54,-157.93 1947.87,-162.03"/>
</g>
<!-- Node47&#45;&gt;Node48 -->
<g id="edge65" class="edge">
<title>Node47&#45;&gt;Node48</title>
<path fill="none" stroke="midnightblue" d="M1981.76,-162.1C1994,-152.38 2009.56,-140.03 2019.88,-131.83"/>
<polygon fill="midnightblue" stroke="midnightblue" points="1979.58,-159.36 1973.93,-168.32 1983.93,-164.85 1979.58,-159.36"/>
</g>
<!-- Node50 -->
<g id="node47" class="node">
<title>Node50</title>
<g id="a_node47"><a xlink:href="_f_l_l_c_8cpp.html" target="_top" xlink:title=" ">
<polygon fill="white" stroke="black" points="2118,-224.5 2118,-243.5 2178,-243.5 2178,-224.5 2118,-224.5"/>
<text text-anchor="middle" x="2148" y="-231.5" font-family="Helvetica,sans-Serif" font-size="10.00">FLLC.cpp</text>
</a>
</g>
</g>
<!-- Node49&#45;&gt;Node50 -->
<g id="edge69" class="edge">
<title>Node49&#45;&gt;Node50</title>
<path fill="none" stroke="midnightblue" d="M2120.7,-271.86C2127.63,-262.5 2135.91,-251.33 2141.52,-243.75"/>
<polygon fill="midnightblue" stroke="midnightblue" points="2117.75,-269.96 2114.61,-280.08 2123.37,-274.13 2117.75,-269.96"/>
</g>
<!-- Node51 -->
<g id="node48" class="node">
<title>Node51</title>
<g id="a_node48"><a xlink:href="_f_l_l_c_op_8_h.html" target="_top" xlink:title=" ">
<polygon fill="white" stroke="black" points="2036,-224.5 2036,-243.5 2100,-243.5 2100,-224.5 2036,-224.5"/>
<text text-anchor="middle" x="2068" y="-231.5" font-family="Helvetica,sans-Serif" font-size="10.00">FLLCOp.H</text>
</a>
</g>
</g>
<!-- Node49&#45;&gt;Node51 -->
<g id="edge70" class="edge">
<title>Node49&#45;&gt;Node51</title>
<path fill="none" stroke="midnightblue" d="M2095.3,-271.86C2088.37,-262.5 2080.09,-251.33 2074.48,-243.75"/>
<polygon fill="midnightblue" stroke="midnightblue" points="2092.63,-274.13 2101.39,-280.08 2098.25,-269.96 2092.63,-274.13"/>
</g>
<!-- Node52 -->
<g id="node49" class="node">
<title>Node52</title>
<g id="a_node49"><a xlink:href="turbine__utils_8cpp.html" target="_top" xlink:title=" ">
<polygon fill="white" stroke="black" points="2196,-224.5 2196,-243.5 2294,-243.5 2294,-224.5 2196,-224.5"/>
<text text-anchor="middle" x="2245" y="-231.5" font-family="Helvetica,sans-Serif" font-size="10.00">turbine_utils.cpp</text>
</a>
</g>
</g>
<!-- Node49&#45;&gt;Node52 -->
<g id="edge73" class="edge">
<title>Node49&#45;&gt;Node52</title>
<path fill="none" stroke="midnightblue" d="M2139.02,-276.77C2164.76,-266.63 2200.69,-252.47 2223.39,-243.52"/>
<polygon fill="midnightblue" stroke="midnightblue" points="2137.73,-273.52 2129.71,-280.44 2140.29,-280.03 2137.73,-273.52"/>
</g>
<!-- Node51&#45;&gt;Node44 -->
<g id="edge71" class="edge">
<title>Node51&#45;&gt;Node44</title>
<path fill="none" stroke="midnightblue" d="M2081.11,-216.14C2088.43,-206.74 2097.24,-195.4 2103.19,-187.75"/>
<polygon fill="midnightblue" stroke="midnightblue" points="2078.31,-214.04 2074.94,-224.08 2083.84,-218.34 2078.31,-214.04"/>
</g>
<!-- Node51&#45;&gt;Node47 -->
<g id="edge72" class="edge">
<title>Node51&#45;&gt;Node47</title>
<path fill="none" stroke="midnightblue" d="M2042.19,-219.73C2022.75,-209.73 1996.65,-196.31 1979.83,-187.65"/>
<polygon fill="midnightblue" stroke="midnightblue" points="2040.64,-222.86 2051.13,-224.32 2043.84,-216.64 2040.64,-222.86"/>
</g>
<!-- Node53&#45;&gt;Node44 -->
<g id="edge75" class="edge">
<title>Node53&#45;&gt;Node44</title>
<path fill="none" stroke="midnightblue" d="M2271.45,-275.39C2293,-262.51 2317.64,-242.45 2303,-224 2285.94,-202.51 2215.22,-190.33 2164.33,-184.2"/>
<polygon fill="midnightblue" stroke="midnightblue" points="2269.51,-272.47 2262.53,-280.45 2272.96,-278.56 2269.51,-272.47"/>
</g>
<!-- Node53&#45;&gt;Node52 -->
<g id="edge76" class="edge">
<title>Node53&#45;&gt;Node52</title>
<path fill="none" stroke="midnightblue" d="M2245,-269.8C2245,-260.91 2245,-250.78 2245,-243.75"/>
<polygon fill="midnightblue" stroke="midnightblue" points="2241.5,-270.08 2245,-280.08 2248.5,-270.08 2241.5,-270.08"/>
</g>
</g>
</svg>
