<?xml version="1.0" encoding="UTF-8" standalone="no"?>
<!DOCTYPE svg PUBLIC "-//W3C//DTD SVG 1.1//EN"
 "http://www.w3.org/Graphics/SVG/1.1/DTD/svg11.dtd">
<!-- Generated by graphviz version 2.43.0 (0)
 -->
<!-- Title: OceanWavesTypes.H Pages: 1 -->
<svg width="905pt" height="252pt"
 viewBox="0.00 0.00 905.00 252.00" xmlns="http://www.w3.org/2000/svg" xmlns:xlink="http://www.w3.org/1999/xlink">
<g id="graph0" class="graph" transform="scale(1 1) rotate(0) translate(4 248)">
<title>OceanWavesTypes.H</title>
<polygon fill="white" stroke="transparent" points="-4,4 -4,-248 901,-248 901,4 -4,4"/>
<!-- Node1 -->
<g id="node1" class="node">
<title>Node1</title>
<g id="a_node1"><a xlink:title=" ">
<polygon fill="#bfbfbf" stroke="black" points="338.99,-224.5 338.99,-243.5 456.99,-243.5 456.99,-224.5 338.99,-224.5"/>
<text text-anchor="middle" x="397.99" y="-231.5" font-family="Helvetica,sans-Serif" font-size="10.00">OceanWavesTypes.H</text>
</a>
</g>
</g>
<!-- Node2 -->
<g id="node2" class="node">
<title>Node2</title>
<g id="a_node2"><a xlink:href="_ocean_waves_model_8_h.html" target="_top" xlink:title=" ">
<polygon fill="white" stroke="black" points="143.99,-56.5 143.99,-75.5 263.99,-75.5 263.99,-56.5 143.99,-56.5"/>
<text text-anchor="middle" x="203.99" y="-63.5" font-family="Helvetica,sans-Serif" font-size="10.00">OceanWavesModel.H</text>
</a>
</g>
</g>
<!-- Node1&#45;&gt;Node2 -->
<g id="edge1" class="edge">
<title>Node1&#45;&gt;Node2</title>
<path fill="none" stroke="midnightblue" d="M357.24,-221.23C336.56,-213.91 311.9,-203.01 292.99,-188 251.11,-154.77 219.23,-97.17 208.19,-75.54"/>
<polygon fill="midnightblue" stroke="midnightblue" points="356.12,-224.55 366.72,-224.44 358.37,-217.92 356.12,-224.55"/>
</g>
<!-- Node8 -->
<g id="node8" class="node">
<title>Node8</title>
<g id="a_node8"><a xlink:href="_ocean_waves_ops_8_h.html" target="_top" xlink:title=" ">
<polygon fill="white" stroke="black" points="302.49,-168.5 302.49,-187.5 411.49,-187.5 411.49,-168.5 302.49,-168.5"/>
<text text-anchor="middle" x="356.99" y="-175.5" font-family="Helvetica,sans-Serif" font-size="10.00">OceanWavesOps.H</text>
</a>
</g>
</g>
<!-- Node1&#45;&gt;Node8 -->
<g id="edge7" class="edge">
<title>Node1&#45;&gt;Node8</title>
<path fill="none" stroke="midnightblue" d="M384.97,-215.86C377.87,-206.5 369.38,-195.33 363.63,-187.75"/>
<polygon fill="midnightblue" stroke="midnightblue" points="382.38,-218.24 391.22,-224.08 387.96,-214 382.38,-218.24"/>
</g>
<!-- Node11 -->
<g id="node11" class="node">
<title>Node11</title>
<g id="a_node11"><a xlink:href="relaxation__zones__ops_8_h.html" target="_top" xlink:title=" ">
<polygon fill="white" stroke="black" points="373.49,-112.5 373.49,-131.5 506.49,-131.5 506.49,-112.5 373.49,-112.5"/>
<text text-anchor="middle" x="439.99" y="-119.5" font-family="Helvetica,sans-Serif" font-size="10.00">relaxation_zones_ops.H</text>
</a>
</g>
</g>
<!-- Node1&#45;&gt;Node11 -->
<g id="edge23" class="edge">
<title>Node1&#45;&gt;Node11</title>
<path fill="none" stroke="midnightblue" d="M407.45,-215.28C411.6,-207.11 416.35,-197.2 419.99,-188 427.8,-168.24 434.51,-144.13 437.81,-131.56"/>
<polygon fill="midnightblue" stroke="midnightblue" points="404.3,-213.73 402.79,-224.22 410.51,-216.97 404.3,-213.73"/>
</g>
<!-- Node15 -->
<g id="node15" class="node">
<title>Node15</title>
<g id="a_node15"><a xlink:href="_relaxation_zones_8_h.html" target="_top" xlink:title=" ">
<polygon fill="white" stroke="black" points="491.99,-168.5 491.99,-187.5 601.99,-187.5 601.99,-168.5 491.99,-168.5"/>
<text text-anchor="middle" x="546.99" y="-175.5" font-family="Helvetica,sans-Serif" font-size="10.00">RelaxationZones.H</text>
</a>
</g>
</g>
<!-- Node1&#45;&gt;Node15 -->
<g id="edge24" class="edge">
<title>Node1&#45;&gt;Node15</title>
<path fill="none" stroke="midnightblue" d="M431.36,-220.91C459.37,-210.75 498.68,-196.51 523.49,-187.52"/>
<polygon fill="midnightblue" stroke="midnightblue" points="429.8,-217.75 421.6,-224.44 432.19,-224.33 429.8,-217.75"/>
</g>
<!-- Node3 -->
<g id="node3" class="node">
<title>Node3</title>
<g id="a_node3"><a xlink:href="_ocean_waves_8cpp.html" target="_top" xlink:title=" ">
<polygon fill="white" stroke="black" points="153.99,-0.5 153.99,-19.5 253.99,-19.5 253.99,-0.5 153.99,-0.5"/>
<text text-anchor="middle" x="203.99" y="-7.5" font-family="Helvetica,sans-Serif" font-size="10.00">OceanWaves.cpp</text>
</a>
</g>
</g>
<!-- Node2&#45;&gt;Node3 -->
<g id="edge2" class="edge">
<title>Node2&#45;&gt;Node3</title>
<path fill="none" stroke="midnightblue" d="M203.99,-45.8C203.99,-36.91 203.99,-26.78 203.99,-19.75"/>
<polygon fill="midnightblue" stroke="midnightblue" points="200.49,-46.08 203.99,-56.08 207.49,-46.08 200.49,-46.08"/>
</g>
<!-- Node4 -->
<g id="node4" class="node">
<title>Node4</title>
<g id="a_node4"><a xlink:href="_h_o_s_waves_8cpp.html" target="_top" xlink:title=" ">
<polygon fill="white" stroke="black" points="624.99,-0.5 624.99,-19.5 714.99,-19.5 714.99,-0.5 624.99,-0.5"/>
<text text-anchor="middle" x="669.99" y="-7.5" font-family="Helvetica,sans-Serif" font-size="10.00">HOSWaves.cpp</text>
</a>
</g>
</g>
<!-- Node2&#45;&gt;Node4 -->
<g id="edge3" class="edge">
<title>Node2&#45;&gt;Node4</title>
<path fill="none" stroke="midnightblue" d="M274.19,-55.87C407.68,-39.67 552.77,-23.69 624.71,-15.88"/>
<polygon fill="midnightblue" stroke="midnightblue" points="273.69,-52.4 264.19,-57.09 274.54,-59.35 273.69,-52.4"/>
</g>
<!-- Node5 -->
<g id="node5" class="node">
<title>Node5</title>
<g id="a_node5"><a xlink:href="_linear_waves_8cpp.html" target="_top" xlink:title=" ">
<polygon fill="white" stroke="black" points="19.49,-0.5 19.49,-19.5 118.49,-19.5 118.49,-0.5 19.49,-0.5"/>
<text text-anchor="middle" x="68.99" y="-7.5" font-family="Helvetica,sans-Serif" font-size="10.00">LinearWaves.cpp</text>
</a>
</g>
</g>
<!-- Node2&#45;&gt;Node5 -->
<g id="edge4" class="edge">
<title>Node2&#45;&gt;Node5</title>
<path fill="none" stroke="midnightblue" d="M173.08,-52.64C147.75,-42.5 112.55,-28.43 90.28,-19.52"/>
<polygon fill="midnightblue" stroke="midnightblue" points="172.01,-55.98 182.6,-56.44 174.61,-49.48 172.01,-55.98"/>
</g>
<!-- Node6 -->
<g id="node6" class="node">
<title>Node6</title>
<g id="a_node6"><a xlink:href="_stokes_waves_8cpp.html" target="_top" xlink:title=" ">
<polygon fill="white" stroke="black" points="452.49,-0.5 452.49,-19.5 553.49,-19.5 553.49,-0.5 452.49,-0.5"/>
<text text-anchor="middle" x="502.99" y="-7.5" font-family="Helvetica,sans-Serif" font-size="10.00">StokesWaves.cpp</text>
</a>
</g>
</g>
<!-- Node2&#45;&gt;Node6 -->
<g id="edge5" class="edge">
<title>Node2&#45;&gt;Node6</title>
<path fill="none" stroke="midnightblue" d="M261.22,-54.66C317.72,-44.46 403.11,-29.04 455.83,-19.52"/>
<polygon fill="midnightblue" stroke="midnightblue" points="260.58,-51.22 251.36,-56.44 261.83,-58.11 260.58,-51.22"/>
</g>
<!-- Node7 -->
<g id="node7" class="node">
<title>Node7</title>
<g id="a_node7"><a xlink:href="_w2_a_waves_8cpp.html" target="_top" xlink:title=" ">
<polygon fill="white" stroke="black" points="786.49,-0.5 786.49,-19.5 877.49,-19.5 877.49,-0.5 786.49,-0.5"/>
<text text-anchor="middle" x="831.99" y="-7.5" font-family="Helvetica,sans-Serif" font-size="10.00">W2AWaves.cpp</text>
</a>
</g>
</g>
<!-- Node2&#45;&gt;Node7 -->
<g id="edge6" class="edge">
<title>Node2&#45;&gt;Node7</title>
<path fill="none" stroke="midnightblue" d="M274.15,-55.92C474.64,-35.03 526.8,-36.09 723.99,-20 744.43,-18.33 767.04,-16.45 786.27,-14.85"/>
<polygon fill="midnightblue" stroke="midnightblue" points="273.76,-52.45 264.18,-56.97 274.49,-59.41 273.76,-52.45"/>
</g>
<!-- Node8&#45;&gt;Node2 -->
<g id="edge8" class="edge">
<title>Node8&#45;&gt;Node2</title>
<path fill="none" stroke="midnightblue" d="M339.05,-161.3C323.17,-147.68 299.15,-127.73 276.99,-112 257.68,-98.3 234.2,-84.26 219.17,-75.58"/>
<polygon fill="midnightblue" stroke="midnightblue" points="337.11,-164.25 346.97,-168.15 341.69,-158.96 337.11,-164.25"/>
</g>
<!-- Node9 -->
<g id="node9" class="node">
<title>Node9</title>
<g id="a_node9"><a xlink:href="hos__waves__ops_8_h.html" target="_top" xlink:title=" ">
<polygon fill="white" stroke="black" points="617.99,-56.5 617.99,-75.5 721.99,-75.5 721.99,-56.5 617.99,-56.5"/>
<text text-anchor="middle" x="669.99" y="-63.5" font-family="Helvetica,sans-Serif" font-size="10.00">hos_waves_ops.H</text>
</a>
</g>
</g>
<!-- Node8&#45;&gt;Node9 -->
<g id="edge9" class="edge">
<title>Node8&#45;&gt;Node9</title>
<path fill="none" stroke="midnightblue" d="M422,-172.01C490.54,-165.74 593.06,-153.14 625.99,-132 647.32,-118.31 660.88,-90.2 666.7,-75.85"/>
<polygon fill="midnightblue" stroke="midnightblue" points="421.38,-168.56 411.73,-172.93 422,-175.53 421.38,-168.56"/>
</g>
<!-- Node10 -->
<g id="node10" class="node">
<title>Node10</title>
<g id="a_node10"><a xlink:href="linear__waves__ops_8_h.html" target="_top" xlink:title=" ">
<polygon fill="white" stroke="black" points="11.99,-56.5 11.99,-75.5 125.99,-75.5 125.99,-56.5 11.99,-56.5"/>
<text text-anchor="middle" x="68.99" y="-63.5" font-family="Helvetica,sans-Serif" font-size="10.00">linear_waves_ops.H</text>
</a>
</g>
</g>
<!-- Node8&#45;&gt;Node10 -->
<g id="edge11" class="edge">
<title>Node8&#45;&gt;Node10</title>
<path fill="none" stroke="midnightblue" d="M324.85,-164.73C265.99,-142.25 142.27,-94.99 91.48,-75.59"/>
<polygon fill="midnightblue" stroke="midnightblue" points="323.8,-168.07 334.39,-168.37 326.29,-161.53 323.8,-168.07"/>
</g>
<!-- Node8&#45;&gt;Node11 -->
<g id="edge13" class="edge">
<title>Node8&#45;&gt;Node11</title>
<path fill="none" stroke="midnightblue" d="M379.09,-162.62C394.25,-152.76 413.87,-139.99 426.68,-131.65"/>
<polygon fill="midnightblue" stroke="midnightblue" points="376.8,-159.94 370.32,-168.32 380.61,-165.8 376.8,-159.94"/>
</g>
<!-- Node13 -->
<g id="node13" class="node">
<title>Node13</title>
<g id="a_node13"><a xlink:href="stokes__waves__ops_8_h.html" target="_top" xlink:title=" ">
<polygon fill="white" stroke="black" points="443.99,-56.5 443.99,-75.5 561.99,-75.5 561.99,-56.5 443.99,-56.5"/>
<text text-anchor="middle" x="502.99" y="-63.5" font-family="Helvetica,sans-Serif" font-size="10.00">stokes_waves_ops.H</text>
</a>
</g>
</g>
<!-- Node8&#45;&gt;Node13 -->
<g id="edge21" class="edge">
<title>Node8&#45;&gt;Node13</title>
<path fill="none" stroke="midnightblue" d="M353.94,-158.19C352.74,-143.98 353.59,-124.79 363.99,-112 376.31,-96.84 424.1,-83.64 460.24,-75.52"/>
<polygon fill="midnightblue" stroke="midnightblue" points="350.49,-158.83 355.21,-168.31 357.44,-157.96 350.49,-158.83"/>
</g>
<!-- Node14 -->
<g id="node14" class="node">
<title>Node14</title>
<g id="a_node14"><a xlink:href="waves2amr__ops_8_h.html" target="_top" xlink:title=" ">
<polygon fill="white" stroke="black" points="778.49,-56.5 778.49,-75.5 885.49,-75.5 885.49,-56.5 778.49,-56.5"/>
<text text-anchor="middle" x="831.99" y="-63.5" font-family="Helvetica,sans-Serif" font-size="10.00">waves2amr_ops.H</text>
</a>
</g>
</g>
<!-- Node8&#45;&gt;Node14 -->
<g id="edge22" class="edge">
<title>Node8&#45;&gt;Node14</title>
<path fill="none" stroke="midnightblue" d="M421.65,-172.05C528.17,-163.57 731.81,-145.82 761.99,-132 790.33,-119.02 814.8,-90.05 825.79,-75.57"/>
<polygon fill="midnightblue" stroke="midnightblue" points="421.35,-168.56 411.66,-172.84 421.9,-175.54 421.35,-168.56"/>
</g>
<!-- Node9&#45;&gt;Node4 -->
<g id="edge10" class="edge">
<title>Node9&#45;&gt;Node4</title>
<path fill="none" stroke="midnightblue" d="M669.99,-45.8C669.99,-36.91 669.99,-26.78 669.99,-19.75"/>
<polygon fill="midnightblue" stroke="midnightblue" points="666.49,-46.08 669.99,-56.08 673.49,-46.08 666.49,-46.08"/>
</g>
<!-- Node10&#45;&gt;Node5 -->
<g id="edge12" class="edge">
<title>Node10&#45;&gt;Node5</title>
<path fill="none" stroke="midnightblue" d="M68.99,-45.8C68.99,-36.91 68.99,-26.78 68.99,-19.75"/>
<polygon fill="midnightblue" stroke="midnightblue" points="65.49,-46.08 68.99,-56.08 72.49,-46.08 65.49,-46.08"/>
</g>
<!-- Node11&#45;&gt;Node9 -->
<g id="edge14" class="edge">
<title>Node11&#45;&gt;Node9</title>
<path fill="none" stroke="midnightblue" d="M486.19,-110.15C529.64,-99.95 593.83,-84.88 633.71,-75.52"/>
<polygon fill="midnightblue" stroke="midnightblue" points="485.37,-106.75 476.43,-112.44 486.97,-113.57 485.37,-106.75"/>
</g>
<!-- Node11&#45;&gt;Node10 -->
<g id="edge15" class="edge">
<title>Node11&#45;&gt;Node10</title>
<path fill="none" stroke="midnightblue" d="M371.08,-110.97C300.57,-100.71 192.25,-84.94 126.28,-75.34"/>
<polygon fill="midnightblue" stroke="midnightblue" points="370.8,-114.47 381.2,-112.44 371.81,-107.54 370.8,-114.47"/>
</g>
<!-- Node12 -->
<g id="node12" class="node">
<title>Node12</title>
<g id="a_node12"><a xlink:href="relaxation__zones__ops_8cpp.html" target="_top" xlink:title=" ">
<polygon fill="white" stroke="black" points="282.49,-56.5 282.49,-75.5 425.49,-75.5 425.49,-56.5 282.49,-56.5"/>
<text text-anchor="middle" x="353.99" y="-63.5" font-family="Helvetica,sans-Serif" font-size="10.00">relaxation_zones_ops.cpp</text>
</a>
</g>
</g>
<!-- Node11&#45;&gt;Node12 -->
<g id="edge16" class="edge">
<title>Node11&#45;&gt;Node12</title>
<path fill="none" stroke="midnightblue" d="M417.53,-106.9C401.76,-97 381.17,-84.07 367.77,-75.65"/>
<polygon fill="midnightblue" stroke="midnightblue" points="415.84,-109.97 426.17,-112.32 419.56,-104.04 415.84,-109.97"/>
</g>
<!-- Node11&#45;&gt;Node13 -->
<g id="edge17" class="edge">
<title>Node11&#45;&gt;Node13</title>
<path fill="none" stroke="midnightblue" d="M458.03,-105.54C469.26,-95.91 483.31,-83.87 492.68,-75.83"/>
<polygon fill="midnightblue" stroke="midnightblue" points="455.42,-103.16 450.11,-112.32 459.98,-108.47 455.42,-103.16"/>
</g>
<!-- Node11&#45;&gt;Node14 -->
<g id="edge19" class="edge">
<title>Node11&#45;&gt;Node14</title>
<path fill="none" stroke="midnightblue" d="M512.2,-111.05C589.2,-100.45 709.34,-83.9 778.35,-74.39"/>
<polygon fill="midnightblue" stroke="midnightblue" points="511.53,-107.61 502.1,-112.44 512.48,-114.55 511.53,-107.61"/>
</g>
<!-- Node13&#45;&gt;Node6 -->
<g id="edge18" class="edge">
<title>Node13&#45;&gt;Node6</title>
<path fill="none" stroke="midnightblue" d="M502.99,-45.8C502.99,-36.91 502.99,-26.78 502.99,-19.75"/>
<polygon fill="midnightblue" stroke="midnightblue" points="499.49,-46.08 502.99,-56.08 506.49,-46.08 499.49,-46.08"/>
</g>
<!-- Node14&#45;&gt;Node7 -->
<g id="edge20" class="edge">
<title>Node14&#45;&gt;Node7</title>
<path fill="none" stroke="midnightblue" d="M831.99,-45.8C831.99,-36.91 831.99,-26.78 831.99,-19.75"/>
<polygon fill="midnightblue" stroke="midnightblue" points="828.49,-46.08 831.99,-56.08 835.49,-46.08 828.49,-46.08"/>
</g>
<!-- Node15&#45;&gt;Node11 -->
<g id="edge31" class="edge">
<title>Node15&#45;&gt;Node11</title>
<path fill="none" stroke="midnightblue" d="M520.68,-163.73C500.87,-153.73 474.28,-140.31 457.14,-131.65"/>
<polygon fill="midnightblue" stroke="midnightblue" points="519.29,-166.94 529.79,-168.32 522.44,-160.69 519.29,-166.94"/>
</g>
<!-- Node16 -->
<g id="node16" class="node">
<title>Node16</title>
<g id="a_node16"><a xlink:href="_h_o_s_waves_8_h.html" target="_top" xlink:title=" ">
<polygon fill="white" stroke="black" points="672.99,-112.5 672.99,-131.5 752.99,-131.5 752.99,-112.5 672.99,-112.5"/>
<text text-anchor="middle" x="712.99" y="-119.5" font-family="Helvetica,sans-Serif" font-size="10.00">HOSWaves.H</text>
</a>
</g>
</g>
<!-- Node15&#45;&gt;Node16 -->
<g id="edge25" class="edge">
<title>Node15&#45;&gt;Node16</title>
<path fill="none" stroke="midnightblue" d="M582.94,-165.3C614.22,-155.13 658.81,-140.62 686.81,-131.52"/>
<polygon fill="midnightblue" stroke="midnightblue" points="581.72,-162.02 573.29,-168.44 583.88,-168.68 581.72,-162.02"/>
</g>
<!-- Node17 -->
<g id="node17" class="node">
<title>Node17</title>
<g id="a_node17"><a xlink:href="_linear_waves_8_h.html" target="_top" xlink:title=" ">
<polygon fill="white" stroke="black" points="24.49,-112.5 24.49,-131.5 113.49,-131.5 113.49,-112.5 24.49,-112.5"/>
<text text-anchor="middle" x="68.99" y="-119.5" font-family="Helvetica,sans-Serif" font-size="10.00">LinearWaves.H</text>
</a>
</g>
</g>
<!-- Node15&#45;&gt;Node17 -->
<g id="edge28" class="edge">
<title>Node15&#45;&gt;Node17</title>
<path fill="none" stroke="midnightblue" d="M481.53,-169.61C382.78,-158.45 198.26,-137.6 113.56,-128.04"/>
<polygon fill="midnightblue" stroke="midnightblue" points="481.36,-173.11 491.69,-170.75 482.14,-166.15 481.36,-173.11"/>
</g>
<!-- Node18 -->
<g id="node18" class="node">
<title>Node18</title>
<g id="a_node18"><a xlink:href="_stokes_waves_8_h.html" target="_top" xlink:title=" ">
<polygon fill="white" stroke="black" points="524.99,-112.5 524.99,-131.5 616.99,-131.5 616.99,-112.5 524.99,-112.5"/>
<text text-anchor="middle" x="570.99" y="-119.5" font-family="Helvetica,sans-Serif" font-size="10.00">StokesWaves.H</text>
</a>
</g>
</g>
<!-- Node15&#45;&gt;Node18 -->
<g id="edge32" class="edge">
<title>Node15&#45;&gt;Node18</title>
<path fill="none" stroke="midnightblue" d="M555.12,-158.69C559.17,-149.59 563.87,-139.01 567.1,-131.75"/>
<polygon fill="midnightblue" stroke="midnightblue" points="551.81,-157.52 550.95,-168.08 558.21,-160.37 551.81,-157.52"/>
</g>
<!-- Node19 -->
<g id="node19" class="node">
<title>Node19</title>
<g id="a_node19"><a xlink:href="_w2_a_waves_8_h.html" target="_top" xlink:title=" ">
<polygon fill="white" stroke="black" points="809.49,-112.5 809.49,-131.5 890.49,-131.5 890.49,-112.5 809.49,-112.5"/>
<text text-anchor="middle" x="849.99" y="-119.5" font-family="Helvetica,sans-Serif" font-size="10.00">W2AWaves.H</text>
</a>
</g>
</g>
<!-- Node15&#45;&gt;Node19 -->
<g id="edge35" class="edge">
<title>Node15&#45;&gt;Node19</title>
<path fill="none" stroke="midnightblue" d="M605.07,-166.65C665.01,-155.97 756.95,-139.58 809.47,-130.22"/>
<polygon fill="midnightblue" stroke="midnightblue" points="604.23,-163.24 595,-168.44 605.46,-170.13 604.23,-163.24"/>
</g>
<!-- Node16&#45;&gt;Node4 -->
<g id="edge27" class="edge">
<title>Node16&#45;&gt;Node4</title>
<path fill="none" stroke="midnightblue" d="M724.54,-103.44C731.86,-89.96 738.63,-71.14 730.99,-56 722.44,-39.08 704.21,-26.96 689.89,-19.59"/>
<polygon fill="midnightblue" stroke="midnightblue" points="721.44,-101.81 719.32,-112.19 727.45,-105.4 721.44,-101.81"/>
</g>
<!-- Node16&#45;&gt;Node9 -->
<g id="edge26" class="edge">
<title>Node16&#45;&gt;Node9</title>
<path fill="none" stroke="midnightblue" d="M699.56,-104.14C692.07,-94.74 683.05,-83.4 676.95,-75.75"/>
<polygon fill="midnightblue" stroke="midnightblue" points="696.92,-106.44 705.89,-112.08 702.39,-102.08 696.92,-106.44"/>
</g>
<!-- Node17&#45;&gt;Node5 -->
<g id="edge30" class="edge">
<title>Node17&#45;&gt;Node5</title>
<path fill="none" stroke="midnightblue" d="M39.14,-108.04C16.7,-96.27 -8.37,-77.49 2.99,-56 12.12,-38.71 31.22,-26.82 46.53,-19.62"/>
<polygon fill="midnightblue" stroke="midnightblue" points="37.64,-111.21 48.16,-112.5 40.74,-104.93 37.64,-111.21"/>
</g>
<!-- Node17&#45;&gt;Node10 -->
<g id="edge29" class="edge">
<title>Node17&#45;&gt;Node10</title>
<path fill="none" stroke="midnightblue" d="M68.99,-101.8C68.99,-92.91 68.99,-82.78 68.99,-75.75"/>
<polygon fill="midnightblue" stroke="midnightblue" points="65.49,-102.08 68.99,-112.08 72.49,-102.08 65.49,-102.08"/>
</g>
<!-- Node18&#45;&gt;Node6 -->
<g id="edge34" class="edge">
<title>Node18&#45;&gt;Node6</title>
<path fill="none" stroke="midnightblue" d="M575.49,-102.26C577.74,-88.62 578.58,-70.13 570.99,-56 561.6,-38.54 542.15,-26.72 526.44,-19.59"/>
<polygon fill="midnightblue" stroke="midnightblue" points="572,-101.88 573.42,-112.38 578.85,-103.28 572,-101.88"/>
</g>
<!-- Node18&#45;&gt;Node13 -->
<g id="edge33" class="edge">
<title>Node18&#45;&gt;Node13</title>
<path fill="none" stroke="midnightblue" d="M552.22,-106.1C539.99,-96.38 524.43,-84.03 514.11,-75.83"/>
<polygon fill="midnightblue" stroke="midnightblue" points="550.05,-108.85 560.06,-112.32 554.41,-103.36 550.05,-108.85"/>
</g>
<!-- Node19&#45;&gt;Node7 -->
<g id="edge36" class="edge">
<title>Node19&#45;&gt;Node7</title>
<path fill="none" stroke="midnightblue" d="M871.35,-105.99C886.71,-93.23 903.23,-74.13 893.99,-56 885.29,-38.94 866.76,-26.83 852.21,-19.51"/>
<polygon fill="midnightblue" stroke="midnightblue" points="868.86,-103.5 863.1,-112.39 873.15,-109.03 868.86,-103.5"/>
</g>
<!-- Node19&#45;&gt;Node14 -->
<g id="edge37" class="edge">
<title>Node19&#45;&gt;Node14</title>
<path fill="none" stroke="midnightblue" d="M843.78,-102.4C840.77,-93.36 837.3,-82.94 834.9,-75.75"/>
<polygon fill="midnightblue" stroke="midnightblue" points="840.53,-103.7 847.01,-112.08 847.17,-101.49 840.53,-103.7"/>
</g>
</g>
</svg>
