<?xml version="1.0" encoding="UTF-8" standalone="no"?>
<!DOCTYPE svg PUBLIC "-//W3C//DTD SVG 1.1//EN"
 "http://www.w3.org/Graphics/SVG/1.1/DTD/svg11.dtd">
<!-- Generated by graphviz version 2.43.0 (0)
 -->
<!-- Title: Physics.H Pages: 1 -->
<svg width="4093pt" height="196pt"
 viewBox="0.00 0.00 4093.20 196.00" xmlns="http://www.w3.org/2000/svg" xmlns:xlink="http://www.w3.org/1999/xlink">
<g id="graph0" class="graph" transform="scale(1 1) rotate(0) translate(4 192)">
<title>Physics.H</title>
<polygon fill="white" stroke="transparent" points="-4,4 -4,-192 4089.2,-192 4089.2,4 -4,4"/>
<!-- Node1 -->
<g id="node1" class="node">
<title>Node1</title>
<g id="a_node1"><a xlink:title=" ">
<polygon fill="#bfbfbf" stroke="black" points="2065.2,-168.5 2065.2,-187.5 2129.2,-187.5 2129.2,-168.5 2065.2,-168.5"/>
<text text-anchor="middle" x="2097.2" y="-175.5" font-family="Helvetica,sans-Serif" font-size="10.00">Physics.H</text>
</a>
</g>
</g>
<!-- Node2 -->
<g id="node2" class="node">
<title>Node2</title>
<g id="a_node2"><a xlink:href="_c_f_d_sim_8_h.html" target="_top" xlink:title=" ">
<polygon fill="white" stroke="red" points="1438.2,-112.5 1438.2,-131.5 1504.2,-131.5 1504.2,-112.5 1438.2,-112.5"/>
<text text-anchor="middle" x="1471.2" y="-119.5" font-family="Helvetica,sans-Serif" font-size="10.00">CFDSim.H</text>
</a>
</g>
</g>
<!-- Node1&#45;&gt;Node2 -->
<g id="edge1" class="edge">
<title>Node1&#45;&gt;Node2</title>
<path fill="none" stroke="midnightblue" d="M2054.9,-175.33C1959.04,-171.2 1718.06,-158.82 1518.2,-132 1513.67,-131.39 1508.92,-130.63 1504.25,-129.81"/>
<polygon fill="midnightblue" stroke="midnightblue" points="2054.92,-178.84 2065.06,-175.76 2055.21,-171.84 2054.92,-178.84"/>
</g>
<!-- Node5 -->
<g id="node4" class="node">
<title>Node5</title>
<g id="a_node4"><a xlink:href="_channel_flow_8_h.html" target="_top" xlink:title=" ">
<polygon fill="white" stroke="red" points="1390.7,-0.5 1390.7,-19.5 1479.7,-19.5 1479.7,-0.5 1390.7,-0.5"/>
<text text-anchor="middle" x="1435.2" y="-7.5" font-family="Helvetica,sans-Serif" font-size="10.00">ChannelFlow.H</text>
</a>
</g>
</g>
<!-- Node1&#45;&gt;Node5 -->
<g id="edge33" class="edge">
<title>Node1&#45;&gt;Node5</title>
<path fill="none" stroke="midnightblue" d="M2054.72,-176.76C1762.74,-175.01 63.46,-163.51 21.2,-132 0.24,-116.37 7.25,-101.83 3.2,-76 1.82,-67.22 -2.99,-62.38 3.2,-56 27.93,-30.48 1150.61,-14.65 1390.43,-11.56"/>
<polygon fill="midnightblue" stroke="midnightblue" points="2054.87,-180.26 2064.89,-176.82 2054.91,-173.26 2054.87,-180.26"/>
</g>
<!-- Node139 -->
<g id="node18" class="node">
<title>Node139</title>
<g id="a_node18"><a xlink:href="_burggraf_flow_8_h.html" target="_top" xlink:title=" ">
<polygon fill="white" stroke="red" points="1974.2,-56.5 1974.2,-75.5 2066.2,-75.5 2066.2,-56.5 1974.2,-56.5"/>
<text text-anchor="middle" x="2020.2" y="-63.5" font-family="Helvetica,sans-Serif" font-size="10.00">BurggrafFlow.H</text>
</a>
</g>
</g>
<!-- Node1&#45;&gt;Node139 -->
<g id="edge32" class="edge">
<title>Node1&#45;&gt;Node139</title>
<path fill="none" stroke="midnightblue" d="M2054.94,-176.48C1938.16,-174.59 1617.62,-166.31 1586.2,-132 1529.44,-70.02 1876.79,-86.26 1960.2,-76 1964.7,-75.45 1969.37,-74.83 1974.05,-74.17"/>
<polygon fill="midnightblue" stroke="midnightblue" points="2054.89,-179.97 2064.94,-176.63 2054.99,-172.98 2054.89,-179.97"/>
</g>
<!-- Node141 -->
<g id="node19" class="node">
<title>Node141</title>
<g id="a_node19"><a xlink:href="_convecting_taylor_vortex_8_h.html" target="_top" xlink:title=" ">
<polygon fill="white" stroke="red" points="2084.7,-56.5 2084.7,-75.5 2227.7,-75.5 2227.7,-56.5 2084.7,-56.5"/>
<text text-anchor="middle" x="2156.2" y="-63.5" font-family="Helvetica,sans-Serif" font-size="10.00">ConvectingTaylorVortex.H</text>
</a>
</g>
</g>
<!-- Node1&#45;&gt;Node141 -->
<g id="edge34" class="edge">
<title>Node1&#45;&gt;Node141</title>
<path fill="none" stroke="midnightblue" d="M2054.85,-176.41C1939.28,-174.36 1625.04,-165.72 1594.2,-132 1588.2,-125.44 1588.15,-118.52 1594.2,-112 1630.66,-72.71 2021.84,-80.96 2075.2,-76 2078.3,-75.71 2081.47,-75.41 2084.66,-75.09"/>
<polygon fill="midnightblue" stroke="midnightblue" points="2055.02,-179.91 2065.07,-176.58 2055.14,-172.91 2055.02,-179.91"/>
</g>
<!-- Node143 -->
<g id="node20" class="node">
<title>Node143</title>
<g id="a_node20"><a xlink:href="_ekman_spiral_8_h.html" target="_top" xlink:title=" ">
<polygon fill="white" stroke="red" points="2245.7,-56.5 2245.7,-75.5 2334.7,-75.5 2334.7,-56.5 2245.7,-56.5"/>
<text text-anchor="middle" x="2290.2" y="-63.5" font-family="Helvetica,sans-Serif" font-size="10.00">EkmanSpiral.H</text>
</a>
</g>
</g>
<!-- Node1&#45;&gt;Node143 -->
<g id="edge35" class="edge">
<title>Node1&#45;&gt;Node143</title>
<path fill="none" stroke="midnightblue" d="M2054.72,-177.48C1929.32,-178.18 1573.06,-174.76 1632.2,-112 1678.38,-62.99 2170.3,-83.65 2237.2,-76 2239.89,-75.69 2242.65,-75.34 2245.43,-74.95"/>
<polygon fill="midnightblue" stroke="midnightblue" points="2055.11,-180.97 2065.08,-177.41 2055.06,-173.97 2055.11,-180.97"/>
</g>
<!-- Node145 -->
<g id="node21" class="node">
<title>Node145</title>
<g id="a_node21"><a xlink:href="_hybrid_r_a_n_s_l_e_s_a_b_l_8_h.html" target="_top" xlink:title=" ">
<polygon fill="white" stroke="red" points="2352.7,-56.5 2352.7,-75.5 2475.7,-75.5 2475.7,-56.5 2352.7,-56.5"/>
<text text-anchor="middle" x="2414.2" y="-63.5" font-family="Helvetica,sans-Serif" font-size="10.00">HybridRANSLESABL.H</text>
</a>
</g>
</g>
<!-- Node1&#45;&gt;Node145 -->
<g id="edge37" class="edge">
<title>Node1&#45;&gt;Node145</title>
<path fill="none" stroke="midnightblue" d="M2055,-176.99C1937.06,-176.25 1616.12,-169.05 1670.2,-112 1696,-84.79 2306.86,-79.39 2344.2,-76 2346.89,-75.76 2349.63,-75.49 2352.39,-75.2"/>
<polygon fill="midnightblue" stroke="midnightblue" points="2055.09,-180.49 2065.1,-177.04 2055.12,-173.49 2055.09,-180.49"/>
</g>
<!-- Node148 -->
<g id="node22" class="node">
<title>Node148</title>
<g id="a_node22"><a xlink:href="_m_m_s_8_h.html" target="_top" xlink:title=" ">
<polygon fill="white" stroke="red" points="2493.7,-56.5 2493.7,-75.5 2544.7,-75.5 2544.7,-56.5 2493.7,-56.5"/>
<text text-anchor="middle" x="2519.2" y="-63.5" font-family="Helvetica,sans-Serif" font-size="10.00">MMS.H</text>
</a>
</g>
</g>
<!-- Node1&#45;&gt;Node148 -->
<g id="edge39" class="edge">
<title>Node1&#45;&gt;Node148</title>
<path fill="none" stroke="midnightblue" d="M2055.02,-176.41C1944.66,-174.15 1659.19,-163.33 1708.2,-112 1738.04,-80.74 2442.49,-82.57 2485.2,-76 2487.86,-75.59 2490.6,-75.06 2493.33,-74.45"/>
<polygon fill="midnightblue" stroke="midnightblue" points="2055.07,-179.91 2065.14,-176.6 2055.21,-172.91 2055.07,-179.91"/>
</g>
<!-- Node161 -->
<g id="node23" class="node">
<title>Node161</title>
<g id="a_node23"><a xlink:href="_synthetic_turbulence_8_h.html" target="_top" xlink:title=" ">
<polygon fill="white" stroke="red" points="2562.7,-56.5 2562.7,-75.5 2687.7,-75.5 2687.7,-56.5 2562.7,-56.5"/>
<text text-anchor="middle" x="2625.2" y="-63.5" font-family="Helvetica,sans-Serif" font-size="10.00">SyntheticTurbulence.H</text>
</a>
</g>
</g>
<!-- Node1&#45;&gt;Node161 -->
<g id="edge53" class="edge">
<title>Node1&#45;&gt;Node161</title>
<path fill="none" stroke="midnightblue" d="M2055.08,-175.83C1951.65,-172.22 1696.69,-158.52 1741.2,-112 1772.45,-79.33 2509.15,-79.85 2554.2,-76 2556.92,-75.77 2559.7,-75.51 2562.51,-75.23"/>
<polygon fill="midnightblue" stroke="midnightblue" points="2055.07,-179.33 2065.19,-176.16 2055.31,-172.33 2055.07,-179.33"/>
</g>
<!-- Node30 -->
<g id="node24" class="node">
<title>Node30</title>
<g id="a_node24"><a xlink:href="icns__advection_8_h.html" target="_top" xlink:title=" ">
<polygon fill="white" stroke="red" points="1750.2,-112.5 1750.2,-131.5 1850.2,-131.5 1850.2,-112.5 1750.2,-112.5"/>
<text text-anchor="middle" x="1800.2" y="-119.5" font-family="Helvetica,sans-Serif" font-size="10.00">icns_advection.H</text>
</a>
</g>
</g>
<!-- Node1&#45;&gt;Node30 -->
<g id="edge25" class="edge">
<title>Node1&#45;&gt;Node30</title>
<path fill="none" stroke="midnightblue" d="M2055.03,-169.33C2000.04,-159.33 1904.13,-141.9 1846.96,-131.5"/>
<polygon fill="midnightblue" stroke="midnightblue" points="2054.67,-172.82 2065.13,-171.17 2055.92,-165.94 2054.67,-172.82"/>
</g>
<!-- Node259 -->
<g id="node25" class="node">
<title>Node259</title>
<g id="a_node25"><a xlink:href="_i_b_8_h.html" target="_top" xlink:title=" ">
<polygon fill="white" stroke="red" points="1868.7,-112.5 1868.7,-131.5 1905.7,-131.5 1905.7,-112.5 1868.7,-112.5"/>
<text text-anchor="middle" x="1887.2" y="-119.5" font-family="Helvetica,sans-Serif" font-size="10.00">IB.H</text>
</a>
</g>
</g>
<!-- Node1&#45;&gt;Node259 -->
<g id="edge26" class="edge">
<title>Node1&#45;&gt;Node259</title>
<path fill="none" stroke="midnightblue" d="M2055.2,-167.48C2018.17,-158.88 1962.85,-145.53 1915.2,-132 1912.16,-131.14 1908.94,-130.16 1905.82,-129.18"/>
<polygon fill="midnightblue" stroke="midnightblue" points="2054.6,-170.93 2065.14,-169.77 2056.18,-164.11 2054.6,-170.93"/>
</g>
<!-- Node97 -->
<g id="node26" class="node">
<title>Node97</title>
<g id="a_node26"><a xlink:href="incflo__advance_8cpp.html" target="_top" xlink:title=" ">
<polygon fill="white" stroke="black" points="1924.2,-112.5 1924.2,-131.5 2034.2,-131.5 2034.2,-112.5 1924.2,-112.5"/>
<text text-anchor="middle" x="1979.2" y="-119.5" font-family="Helvetica,sans-Serif" font-size="10.00">incflo_advance.cpp</text>
</a>
</g>
</g>
<!-- Node1&#45;&gt;Node97 -->
<g id="edge27" class="edge">
<title>Node1&#45;&gt;Node97</title>
<path fill="none" stroke="midnightblue" d="M2069.3,-164.23C2047.23,-154.13 2017.02,-140.31 1997.81,-131.52"/>
<polygon fill="midnightblue" stroke="midnightblue" points="2067.95,-167.46 2078.5,-168.44 2070.87,-161.1 2067.95,-167.46"/>
</g>
<!-- Node260 -->
<g id="node27" class="node">
<title>Node260</title>
<g id="a_node27"><a xlink:href="_ocean_waves_8_h.html" target="_top" xlink:title=" ">
<polygon fill="white" stroke="red" points="2052.2,-112.5 2052.2,-131.5 2142.2,-131.5 2142.2,-112.5 2052.2,-112.5"/>
<text text-anchor="middle" x="2097.2" y="-119.5" font-family="Helvetica,sans-Serif" font-size="10.00">OceanWaves.H</text>
</a>
</g>
</g>
<!-- Node1&#45;&gt;Node260 -->
<g id="edge28" class="edge">
<title>Node1&#45;&gt;Node260</title>
<path fill="none" stroke="midnightblue" d="M2097.2,-157.8C2097.2,-148.91 2097.2,-138.78 2097.2,-131.75"/>
<polygon fill="midnightblue" stroke="midnightblue" points="2093.7,-158.08 2097.2,-168.08 2100.7,-158.08 2093.7,-158.08"/>
</g>
<!-- Node261 -->
<g id="node28" class="node">
<title>Node261</title>
<g id="a_node28"><a xlink:href="_actuator_source_tagging_8_h.html" target="_top" xlink:title=" ">
<polygon fill="white" stroke="red" points="2160.7,-112.5 2160.7,-131.5 2299.7,-131.5 2299.7,-112.5 2160.7,-112.5"/>
<text text-anchor="middle" x="2230.2" y="-119.5" font-family="Helvetica,sans-Serif" font-size="10.00">ActuatorSourceTagging.H</text>
</a>
</g>
</g>
<!-- Node1&#45;&gt;Node261 -->
<g id="edge29" class="edge">
<title>Node1&#45;&gt;Node261</title>
<path fill="none" stroke="midnightblue" d="M2127.65,-164.64C2152.61,-154.5 2187.28,-140.43 2209.23,-131.52"/>
<polygon fill="midnightblue" stroke="midnightblue" points="2126.22,-161.44 2118.28,-168.44 2128.86,-167.92 2126.22,-161.44"/>
</g>
<!-- Node262 -->
<g id="node29" class="node">
<title>Node262</title>
<g id="a_node29"><a xlink:href="_boussinesq_bubble_8_h.html" target="_top" xlink:title=" ">
<polygon fill="white" stroke="red" points="30.2,-112.5 30.2,-131.5 146.2,-131.5 146.2,-112.5 30.2,-112.5"/>
<text text-anchor="middle" x="88.2" y="-119.5" font-family="Helvetica,sans-Serif" font-size="10.00">BoussinesqBubble.H</text>
</a>
</g>
</g>
<!-- Node1&#45;&gt;Node262 -->
<g id="edge30" class="edge">
<title>Node1&#45;&gt;Node262</title>
<path fill="none" stroke="midnightblue" d="M2054.74,-176.58C1851.9,-174.43 961.36,-163.57 232.2,-132 203.92,-130.78 172.55,-128.88 146.33,-127.14"/>
<polygon fill="midnightblue" stroke="midnightblue" points="2054.93,-180.08 2064.96,-176.68 2055,-173.08 2054.93,-180.08"/>
</g>
<!-- Node102 -->
<g id="node30" class="node">
<title>Node102</title>
<g id="a_node30"><a xlink:href="init_8cpp.html" target="_top" xlink:title=" ">
<polygon fill="white" stroke="black" points="12.7,-56.5 12.7,-75.5 65.7,-75.5 65.7,-56.5 12.7,-56.5"/>
<text text-anchor="middle" x="39.2" y="-63.5" font-family="Helvetica,sans-Serif" font-size="10.00">init.cpp</text>
</a>
</g>
</g>
<!-- Node1&#45;&gt;Node102 -->
<g id="edge58" class="edge">
<title>Node1&#45;&gt;Node102</title>
<path fill="none" stroke="midnightblue" d="M2054.96,-176.58C1798.36,-173.98 453.55,-159.1 272.2,-132 193.7,-120.27 104.11,-90.43 62.59,-75.62"/>
<polygon fill="midnightblue" stroke="midnightblue" points="2054.97,-180.08 2065,-176.69 2055.04,-173.09 2054.97,-180.08"/>
</g>
<!-- Node263 -->
<g id="node31" class="node">
<title>Node263</title>
<g id="a_node31"><a xlink:href="_free_stream_8_h.html" target="_top" xlink:title=" ">
<polygon fill="white" stroke="red" points="2317.7,-112.5 2317.7,-131.5 2400.7,-131.5 2400.7,-112.5 2317.7,-112.5"/>
<text text-anchor="middle" x="2359.2" y="-119.5" font-family="Helvetica,sans-Serif" font-size="10.00">FreeStream.H</text>
</a>
</g>
</g>
<!-- Node1&#45;&gt;Node263 -->
<g id="edge36" class="edge">
<title>Node1&#45;&gt;Node263</title>
<path fill="none" stroke="midnightblue" d="M2139.3,-168.32C2188.37,-158.21 2268.95,-141.6 2317.74,-131.55"/>
<polygon fill="midnightblue" stroke="midnightblue" points="2138.41,-164.93 2129.33,-170.38 2139.83,-171.79 2138.41,-164.93"/>
</g>
<!-- Node264 -->
<g id="node32" class="node">
<title>Node264</title>
<g id="a_node32"><a xlink:href="_intermittency_8_h.html" target="_top" xlink:title=" ">
<polygon fill="white" stroke="red" points="2419.2,-112.5 2419.2,-131.5 2511.2,-131.5 2511.2,-112.5 2419.2,-112.5"/>
<text text-anchor="middle" x="2465.2" y="-119.5" font-family="Helvetica,sans-Serif" font-size="10.00">Intermittency.H</text>
</a>
</g>
</g>
<!-- Node1&#45;&gt;Node264 -->
<g id="edge38" class="edge">
<title>Node1&#45;&gt;Node264</title>
<path fill="none" stroke="midnightblue" d="M2139.47,-171.19C2199.64,-162.85 2313.45,-146.87 2410.2,-132 2413.07,-131.56 2416.02,-131.1 2419,-130.63"/>
<polygon fill="midnightblue" stroke="midnightblue" points="2138.65,-167.77 2129.22,-172.61 2139.61,-174.7 2138.65,-167.77"/>
</g>
<!-- Node265 -->
<g id="node33" class="node">
<title>Node265</title>
<g id="a_node33"><a xlink:href="_breaking_waves_8_h.html" target="_top" xlink:title=" ">
<polygon fill="white" stroke="red" points="2529.7,-112.5 2529.7,-131.5 2632.7,-131.5 2632.7,-112.5 2529.7,-112.5"/>
<text text-anchor="middle" x="2581.2" y="-119.5" font-family="Helvetica,sans-Serif" font-size="10.00">BreakingWaves.H</text>
</a>
</g>
</g>
<!-- Node1&#45;&gt;Node265 -->
<g id="edge40" class="edge">
<title>Node1&#45;&gt;Node265</title>
<path fill="none" stroke="midnightblue" d="M2139.51,-173.07C2215.73,-165.87 2381.13,-149.65 2520.2,-132 2523.28,-131.61 2526.45,-131.19 2529.64,-130.76"/>
<polygon fill="midnightblue" stroke="midnightblue" points="2138.98,-169.61 2129.36,-174.03 2139.64,-176.57 2138.98,-169.61"/>
</g>
<!-- Node266 -->
<g id="node34" class="node">
<title>Node266</title>
<g id="a_node34"><a xlink:href="_dam_break_8_h.html" target="_top" xlink:title=" ">
<polygon fill="white" stroke="red" points="2650.7,-112.5 2650.7,-131.5 2729.7,-131.5 2729.7,-112.5 2650.7,-112.5"/>
<text text-anchor="middle" x="2690.2" y="-119.5" font-family="Helvetica,sans-Serif" font-size="10.00">DamBreak.H</text>
</a>
</g>
</g>
<!-- Node1&#45;&gt;Node266 -->
<g id="edge41" class="edge">
<title>Node1&#45;&gt;Node266</title>
<path fill="none" stroke="midnightblue" d="M2139.27,-175.01C2230.96,-170.34 2455.57,-157.13 2642.2,-132 2644.97,-131.63 2647.83,-131.2 2650.7,-130.74"/>
<polygon fill="midnightblue" stroke="midnightblue" points="2139.08,-171.51 2129.27,-175.51 2139.43,-178.5 2139.08,-171.51"/>
</g>
<!-- Node267 -->
<g id="node35" class="node">
<title>Node267</title>
<g id="a_node35"><a xlink:href="_multi_phase_8_h.html" target="_top" xlink:title=" ">
<polygon fill="white" stroke="red" points="366.7,-112.5 366.7,-131.5 447.7,-131.5 447.7,-112.5 366.7,-112.5"/>
<text text-anchor="middle" x="407.2" y="-119.5" font-family="Helvetica,sans-Serif" font-size="10.00">MultiPhase.H</text>
</a>
</g>
</g>
<!-- Node1&#45;&gt;Node267 -->
<g id="edge42" class="edge">
<title>Node1&#45;&gt;Node267</title>
<path fill="none" stroke="midnightblue" d="M2054.95,-176.47C1872.64,-174.06 1135.16,-162.8 530.2,-132 502.72,-130.6 471.84,-128.34 447.89,-126.43"/>
<polygon fill="midnightblue" stroke="midnightblue" points="2055.14,-179.98 2065.18,-176.61 2055.23,-172.98 2055.14,-179.98"/>
</g>
<!-- Node269 -->
<g id="node36" class="node">
<title>Node269</title>
<g id="a_node36"><a xlink:href="_rain_drop_8_h.html" target="_top" xlink:title=" ">
<polygon fill="white" stroke="red" points="2748.2,-112.5 2748.2,-131.5 2820.2,-131.5 2820.2,-112.5 2748.2,-112.5"/>
<text text-anchor="middle" x="2784.2" y="-119.5" font-family="Helvetica,sans-Serif" font-size="10.00">RainDrop.H</text>
</a>
</g>
</g>
<!-- Node1&#45;&gt;Node269 -->
<g id="edge45" class="edge">
<title>Node1&#45;&gt;Node269</title>
<path fill="none" stroke="midnightblue" d="M2139.41,-175.9C2242.36,-172.82 2514.38,-162.24 2739.2,-132 2742.04,-131.62 2744.98,-131.16 2747.92,-130.67"/>
<polygon fill="midnightblue" stroke="midnightblue" points="2139.31,-172.4 2129.41,-176.19 2139.51,-179.4 2139.31,-172.4"/>
</g>
<!-- Node270 -->
<g id="node37" class="node">
<title>Node270</title>
<g id="a_node37"><a xlink:href="_sloshing_tank_8_h.html" target="_top" xlink:title=" ">
<polygon fill="white" stroke="red" points="2838.7,-112.5 2838.7,-131.5 2929.7,-131.5 2929.7,-112.5 2838.7,-112.5"/>
<text text-anchor="middle" x="2884.2" y="-119.5" font-family="Helvetica,sans-Serif" font-size="10.00">SloshingTank.H</text>
</a>
</g>
</g>
<!-- Node1&#45;&gt;Node270 -->
<g id="edge46" class="edge">
<title>Node1&#45;&gt;Node270</title>
<path fill="none" stroke="midnightblue" d="M2139.67,-175.89C2252.35,-172.61 2568.12,-161.31 2829.2,-132 2832.28,-131.65 2835.44,-131.25 2838.63,-130.82"/>
<polygon fill="midnightblue" stroke="midnightblue" points="2139.3,-172.39 2129.41,-176.18 2139.5,-179.39 2139.3,-172.39"/>
</g>
<!-- Node271 -->
<g id="node38" class="node">
<title>Node271</title>
<g id="a_node38"><a xlink:href="_vortex_patch_8_h.html" target="_top" xlink:title=" ">
<polygon fill="white" stroke="red" points="2947.7,-112.5 2947.7,-131.5 3032.7,-131.5 3032.7,-112.5 2947.7,-112.5"/>
<text text-anchor="middle" x="2990.2" y="-119.5" font-family="Helvetica,sans-Serif" font-size="10.00">VortexPatch.H</text>
</a>
</g>
</g>
<!-- Node1&#45;&gt;Node271 -->
<g id="edge47" class="edge">
<title>Node1&#45;&gt;Node271</title>
<path fill="none" stroke="midnightblue" d="M2139.61,-176.55C2263.26,-174.84 2633.95,-166.96 2939.2,-132 2941.97,-131.68 2944.82,-131.31 2947.68,-130.9"/>
<polygon fill="midnightblue" stroke="midnightblue" points="2139.39,-173.05 2129.44,-176.68 2139.48,-180.05 2139.39,-173.05"/>
</g>
<!-- Node272 -->
<g id="node39" class="node">
<title>Node272</title>
<g id="a_node39"><a xlink:href="_vortex_patch_scalar_vel_8_h.html" target="_top" xlink:title=" ">
<polygon fill="white" stroke="red" points="3051.2,-112.5 3051.2,-131.5 3181.2,-131.5 3181.2,-112.5 3051.2,-112.5"/>
<text text-anchor="middle" x="3116.2" y="-119.5" font-family="Helvetica,sans-Serif" font-size="10.00">VortexPatchScalarVel.H</text>
</a>
</g>
</g>
<!-- Node1&#45;&gt;Node272 -->
<g id="edge48" class="edge">
<title>Node1&#45;&gt;Node272</title>
<path fill="none" stroke="midnightblue" d="M2139.67,-176.09C2272.89,-172.99 2694.42,-161.39 3042.2,-132 3045.04,-131.76 3047.93,-131.5 3050.86,-131.21"/>
<polygon fill="midnightblue" stroke="midnightblue" points="2139.4,-172.59 2129.49,-176.32 2139.56,-179.59 2139.4,-172.59"/>
</g>
<!-- Node273 -->
<g id="node40" class="node">
<title>Node273</title>
<g id="a_node40"><a xlink:href="_zalesak_disk_8_h.html" target="_top" xlink:title=" ">
<polygon fill="white" stroke="red" points="3199.2,-112.5 3199.2,-131.5 3287.2,-131.5 3287.2,-112.5 3199.2,-112.5"/>
<text text-anchor="middle" x="3243.2" y="-119.5" font-family="Helvetica,sans-Serif" font-size="10.00">ZalesakDisk.H</text>
</a>
</g>
</g>
<!-- Node1&#45;&gt;Node273 -->
<g id="edge49" class="edge">
<title>Node1&#45;&gt;Node273</title>
<path fill="none" stroke="midnightblue" d="M2139.84,-177.19C2286.41,-177.42 2782.97,-174.78 3190.2,-132 3193.08,-131.7 3196.04,-131.34 3199.01,-130.94"/>
<polygon fill="midnightblue" stroke="midnightblue" points="2139.51,-173.69 2129.5,-177.17 2139.49,-180.69 2139.51,-173.69"/>
</g>
<!-- Node274 -->
<g id="node41" class="node">
<title>Node274</title>
<g id="a_node41"><a xlink:href="_zalesak_disk_scalar_vel_8_h.html" target="_top" xlink:title=" ">
<polygon fill="white" stroke="red" points="3305.7,-112.5 3305.7,-131.5 3438.7,-131.5 3438.7,-112.5 3305.7,-112.5"/>
<text text-anchor="middle" x="3372.2" y="-119.5" font-family="Helvetica,sans-Serif" font-size="10.00">ZalesakDiskScalarVel.H</text>
</a>
</g>
</g>
<!-- Node1&#45;&gt;Node274 -->
<g id="edge50" class="edge">
<title>Node1&#45;&gt;Node274</title>
<path fill="none" stroke="midnightblue" d="M2139.22,-176.64C2293.61,-175.08 2843.99,-167.2 3296.2,-132 3299.25,-131.76 3302.36,-131.5 3305.5,-131.21"/>
<polygon fill="midnightblue" stroke="midnightblue" points="2139.18,-173.14 2129.21,-176.74 2139.25,-180.14 2139.18,-173.14"/>
</g>
<!-- Node275 -->
<g id="node42" class="node">
<title>Node275</title>
<g id="a_node42"><a xlink:href="_rayleigh_taylor_8_h.html" target="_top" xlink:title=" ">
<polygon fill="white" stroke="red" points="3457.2,-112.5 3457.2,-131.5 3555.2,-131.5 3555.2,-112.5 3457.2,-112.5"/>
<text text-anchor="middle" x="3506.2" y="-119.5" font-family="Helvetica,sans-Serif" font-size="10.00">RayleighTaylor.H</text>
</a>
</g>
</g>
<!-- Node1&#45;&gt;Node275 -->
<g id="edge51" class="edge">
<title>Node1&#45;&gt;Node275</title>
<path fill="none" stroke="midnightblue" d="M2139.52,-177.45C2306.33,-178.81 2934.35,-180.25 3448.2,-132 3451.04,-131.73 3453.95,-131.42 3456.89,-131.07"/>
<polygon fill="midnightblue" stroke="midnightblue" points="2139.24,-173.94 2129.21,-177.36 2139.17,-180.94 2139.24,-173.94"/>
</g>
<!-- Node276 -->
<g id="node43" class="node">
<title>Node276</title>
<g id="a_node43"><a xlink:href="_scalar_advection_8_h.html" target="_top" xlink:title=" ">
<polygon fill="white" stroke="red" points="3573.2,-112.5 3573.2,-131.5 3679.2,-131.5 3679.2,-112.5 3573.2,-112.5"/>
<text text-anchor="middle" x="3626.2" y="-119.5" font-family="Helvetica,sans-Serif" font-size="10.00">ScalarAdvection.H</text>
</a>
</g>
</g>
<!-- Node1&#45;&gt;Node276 -->
<g id="edge52" class="edge">
<title>Node1&#45;&gt;Node276</title>
<path fill="none" stroke="midnightblue" d="M2139.53,-176.35C2349.07,-173.04 3276.66,-157.2 3564.2,-132 3567.13,-131.74 3570.12,-131.44 3573.15,-131.11"/>
<polygon fill="midnightblue" stroke="midnightblue" points="2139.2,-172.86 2129.26,-176.51 2139.31,-179.86 2139.2,-172.86"/>
</g>
<!-- Node277 -->
<g id="node44" class="node">
<title>Node277</title>
<g id="a_node44"><a xlink:href="_taylor_green_vortex_8_h.html" target="_top" xlink:title=" ">
<polygon fill="white" stroke="red" points="3697.7,-112.5 3697.7,-131.5 3814.7,-131.5 3814.7,-112.5 3697.7,-112.5"/>
<text text-anchor="middle" x="3756.2" y="-119.5" font-family="Helvetica,sans-Serif" font-size="10.00">TaylorGreenVortex.H</text>
</a>
</g>
</g>
<!-- Node1&#45;&gt;Node277 -->
<g id="edge54" class="edge">
<title>Node1&#45;&gt;Node277</title>
<path fill="none" stroke="midnightblue" d="M2139.27,-177.4C2323.11,-178.83 3074.18,-181.19 3688.2,-132 3691.29,-131.75 3694.45,-131.46 3697.64,-131.14"/>
<polygon fill="midnightblue" stroke="midnightblue" points="2139.24,-173.9 2129.21,-177.32 2139.18,-180.9 2139.24,-173.9"/>
</g>
<!-- Node278 -->
<g id="node45" class="node">
<title>Node278</title>
<g id="a_node45"><a xlink:href="_vortex_dipole_8_h.html" target="_top" xlink:title=" ">
<polygon fill="white" stroke="red" points="3833.2,-112.5 3833.2,-131.5 3923.2,-131.5 3923.2,-112.5 3833.2,-112.5"/>
<text text-anchor="middle" x="3878.2" y="-119.5" font-family="Helvetica,sans-Serif" font-size="10.00">VortexDipole.H</text>
</a>
</g>
</g>
<!-- Node1&#45;&gt;Node278 -->
<g id="edge55" class="edge">
<title>Node1&#45;&gt;Node278</title>
<path fill="none" stroke="midnightblue" d="M2139.43,-176.7C2370.36,-174.92 3482.38,-164.78 3824.2,-132 3827.13,-131.72 3830.15,-131.37 3833.18,-130.98"/>
<polygon fill="midnightblue" stroke="midnightblue" points="2139.39,-173.2 2129.41,-176.77 2139.44,-180.2 2139.39,-173.2"/>
</g>
<!-- Node279 -->
<g id="node46" class="node">
<title>Node279</title>
<g id="a_node46"><a xlink:href="_vortex_ring_8_h.html" target="_top" xlink:title=" ">
<polygon fill="white" stroke="red" points="3941.2,-112.5 3941.2,-131.5 4021.2,-131.5 4021.2,-112.5 3941.2,-112.5"/>
<text text-anchor="middle" x="3981.2" y="-119.5" font-family="Helvetica,sans-Serif" font-size="10.00">VortexRing.H</text>
</a>
</g>
</g>
<!-- Node1&#45;&gt;Node279 -->
<g id="edge56" class="edge">
<title>Node1&#45;&gt;Node279</title>
<path fill="none" stroke="midnightblue" d="M2139.38,-176.87C2378.69,-175.97 3567.94,-169.68 3932.2,-132 3935.13,-131.7 3938.14,-131.32 3941.16,-130.88"/>
<polygon fill="midnightblue" stroke="midnightblue" points="2139.33,-173.37 2129.34,-176.9 2139.35,-180.37 2139.33,-173.37"/>
</g>
<!-- Node189 -->
<g id="node47" class="node">
<title>Node189</title>
<g id="a_node47"><a xlink:href="nodal__projection__ops_8_h.html" target="_top" xlink:title=" ">
<polygon fill="white" stroke="red" points="83.7,-56.5 83.7,-75.5 214.7,-75.5 214.7,-56.5 83.7,-56.5"/>
<text text-anchor="middle" x="149.2" y="-63.5" font-family="Helvetica,sans-Serif" font-size="10.00">nodal_projection_ops.H</text>
</a>
</g>
</g>
<!-- Node1&#45;&gt;Node189 -->
<g id="edge57" class="edge">
<title>Node1&#45;&gt;Node189</title>
<path fill="none" stroke="midnightblue" d="M2054.97,-176.61C1805.47,-174.19 529.22,-160.53 357.2,-132 286.47,-120.27 206.48,-90.29 169.7,-75.5"/>
<polygon fill="midnightblue" stroke="midnightblue" points="2055.05,-180.11 2065.08,-176.7 2055.11,-173.11 2055.05,-180.11"/>
</g>
<!-- Node122 -->
<g id="node48" class="node">
<title>Node122</title>
<g id="a_node48"><a xlink:href="io_8cpp.html" target="_top" xlink:title=" ">
<polygon fill="white" stroke="black" points="4039.2,-112.5 4039.2,-131.5 4085.2,-131.5 4085.2,-112.5 4039.2,-112.5"/>
<text text-anchor="middle" x="4062.2" y="-119.5" font-family="Helvetica,sans-Serif" font-size="10.00">io.cpp</text>
</a>
</g>
</g>
<!-- Node1&#45;&gt;Node122 -->
<g id="edge59" class="edge">
<title>Node1&#45;&gt;Node122</title>
<path fill="none" stroke="midnightblue" d="M2139.4,-176.65C2404.71,-174.38 3837.53,-160.87 4030.2,-132 4033.05,-131.57 4036.01,-130.97 4038.93,-130.27"/>
<polygon fill="midnightblue" stroke="midnightblue" points="2139.36,-173.15 2129.39,-176.74 2139.42,-180.15 2139.36,-173.15"/>
</g>
<!-- Node188 -->
<g id="node49" class="node">
<title>Node188</title>
<g id="a_node49"><a xlink:href="_a_b_l_8_h.html" target="_top" xlink:title=" ">
<polygon fill="white" stroke="red" points="539.2,-112.5 539.2,-131.5 585.2,-131.5 585.2,-112.5 539.2,-112.5"/>
<text text-anchor="middle" x="562.2" y="-119.5" font-family="Helvetica,sans-Serif" font-size="10.00">ABL.H</text>
</a>
</g>
</g>
<!-- Node1&#45;&gt;Node188 -->
<g id="edge60" class="edge">
<title>Node1&#45;&gt;Node188</title>
<path fill="none" stroke="midnightblue" d="M2054.98,-175.51C1828.02,-167.53 756.9,-129.85 585.39,-123.82"/>
<polygon fill="midnightblue" stroke="midnightblue" points="2055.02,-179.02 2065.14,-175.87 2055.27,-172.02 2055.02,-179.02"/>
</g>
<!-- Node239 -->
<g id="node50" class="node">
<title>Node239</title>
<g id="a_node50"><a xlink:href="_actuator_8_h.html" target="_top" xlink:title=" ">
<polygon fill="white" stroke="red" points="1138.2,-112.5 1138.2,-131.5 1206.2,-131.5 1206.2,-112.5 1138.2,-112.5"/>
<text text-anchor="middle" x="1172.2" y="-119.5" font-family="Helvetica,sans-Serif" font-size="10.00">Actuator.H</text>
</a>
</g>
</g>
<!-- Node1&#45;&gt;Node239 -->
<g id="edge67" class="edge">
<title>Node1&#45;&gt;Node239</title>
<path fill="none" stroke="midnightblue" d="M2054.88,-174.53C1897.67,-165.35 1348.92,-133.32 1206.29,-124.99"/>
<polygon fill="midnightblue" stroke="midnightblue" points="2054.9,-178.04 2065.09,-175.13 2055.31,-171.05 2054.9,-178.04"/>
</g>
<!-- Node3 -->
<g id="node3" class="node">
<title>Node3</title>
<g id="a_node3"><a xlink:href="_wall_function_8_h.html" target="_top" xlink:title=" ">
<polygon fill="white" stroke="red" points="1463.7,-56.5 1463.7,-75.5 1552.7,-75.5 1552.7,-56.5 1463.7,-56.5"/>
<text text-anchor="middle" x="1508.2" y="-63.5" font-family="Helvetica,sans-Serif" font-size="10.00">WallFunction.H</text>
</a>
</g>
</g>
<!-- Node2&#45;&gt;Node3 -->
<g id="edge2" class="edge">
<title>Node2&#45;&gt;Node3</title>
<path fill="none" stroke="midnightblue" d="M1483.15,-103.57C1489.51,-94.27 1497.07,-83.25 1502.2,-75.75"/>
<polygon fill="midnightblue" stroke="midnightblue" points="1480.08,-101.86 1477.31,-112.08 1485.85,-105.81 1480.08,-101.86"/>
</g>
<!-- Node2&#45;&gt;Node5 -->
<g id="edge19" class="edge">
<title>Node2&#45;&gt;Node5</title>
<path fill="none" stroke="midnightblue" d="M1463.99,-102.86C1460.83,-94.7 1457.18,-84.92 1454.2,-76 1447.56,-56.15 1440.97,-32.48 1437.57,-19.9"/>
<polygon fill="midnightblue" stroke="midnightblue" points="1460.83,-104.41 1467.74,-112.44 1467.35,-101.86 1460.83,-104.41"/>
</g>
<!-- Node7 -->
<g id="node5" class="node">
<title>Node7</title>
<g id="a_node5"><a xlink:href="_c_f_d_sim_8cpp.html" target="_top" xlink:title=" ">
<polygon fill="white" stroke="black" points="651.2,-56.5 651.2,-75.5 727.2,-75.5 727.2,-56.5 651.2,-56.5"/>
<text text-anchor="middle" x="689.2" y="-63.5" font-family="Helvetica,sans-Serif" font-size="10.00">CFDSim.cpp</text>
</a>
</g>
</g>
<!-- Node2&#45;&gt;Node7 -->
<g id="edge4" class="edge">
<title>Node2&#45;&gt;Node7</title>
<path fill="none" stroke="midnightblue" d="M1427.77,-119.07C1291.18,-112.9 871.41,-93.01 736.2,-76 733.32,-75.64 730.34,-75.2 727.36,-74.73"/>
<polygon fill="midnightblue" stroke="midnightblue" points="1427.71,-122.57 1437.86,-119.53 1428.02,-115.58 1427.71,-122.57"/>
</g>
<!-- Node8 -->
<g id="node6" class="node">
<title>Node8</title>
<g id="a_node6"><a xlink:href="_mesh_map_8cpp.html" target="_top" xlink:title=" ">
<polygon fill="white" stroke="black" points="1570.2,-56.5 1570.2,-75.5 1654.2,-75.5 1654.2,-56.5 1570.2,-56.5"/>
<text text-anchor="middle" x="1612.2" y="-63.5" font-family="Helvetica,sans-Serif" font-size="10.00">MeshMap.cpp</text>
</a>
</g>
</g>
<!-- Node2&#45;&gt;Node8 -->
<g id="edge5" class="edge">
<title>Node2&#45;&gt;Node8</title>
<path fill="none" stroke="midnightblue" d="M1503.13,-108.77C1529.61,-98.63 1566.59,-84.47 1589.96,-75.52"/>
<polygon fill="midnightblue" stroke="midnightblue" points="1501.63,-105.6 1493.54,-112.44 1504.13,-112.14 1501.63,-105.6"/>
</g>
<!-- Node9 -->
<g id="node7" class="node">
<title>Node9</title>
<g id="a_node7"><a xlink:href="_a_b_l_forcing_8cpp.html" target="_top" xlink:title=" ">
<polygon fill="white" stroke="black" points="232.7,-56.5 232.7,-75.5 323.7,-75.5 323.7,-56.5 232.7,-56.5"/>
<text text-anchor="middle" x="278.2" y="-63.5" font-family="Helvetica,sans-Serif" font-size="10.00">ABLForcing.cpp</text>
</a>
</g>
</g>
<!-- Node2&#45;&gt;Node9 -->
<g id="edge6" class="edge">
<title>Node2&#45;&gt;Node9</title>
<path fill="none" stroke="midnightblue" d="M1427.84,-119.44C1226.19,-112.16 387.59,-81.69 332.2,-76 329.46,-75.72 326.65,-75.39 323.81,-75.02"/>
<polygon fill="midnightblue" stroke="midnightblue" points="1427.92,-122.94 1438.04,-119.81 1428.17,-115.95 1427.92,-122.94"/>
</g>
<!-- Node10 -->
<g id="node8" class="node">
<title>Node10</title>
<g id="a_node8"><a xlink:href="_a_b_l_mean_boussinesq_8cpp.html" target="_top" xlink:title=" ">
<polygon fill="white" stroke="black" points="745.2,-56.5 745.2,-75.5 883.2,-75.5 883.2,-56.5 745.2,-56.5"/>
<text text-anchor="middle" x="814.2" y="-63.5" font-family="Helvetica,sans-Serif" font-size="10.00">ABLMeanBoussinesq.cpp</text>
</a>
</g>
</g>
<!-- Node2&#45;&gt;Node10 -->
<g id="edge7" class="edge">
<title>Node2&#45;&gt;Node10</title>
<path fill="none" stroke="midnightblue" d="M1427.98,-118.19C1331.68,-111.82 1092.19,-95.3 892.2,-76 889.35,-75.72 886.44,-75.43 883.51,-75.13"/>
<polygon fill="midnightblue" stroke="midnightblue" points="1427.99,-121.7 1438.2,-118.87 1428.45,-114.72 1427.99,-121.7"/>
</g>
<!-- Node11 -->
<g id="node9" class="node">
<title>Node11</title>
<g id="a_node9"><a xlink:href="_a_b_l_meso_forcing_mom_8cpp.html" target="_top" xlink:title=" ">
<polygon fill="white" stroke="black" points="491.2,-56.5 491.2,-75.5 633.2,-75.5 633.2,-56.5 491.2,-56.5"/>
<text text-anchor="middle" x="562.2" y="-63.5" font-family="Helvetica,sans-Serif" font-size="10.00">ABLMesoForcingMom.cpp</text>
</a>
</g>
</g>
<!-- Node2&#45;&gt;Node11 -->
<g id="edge8" class="edge">
<title>Node2&#45;&gt;Node11</title>
<path fill="none" stroke="midnightblue" d="M1427.83,-119.53C1304.67,-115.17 942.28,-101 642.2,-76 639.28,-75.76 636.29,-75.49 633.28,-75.21"/>
<polygon fill="midnightblue" stroke="midnightblue" points="1427.87,-123.03 1437.98,-119.89 1428.11,-116.04 1427.87,-123.03"/>
</g>
<!-- Node12 -->
<g id="node10" class="node">
<title>Node12</title>
<g id="a_node10"><a xlink:href="_actuator_forcing_8cpp.html" target="_top" xlink:title=" ">
<polygon fill="white" stroke="black" points="901.7,-56.5 901.7,-75.5 1014.7,-75.5 1014.7,-56.5 901.7,-56.5"/>
<text text-anchor="middle" x="958.2" y="-63.5" font-family="Helvetica,sans-Serif" font-size="10.00">ActuatorForcing.cpp</text>
</a>
</g>
</g>
<!-- Node2&#45;&gt;Node12 -->
<g id="edge9" class="edge">
<title>Node2&#45;&gt;Node12</title>
<path fill="none" stroke="midnightblue" d="M1427.8,-117.19C1347.73,-110.03 1171.39,-93.7 1023.2,-76 1020.49,-75.68 1017.71,-75.33 1014.9,-74.98"/>
<polygon fill="midnightblue" stroke="midnightblue" points="1427.72,-120.69 1437.99,-118.09 1428.34,-113.72 1427.72,-120.69"/>
</g>
<!-- Node13 -->
<g id="node11" class="node">
<title>Node13</title>
<g id="a_node11"><a xlink:href="icns_2source__terms_2_body_force_8cpp.html" target="_top" xlink:title=" ">
<polygon fill="white" stroke="black" points="1672.2,-56.5 1672.2,-75.5 1760.2,-75.5 1760.2,-56.5 1672.2,-56.5"/>
<text text-anchor="middle" x="1716.2" y="-63.5" font-family="Helvetica,sans-Serif" font-size="10.00">BodyForce.cpp</text>
</a>
</g>
</g>
<!-- Node2&#45;&gt;Node13 -->
<g id="edge10" class="edge">
<title>Node2&#45;&gt;Node13</title>
<path fill="none" stroke="midnightblue" d="M1514.22,-111.52C1560.3,-101.36 1632.77,-85.39 1677.23,-75.59"/>
<polygon fill="midnightblue" stroke="midnightblue" points="1513.25,-108.15 1504.24,-113.72 1514.76,-114.98 1513.25,-108.15"/>
</g>
<!-- Node14 -->
<g id="node12" class="node">
<title>Node14</title>
<g id="a_node12"><a xlink:href="_boussinesq_buoyancy_8cpp.html" target="_top" xlink:title=" ">
<polygon fill="white" stroke="black" points="1778.7,-56.5 1778.7,-75.5 1917.7,-75.5 1917.7,-56.5 1778.7,-56.5"/>
<text text-anchor="middle" x="1848.2" y="-63.5" font-family="Helvetica,sans-Serif" font-size="10.00">BoussinesqBuoyancy.cpp</text>
</a>
</g>
</g>
<!-- Node2&#45;&gt;Node14 -->
<g id="edge11" class="edge">
<title>Node2&#45;&gt;Node14</title>
<path fill="none" stroke="midnightblue" d="M1514.35,-112.64C1515.65,-112.42 1516.93,-112.21 1518.2,-112 1607.79,-97.33 1711.61,-83.72 1778.51,-75.4"/>
<polygon fill="midnightblue" stroke="midnightblue" points="1513.52,-109.24 1504.29,-114.43 1514.74,-116.13 1513.52,-109.24"/>
</g>
<!-- Node15 -->
<g id="node13" class="node">
<title>Node15</title>
<g id="a_node13"><a xlink:href="_burggraf_flow_forcing_8cpp.html" target="_top" xlink:title=" ">
<polygon fill="white" stroke="black" points="1914.7,-0.5 1914.7,-19.5 2051.7,-19.5 2051.7,-0.5 1914.7,-0.5"/>
<text text-anchor="middle" x="1983.2" y="-7.5" font-family="Helvetica,sans-Serif" font-size="10.00">BurggrafFlowForcing.cpp</text>
</a>
</g>
</g>
<!-- Node2&#45;&gt;Node15 -->
<g id="edge12" class="edge">
<title>Node2&#45;&gt;Node15</title>
<path fill="none" stroke="midnightblue" d="M1514.59,-117.15C1626.73,-107.13 1918.09,-80.73 1927.2,-76 1952.05,-63.09 1970.6,-34.09 1978.71,-19.59"/>
<polygon fill="midnightblue" stroke="midnightblue" points="1513.96,-113.69 1504.32,-118.06 1514.59,-120.66 1513.96,-113.69"/>
</g>
<!-- Node16 -->
<g id="node14" class="node">
<title>Node16</title>
<g id="a_node14"><a xlink:href="_coriolis_forcing_8cpp.html" target="_top" xlink:title=" ">
<polygon fill="white" stroke="black" points="1032.7,-56.5 1032.7,-75.5 1141.7,-75.5 1141.7,-56.5 1032.7,-56.5"/>
<text text-anchor="middle" x="1087.2" y="-63.5" font-family="Helvetica,sans-Serif" font-size="10.00">CoriolisForcing.cpp</text>
</a>
</g>
</g>
<!-- Node2&#45;&gt;Node16 -->
<g id="edge13" class="edge">
<title>Node2&#45;&gt;Node16</title>
<path fill="none" stroke="midnightblue" d="M1427.78,-114.95C1366.08,-106.34 1249.49,-90.05 1150.2,-76 1147.47,-75.61 1144.66,-75.22 1141.84,-74.81"/>
<polygon fill="midnightblue" stroke="midnightblue" points="1427.54,-118.45 1437.92,-116.36 1428.5,-111.52 1427.54,-118.45"/>
</g>
<!-- Node17 -->
<g id="node15" class="node">
<title>Node17</title>
<g id="a_node15"><a xlink:href="_density_buoyancy_8cpp.html" target="_top" xlink:title=" ">
<polygon fill="white" stroke="black" points="1159.7,-56.5 1159.7,-75.5 1280.7,-75.5 1280.7,-56.5 1159.7,-56.5"/>
<text text-anchor="middle" x="1220.2" y="-63.5" font-family="Helvetica,sans-Serif" font-size="10.00">DensityBuoyancy.cpp</text>
</a>
</g>
</g>
<!-- Node2&#45;&gt;Node17 -->
<g id="edge14" class="edge">
<title>Node2&#45;&gt;Node17</title>
<path fill="none" stroke="midnightblue" d="M1428.21,-111.75C1381.01,-101.6 1305.85,-85.43 1259.97,-75.56"/>
<polygon fill="midnightblue" stroke="midnightblue" points="1427.62,-115.2 1438.13,-113.88 1429.09,-108.36 1427.62,-115.2"/>
</g>
<!-- Node18 -->
<g id="node16" class="node">
<title>Node18</title>
<g id="a_node16"><a xlink:href="_geostrophic_forcing_8cpp.html" target="_top" xlink:title=" ">
<polygon fill="white" stroke="black" points="341.7,-56.5 341.7,-75.5 472.7,-75.5 472.7,-56.5 341.7,-56.5"/>
<text text-anchor="middle" x="407.2" y="-63.5" font-family="Helvetica,sans-Serif" font-size="10.00">GeostrophicForcing.cpp</text>
</a>
</g>
</g>
<!-- Node2&#45;&gt;Node18 -->
<g id="edge15" class="edge">
<title>Node2&#45;&gt;Node18</title>
<path fill="none" stroke="midnightblue" d="M1427.93,-119.46C1262.53,-113.5 670.14,-91.53 482.2,-76 479.19,-75.75 476.12,-75.48 473.02,-75.18"/>
<polygon fill="midnightblue" stroke="midnightblue" points="1428.08,-122.97 1438.2,-119.83 1428.33,-115.97 1428.08,-122.97"/>
</g>
<!-- Node19 -->
<g id="node17" class="node">
<title>Node19</title>
<g id="a_node17"><a xlink:href="_gravity_forcing_8cpp.html" target="_top" xlink:title=" ">
<polygon fill="white" stroke="black" points="1299.2,-56.5 1299.2,-75.5 1407.2,-75.5 1407.2,-56.5 1299.2,-56.5"/>
<text text-anchor="middle" x="1353.2" y="-63.5" font-family="Helvetica,sans-Serif" font-size="10.00">GravityForcing.cpp</text>
</a>
</g>
</g>
<!-- Node2&#45;&gt;Node19 -->
<g id="edge16" class="edge">
<title>Node2&#45;&gt;Node19</title>
<path fill="none" stroke="midnightblue" d="M1443.3,-108.23C1421.23,-98.13 1391.02,-84.31 1371.81,-75.52"/>
<polygon fill="midnightblue" stroke="midnightblue" points="1441.95,-111.46 1452.5,-112.44 1444.87,-105.1 1441.95,-111.46"/>
</g>
<!-- Node2&#45;&gt;Node139 -->
<g id="edge17" class="edge">
<title>Node2&#45;&gt;Node139</title>
<path fill="none" stroke="midnightblue" d="M1514.33,-112.55C1515.64,-112.36 1516.93,-112.17 1518.2,-112 1713.5,-85.43 1764.41,-98.63 1960.2,-76 1964.7,-75.48 1969.38,-74.88 1974.05,-74.24"/>
<polygon fill="midnightblue" stroke="midnightblue" points="1513.55,-109.13 1504.25,-114.21 1514.69,-116.04 1513.55,-109.13"/>
</g>
<!-- Node2&#45;&gt;Node141 -->
<g id="edge20" class="edge">
<title>Node2&#45;&gt;Node141</title>
<path fill="none" stroke="midnightblue" d="M1514.22,-116.14C1527.66,-114.7 1542.54,-113.2 1556.2,-112 1786.54,-91.82 1844.91,-96.77 2075.2,-76 2078.3,-75.72 2081.47,-75.42 2084.66,-75.11"/>
<polygon fill="midnightblue" stroke="midnightblue" points="1513.84,-112.66 1504.27,-117.22 1514.59,-119.62 1513.84,-112.66"/>
</g>
<!-- Node2&#45;&gt;Node143 -->
<g id="edge21" class="edge">
<title>Node2&#45;&gt;Node143</title>
<path fill="none" stroke="midnightblue" d="M1514.38,-117.66C1537.96,-115.88 1567.68,-113.71 1594.2,-112 1879.83,-93.56 1952.77,-108.01 2237.2,-76 2239.89,-75.7 2242.65,-75.35 2245.43,-74.97"/>
<polygon fill="midnightblue" stroke="midnightblue" points="1514.05,-114.17 1504.34,-118.42 1514.58,-121.15 1514.05,-114.17"/>
</g>
<!-- Node2&#45;&gt;Node145 -->
<g id="edge22" class="edge">
<title>Node2&#45;&gt;Node145</title>
<path fill="none" stroke="midnightblue" d="M1514.54,-118.51C1546.95,-116.67 1592.34,-114.12 1632.2,-112 1948.6,-95.16 2028.61,-104.22 2344.2,-76 2346.89,-75.76 2349.63,-75.49 2352.39,-75.21"/>
<polygon fill="midnightblue" stroke="midnightblue" points="1514.28,-115.02 1504.5,-119.09 1514.68,-122.01 1514.28,-115.02"/>
</g>
<!-- Node2&#45;&gt;Node148 -->
<g id="edge23" class="edge">
<title>Node2&#45;&gt;Node148</title>
<path fill="none" stroke="midnightblue" d="M1514.31,-119.04C1554.62,-117.2 1616.49,-114.4 1670.2,-112 2032.41,-95.81 2126.78,-130.7 2485.2,-76 2487.86,-75.59 2490.6,-75.06 2493.33,-74.46"/>
<polygon fill="midnightblue" stroke="midnightblue" points="1514.13,-115.54 1504.3,-119.49 1514.45,-122.53 1514.13,-115.54"/>
</g>
<!-- Node2&#45;&gt;Node161 -->
<g id="edge24" class="edge">
<title>Node2&#45;&gt;Node161</title>
<path fill="none" stroke="midnightblue" d="M1514.62,-119.3C1710.14,-111.63 2501.64,-80.42 2554.2,-76 2556.92,-75.77 2559.7,-75.52 2562.51,-75.24"/>
<polygon fill="midnightblue" stroke="midnightblue" points="1514.3,-115.81 1504.44,-119.7 1514.57,-122.8 1514.3,-115.81"/>
</g>
<!-- Node3&#45;&gt;Node5 -->
<g id="edge3" class="edge">
<title>Node3&#45;&gt;Node5</title>
<path fill="none" stroke="midnightblue" d="M1488.06,-50.1C1474.92,-40.38 1458.22,-28.03 1447.14,-19.83"/>
<polygon fill="midnightblue" stroke="midnightblue" points="1486.35,-53.19 1496.47,-56.32 1490.51,-47.56 1486.35,-53.19"/>
</g>
<!-- Node139&#45;&gt;Node15 -->
<g id="edge18" class="edge">
<title>Node139&#45;&gt;Node15</title>
<path fill="none" stroke="midnightblue" d="M2008.25,-47.57C2001.89,-38.27 1994.33,-27.25 1989.2,-19.75"/>
<polygon fill="midnightblue" stroke="midnightblue" points="2005.55,-49.81 2014.09,-56.08 2011.33,-45.86 2005.55,-49.81"/>
</g>
<!-- Node262&#45;&gt;Node102 -->
<g id="edge31" class="edge">
<title>Node262&#45;&gt;Node102</title>
<path fill="none" stroke="midnightblue" d="M73.17,-104.43C64.58,-94.97 54.16,-83.48 47.14,-75.75"/>
<polygon fill="midnightblue" stroke="midnightblue" points="70.8,-107.03 80.11,-112.08 75.98,-102.33 70.8,-107.03"/>
</g>
<!-- Node267&#45;&gt;Node9 -->
<g id="edge43" class="edge">
<title>Node267&#45;&gt;Node9</title>
<path fill="none" stroke="midnightblue" d="M377.35,-108.5C353.16,-98.38 319.74,-84.39 298.55,-75.52"/>
<polygon fill="midnightblue" stroke="midnightblue" points="376.18,-111.81 386.76,-112.44 378.89,-105.35 376.18,-111.81"/>
</g>
<!-- Node267&#45;&gt;Node18 -->
<g id="edge44" class="edge">
<title>Node267&#45;&gt;Node18</title>
<path fill="none" stroke="midnightblue" d="M407.2,-101.8C407.2,-92.91 407.2,-82.78 407.2,-75.75"/>
<polygon fill="midnightblue" stroke="midnightblue" points="403.7,-102.08 407.2,-112.08 410.7,-102.08 403.7,-102.08"/>
</g>
<!-- Node188&#45;&gt;Node7 -->
<g id="edge61" class="edge">
<title>Node188&#45;&gt;Node7</title>
<path fill="none" stroke="midnightblue" d="M591.59,-108.5C615.4,-98.38 648.31,-84.39 669.17,-75.52"/>
<polygon fill="midnightblue" stroke="midnightblue" points="590.16,-105.31 582.32,-112.44 592.9,-111.75 590.16,-105.31"/>
</g>
<!-- Node188&#45;&gt;Node9 -->
<g id="edge62" class="edge">
<title>Node188&#45;&gt;Node9</title>
<path fill="none" stroke="midnightblue" d="M529.12,-114.71C478.12,-105.01 380.21,-86.4 322.94,-75.51"/>
<polygon fill="midnightblue" stroke="midnightblue" points="528.48,-118.15 538.96,-116.58 529.79,-111.27 528.48,-118.15"/>
</g>
<!-- Node188&#45;&gt;Node10 -->
<g id="edge63" class="edge">
<title>Node188&#45;&gt;Node10</title>
<path fill="none" stroke="midnightblue" d="M595.52,-113.86C641.62,-103.98 724.75,-86.17 774.17,-75.58"/>
<polygon fill="midnightblue" stroke="midnightblue" points="594.5,-110.5 585.46,-116.02 595.97,-117.34 594.5,-110.5"/>
</g>
<!-- Node188&#45;&gt;Node11 -->
<g id="edge64" class="edge">
<title>Node188&#45;&gt;Node11</title>
<path fill="none" stroke="midnightblue" d="M562.2,-101.8C562.2,-92.91 562.2,-82.78 562.2,-75.75"/>
<polygon fill="midnightblue" stroke="midnightblue" points="558.7,-102.08 562.2,-112.08 565.7,-102.08 558.7,-102.08"/>
</g>
<!-- Node188&#45;&gt;Node102 -->
<g id="edge66" class="edge">
<title>Node188&#45;&gt;Node102</title>
<path fill="none" stroke="midnightblue" d="M528.77,-118.07C422.28,-108.7 96.61,-79.89 74.2,-76 71.48,-75.53 68.66,-74.95 65.86,-74.32"/>
<polygon fill="midnightblue" stroke="midnightblue" points="528.68,-121.57 538.95,-118.96 529.29,-114.6 528.68,-121.57"/>
</g>
<!-- Node188&#45;&gt;Node189 -->
<g id="edge65" class="edge">
<title>Node188&#45;&gt;Node189</title>
<path fill="none" stroke="midnightblue" d="M528.95,-116.65C460.72,-107.73 303.86,-87.22 214.55,-75.54"/>
<polygon fill="midnightblue" stroke="midnightblue" points="528.74,-120.15 539.11,-117.98 529.65,-113.21 528.74,-120.15"/>
</g>
<!-- Node239&#45;&gt;Node12 -->
<g id="edge68" class="edge">
<title>Node239&#45;&gt;Node12</title>
<path fill="none" stroke="midnightblue" d="M1128.45,-109.96C1088.03,-99.76 1028.83,-84.82 991.95,-75.52"/>
<polygon fill="midnightblue" stroke="midnightblue" points="1127.74,-113.39 1138.29,-112.44 1129.45,-106.6 1127.74,-113.39"/>
</g>
</g>
</svg>
