<?xml version="1.0" encoding="UTF-8" standalone="no"?>
<!DOCTYPE svg PUBLIC "-//W3C//DTD SVG 1.1//EN"
 "http://www.w3.org/Graphics/SVG/1.1/DTD/svg11.dtd">
<!-- Generated by graphviz version 2.43.0 (0)
 -->
<!-- Title: RelaxationZones.H Pages: 1 -->
<!--zoomable 196 -->
<svg id="main" version="1.1" xmlns="http://www.w3.org/2000/svg" xmlns:xlink="http://www.w3.org/1999/xlink" xml:space="preserve" onload="init(evt)">
<style type="text/css"><![CDATA[
.edge:hover path { stroke: red; }
.edge:hover polygon { stroke: red; fill: red; }
]]></style>
<script type="text/javascript"><![CDATA[
var edges = document.getElementsByTagName('g');
if (edges && edges.length) {
  for (var i=0;i<edges.length;i++) {
    if (edges[i].id.substr(0,4)=='edge') {
      edges[i].setAttribute('class','edge');
    }
  }
}
]]></script>
        <defs>
                <circle id="rim" cx="0" cy="0" r="7"/>
                <circle id="rim2" cx="0" cy="0" r="3.5"/>
                <g id="zoomPlus">
                        <use xlink:href="#rim" fill="#404040">
                                <set attributeName="fill" to="#808080" begin="zoomplus.mouseover" end="zoomplus.mouseout"/>
                        </use>
                        <path d="M-4,0h8M0,-4v8" fill="none" stroke="white" stroke-width="1.5" pointer-events="none"/>
                </g>
                <g id="zoomMin">
                        <use xlink:href="#rim" fill="#404040">
                                <set attributeName="fill" to="#808080" begin="zoomminus.mouseover" end="zoomminus.mouseout"/>
                        </use>
                        <path d="M-4,0h8" fill="none" stroke="white" stroke-width="1.5" pointer-events="none"/>
                </g>
                <g id="dirArrow">
                        <path fill="none" stroke="white" stroke-width="1.5" d="M0,-3.0v7 M-2.5,-0.5L0,-3.0L2.5,-0.5"/>
                </g>
               <g id="resetDef">
                       <use xlink:href="#rim2" fill="#404040">
                               <set attributeName="fill" to="#808080" begin="reset.mouseover" end="reset.mouseout"/>
                       </use>
               </g>
        </defs>

<script type="text/javascript">
var viewWidth = 798;
var viewHeight = 196;
var sectionId = 'dynsection-1';
</script>
<script xlink:href="svgpan.js"/>
<svg id="graph" class="graph">
<g id="viewport">
<title>RelaxationZones.H</title>
<polygon fill="white" stroke="transparent" points="-4,4 -4,-192 793.5,-192 793.5,4 -4,4"/>
<!-- Node1 -->
<g id="node1" class="node">
<title>Node1</title>
<g id="a_node1"><a xlink:title=" ">
<polygon fill="#bfbfbf" stroke="black" points="330,-168.5 330,-187.5 440,-187.5 440,-168.5 330,-168.5"/>
<text text-anchor="middle" x="385" y="-175.5" font-family="Helvetica,sans-Serif" font-size="10.00">RelaxationZones.H</text>
</a>
</g>
</g>
<!-- Node2 -->
<g id="node2" class="node">
<title>Node2</title>
<g id="a_node2"><a xlink:href="_h_o_s_waves_8_h.html" target="_top" xlink:title=" ">
<polygon fill="white" stroke="black" points="33,-112.5 33,-131.5 113,-131.5 113,-112.5 33,-112.5"/>
<text text-anchor="middle" x="73" y="-119.5" font-family="Helvetica,sans-Serif" font-size="10.00">HOSWaves.H</text>
</a>
</g>
</g>
<!-- Node1&#45;&gt;Node2 -->
<g id="edge1" class="edge">
<title>Node1&#45;&gt;Node2</title>
<path fill="none" stroke="midnightblue" d="M325.49,-166.7C263.23,-155.92 167.19,-139.3 113.28,-129.97"/>
<polygon fill="midnightblue" stroke="midnightblue" points="325.11,-170.19 335.56,-168.44 326.31,-163.29 325.11,-170.19"/>
</g>
<!-- Node5 -->
<g id="node5" class="node">
<title>Node5</title>
<g id="a_node5"><a xlink:href="_linear_waves_8_h.html" target="_top" xlink:title=" ">
<polygon fill="white" stroke="black" points="193.5,-112.5 193.5,-131.5 282.5,-131.5 282.5,-112.5 193.5,-112.5"/>
<text text-anchor="middle" x="238" y="-119.5" font-family="Helvetica,sans-Serif" font-size="10.00">LinearWaves.H</text>
</a>
</g>
</g>
<!-- Node1&#45;&gt;Node5 -->
<g id="edge5" class="edge">
<title>Node1&#45;&gt;Node5</title>
<path fill="none" stroke="midnightblue" d="M352.08,-164.91C324.44,-154.75 285.66,-140.51 261.18,-131.52"/>
<polygon fill="midnightblue" stroke="midnightblue" points="351.11,-168.28 361.71,-168.44 353.53,-161.71 351.11,-168.28"/>
</g>
<!-- Node8 -->
<g id="node8" class="node">
<title>Node8</title>
<g id="a_node8"><a xlink:href="relaxation__zones__ops_8_h.html" target="_top" xlink:title=" ">
<polygon fill="white" stroke="black" points="318.5,-112.5 318.5,-131.5 451.5,-131.5 451.5,-112.5 318.5,-112.5"/>
<text text-anchor="middle" x="385" y="-119.5" font-family="Helvetica,sans-Serif" font-size="10.00">relaxation_zones_ops.H</text>
</a>
</g>
</g>
<!-- Node1&#45;&gt;Node8 -->
<g id="edge9" class="edge">
<title>Node1&#45;&gt;Node8</title>
<path fill="none" stroke="midnightblue" d="M385,-157.8C385,-148.91 385,-138.78 385,-131.75"/>
<polygon fill="midnightblue" stroke="midnightblue" points="381.5,-158.08 385,-168.08 388.5,-158.08 381.5,-158.08"/>
</g>
<!-- Node14 -->
<g id="node14" class="node">
<title>Node14</title>
<g id="a_node14"><a xlink:href="_stokes_waves_8_h.html" target="_top" xlink:title=" ">
<polygon fill="white" stroke="black" points="488,-112.5 488,-131.5 580,-131.5 580,-112.5 488,-112.5"/>
<text text-anchor="middle" x="534" y="-119.5" font-family="Helvetica,sans-Serif" font-size="10.00">StokesWaves.H</text>
</a>
</g>
</g>
<!-- Node1&#45;&gt;Node14 -->
<g id="edge17" class="edge">
<title>Node1&#45;&gt;Node14</title>
<path fill="none" stroke="midnightblue" d="M418.37,-164.91C446.38,-154.75 485.7,-140.51 510.5,-131.52"/>
<polygon fill="midnightblue" stroke="midnightblue" points="416.82,-161.75 408.61,-168.44 419.2,-168.33 416.82,-161.75"/>
</g>
<!-- Node15 -->
<g id="node15" class="node">
<title>Node15</title>
<g id="a_node15"><a xlink:href="_w2_a_waves_8_h.html" target="_top" xlink:title=" ">
<polygon fill="white" stroke="black" points="662.5,-112.5 662.5,-131.5 743.5,-131.5 743.5,-112.5 662.5,-112.5"/>
<text text-anchor="middle" x="703" y="-119.5" font-family="Helvetica,sans-Serif" font-size="10.00">W2AWaves.H</text>
</a>
</g>
</g>
<!-- Node1&#45;&gt;Node15 -->
<g id="edge20" class="edge">
<title>Node1&#45;&gt;Node15</title>
<path fill="none" stroke="midnightblue" d="M445.29,-166.76C508.93,-155.96 607.47,-139.22 662.43,-129.89"/>
<polygon fill="midnightblue" stroke="midnightblue" points="444.66,-163.32 435.39,-168.44 445.83,-170.22 444.66,-163.32"/>
</g>
<!-- Node3 -->
<g id="node3" class="node">
<title>Node3</title>
<g id="a_node3"><a xlink:href="hos__waves__ops_8_h.html" target="_top" xlink:title=" ">
<polygon fill="white" stroke="black" points="21,-56.5 21,-75.5 125,-75.5 125,-56.5 21,-56.5"/>
<text text-anchor="middle" x="73" y="-63.5" font-family="Helvetica,sans-Serif" font-size="10.00">hos_waves_ops.H</text>
</a>
</g>
</g>
<!-- Node2&#45;&gt;Node3 -->
<g id="edge2" class="edge">
<title>Node2&#45;&gt;Node3</title>
<path fill="none" stroke="midnightblue" d="M73,-101.8C73,-92.91 73,-82.78 73,-75.75"/>
<polygon fill="midnightblue" stroke="midnightblue" points="69.5,-102.08 73,-112.08 76.5,-102.08 69.5,-102.08"/>
</g>
<!-- Node4 -->
<g id="node4" class="node">
<title>Node4</title>
<g id="a_node4"><a xlink:href="_h_o_s_waves_8cpp.html" target="_top" xlink:title=" ">
<polygon fill="white" stroke="black" points="0,-0.5 0,-19.5 90,-19.5 90,-0.5 0,-0.5"/>
<text text-anchor="middle" x="45" y="-7.5" font-family="Helvetica,sans-Serif" font-size="10.00">HOSWaves.cpp</text>
</a>
</g>
</g>
<!-- Node2&#45;&gt;Node4 -->
<g id="edge4" class="edge">
<title>Node2&#45;&gt;Node4</title>
<path fill="none" stroke="midnightblue" d="M44,-107.33C31.77,-99.92 18.81,-89.48 12,-76 1.85,-55.89 21.77,-32.32 34.85,-19.83"/>
<polygon fill="midnightblue" stroke="midnightblue" points="42.66,-110.59 53.09,-112.41 46.07,-104.48 42.66,-110.59"/>
</g>
<!-- Node3&#45;&gt;Node4 -->
<g id="edge3" class="edge">
<title>Node3&#45;&gt;Node4</title>
<path fill="none" stroke="midnightblue" d="M63.66,-46.98C58.91,-37.82 53.34,-27.09 49.54,-19.75"/>
<polygon fill="midnightblue" stroke="midnightblue" points="60.67,-48.82 68.38,-56.08 66.88,-45.59 60.67,-48.82"/>
</g>
<!-- Node6 -->
<g id="node6" class="node">
<title>Node6</title>
<g id="a_node6"><a xlink:href="linear__waves__ops_8_h.html" target="_top" xlink:title=" ">
<polygon fill="white" stroke="black" points="181,-56.5 181,-75.5 295,-75.5 295,-56.5 181,-56.5"/>
<text text-anchor="middle" x="238" y="-63.5" font-family="Helvetica,sans-Serif" font-size="10.00">linear_waves_ops.H</text>
</a>
</g>
</g>
<!-- Node5&#45;&gt;Node6 -->
<g id="edge6" class="edge">
<title>Node5&#45;&gt;Node6</title>
<path fill="none" stroke="midnightblue" d="M238,-101.8C238,-92.91 238,-82.78 238,-75.75"/>
<polygon fill="midnightblue" stroke="midnightblue" points="234.5,-102.08 238,-112.08 241.5,-102.08 234.5,-102.08"/>
</g>
<!-- Node7 -->
<g id="node7" class="node">
<title>Node7</title>
<g id="a_node7"><a xlink:href="_linear_waves_8cpp.html" target="_top" xlink:title=" ">
<polygon fill="white" stroke="black" points="131.5,-0.5 131.5,-19.5 230.5,-19.5 230.5,-0.5 131.5,-0.5"/>
<text text-anchor="middle" x="181" y="-7.5" font-family="Helvetica,sans-Serif" font-size="10.00">LinearWaves.cpp</text>
</a>
</g>
</g>
<!-- Node5&#45;&gt;Node7 -->
<g id="edge8" class="edge">
<title>Node5&#45;&gt;Node7</title>
<path fill="none" stroke="midnightblue" d="M206.62,-107.83C193.42,-100.53 179.42,-90.05 172,-76 162.31,-57.67 170.95,-32.55 176.75,-19.56"/>
<polygon fill="midnightblue" stroke="midnightblue" points="205.04,-110.96 215.54,-112.38 208.22,-104.72 205.04,-110.96"/>
</g>
<!-- Node6&#45;&gt;Node7 -->
<g id="edge7" class="edge">
<title>Node6&#45;&gt;Node7</title>
<path fill="none" stroke="midnightblue" d="M221.38,-49.25C211.27,-39.67 198.72,-27.79 190.32,-19.83"/>
<polygon fill="midnightblue" stroke="midnightblue" points="219.18,-51.99 228.84,-56.32 223.99,-46.91 219.18,-51.99"/>
</g>
<!-- Node8&#45;&gt;Node3 -->
<g id="edge10" class="edge">
<title>Node8&#45;&gt;Node3</title>
<path fill="none" stroke="midnightblue" d="M325.65,-110.73C266.69,-100.52 177.34,-85.06 122.21,-75.52"/>
<polygon fill="midnightblue" stroke="midnightblue" points="325.11,-114.19 335.56,-112.44 326.31,-107.29 325.11,-114.19"/>
</g>
<!-- Node8&#45;&gt;Node6 -->
<g id="edge11" class="edge">
<title>Node8&#45;&gt;Node6</title>
<path fill="none" stroke="midnightblue" d="M352.08,-108.91C324.44,-98.75 285.66,-84.51 261.18,-75.52"/>
<polygon fill="midnightblue" stroke="midnightblue" points="351.11,-112.28 361.71,-112.44 353.53,-105.71 351.11,-112.28"/>
</g>
<!-- Node9 -->
<g id="node9" class="node">
<title>Node9</title>
<g id="a_node9"><a xlink:href="relaxation__zones__ops_8cpp.html" target="_top" xlink:title=" ">
<polygon fill="white" stroke="black" points="313.5,-56.5 313.5,-75.5 456.5,-75.5 456.5,-56.5 313.5,-56.5"/>
<text text-anchor="middle" x="385" y="-63.5" font-family="Helvetica,sans-Serif" font-size="10.00">relaxation_zones_ops.cpp</text>
</a>
</g>
</g>
<!-- Node8&#45;&gt;Node9 -->
<g id="edge12" class="edge">
<title>Node8&#45;&gt;Node9</title>
<path fill="none" stroke="midnightblue" d="M385,-101.8C385,-92.91 385,-82.78 385,-75.75"/>
<polygon fill="midnightblue" stroke="midnightblue" points="381.5,-102.08 385,-112.08 388.5,-102.08 381.5,-102.08"/>
</g>
<!-- Node10 -->
<g id="node10" class="node">
<title>Node10</title>
<g id="a_node10"><a xlink:href="stokes__waves__ops_8_h.html" target="_top" xlink:title=" ">
<polygon fill="white" stroke="black" points="475,-56.5 475,-75.5 593,-75.5 593,-56.5 475,-56.5"/>
<text text-anchor="middle" x="534" y="-63.5" font-family="Helvetica,sans-Serif" font-size="10.00">stokes_waves_ops.H</text>
</a>
</g>
</g>
<!-- Node8&#45;&gt;Node10 -->
<g id="edge13" class="edge">
<title>Node8&#45;&gt;Node10</title>
<path fill="none" stroke="midnightblue" d="M418.37,-108.91C446.38,-98.75 485.7,-84.51 510.5,-75.52"/>
<polygon fill="midnightblue" stroke="midnightblue" points="416.82,-105.75 408.61,-112.44 419.2,-112.33 416.82,-105.75"/>
</g>
<!-- Node12 -->
<g id="node12" class="node">
<title>Node12</title>
<g id="a_node12"><a xlink:href="waves2amr__ops_8_h.html" target="_top" xlink:title=" ">
<polygon fill="white" stroke="black" points="649.5,-56.5 649.5,-75.5 756.5,-75.5 756.5,-56.5 649.5,-56.5"/>
<text text-anchor="middle" x="703" y="-63.5" font-family="Helvetica,sans-Serif" font-size="10.00">waves2amr_ops.H</text>
</a>
</g>
</g>
<!-- Node8&#45;&gt;Node12 -->
<g id="edge15" class="edge">
<title>Node8&#45;&gt;Node12</title>
<path fill="none" stroke="midnightblue" d="M445.49,-110.73C505.59,-100.52 596.66,-85.06 652.85,-75.52"/>
<polygon fill="midnightblue" stroke="midnightblue" points="444.66,-107.32 435.39,-112.44 445.83,-114.22 444.66,-107.32"/>
</g>
<!-- Node11 -->
<g id="node11" class="node">
<title>Node11</title>
<g id="a_node11"><a xlink:href="_stokes_waves_8cpp.html" target="_top" xlink:title=" ">
<polygon fill="white" stroke="black" points="510.5,-0.5 510.5,-19.5 611.5,-19.5 611.5,-0.5 510.5,-0.5"/>
<text text-anchor="middle" x="561" y="-7.5" font-family="Helvetica,sans-Serif" font-size="10.00">StokesWaves.cpp</text>
</a>
</g>
</g>
<!-- Node10&#45;&gt;Node11 -->
<g id="edge14" class="edge">
<title>Node10&#45;&gt;Node11</title>
<path fill="none" stroke="midnightblue" d="M543.01,-46.98C547.59,-37.82 552.95,-27.09 556.62,-19.75"/>
<polygon fill="midnightblue" stroke="midnightblue" points="539.8,-45.57 538.46,-56.08 546.06,-48.7 539.8,-45.57"/>
</g>
<!-- Node13 -->
<g id="node13" class="node">
<title>Node13</title>
<g id="a_node13"><a xlink:href="_w2_a_waves_8cpp.html" target="_top" xlink:title=" ">
<polygon fill="white" stroke="black" points="698.5,-0.5 698.5,-19.5 789.5,-19.5 789.5,-0.5 698.5,-0.5"/>
<text text-anchor="middle" x="744" y="-7.5" font-family="Helvetica,sans-Serif" font-size="10.00">W2AWaves.cpp</text>
</a>
</g>
</g>
<!-- Node12&#45;&gt;Node13 -->
<g id="edge16" class="edge">
<title>Node12&#45;&gt;Node13</title>
<path fill="none" stroke="midnightblue" d="M716.02,-47.86C723.12,-38.5 731.6,-27.33 737.36,-19.75"/>
<polygon fill="midnightblue" stroke="midnightblue" points="713.03,-46 709.77,-56.08 718.61,-50.24 713.03,-46"/>
</g>
<!-- Node14&#45;&gt;Node10 -->
<g id="edge18" class="edge">
<title>Node14&#45;&gt;Node10</title>
<path fill="none" stroke="midnightblue" d="M534,-101.8C534,-92.91 534,-82.78 534,-75.75"/>
<polygon fill="midnightblue" stroke="midnightblue" points="530.5,-102.08 534,-112.08 537.5,-102.08 530.5,-102.08"/>
</g>
<!-- Node14&#45;&gt;Node11 -->
<g id="edge19" class="edge">
<title>Node14&#45;&gt;Node11</title>
<path fill="none" stroke="midnightblue" d="M566.59,-107.9C580.1,-100.65 594.38,-90.18 602,-76 613.24,-55.08 589.03,-31.83 573.23,-19.6"/>
<polygon fill="midnightblue" stroke="midnightblue" points="564.87,-104.84 557.45,-112.41 567.97,-111.12 564.87,-104.84"/>
</g>
<!-- Node15&#45;&gt;Node12 -->
<g id="edge22" class="edge">
<title>Node15&#45;&gt;Node12</title>
<path fill="none" stroke="midnightblue" d="M703,-101.8C703,-92.91 703,-82.78 703,-75.75"/>
<polygon fill="midnightblue" stroke="midnightblue" points="699.5,-102.08 703,-112.08 706.5,-102.08 699.5,-102.08"/>
</g>
<!-- Node15&#45;&gt;Node13 -->
<g id="edge21" class="edge">
<title>Node15&#45;&gt;Node13</title>
<path fill="none" stroke="midnightblue" d="M732.1,-107.65C744.63,-100.25 758,-89.73 765,-76 774.7,-56.98 760.37,-32.57 751.02,-19.76"/>
<polygon fill="midnightblue" stroke="midnightblue" points="730.33,-104.63 723.22,-112.49 733.68,-110.78 730.33,-104.63"/>
</g>
</g>
</svg>
        <g id="navigator" transform="translate(0 0)" fill="#404254">
                <rect fill="#f2f5e9" fill-opacity="0.5" stroke="#606060" stroke-width=".5" x="0" y="0" width="60" height="60"/>
                <use id="zoomplus" xlink:href="#zoomPlus" x="17" y="9" onmousedown="handleZoom(evt,'in')"/>
                <use id="zoomminus" xlink:href="#zoomMin" x="42" y="9" onmousedown="handleZoom(evt,'out')"/>
                <use id="reset" xlink:href="#resetDef" x="30" y="36" onmousedown="handleReset()"/>
                <g id="arrowUp" xlink:href="#dirArrow" transform="translate(30 24)" onmousedown="handlePan(0,-1)">
                  <use xlink:href="#rim" fill="#404040">
                        <set attributeName="fill" to="#808080" begin="arrowUp.mouseover" end="arrowUp.mouseout"/>
                  </use>
                  <path fill="none" stroke="white" stroke-width="1.5" d="M0,-3.0v7 M-2.5,-0.5L0,-3.0L2.5,-0.5"/>
                </g>
                <g id="arrowRight" xlink:href="#dirArrow" transform="rotate(90) translate(36 -43)" onmousedown="handlePan(1,0)">
                  <use xlink:href="#rim" fill="#404040">
                        <set attributeName="fill" to="#808080" begin="arrowRight.mouseover" end="arrowRight.mouseout"/>
                  </use>
                  <path fill="none" stroke="white" stroke-width="1.5" d="M0,-3.0v7 M-2.5,-0.5L0,-3.0L2.5,-0.5"/>
                </g>
                <g id="arrowDown" xlink:href="#dirArrow" transform="rotate(180) translate(-30 -48)" onmousedown="handlePan(0,1)">
                  <use xlink:href="#rim" fill="#404040">
                        <set attributeName="fill" to="#808080" begin="arrowDown.mouseover" end="arrowDown.mouseout"/>
                  </use>
                  <path fill="none" stroke="white" stroke-width="1.5" d="M0,-3.0v7 M-2.5,-0.5L0,-3.0L2.5,-0.5"/>
                </g>
                <g id="arrowLeft" xlink:href="#dirArrow" transform="rotate(270) translate(-36 17)" onmousedown="handlePan(-1,0)">
                  <use xlink:href="#rim" fill="#404040">
                        <set attributeName="fill" to="#808080" begin="arrowLeft.mouseover" end="arrowLeft.mouseout"/>
                  </use>
                  <path fill="none" stroke="white" stroke-width="1.5" d="M0,-3.0v7 M-2.5,-0.5L0,-3.0L2.5,-0.5"/>
                </g>
        </g>
        <svg viewBox="0 0 15 15" width="100%" height="30px" preserveAspectRatio="xMaxYMin meet">
         <g id="arrow_out" transform="scale(0.3 0.3)">
          <a xlink:href="_relaxation_zones_8_h__dep__incl_org.svg" target="_base">
           <rect id="button" ry="5" rx="5" y="6" x="6" height="38" width="38"
                fill="#f2f5e9" fill-opacity="0.5" stroke="#606060" stroke-width="1.0"/>
           <path id="arrow"
             d="M 11.500037,31.436501 C 11.940474,20.09759 22.043105,11.32322 32.158766,21.979434 L 37.068811,17.246167 C 37.068811,17.246167 37.088388,32 37.088388,32 L 22.160133,31.978069 C 22.160133,31.978069 26.997745,27.140456 26.997745,27.140456 C 18.528582,18.264221 13.291696,25.230495 11.500037,31.436501 z"
             style="fill:#404040;"/>
          </a>
         </g>
        </svg>
</svg>
