<?xml version="1.0" encoding="UTF-8" standalone="no"?>
<!DOCTYPE svg PUBLIC "-//W3C//DTD SVG 1.1//EN"
 "http://www.w3.org/Graphics/SVG/1.1/DTD/svg11.dtd">
<!-- Generated by graphviz version 2.43.0 (0)
 -->
<!-- Title: ScratchField.H Pages: 1 -->
<svg width="3860pt" height="196pt"
 viewBox="0.00 0.00 3860.00 196.00" xmlns="http://www.w3.org/2000/svg" xmlns:xlink="http://www.w3.org/1999/xlink">
<g id="graph0" class="graph" transform="scale(1 1) rotate(0) translate(4 192)">
<title>ScratchField.H</title>
<polygon fill="white" stroke="transparent" points="-4,4 -4,-192 3856,-192 3856,4 -4,4"/>
<!-- Node1 -->
<g id="node1" class="node">
<title>Node1</title>
<g id="a_node1"><a xlink:title=" ">
<polygon fill="#bfbfbf" stroke="black" points="113,-168.5 113,-187.5 199,-187.5 199,-168.5 113,-168.5"/>
<text text-anchor="middle" x="156" y="-175.5" font-family="Helvetica,sans-Serif" font-size="10.00">ScratchField.H</text>
</a>
</g>
</g>
<!-- Node2 -->
<g id="node2" class="node">
<title>Node2</title>
<g id="a_node2"><a xlink:href="_field_repo_8_h.html" target="_top" xlink:title=" ">
<polygon fill="white" stroke="red" points="1720.5,-112.5 1720.5,-131.5 1795.5,-131.5 1795.5,-112.5 1720.5,-112.5"/>
<text text-anchor="middle" x="1758" y="-119.5" font-family="Helvetica,sans-Serif" font-size="10.00">FieldRepo.H</text>
</a>
</g>
</g>
<!-- Node1&#45;&gt;Node2 -->
<g id="edge1" class="edge">
<title>Node1&#45;&gt;Node2</title>
<path fill="none" stroke="midnightblue" d="M209.53,-175.2C459.48,-166.77 1508.35,-131.42 1720.49,-124.26"/>
<polygon fill="midnightblue" stroke="midnightblue" points="209.14,-171.71 199.26,-175.54 209.38,-178.7 209.14,-171.71"/>
</g>
<!-- Node271 -->
<g id="node19" class="node">
<title>Node271</title>
<g id="a_node19"><a xlink:href="_scratch_field_8cpp.html" target="_top" xlink:title=" ">
<polygon fill="white" stroke="black" points="0,-56.5 0,-75.5 96,-75.5 96,-56.5 0,-56.5"/>
<text text-anchor="middle" x="48" y="-63.5" font-family="Helvetica,sans-Serif" font-size="10.00">ScratchField.cpp</text>
</a>
</g>
</g>
<!-- Node1&#45;&gt;Node271 -->
<g id="edge71" class="edge">
<title>Node1&#45;&gt;Node271</title>
<path fill="none" stroke="midnightblue" d="M140.49,-161.21C117.34,-137.63 74.54,-94.03 56.44,-75.59"/>
<polygon fill="midnightblue" stroke="midnightblue" points="138.02,-163.68 147.53,-168.37 143.02,-158.78 138.02,-163.68"/>
</g>
<!-- Node272 -->
<g id="node20" class="node">
<title>Node272</title>
<g id="a_node20"><a xlink:href="_view_field_8cpp.html" target="_top" xlink:title=" ">
<polygon fill="white" stroke="black" points="114,-56.5 114,-75.5 198,-75.5 198,-56.5 114,-56.5"/>
<text text-anchor="middle" x="156" y="-63.5" font-family="Helvetica,sans-Serif" font-size="10.00">ViewField.cpp</text>
</a>
</g>
</g>
<!-- Node1&#45;&gt;Node272 -->
<g id="edge72" class="edge">
<title>Node1&#45;&gt;Node272</title>
<path fill="none" stroke="midnightblue" d="M156,-158.35C156,-134.25 156,-93.31 156,-75.59"/>
<polygon fill="midnightblue" stroke="midnightblue" points="152.5,-158.37 156,-168.37 159.5,-158.37 152.5,-158.37"/>
</g>
<!-- Node3 -->
<g id="node3" class="node">
<title>Node3</title>
<g id="a_node3"><a xlink:href="_b_c_interface_8cpp.html" target="_top" xlink:title=" ">
<polygon fill="white" stroke="black" points="3508,-0.5 3508,-19.5 3602,-19.5 3602,-0.5 3508,-0.5"/>
<text text-anchor="middle" x="3555" y="-7.5" font-family="Helvetica,sans-Serif" font-size="10.00">BCInterface.cpp</text>
</a>
</g>
</g>
<!-- Node2&#45;&gt;Node3 -->
<g id="edge2" class="edge">
<title>Node2&#45;&gt;Node3</title>
<path fill="none" stroke="midnightblue" d="M1805.92,-120.81C2077.7,-119.59 3416.03,-111.8 3495,-76 3521.3,-64.08 3541.33,-34.61 3550.11,-19.8"/>
<polygon fill="midnightblue" stroke="midnightblue" points="1805.59,-117.31 1795.61,-120.85 1805.62,-124.31 1805.59,-117.31"/>
</g>
<!-- Node4 -->
<g id="node4" class="node">
<title>Node4</title>
<g id="a_node4"><a xlink:href="_fixed_gradient_b_c_8_h.html" target="_top" xlink:title=" ">
<polygon fill="white" stroke="red" points="3542,-56.5 3542,-75.5 3650,-75.5 3650,-56.5 3542,-56.5"/>
<text text-anchor="middle" x="3596" y="-63.5" font-family="Helvetica,sans-Serif" font-size="10.00">FixedGradientBC.H</text>
</a>
</g>
</g>
<!-- Node2&#45;&gt;Node4 -->
<g id="edge3" class="edge">
<title>Node2&#45;&gt;Node4</title>
<path fill="none" stroke="midnightblue" d="M1805.62,-120.47C2051.5,-117.66 3179.26,-103.43 3528,-76 3532.51,-75.65 3537.18,-75.2 3541.86,-74.69"/>
<polygon fill="midnightblue" stroke="midnightblue" points="1805.54,-116.98 1795.58,-120.59 1805.62,-123.97 1805.54,-116.98"/>
</g>
<!-- Node6 -->
<g id="node5" class="node">
<title>Node6</title>
<g id="a_node5"><a xlink:href="scalar__bcs_8_h.html" target="_top" xlink:title=" ">
<polygon fill="white" stroke="red" points="3668,-56.5 3668,-75.5 3746,-75.5 3746,-56.5 3668,-56.5"/>
<text text-anchor="middle" x="3707" y="-63.5" font-family="Helvetica,sans-Serif" font-size="10.00">scalar_bcs.H</text>
</a>
</g>
</g>
<!-- Node2&#45;&gt;Node6 -->
<g id="edge5" class="edge">
<title>Node2&#45;&gt;Node6</title>
<path fill="none" stroke="midnightblue" d="M1805.84,-120.92C2063.02,-120.31 3283.75,-115.36 3659,-76 3661.87,-75.7 3664.82,-75.32 3667.78,-74.89"/>
<polygon fill="midnightblue" stroke="midnightblue" points="1805.69,-117.42 1795.7,-120.94 1805.71,-124.42 1805.69,-117.42"/>
</g>
<!-- Node24 -->
<g id="node6" class="node">
<title>Node24</title>
<g id="a_node6"><a xlink:href="velocity__bcs_8_h.html" target="_top" xlink:title=" ">
<polygon fill="white" stroke="red" points="3764,-56.5 3764,-75.5 3852,-75.5 3852,-56.5 3764,-56.5"/>
<text text-anchor="middle" x="3808" y="-63.5" font-family="Helvetica,sans-Serif" font-size="10.00">velocity_bcs.H</text>
</a>
</g>
</g>
<!-- Node2&#45;&gt;Node24 -->
<g id="edge6" class="edge">
<title>Node2&#45;&gt;Node24</title>
<path fill="none" stroke="midnightblue" d="M1805.68,-120.87C2070.15,-120 3359.19,-113.86 3755,-76 3757.88,-75.72 3760.84,-75.38 3763.82,-75"/>
<polygon fill="midnightblue" stroke="midnightblue" points="1805.62,-117.37 1795.64,-120.9 1805.65,-124.37 1805.62,-117.37"/>
</g>
<!-- Node25 -->
<g id="node7" class="node">
<title>Node25</title>
<g id="a_node7"><a xlink:href="_c_f_d_sim_8_h.html" target="_top" xlink:title=" ">
<polygon fill="white" stroke="red" points="450,-56.5 450,-75.5 516,-75.5 516,-56.5 450,-56.5"/>
<text text-anchor="middle" x="483" y="-63.5" font-family="Helvetica,sans-Serif" font-size="10.00">CFDSim.H</text>
</a>
</g>
</g>
<!-- Node2&#45;&gt;Node25 -->
<g id="edge7" class="edge">
<title>Node2&#45;&gt;Node25</title>
<path fill="none" stroke="midnightblue" d="M1710.32,-120.23C1513.67,-116.88 764.94,-102.64 530,-76 525.46,-75.49 520.7,-74.78 516.03,-73.98"/>
<polygon fill="midnightblue" stroke="midnightblue" points="1710.28,-123.73 1720.34,-120.4 1710.4,-116.73 1710.28,-123.73"/>
</g>
<!-- Node76 -->
<g id="node8" class="node">
<title>Node76</title>
<g id="a_node8"><a xlink:href="_p_d_e_base_8cpp.html" target="_top" xlink:title=" ">
<polygon fill="white" stroke="black" points="244,-0.5 244,-19.5 324,-19.5 324,-0.5 244,-0.5"/>
<text text-anchor="middle" x="284" y="-7.5" font-family="Helvetica,sans-Serif" font-size="10.00">PDEBase.cpp</text>
</a>
</g>
</g>
<!-- Node2&#45;&gt;Node76 -->
<g id="edge40" class="edge">
<title>Node2&#45;&gt;Node76</title>
<path fill="none" stroke="midnightblue" d="M1710.14,-120.48C1455.58,-117.63 271.14,-102.92 245,-76 228.23,-58.72 255.36,-32.93 272.2,-19.63"/>
<polygon fill="midnightblue" stroke="midnightblue" points="1710.14,-123.98 1720.18,-120.6 1710.22,-116.99 1710.14,-123.98"/>
</g>
<!-- Node91 -->
<g id="node9" class="node">
<title>Node91</title>
<g id="a_node9"><a xlink:href="_i_b_8cpp.html" target="_top" xlink:title=" ">
<polygon fill="white" stroke="black" points="342.5,-0.5 342.5,-19.5 389.5,-19.5 389.5,-0.5 342.5,-0.5"/>
<text text-anchor="middle" x="366" y="-7.5" font-family="Helvetica,sans-Serif" font-size="10.00">IB.cpp</text>
</a>
</g>
</g>
<!-- Node2&#45;&gt;Node91 -->
<g id="edge54" class="edge">
<title>Node2&#45;&gt;Node91</title>
<path fill="none" stroke="midnightblue" d="M1710.08,-120.99C1473.39,-120.77 438.39,-117.4 385,-76 367.72,-62.6 365.52,-34.36 365.61,-19.92"/>
<polygon fill="midnightblue" stroke="midnightblue" points="1710.41,-124.49 1720.42,-121 1710.42,-117.49 1710.41,-124.49"/>
</g>
<!-- Node102 -->
<g id="node10" class="node">
<title>Node102</title>
<g id="a_node10"><a xlink:href="incflo_8_h.html" target="_top" xlink:title=" ">
<polygon fill="white" stroke="red" points="407.5,-0.5 407.5,-19.5 460.5,-19.5 460.5,-0.5 407.5,-0.5"/>
<text text-anchor="middle" x="434" y="-7.5" font-family="Helvetica,sans-Serif" font-size="10.00">incflo.H</text>
</a>
</g>
</g>
<!-- Node2&#45;&gt;Node102 -->
<g id="edge57" class="edge">
<title>Node2&#45;&gt;Node102</title>
<path fill="none" stroke="midnightblue" d="M1710.07,-120.2C1503.63,-116.61 695.82,-101.06 585,-76 558,-69.89 485.2,-35.71 451.53,-19.52"/>
<polygon fill="midnightblue" stroke="midnightblue" points="1710.23,-123.7 1720.28,-120.38 1710.35,-116.7 1710.23,-123.7"/>
</g>
<!-- Node132 -->
<g id="node11" class="node">
<title>Node132</title>
<g id="a_node11"><a xlink:href="_ocean_waves_8cpp.html" target="_top" xlink:title=" ">
<polygon fill="white" stroke="black" points="604,-0.5 604,-19.5 704,-19.5 704,-0.5 604,-0.5"/>
<text text-anchor="middle" x="654" y="-7.5" font-family="Helvetica,sans-Serif" font-size="10.00">OceanWaves.cpp</text>
</a>
</g>
</g>
<!-- Node2&#45;&gt;Node132 -->
<g id="edge58" class="edge">
<title>Node2&#45;&gt;Node132</title>
<path fill="none" stroke="midnightblue" d="M1710.23,-120.9C1501.3,-120.24 676.63,-115.17 639,-76 624.24,-60.63 638.45,-33.78 647.6,-19.89"/>
<polygon fill="midnightblue" stroke="midnightblue" points="1710.27,-124.4 1720.28,-120.93 1710.29,-117.4 1710.27,-124.4"/>
</g>
<!-- Node141 -->
<g id="node12" class="node">
<title>Node141</title>
<g id="a_node12"><a xlink:href="_tioga_interface_8cpp.html" target="_top" xlink:title=" ">
<polygon fill="white" stroke="black" points="478.5,-0.5 478.5,-19.5 585.5,-19.5 585.5,-0.5 478.5,-0.5"/>
<text text-anchor="middle" x="532" y="-7.5" font-family="Helvetica,sans-Serif" font-size="10.00">TiogaInterface.cpp</text>
</a>
</g>
</g>
<!-- Node2&#45;&gt;Node141 -->
<g id="edge65" class="edge">
<title>Node2&#45;&gt;Node141</title>
<path fill="none" stroke="midnightblue" d="M1710.11,-120.62C1508.28,-118.84 732.69,-109.8 629,-76 592.57,-64.13 557.06,-34.36 540.97,-19.59"/>
<polygon fill="midnightblue" stroke="midnightblue" points="1710.35,-124.13 1720.38,-120.71 1710.41,-117.13 1710.35,-124.13"/>
</g>
<!-- Node260 -->
<g id="node13" class="node">
<title>Node260</title>
<g id="a_node13"><a xlink:href="_godunov_8_h.html" target="_top" xlink:title=" ">
<polygon fill="white" stroke="red" points="832,-56.5 832,-75.5 902,-75.5 902,-56.5 832,-56.5"/>
<text text-anchor="middle" x="867" y="-63.5" font-family="Helvetica,sans-Serif" font-size="10.00">Godunov.H</text>
</a>
</g>
</g>
<!-- Node2&#45;&gt;Node260 -->
<g id="edge13" class="edge">
<title>Node2&#45;&gt;Node260</title>
<path fill="none" stroke="midnightblue" d="M1709.89,-120.94C1580.29,-120.25 1213.25,-114.72 911,-76 908.22,-75.64 905.34,-75.21 902.47,-74.73"/>
<polygon fill="midnightblue" stroke="midnightblue" points="1710.23,-124.44 1720.25,-120.99 1710.27,-117.44 1710.23,-124.44"/>
</g>
<!-- Node265 -->
<g id="node14" class="node">
<title>Node265</title>
<g id="a_node14"><a xlink:href="_m_o_l_8_h.html" target="_top" xlink:title=" ">
<polygon fill="white" stroke="red" points="920.5,-56.5 920.5,-75.5 969.5,-75.5 969.5,-56.5 920.5,-56.5"/>
<text text-anchor="middle" x="945" y="-63.5" font-family="Helvetica,sans-Serif" font-size="10.00">MOL.H</text>
</a>
</g>
</g>
<!-- Node2&#45;&gt;Node265 -->
<g id="edge14" class="edge">
<title>Node2&#45;&gt;Node265</title>
<path fill="none" stroke="midnightblue" d="M1710.26,-121.56C1587.88,-122.29 1253.27,-119.77 979,-76 975.99,-75.52 972.85,-74.88 969.76,-74.17"/>
<polygon fill="midnightblue" stroke="midnightblue" points="1710.44,-125.06 1720.42,-121.49 1710.39,-118.06 1710.44,-125.06"/>
</g>
<!-- Node267 -->
<g id="node15" class="node">
<title>Node267</title>
<g id="a_node15"><a xlink:href="_field_8cpp.html" target="_top" xlink:title=" ">
<polygon fill="white" stroke="black" points="988,-56.5 988,-75.5 1048,-75.5 1048,-56.5 988,-56.5"/>
<text text-anchor="middle" x="1018" y="-63.5" font-family="Helvetica,sans-Serif" font-size="10.00">Field.cpp</text>
</a>
</g>
</g>
<!-- Node2&#45;&gt;Node267 -->
<g id="edge15" class="edge">
<title>Node2&#45;&gt;Node267</title>
<path fill="none" stroke="midnightblue" d="M1710.03,-120.6C1596.13,-119.08 1300.68,-111.7 1057,-76 1054.11,-75.58 1051.12,-75.05 1048.14,-74.47"/>
<polygon fill="midnightblue" stroke="midnightblue" points="1710.12,-124.1 1720.16,-120.73 1710.2,-117.1 1710.12,-124.1"/>
</g>
<!-- Node268 -->
<g id="node16" class="node">
<title>Node268</title>
<g id="a_node16"><a xlink:href="_field_repo_8cpp.html" target="_top" xlink:title=" ">
<polygon fill="white" stroke="black" points="1066.5,-56.5 1066.5,-75.5 1151.5,-75.5 1151.5,-56.5 1066.5,-56.5"/>
<text text-anchor="middle" x="1109" y="-63.5" font-family="Helvetica,sans-Serif" font-size="10.00">FieldRepo.cpp</text>
</a>
</g>
</g>
<!-- Node2&#45;&gt;Node268 -->
<g id="edge16" class="edge">
<title>Node2&#45;&gt;Node268</title>
<path fill="none" stroke="midnightblue" d="M1710.2,-119.02C1608.59,-114.46 1363.78,-101.58 1160,-76 1157.23,-75.65 1154.39,-75.26 1151.53,-74.83"/>
<polygon fill="midnightblue" stroke="midnightblue" points="1710.29,-122.53 1720.44,-119.47 1710.6,-115.54 1710.29,-122.53"/>
</g>
<!-- Node269 -->
<g id="node17" class="node">
<title>Node269</title>
<g id="a_node17"><a xlink:href="_int_field_8cpp.html" target="_top" xlink:title=" ">
<polygon fill="white" stroke="black" points="1169.5,-56.5 1169.5,-75.5 1242.5,-75.5 1242.5,-56.5 1169.5,-56.5"/>
<text text-anchor="middle" x="1206" y="-63.5" font-family="Helvetica,sans-Serif" font-size="10.00">IntField.cpp</text>
</a>
</g>
</g>
<!-- Node2&#45;&gt;Node269 -->
<g id="edge17" class="edge">
<title>Node2&#45;&gt;Node269</title>
<path fill="none" stroke="midnightblue" d="M1710.13,-118.49C1619.95,-113.39 1418.85,-100.16 1251,-76 1248.32,-75.61 1245.56,-75.17 1242.78,-74.7"/>
<polygon fill="midnightblue" stroke="midnightblue" points="1710.13,-122 1720.31,-119.06 1710.52,-115.01 1710.13,-122"/>
</g>
<!-- Node270 -->
<g id="node18" class="node">
<title>Node270</title>
<g id="a_node18"><a xlink:href="_int_scratch_field_8cpp.html" target="_top" xlink:title=" ">
<polygon fill="white" stroke="black" points="1260.5,-56.5 1260.5,-75.5 1369.5,-75.5 1369.5,-56.5 1260.5,-56.5"/>
<text text-anchor="middle" x="1315" y="-63.5" font-family="Helvetica,sans-Serif" font-size="10.00">IntScratchField.cpp</text>
</a>
</g>
</g>
<!-- Node2&#45;&gt;Node270 -->
<g id="edge18" class="edge">
<title>Node2&#45;&gt;Node270</title>
<path fill="none" stroke="midnightblue" d="M1710.21,-115.66C1638.29,-107.55 1498,-91.43 1379,-76 1376,-75.61 1372.91,-75.2 1369.8,-74.79"/>
<polygon fill="midnightblue" stroke="midnightblue" points="1709.98,-119.16 1720.31,-116.8 1710.77,-112.2 1709.98,-119.16"/>
</g>
<!-- Node2&#45;&gt;Node271 -->
<g id="edge19" class="edge">
<title>Node2&#45;&gt;Node271</title>
<path fill="none" stroke="midnightblue" d="M1710.16,-120.53C1473.77,-118.11 428.78,-105.84 105,-76 102.11,-75.73 99.14,-75.41 96.15,-75.05"/>
<polygon fill="midnightblue" stroke="midnightblue" points="1710.45,-124.04 1720.48,-120.64 1710.52,-117.04 1710.45,-124.04"/>
</g>
<!-- Node2&#45;&gt;Node272 -->
<g id="edge20" class="edge">
<title>Node2&#45;&gt;Node272</title>
<path fill="none" stroke="midnightblue" d="M1709.99,-120.45C1482.71,-117.69 513.3,-104.47 212,-76 207.49,-75.57 202.79,-75.01 198.12,-74.37"/>
<polygon fill="midnightblue" stroke="midnightblue" points="1710.21,-123.95 1720.25,-120.57 1710.29,-116.95 1710.21,-123.95"/>
</g>
<!-- Node273 -->
<g id="node21" class="node">
<title>Node273</title>
<g id="a_node21"><a xlink:href="field__algebra_8cpp.html" target="_top" xlink:title=" ">
<polygon fill="white" stroke="black" points="1388,-56.5 1388,-75.5 1488,-75.5 1488,-56.5 1388,-56.5"/>
<text text-anchor="middle" x="1438" y="-63.5" font-family="Helvetica,sans-Serif" font-size="10.00">field_algebra.cpp</text>
</a>
</g>
</g>
<!-- Node2&#45;&gt;Node273 -->
<g id="edge21" class="edge">
<title>Node2&#45;&gt;Node273</title>
<path fill="none" stroke="midnightblue" d="M1710.44,-112.97C1650.77,-102.91 1548.93,-85.72 1488.1,-75.45"/>
<polygon fill="midnightblue" stroke="midnightblue" points="1709.91,-116.43 1720.35,-114.65 1711.07,-109.53 1709.91,-116.43"/>
</g>
<!-- Node274 -->
<g id="node22" class="node">
<title>Node274</title>
<g id="a_node22"><a xlink:href="diffusion_8_h.html" target="_top" xlink:title=" ">
<polygon fill="white" stroke="red" points="1506.5,-56.5 1506.5,-75.5 1575.5,-75.5 1575.5,-56.5 1506.5,-56.5"/>
<text text-anchor="middle" x="1541" y="-63.5" font-family="Helvetica,sans-Serif" font-size="10.00">diffusion.H</text>
</a>
</g>
</g>
<!-- Node2&#45;&gt;Node274 -->
<g id="edge22" class="edge">
<title>Node2&#45;&gt;Node274</title>
<path fill="none" stroke="midnightblue" d="M1713.89,-110.02C1672.9,-99.82 1612.7,-84.84 1575.22,-75.52"/>
<polygon fill="midnightblue" stroke="midnightblue" points="1713.07,-113.43 1723.62,-112.44 1714.76,-106.63 1713.07,-113.43"/>
</g>
<!-- Node275 -->
<g id="node23" class="node">
<title>Node275</title>
<g id="a_node23"><a xlink:href="_density_source_8_h.html" target="_top" xlink:title=" ">
<polygon fill="white" stroke="red" points="1594,-56.5 1594,-75.5 1692,-75.5 1692,-56.5 1594,-56.5"/>
<text text-anchor="middle" x="1643" y="-63.5" font-family="Helvetica,sans-Serif" font-size="10.00">DensitySource.H</text>
</a>
</g>
</g>
<!-- Node2&#45;&gt;Node275 -->
<g id="edge23" class="edge">
<title>Node2&#45;&gt;Node275</title>
<path fill="none" stroke="midnightblue" d="M1730.52,-108.1C1709.03,-98.01 1679.78,-84.27 1661.14,-75.52"/>
<polygon fill="midnightblue" stroke="midnightblue" points="1729.24,-111.36 1739.78,-112.44 1732.21,-105.02 1729.24,-111.36"/>
</g>
<!-- Node276 -->
<g id="node24" class="node">
<title>Node276</title>
<g id="a_node24"><a xlink:href="_momentum_source_8_h.html" target="_top" xlink:title=" ">
<polygon fill="white" stroke="red" points="1862,-56.5 1862,-75.5 1978,-75.5 1978,-56.5 1862,-56.5"/>
<text text-anchor="middle" x="1920" y="-63.5" font-family="Helvetica,sans-Serif" font-size="10.00">MomentumSource.H</text>
</a>
</g>
</g>
<!-- Node2&#45;&gt;Node276 -->
<g id="edge24" class="edge">
<title>Node2&#45;&gt;Node276</title>
<path fill="none" stroke="midnightblue" d="M1793.48,-109.17C1823.99,-99 1867.24,-84.59 1894.45,-75.52"/>
<polygon fill="midnightblue" stroke="midnightblue" points="1792.05,-105.96 1783.67,-112.44 1794.26,-112.6 1792.05,-105.96"/>
</g>
<!-- Node184 -->
<g id="node25" class="node">
<title>Node184</title>
<g id="a_node25"><a xlink:href="_a_b_l_mean_boussinesq_8_h.html" target="_top" xlink:title=" ">
<polygon fill="white" stroke="red" points="1323,-0.5 1323,-19.5 1451,-19.5 1451,-0.5 1323,-0.5"/>
<text text-anchor="middle" x="1387" y="-7.5" font-family="Helvetica,sans-Serif" font-size="10.00">ABLMeanBoussinesq.H</text>
</a>
</g>
</g>
<!-- Node2&#45;&gt;Node184 -->
<g id="edge33" class="edge">
<title>Node2&#45;&gt;Node184</title>
<path fill="none" stroke="midnightblue" d="M1747.75,-103.52C1737.83,-88.31 1721.33,-67.01 1701,-56 1690.12,-50.1 1539.71,-30.3 1451.08,-19.03"/>
<polygon fill="midnightblue" stroke="midnightblue" points="1744.8,-105.41 1753.05,-112.06 1750.75,-101.72 1744.8,-105.41"/>
</g>
<!-- Node198 -->
<g id="node26" class="node">
<title>Node198</title>
<g id="a_node26"><a xlink:href="_a_b_l_meso_forcing_mom_8_h.html" target="_top" xlink:title=" ">
<polygon fill="white" stroke="red" points="1469,-0.5 1469,-19.5 1601,-19.5 1601,-0.5 1469,-0.5"/>
<text text-anchor="middle" x="1535" y="-7.5" font-family="Helvetica,sans-Serif" font-size="10.00">ABLMesoForcingMom.H</text>
</a>
</g>
</g>
<!-- Node2&#45;&gt;Node198 -->
<g id="edge34" class="edge">
<title>Node2&#45;&gt;Node198</title>
<path fill="none" stroke="midnightblue" d="M1755.95,-102.39C1753.33,-87.69 1747.41,-67.75 1734,-56 1714.32,-38.75 1651.07,-26.42 1601.1,-19.08"/>
<polygon fill="midnightblue" stroke="midnightblue" points="1752.5,-102.98 1757.37,-112.39 1759.43,-101.99 1752.5,-102.98"/>
</g>
<!-- Node280 -->
<g id="node27" class="node">
<title>Node280</title>
<g id="a_node27"><a xlink:href="_boussinesq_buoyancy_8_h.html" target="_top" xlink:title=" ">
<polygon fill="white" stroke="red" points="1619.5,-0.5 1619.5,-19.5 1748.5,-19.5 1748.5,-0.5 1619.5,-0.5"/>
<text text-anchor="middle" x="1684" y="-7.5" font-family="Helvetica,sans-Serif" font-size="10.00">BoussinesqBuoyancy.H</text>
</a>
</g>
</g>
<!-- Node2&#45;&gt;Node280 -->
<g id="edge35" class="edge">
<title>Node2&#45;&gt;Node280</title>
<path fill="none" stroke="midnightblue" d="M1768.34,-103.4C1774.97,-89.62 1780.82,-70.42 1772,-56 1760.63,-37.41 1738.88,-26.19 1719.85,-19.6"/>
<polygon fill="midnightblue" stroke="midnightblue" points="1765.2,-101.87 1763.58,-112.34 1771.37,-105.16 1765.2,-101.87"/>
</g>
<!-- Node282 -->
<g id="node28" class="node">
<title>Node282</title>
<g id="a_node28"><a xlink:href="_coriolis_forcing_8_h.html" target="_top" xlink:title=" ">
<polygon fill="white" stroke="red" points="1766.5,-0.5 1766.5,-19.5 1865.5,-19.5 1865.5,-0.5 1766.5,-0.5"/>
<text text-anchor="middle" x="1816" y="-7.5" font-family="Helvetica,sans-Serif" font-size="10.00">CoriolisForcing.H</text>
</a>
</g>
</g>
<!-- Node2&#45;&gt;Node282 -->
<g id="edge36" class="edge">
<title>Node2&#45;&gt;Node282</title>
<path fill="none" stroke="midnightblue" d="M1781.65,-106.63C1792.17,-98.92 1803.6,-88.44 1810,-76 1819.43,-57.66 1818.48,-32.54 1817.15,-19.56"/>
<polygon fill="midnightblue" stroke="midnightblue" points="1779.43,-103.9 1773.15,-112.44 1783.38,-109.68 1779.43,-103.9"/>
</g>
<!-- Node283 -->
<g id="node29" class="node">
<title>Node283</title>
<g id="a_node29"><a xlink:href="_density_buoyancy_8_h.html" target="_top" xlink:title=" ">
<polygon fill="white" stroke="red" points="1883.5,-0.5 1883.5,-19.5 1994.5,-19.5 1994.5,-0.5 1883.5,-0.5"/>
<text text-anchor="middle" x="1939" y="-7.5" font-family="Helvetica,sans-Serif" font-size="10.00">DensityBuoyancy.H</text>
</a>
</g>
</g>
<!-- Node2&#45;&gt;Node283 -->
<g id="edge37" class="edge">
<title>Node2&#45;&gt;Node283</title>
<path fill="none" stroke="midnightblue" d="M1805.63,-118.55C1865.87,-114.34 1964.49,-103.36 1987,-76 2003.04,-56.5 1972.79,-32.29 1953.42,-19.63"/>
<polygon fill="midnightblue" stroke="midnightblue" points="1805.33,-115.06 1795.58,-119.21 1805.79,-122.05 1805.33,-115.06"/>
</g>
<!-- Node285 -->
<g id="node30" class="node">
<title>Node285</title>
<g id="a_node30"><a xlink:href="_gravity_forcing_8_h.html" target="_top" xlink:title=" ">
<polygon fill="white" stroke="red" points="2013,-0.5 2013,-19.5 2111,-19.5 2111,-0.5 2013,-0.5"/>
<text text-anchor="middle" x="2062" y="-7.5" font-family="Helvetica,sans-Serif" font-size="10.00">GravityForcing.H</text>
</a>
</g>
</g>
<!-- Node2&#45;&gt;Node285 -->
<g id="edge38" class="edge">
<title>Node2&#45;&gt;Node285</title>
<path fill="none" stroke="midnightblue" d="M1805.8,-121.27C1857.75,-119.59 1941.66,-111 2004,-76 2028.53,-62.23 2048.03,-34.16 2056.86,-19.83"/>
<polygon fill="midnightblue" stroke="midnightblue" points="1805.45,-117.78 1795.53,-121.52 1805.62,-124.77 1805.45,-117.78"/>
</g>
<!-- Node185 -->
<g id="node31" class="node">
<title>Node185</title>
<g id="a_node31"><a xlink:href="_hurricane_forcing_8_h.html" target="_top" xlink:title=" ">
<polygon fill="white" stroke="red" points="2129,-0.5 2129,-19.5 2239,-19.5 2239,-0.5 2129,-0.5"/>
<text text-anchor="middle" x="2184" y="-7.5" font-family="Helvetica,sans-Serif" font-size="10.00">HurricaneForcing.H</text>
</a>
</g>
</g>
<!-- Node2&#45;&gt;Node185 -->
<g id="edge39" class="edge">
<title>Node2&#45;&gt;Node185</title>
<path fill="none" stroke="midnightblue" d="M1805.89,-116.6C1861.01,-110.73 1953.86,-98.4 2031,-76 2082.55,-61.03 2139.96,-33.5 2167.5,-19.57"/>
<polygon fill="midnightblue" stroke="midnightblue" points="1805.3,-113.14 1795.72,-117.65 1806.03,-120.1 1805.3,-113.14"/>
</g>
<!-- Node289 -->
<g id="node32" class="node">
<title>Node289</title>
<g id="a_node32"><a xlink:href="_m_m_s_forcing_8_h.html" target="_top" xlink:title=" ">
<polygon fill="white" stroke="red" points="2257,-0.5 2257,-19.5 2343,-19.5 2343,-0.5 2257,-0.5"/>
<text text-anchor="middle" x="2300" y="-7.5" font-family="Helvetica,sans-Serif" font-size="10.00">MMSForcing.H</text>
</a>
</g>
</g>
<!-- Node2&#45;&gt;Node289 -->
<g id="edge66" class="edge">
<title>Node2&#45;&gt;Node289</title>
<path fill="none" stroke="midnightblue" d="M1805.94,-116.45C1868.05,-110.03 1979.44,-96.73 2073,-76 2102.92,-69.37 2109.57,-64.57 2139,-56 2184,-42.89 2236.3,-28.41 2268.78,-19.51"/>
<polygon fill="midnightblue" stroke="midnightblue" points="1805.26,-113 1795.67,-117.49 1805.97,-119.96 1805.26,-113"/>
</g>
<!-- Node290 -->
<g id="node33" class="node">
<title>Node290</title>
<g id="a_node33"><a xlink:href="_p_d_e_helpers_8_h.html" target="_top" xlink:title=" ">
<polygon fill="white" stroke="red" points="254,-56.5 254,-75.5 338,-75.5 338,-56.5 254,-56.5"/>
<text text-anchor="middle" x="296" y="-63.5" font-family="Helvetica,sans-Serif" font-size="10.00">PDEHelpers.H</text>
</a>
</g>
</g>
<!-- Node2&#45;&gt;Node290 -->
<g id="edge41" class="edge">
<title>Node2&#45;&gt;Node290</title>
<path fill="none" stroke="midnightblue" d="M1709.91,-120.28C1495.34,-116.97 624.09,-102.11 352,-76 347.49,-75.57 342.79,-75 338.12,-74.36"/>
<polygon fill="midnightblue" stroke="midnightblue" points="1710.15,-123.79 1720.21,-120.44 1710.26,-116.79 1710.15,-123.79"/>
</g>
<!-- Node291 -->
<g id="node34" class="node">
<title>Node291</title>
<g id="a_node34"><a xlink:href="_s_d_r_source_8_h.html" target="_top" xlink:title=" ">
<polygon fill="white" stroke="red" points="2148,-56.5 2148,-75.5 2228,-75.5 2228,-56.5 2148,-56.5"/>
<text text-anchor="middle" x="2188" y="-63.5" font-family="Helvetica,sans-Serif" font-size="10.00">SDRSource.H</text>
</a>
</g>
</g>
<!-- Node2&#45;&gt;Node291 -->
<g id="edge43" class="edge">
<title>Node2&#45;&gt;Node291</title>
<path fill="none" stroke="midnightblue" d="M1805.75,-116C1877.24,-108.35 2016.3,-92.84 2134,-76 2138.52,-75.35 2143.24,-74.63 2147.93,-73.89"/>
<polygon fill="midnightblue" stroke="midnightblue" points="1805.27,-112.53 1795.7,-117.07 1806.01,-119.49 1805.27,-112.53"/>
</g>
<!-- Node293 -->
<g id="node35" class="node">
<title>Node293</title>
<g id="a_node35"><a xlink:href="_source_term_8_h.html" target="_top" xlink:title=" ">
<polygon fill="white" stroke="red" points="2246,-56.5 2246,-75.5 2330,-75.5 2330,-56.5 2246,-56.5"/>
<text text-anchor="middle" x="2288" y="-63.5" font-family="Helvetica,sans-Serif" font-size="10.00">SourceTerm.H</text>
</a>
</g>
</g>
<!-- Node2&#45;&gt;Node293 -->
<g id="edge44" class="edge">
<title>Node2&#45;&gt;Node293</title>
<path fill="none" stroke="midnightblue" d="M1805.7,-117.8C1892,-111.74 2079.71,-97.23 2237,-76 2239.85,-75.62 2242.79,-75.19 2245.74,-74.73"/>
<polygon fill="midnightblue" stroke="midnightblue" points="1805.42,-114.32 1795.69,-118.5 1805.91,-121.3 1805.42,-114.32"/>
</g>
<!-- Node199 -->
<g id="node36" class="node">
<title>Node199</title>
<g id="a_node36"><a xlink:href="_a_b_l_meso_forcing_temp_8_h.html" target="_top" xlink:title=" ">
<polygon fill="white" stroke="red" points="2361,-0.5 2361,-19.5 2495,-19.5 2495,-0.5 2361,-0.5"/>
<text text-anchor="middle" x="2428" y="-7.5" font-family="Helvetica,sans-Serif" font-size="10.00">ABLMesoForcingTemp.H</text>
</a>
</g>
</g>
<!-- Node2&#45;&gt;Node199 -->
<g id="edge45" class="edge">
<title>Node2&#45;&gt;Node199</title>
<path fill="none" stroke="midnightblue" d="M1805.93,-120.64C1926.86,-119.2 2241.61,-112 2339,-76 2372.74,-63.53 2404.92,-34.32 2419.64,-19.68"/>
<polygon fill="midnightblue" stroke="midnightblue" points="1805.83,-117.14 1795.87,-120.75 1805.9,-124.14 1805.83,-117.14"/>
</g>
<!-- Node186 -->
<g id="node37" class="node">
<title>Node186</title>
<g id="a_node37"><a xlink:href="_hurricane_temp_forcing_8_h.html" target="_top" xlink:title=" ">
<polygon fill="white" stroke="red" points="2513,-0.5 2513,-19.5 2649,-19.5 2649,-0.5 2513,-0.5"/>
<text text-anchor="middle" x="2581" y="-7.5" font-family="Helvetica,sans-Serif" font-size="10.00">HurricaneTempForcing.H</text>
</a>
</g>
</g>
<!-- Node2&#45;&gt;Node186 -->
<g id="edge46" class="edge">
<title>Node2&#45;&gt;Node186</title>
<path fill="none" stroke="midnightblue" d="M1806.14,-120.15C1962.92,-117.09 2452.52,-105.27 2517,-76 2544.11,-63.69 2565.92,-34.41 2575.59,-19.72"/>
<polygon fill="midnightblue" stroke="midnightblue" points="1805.8,-116.65 1795.87,-120.34 1805.93,-123.65 1805.8,-116.65"/>
</g>
<!-- Node294 -->
<g id="node38" class="node">
<title>Node294</title>
<g id="a_node38"><a xlink:href="_temperature_source_8_h.html" target="_top" xlink:title=" ">
<polygon fill="white" stroke="red" points="2386,-56.5 2386,-75.5 2508,-75.5 2508,-56.5 2386,-56.5"/>
<text text-anchor="middle" x="2447" y="-63.5" font-family="Helvetica,sans-Serif" font-size="10.00">TemperatureSource.H</text>
</a>
</g>
</g>
<!-- Node2&#45;&gt;Node294 -->
<g id="edge47" class="edge">
<title>Node2&#45;&gt;Node294</title>
<path fill="none" stroke="midnightblue" d="M1805.91,-118.25C1909.37,-112.13 2161.4,-96.34 2372,-76 2376.44,-75.57 2381.02,-75.1 2385.63,-74.6"/>
<polygon fill="midnightblue" stroke="midnightblue" points="1805.56,-114.76 1795.78,-118.84 1805.97,-121.75 1805.56,-114.76"/>
</g>
<!-- Node296 -->
<g id="node39" class="node">
<title>Node296</title>
<g id="a_node39"><a xlink:href="_t_k_e_source_8_h.html" target="_top" xlink:title=" ">
<polygon fill="white" stroke="red" points="2564.5,-56.5 2564.5,-75.5 2643.5,-75.5 2643.5,-56.5 2564.5,-56.5"/>
<text text-anchor="middle" x="2604" y="-63.5" font-family="Helvetica,sans-Serif" font-size="10.00">TKESource.H</text>
</a>
</g>
</g>
<!-- Node2&#45;&gt;Node296 -->
<g id="edge50" class="edge">
<title>Node2&#45;&gt;Node296</title>
<path fill="none" stroke="midnightblue" d="M1805.88,-120.09C1929.45,-117.34 2269.04,-107.3 2550,-76 2554.63,-75.48 2559.46,-74.84 2564.26,-74.13"/>
<polygon fill="midnightblue" stroke="midnightblue" points="1805.56,-116.59 1795.64,-120.31 1805.71,-123.59 1805.56,-116.59"/>
</g>
<!-- Node300 -->
<g id="node40" class="node">
<title>Node300</title>
<g id="a_node40"><a xlink:href="_split_advection_8_h.html" target="_top" xlink:title=" ">
<polygon fill="white" stroke="red" points="2661,-56.5 2661,-75.5 2759,-75.5 2759,-56.5 2661,-56.5"/>
<text text-anchor="middle" x="2710" y="-63.5" font-family="Helvetica,sans-Serif" font-size="10.00">SplitAdvection.H</text>
</a>
</g>
</g>
<!-- Node2&#45;&gt;Node300 -->
<g id="edge51" class="edge">
<title>Node2&#45;&gt;Node300</title>
<path fill="none" stroke="midnightblue" d="M1805.95,-120.38C1940.12,-118.26 2330.57,-109.46 2653,-76 2655.59,-75.73 2658.24,-75.42 2660.92,-75.09"/>
<polygon fill="midnightblue" stroke="midnightblue" points="1805.57,-116.89 1795.63,-120.54 1805.68,-123.89 1805.57,-116.89"/>
</g>
<!-- Node302 -->
<g id="node41" class="node">
<title>Node302</title>
<g id="a_node41"><a xlink:href="vof__hybridsolver__ops_8_h.html" target="_top" xlink:title=" ">
<polygon fill="white" stroke="red" points="2777.5,-56.5 2777.5,-75.5 2908.5,-75.5 2908.5,-56.5 2777.5,-56.5"/>
<text text-anchor="middle" x="2843" y="-63.5" font-family="Helvetica,sans-Serif" font-size="10.00">vof_hybridsolver_ops.H</text>
</a>
</g>
</g>
<!-- Node2&#45;&gt;Node302 -->
<g id="edge52" class="edge">
<title>Node2&#45;&gt;Node302</title>
<path fill="none" stroke="midnightblue" d="M1805.99,-120.14C1951.2,-117.25 2398.52,-106.36 2768,-76 2771.01,-75.75 2774.08,-75.48 2777.18,-75.18"/>
<polygon fill="midnightblue" stroke="midnightblue" points="1805.6,-116.64 1795.67,-120.34 1805.73,-123.64 1805.6,-116.64"/>
</g>
<!-- Node303 -->
<g id="node42" class="node">
<title>Node303</title>
<g id="a_node42"><a xlink:href="fvm__utils_8_h.html" target="_top" xlink:title=" ">
<polygon fill="white" stroke="red" points="2926.5,-56.5 2926.5,-75.5 2999.5,-75.5 2999.5,-56.5 2926.5,-56.5"/>
<text text-anchor="middle" x="2963" y="-63.5" font-family="Helvetica,sans-Serif" font-size="10.00">fvm_utils.H</text>
</a>
</g>
</g>
<!-- Node2&#45;&gt;Node303 -->
<g id="edge53" class="edge">
<title>Node2&#45;&gt;Node303</title>
<path fill="none" stroke="midnightblue" d="M1805.8,-120.16C1995.71,-116.66 2697.27,-102.19 2918,-76 2920.69,-75.68 2923.46,-75.29 2926.24,-74.85"/>
<polygon fill="midnightblue" stroke="midnightblue" points="1805.52,-116.66 1795.58,-120.34 1805.64,-123.66 1805.52,-116.66"/>
</g>
<!-- Node315 -->
<g id="node43" class="node">
<title>Node315</title>
<g id="a_node43"><a xlink:href="_i_b_8_h.html" target="_top" xlink:title=" ">
<polygon fill="white" stroke="red" points="394.5,-56.5 394.5,-75.5 431.5,-75.5 431.5,-56.5 394.5,-56.5"/>
<text text-anchor="middle" x="413" y="-63.5" font-family="Helvetica,sans-Serif" font-size="10.00">IB.H</text>
</a>
</g>
</g>
<!-- Node2&#45;&gt;Node315 -->
<g id="edge55" class="edge">
<title>Node2&#45;&gt;Node315</title>
<path fill="none" stroke="midnightblue" d="M1710.17,-121.13C1504.22,-121.44 692.16,-119.78 441,-76 437.98,-75.47 434.84,-74.7 431.8,-73.82"/>
<polygon fill="midnightblue" stroke="midnightblue" points="1710.36,-124.63 1720.36,-121.12 1710.35,-117.63 1710.36,-124.63"/>
</g>
<!-- Node316 -->
<g id="node44" class="node">
<title>Node316</title>
<g id="a_node44"><a xlink:href="_ocean_waves_8_h.html" target="_top" xlink:title=" ">
<polygon fill="white" stroke="red" points="648,-56.5 648,-75.5 738,-75.5 738,-56.5 648,-56.5"/>
<text text-anchor="middle" x="693" y="-63.5" font-family="Helvetica,sans-Serif" font-size="10.00">OceanWaves.H</text>
</a>
</g>
</g>
<!-- Node2&#45;&gt;Node316 -->
<g id="edge59" class="edge">
<title>Node2&#45;&gt;Node316</title>
<path fill="none" stroke="midnightblue" d="M1710.15,-120.67C1565.38,-119.28 1119.49,-112.14 752,-76 747.46,-75.55 742.74,-75 738.04,-74.38"/>
<polygon fill="midnightblue" stroke="midnightblue" points="1710.41,-124.17 1720.44,-120.76 1710.48,-117.17 1710.41,-124.17"/>
</g>
<!-- Node19 -->
<g id="node45" class="node">
<title>Node19</title>
<g id="a_node45"><a xlink:href="hos__waves__ops_8_h.html" target="_top" xlink:title=" ">
<polygon fill="white" stroke="red" points="722,-0.5 722,-19.5 826,-19.5 826,-0.5 722,-0.5"/>
<text text-anchor="middle" x="774" y="-7.5" font-family="Helvetica,sans-Serif" font-size="10.00">hos_waves_ops.H</text>
</a>
</g>
</g>
<!-- Node2&#45;&gt;Node19 -->
<g id="edge63" class="edge">
<title>Node2&#45;&gt;Node19</title>
<path fill="none" stroke="midnightblue" d="M1710.3,-121.31C1529.33,-122.14 891.48,-121.75 814,-76 792.55,-63.33 781.03,-34.22 776.43,-19.64"/>
<polygon fill="midnightblue" stroke="midnightblue" points="1710.33,-124.81 1720.32,-121.26 1710.3,-117.81 1710.33,-124.81"/>
</g>
<!-- Node21 -->
<g id="node46" class="node">
<title>Node21</title>
<g id="a_node46"><a xlink:href="waves2amr__ops_8_h.html" target="_top" xlink:title=" ">
<polygon fill="white" stroke="red" points="844.5,-0.5 844.5,-19.5 951.5,-19.5 951.5,-0.5 844.5,-0.5"/>
<text text-anchor="middle" x="898" y="-7.5" font-family="Helvetica,sans-Serif" font-size="10.00">waves2amr_ops.H</text>
</a>
</g>
</g>
<!-- Node2&#45;&gt;Node21 -->
<g id="edge64" class="edge">
<title>Node2&#45;&gt;Node21</title>
<path fill="none" stroke="midnightblue" d="M1710.41,-120.51C1524.23,-118.36 853.88,-108.4 823,-76 802.08,-54.05 845.37,-31.56 874.48,-19.64"/>
<polygon fill="midnightblue" stroke="midnightblue" points="1710.4,-124.01 1720.44,-120.62 1710.48,-117.01 1710.4,-124.01"/>
</g>
<!-- Node317 -->
<g id="node47" class="node">
<title>Node317</title>
<g id="a_node47"><a xlink:href="hydrostatic__ops_8_h.html" target="_top" xlink:title=" ">
<polygon fill="white" stroke="red" points="3018,-56.5 3018,-75.5 3122,-75.5 3122,-56.5 3018,-56.5"/>
<text text-anchor="middle" x="3070" y="-63.5" font-family="Helvetica,sans-Serif" font-size="10.00">hydrostatic_ops.H</text>
</a>
</g>
</g>
<!-- Node2&#45;&gt;Node317 -->
<g id="edge67" class="edge">
<title>Node2&#45;&gt;Node317</title>
<path fill="none" stroke="midnightblue" d="M1806.11,-121.18C1972.92,-121.4 2541.77,-118.74 3009,-76 3011.88,-75.74 3014.83,-75.43 3017.8,-75.09"/>
<polygon fill="midnightblue" stroke="midnightblue" points="1805.71,-117.68 1795.71,-121.16 1805.7,-124.68 1805.71,-117.68"/>
</g>
<!-- Node55 -->
<g id="node48" class="node">
<title>Node55</title>
<g id="a_node48"><a xlink:href="_burggraf_lid_8cpp.html" target="_top" xlink:title=" ">
<polygon fill="white" stroke="black" points="3140.5,-56.5 3140.5,-75.5 3233.5,-75.5 3233.5,-56.5 3140.5,-56.5"/>
<text text-anchor="middle" x="3187" y="-63.5" font-family="Helvetica,sans-Serif" font-size="10.00">BurggrafLid.cpp</text>
</a>
</g>
</g>
<!-- Node2&#45;&gt;Node55 -->
<g id="edge68" class="edge">
<title>Node2&#45;&gt;Node55</title>
<path fill="none" stroke="midnightblue" d="M1805.66,-120.25C2016.36,-116.8 2865.59,-101.57 3131,-76 3134.04,-75.71 3137.16,-75.35 3140.31,-74.96"/>
<polygon fill="midnightblue" stroke="midnightblue" points="1805.48,-116.75 1795.54,-120.41 1805.59,-123.75 1805.48,-116.75"/>
</g>
<!-- Node56 -->
<g id="node49" class="node">
<title>Node56</title>
<g id="a_node49"><a xlink:href="_custom_scalar_8cpp.html" target="_top" xlink:title=" ">
<polygon fill="white" stroke="black" points="3252,-56.5 3252,-75.5 3356,-75.5 3356,-56.5 3252,-56.5"/>
<text text-anchor="middle" x="3304" y="-63.5" font-family="Helvetica,sans-Serif" font-size="10.00">CustomScalar.cpp</text>
</a>
</g>
</g>
<!-- Node2&#45;&gt;Node56 -->
<g id="edge69" class="edge">
<title>Node2&#45;&gt;Node56</title>
<path fill="none" stroke="midnightblue" d="M1805.87,-120.3C2027.37,-116.94 2954.19,-101.59 3243,-76 3245.88,-75.74 3248.83,-75.44 3251.8,-75.11"/>
<polygon fill="midnightblue" stroke="midnightblue" points="1805.51,-116.8 1795.56,-120.45 1805.62,-123.8 1805.51,-116.8"/>
</g>
<!-- Node57 -->
<g id="node50" class="node">
<title>Node57</title>
<g id="a_node50"><a xlink:href="_custom_velocity_8cpp.html" target="_top" xlink:title=" ">
<polygon fill="white" stroke="black" points="3374,-56.5 3374,-75.5 3486,-75.5 3486,-56.5 3374,-56.5"/>
<text text-anchor="middle" x="3430" y="-63.5" font-family="Helvetica,sans-Serif" font-size="10.00">CustomVelocity.cpp</text>
</a>
</g>
</g>
<!-- Node2&#45;&gt;Node57 -->
<g id="edge70" class="edge">
<title>Node2&#45;&gt;Node57</title>
<path fill="none" stroke="midnightblue" d="M1806,-120.37C2038.67,-117.19 3050.66,-102.08 3365,-76 3367.84,-75.76 3370.74,-75.49 3373.67,-75.18"/>
<polygon fill="midnightblue" stroke="midnightblue" points="1805.79,-116.87 1795.83,-120.5 1805.88,-123.87 1805.79,-116.87"/>
</g>
<!-- Node4&#45;&gt;Node3 -->
<g id="edge4" class="edge">
<title>Node4&#45;&gt;Node3</title>
<path fill="none" stroke="midnightblue" d="M3582.98,-47.86C3575.88,-38.5 3567.4,-27.33 3561.64,-19.75"/>
<polygon fill="midnightblue" stroke="midnightblue" points="3580.39,-50.24 3589.23,-56.08 3585.97,-46 3580.39,-50.24"/>
</g>
<!-- Node25&#45;&gt;Node76 -->
<g id="edge8" class="edge">
<title>Node25&#45;&gt;Node76</title>
<path fill="none" stroke="midnightblue" d="M441.35,-53.7C403.79,-43.51 349.39,-28.74 315.38,-19.52"/>
<polygon fill="midnightblue" stroke="midnightblue" points="440.9,-57.2 451.47,-56.44 442.73,-50.45 440.9,-57.2"/>
</g>
<!-- Node25&#45;&gt;Node91 -->
<g id="edge9" class="edge">
<title>Node25&#45;&gt;Node91</title>
<path fill="none" stroke="midnightblue" d="M455.34,-52.23C433.45,-42.13 403.5,-28.31 384.45,-19.52"/>
<polygon fill="midnightblue" stroke="midnightblue" points="453.91,-55.43 464.46,-56.44 456.85,-49.08 453.91,-55.43"/>
</g>
<!-- Node25&#45;&gt;Node102 -->
<g id="edge10" class="edge">
<title>Node25&#45;&gt;Node102</title>
<path fill="none" stroke="midnightblue" d="M467.97,-48.43C459.38,-38.97 448.96,-27.48 441.94,-19.75"/>
<polygon fill="midnightblue" stroke="midnightblue" points="465.6,-51.03 474.91,-56.08 470.78,-46.33 465.6,-51.03"/>
</g>
<!-- Node25&#45;&gt;Node132 -->
<g id="edge11" class="edge">
<title>Node25&#45;&gt;Node132</title>
<path fill="none" stroke="midnightblue" d="M520.04,-53.3C552.26,-43.13 598.19,-28.62 627.03,-19.52"/>
<polygon fill="midnightblue" stroke="midnightblue" points="518.58,-50.09 510.1,-56.44 520.69,-56.77 518.58,-50.09"/>
</g>
<!-- Node25&#45;&gt;Node141 -->
<g id="edge12" class="edge">
<title>Node25&#45;&gt;Node141</title>
<path fill="none" stroke="midnightblue" d="M498.03,-48.43C506.62,-38.97 517.04,-27.48 524.06,-19.75"/>
<polygon fill="midnightblue" stroke="midnightblue" points="495.22,-46.33 491.09,-56.08 500.4,-51.03 495.22,-46.33"/>
</g>
<!-- Node276&#45;&gt;Node184 -->
<g id="edge25" class="edge">
<title>Node276&#45;&gt;Node184</title>
<path fill="none" stroke="midnightblue" d="M1851.8,-58.87C1761.94,-50.67 1599,-35.37 1460,-20 1457.08,-19.68 1454.1,-19.34 1451.08,-18.99"/>
<polygon fill="midnightblue" stroke="midnightblue" points="1851.58,-62.36 1861.86,-59.78 1852.22,-55.39 1851.58,-62.36"/>
</g>
<!-- Node276&#45;&gt;Node198 -->
<g id="edge26" class="edge">
<title>Node276&#45;&gt;Node198</title>
<path fill="none" stroke="midnightblue" d="M1851.98,-55.46C1779.39,-45.28 1665.44,-29.3 1595.76,-19.52"/>
<polygon fill="midnightblue" stroke="midnightblue" points="1851.56,-58.93 1861.94,-56.86 1852.53,-52 1851.56,-58.93"/>
</g>
<!-- Node276&#45;&gt;Node280 -->
<g id="edge27" class="edge">
<title>Node276&#45;&gt;Node280</title>
<path fill="none" stroke="midnightblue" d="M1872.59,-54.15C1828,-43.95 1762.15,-28.88 1721.22,-19.52"/>
<polygon fill="midnightblue" stroke="midnightblue" points="1872.08,-57.62 1882.61,-56.44 1873.64,-50.8 1872.08,-57.62"/>
</g>
<!-- Node276&#45;&gt;Node282 -->
<g id="edge28" class="edge">
<title>Node276&#45;&gt;Node282</title>
<path fill="none" stroke="midnightblue" d="M1894.17,-51.59C1874.94,-41.61 1849.26,-28.27 1832.67,-19.65"/>
<polygon fill="midnightblue" stroke="midnightblue" points="1892.8,-54.82 1903.29,-56.32 1896.03,-48.61 1892.8,-54.82"/>
</g>
<!-- Node276&#45;&gt;Node283 -->
<g id="edge29" class="edge">
<title>Node276&#45;&gt;Node283</title>
<path fill="none" stroke="midnightblue" d="M1926.55,-46.4C1929.72,-37.36 1933.39,-26.94 1935.92,-19.75"/>
<polygon fill="midnightblue" stroke="midnightblue" points="1923.15,-45.49 1923.14,-56.08 1929.76,-47.81 1923.15,-45.49"/>
</g>
<!-- Node276&#45;&gt;Node285 -->
<g id="edge30" class="edge">
<title>Node276&#45;&gt;Node285</title>
<path fill="none" stroke="midnightblue" d="M1952.16,-52.77C1978.83,-42.63 2016.07,-28.47 2039.6,-19.52"/>
<polygon fill="midnightblue" stroke="midnightblue" points="1950.6,-49.62 1942.5,-56.44 1953.09,-56.16 1950.6,-49.62"/>
</g>
<!-- Node276&#45;&gt;Node185 -->
<g id="edge31" class="edge">
<title>Node276&#45;&gt;Node185</title>
<path fill="none" stroke="midnightblue" d="M1971.78,-54.41C2021.67,-44.2 2096.2,-28.96 2142.36,-19.52"/>
<polygon fill="midnightblue" stroke="midnightblue" points="1970.93,-51.01 1961.83,-56.44 1972.33,-57.87 1970.93,-51.01"/>
</g>
<!-- Node276&#45;&gt;Node289 -->
<g id="edge32" class="edge">
<title>Node276&#45;&gt;Node289</title>
<path fill="none" stroke="midnightblue" d="M1988.08,-56.37C2054.49,-47.78 2158.32,-33.91 2248,-20 2250.9,-19.55 2253.88,-19.07 2256.89,-18.58"/>
<polygon fill="midnightblue" stroke="midnightblue" points="1987.62,-52.9 1978.15,-57.65 1988.52,-59.84 1987.62,-52.9"/>
</g>
<!-- Node290&#45;&gt;Node76 -->
<g id="edge42" class="edge">
<title>Node290&#45;&gt;Node76</title>
<path fill="none" stroke="midnightblue" d="M291.8,-46.1C289.81,-37.14 287.52,-26.86 285.94,-19.75"/>
<polygon fill="midnightblue" stroke="midnightblue" points="288.43,-47.08 294.02,-56.08 295.27,-45.56 288.43,-47.08"/>
</g>
<!-- Node294&#45;&gt;Node199 -->
<g id="edge48" class="edge">
<title>Node294&#45;&gt;Node199</title>
<path fill="none" stroke="midnightblue" d="M2440.45,-46.4C2437.28,-37.36 2433.61,-26.94 2431.08,-19.75"/>
<polygon fill="midnightblue" stroke="midnightblue" points="2437.24,-47.81 2443.86,-56.08 2443.85,-45.49 2437.24,-47.81"/>
</g>
<!-- Node294&#45;&gt;Node186 -->
<g id="edge49" class="edge">
<title>Node294&#45;&gt;Node186</title>
<path fill="none" stroke="midnightblue" d="M2477.68,-52.64C2502.82,-42.5 2537.75,-28.43 2559.87,-19.52"/>
<polygon fill="midnightblue" stroke="midnightblue" points="2476.2,-49.46 2468.23,-56.44 2478.82,-55.95 2476.2,-49.46"/>
</g>
<!-- Node315&#45;&gt;Node91 -->
<g id="edge56" class="edge">
<title>Node315&#45;&gt;Node91</title>
<path fill="none" stroke="midnightblue" d="M398.58,-48.43C390.34,-38.97 380.35,-27.48 373.62,-19.75"/>
<polygon fill="midnightblue" stroke="midnightblue" points="396.03,-50.84 405.24,-56.08 401.31,-46.24 396.03,-50.84"/>
</g>
<!-- Node316&#45;&gt;Node132 -->
<g id="edge60" class="edge">
<title>Node316&#45;&gt;Node132</title>
<path fill="none" stroke="midnightblue" d="M680.62,-47.86C673.86,-38.5 665.79,-27.33 660.32,-19.75"/>
<polygon fill="midnightblue" stroke="midnightblue" points="677.87,-50.03 686.56,-56.08 683.54,-45.93 677.87,-50.03"/>
</g>
<!-- Node316&#45;&gt;Node19 -->
<g id="edge61" class="edge">
<title>Node316&#45;&gt;Node19</title>
<path fill="none" stroke="midnightblue" d="M714.57,-50.62C729.36,-40.76 748.51,-27.99 761.02,-19.65"/>
<polygon fill="midnightblue" stroke="midnightblue" points="712.39,-47.86 706.01,-56.32 716.28,-53.69 712.39,-47.86"/>
</g>
<!-- Node316&#45;&gt;Node21 -->
<g id="edge62" class="edge">
<title>Node316&#45;&gt;Node21</title>
<path fill="none" stroke="midnightblue" d="M735.41,-53.83C774.11,-43.63 830.49,-28.78 865.67,-19.52"/>
<polygon fill="midnightblue" stroke="midnightblue" points="734.26,-50.51 725.48,-56.44 736.04,-57.28 734.26,-50.51"/>
</g>
</g>
</svg>
