<?xml version="1.0" encoding="UTF-8" standalone="no"?>
<!DOCTYPE svg PUBLIC "-//W3C//DTD SVG 1.1//EN"
 "http://www.w3.org/Graphics/SVG/1.1/DTD/svg11.dtd">
<!-- Generated by graphviz version 2.43.0 (0)
 -->
<!-- Title: TurbulenceModel.H Pages: 1 -->
<svg width="2043pt" height="364pt"
 viewBox="0.00 0.00 2043.00 364.00" xmlns="http://www.w3.org/2000/svg" xmlns:xlink="http://www.w3.org/1999/xlink">
<g id="graph0" class="graph" transform="scale(1 1) rotate(0) translate(4 360)">
<title>TurbulenceModel.H</title>
<polygon fill="white" stroke="transparent" points="-4,4 -4,-360 2039,-360 2039,4 -4,4"/>
<!-- Node1 -->
<g id="node1" class="node">
<title>Node1</title>
<g id="a_node1"><a xlink:title=" ">
<polygon fill="#bfbfbf" stroke="black" points="712,-336.5 712,-355.5 822,-355.5 822,-336.5 712,-336.5"/>
<text text-anchor="middle" x="767" y="-343.5" font-family="Helvetica,sans-Serif" font-size="10.00">TurbulenceModel.H</text>
</a>
</g>
</g>
<!-- Node2 -->
<g id="node2" class="node">
<title>Node2</title>
<g id="a_node2"><a xlink:href="_c_f_d_sim_8cpp.html" target="_top" xlink:title=" ">
<polygon fill="white" stroke="black" points="250,-280.5 250,-299.5 326,-299.5 326,-280.5 250,-280.5"/>
<text text-anchor="middle" x="288" y="-287.5" font-family="Helvetica,sans-Serif" font-size="10.00">CFDSim.cpp</text>
</a>
</g>
</g>
<!-- Node1&#45;&gt;Node2 -->
<g id="edge1" class="edge">
<title>Node1&#45;&gt;Node2</title>
<path fill="none" stroke="midnightblue" d="M701.92,-339.96C617.18,-333.01 464.57,-319.12 335,-300 332.12,-299.58 329.15,-299.1 326.17,-298.59"/>
<polygon fill="midnightblue" stroke="midnightblue" points="701.66,-343.46 711.92,-340.78 702.23,-336.48 701.66,-343.46"/>
</g>
<!-- Node3 -->
<g id="node3" class="node">
<title>Node3</title>
<g id="a_node3"><a xlink:href="_p_d_e_ops_8_h.html" target="_top" xlink:title=" ">
<polygon fill="white" stroke="black" points="344.5,-280.5 344.5,-299.5 409.5,-299.5 409.5,-280.5 344.5,-280.5"/>
<text text-anchor="middle" x="377" y="-287.5" font-family="Helvetica,sans-Serif" font-size="10.00">PDEOps.H</text>
</a>
</g>
</g>
<!-- Node1&#45;&gt;Node3 -->
<g id="edge2" class="edge">
<title>Node1&#45;&gt;Node3</title>
<path fill="none" stroke="midnightblue" d="M701.93,-338.21C631.84,-330.52 517.15,-316.83 419,-300 415.91,-299.47 412.71,-298.87 409.51,-298.24"/>
<polygon fill="midnightblue" stroke="midnightblue" points="701.62,-341.7 711.94,-339.3 702.38,-334.74 701.62,-341.7"/>
</g>
<!-- Node54 -->
<g id="node30" class="node">
<title>Node54</title>
<g id="a_node30"><a xlink:href="_s_d_r_src_8cpp.html" target="_top" xlink:title=" ">
<polygon fill="white" stroke="black" points="428,-280.5 428,-299.5 500,-299.5 500,-280.5 428,-280.5"/>
<text text-anchor="middle" x="464" y="-287.5" font-family="Helvetica,sans-Serif" font-size="10.00">SDRSrc.cpp</text>
</a>
</g>
</g>
<!-- Node1&#45;&gt;Node54 -->
<g id="edge61" class="edge">
<title>Node1&#45;&gt;Node54</title>
<path fill="none" stroke="midnightblue" d="M705.9,-334.78C653.57,-325.92 576.25,-312.59 509,-300 506.18,-299.47 503.26,-298.92 500.33,-298.35"/>
<polygon fill="midnightblue" stroke="midnightblue" points="705.58,-338.28 716.02,-336.49 706.74,-331.37 705.58,-338.28"/>
</g>
<!-- Node55 -->
<g id="node31" class="node">
<title>Node55</title>
<g id="a_node31"><a xlink:href="_ksgs_m84_src_8cpp.html" target="_top" xlink:title=" ">
<polygon fill="white" stroke="black" points="518,-280.5 518,-299.5 614,-299.5 614,-280.5 518,-280.5"/>
<text text-anchor="middle" x="566" y="-287.5" font-family="Helvetica,sans-Serif" font-size="10.00">KsgsM84Src.cpp</text>
</a>
</g>
</g>
<!-- Node1&#45;&gt;Node55 -->
<g id="edge62" class="edge">
<title>Node1&#45;&gt;Node55</title>
<path fill="none" stroke="midnightblue" d="M725.42,-333.83C687.47,-323.63 632.19,-308.78 597.7,-299.52"/>
<polygon fill="midnightblue" stroke="midnightblue" points="724.59,-337.23 735.15,-336.44 726.4,-330.47 724.59,-337.23"/>
</g>
<!-- Node56 -->
<g id="node32" class="node">
<title>Node56</title>
<g id="a_node32"><a xlink:href="_kw_s_s_t_src_8cpp.html" target="_top" xlink:title=" ">
<polygon fill="white" stroke="black" points="632.5,-280.5 632.5,-299.5 717.5,-299.5 717.5,-280.5 632.5,-280.5"/>
<text text-anchor="middle" x="675" y="-287.5" font-family="Helvetica,sans-Serif" font-size="10.00">KwSSTSrc.cpp</text>
</a>
</g>
</g>
<!-- Node1&#45;&gt;Node56 -->
<g id="edge63" class="edge">
<title>Node1&#45;&gt;Node56</title>
<path fill="none" stroke="midnightblue" d="M743.45,-331.18C726.52,-321.24 704.22,-308.15 689.74,-299.65"/>
<polygon fill="midnightblue" stroke="midnightblue" points="741.82,-334.28 752.22,-336.32 745.37,-328.24 741.82,-334.28"/>
</g>
<!-- Node57 -->
<g id="node33" class="node">
<title>Node57</title>
<g id="a_node33"><a xlink:href="incflo_8cpp.html" target="_top" xlink:title=" ">
<polygon fill="white" stroke="black" points="735.5,-280.5 735.5,-299.5 798.5,-299.5 798.5,-280.5 735.5,-280.5"/>
<text text-anchor="middle" x="767" y="-287.5" font-family="Helvetica,sans-Serif" font-size="10.00">incflo.cpp</text>
</a>
</g>
</g>
<!-- Node1&#45;&gt;Node57 -->
<g id="edge64" class="edge">
<title>Node1&#45;&gt;Node57</title>
<path fill="none" stroke="midnightblue" d="M767,-325.8C767,-316.91 767,-306.78 767,-299.75"/>
<polygon fill="midnightblue" stroke="midnightblue" points="763.5,-326.08 767,-336.08 770.5,-326.08 763.5,-326.08"/>
</g>
<!-- Node58 -->
<g id="node34" class="node">
<title>Node58</title>
<g id="a_node34"><a xlink:href="incflo__advance_8cpp.html" target="_top" xlink:title=" ">
<polygon fill="white" stroke="black" points="817,-280.5 817,-299.5 927,-299.5 927,-280.5 817,-280.5"/>
<text text-anchor="middle" x="872" y="-287.5" font-family="Helvetica,sans-Serif" font-size="10.00">incflo_advance.cpp</text>
</a>
</g>
</g>
<!-- Node1&#45;&gt;Node58 -->
<g id="edge65" class="edge">
<title>Node1&#45;&gt;Node58</title>
<path fill="none" stroke="midnightblue" d="M792.81,-331.73C812.25,-321.73 838.35,-308.31 855.17,-299.65"/>
<polygon fill="midnightblue" stroke="midnightblue" points="791.16,-328.64 783.87,-336.32 794.36,-334.86 791.16,-328.64"/>
</g>
<!-- Node59 -->
<g id="node35" class="node">
<title>Node59</title>
<g id="a_node35"><a xlink:href="_channel_flow_8_h.html" target="_top" xlink:title=" ">
<polygon fill="white" stroke="black" points="945.5,-280.5 945.5,-299.5 1034.5,-299.5 1034.5,-280.5 945.5,-280.5"/>
<text text-anchor="middle" x="990" y="-287.5" font-family="Helvetica,sans-Serif" font-size="10.00">ChannelFlow.H</text>
</a>
</g>
</g>
<!-- Node1&#45;&gt;Node59 -->
<g id="edge66" class="edge">
<title>Node1&#45;&gt;Node59</title>
<path fill="none" stroke="midnightblue" d="M812.06,-334.09C854.19,-323.89 916.24,-308.86 954.83,-299.52"/>
<polygon fill="midnightblue" stroke="midnightblue" points="811.23,-330.69 802.34,-336.44 812.88,-337.49 811.23,-330.69"/>
</g>
<!-- Node61 -->
<g id="node37" class="node">
<title>Node61</title>
<g id="a_node37"><a xlink:href="_hybrid_r_a_n_s_l_e_s_a_b_l_8cpp.html" target="_top" xlink:title=" ">
<polygon fill="white" stroke="black" points="1052.5,-280.5 1052.5,-299.5 1185.5,-299.5 1185.5,-280.5 1052.5,-280.5"/>
<text text-anchor="middle" x="1119" y="-287.5" font-family="Helvetica,sans-Serif" font-size="10.00">HybridRANSLESABL.cpp</text>
</a>
</g>
</g>
<!-- Node1&#45;&gt;Node61 -->
<g id="edge68" class="edge">
<title>Node1&#45;&gt;Node61</title>
<path fill="none" stroke="midnightblue" d="M832.33,-334.98C898.78,-324.78 1000.63,-309.16 1063.36,-299.54"/>
<polygon fill="midnightblue" stroke="midnightblue" points="831.74,-331.53 822.39,-336.5 832.8,-338.45 831.74,-331.53"/>
</g>
<!-- Node62 -->
<g id="node38" class="node">
<title>Node62</title>
<g id="a_node38"><a xlink:href="_turb_model_8_h.html" target="_top" xlink:title=" ">
<polygon fill="white" stroke="black" points="1203.5,-280.5 1203.5,-299.5 1280.5,-299.5 1280.5,-280.5 1203.5,-280.5"/>
<text text-anchor="middle" x="1242" y="-287.5" font-family="Helvetica,sans-Serif" font-size="10.00">TurbModel.H</text>
</a>
</g>
</g>
<!-- Node1&#45;&gt;Node62 -->
<g id="edge69" class="edge">
<title>Node1&#45;&gt;Node62</title>
<path fill="none" stroke="midnightblue" d="M832.26,-339.76C916.2,-332.65 1066.37,-318.66 1194,-300 1197.02,-299.56 1200.14,-299.06 1203.27,-298.54"/>
<polygon fill="midnightblue" stroke="midnightblue" points="831.78,-336.29 822.11,-340.62 832.37,-343.27 831.78,-336.29"/>
</g>
<!-- Node78 -->
<g id="node42" class="node">
<title>Node78</title>
<g id="a_node42"><a xlink:href="_turb_model_defs_8_h.html" target="_top" xlink:title=" ">
<polygon fill="white" stroke="black" points="1484,-280.5 1484,-299.5 1584,-299.5 1584,-280.5 1484,-280.5"/>
<text text-anchor="middle" x="1534" y="-287.5" font-family="Helvetica,sans-Serif" font-size="10.00">TurbModelDefs.H</text>
</a>
</g>
</g>
<!-- Node1&#45;&gt;Node78 -->
<g id="edge73" class="edge">
<title>Node1&#45;&gt;Node78</title>
<path fill="none" stroke="midnightblue" d="M832.16,-340.41C982.23,-329.85 1349.67,-303.98 1483.87,-294.53"/>
<polygon fill="midnightblue" stroke="midnightblue" points="831.89,-336.92 822.16,-341.12 832.38,-343.91 831.89,-336.92"/>
</g>
<!-- Node4 -->
<g id="node4" class="node">
<title>Node4</title>
<g id="a_node4"><a xlink:href="_adv_op___godunov_8_h.html" target="_top" xlink:title=" ">
<polygon fill="white" stroke="black" points="529.5,-112.5 529.5,-131.5 636.5,-131.5 636.5,-112.5 529.5,-112.5"/>
<text text-anchor="middle" x="583" y="-119.5" font-family="Helvetica,sans-Serif" font-size="10.00">AdvOp_Godunov.H</text>
</a>
</g>
</g>
<!-- Node3&#45;&gt;Node4 -->
<g id="edge3" class="edge">
<title>Node3&#45;&gt;Node4</title>
<path fill="none" stroke="midnightblue" d="M410.51,-276.6C429.27,-268.8 452.52,-257.62 471,-244 518,-209.35 561.22,-153.09 576.83,-131.66"/>
<polygon fill="midnightblue" stroke="midnightblue" points="409.13,-273.39 401.16,-280.37 411.75,-279.88 409.13,-273.39"/>
</g>
<!-- Node9 -->
<g id="node8" class="node">
<title>Node9</title>
<g id="a_node8"><a xlink:href="icns__ops_8_h.html" target="_top" xlink:title=" ">
<polygon fill="white" stroke="black" points="150.5,-56.5 150.5,-75.5 219.5,-75.5 219.5,-56.5 150.5,-56.5"/>
<text text-anchor="middle" x="185" y="-63.5" font-family="Helvetica,sans-Serif" font-size="10.00">icns_ops.H</text>
</a>
</g>
</g>
<!-- Node3&#45;&gt;Node9 -->
<g id="edge59" class="edge">
<title>Node3&#45;&gt;Node9</title>
<path fill="none" stroke="midnightblue" d="M362.78,-272.56C324.76,-228.59 221.68,-109.41 192.68,-75.88"/>
<polygon fill="midnightblue" stroke="midnightblue" points="360.28,-275.02 369.47,-280.3 365.58,-270.44 360.28,-275.02"/>
</g>
<!-- Node16 -->
<g id="node15" class="node">
<title>Node16</title>
<g id="a_node15"><a xlink:href="_adv_op___m_o_l_8_h.html" target="_top" xlink:title=" ">
<polygon fill="white" stroke="black" points="657,-112.5 657,-131.5 743,-131.5 743,-112.5 657,-112.5"/>
<text text-anchor="middle" x="700" y="-119.5" font-family="Helvetica,sans-Serif" font-size="10.00">AdvOp_MOL.H</text>
</a>
</g>
</g>
<!-- Node3&#45;&gt;Node16 -->
<g id="edge15" class="edge">
<title>Node3&#45;&gt;Node16</title>
<path fill="none" stroke="midnightblue" d="M413.28,-277.29C437.46,-269.03 469.68,-257.13 497,-244 572.06,-207.91 655.73,-152.97 687.15,-131.77"/>
<polygon fill="midnightblue" stroke="midnightblue" points="412.14,-273.98 403.78,-280.49 414.38,-280.62 412.14,-273.98"/>
</g>
<!-- Node17 -->
<g id="node16" class="node">
<title>Node17</title>
<g id="a_node16"><a xlink:href="_b_c_ops_8_h.html" target="_top" xlink:title=" ">
<polygon fill="white" stroke="black" points="900.5,-112.5 900.5,-131.5 959.5,-131.5 959.5,-112.5 900.5,-112.5"/>
<text text-anchor="middle" x="930" y="-119.5" font-family="Helvetica,sans-Serif" font-size="10.00">BCOps.H</text>
</a>
</g>
</g>
<!-- Node3&#45;&gt;Node17 -->
<g id="edge25" class="edge">
<title>Node3&#45;&gt;Node17</title>
<path fill="none" stroke="midnightblue" d="M416.3,-277.53C447.22,-268.49 491.38,-255.52 530,-244 669.74,-202.31 836.63,-151.49 901.89,-131.58"/>
<polygon fill="midnightblue" stroke="midnightblue" points="414.97,-274.27 406.35,-280.44 416.93,-280.99 414.97,-274.27"/>
</g>
<!-- Node25 -->
<g id="node22" class="node">
<title>Node25</title>
<g id="a_node22"><a xlink:href="_comp_r_h_s_ops_8_h.html" target="_top" xlink:title=" ">
<polygon fill="white" stroke="black" points="367.5,-224.5 367.5,-243.5 462.5,-243.5 462.5,-224.5 367.5,-224.5"/>
<text text-anchor="middle" x="415" y="-231.5" font-family="Helvetica,sans-Serif" font-size="10.00">CompRHSOps.H</text>
</a>
</g>
</g>
<!-- Node3&#45;&gt;Node25 -->
<g id="edge40" class="edge">
<title>Node3&#45;&gt;Node25</title>
<path fill="none" stroke="midnightblue" d="M389.06,-271.86C395.64,-262.5 403.51,-251.33 408.84,-243.75"/>
<polygon fill="midnightblue" stroke="midnightblue" points="386.17,-269.89 383.27,-280.08 391.89,-273.92 386.17,-269.89"/>
</g>
<!-- Node26 -->
<g id="node23" class="node">
<title>Node26</title>
<g id="a_node23"><a xlink:href="_p_d_e_8_h.html" target="_top" xlink:title=" ">
<polygon fill="white" stroke="red" points="355.5,-168.5 355.5,-187.5 402.5,-187.5 402.5,-168.5 355.5,-168.5"/>
<text text-anchor="middle" x="379" y="-175.5" font-family="Helvetica,sans-Serif" font-size="10.00">PDE.H</text>
</a>
</g>
</g>
<!-- Node3&#45;&gt;Node26 -->
<g id="edge60" class="edge">
<title>Node3&#45;&gt;Node26</title>
<path fill="none" stroke="midnightblue" d="M366.7,-271.08C360.49,-258.12 354.42,-240.12 358,-224 360.99,-210.53 368.44,-196.32 373.62,-187.56"/>
<polygon fill="midnightblue" stroke="midnightblue" points="363.77,-273.04 371.52,-280.26 369.97,-269.78 363.77,-273.04"/>
</g>
<!-- Node30 -->
<g id="node26" class="node">
<title>Node30</title>
<g id="a_node26"><a xlink:href="icns__diffusion_8_h.html" target="_top" xlink:title=" ">
<polygon fill="white" stroke="black" points="0,-56.5 0,-75.5 94,-75.5 94,-56.5 0,-56.5"/>
<text text-anchor="middle" x="47" y="-63.5" font-family="Helvetica,sans-Serif" font-size="10.00">icns_diffusion.H</text>
</a>
</g>
</g>
<!-- Node3&#45;&gt;Node30 -->
<g id="edge58" class="edge">
<title>Node3&#45;&gt;Node30</title>
<path fill="none" stroke="midnightblue" d="M334.41,-280.05C235.88,-263.21 202.01,-285.42 116,-244 82.54,-227.89 72.84,-220 54,-188 32.33,-151.19 40.62,-96.67 44.99,-75.68"/>
<polygon fill="midnightblue" stroke="midnightblue" points="334.01,-283.54 344.47,-281.87 335.25,-276.65 334.01,-283.54"/>
</g>
<!-- Node52 -->
<g id="node28" class="node">
<title>Node52</title>
<g id="a_node28"><a xlink:href="_diffusion_ops_8_h.html" target="_top" xlink:title=" ">
<polygon fill="white" stroke="black" points="125.5,-224.5 125.5,-243.5 214.5,-243.5 214.5,-224.5 125.5,-224.5"/>
<text text-anchor="middle" x="170" y="-231.5" font-family="Helvetica,sans-Serif" font-size="10.00">DiffusionOps.H</text>
</a>
</g>
</g>
<!-- Node3&#45;&gt;Node52 -->
<g id="edge53" class="edge">
<title>Node3&#45;&gt;Node52</title>
<path fill="none" stroke="midnightblue" d="M334.18,-277.83C295.09,-267.63 238.17,-252.78 202.65,-243.52"/>
<polygon fill="midnightblue" stroke="midnightblue" points="333.64,-281.31 344.2,-280.44 335.41,-274.53 333.64,-281.31"/>
</g>
<!-- Node5 -->
<g id="node5" class="node">
<title>Node5</title>
<g id="a_node5"><a xlink:href="density_8cpp.html" target="_top" xlink:title=" ">
<polygon fill="white" stroke="black" points="488.5,-56.5 488.5,-75.5 559.5,-75.5 559.5,-56.5 488.5,-56.5"/>
<text text-anchor="middle" x="524" y="-63.5" font-family="Helvetica,sans-Serif" font-size="10.00">density.cpp</text>
</a>
</g>
</g>
<!-- Node4&#45;&gt;Node5 -->
<g id="edge4" class="edge">
<title>Node4&#45;&gt;Node5</title>
<path fill="none" stroke="midnightblue" d="M566.11,-105.54C555.59,-95.91 542.43,-83.87 533.65,-75.83"/>
<polygon fill="midnightblue" stroke="midnightblue" points="563.78,-108.15 573.52,-112.32 568.51,-102.99 563.78,-108.15"/>
</g>
<!-- Node6 -->
<g id="node6" class="node">
<title>Node6</title>
<g id="a_node6"><a xlink:href="icns__advection_8_h.html" target="_top" xlink:title=" ">
<polygon fill="white" stroke="red" points="238,-56.5 238,-75.5 338,-75.5 338,-56.5 238,-56.5"/>
<text text-anchor="middle" x="288" y="-63.5" font-family="Helvetica,sans-Serif" font-size="10.00">icns_advection.H</text>
</a>
</g>
</g>
<!-- Node4&#45;&gt;Node6 -->
<g id="edge5" class="edge">
<title>Node4&#45;&gt;Node6</title>
<path fill="none" stroke="midnightblue" d="M526.19,-110.6C470.44,-100.4 386.44,-85.02 334.52,-75.52"/>
<polygon fill="midnightblue" stroke="midnightblue" points="525.79,-114.09 536.26,-112.44 527.05,-107.2 525.79,-114.09"/>
</g>
<!-- Node4&#45;&gt;Node9 -->
<g id="edge7" class="edge">
<title>Node4&#45;&gt;Node9</title>
<path fill="none" stroke="midnightblue" d="M519.26,-112.42C518.16,-112.28 517.08,-112.14 516,-112 388.52,-95.44 355.85,-96.9 229,-76 225.92,-75.49 222.73,-74.92 219.54,-74.33"/>
<polygon fill="midnightblue" stroke="midnightblue" points="518.88,-115.9 529.25,-113.74 519.79,-108.96 518.88,-115.9"/>
</g>
<!-- Node10 -->
<g id="node9" class="node">
<title>Node10</title>
<g id="a_node9"><a xlink:href="levelset_8cpp.html" target="_top" xlink:title=" ">
<polygon fill="white" stroke="black" points="578,-56.5 578,-75.5 654,-75.5 654,-56.5 578,-56.5"/>
<text text-anchor="middle" x="616" y="-63.5" font-family="Helvetica,sans-Serif" font-size="10.00">levelset.cpp</text>
</a>
</g>
</g>
<!-- Node4&#45;&gt;Node10 -->
<g id="edge9" class="edge">
<title>Node4&#45;&gt;Node10</title>
<path fill="none" stroke="midnightblue" d="M593.83,-103.27C599.47,-94.05 606.12,-83.17 610.65,-75.75"/>
<polygon fill="midnightblue" stroke="midnightblue" points="590.68,-101.73 588.45,-112.08 596.65,-105.38 590.68,-101.73"/>
</g>
<!-- Node11 -->
<g id="node10" class="node">
<title>Node11</title>
<g id="a_node10"><a xlink:href="passive__scalar_8cpp.html" target="_top" xlink:title=" ">
<polygon fill="white" stroke="black" points="976,-56.5 976,-75.5 1084,-75.5 1084,-56.5 976,-56.5"/>
<text text-anchor="middle" x="1030" y="-63.5" font-family="Helvetica,sans-Serif" font-size="10.00">passive_scalar.cpp</text>
</a>
</g>
</g>
<!-- Node4&#45;&gt;Node11 -->
<g id="edge10" class="edge">
<title>Node4&#45;&gt;Node11</title>
<path fill="none" stroke="midnightblue" d="M646.6,-112.18C647.07,-112.12 647.53,-112.06 648,-112 789.56,-94.21 825.47,-94.09 967,-76 969.85,-75.64 972.77,-75.25 975.72,-74.86"/>
<polygon fill="midnightblue" stroke="midnightblue" points="646.02,-108.72 636.55,-113.48 646.91,-115.67 646.02,-108.72"/>
</g>
<!-- Node12 -->
<g id="node11" class="node">
<title>Node12</title>
<g id="a_node11"><a xlink:href="_s_d_r_8cpp.html" target="_top" xlink:title=" ">
<polygon fill="white" stroke="black" points="672.5,-56.5 672.5,-75.5 729.5,-75.5 729.5,-56.5 672.5,-56.5"/>
<text text-anchor="middle" x="701" y="-63.5" font-family="Helvetica,sans-Serif" font-size="10.00">SDR.cpp</text>
</a>
</g>
</g>
<!-- Node4&#45;&gt;Node12 -->
<g id="edge11" class="edge">
<title>Node4&#45;&gt;Node12</title>
<path fill="none" stroke="midnightblue" d="M610.9,-108.23C632.97,-98.13 663.18,-84.31 682.39,-75.52"/>
<polygon fill="midnightblue" stroke="midnightblue" points="609.33,-105.1 601.7,-112.44 612.25,-111.46 609.33,-105.1"/>
</g>
<!-- Node13 -->
<g id="node12" class="node">
<title>Node13</title>
<g id="a_node12"><a xlink:href="temperature_8cpp.html" target="_top" xlink:title=" ">
<polygon fill="white" stroke="black" points="786,-56.5 786,-75.5 884,-75.5 884,-56.5 786,-56.5"/>
<text text-anchor="middle" x="835" y="-63.5" font-family="Helvetica,sans-Serif" font-size="10.00">temperature.cpp</text>
</a>
</g>
</g>
<!-- Node4&#45;&gt;Node13 -->
<g id="edge12" class="edge">
<title>Node4&#45;&gt;Node13</title>
<path fill="none" stroke="midnightblue" d="M632.72,-110.35C680.34,-100.14 751.28,-84.94 795.26,-75.52"/>
<polygon fill="midnightblue" stroke="midnightblue" points="631.97,-106.93 622.93,-112.44 633.44,-113.77 631.97,-106.93"/>
</g>
<!-- Node14 -->
<g id="node13" class="node">
<title>Node14</title>
<g id="a_node13"><a xlink:href="_t_k_e_8cpp.html" target="_top" xlink:title=" ">
<polygon fill="white" stroke="black" points="902,-56.5 902,-75.5 958,-75.5 958,-56.5 902,-56.5"/>
<text text-anchor="middle" x="930" y="-63.5" font-family="Helvetica,sans-Serif" font-size="10.00">TKE.cpp</text>
</a>
</g>
</g>
<!-- Node4&#45;&gt;Node14 -->
<g id="edge13" class="edge">
<title>Node4&#45;&gt;Node14</title>
<path fill="none" stroke="midnightblue" d="M646.52,-112.11C730.14,-100.35 869.37,-80.58 893,-76 895.86,-75.45 898.82,-74.82 901.78,-74.16"/>
<polygon fill="midnightblue" stroke="midnightblue" points="646.02,-108.64 636.61,-113.5 647,-115.57 646.02,-108.64"/>
</g>
<!-- Node15 -->
<g id="node14" class="node">
<title>Node15</title>
<g id="a_node14"><a xlink:href="vof_8cpp.html" target="_top" xlink:title=" ">
<polygon fill="white" stroke="black" points="1087,-0.5 1087,-19.5 1139,-19.5 1139,-0.5 1087,-0.5"/>
<text text-anchor="middle" x="1113" y="-7.5" font-family="Helvetica,sans-Serif" font-size="10.00">vof.cpp</text>
</a>
</g>
</g>
<!-- Node4&#45;&gt;Node15 -->
<g id="edge14" class="edge">
<title>Node4&#45;&gt;Node15</title>
<path fill="none" stroke="midnightblue" d="M535.81,-109.64C498.69,-98.58 456.68,-79.96 479,-56 521.03,-10.89 972.91,-10.25 1086.97,-10.81"/>
<polygon fill="midnightblue" stroke="midnightblue" points="535.01,-113.05 545.59,-112.42 536.93,-106.32 535.01,-113.05"/>
</g>
<!-- Node7 -->
<g id="node7" class="node">
<title>Node7</title>
<g id="a_node7"><a xlink:href="icns_8cpp.html" target="_top" xlink:title=" ">
<polygon fill="white" stroke="black" points="157,-0.5 157,-19.5 213,-19.5 213,-0.5 157,-0.5"/>
<text text-anchor="middle" x="185" y="-7.5" font-family="Helvetica,sans-Serif" font-size="10.00">icns.cpp</text>
</a>
</g>
</g>
<!-- Node6&#45;&gt;Node7 -->
<g id="edge6" class="edge">
<title>Node6&#45;&gt;Node7</title>
<path fill="none" stroke="midnightblue" d="M262.42,-51.59C243.38,-41.61 217.94,-28.27 201.51,-19.65"/>
<polygon fill="midnightblue" stroke="midnightblue" points="260.97,-54.78 271.45,-56.32 264.22,-48.58 260.97,-54.78"/>
</g>
<!-- Node9&#45;&gt;Node7 -->
<g id="edge8" class="edge">
<title>Node9&#45;&gt;Node7</title>
<path fill="none" stroke="midnightblue" d="M185,-45.8C185,-36.91 185,-26.78 185,-19.75"/>
<polygon fill="midnightblue" stroke="midnightblue" points="181.5,-46.08 185,-56.08 188.5,-46.08 181.5,-46.08"/>
</g>
<!-- Node16&#45;&gt;Node5 -->
<g id="edge16" class="edge">
<title>Node16&#45;&gt;Node5</title>
<path fill="none" stroke="midnightblue" d="M662.31,-109.44C629.13,-99.26 581.57,-84.66 551.76,-75.52"/>
<polygon fill="midnightblue" stroke="midnightblue" points="661.53,-112.86 672.11,-112.44 663.58,-106.16 661.53,-112.86"/>
</g>
<!-- Node16&#45;&gt;Node6 -->
<g id="edge17" class="edge">
<title>Node16&#45;&gt;Node6</title>
<path fill="none" stroke="midnightblue" d="M646.81,-112.26C646.2,-112.17 645.6,-112.09 645,-112 512.92,-93.22 479.18,-94.06 347,-76 344.13,-75.61 341.17,-75.19 338.2,-74.77"/>
<polygon fill="midnightblue" stroke="midnightblue" points="646.38,-115.73 656.79,-113.75 647.42,-108.81 646.38,-115.73"/>
</g>
<!-- Node16&#45;&gt;Node9 -->
<g id="edge18" class="edge">
<title>Node16&#45;&gt;Node9</title>
<path fill="none" stroke="midnightblue" d="M646.81,-112.23C646.2,-112.15 645.6,-112.07 645,-112 460.85,-89 412.66,-102.64 229,-76 225.91,-75.55 222.72,-75.02 219.52,-74.45"/>
<polygon fill="midnightblue" stroke="midnightblue" points="646.43,-115.71 656.81,-113.61 647.39,-108.78 646.43,-115.71"/>
</g>
<!-- Node16&#45;&gt;Node10 -->
<g id="edge19" class="edge">
<title>Node16&#45;&gt;Node10</title>
<path fill="none" stroke="midnightblue" d="M678.07,-106.9C662.66,-97 642.55,-84.07 629.46,-75.65"/>
<polygon fill="midnightblue" stroke="midnightblue" points="676.2,-109.86 686.5,-112.32 679.98,-103.97 676.2,-109.86"/>
</g>
<!-- Node16&#45;&gt;Node11 -->
<g id="edge20" class="edge">
<title>Node16&#45;&gt;Node11</title>
<path fill="none" stroke="midnightblue" d="M753.09,-112.31C814.93,-102.19 916.44,-85.58 977.87,-75.53"/>
<polygon fill="midnightblue" stroke="midnightblue" points="752.45,-108.87 743.14,-113.94 753.58,-115.78 752.45,-108.87"/>
</g>
<!-- Node16&#45;&gt;Node12 -->
<g id="edge21" class="edge">
<title>Node16&#45;&gt;Node12</title>
<path fill="none" stroke="midnightblue" d="M700.36,-101.8C700.52,-92.91 700.71,-82.78 700.84,-75.75"/>
<polygon fill="midnightblue" stroke="midnightblue" points="696.85,-102.02 700.17,-112.08 703.85,-102.15 696.85,-102.02"/>
</g>
<!-- Node16&#45;&gt;Node13 -->
<g id="edge22" class="edge">
<title>Node16&#45;&gt;Node13</title>
<path fill="none" stroke="midnightblue" d="M730.91,-108.64C756.24,-98.5 791.43,-84.43 813.71,-75.52"/>
<polygon fill="midnightblue" stroke="midnightblue" points="729.38,-105.48 721.39,-112.44 731.98,-111.98 729.38,-105.48"/>
</g>
<!-- Node16&#45;&gt;Node14 -->
<g id="edge23" class="edge">
<title>Node16&#45;&gt;Node14</title>
<path fill="none" stroke="midnightblue" d="M746.81,-110.22C785.91,-101.18 843.12,-87.88 893,-76 895.83,-75.33 898.78,-74.62 901.72,-73.91"/>
<polygon fill="midnightblue" stroke="midnightblue" points="745.98,-106.82 737.02,-112.48 747.56,-113.64 745.98,-106.82"/>
</g>
<!-- Node16&#45;&gt;Node15 -->
<g id="edge24" class="edge">
<title>Node16&#45;&gt;Node15</title>
<path fill="none" stroke="midnightblue" d="M713.93,-104.82C728.14,-89.51 751.63,-67.24 777,-56 832.69,-31.32 1018,-17.13 1086.9,-12.6"/>
<polygon fill="midnightblue" stroke="midnightblue" points="711.12,-102.72 707.05,-112.5 716.33,-107.39 711.12,-102.72"/>
</g>
<!-- Node17&#45;&gt;Node5 -->
<g id="edge26" class="edge">
<title>Node17&#45;&gt;Node5</title>
<path fill="none" stroke="midnightblue" d="M890.36,-117.02C823.76,-110.12 685.29,-94.85 569,-76 566.01,-75.52 562.92,-74.98 559.82,-74.41"/>
<polygon fill="midnightblue" stroke="midnightblue" points="890.11,-120.51 900.41,-118.06 890.83,-113.55 890.11,-120.51"/>
</g>
<!-- Node17&#45;&gt;Node10 -->
<g id="edge29" class="edge">
<title>Node17&#45;&gt;Node10</title>
<path fill="none" stroke="midnightblue" d="M890.16,-114.57C837.93,-106.07 743.51,-90.49 663,-76 660.14,-75.48 657.18,-74.94 654.21,-74.39"/>
<polygon fill="midnightblue" stroke="midnightblue" points="889.9,-118.07 900.33,-116.22 891.02,-111.16 889.9,-118.07"/>
</g>
<!-- Node17&#45;&gt;Node11 -->
<g id="edge30" class="edge">
<title>Node17&#45;&gt;Node11</title>
<path fill="none" stroke="midnightblue" d="M955.09,-107.45C973.55,-97.48 998.1,-84.23 1013.97,-75.65"/>
<polygon fill="midnightblue" stroke="midnightblue" points="953.2,-104.49 946.07,-112.32 956.53,-110.65 953.2,-104.49"/>
</g>
<!-- Node17&#45;&gt;Node12 -->
<g id="edge31" class="edge">
<title>Node17&#45;&gt;Node12</title>
<path fill="none" stroke="midnightblue" d="M890.16,-111.61C844.26,-100.78 769.97,-83.26 729.5,-73.72"/>
<polygon fill="midnightblue" stroke="midnightblue" points="889.53,-115.05 900.06,-113.94 891.13,-108.24 889.53,-115.05"/>
</g>
<!-- Node17&#45;&gt;Node13 -->
<g id="edge32" class="edge">
<title>Node17&#45;&gt;Node13</title>
<path fill="none" stroke="midnightblue" d="M905.68,-107.18C888.2,-97.24 865.17,-84.15 850.23,-75.65"/>
<polygon fill="midnightblue" stroke="midnightblue" points="904.31,-110.43 914.74,-112.32 907.77,-104.34 904.31,-110.43"/>
</g>
<!-- Node17&#45;&gt;Node14 -->
<g id="edge33" class="edge">
<title>Node17&#45;&gt;Node14</title>
<path fill="none" stroke="midnightblue" d="M930,-101.8C930,-92.91 930,-82.78 930,-75.75"/>
<polygon fill="midnightblue" stroke="midnightblue" points="926.5,-102.08 930,-112.08 933.5,-102.08 926.5,-102.08"/>
</g>
<!-- Node17&#45;&gt;Node15 -->
<g id="edge34" class="edge">
<title>Node17&#45;&gt;Node15</title>
<path fill="none" stroke="midnightblue" d="M970.1,-120.58C1086.42,-118.93 1417.74,-111.17 1450,-76 1456.01,-69.45 1455.85,-62.69 1450,-56 1429.54,-32.63 1214.87,-17.27 1139.21,-12.54"/>
<polygon fill="midnightblue" stroke="midnightblue" points="969.8,-117.08 959.85,-120.71 969.9,-124.08 969.8,-117.08"/>
</g>
<!-- Node18 -->
<g id="node17" class="node">
<title>Node18</title>
<g id="a_node17"><a xlink:href="icns__bcop_8_h.html" target="_top" xlink:title=" ">
<polygon fill="white" stroke="black" points="356.5,-56.5 356.5,-75.5 431.5,-75.5 431.5,-56.5 356.5,-56.5"/>
<text text-anchor="middle" x="394" y="-63.5" font-family="Helvetica,sans-Serif" font-size="10.00">icns_bcop.H</text>
</a>
</g>
</g>
<!-- Node17&#45;&gt;Node18 -->
<g id="edge27" class="edge">
<title>Node17&#45;&gt;Node18</title>
<path fill="none" stroke="midnightblue" d="M890.03,-117.09C811.33,-109.38 630.76,-91.61 479,-76 463.5,-74.41 446.42,-72.61 431.65,-71.04"/>
<polygon fill="midnightblue" stroke="midnightblue" points="890.15,-120.62 900.44,-118.11 890.83,-113.66 890.15,-120.62"/>
</g>
<!-- Node19 -->
<g id="node18" class="node">
<title>Node19</title>
<g id="a_node18"><a xlink:href="vof__bcop_8_h.html" target="_top" xlink:title=" ">
<polygon fill="white" stroke="black" points="1497.5,-56.5 1497.5,-75.5 1568.5,-75.5 1568.5,-56.5 1497.5,-56.5"/>
<text text-anchor="middle" x="1533" y="-63.5" font-family="Helvetica,sans-Serif" font-size="10.00">vof_bcop.H</text>
</a>
</g>
</g>
<!-- Node17&#45;&gt;Node19 -->
<g id="edge35" class="edge">
<title>Node17&#45;&gt;Node19</title>
<path fill="none" stroke="midnightblue" d="M969.95,-119.08C1061.17,-114.4 1291.66,-100.95 1483,-76 1487.64,-75.4 1492.49,-74.66 1497.29,-73.86"/>
<polygon fill="midnightblue" stroke="midnightblue" points="969.59,-115.59 959.78,-119.59 969.94,-122.58 969.59,-115.59"/>
</g>
<!-- Node20 -->
<g id="node19" class="node">
<title>Node20</title>
<g id="a_node19"><a xlink:href="hos__waves__ops_8_h.html" target="_top" xlink:title=" ">
<polygon fill="white" stroke="red" points="1337,-56.5 1337,-75.5 1441,-75.5 1441,-56.5 1337,-56.5"/>
<text text-anchor="middle" x="1389" y="-63.5" font-family="Helvetica,sans-Serif" font-size="10.00">hos_waves_ops.H</text>
</a>
</g>
</g>
<!-- Node17&#45;&gt;Node20 -->
<g id="edge37" class="edge">
<title>Node17&#45;&gt;Node20</title>
<path fill="none" stroke="midnightblue" d="M970.31,-116.85C1042.09,-109.37 1196.79,-92.83 1327,-76 1330.24,-75.58 1333.57,-75.14 1336.92,-74.68"/>
<polygon fill="midnightblue" stroke="midnightblue" points="969.5,-113.42 959.92,-117.93 970.23,-120.38 969.5,-113.42"/>
</g>
<!-- Node22 -->
<g id="node20" class="node">
<title>Node22</title>
<g id="a_node20"><a xlink:href="waves2amr__ops_8_h.html" target="_top" xlink:title=" ">
<polygon fill="white" stroke="red" points="1102.5,-56.5 1102.5,-75.5 1209.5,-75.5 1209.5,-56.5 1102.5,-56.5"/>
<text text-anchor="middle" x="1156" y="-63.5" font-family="Helvetica,sans-Serif" font-size="10.00">waves2amr_ops.H</text>
</a>
</g>
</g>
<!-- Node17&#45;&gt;Node22 -->
<g id="edge38" class="edge">
<title>Node17&#45;&gt;Node22</title>
<path fill="none" stroke="midnightblue" d="M969.53,-111.55C1012.05,-101.4 1079.06,-85.38 1120.11,-75.58"/>
<polygon fill="midnightblue" stroke="midnightblue" points="968.46,-108.21 959.55,-113.94 970.09,-115.02 968.46,-108.21"/>
</g>
<!-- Node24 -->
<g id="node21" class="node">
<title>Node24</title>
<g id="a_node21"><a xlink:href="_multi_phase_8cpp.html" target="_top" xlink:title=" ">
<polygon fill="white" stroke="black" points="1227.5,-56.5 1227.5,-75.5 1318.5,-75.5 1318.5,-56.5 1227.5,-56.5"/>
<text text-anchor="middle" x="1273" y="-63.5" font-family="Helvetica,sans-Serif" font-size="10.00">MultiPhase.cpp</text>
</a>
</g>
</g>
<!-- Node17&#45;&gt;Node24 -->
<g id="edge39" class="edge">
<title>Node17&#45;&gt;Node24</title>
<path fill="none" stroke="midnightblue" d="M970,-114.84C1025.63,-106.26 1129.51,-90.15 1218,-76 1221.06,-75.51 1224.21,-75 1227.39,-74.49"/>
<polygon fill="midnightblue" stroke="midnightblue" points="969.21,-111.42 959.86,-116.41 970.28,-118.34 969.21,-111.42"/>
</g>
<!-- Node18&#45;&gt;Node7 -->
<g id="edge28" class="edge">
<title>Node18&#45;&gt;Node7</title>
<path fill="none" stroke="midnightblue" d="M351.11,-53.92C309.88,-43.27 248.73,-27.47 213.27,-18.3"/>
<polygon fill="midnightblue" stroke="midnightblue" points="350.33,-57.33 360.88,-56.44 352.08,-50.55 350.33,-57.33"/>
</g>
<!-- Node19&#45;&gt;Node15 -->
<g id="edge36" class="edge">
<title>Node19&#45;&gt;Node15</title>
<path fill="none" stroke="midnightblue" d="M1487.39,-56.68C1485.91,-56.44 1484.44,-56.22 1483,-56 1354.39,-36.62 1199.64,-19.93 1139.09,-13.66"/>
<polygon fill="midnightblue" stroke="midnightblue" points="1486.82,-60.13 1497.26,-58.31 1487.97,-53.23 1486.82,-60.13"/>
</g>
<!-- Node25&#45;&gt;Node26 -->
<g id="edge41" class="edge">
<title>Node25&#45;&gt;Node26</title>
<path fill="none" stroke="midnightblue" d="M403.38,-215.57C397.18,-206.27 389.83,-195.25 384.83,-187.75"/>
<polygon fill="midnightblue" stroke="midnightblue" points="400.6,-217.7 409.06,-224.08 406.42,-213.82 400.6,-217.7"/>
</g>
<!-- Node27 -->
<g id="node24" class="node">
<title>Node27</title>
<g id="a_node24"><a xlink:href="density_8_h.html" target="_top" xlink:title=" ">
<polygon fill="white" stroke="red" points="353,-112.5 353,-131.5 415,-131.5 415,-112.5 353,-112.5"/>
<text text-anchor="middle" x="384" y="-119.5" font-family="Helvetica,sans-Serif" font-size="10.00">density.H</text>
</a>
</g>
</g>
<!-- Node26&#45;&gt;Node27 -->
<g id="edge42" class="edge">
<title>Node26&#45;&gt;Node27</title>
<path fill="none" stroke="midnightblue" d="M380.75,-158.1C381.58,-149.14 382.53,-138.86 383.19,-131.75"/>
<polygon fill="midnightblue" stroke="midnightblue" points="377.26,-157.8 379.83,-168.08 384.23,-158.45 377.26,-157.8"/>
</g>
<!-- Node29 -->
<g id="node25" class="node">
<title>Node29</title>
<g id="a_node25"><a xlink:href="icns_8_h.html" target="_top" xlink:title=" ">
<polygon fill="white" stroke="red" points="271.5,-112.5 271.5,-131.5 318.5,-131.5 318.5,-112.5 271.5,-112.5"/>
<text text-anchor="middle" x="295" y="-119.5" font-family="Helvetica,sans-Serif" font-size="10.00">icns.H</text>
</a>
</g>
</g>
<!-- Node26&#45;&gt;Node29 -->
<g id="edge44" class="edge">
<title>Node26&#45;&gt;Node29</title>
<path fill="none" stroke="midnightblue" d="M357.07,-162.9C341.66,-153 321.55,-140.07 308.46,-131.65"/>
<polygon fill="midnightblue" stroke="midnightblue" points="355.2,-165.86 365.5,-168.32 358.98,-159.97 355.2,-165.86"/>
</g>
<!-- Node36 -->
<g id="node27" class="node">
<title>Node36</title>
<g id="a_node27"><a xlink:href="levelset_8_h.html" target="_top" xlink:title=" ">
<polygon fill="white" stroke="red" points="441,-112.5 441,-131.5 507,-131.5 507,-112.5 441,-112.5"/>
<text text-anchor="middle" x="474" y="-119.5" font-family="Helvetica,sans-Serif" font-size="10.00">levelset.H</text>
</a>
</g>
</g>
<!-- Node26&#45;&gt;Node36 -->
<g id="edge51" class="edge">
<title>Node26&#45;&gt;Node36</title>
<path fill="none" stroke="midnightblue" d="M403.32,-163.18C420.8,-153.24 443.83,-140.15 458.77,-131.65"/>
<polygon fill="midnightblue" stroke="midnightblue" points="401.23,-160.34 394.26,-168.32 404.69,-166.43 401.23,-160.34"/>
</g>
<!-- Node27&#45;&gt;Node5 -->
<g id="edge43" class="edge">
<title>Node27&#45;&gt;Node5</title>
<path fill="none" stroke="midnightblue" d="M415.7,-108.77C442,-98.63 478.72,-84.47 501.92,-75.52"/>
<polygon fill="midnightblue" stroke="midnightblue" points="414.25,-105.58 406.18,-112.44 416.77,-112.11 414.25,-105.58"/>
</g>
<!-- Node29&#45;&gt;Node6 -->
<g id="edge46" class="edge">
<title>Node29&#45;&gt;Node6</title>
<path fill="none" stroke="midnightblue" d="M292.55,-102.1C291.39,-93.14 290.06,-82.86 289.13,-75.75"/>
<polygon fill="midnightblue" stroke="midnightblue" points="289.09,-102.62 293.84,-112.08 296.03,-101.72 289.09,-102.62"/>
</g>
<!-- Node29&#45;&gt;Node7 -->
<g id="edge45" class="edge">
<title>Node29&#45;&gt;Node7</title>
<path fill="none" stroke="midnightblue" d="M261.45,-115.95C220.66,-109.04 155.45,-95.27 141,-76 126.29,-56.37 154.02,-32.21 171.78,-19.6"/>
<polygon fill="midnightblue" stroke="midnightblue" points="261.07,-119.43 271.5,-117.6 262.2,-112.52 261.07,-119.43"/>
</g>
<!-- Node29&#45;&gt;Node9 -->
<g id="edge50" class="edge">
<title>Node29&#45;&gt;Node9</title>
<path fill="none" stroke="midnightblue" d="M268.24,-107.86C247.84,-97.85 220.33,-84.35 202.63,-75.65"/>
<polygon fill="midnightblue" stroke="midnightblue" points="266.81,-111.06 277.33,-112.32 269.89,-104.78 266.81,-111.06"/>
</g>
<!-- Node29&#45;&gt;Node18 -->
<g id="edge47" class="edge">
<title>Node29&#45;&gt;Node18</title>
<path fill="none" stroke="midnightblue" d="M319.84,-107.45C338.11,-97.48 362.42,-84.23 378.13,-75.65"/>
<polygon fill="midnightblue" stroke="midnightblue" points="318.01,-104.46 310.91,-112.32 321.36,-110.61 318.01,-104.46"/>
</g>
<!-- Node29&#45;&gt;Node30 -->
<g id="edge48" class="edge">
<title>Node29&#45;&gt;Node30</title>
<path fill="none" stroke="midnightblue" d="M261.23,-113.65C215.56,-103.7 134.3,-86.01 86.06,-75.5"/>
<polygon fill="midnightblue" stroke="midnightblue" points="260.7,-117.11 271.22,-115.82 262.19,-110.27 260.7,-117.11"/>
</g>
<!-- Node30&#45;&gt;Node7 -->
<g id="edge49" class="edge">
<title>Node30&#45;&gt;Node7</title>
<path fill="none" stroke="midnightblue" d="M78.25,-52.77C104.17,-42.63 140.36,-28.47 163.24,-19.52"/>
<polygon fill="midnightblue" stroke="midnightblue" points="76.9,-49.54 68.87,-56.44 79.45,-56.06 76.9,-49.54"/>
</g>
<!-- Node36&#45;&gt;Node10 -->
<g id="edge52" class="edge">
<title>Node36&#45;&gt;Node10</title>
<path fill="none" stroke="midnightblue" d="M506.16,-108.77C532.83,-98.63 570.07,-84.47 593.6,-75.52"/>
<polygon fill="midnightblue" stroke="midnightblue" points="504.6,-105.62 496.5,-112.44 507.09,-112.16 504.6,-105.62"/>
</g>
<!-- Node52&#45;&gt;Node9 -->
<g id="edge56" class="edge">
<title>Node52&#45;&gt;Node9</title>
<path fill="none" stroke="midnightblue" d="M177.56,-214.78C180.51,-206.72 183.53,-197.04 185,-188 191.76,-146.32 187.91,-95.5 185.94,-75.58"/>
<polygon fill="midnightblue" stroke="midnightblue" points="174.24,-213.66 173.86,-224.25 180.76,-216.21 174.24,-213.66"/>
</g>
<!-- Node52&#45;&gt;Node26 -->
<g id="edge57" class="edge">
<title>Node52&#45;&gt;Node26</title>
<path fill="none" stroke="midnightblue" d="M213.04,-221.88C256.17,-210.74 320.96,-194 355.44,-185.09"/>
<polygon fill="midnightblue" stroke="midnightblue" points="211.92,-218.55 203.12,-224.44 213.67,-225.33 211.92,-218.55"/>
</g>
<!-- Node52&#45;&gt;Node30 -->
<g id="edge55" class="edge">
<title>Node52&#45;&gt;Node30</title>
<path fill="none" stroke="midnightblue" d="M118.56,-221.24C99.99,-214.49 80.54,-204.04 68,-188 41.21,-153.73 43.78,-97.24 45.93,-75.71"/>
<polygon fill="midnightblue" stroke="midnightblue" points="117.55,-224.6 128.14,-224.45 119.77,-217.96 117.55,-224.6"/>
</g>
<!-- Node53 -->
<g id="node29" class="node">
<title>Node53</title>
<g id="a_node29"><a xlink:href="_diffusion_ops_8cpp.html" target="_top" xlink:title=" ">
<polygon fill="white" stroke="black" points="77.5,-168.5 77.5,-187.5 176.5,-187.5 176.5,-168.5 77.5,-168.5"/>
<text text-anchor="middle" x="127" y="-175.5" font-family="Helvetica,sans-Serif" font-size="10.00">DiffusionOps.cpp</text>
</a>
</g>
</g>
<!-- Node52&#45;&gt;Node53 -->
<g id="edge54" class="edge">
<title>Node52&#45;&gt;Node53</title>
<path fill="none" stroke="midnightblue" d="M156.58,-216.14C149.09,-206.74 140.06,-195.4 133.97,-187.75"/>
<polygon fill="midnightblue" stroke="midnightblue" points="153.93,-218.44 162.9,-224.08 159.41,-214.08 153.93,-218.44"/>
</g>
<!-- Node60 -->
<g id="node36" class="node">
<title>Node60</title>
<g id="a_node36"><a xlink:href="_channel_flow_8cpp.html" target="_top" xlink:title=" ">
<polygon fill="white" stroke="black" points="940.5,-224.5 940.5,-243.5 1039.5,-243.5 1039.5,-224.5 940.5,-224.5"/>
<text text-anchor="middle" x="990" y="-231.5" font-family="Helvetica,sans-Serif" font-size="10.00">ChannelFlow.cpp</text>
</a>
</g>
</g>
<!-- Node59&#45;&gt;Node60 -->
<g id="edge67" class="edge">
<title>Node59&#45;&gt;Node60</title>
<path fill="none" stroke="midnightblue" d="M990,-269.8C990,-260.91 990,-250.78 990,-243.75"/>
<polygon fill="midnightblue" stroke="midnightblue" points="986.5,-270.08 990,-280.08 993.5,-270.08 986.5,-270.08"/>
</g>
<!-- Node63 -->
<g id="node39" class="node">
<title>Node63</title>
<g id="a_node39"><a xlink:href="_laminar_model_8_h.html" target="_top" xlink:title=" ">
<polygon fill="white" stroke="black" points="1076.5,-224.5 1076.5,-243.5 1173.5,-243.5 1173.5,-224.5 1076.5,-224.5"/>
<text text-anchor="middle" x="1125" y="-231.5" font-family="Helvetica,sans-Serif" font-size="10.00">LaminarModel.H</text>
</a>
</g>
</g>
<!-- Node62&#45;&gt;Node63 -->
<g id="edge70" class="edge">
<title>Node62&#45;&gt;Node63</title>
<path fill="none" stroke="midnightblue" d="M1214.34,-276.23C1192.45,-266.13 1162.5,-252.31 1143.45,-243.52"/>
<polygon fill="midnightblue" stroke="midnightblue" points="1212.91,-279.43 1223.46,-280.44 1215.85,-273.08 1212.91,-279.43"/>
</g>
<!-- Node65 -->
<g id="node41" class="node">
<title>Node65</title>
<g id="a_node41"><a xlink:href="_turb_model_base_8_h.html" target="_top" xlink:title=" ">
<polygon fill="white" stroke="red" points="1191.5,-224.5 1191.5,-243.5 1292.5,-243.5 1292.5,-224.5 1191.5,-224.5"/>
<text text-anchor="middle" x="1242" y="-231.5" font-family="Helvetica,sans-Serif" font-size="10.00">TurbModelBase.H</text>
</a>
</g>
</g>
<!-- Node62&#45;&gt;Node65 -->
<g id="edge72" class="edge">
<title>Node62&#45;&gt;Node65</title>
<path fill="none" stroke="midnightblue" d="M1242,-269.8C1242,-260.91 1242,-250.78 1242,-243.75"/>
<polygon fill="midnightblue" stroke="midnightblue" points="1238.5,-270.08 1242,-280.08 1245.5,-270.08 1238.5,-270.08"/>
</g>
<!-- Node64 -->
<g id="node40" class="node">
<title>Node64</title>
<g id="a_node40"><a xlink:href="_laminar_model_8cpp.html" target="_top" xlink:title=" ">
<polygon fill="white" stroke="black" points="1128.5,-168.5 1128.5,-187.5 1235.5,-187.5 1235.5,-168.5 1128.5,-168.5"/>
<text text-anchor="middle" x="1182" y="-175.5" font-family="Helvetica,sans-Serif" font-size="10.00">LaminarModel.cpp</text>
</a>
</g>
</g>
<!-- Node63&#45;&gt;Node64 -->
<g id="edge71" class="edge">
<title>Node63&#45;&gt;Node64</title>
<path fill="none" stroke="midnightblue" d="M1141.62,-217.25C1151.73,-207.67 1164.28,-195.79 1172.68,-187.83"/>
<polygon fill="midnightblue" stroke="midnightblue" points="1139.01,-214.91 1134.16,-224.32 1143.82,-219.99 1139.01,-214.91"/>
</g>
<!-- Node78&#45;&gt;Node64 -->
<g id="edge74" class="edge">
<title>Node78&#45;&gt;Node64</title>
<path fill="none" stroke="midnightblue" d="M1488.5,-278.06C1454.09,-269.53 1405.8,-256.97 1364,-244 1305.52,-225.85 1237.92,-200.55 1203.93,-187.51"/>
<polygon fill="midnightblue" stroke="midnightblue" points="1487.71,-281.47 1498.26,-280.47 1489.39,-274.68 1487.71,-281.47"/>
</g>
<!-- Node67 -->
<g id="node43" class="node">
<title>Node67</title>
<g id="a_node43"><a xlink:href="_a_m_d_8cpp.html" target="_top" xlink:title=" ">
<polygon fill="white" stroke="black" points="1533,-224.5 1533,-243.5 1593,-243.5 1593,-224.5 1533,-224.5"/>
<text text-anchor="middle" x="1563" y="-231.5" font-family="Helvetica,sans-Serif" font-size="10.00">AMD.cpp</text>
</a>
</g>
</g>
<!-- Node78&#45;&gt;Node67 -->
<g id="edge75" class="edge">
<title>Node78&#45;&gt;Node67</title>
<path fill="none" stroke="midnightblue" d="M1543.68,-270.98C1548.6,-261.82 1554.36,-251.09 1558.3,-243.75"/>
<polygon fill="midnightblue" stroke="midnightblue" points="1540.44,-269.62 1538.79,-280.08 1546.6,-272.93 1540.44,-269.62"/>
</g>
<!-- Node69 -->
<g id="node44" class="node">
<title>Node69</title>
<g id="a_node44"><a xlink:href="_a_m_d_no_therm_8cpp.html" target="_top" xlink:title=" ">
<polygon fill="white" stroke="black" points="1611.5,-224.5 1611.5,-243.5 1716.5,-243.5 1716.5,-224.5 1611.5,-224.5"/>
<text text-anchor="middle" x="1664" y="-231.5" font-family="Helvetica,sans-Serif" font-size="10.00">AMDNoTherm.cpp</text>
</a>
</g>
</g>
<!-- Node78&#45;&gt;Node69 -->
<g id="edge76" class="edge">
<title>Node78&#45;&gt;Node69</title>
<path fill="none" stroke="midnightblue" d="M1564.09,-276.5C1588.46,-266.38 1622.14,-252.39 1643.5,-243.52"/>
<polygon fill="midnightblue" stroke="midnightblue" points="1562.49,-273.38 1554.6,-280.44 1565.18,-279.84 1562.49,-273.38"/>
</g>
<!-- Node72 -->
<g id="node45" class="node">
<title>Node72</title>
<g id="a_node45"><a xlink:href="_kosovic_8cpp.html" target="_top" xlink:title=" ">
<polygon fill="white" stroke="black" points="1735,-224.5 1735,-243.5 1809,-243.5 1809,-224.5 1735,-224.5"/>
<text text-anchor="middle" x="1772" y="-231.5" font-family="Helvetica,sans-Serif" font-size="10.00">Kosovic.cpp</text>
</a>
</g>
</g>
<!-- Node78&#45;&gt;Node72 -->
<g id="edge77" class="edge">
<title>Node78&#45;&gt;Node72</title>
<path fill="none" stroke="midnightblue" d="M1581.55,-278.21C1626.67,-267.97 1693.54,-252.8 1734.86,-243.43"/>
<polygon fill="midnightblue" stroke="midnightblue" points="1580.69,-274.82 1571.71,-280.44 1582.24,-281.64 1580.69,-274.82"/>
</g>
<!-- Node47 -->
<g id="node46" class="node">
<title>Node47</title>
<g id="a_node46"><a xlink:href="_one_eq_ksgs_8cpp.html" target="_top" xlink:title=" ">
<polygon fill="white" stroke="black" points="1827,-224.5 1827,-243.5 1919,-243.5 1919,-224.5 1827,-224.5"/>
<text text-anchor="middle" x="1873" y="-231.5" font-family="Helvetica,sans-Serif" font-size="10.00">OneEqKsgs.cpp</text>
</a>
</g>
</g>
<!-- Node78&#45;&gt;Node47 -->
<g id="edge78" class="edge">
<title>Node78&#45;&gt;Node47</title>
<path fill="none" stroke="midnightblue" d="M1594.03,-279.58C1651.53,-270.53 1740.7,-256.45 1818,-244 1820.87,-243.54 1823.82,-243.06 1826.79,-242.58"/>
<polygon fill="midnightblue" stroke="midnightblue" points="1593.37,-276.14 1584.03,-281.15 1594.45,-283.05 1593.37,-276.14"/>
</g>
<!-- Node75 -->
<g id="node47" class="node">
<title>Node75</title>
<g id="a_node47"><a xlink:href="_smagorinsky_8cpp.html" target="_top" xlink:title=" ">
<polygon fill="white" stroke="black" points="1937,-224.5 1937,-243.5 2035,-243.5 2035,-224.5 1937,-224.5"/>
<text text-anchor="middle" x="1986" y="-231.5" font-family="Helvetica,sans-Serif" font-size="10.00">Smagorinsky.cpp</text>
</a>
</g>
</g>
<!-- Node78&#45;&gt;Node75 -->
<g id="edge79" class="edge">
<title>Node78&#45;&gt;Node75</title>
<path fill="none" stroke="midnightblue" d="M1594.19,-282.89C1671.55,-274.85 1809.97,-259.89 1928,-244 1930.93,-243.61 1933.94,-243.19 1936.97,-242.75"/>
<polygon fill="midnightblue" stroke="midnightblue" points="1593.73,-279.41 1584.15,-283.93 1594.45,-286.38 1593.73,-279.41"/>
</g>
<!-- Node41 -->
<g id="node48" class="node">
<title>Node41</title>
<g id="a_node48"><a xlink:href="_k_omega_s_s_t_8cpp.html" target="_top" xlink:title=" ">
<polygon fill="white" stroke="black" points="1315.5,-168.5 1315.5,-187.5 1410.5,-187.5 1410.5,-168.5 1315.5,-168.5"/>
<text text-anchor="middle" x="1363" y="-175.5" font-family="Helvetica,sans-Serif" font-size="10.00">KOmegaSST.cpp</text>
</a>
</g>
</g>
<!-- Node78&#45;&gt;Node41 -->
<g id="edge80" class="edge">
<title>Node78&#45;&gt;Node41</title>
<path fill="none" stroke="midnightblue" d="M1473.32,-285.96C1440.8,-281.15 1402.49,-269.85 1378,-244 1363.34,-228.53 1362.01,-201.72 1362.41,-187.86"/>
<polygon fill="midnightblue" stroke="midnightblue" points="1473.29,-289.48 1483.65,-287.3 1474.19,-282.54 1473.29,-289.48"/>
</g>
<!-- Node42 -->
<g id="node49" class="node">
<title>Node42</title>
<g id="a_node49"><a xlink:href="_k_omega_s_s_t_i_8_h.html" target="_top" xlink:title=" ">
<polygon fill="white" stroke="black" points="1387.5,-224.5 1387.5,-243.5 1476.5,-243.5 1476.5,-224.5 1387.5,-224.5"/>
<text text-anchor="middle" x="1432" y="-231.5" font-family="Helvetica,sans-Serif" font-size="10.00">KOmegaSSTI.H</text>
</a>
</g>
</g>
<!-- Node78&#45;&gt;Node42 -->
<g id="edge81" class="edge">
<title>Node78&#45;&gt;Node42</title>
<path fill="none" stroke="midnightblue" d="M1508.67,-275.59C1489.81,-265.61 1464.62,-252.27 1448.35,-243.65"/>
<polygon fill="midnightblue" stroke="midnightblue" points="1507.14,-278.74 1517.61,-280.32 1510.41,-272.55 1507.14,-278.74"/>
</g>
<!-- Node43 -->
<g id="node50" class="node">
<title>Node43</title>
<g id="a_node50"><a xlink:href="_k_omega_s_s_t_i_d_d_e_s_8cpp.html" target="_top" xlink:title=" ">
<polygon fill="white" stroke="black" points="1437,-168.5 1437,-187.5 1563,-187.5 1563,-168.5 1437,-168.5"/>
<text text-anchor="middle" x="1500" y="-175.5" font-family="Helvetica,sans-Serif" font-size="10.00">KOmegaSSTIDDES.cpp</text>
</a>
</g>
</g>
<!-- Node78&#45;&gt;Node43 -->
<g id="edge84" class="edge">
<title>Node78&#45;&gt;Node43</title>
<path fill="none" stroke="midnightblue" d="M1528.34,-270.67C1520.9,-246.62 1508.16,-205.39 1502.66,-187.59"/>
<polygon fill="midnightblue" stroke="midnightblue" points="1525.04,-271.85 1531.33,-280.37 1531.72,-269.78 1525.04,-271.85"/>
</g>
<!-- Node42&#45;&gt;Node41 -->
<g id="edge82" class="edge">
<title>Node42&#45;&gt;Node41</title>
<path fill="none" stroke="midnightblue" d="M1412.96,-218.1C1400.54,-208.38 1384.76,-196.03 1374.29,-187.83"/>
<polygon fill="midnightblue" stroke="midnightblue" points="1410.88,-220.92 1420.91,-224.32 1415.2,-215.4 1410.88,-220.92"/>
</g>
<!-- Node42&#45;&gt;Node43 -->
<g id="edge83" class="edge">
<title>Node42&#45;&gt;Node43</title>
<path fill="none" stroke="midnightblue" d="M1450.76,-218.1C1463,-208.38 1478.56,-196.03 1488.88,-187.83"/>
<polygon fill="midnightblue" stroke="midnightblue" points="1448.58,-215.36 1442.93,-224.32 1452.93,-220.85 1448.58,-215.36"/>
</g>
</g>
</svg>
