<?xml version="1.0" encoding="UTF-8" standalone="no"?>
<!DOCTYPE svg PUBLIC "-//W3C//DTD SVG 1.1//EN"
 "http://www.w3.org/Graphics/SVG/1.1/DTD/svg11.dtd">
<!-- Generated by graphviz version 2.43.0 (0)
 -->
<!-- Title: disk_ops.cpp Pages: 1 -->
<svg width="2207pt" height="598pt"
 viewBox="0.00 0.00 2207.00 598.00" xmlns="http://www.w3.org/2000/svg" xmlns:xlink="http://www.w3.org/1999/xlink">
<g id="graph0" class="graph" transform="scale(1 1) rotate(0) translate(4 594)">
<title>disk_ops.cpp</title>
<polygon fill="white" stroke="transparent" points="-4,4 -4,-594 2203,-594 2203,4 -4,4"/>
<!-- Node1 -->
<g id="node1" class="node">
<title>Node1</title>
<g id="a_node1"><a xlink:title=" ">
<polygon fill="#bfbfbf" stroke="black" points="1945,-570.5 1945,-589.5 2025,-589.5 2025,-570.5 1945,-570.5"/>
<text text-anchor="middle" x="1985" y="-577.5" font-family="Helvetica,sans-Serif" font-size="10.00">disk_ops.cpp</text>
</a>
</g>
</g>
<!-- Node2 -->
<g id="node2" class="node">
<title>Node2</title>
<g id="a_node2"><a xlink:href="disk__ops_8_h.html" target="_top" xlink:title=" ">
<polygon fill="white" stroke="black" points="370,-503.5 370,-533.5 510,-533.5 510,-503.5 370,-503.5"/>
<text text-anchor="start" x="378" y="-521.5" font-family="Helvetica,sans-Serif" font-size="10.00">amr&#45;wind/wind_energy</text>
<text text-anchor="middle" x="440" y="-510.5" font-family="Helvetica,sans-Serif" font-size="10.00">/actuator/disk/disk_ops.H</text>
</a>
</g>
</g>
<!-- Node1&#45;&gt;Node2 -->
<g id="edge1" class="edge">
<title>Node1&#45;&gt;Node2</title>
<path fill="none" stroke="midnightblue" d="M1944.86,-577.45C1739.22,-569.53 802.43,-533.46 520.5,-522.6"/>
<polygon fill="midnightblue" stroke="midnightblue" points="520.48,-519.1 510.36,-522.21 520.21,-526.09 520.48,-519.1"/>
</g>
<!-- Node67 -->
<g id="node43" class="node">
<title>Node67</title>
<g id="a_node43"><a xlink:href="nc__interface_8_h.html" target="_top" xlink:title="Interface to NetCDF library.">
<polygon fill="white" stroke="black" points="1793.5,-235.5 1793.5,-265.5 1918.5,-265.5 1918.5,-235.5 1793.5,-235.5"/>
<text text-anchor="start" x="1801.5" y="-253.5" font-family="Helvetica,sans-Serif" font-size="10.00">amr&#45;wind/utilities</text>
<text text-anchor="middle" x="1856" y="-242.5" font-family="Helvetica,sans-Serif" font-size="10.00">/ncutils/nc_interface.H</text>
</a>
</g>
</g>
<!-- Node1&#45;&gt;Node67 -->
<g id="edge70" class="edge">
<title>Node1&#45;&gt;Node67</title>
<path fill="none" stroke="midnightblue" d="M1985,-570.41C1985,-549.98 1985,-496.86 1985,-452.5 1985,-452.5 1985,-452.5 1985,-383.5 1985,-331.29 1932.74,-292.07 1894.75,-270.45"/>
<polygon fill="midnightblue" stroke="midnightblue" points="1896.37,-267.35 1885.92,-265.59 1892.99,-273.48 1896.37,-267.35"/>
</g>
<!-- Node71 -->
<g id="node47" class="node">
<title>Node71</title>
<g id="a_node47"><a xlink:href="io__utils_8_h.html" target="_top" xlink:title=" ">
<polygon fill="white" stroke="black" points="1982.5,-235.5 1982.5,-265.5 2085.5,-265.5 2085.5,-235.5 1982.5,-235.5"/>
<text text-anchor="start" x="1990.5" y="-253.5" font-family="Helvetica,sans-Serif" font-size="10.00">amr&#45;wind/utilities</text>
<text text-anchor="middle" x="2034" y="-242.5" font-family="Helvetica,sans-Serif" font-size="10.00">/io_utils.H</text>
</a>
</g>
</g>
<!-- Node1&#45;&gt;Node71 -->
<g id="edge76" class="edge">
<title>Node1&#45;&gt;Node71</title>
<path fill="none" stroke="midnightblue" d="M1990.34,-570.48C2002.26,-550.62 2030,-499.35 2030,-452.5 2030,-452.5 2030,-452.5 2030,-383.5 2030,-345.99 2031.63,-302.5 2032.81,-276"/>
<polygon fill="midnightblue" stroke="midnightblue" points="2036.32,-275.91 2033.28,-265.75 2029.33,-275.58 2036.32,-275.91"/>
</g>
<!-- Node3 -->
<g id="node3" class="node">
<title>Node3</title>
<g id="a_node3"><a xlink:href="_actuator_disk_8_h.html" target="_top" xlink:title=" ">
<polygon fill="white" stroke="black" points="360,-436.5 360,-466.5 520,-466.5 520,-436.5 360,-436.5"/>
<text text-anchor="start" x="368" y="-454.5" font-family="Helvetica,sans-Serif" font-size="10.00">amr&#45;wind/wind_energy</text>
<text text-anchor="middle" x="440" y="-443.5" font-family="Helvetica,sans-Serif" font-size="10.00">/actuator/disk/ActuatorDisk.H</text>
</a>
</g>
</g>
<!-- Node2&#45;&gt;Node3 -->
<g id="edge2" class="edge">
<title>Node2&#45;&gt;Node3</title>
<path fill="none" stroke="midnightblue" d="M440,-503.4C440,-495.64 440,-485.81 440,-476.86"/>
<polygon fill="midnightblue" stroke="midnightblue" points="443.5,-476.58 440,-466.58 436.5,-476.58 443.5,-476.58"/>
</g>
<!-- Node24 -->
<g id="node23" class="node">
<title>Node24</title>
<g id="a_node23"><a xlink:href="actuator__ops_8_h.html" target="_top" xlink:title=" ">
<polygon fill="white" stroke="black" points="572.5,-436.5 572.5,-466.5 709.5,-466.5 709.5,-436.5 572.5,-436.5"/>
<text text-anchor="start" x="580.5" y="-454.5" font-family="Helvetica,sans-Serif" font-size="10.00">amr&#45;wind/wind_energy</text>
<text text-anchor="middle" x="641" y="-443.5" font-family="Helvetica,sans-Serif" font-size="10.00">/actuator/actuator_ops.H</text>
</a>
</g>
</g>
<!-- Node2&#45;&gt;Node24 -->
<g id="edge31" class="edge">
<title>Node2&#45;&gt;Node24</title>
<path fill="none" stroke="midnightblue" d="M483.61,-503.4C514.17,-493.52 555.18,-480.25 587.68,-469.74"/>
<polygon fill="midnightblue" stroke="midnightblue" points="589.03,-472.98 597.47,-466.58 586.88,-466.32 589.03,-472.98"/>
</g>
<!-- Node65 -->
<g id="node41" class="node">
<title>Node65</title>
<g id="a_node41"><a xlink:href="tensor__ops_8_h.html" target="_top" xlink:title=" ">
<polygon fill="white" stroke="black" points="0.5,-436.5 0.5,-466.5 103.5,-466.5 103.5,-436.5 0.5,-436.5"/>
<text text-anchor="start" x="8.5" y="-454.5" font-family="Helvetica,sans-Serif" font-size="10.00">amr&#45;wind/utilities</text>
<text text-anchor="middle" x="52" y="-443.5" font-family="Helvetica,sans-Serif" font-size="10.00">/tensor_ops.H</text>
</a>
</g>
</g>
<!-- Node2&#45;&gt;Node65 -->
<g id="edge65" class="edge">
<title>Node2&#45;&gt;Node65</title>
<path fill="none" stroke="midnightblue" d="M369.97,-507.24C305.64,-497.6 207.71,-482.39 123,-467 119.84,-466.43 116.61,-465.82 113.35,-465.2"/>
<polygon fill="midnightblue" stroke="midnightblue" points="114.01,-461.76 103.52,-463.3 112.68,-468.64 114.01,-461.76"/>
</g>
<!-- Node66 -->
<g id="node42" class="node">
<title>Node66</title>
<g id="a_node42"><a xlink:href="linear__interpolation_8_h.html" target="_top" xlink:title=" ">
<polygon fill="white" stroke="black" points="28.5,-168.5 28.5,-198.5 153.5,-198.5 153.5,-168.5 28.5,-168.5"/>
<text text-anchor="start" x="36.5" y="-186.5" font-family="Helvetica,sans-Serif" font-size="10.00">amr&#45;wind/utilities</text>
<text text-anchor="middle" x="91" y="-175.5" font-family="Helvetica,sans-Serif" font-size="10.00">/linear_interpolation.H</text>
</a>
</g>
</g>
<!-- Node2&#45;&gt;Node66 -->
<g id="edge67" class="edge">
<title>Node2&#45;&gt;Node66</title>
<path fill="none" stroke="midnightblue" d="M369.72,-516.47C280.21,-511.01 137,-486.49 137,-385.5 137,-385.5 137,-385.5 137,-316.5 137,-276.47 117.91,-233.23 104.32,-207.53"/>
<polygon fill="midnightblue" stroke="midnightblue" points="107.3,-205.69 99.44,-198.59 101.16,-209.04 107.3,-205.69"/>
</g>
<!-- Node4 -->
<g id="node4" class="node">
<title>Node4</title>
<g id="a_node4"><a xlink:href="disk__types_8_h.html" target="_top" xlink:title=" ">
<polygon fill="white" stroke="black" points="333.5,-369.5 333.5,-399.5 482.5,-399.5 482.5,-369.5 333.5,-369.5"/>
<text text-anchor="start" x="341.5" y="-387.5" font-family="Helvetica,sans-Serif" font-size="10.00">amr&#45;wind/wind_energy</text>
<text text-anchor="middle" x="408" y="-376.5" font-family="Helvetica,sans-Serif" font-size="10.00">/actuator/disk/disk_types.H</text>
</a>
</g>
</g>
<!-- Node3&#45;&gt;Node4 -->
<g id="edge3" class="edge">
<title>Node3&#45;&gt;Node4</title>
<path fill="none" stroke="midnightblue" d="M433.06,-436.4C429.07,-428.3 423.97,-417.94 419.41,-408.69"/>
<polygon fill="midnightblue" stroke="midnightblue" points="422.49,-407 414.93,-399.58 416.21,-410.09 422.49,-407"/>
</g>
<!-- Node10 -->
<g id="node10" class="node">
<title>Node10</title>
<g id="a_node10"><a xlink:href="vector__space_8_h.html" target="_top" xlink:title=" ">
<polygon fill="white" stroke="black" points="478.5,-235.5 478.5,-265.5 613.5,-265.5 613.5,-235.5 478.5,-235.5"/>
<text text-anchor="start" x="486.5" y="-253.5" font-family="Helvetica,sans-Serif" font-size="10.00">amr&#45;wind/core/vs/vector</text>
<text text-anchor="middle" x="546" y="-242.5" font-family="Helvetica,sans-Serif" font-size="10.00">_space.H</text>
</a>
</g>
</g>
<!-- Node3&#45;&gt;Node10 -->
<g id="edge30" class="edge">
<title>Node3&#45;&gt;Node10</title>
<path fill="none" stroke="midnightblue" d="M458.03,-436.16C468.81,-426.82 482.09,-413.83 491,-400 516.85,-359.9 532.93,-305.92 540.6,-275.31"/>
<polygon fill="midnightblue" stroke="midnightblue" points="544.02,-276.07 542.97,-265.52 537.22,-274.42 544.02,-276.07"/>
</g>
<!-- Node5 -->
<g id="node5" class="node">
<title>Node5</title>
<g id="a_node5"><a xlink:href="actuator__types_8_h.html" target="_top" xlink:title=" ">
<polygon fill="white" stroke="black" points="334,-302.5 334,-332.5 480,-332.5 480,-302.5 334,-302.5"/>
<text text-anchor="start" x="342" y="-320.5" font-family="Helvetica,sans-Serif" font-size="10.00">amr&#45;wind/wind_energy</text>
<text text-anchor="middle" x="407" y="-309.5" font-family="Helvetica,sans-Serif" font-size="10.00">/actuator/actuator_types.H</text>
</a>
</g>
</g>
<!-- Node4&#45;&gt;Node5 -->
<g id="edge4" class="edge">
<title>Node4&#45;&gt;Node5</title>
<path fill="none" stroke="midnightblue" d="M407.78,-369.4C407.66,-361.64 407.51,-351.81 407.37,-342.86"/>
<polygon fill="midnightblue" stroke="midnightblue" points="410.87,-342.52 407.22,-332.58 403.87,-342.63 410.87,-342.52"/>
</g>
<!-- Node6 -->
<g id="node6" class="node">
<title>Node6</title>
<g id="a_node6"><a xlink:href="_slice_8_h.html" target="_top" xlink:title=" ">
<polygon fill="white" stroke="black" points="172,-174 172,-193 296,-193 296,-174 172,-174"/>
<text text-anchor="middle" x="234" y="-181" font-family="Helvetica,sans-Serif" font-size="10.00">amr&#45;wind/core/Slice.H</text>
</a>
</g>
</g>
<!-- Node5&#45;&gt;Node6 -->
<g id="edge5" class="edge">
<title>Node5&#45;&gt;Node6</title>
<path fill="none" stroke="midnightblue" d="M333.79,-312.38C300.38,-306.51 263.37,-293.63 241,-266 226.79,-248.45 227.53,-221.26 230.13,-203.18"/>
<polygon fill="midnightblue" stroke="midnightblue" points="233.59,-203.72 231.88,-193.26 226.7,-202.5 233.59,-203.72"/>
</g>
<!-- Node9 -->
<g id="node9" class="node">
<title>Node9</title>
<g id="a_node9"><a xlink:title=" ">
<polygon fill="white" stroke="#bfbfbf" points="214.5,-56.5 214.5,-75.5 301.5,-75.5 301.5,-56.5 214.5,-56.5"/>
<text text-anchor="middle" x="258" y="-63.5" font-family="Helvetica,sans-Serif" font-size="10.00">AMReX_Gpu.H</text>
</a>
</g>
</g>
<!-- Node5&#45;&gt;Node9 -->
<g id="edge26" class="edge">
<title>Node5&#45;&gt;Node9</title>
<path fill="none" stroke="midnightblue" d="M382.77,-302.4C369.35,-293.49 353.35,-280.87 343,-266 301.87,-206.95 326.71,-175.58 293,-112 287.56,-101.75 279.76,-91.44 272.91,-83.29"/>
<polygon fill="midnightblue" stroke="midnightblue" points="275.46,-80.89 266.24,-75.66 270.18,-85.49 275.46,-80.89"/>
</g>
<!-- Node5&#45;&gt;Node10 -->
<g id="edge9" class="edge">
<title>Node5&#45;&gt;Node10</title>
<path fill="none" stroke="midnightblue" d="M437.16,-302.4C457.56,-292.86 484.7,-280.16 506.78,-269.84"/>
<polygon fill="midnightblue" stroke="midnightblue" points="508.32,-272.98 515.9,-265.58 505.36,-266.64 508.32,-272.98"/>
</g>
<!-- Node21 -->
<g id="node20" class="node">
<title>Node21</title>
<g id="a_node20"><a xlink:title=" ">
<polygon fill="white" stroke="#bfbfbf" points="352,-241 352,-260 460,-260 460,-241 352,-241"/>
<text text-anchor="middle" x="406" y="-248" font-family="Helvetica,sans-Serif" font-size="10.00">AMReX_RealBox.H</text>
</a>
</g>
</g>
<!-- Node5&#45;&gt;Node21 -->
<g id="edge27" class="edge">
<title>Node5&#45;&gt;Node21</title>
<path fill="none" stroke="midnightblue" d="M406.78,-302.4C406.64,-293.06 406.45,-280.71 406.29,-270.52"/>
<polygon fill="midnightblue" stroke="midnightblue" points="409.79,-270.14 406.13,-260.19 402.79,-270.25 409.79,-270.14"/>
</g>
<!-- Node22 -->
<g id="node21" class="node">
<title>Node22</title>
<g id="a_node21"><a xlink:title=" ">
<polygon fill="white" stroke="#bfbfbf" points="769,-241 769,-260 801,-260 801,-241 769,-241"/>
<text text-anchor="middle" x="785" y="-248" font-family="Helvetica,sans-Serif" font-size="10.00">set</text>
</a>
</g>
</g>
<!-- Node5&#45;&gt;Node22 -->
<g id="edge28" class="edge">
<title>Node5&#45;&gt;Node22</title>
<path fill="none" stroke="midnightblue" d="M480.21,-309.35C568.05,-300.2 709.77,-283.42 760,-266 761.07,-265.63 762.14,-265.21 763.21,-264.76"/>
<polygon fill="midnightblue" stroke="midnightblue" points="765.17,-267.69 772.48,-260.02 761.98,-261.46 765.17,-267.69"/>
</g>
<!-- Node23 -->
<g id="node22" class="node">
<title>Node23</title>
<g id="a_node22"><a xlink:title=" ">
<polygon fill="white" stroke="#bfbfbf" points="250.5,-241 250.5,-260 295.5,-260 295.5,-241 250.5,-241"/>
<text text-anchor="middle" x="273" y="-248" font-family="Helvetica,sans-Serif" font-size="10.00">utility</text>
</a>
</g>
</g>
<!-- Node5&#45;&gt;Node23 -->
<g id="edge29" class="edge">
<title>Node5&#45;&gt;Node23</title>
<path fill="none" stroke="midnightblue" d="M377.92,-302.4C354.62,-291.09 322.19,-275.36 299.57,-264.39"/>
<polygon fill="midnightblue" stroke="midnightblue" points="301.06,-261.22 290.54,-260.01 298.01,-267.52 301.06,-261.22"/>
</g>
<!-- Node7 -->
<g id="node7" class="node">
<title>Node7</title>
<g id="a_node7"><a xlink:title=" ">
<polygon fill="white" stroke="#bfbfbf" points="231.5,-112.5 231.5,-131.5 284.5,-131.5 284.5,-112.5 231.5,-112.5"/>
<text text-anchor="middle" x="258" y="-119.5" font-family="Helvetica,sans-Serif" font-size="10.00">iterator</text>
</a>
</g>
</g>
<!-- Node6&#45;&gt;Node7 -->
<g id="edge6" class="edge">
<title>Node6&#45;&gt;Node7</title>
<path fill="none" stroke="midnightblue" d="M237.44,-173.98C240.9,-165.4 246.33,-151.93 250.75,-140.98"/>
<polygon fill="midnightblue" stroke="midnightblue" points="254.07,-142.09 254.57,-131.51 247.58,-139.47 254.07,-142.09"/>
</g>
<!-- Node8 -->
<g id="node8" class="node">
<title>Node8</title>
<g id="a_node8"><a xlink:title=" ">
<polygon fill="white" stroke="#bfbfbf" points="933,-112.5 933,-131.5 1031,-131.5 1031,-112.5 933,-112.5"/>
<text text-anchor="middle" x="982" y="-119.5" font-family="Helvetica,sans-Serif" font-size="10.00">AMReX_Vector.H</text>
</a>
</g>
</g>
<!-- Node6&#45;&gt;Node8 -->
<g id="edge7" class="edge">
<title>Node6&#45;&gt;Node8</title>
<path fill="none" stroke="midnightblue" d="M296.04,-177.64C410.09,-168.71 660.74,-149 872,-132 888.53,-130.67 906.45,-129.21 922.94,-127.86"/>
<polygon fill="midnightblue" stroke="midnightblue" points="923.31,-131.34 932.99,-127.04 922.74,-124.37 923.31,-131.34"/>
</g>
<!-- Node6&#45;&gt;Node9 -->
<g id="edge8" class="edge">
<title>Node6&#45;&gt;Node9</title>
<path fill="none" stroke="midnightblue" d="M229.7,-173.58C223.74,-159.96 214.52,-133.32 222,-112 225.79,-101.21 233.37,-91.08 240.6,-83.18"/>
<polygon fill="midnightblue" stroke="midnightblue" points="243.33,-85.4 247.84,-75.81 238.33,-80.49 243.33,-85.4"/>
</g>
<!-- Node11 -->
<g id="node11" class="node">
<title>Node11</title>
<g id="a_node11"><a xlink:href="vector_8_h.html" target="_top" xlink:title=" ">
<polygon fill="white" stroke="black" points="379.5,-112.5 379.5,-131.5 524.5,-131.5 524.5,-112.5 379.5,-112.5"/>
<text text-anchor="middle" x="452" y="-119.5" font-family="Helvetica,sans-Serif" font-size="10.00">amr&#45;wind/core/vs/vector.H</text>
</a>
</g>
</g>
<!-- Node10&#45;&gt;Node11 -->
<g id="edge10" class="edge">
<title>Node10&#45;&gt;Node11</title>
<path fill="none" stroke="midnightblue" d="M514.9,-235.36C499.54,-226.88 482,-214.68 471,-199 459.07,-181.99 454.61,-158.22 452.96,-141.82"/>
<polygon fill="midnightblue" stroke="midnightblue" points="456.45,-141.51 452.2,-131.81 449.47,-142.04 456.45,-141.51"/>
</g>
<!-- Node18 -->
<g id="node18" class="node">
<title>Node18</title>
<g id="a_node18"><a xlink:href="tensor_8_h.html" target="_top" xlink:title=" ">
<polygon fill="white" stroke="black" points="480.5,-174 480.5,-193 625.5,-193 625.5,-174 480.5,-174"/>
<text text-anchor="middle" x="553" y="-181" font-family="Helvetica,sans-Serif" font-size="10.00">amr&#45;wind/core/vs/tensor.H</text>
</a>
</g>
</g>
<!-- Node10&#45;&gt;Node18 -->
<g id="edge19" class="edge">
<title>Node10&#45;&gt;Node18</title>
<path fill="none" stroke="midnightblue" d="M547.52,-235.4C548.53,-225.96 549.88,-213.45 550.99,-203.19"/>
<polygon fill="midnightblue" stroke="midnightblue" points="554.47,-203.51 552.06,-193.19 547.51,-202.76 554.47,-203.51"/>
</g>
<!-- Node11&#45;&gt;Node9 -->
<g id="edge11" class="edge">
<title>Node11&#45;&gt;Node9</title>
<path fill="none" stroke="midnightblue" d="M421.26,-112.44C388.06,-103.2 335.01,-88.44 298.44,-78.26"/>
<polygon fill="midnightblue" stroke="midnightblue" points="299.17,-74.83 288.6,-75.52 297.29,-81.57 299.17,-74.83"/>
</g>
<!-- Node12 -->
<g id="node12" class="node">
<title>Node12</title>
<g id="a_node12"><a xlink:href="vstraits_8_h.html" target="_top" xlink:title=" ">
<polygon fill="white" stroke="black" points="545,-56.5 545,-75.5 697,-75.5 697,-56.5 545,-56.5"/>
<text text-anchor="middle" x="621" y="-63.5" font-family="Helvetica,sans-Serif" font-size="10.00">amr&#45;wind/core/vs/vstraits.H</text>
</a>
</g>
</g>
<!-- Node11&#45;&gt;Node12 -->
<g id="edge12" class="edge">
<title>Node11&#45;&gt;Node12</title>
<path fill="none" stroke="midnightblue" d="M478.78,-112.44C507.33,-103.32 552.73,-88.81 584.54,-78.65"/>
<polygon fill="midnightblue" stroke="midnightblue" points="585.89,-81.89 594.35,-75.52 583.76,-75.23 585.89,-81.89"/>
</g>
<!-- Node15 -->
<g id="node15" class="node">
<title>Node15</title>
<g id="a_node15"><a xlink:href="vector_i_8_h.html" target="_top" xlink:title=" ">
<polygon fill="white" stroke="black" points="377.5,-56.5 377.5,-75.5 526.5,-75.5 526.5,-56.5 377.5,-56.5"/>
<text text-anchor="middle" x="452" y="-63.5" font-family="Helvetica,sans-Serif" font-size="10.00">amr&#45;wind/core/vs/vectorI.H</text>
</a>
</g>
</g>
<!-- Node11&#45;&gt;Node15 -->
<g id="edge15" class="edge">
<title>Node11&#45;&gt;Node15</title>
<path fill="none" stroke="midnightblue" d="M446.83,-112.08C445.32,-104.93 444.89,-94.64 445.54,-85.69"/>
<polygon fill="midnightblue" stroke="midnightblue" points="449.02,-86.13 446.87,-75.75 442.08,-85.2 449.02,-86.13"/>
</g>
<!-- Node13 -->
<g id="node13" class="node">
<title>Node13</title>
<g id="a_node13"><a xlink:title=" ">
<polygon fill="white" stroke="#bfbfbf" points="599,-0.5 599,-19.5 643,-19.5 643,-0.5 599,-0.5"/>
<text text-anchor="middle" x="621" y="-7.5" font-family="Helvetica,sans-Serif" font-size="10.00">limits</text>
</a>
</g>
</g>
<!-- Node12&#45;&gt;Node13 -->
<g id="edge13" class="edge">
<title>Node12&#45;&gt;Node13</title>
<path fill="none" stroke="midnightblue" d="M621,-56.08C621,-49.01 621,-38.86 621,-29.99"/>
<polygon fill="midnightblue" stroke="midnightblue" points="624.5,-29.75 621,-19.75 617.5,-29.75 624.5,-29.75"/>
</g>
<!-- Node14 -->
<g id="node14" class="node">
<title>Node14</title>
<g id="a_node14"><a xlink:title=" ">
<polygon fill="white" stroke="#bfbfbf" points="1010,-0.5 1010,-19.5 1102,-19.5 1102,-0.5 1010,-0.5"/>
<text text-anchor="middle" x="1056" y="-7.5" font-family="Helvetica,sans-Serif" font-size="10.00">AMReX_REAL.H</text>
</a>
</g>
</g>
<!-- Node12&#45;&gt;Node14 -->
<g id="edge14" class="edge">
<title>Node12&#45;&gt;Node14</title>
<path fill="none" stroke="midnightblue" d="M689.93,-56.44C775.56,-45.81 920.05,-27.88 999.48,-18.02"/>
<polygon fill="midnightblue" stroke="midnightblue" points="1000.28,-21.44 1009.77,-16.74 999.42,-14.5 1000.28,-21.44"/>
</g>
<!-- Node15&#45;&gt;Node11 -->
<g id="edge18" class="edge">
<title>Node15&#45;&gt;Node11</title>
<path fill="none" stroke="midnightblue" d="M457.13,-75.75C458.66,-82.86 459.1,-93.14 458.47,-102.1"/>
<polygon fill="midnightblue" stroke="midnightblue" points="454.99,-101.71 457.17,-112.08 461.93,-102.62 454.99,-101.71"/>
</g>
<!-- Node16 -->
<g id="node16" class="node">
<title>Node16</title>
<g id="a_node16"><a xlink:title=" ">
<polygon fill="white" stroke="#bfbfbf" points="423.5,-0.5 423.5,-19.5 480.5,-19.5 480.5,-0.5 423.5,-0.5"/>
<text text-anchor="middle" x="452" y="-7.5" font-family="Helvetica,sans-Serif" font-size="10.00">ostream</text>
</a>
</g>
</g>
<!-- Node15&#45;&gt;Node16 -->
<g id="edge16" class="edge">
<title>Node15&#45;&gt;Node16</title>
<path fill="none" stroke="midnightblue" d="M452,-56.08C452,-49.01 452,-38.86 452,-29.99"/>
<polygon fill="midnightblue" stroke="midnightblue" points="455.5,-29.75 452,-19.75 448.5,-29.75 455.5,-29.75"/>
</g>
<!-- Node17 -->
<g id="node17" class="node">
<title>Node17</title>
<g id="a_node17"><a xlink:title=" ">
<polygon fill="white" stroke="#bfbfbf" points="816.5,-0.5 816.5,-19.5 863.5,-19.5 863.5,-0.5 816.5,-0.5"/>
<text text-anchor="middle" x="840" y="-7.5" font-family="Helvetica,sans-Serif" font-size="10.00">cmath</text>
</a>
</g>
</g>
<!-- Node15&#45;&gt;Node17 -->
<g id="edge17" class="edge">
<title>Node15&#45;&gt;Node17</title>
<path fill="none" stroke="midnightblue" d="M513.48,-56.44C596.27,-44.92 740.73,-24.82 806.12,-15.71"/>
<polygon fill="midnightblue" stroke="midnightblue" points="806.86,-19.15 816.28,-14.3 805.9,-12.21 806.86,-19.15"/>
</g>
<!-- Node18&#45;&gt;Node9 -->
<g id="edge20" class="edge">
<title>Node18&#45;&gt;Node9</title>
<path fill="none" stroke="midnightblue" d="M510.17,-173.95C472.41,-165.66 416.34,-151.46 370,-132 336.45,-117.91 300.54,-95.65 278.68,-81.19"/>
<polygon fill="midnightblue" stroke="midnightblue" points="280.47,-78.17 270.22,-75.51 276.57,-83.99 280.47,-78.17"/>
</g>
<!-- Node18&#45;&gt;Node11 -->
<g id="edge22" class="edge">
<title>Node18&#45;&gt;Node11</title>
<path fill="none" stroke="midnightblue" d="M538.53,-173.98C522.03,-164.25 494.82,-148.23 475.32,-136.74"/>
<polygon fill="midnightblue" stroke="midnightblue" points="476.84,-133.57 466.44,-131.51 473.28,-139.6 476.84,-133.57"/>
</g>
<!-- Node18&#45;&gt;Node12 -->
<g id="edge21" class="edge">
<title>Node18&#45;&gt;Node12</title>
<path fill="none" stroke="midnightblue" d="M553.79,-173.64C555.38,-159.64 559.9,-131.94 572,-112 579.05,-100.39 589.95,-89.96 599.69,-82.06"/>
<polygon fill="midnightblue" stroke="midnightblue" points="602.02,-84.68 607.82,-75.82 597.76,-79.13 602.02,-84.68"/>
</g>
<!-- Node19 -->
<g id="node19" class="node">
<title>Node19</title>
<g id="a_node19"><a xlink:href="tensor_i_8_h.html" target="_top" xlink:title=" ">
<polygon fill="white" stroke="red" points="580.5,-112.5 580.5,-131.5 729.5,-131.5 729.5,-112.5 580.5,-112.5"/>
<text text-anchor="middle" x="655" y="-119.5" font-family="Helvetica,sans-Serif" font-size="10.00">amr&#45;wind/core/vs/tensorI.H</text>
</a>
</g>
</g>
<!-- Node18&#45;&gt;Node19 -->
<g id="edge23" class="edge">
<title>Node18&#45;&gt;Node19</title>
<path fill="none" stroke="midnightblue" d="M562.71,-173.98C577.46,-164.12 605.18,-147.79 626.52,-136.27"/>
<polygon fill="midnightblue" stroke="midnightblue" points="628.32,-139.28 635.52,-131.51 625.04,-133.09 628.32,-139.28"/>
</g>
<!-- Node19&#45;&gt;Node17 -->
<g id="edge24" class="edge">
<title>Node19&#45;&gt;Node17</title>
<path fill="none" stroke="midnightblue" d="M669.52,-112.37C701.4,-93.41 777.77,-48 816.55,-24.94"/>
<polygon fill="midnightblue" stroke="midnightblue" points="818.74,-27.71 825.55,-19.59 815.17,-21.69 818.74,-27.71"/>
</g>
<!-- Node19&#45;&gt;Node18 -->
<g id="edge25" class="edge">
<title>Node19&#45;&gt;Node18</title>
<path fill="none" stroke="midnightblue" d="M645.31,-131.51C630.58,-141.36 602.86,-157.69 581.51,-169.21"/>
<polygon fill="midnightblue" stroke="midnightblue" points="579.71,-166.2 572.51,-173.98 582.99,-172.39 579.71,-166.2"/>
</g>
<!-- Node24&#45;&gt;Node5 -->
<g id="edge32" class="edge">
<title>Node24&#45;&gt;Node5</title>
<path fill="none" stroke="midnightblue" d="M615.96,-436.37C573.73,-412.56 488.35,-364.39 440.84,-337.59"/>
<polygon fill="midnightblue" stroke="midnightblue" points="442.29,-334.39 431.86,-332.52 438.85,-340.49 442.29,-334.39"/>
</g>
<!-- Node24&#45;&gt;Node8 -->
<g id="edge37" class="edge">
<title>Node24&#45;&gt;Node8</title>
<path fill="none" stroke="midnightblue" d="M709.67,-445.4C787.9,-435.41 905,-405.87 905,-318.5 905,-318.5 905,-318.5 905,-249.5 905,-212.31 903.93,-199.31 924,-168 932.17,-155.26 945.23,-144.66 956.9,-136.95"/>
<polygon fill="midnightblue" stroke="midnightblue" points="958.8,-139.89 965.44,-131.63 955.1,-133.95 958.8,-139.89"/>
</g>
<!-- Node25 -->
<g id="node24" class="node">
<title>Node25</title>
<g id="a_node24"><a xlink:href="_act_parser_8_h.html" target="_top" xlink:title=" ">
<polygon fill="white" stroke="black" points="577,-369.5 577,-399.5 705,-399.5 705,-369.5 577,-369.5"/>
<text text-anchor="start" x="585" y="-387.5" font-family="Helvetica,sans-Serif" font-size="10.00">amr&#45;wind/wind_energy</text>
<text text-anchor="middle" x="641" y="-376.5" font-family="Helvetica,sans-Serif" font-size="10.00">/actuator/ActParser.H</text>
</a>
</g>
</g>
<!-- Node24&#45;&gt;Node25 -->
<g id="edge33" class="edge">
<title>Node24&#45;&gt;Node25</title>
<path fill="none" stroke="midnightblue" d="M641,-436.4C641,-428.64 641,-418.81 641,-409.86"/>
<polygon fill="midnightblue" stroke="midnightblue" points="644.5,-409.58 641,-399.58 637.5,-409.58 644.5,-409.58"/>
</g>
<!-- Node28 -->
<g id="node27" class="node">
<title>Node28</title>
<g id="a_node27"><a xlink:href="actuator__ops_i_8_h.html" target="_top" xlink:title=" ">
<polygon fill="white" stroke="black" points="1013,-369.5 1013,-399.5 1153,-399.5 1153,-369.5 1013,-369.5"/>
<text text-anchor="start" x="1021" y="-387.5" font-family="Helvetica,sans-Serif" font-size="10.00">amr&#45;wind/wind_energy</text>
<text text-anchor="middle" x="1083" y="-376.5" font-family="Helvetica,sans-Serif" font-size="10.00">/actuator/actuator_opsI.H</text>
</a>
</g>
</g>
<!-- Node24&#45;&gt;Node28 -->
<g id="edge38" class="edge">
<title>Node24&#45;&gt;Node28</title>
<path fill="none" stroke="midnightblue" d="M709.58,-440.42C788.8,-428.76 918.97,-409.62 1002.81,-397.29"/>
<polygon fill="midnightblue" stroke="midnightblue" points="1003.42,-400.74 1012.8,-395.82 1002.4,-393.82 1003.42,-400.74"/>
</g>
<!-- Node26 -->
<g id="node25" class="node">
<title>Node26</title>
<g id="a_node25"><a xlink:href="_multi_parser_8_h.html" target="_top" xlink:title=" ">
<polygon fill="white" stroke="black" points="563.5,-308 563.5,-327 718.5,-327 718.5,-308 563.5,-308"/>
<text text-anchor="middle" x="641" y="-315" font-family="Helvetica,sans-Serif" font-size="10.00">amr&#45;wind/core/MultiParser.H</text>
</a>
</g>
</g>
<!-- Node25&#45;&gt;Node26 -->
<g id="edge34" class="edge">
<title>Node25&#45;&gt;Node26</title>
<path fill="none" stroke="midnightblue" d="M641,-369.4C641,-360.06 641,-347.71 641,-337.52"/>
<polygon fill="midnightblue" stroke="midnightblue" points="644.5,-337.19 641,-327.19 637.5,-337.19 644.5,-337.19"/>
</g>
<!-- Node26&#45;&gt;Node10 -->
<g id="edge35" class="edge">
<title>Node26&#45;&gt;Node10</title>
<path fill="none" stroke="midnightblue" d="M628.19,-307.73C614.61,-298.44 592.71,-283.46 574.93,-271.3"/>
<polygon fill="midnightblue" stroke="midnightblue" points="576.82,-268.35 566.59,-265.59 572.87,-274.12 576.82,-268.35"/>
</g>
<!-- Node27 -->
<g id="node26" class="node">
<title>Node27</title>
<g id="a_node26"><a xlink:title=" ">
<polygon fill="white" stroke="#bfbfbf" points="631.5,-241 631.5,-260 750.5,-260 750.5,-241 631.5,-241"/>
<text text-anchor="middle" x="691" y="-248" font-family="Helvetica,sans-Serif" font-size="10.00">AMReX_ParmParse.H</text>
</a>
</g>
</g>
<!-- Node26&#45;&gt;Node27 -->
<g id="edge36" class="edge">
<title>Node26&#45;&gt;Node27</title>
<path fill="none" stroke="midnightblue" d="M647.74,-307.73C655.54,-297.6 668.55,-280.69 678.26,-268.06"/>
<polygon fill="midnightblue" stroke="midnightblue" points="681.04,-270.19 684.36,-260.13 675.49,-265.92 681.04,-270.19"/>
</g>
<!-- Node29 -->
<g id="node28" class="node">
<title>Node29</title>
<g id="a_node28"><a xlink:href="actuator__utils_8_h.html" target="_top" xlink:title=" ">
<polygon fill="white" stroke="black" points="737,-302.5 737,-332.5 877,-332.5 877,-302.5 737,-302.5"/>
<text text-anchor="start" x="745" y="-320.5" font-family="Helvetica,sans-Serif" font-size="10.00">amr&#45;wind/wind_energy</text>
<text text-anchor="middle" x="807" y="-309.5" font-family="Helvetica,sans-Serif" font-size="10.00">/actuator/actuator_utils.H</text>
</a>
</g>
</g>
<!-- Node28&#45;&gt;Node29 -->
<g id="edge39" class="edge">
<title>Node28&#45;&gt;Node29</title>
<path fill="none" stroke="midnightblue" d="M1023.45,-369.48C980.34,-359.32 921.94,-345.57 876.66,-334.91"/>
<polygon fill="midnightblue" stroke="midnightblue" points="877.45,-331.5 866.92,-332.61 875.85,-338.31 877.45,-331.5"/>
</g>
<!-- Node31 -->
<g id="node30" class="node">
<title>Node31</title>
<g id="a_node30"><a xlink:href="_c_f_d_sim_8_h.html" target="_top" xlink:title=" ">
<polygon fill="white" stroke="black" points="1105,-308 1105,-327 1221,-327 1221,-308 1105,-308"/>
<text text-anchor="middle" x="1163" y="-315" font-family="Helvetica,sans-Serif" font-size="10.00">amr&#45;wind/CFDSim.H</text>
</a>
</g>
</g>
<!-- Node28&#45;&gt;Node31 -->
<g id="edge44" class="edge">
<title>Node28&#45;&gt;Node31</title>
<path fill="none" stroke="midnightblue" d="M1100.36,-369.4C1113.33,-358.86 1131.03,-344.48 1144.31,-333.69"/>
<polygon fill="midnightblue" stroke="midnightblue" points="1146.74,-336.22 1152.3,-327.19 1142.33,-330.78 1146.74,-336.22"/>
</g>
<!-- Node35 -->
<g id="node33" class="node">
<title>Node35</title>
<g id="a_node33"><a xlink:title=" ">
<polygon fill="white" stroke="#bfbfbf" points="1534,-112.5 1534,-131.5 1598,-131.5 1598,-112.5 1534,-112.5"/>
<text text-anchor="middle" x="1566" y="-119.5" font-family="Helvetica,sans-Serif" font-size="10.00">algorithm</text>
</a>
</g>
</g>
<!-- Node28&#45;&gt;Node35 -->
<g id="edge64" class="edge">
<title>Node28&#45;&gt;Node35</title>
<path fill="none" stroke="midnightblue" d="M1153.2,-378.95C1346.77,-365.7 1877.22,-324.33 1928,-266 1956.6,-233.15 1956.84,-200.64 1928,-168 1907.1,-144.34 1699.22,-130.24 1608.26,-125.16"/>
<polygon fill="midnightblue" stroke="midnightblue" points="1608.2,-121.65 1598.02,-124.6 1607.81,-128.64 1608.2,-121.65"/>
</g>
<!-- Node29&#45;&gt;Node10 -->
<g id="edge40" class="edge">
<title>Node29&#45;&gt;Node10</title>
<path fill="none" stroke="midnightblue" d="M750.69,-302.48C710.09,-292.37 655.15,-278.68 612.41,-268.04"/>
<polygon fill="midnightblue" stroke="midnightblue" points="613.21,-264.63 602.66,-265.61 611.52,-271.42 613.21,-264.63"/>
</g>
<!-- Node29&#45;&gt;Node17 -->
<g id="edge42" class="edge">
<title>Node29&#45;&gt;Node17</title>
<path fill="none" stroke="midnightblue" d="M816.3,-302.49C836.85,-269.87 883.44,-186 872,-112 867.38,-82.11 855.49,-48.94 847.58,-29.04"/>
<polygon fill="midnightblue" stroke="midnightblue" points="850.78,-27.63 843.76,-19.7 844.3,-30.28 850.78,-27.63"/>
</g>
<!-- Node29&#45;&gt;Node22 -->
<g id="edge43" class="edge">
<title>Node29&#45;&gt;Node22</title>
<path fill="none" stroke="midnightblue" d="M802.23,-302.4C799,-292.86 794.71,-280.18 791.21,-269.86"/>
<polygon fill="midnightblue" stroke="midnightblue" points="794.46,-268.54 787.94,-260.19 787.83,-270.79 794.46,-268.54"/>
</g>
<!-- Node30 -->
<g id="node29" class="node">
<title>Node30</title>
<g id="a_node29"><a xlink:title=" ">
<polygon fill="white" stroke="#bfbfbf" points="933,-174 933,-193 1043,-193 1043,-174 933,-174"/>
<text text-anchor="middle" x="988" y="-181" font-family="Helvetica,sans-Serif" font-size="10.00">AMReX_AmrCore.H</text>
</a>
</g>
</g>
<!-- Node29&#45;&gt;Node30 -->
<g id="edge41" class="edge">
<title>Node29&#45;&gt;Node30</title>
<path fill="none" stroke="midnightblue" d="M826.37,-302.37C860.86,-277.22 932.59,-224.91 967.72,-199.29"/>
<polygon fill="midnightblue" stroke="midnightblue" points="970.19,-201.82 976.21,-193.1 966.07,-196.16 970.19,-201.82"/>
</g>
<!-- Node31&#45;&gt;Node30 -->
<g id="edge45" class="edge">
<title>Node31&#45;&gt;Node30</title>
<path fill="none" stroke="midnightblue" d="M1104.91,-309.74C1052.27,-302.28 980.36,-288.28 963,-266 948.13,-246.91 962.45,-218.96 974.74,-201.25"/>
<polygon fill="midnightblue" stroke="midnightblue" points="977.69,-203.15 980.82,-193.03 972.06,-198.99 977.69,-203.15"/>
</g>
<!-- Node32 -->
<g id="node31" class="node">
<title>Node32</title>
<g id="a_node31"><a xlink:href="_sim_time_8_h.html" target="_top" xlink:title=" ">
<polygon fill="white" stroke="red" points="1061,-174 1061,-193 1205,-193 1205,-174 1061,-174"/>
<text text-anchor="middle" x="1133" y="-181" font-family="Helvetica,sans-Serif" font-size="10.00">amr&#45;wind/core/SimTime.H</text>
</a>
</g>
</g>
<!-- Node31&#45;&gt;Node32 -->
<g id="edge46" class="edge">
<title>Node31&#45;&gt;Node32</title>
<path fill="none" stroke="midnightblue" d="M1221.09,-315.82C1308.9,-312.78 1459.86,-298.5 1407,-235 1382.96,-206.12 1287.19,-193.7 1215.6,-188.39"/>
<polygon fill="midnightblue" stroke="midnightblue" points="1215.44,-184.87 1205.22,-187.66 1214.95,-191.85 1215.44,-184.87"/>
</g>
<!-- Node36 -->
<g id="node34" class="node">
<title>Node36</title>
<g id="a_node34"><a xlink:href="_field_repo_8_h.html" target="_top" xlink:title=" ">
<polygon fill="white" stroke="red" points="1453.5,-241 1453.5,-260 1602.5,-260 1602.5,-241 1453.5,-241"/>
<text text-anchor="middle" x="1528" y="-248" font-family="Helvetica,sans-Serif" font-size="10.00">amr&#45;wind/core/FieldRepo.H</text>
</a>
</g>
</g>
<!-- Node31&#45;&gt;Node36 -->
<g id="edge52" class="edge">
<title>Node31&#45;&gt;Node36</title>
<path fill="none" stroke="midnightblue" d="M1211.09,-307.94C1277.79,-296.06 1398.24,-274.61 1469.89,-261.85"/>
<polygon fill="midnightblue" stroke="midnightblue" points="1470.86,-265.23 1480.09,-260.03 1469.63,-258.34 1470.86,-265.23"/>
</g>
<!-- Node53 -->
<g id="node37" class="node">
<title>Node53</title>
<g id="a_node37"><a xlink:href="_p_d_e_base_8_h.html" target="_top" xlink:title=" ">
<polygon fill="white" stroke="red" points="1620.5,-235.5 1620.5,-265.5 1775.5,-265.5 1775.5,-235.5 1620.5,-235.5"/>
<text text-anchor="start" x="1628.5" y="-253.5" font-family="Helvetica,sans-Serif" font-size="10.00">amr&#45;wind/equation_systems</text>
<text text-anchor="middle" x="1698" y="-242.5" font-family="Helvetica,sans-Serif" font-size="10.00">/PDEBase.H</text>
</a>
</g>
</g>
<!-- Node31&#45;&gt;Node53 -->
<g id="edge56" class="edge">
<title>Node31&#45;&gt;Node53</title>
<path fill="none" stroke="midnightblue" d="M1221.25,-310.98C1305.07,-302.81 1464.79,-286.39 1610.21,-266.21"/>
<polygon fill="midnightblue" stroke="midnightblue" points="1610.79,-269.66 1620.21,-264.81 1609.83,-262.73 1610.79,-269.66"/>
</g>
<!-- Node61 -->
<g id="node38" class="node">
<title>Node61</title>
<g id="a_node38"><a xlink:href="_physics_8_h.html" target="_top" xlink:title=" ">
<polygon fill="white" stroke="red" points="1094.5,-241 1094.5,-260 1231.5,-260 1231.5,-241 1094.5,-241"/>
<text text-anchor="middle" x="1163" y="-248" font-family="Helvetica,sans-Serif" font-size="10.00">amr&#45;wind/core/Physics.H</text>
</a>
</g>
</g>
<!-- Node31&#45;&gt;Node61 -->
<g id="edge58" class="edge">
<title>Node31&#45;&gt;Node61</title>
<path fill="none" stroke="midnightblue" d="M1163,-307.73C1163,-298.18 1163,-282.62 1163,-270.28"/>
<polygon fill="midnightblue" stroke="midnightblue" points="1166.5,-270.13 1163,-260.13 1159.5,-270.13 1166.5,-270.13"/>
</g>
<!-- Node63 -->
<g id="node39" class="node">
<title>Node63</title>
<g id="a_node39"><a xlink:href="_mesh_map_8_h.html" target="_top" xlink:title=" ">
<polygon fill="white" stroke="red" points="1250,-241 1250,-260 1398,-260 1398,-241 1250,-241"/>
<text text-anchor="middle" x="1324" y="-248" font-family="Helvetica,sans-Serif" font-size="10.00">amr&#45;wind/core/MeshMap.H</text>
</a>
</g>
</g>
<!-- Node31&#45;&gt;Node63 -->
<g id="edge59" class="edge">
<title>Node31&#45;&gt;Node63</title>
<path fill="none" stroke="midnightblue" d="M1184.38,-307.87C1212.36,-296.57 1261.59,-276.7 1293.49,-263.82"/>
<polygon fill="midnightblue" stroke="midnightblue" points="1294.83,-267.05 1302.79,-260.06 1292.21,-260.56 1294.83,-267.05"/>
</g>
<!-- Node64 -->
<g id="node40" class="node">
<title>Node64</title>
<g id="a_node40"><a xlink:href="helics_8_h.html" target="_top" xlink:title=" ">
<polygon fill="white" stroke="black" points="971.5,-241 971.5,-260 1076.5,-260 1076.5,-241 971.5,-241"/>
<text text-anchor="middle" x="1024" y="-248" font-family="Helvetica,sans-Serif" font-size="10.00">amr&#45;wind/helics.H</text>
</a>
</g>
</g>
<!-- Node31&#45;&gt;Node64 -->
<g id="edge60" class="edge">
<title>Node31&#45;&gt;Node64</title>
<path fill="none" stroke="midnightblue" d="M1139.78,-307.87C1113.86,-296.84 1072.55,-277.66 1046.81,-264.77"/>
<polygon fill="midnightblue" stroke="midnightblue" points="1048.27,-261.58 1037.77,-260.17 1045.09,-267.82 1048.27,-261.58"/>
</g>
<!-- Node32&#45;&gt;Node8 -->
<g id="edge49" class="edge">
<title>Node32&#45;&gt;Node8</title>
<path fill="none" stroke="midnightblue" d="M1111.37,-173.98C1085.58,-163.81 1042.29,-146.76 1012.96,-135.2"/>
<polygon fill="midnightblue" stroke="midnightblue" points="1014.18,-131.92 1003.59,-131.51 1011.62,-138.43 1014.18,-131.92"/>
</g>
<!-- Node32&#45;&gt;Node14 -->
<g id="edge47" class="edge">
<title>Node32&#45;&gt;Node14</title>
<path fill="none" stroke="midnightblue" d="M1129.26,-173.88C1120.34,-153.39 1097.08,-100.17 1077,-56 1072.89,-46.96 1068.23,-36.95 1064.34,-28.66"/>
<polygon fill="midnightblue" stroke="midnightblue" points="1067.5,-27.16 1060.08,-19.6 1061.17,-30.14 1067.5,-27.16"/>
</g>
<!-- Node32&#45;&gt;Node17 -->
<g id="edge51" class="edge">
<title>Node32&#45;&gt;Node17</title>
<path fill="none" stroke="midnightblue" d="M1122.84,-173.82C1106.2,-159.83 1071.79,-131.85 1040,-112 981.9,-75.73 909.11,-41.57 869.32,-23.78"/>
<polygon fill="midnightblue" stroke="midnightblue" points="870.5,-20.48 859.94,-19.62 867.66,-26.87 870.5,-20.48"/>
</g>
<!-- Node34 -->
<g id="node32" class="node">
<title>Node34</title>
<g id="a_node32"><a xlink:title=" ">
<polygon fill="white" stroke="#bfbfbf" points="747,-112.5 747,-131.5 863,-131.5 863,-112.5 747,-112.5"/>
<text text-anchor="middle" x="805" y="-119.5" font-family="Helvetica,sans-Serif" font-size="10.00">AMReX_Extension.H</text>
</a>
</g>
</g>
<!-- Node32&#45;&gt;Node34 -->
<g id="edge48" class="edge">
<title>Node32&#45;&gt;Node34</title>
<path fill="none" stroke="midnightblue" d="M1086.01,-173.98C1026.82,-163.24 925.21,-144.81 861.75,-133.29"/>
<polygon fill="midnightblue" stroke="midnightblue" points="862.37,-129.85 851.91,-131.51 861.12,-136.74 862.37,-129.85"/>
</g>
<!-- Node32&#45;&gt;Node35 -->
<g id="edge50" class="edge">
<title>Node32&#45;&gt;Node35</title>
<path fill="none" stroke="midnightblue" d="M1195.04,-173.98C1284.37,-161.7 1446.93,-139.36 1523.69,-128.81"/>
<polygon fill="midnightblue" stroke="midnightblue" points="1524.51,-132.23 1533.94,-127.41 1523.56,-125.3 1524.51,-132.23"/>
</g>
<!-- Node36&#45;&gt;Node30 -->
<g id="edge55" class="edge">
<title>Node36&#45;&gt;Node30</title>
<path fill="none" stroke="midnightblue" d="M1458.6,-240.96C1441.72,-238.95 1423.72,-236.85 1407,-235 1249.37,-217.56 1208.51,-224.57 1052,-199 1045.58,-197.95 1038.84,-196.65 1032.24,-195.26"/>
<polygon fill="midnightblue" stroke="midnightblue" points="1032.58,-191.75 1022.06,-193.02 1031.08,-198.59 1032.58,-191.75"/>
</g>
<!-- Node37 -->
<g id="node35" class="node">
<title>Node37</title>
<g id="a_node35"><a xlink:title=" ">
<polygon fill="white" stroke="#bfbfbf" points="1640,-174 1640,-193 1684,-193 1684,-174 1640,-174"/>
<text text-anchor="middle" x="1662" y="-181" font-family="Helvetica,sans-Serif" font-size="10.00">string</text>
</a>
</g>
</g>
<!-- Node36&#45;&gt;Node37 -->
<g id="edge53" class="edge">
<title>Node36&#45;&gt;Node37</title>
<path fill="none" stroke="midnightblue" d="M1545.79,-240.87C1568.62,-229.8 1608.43,-210.49 1635,-197.6"/>
<polygon fill="midnightblue" stroke="midnightblue" points="1636.66,-200.68 1644.13,-193.17 1633.61,-194.38 1636.66,-200.68"/>
</g>
<!-- Node38 -->
<g id="node36" class="node">
<title>Node38</title>
<g id="a_node36"><a xlink:title=" ">
<polygon fill="white" stroke="#bfbfbf" points="1505.5,-174 1505.5,-193 1598.5,-193 1598.5,-174 1505.5,-174"/>
<text text-anchor="middle" x="1552" y="-181" font-family="Helvetica,sans-Serif" font-size="10.00">unordered_map</text>
</a>
</g>
</g>
<!-- Node36&#45;&gt;Node38 -->
<g id="edge54" class="edge">
<title>Node36&#45;&gt;Node38</title>
<path fill="none" stroke="midnightblue" d="M1531.24,-240.73C1534.84,-230.99 1540.75,-214.98 1545.34,-202.53"/>
<polygon fill="midnightblue" stroke="midnightblue" points="1548.63,-203.72 1548.81,-193.13 1542.07,-201.3 1548.63,-203.72"/>
</g>
<!-- Node53&#45;&gt;Node37 -->
<g id="edge57" class="edge">
<title>Node53&#45;&gt;Node37</title>
<path fill="none" stroke="midnightblue" d="M1690.19,-235.4C1684.8,-225.66 1677.59,-212.65 1671.81,-202.21"/>
<polygon fill="midnightblue" stroke="midnightblue" points="1674.72,-200.25 1666.82,-193.19 1668.6,-203.64 1674.72,-200.25"/>
</g>
<!-- Node64&#45;&gt;Node30 -->
<g id="edge61" class="edge">
<title>Node64&#45;&gt;Node30</title>
<path fill="none" stroke="midnightblue" d="M1019.14,-240.73C1013.69,-230.89 1004.7,-214.66 997.78,-202.16"/>
<polygon fill="midnightblue" stroke="midnightblue" points="1000.69,-200.18 992.78,-193.13 994.56,-203.57 1000.69,-200.18"/>
</g>
<!-- Node64&#45;&gt;Node31 -->
<g id="edge63" class="edge">
<title>Node64&#45;&gt;Node31</title>
<path fill="none" stroke="midnightblue" d="M1047.3,-260.17C1073.26,-271.21 1114.56,-290.4 1140.28,-303.27"/>
<polygon fill="midnightblue" stroke="midnightblue" points="1138.8,-306.45 1149.3,-307.87 1141.98,-300.21 1138.8,-306.45"/>
</g>
<!-- Node64&#45;&gt;Node32 -->
<g id="edge62" class="edge">
<title>Node64&#45;&gt;Node32</title>
<path fill="none" stroke="midnightblue" d="M1038.7,-240.73C1056.92,-229.87 1088.2,-211.22 1109.7,-198.39"/>
<polygon fill="midnightblue" stroke="midnightblue" points="1111.74,-201.26 1118.53,-193.13 1108.15,-195.24 1111.74,-201.26"/>
</g>
<!-- Node65&#45;&gt;Node9 -->
<g id="edge66" class="edge">
<title>Node65&#45;&gt;Node9</title>
<path fill="none" stroke="midnightblue" d="M42.22,-436.19C27.16,-412.71 0,-364.07 0,-318.5 0,-318.5 0,-318.5 0,-182.5 0,-93.91 128.27,-72.83 203.93,-68.1"/>
<polygon fill="midnightblue" stroke="midnightblue" points="204.44,-71.58 214.23,-67.53 204.06,-64.59 204.44,-71.58"/>
</g>
<!-- Node66&#45;&gt;Node9 -->
<g id="edge68" class="edge">
<title>Node66&#45;&gt;Node9</title>
<path fill="none" stroke="midnightblue" d="M111.48,-168.34C143.48,-146.2 205.02,-103.64 237.21,-81.38"/>
<polygon fill="midnightblue" stroke="midnightblue" points="239.23,-84.24 245.46,-75.67 235.25,-78.48 239.23,-84.24"/>
</g>
<!-- Node66&#45;&gt;Node34 -->
<g id="edge69" class="edge">
<title>Node66&#45;&gt;Node34</title>
<path fill="none" stroke="midnightblue" d="M153.74,-169.34C156.87,-168.85 159.97,-168.4 163,-168 413.96,-135.04 481.97,-156.76 736.43,-132.19"/>
<polygon fill="midnightblue" stroke="midnightblue" points="737.11,-135.64 746.72,-131.18 736.43,-128.67 737.11,-135.64"/>
</g>
<!-- Node67&#45;&gt;Node37 -->
<g id="edge71" class="edge">
<title>Node67&#45;&gt;Node37</title>
<path fill="none" stroke="midnightblue" d="M1805.47,-235.49C1773.23,-226.13 1730.75,-212.99 1694,-199 1692.39,-198.39 1690.75,-197.74 1689.1,-197.06"/>
<polygon fill="midnightblue" stroke="midnightblue" points="1690.34,-193.78 1679.78,-193.02 1687.56,-200.21 1690.34,-193.78"/>
</g>
<!-- Node67&#45;&gt;Node38 -->
<g id="edge72" class="edge">
<title>Node67&#45;&gt;Node38</title>
<path fill="none" stroke="midnightblue" d="M1793.38,-236.11C1736.67,-223.99 1654.23,-206.36 1601.87,-195.16"/>
<polygon fill="midnightblue" stroke="midnightblue" points="1602.32,-191.68 1591.81,-193.01 1600.86,-198.53 1602.32,-191.68"/>
</g>
<!-- Node68 -->
<g id="node44" class="node">
<title>Node68</title>
<g id="a_node44"><a xlink:title=" ">
<polygon fill="white" stroke="#bfbfbf" points="1797.5,-174 1797.5,-193 1844.5,-193 1844.5,-174 1797.5,-174"/>
<text text-anchor="middle" x="1821" y="-181" font-family="Helvetica,sans-Serif" font-size="10.00">vector</text>
</a>
</g>
</g>
<!-- Node67&#45;&gt;Node68 -->
<g id="edge73" class="edge">
<title>Node67&#45;&gt;Node68</title>
<path fill="none" stroke="midnightblue" d="M1848.41,-235.4C1843.16,-225.66 1836.16,-212.65 1830.54,-202.21"/>
<polygon fill="midnightblue" stroke="midnightblue" points="1833.5,-200.34 1825.68,-193.19 1827.34,-203.66 1833.5,-200.34"/>
</g>
<!-- Node69 -->
<g id="node45" class="node">
<title>Node69</title>
<g id="a_node45"><a xlink:title=" ">
<polygon fill="white" stroke="#bfbfbf" points="1863,-174 1863,-193 1919,-193 1919,-174 1863,-174"/>
<text text-anchor="middle" x="1891" y="-181" font-family="Helvetica,sans-Serif" font-size="10.00">netcdf.h</text>
</a>
</g>
</g>
<!-- Node67&#45;&gt;Node69 -->
<g id="edge74" class="edge">
<title>Node67&#45;&gt;Node69</title>
<path fill="none" stroke="midnightblue" d="M1863.59,-235.4C1868.84,-225.66 1875.84,-212.65 1881.46,-202.21"/>
<polygon fill="midnightblue" stroke="midnightblue" points="1884.66,-203.66 1886.32,-193.19 1878.5,-200.34 1884.66,-203.66"/>
</g>
<!-- Node70 -->
<g id="node46" class="node">
<title>Node70</title>
<g id="a_node46"><a xlink:title=" ">
<polygon fill="white" stroke="#bfbfbf" points="1702.5,-174 1702.5,-193 1779.5,-193 1779.5,-174 1702.5,-174"/>
<text text-anchor="middle" x="1741" y="-181" font-family="Helvetica,sans-Serif" font-size="10.00">netcdf_par.h</text>
</a>
</g>
</g>
<!-- Node67&#45;&gt;Node70 -->
<g id="edge75" class="edge">
<title>Node67&#45;&gt;Node70</title>
<path fill="none" stroke="midnightblue" d="M1831.05,-235.4C1811.4,-224.29 1784.21,-208.92 1764.85,-197.98"/>
<polygon fill="midnightblue" stroke="midnightblue" points="1766.48,-194.88 1756.05,-193.01 1763.03,-200.97 1766.48,-194.88"/>
</g>
<!-- Node71&#45;&gt;Node8 -->
<g id="edge81" class="edge">
<title>Node71&#45;&gt;Node8</title>
<path fill="none" stroke="midnightblue" d="M2021.28,-235.37C2002.89,-216.07 1966.79,-182.23 1928,-168 1845.11,-137.6 1235.41,-126.54 1041.23,-123.76"/>
<polygon fill="midnightblue" stroke="midnightblue" points="1041.26,-120.26 1031.21,-123.62 1041.16,-127.26 1041.26,-120.26"/>
</g>
<!-- Node71&#45;&gt;Node37 -->
<g id="edge79" class="edge">
<title>Node71&#45;&gt;Node37</title>
<path fill="none" stroke="midnightblue" d="M1982.38,-242.22C1890.68,-229.22 1707.68,-203.03 1694,-199 1692.07,-198.43 1690.1,-197.77 1688.15,-197.04"/>
<polygon fill="midnightblue" stroke="midnightblue" points="1689.18,-193.68 1678.6,-193.08 1686.49,-200.15 1689.18,-193.68"/>
</g>
<!-- Node72 -->
<g id="node48" class="node">
<title>Node72</title>
<g id="a_node48"><a xlink:title=" ">
<polygon fill="white" stroke="#bfbfbf" points="2013,-174 2013,-193 2063,-193 2063,-174 2013,-174"/>
<text text-anchor="middle" x="2038" y="-181" font-family="Helvetica,sans-Serif" font-size="10.00">chrono</text>
</a>
</g>
</g>
<!-- Node71&#45;&gt;Node72 -->
<g id="edge77" class="edge">
<title>Node71&#45;&gt;Node72</title>
<path fill="none" stroke="midnightblue" d="M2034.87,-235.4C2035.45,-225.96 2036.22,-213.45 2036.85,-203.19"/>
<polygon fill="midnightblue" stroke="midnightblue" points="2040.34,-203.39 2037.46,-193.19 2033.36,-202.96 2040.34,-203.39"/>
</g>
<!-- Node73 -->
<g id="node49" class="node">
<title>Node73</title>
<g id="a_node49"><a xlink:title=" ">
<polygon fill="white" stroke="#bfbfbf" points="2081,-174 2081,-193 2125,-193 2125,-174 2081,-174"/>
<text text-anchor="middle" x="2103" y="-181" font-family="Helvetica,sans-Serif" font-size="10.00">ctime</text>
</a>
</g>
</g>
<!-- Node71&#45;&gt;Node73 -->
<g id="edge78" class="edge">
<title>Node71&#45;&gt;Node73</title>
<path fill="none" stroke="midnightblue" d="M2048.97,-235.4C2059.94,-225.06 2074.84,-211.02 2086.22,-200.31"/>
<polygon fill="midnightblue" stroke="midnightblue" points="2088.89,-202.6 2093.77,-193.19 2084.09,-197.5 2088.89,-202.6"/>
</g>
<!-- Node74 -->
<g id="node50" class="node">
<title>Node74</title>
<g id="a_node50"><a xlink:title=" ">
<polygon fill="white" stroke="#bfbfbf" points="2143,-174 2143,-193 2199,-193 2199,-174 2143,-174"/>
<text text-anchor="middle" x="2171" y="-181" font-family="Helvetica,sans-Serif" font-size="10.00">sstream</text>
</a>
</g>
</g>
<!-- Node71&#45;&gt;Node74 -->
<g id="edge80" class="edge">
<title>Node71&#45;&gt;Node74</title>
<path fill="none" stroke="midnightblue" d="M2063.73,-235.4C2087.55,-224.09 2120.71,-208.36 2143.83,-197.39"/>
<polygon fill="midnightblue" stroke="midnightblue" points="2145.54,-200.46 2153.07,-193.01 2142.53,-194.13 2145.54,-200.46"/>
</g>
</g>
</svg>
