<?xml version="1.0" encoding="UTF-8" standalone="no"?>
<!DOCTYPE svg PUBLIC "-//W3C//DTD SVG 1.1//EN"
 "http://www.w3.org/Graphics/SVG/1.1/DTD/svg11.dtd">
<!-- Generated by graphviz version 2.43.0 (0)
 -->
<!-- Title: field_ops.H Pages: 1 -->
<!--zoomable 263 -->
<svg id="main" version="1.1" xmlns="http://www.w3.org/2000/svg" xmlns:xlink="http://www.w3.org/1999/xlink" xml:space="preserve" onload="init(evt)">
<style type="text/css"><![CDATA[
.edge:hover path { stroke: red; }
.edge:hover polygon { stroke: red; fill: red; }
]]></style>
<script type="text/javascript"><![CDATA[
var edges = document.getElementsByTagName('g');
if (edges && edges.length) {
  for (var i=0;i<edges.length;i++) {
    if (edges[i].id.substr(0,4)=='edge') {
      edges[i].setAttribute('class','edge');
    }
  }
}
]]></script>
        <defs>
                <circle id="rim" cx="0" cy="0" r="7"/>
                <circle id="rim2" cx="0" cy="0" r="3.5"/>
                <g id="zoomPlus">
                        <use xlink:href="#rim" fill="#404040">
                                <set attributeName="fill" to="#808080" begin="zoomplus.mouseover" end="zoomplus.mouseout"/>
                        </use>
                        <path d="M-4,0h8M0,-4v8" fill="none" stroke="white" stroke-width="1.5" pointer-events="none"/>
                </g>
                <g id="zoomMin">
                        <use xlink:href="#rim" fill="#404040">
                                <set attributeName="fill" to="#808080" begin="zoomminus.mouseover" end="zoomminus.mouseout"/>
                        </use>
                        <path d="M-4,0h8" fill="none" stroke="white" stroke-width="1.5" pointer-events="none"/>
                </g>
                <g id="dirArrow">
                        <path fill="none" stroke="white" stroke-width="1.5" d="M0,-3.0v7 M-2.5,-0.5L0,-3.0L2.5,-0.5"/>
                </g>
               <g id="resetDef">
                       <use xlink:href="#rim2" fill="#404040">
                               <set attributeName="fill" to="#808080" begin="reset.mouseover" end="reset.mouseout"/>
                       </use>
               </g>
        </defs>

<script type="text/javascript">
var viewWidth = 2664;
var viewHeight = 263;
var sectionId = 'dynsection-1';
</script>
<script xlink:href="svgpan.js"/>
<svg id="graph" class="graph">
<g id="viewport">
<title>field_ops.H</title>
<polygon fill="white" stroke="transparent" points="-4,4 -4,-259 2660,-259 2660,4 -4,4"/>
<!-- Node1 -->
<g id="node1" class="node">
<title>Node1</title>
<g id="a_node1"><a xlink:title=" ">
<polygon fill="#bfbfbf" stroke="black" points="1446,-235.5 1446,-254.5 1517,-254.5 1517,-235.5 1446,-235.5"/>
<text text-anchor="middle" x="1481.5" y="-242.5" font-family="Helvetica,sans-Serif" font-size="10.00">field_ops.H</text>
</a>
</g>
</g>
<!-- Node2 -->
<g id="node2" class="node">
<title>Node2</title>
<g id="a_node2"><a xlink:href="_s_d_r_8_h.html" target="_top" xlink:title=" ">
<polygon fill="white" stroke="black" points="127,-112.5 127,-131.5 174,-131.5 174,-112.5 127,-112.5"/>
<text text-anchor="middle" x="150.5" y="-119.5" font-family="Helvetica,sans-Serif" font-size="10.00">SDR.H</text>
</a>
</g>
</g>
<!-- Node1&#45;&gt;Node2 -->
<g id="edge1" class="edge">
<title>Node1&#45;&gt;Node2</title>
<path fill="none" stroke="midnightblue" d="M1435.72,-242.88C1312.25,-239.55 962.18,-228.09 672.5,-199 479.09,-179.58 247.57,-140.12 174.08,-127.2"/>
<polygon fill="midnightblue" stroke="midnightblue" points="1435.84,-246.39 1445.93,-243.15 1436.02,-239.39 1435.84,-246.39"/>
</g>
<!-- Node4 -->
<g id="node4" class="node">
<title>Node4</title>
<g id="a_node4"><a xlink:href="sdr__ops_8_h.html" target="_top" xlink:title=" ">
<polygon fill="white" stroke="black" points="0,-56.5 0,-75.5 65,-75.5 65,-56.5 0,-56.5"/>
<text text-anchor="middle" x="32.5" y="-63.5" font-family="Helvetica,sans-Serif" font-size="10.00">sdr_ops.H</text>
</a>
</g>
</g>
<!-- Node1&#45;&gt;Node4 -->
<g id="edge10" class="edge">
<title>Node1&#45;&gt;Node4</title>
<path fill="none" stroke="midnightblue" d="M1435.73,-243.1C1259.59,-239.45 625.36,-224.8 425.5,-199 286.56,-181.06 244.63,-190.85 117.5,-132 86.14,-117.49 55.48,-89.75 41.06,-75.67"/>
<polygon fill="midnightblue" stroke="midnightblue" points="1435.88,-246.6 1445.95,-243.31 1436.02,-239.6 1435.88,-246.6"/>
</g>
<!-- Node8 -->
<g id="node8" class="node">
<title>Node8</title>
<g id="a_node8"><a xlink:href="_t_k_e_8_h.html" target="_top" xlink:title=" ">
<polygon fill="white" stroke="black" points="615.5,-112.5 615.5,-131.5 661.5,-131.5 661.5,-112.5 615.5,-112.5"/>
<text text-anchor="middle" x="638.5" y="-119.5" font-family="Helvetica,sans-Serif" font-size="10.00">TKE.H</text>
</a>
</g>
</g>
<!-- Node1&#45;&gt;Node8 -->
<g id="edge11" class="edge">
<title>Node1&#45;&gt;Node8</title>
<path fill="none" stroke="midnightblue" d="M1435.74,-243.14C1280.98,-240 783.17,-227.73 717.5,-199 683.67,-184.2 655.75,-148.19 644.2,-131.61"/>
<polygon fill="midnightblue" stroke="midnightblue" points="1435.79,-246.65 1445.85,-243.35 1435.93,-239.65 1435.79,-246.65"/>
</g>
<!-- Node10 -->
<g id="node10" class="node">
<title>Node10</title>
<g id="a_node10"><a xlink:href="tke__ops_8_h.html" target="_top" xlink:title=" ">
<polygon fill="white" stroke="black" points="690,-56.5 690,-75.5 755,-75.5 755,-56.5 690,-56.5"/>
<text text-anchor="middle" x="722.5" y="-63.5" font-family="Helvetica,sans-Serif" font-size="10.00">tke_ops.H</text>
</a>
</g>
</g>
<!-- Node1&#45;&gt;Node10 -->
<g id="edge20" class="edge">
<title>Node1&#45;&gt;Node10</title>
<path fill="none" stroke="midnightblue" d="M1435.59,-244.17C1284.88,-244.33 811.96,-241.41 759.5,-199 720.82,-167.73 720.64,-99.54 721.87,-75.55"/>
<polygon fill="midnightblue" stroke="midnightblue" points="1435.87,-247.67 1445.87,-244.16 1435.86,-240.67 1435.87,-247.67"/>
</g>
<!-- Node13 -->
<g id="node13" class="node">
<title>Node13</title>
<g id="a_node13"><a xlink:href="bluff__body__ops_8cpp.html" target="_top" xlink:title=" ">
<polygon fill="white" stroke="black" points="888.5,-174 888.5,-193 998.5,-193 998.5,-174 888.5,-174"/>
<text text-anchor="middle" x="943.5" y="-181" font-family="Helvetica,sans-Serif" font-size="10.00">bluff_body_ops.cpp</text>
</a>
</g>
</g>
<!-- Node1&#45;&gt;Node13 -->
<g id="edge21" class="edge">
<title>Node1&#45;&gt;Node13</title>
<path fill="none" stroke="midnightblue" d="M1435.86,-241.62C1351.06,-236.76 1163.62,-223.99 1007.5,-199 997.71,-197.43 987.19,-195.26 977.55,-193.07"/>
<polygon fill="midnightblue" stroke="midnightblue" points="1435.74,-245.12 1445.92,-242.18 1436.14,-238.13 1435.74,-245.12"/>
</g>
<!-- Node14 -->
<g id="node14" class="node">
<title>Node14</title>
<g id="a_node14"><a xlink:href="incflo__advance_8cpp.html" target="_top" xlink:title=" ">
<polygon fill="white" stroke="black" points="1016.5,-174 1016.5,-193 1126.5,-193 1126.5,-174 1016.5,-174"/>
<text text-anchor="middle" x="1071.5" y="-181" font-family="Helvetica,sans-Serif" font-size="10.00">incflo_advance.cpp</text>
</a>
</g>
</g>
<!-- Node1&#45;&gt;Node14 -->
<g id="edge22" class="edge">
<title>Node1&#45;&gt;Node14</title>
<path fill="none" stroke="midnightblue" d="M1435.84,-239.44C1369.45,-232.49 1242.49,-218.04 1135.5,-199 1126.08,-197.32 1115.95,-195.19 1106.59,-193.07"/>
<polygon fill="midnightblue" stroke="midnightblue" points="1435.66,-242.94 1445.97,-240.49 1436.38,-235.97 1435.66,-242.94"/>
</g>
<!-- Node15 -->
<g id="node15" class="node">
<title>Node15</title>
<g id="a_node15"><a xlink:href="hos__waves__ops_8_h.html" target="_top" xlink:title=" ">
<polygon fill="white" stroke="black" points="1144.5,-174 1144.5,-193 1248.5,-193 1248.5,-174 1144.5,-174"/>
<text text-anchor="middle" x="1196.5" y="-181" font-family="Helvetica,sans-Serif" font-size="10.00">hos_waves_ops.H</text>
</a>
</g>
</g>
<!-- Node1&#45;&gt;Node15 -->
<g id="edge23" class="edge">
<title>Node1&#45;&gt;Node15</title>
<path fill="none" stroke="midnightblue" d="M1435.84,-235.21C1390.7,-226.42 1319.72,-212.33 1258.5,-199 1249.97,-197.14 1240.8,-195.05 1232.19,-193.04"/>
<polygon fill="midnightblue" stroke="midnightblue" points="1435.41,-238.69 1445.9,-237.16 1436.75,-231.82 1435.41,-238.69"/>
</g>
<!-- Node17 -->
<g id="node17" class="node">
<title>Node17</title>
<g id="a_node17"><a xlink:href="relaxation__zones__ops_8cpp.html" target="_top" xlink:title=" ">
<polygon fill="white" stroke="black" points="1267,-174 1267,-193 1410,-193 1410,-174 1267,-174"/>
<text text-anchor="middle" x="1338.5" y="-181" font-family="Helvetica,sans-Serif" font-size="10.00">relaxation_zones_ops.cpp</text>
</a>
</g>
</g>
<!-- Node1&#45;&gt;Node17 -->
<g id="edge25" class="edge">
<title>Node1&#45;&gt;Node17</title>
<path fill="none" stroke="midnightblue" d="M1451.77,-231.63C1423.99,-220.07 1383.25,-203.12 1358.95,-193.01"/>
<polygon fill="midnightblue" stroke="midnightblue" points="1450.43,-234.86 1461.01,-235.48 1453.12,-228.4 1450.43,-234.86"/>
</g>
<!-- Node18 -->
<g id="node18" class="node">
<title>Node18</title>
<g id="a_node18"><a xlink:href="waves2amr__ops_8_h.html" target="_top" xlink:title=" ">
<polygon fill="white" stroke="black" points="1428,-174 1428,-193 1535,-193 1535,-174 1428,-174"/>
<text text-anchor="middle" x="1481.5" y="-181" font-family="Helvetica,sans-Serif" font-size="10.00">waves2amr_ops.H</text>
</a>
</g>
</g>
<!-- Node1&#45;&gt;Node18 -->
<g id="edge26" class="edge">
<title>Node1&#45;&gt;Node18</title>
<path fill="none" stroke="midnightblue" d="M1481.5,-225.32C1481.5,-214.5 1481.5,-201.4 1481.5,-193.01"/>
<polygon fill="midnightblue" stroke="midnightblue" points="1478,-225.48 1481.5,-235.48 1485,-225.48 1478,-225.48"/>
</g>
<!-- Node20 -->
<g id="node20" class="node">
<title>Node20</title>
<g id="a_node20"><a xlink:href="_tioga_interface_8cpp.html" target="_top" xlink:title=" ">
<polygon fill="white" stroke="black" points="1553,-174 1553,-193 1660,-193 1660,-174 1553,-174"/>
<text text-anchor="middle" x="1606.5" y="-181" font-family="Helvetica,sans-Serif" font-size="10.00">TiogaInterface.cpp</text>
</a>
</g>
</g>
<!-- Node1&#45;&gt;Node20 -->
<g id="edge28" class="edge">
<title>Node1&#45;&gt;Node20</title>
<path fill="none" stroke="midnightblue" d="M1508.44,-231.17C1532.7,-219.63 1567.66,-202.99 1588.62,-193.01"/>
<polygon fill="midnightblue" stroke="midnightblue" points="1506.93,-228.02 1499.41,-235.48 1509.94,-234.34 1506.93,-228.02"/>
</g>
<!-- Node21 -->
<g id="node21" class="node">
<title>Node21</title>
<g id="a_node21"><a xlink:href="_dam_break_8cpp.html" target="_top" xlink:title=" ">
<polygon fill="white" stroke="black" points="1678,-174 1678,-193 1767,-193 1767,-174 1678,-174"/>
<text text-anchor="middle" x="1722.5" y="-181" font-family="Helvetica,sans-Serif" font-size="10.00">DamBreak.cpp</text>
</a>
</g>
</g>
<!-- Node1&#45;&gt;Node21 -->
<g id="edge29" class="edge">
<title>Node1&#45;&gt;Node21</title>
<path fill="none" stroke="midnightblue" d="M1527.06,-233.53C1565.19,-224.66 1621.01,-211.43 1669.5,-199 1676.8,-197.13 1684.64,-195.03 1692,-193.03"/>
<polygon fill="midnightblue" stroke="midnightblue" points="1526.23,-230.13 1517.28,-235.8 1527.81,-236.95 1526.23,-230.13"/>
</g>
<!-- Node22 -->
<g id="node22" class="node">
<title>Node22</title>
<g id="a_node22"><a xlink:href="_multi_phase_8cpp.html" target="_top" xlink:title=" ">
<polygon fill="white" stroke="black" points="1785,-174 1785,-193 1876,-193 1876,-174 1785,-174"/>
<text text-anchor="middle" x="1830.5" y="-181" font-family="Helvetica,sans-Serif" font-size="10.00">MultiPhase.cpp</text>
</a>
</g>
</g>
<!-- Node1&#45;&gt;Node22 -->
<g id="edge30" class="edge">
<title>Node1&#45;&gt;Node22</title>
<path fill="none" stroke="midnightblue" d="M1527.13,-238.64C1585.34,-231.43 1688.97,-217.37 1776.5,-199 1784.48,-197.33 1793.04,-195.19 1800.93,-193.07"/>
<polygon fill="midnightblue" stroke="midnightblue" points="1526.65,-235.17 1517.15,-239.86 1527.5,-242.12 1526.65,-235.17"/>
</g>
<!-- Node23 -->
<g id="node23" class="node">
<title>Node23</title>
<g id="a_node23"><a xlink:href="_sloshing_tank_8cpp.html" target="_top" xlink:title=" ">
<polygon fill="white" stroke="black" points="1894,-174 1894,-193 1995,-193 1995,-174 1894,-174"/>
<text text-anchor="middle" x="1944.5" y="-181" font-family="Helvetica,sans-Serif" font-size="10.00">SloshingTank.cpp</text>
</a>
</g>
</g>
<!-- Node1&#45;&gt;Node23 -->
<g id="edge31" class="edge">
<title>Node1&#45;&gt;Node23</title>
<path fill="none" stroke="midnightblue" d="M1527.19,-240.86C1602.35,-235.25 1756.59,-221.92 1885.5,-199 1894.53,-197.39 1904.24,-195.2 1913.12,-193.01"/>
<polygon fill="midnightblue" stroke="midnightblue" points="1526.84,-237.37 1517.12,-241.6 1527.35,-244.35 1526.84,-237.37"/>
</g>
<!-- Node24 -->
<g id="node24" class="node">
<title>Node24</title>
<g id="a_node24"><a xlink:href="_zalesak_disk_8cpp.html" target="_top" xlink:title=" ">
<polygon fill="white" stroke="black" points="2013.5,-174 2013.5,-193 2111.5,-193 2111.5,-174 2013.5,-174"/>
<text text-anchor="middle" x="2062.5" y="-181" font-family="Helvetica,sans-Serif" font-size="10.00">ZalesakDisk.cpp</text>
</a>
</g>
</g>
<!-- Node1&#45;&gt;Node24 -->
<g id="edge32" class="edge">
<title>Node1&#45;&gt;Node24</title>
<path fill="none" stroke="midnightblue" d="M1527.27,-242.51C1618.59,-239 1829.66,-228.19 2004.5,-199 2013.61,-197.48 2023.4,-195.26 2032.29,-193.02"/>
<polygon fill="midnightblue" stroke="midnightblue" points="1527.12,-239.01 1517.26,-242.88 1527.38,-246.01 1527.12,-239.01"/>
</g>
<!-- Node25 -->
<g id="node25" class="node">
<title>Node25</title>
<g id="a_node25"><a xlink:href="_zalesak_disk_scalar_vel_8cpp.html" target="_top" xlink:title=" ">
<polygon fill="white" stroke="black" points="2130,-174 2130,-193 2273,-193 2273,-174 2130,-174"/>
<text text-anchor="middle" x="2201.5" y="-181" font-family="Helvetica,sans-Serif" font-size="10.00">ZalesakDiskScalarVel.cpp</text>
</a>
</g>
</g>
<!-- Node1&#45;&gt;Node25 -->
<g id="edge33" class="edge">
<title>Node1&#45;&gt;Node25</title>
<path fill="none" stroke="midnightblue" d="M1527.58,-242.44C1632.94,-238.52 1899.37,-226.5 2120.5,-199 2132.98,-197.45 2146.45,-195.25 2158.75,-193.03"/>
<polygon fill="midnightblue" stroke="midnightblue" points="1527.17,-238.96 1517.31,-242.82 1527.43,-245.95 1527.17,-238.96"/>
</g>
<!-- Node26 -->
<g id="node26" class="node">
<title>Node26</title>
<g id="a_node26"><a xlink:href="incflo__apply__nodal__projection_8cpp.html" target="_top" xlink:title=" ">
<polygon fill="white" stroke="black" points="2291,-168.5 2291,-198.5 2398,-198.5 2398,-168.5 2291,-168.5"/>
<text text-anchor="start" x="2299" y="-186.5" font-family="Helvetica,sans-Serif" font-size="10.00">incflo_apply_nodal</text>
<text text-anchor="middle" x="2344.5" y="-175.5" font-family="Helvetica,sans-Serif" font-size="10.00">_projection.cpp</text>
</a>
</g>
</g>
<!-- Node1&#45;&gt;Node26 -->
<g id="edge34" class="edge">
<title>Node1&#45;&gt;Node26</title>
<path fill="none" stroke="midnightblue" d="M1527.43,-244.2C1650.47,-244.13 1997.51,-240.01 2282.5,-199 2285.24,-198.61 2288.03,-198.15 2290.84,-197.65"/>
<polygon fill="midnightblue" stroke="midnightblue" points="1527.25,-240.7 1517.25,-244.2 1527.25,-247.7 1527.25,-240.7"/>
</g>
<!-- Node27 -->
<g id="node27" class="node">
<title>Node27</title>
<g id="a_node27"><a xlink:href="_laminar_model_8cpp.html" target="_top" xlink:title=" ">
<polygon fill="white" stroke="black" points="2416,-174 2416,-193 2523,-193 2523,-174 2416,-174"/>
<text text-anchor="middle" x="2469.5" y="-181" font-family="Helvetica,sans-Serif" font-size="10.00">LaminarModel.cpp</text>
</a>
</g>
</g>
<!-- Node1&#45;&gt;Node27 -->
<g id="edge35" class="edge">
<title>Node1&#45;&gt;Node27</title>
<path fill="none" stroke="midnightblue" d="M1527.14,-242.88C1688.91,-238.73 2234.47,-223.23 2407.5,-199 2417.46,-197.6 2428.18,-195.37 2437.85,-193.07"/>
<polygon fill="midnightblue" stroke="midnightblue" points="1526.96,-239.38 1517.05,-243.13 1527.14,-246.38 1526.96,-239.38"/>
</g>
<!-- Node28 -->
<g id="node28" class="node">
<title>Node28</title>
<g id="a_node28"><a xlink:href="_turb_model_base_8_h.html" target="_top" xlink:title=" ">
<polygon fill="white" stroke="black" points="769,-174 769,-193 870,-193 870,-174 769,-174"/>
<text text-anchor="middle" x="819.5" y="-181" font-family="Helvetica,sans-Serif" font-size="10.00">TurbModelBase.H</text>
</a>
</g>
</g>
<!-- Node1&#45;&gt;Node28 -->
<g id="edge36" class="edge">
<title>Node1&#45;&gt;Node28</title>
<path fill="none" stroke="midnightblue" d="M1435.84,-243.11C1334.91,-240.61 1085.49,-231.37 879.5,-199 870.08,-197.52 859.96,-195.32 850.76,-193.07"/>
<polygon fill="midnightblue" stroke="midnightblue" points="1435.9,-246.62 1445.99,-243.36 1436.07,-239.62 1435.9,-246.62"/>
</g>
<!-- Node41 -->
<g id="node41" class="node">
<title>Node41</title>
<g id="a_node41"><a xlink:href="_derived_qty_defs_8cpp.html" target="_top" xlink:title=" ">
<polygon fill="white" stroke="black" points="2541,-174 2541,-193 2656,-193 2656,-174 2541,-174"/>
<text text-anchor="middle" x="2598.5" y="-181" font-family="Helvetica,sans-Serif" font-size="10.00">DerivedQtyDefs.cpp</text>
</a>
</g>
</g>
<!-- Node1&#45;&gt;Node41 -->
<g id="edge53" class="edge">
<title>Node1&#45;&gt;Node41</title>
<path fill="none" stroke="midnightblue" d="M1527.34,-243.1C1703.07,-239.47 2333.73,-224.89 2532.5,-199 2543.2,-197.61 2554.74,-195.34 2565.12,-193.01"/>
<polygon fill="midnightblue" stroke="midnightblue" points="1527.08,-239.6 1517.15,-243.3 1527.22,-246.6 1527.08,-239.6"/>
</g>
<!-- Node3 -->
<g id="node3" class="node">
<title>Node3</title>
<g id="a_node3"><a xlink:href="_s_d_r_8cpp.html" target="_top" xlink:title=" ">
<polygon fill="white" stroke="black" points="35,-0.5 35,-19.5 92,-19.5 92,-0.5 35,-0.5"/>
<text text-anchor="middle" x="63.5" y="-7.5" font-family="Helvetica,sans-Serif" font-size="10.00">SDR.cpp</text>
</a>
</g>
</g>
<!-- Node2&#45;&gt;Node3 -->
<g id="edge2" class="edge">
<title>Node2&#45;&gt;Node3</title>
<path fill="none" stroke="midnightblue" d="M137.27,-104.27C118.46,-80.49 84.69,-37.79 70.3,-19.59"/>
<polygon fill="midnightblue" stroke="midnightblue" points="134.72,-106.7 143.67,-112.37 140.22,-102.35 134.72,-106.7"/>
</g>
<!-- Node2&#45;&gt;Node4 -->
<g id="edge3" class="edge">
<title>Node2&#45;&gt;Node4</title>
<path fill="none" stroke="midnightblue" d="M122.6,-108.23C100.53,-98.13 70.32,-84.31 51.11,-75.52"/>
<polygon fill="midnightblue" stroke="midnightblue" points="121.25,-111.46 131.8,-112.44 124.17,-105.1 121.25,-111.46"/>
</g>
<!-- Node5 -->
<g id="node5" class="node">
<title>Node5</title>
<g id="a_node5"><a xlink:href="_k_omega_s_s_t_8cpp.html" target="_top" xlink:title=" ">
<polygon fill="white" stroke="black" points="389,-0.5 389,-19.5 484,-19.5 484,-0.5 389,-0.5"/>
<text text-anchor="middle" x="436.5" y="-7.5" font-family="Helvetica,sans-Serif" font-size="10.00">KOmegaSST.cpp</text>
</a>
</g>
</g>
<!-- Node2&#45;&gt;Node5 -->
<g id="edge5" class="edge">
<title>Node2&#45;&gt;Node5</title>
<path fill="none" stroke="midnightblue" d="M156.43,-102.48C162.2,-87.54 172.47,-67.22 188.5,-56 204.68,-44.68 321.33,-26.95 388.73,-17.48"/>
<polygon fill="midnightblue" stroke="midnightblue" points="153.02,-101.61 153,-112.2 159.62,-103.93 153.02,-101.61"/>
</g>
<!-- Node6 -->
<g id="node6" class="node">
<title>Node6</title>
<g id="a_node6"><a xlink:href="_k_omega_s_s_t_i_8_h.html" target="_top" xlink:title=" ">
<polygon fill="white" stroke="black" points="332,-56.5 332,-75.5 421,-75.5 421,-56.5 332,-56.5"/>
<text text-anchor="middle" x="376.5" y="-63.5" font-family="Helvetica,sans-Serif" font-size="10.00">KOmegaSSTI.H</text>
</a>
</g>
</g>
<!-- Node2&#45;&gt;Node6 -->
<g id="edge6" class="edge">
<title>Node2&#45;&gt;Node6</title>
<path fill="none" stroke="midnightblue" d="M184.02,-112.99C226.07,-102.94 297.87,-85.79 340.88,-75.51"/>
<polygon fill="midnightblue" stroke="midnightblue" points="183.17,-109.59 174.26,-115.32 184.8,-116.4 183.17,-109.59"/>
</g>
<!-- Node7 -->
<g id="node7" class="node">
<title>Node7</title>
<g id="a_node7"><a xlink:href="_k_omega_s_s_t_i_d_d_e_s_8cpp.html" target="_top" xlink:title=" ">
<polygon fill="white" stroke="black" points="218.5,-0.5 218.5,-19.5 344.5,-19.5 344.5,-0.5 218.5,-0.5"/>
<text text-anchor="middle" x="281.5" y="-7.5" font-family="Helvetica,sans-Serif" font-size="10.00">KOmegaSSTIDDES.cpp</text>
</a>
</g>
</g>
<!-- Node2&#45;&gt;Node7 -->
<g id="edge9" class="edge">
<title>Node2&#45;&gt;Node7</title>
<path fill="none" stroke="midnightblue" d="M146.89,-102.35C145.26,-88.21 145.53,-69.06 155.5,-56 170.59,-36.25 195.07,-25.15 218.47,-18.91"/>
<polygon fill="midnightblue" stroke="midnightblue" points="143.46,-103.06 148.46,-112.39 150.38,-101.97 143.46,-103.06"/>
</g>
<!-- Node4&#45;&gt;Node3 -->
<g id="edge4" class="edge">
<title>Node4&#45;&gt;Node3</title>
<path fill="none" stroke="midnightblue" d="M42.68,-47.27C47.97,-38.05 54.22,-27.17 58.48,-19.75"/>
<polygon fill="midnightblue" stroke="midnightblue" points="39.56,-45.67 37.62,-56.08 45.63,-49.15 39.56,-45.67"/>
</g>
<!-- Node6&#45;&gt;Node5 -->
<g id="edge7" class="edge">
<title>Node6&#45;&gt;Node5</title>
<path fill="none" stroke="midnightblue" d="M393.68,-49.54C404.38,-39.91 417.76,-27.87 426.68,-19.83"/>
<polygon fill="midnightblue" stroke="midnightblue" points="391.23,-47.03 386.14,-56.32 395.91,-52.24 391.23,-47.03"/>
</g>
<!-- Node6&#45;&gt;Node7 -->
<g id="edge8" class="edge">
<title>Node6&#45;&gt;Node7</title>
<path fill="none" stroke="midnightblue" d="M352.18,-51.18C334.7,-41.24 311.67,-28.15 296.73,-19.65"/>
<polygon fill="midnightblue" stroke="midnightblue" points="350.81,-54.43 361.24,-56.32 354.27,-48.34 350.81,-54.43"/>
</g>
<!-- Node8&#45;&gt;Node5 -->
<g id="edge16" class="edge">
<title>Node8&#45;&gt;Node5</title>
<path fill="none" stroke="midnightblue" d="M633.33,-102.41C628.3,-87.73 619.23,-67.8 604.5,-56 570.21,-28.54 520.63,-17.75 484.21,-13.56"/>
<polygon fill="midnightblue" stroke="midnightblue" points="630.12,-103.88 636.41,-112.4 636.81,-101.81 630.12,-103.88"/>
</g>
<!-- Node8&#45;&gt;Node6 -->
<g id="edge17" class="edge">
<title>Node8&#45;&gt;Node6</title>
<path fill="none" stroke="midnightblue" d="M605.45,-114.19C557.83,-104.37 469.94,-86.26 418.01,-75.56"/>
<polygon fill="midnightblue" stroke="midnightblue" points="604.75,-117.62 615.25,-116.21 606.16,-110.76 604.75,-117.62"/>
</g>
<!-- Node8&#45;&gt;Node7 -->
<g id="edge18" class="edge">
<title>Node8&#45;&gt;Node7</title>
<path fill="none" stroke="midnightblue" d="M605.56,-110.68C564.39,-97.81 491.78,-75.15 429.5,-56 387.92,-43.21 339.69,-28.59 309.89,-19.57"/>
<polygon fill="midnightblue" stroke="midnightblue" points="604.73,-114.09 615.32,-113.74 606.82,-107.41 604.73,-114.09"/>
</g>
<!-- Node9 -->
<g id="node9" class="node">
<title>Node9</title>
<g id="a_node9"><a xlink:href="_t_k_e_8cpp.html" target="_top" xlink:title=" ">
<polygon fill="white" stroke="black" points="663.5,-0.5 663.5,-19.5 719.5,-19.5 719.5,-0.5 663.5,-0.5"/>
<text text-anchor="middle" x="691.5" y="-7.5" font-family="Helvetica,sans-Serif" font-size="10.00">TKE.cpp</text>
</a>
</g>
</g>
<!-- Node8&#45;&gt;Node9 -->
<g id="edge12" class="edge">
<title>Node8&#45;&gt;Node9</title>
<path fill="none" stroke="midnightblue" d="M647.02,-103.32C658.56,-79.37 678.71,-37.55 687.36,-19.59"/>
<polygon fill="midnightblue" stroke="midnightblue" points="643.85,-101.84 642.66,-112.37 650.15,-104.88 643.85,-101.84"/>
</g>
<!-- Node8&#45;&gt;Node10 -->
<g id="edge13" class="edge">
<title>Node8&#45;&gt;Node10</title>
<path fill="none" stroke="midnightblue" d="M660.43,-106.9C675.84,-97 695.95,-84.07 709.04,-75.65"/>
<polygon fill="midnightblue" stroke="midnightblue" points="658.52,-103.97 652,-112.32 662.3,-109.86 658.52,-103.97"/>
</g>
<!-- Node11 -->
<g id="node11" class="node">
<title>Node11</title>
<g id="a_node11"><a xlink:href="_one_eq_ksgs_8cpp.html" target="_top" xlink:title=" ">
<polygon fill="white" stroke="black" points="773.5,-56.5 773.5,-75.5 865.5,-75.5 865.5,-56.5 773.5,-56.5"/>
<text text-anchor="middle" x="819.5" y="-63.5" font-family="Helvetica,sans-Serif" font-size="10.00">OneEqKsgs.cpp</text>
</a>
</g>
</g>
<!-- Node8&#45;&gt;Node11 -->
<g id="edge15" class="edge">
<title>Node8&#45;&gt;Node11</title>
<path fill="none" stroke="midnightblue" d="M671.76,-111.08C705.94,-100.88 758.58,-85.17 790.93,-75.52"/>
<polygon fill="midnightblue" stroke="midnightblue" points="670.37,-107.84 661.79,-114.05 672.38,-114.55 670.37,-107.84"/>
</g>
<!-- Node12 -->
<g id="node12" class="node">
<title>Node12</title>
<g id="a_node12"><a xlink:href="_a_b_l_stats_8cpp.html" target="_top" xlink:title=" ">
<polygon fill="white" stroke="black" points="515.5,-56.5 515.5,-75.5 595.5,-75.5 595.5,-56.5 515.5,-56.5"/>
<text text-anchor="middle" x="555.5" y="-63.5" font-family="Helvetica,sans-Serif" font-size="10.00">ABLStats.cpp</text>
</a>
</g>
</g>
<!-- Node8&#45;&gt;Node12 -->
<g id="edge19" class="edge">
<title>Node8&#45;&gt;Node12</title>
<path fill="none" stroke="midnightblue" d="M616.4,-106.62C601.24,-96.76 581.62,-83.99 568.8,-75.65"/>
<polygon fill="midnightblue" stroke="midnightblue" points="614.87,-109.8 625.16,-112.32 618.69,-103.94 614.87,-109.8"/>
</g>
<!-- Node10&#45;&gt;Node9 -->
<g id="edge14" class="edge">
<title>Node10&#45;&gt;Node9</title>
<path fill="none" stroke="midnightblue" d="M712.32,-47.27C707.03,-38.05 700.78,-27.17 696.52,-19.75"/>
<polygon fill="midnightblue" stroke="midnightblue" points="709.37,-49.15 717.38,-56.08 715.44,-45.67 709.37,-49.15"/>
</g>
<!-- Node16 -->
<g id="node16" class="node">
<title>Node16</title>
<g id="a_node16"><a xlink:href="_h_o_s_waves_8cpp.html" target="_top" xlink:title=" ">
<polygon fill="white" stroke="black" points="1287.5,-112.5 1287.5,-131.5 1377.5,-131.5 1377.5,-112.5 1287.5,-112.5"/>
<text text-anchor="middle" x="1332.5" y="-119.5" font-family="Helvetica,sans-Serif" font-size="10.00">HOSWaves.cpp</text>
</a>
</g>
</g>
<!-- Node15&#45;&gt;Node16 -->
<g id="edge24" class="edge">
<title>Node15&#45;&gt;Node16</title>
<path fill="none" stroke="midnightblue" d="M1225.47,-169.83C1251.87,-158.28 1290.14,-141.53 1313.05,-131.51"/>
<polygon fill="midnightblue" stroke="midnightblue" points="1223.74,-166.76 1215.99,-173.98 1226.55,-173.17 1223.74,-166.76"/>
</g>
<!-- Node19 -->
<g id="node19" class="node">
<title>Node19</title>
<g id="a_node19"><a xlink:href="_w2_a_waves_8cpp.html" target="_top" xlink:title=" ">
<polygon fill="white" stroke="black" points="1436,-112.5 1436,-131.5 1527,-131.5 1527,-112.5 1436,-112.5"/>
<text text-anchor="middle" x="1481.5" y="-119.5" font-family="Helvetica,sans-Serif" font-size="10.00">W2AWaves.cpp</text>
</a>
</g>
</g>
<!-- Node18&#45;&gt;Node19 -->
<g id="edge27" class="edge">
<title>Node18&#45;&gt;Node19</title>
<path fill="none" stroke="midnightblue" d="M1481.5,-163.82C1481.5,-153 1481.5,-139.9 1481.5,-131.51"/>
<polygon fill="midnightblue" stroke="midnightblue" points="1478,-163.98 1481.5,-173.98 1485,-163.98 1478,-163.98"/>
</g>
<!-- Node29 -->
<g id="node29" class="node">
<title>Node29</title>
<g id="a_node29"><a xlink:href="_a_m_d_8_h.html" target="_top" xlink:title=" ">
<polygon fill="white" stroke="black" points="883.5,-112.5 883.5,-131.5 933.5,-131.5 933.5,-112.5 883.5,-112.5"/>
<text text-anchor="middle" x="908.5" y="-119.5" font-family="Helvetica,sans-Serif" font-size="10.00">AMD.H</text>
</a>
</g>
</g>
<!-- Node28&#45;&gt;Node29 -->
<g id="edge37" class="edge">
<title>Node28&#45;&gt;Node29</title>
<path fill="none" stroke="midnightblue" d="M841.02,-168.11C858.14,-156.67 881.51,-141.05 895.77,-131.51"/>
<polygon fill="midnightblue" stroke="midnightblue" points="838.62,-165.51 832.25,-173.98 842.51,-171.33 838.62,-165.51"/>
</g>
<!-- Node31 -->
<g id="node31" class="node">
<title>Node31</title>
<g id="a_node31"><a xlink:href="_a_m_d_no_therm_8_h.html" target="_top" xlink:title=" ">
<polygon fill="white" stroke="black" points="962,-112.5 962,-131.5 1057,-131.5 1057,-112.5 962,-112.5"/>
<text text-anchor="middle" x="1009.5" y="-119.5" font-family="Helvetica,sans-Serif" font-size="10.00">AMDNoTherm.H</text>
</a>
</g>
</g>
<!-- Node28&#45;&gt;Node31 -->
<g id="edge39" class="edge">
<title>Node28&#45;&gt;Node31</title>
<path fill="none" stroke="midnightblue" d="M856.6,-170.88C893.54,-159.32 949.34,-141.84 982.33,-131.51"/>
<polygon fill="midnightblue" stroke="midnightblue" points="855.22,-167.65 846.72,-173.98 857.31,-174.33 855.22,-167.65"/>
</g>
<!-- Node33 -->
<g id="node33" class="node">
<title>Node33</title>
<g id="a_node33"><a xlink:href="_kosovic_8_h.html" target="_top" xlink:title=" ">
<polygon fill="white" stroke="black" points="1097,-112.5 1097,-131.5 1162,-131.5 1162,-112.5 1097,-112.5"/>
<text text-anchor="middle" x="1129.5" y="-119.5" font-family="Helvetica,sans-Serif" font-size="10.00">Kosovic.H</text>
</a>
</g>
</g>
<!-- Node28&#45;&gt;Node33 -->
<g id="edge41" class="edge">
<title>Node28&#45;&gt;Node33</title>
<path fill="none" stroke="midnightblue" d="M863.14,-171.64C868.64,-170.36 874.19,-169.12 879.5,-168 956.96,-151.68 1048.71,-136.12 1096.62,-128.28"/>
<polygon fill="midnightblue" stroke="midnightblue" points="862.3,-168.24 853.37,-173.94 863.91,-175.05 862.3,-168.24"/>
</g>
<!-- Node36 -->
<g id="node36" class="node">
<title>Node36</title>
<g id="a_node36"><a xlink:href="_one_eq_ksgs_8_h.html" target="_top" xlink:title=" ">
<polygon fill="white" stroke="black" points="778.5,-112.5 778.5,-131.5 860.5,-131.5 860.5,-112.5 778.5,-112.5"/>
<text text-anchor="middle" x="819.5" y="-119.5" font-family="Helvetica,sans-Serif" font-size="10.00">OneEqKsgs.H</text>
</a>
</g>
</g>
<!-- Node28&#45;&gt;Node36 -->
<g id="edge44" class="edge">
<title>Node28&#45;&gt;Node36</title>
<path fill="none" stroke="midnightblue" d="M819.5,-163.82C819.5,-153 819.5,-139.9 819.5,-131.51"/>
<polygon fill="midnightblue" stroke="midnightblue" points="816,-163.98 819.5,-173.98 823,-163.98 816,-163.98"/>
</g>
<!-- Node37 -->
<g id="node37" class="node">
<title>Node37</title>
<g id="a_node37"><a xlink:href="_smagorinsky_8_h.html" target="_top" xlink:title=" ">
<polygon fill="white" stroke="black" points="1180,-112.5 1180,-131.5 1269,-131.5 1269,-112.5 1180,-112.5"/>
<text text-anchor="middle" x="1224.5" y="-119.5" font-family="Helvetica,sans-Serif" font-size="10.00">Smagorinsky.H</text>
</a>
</g>
</g>
<!-- Node28&#45;&gt;Node37 -->
<g id="edge46" class="edge">
<title>Node28&#45;&gt;Node37</title>
<path fill="none" stroke="midnightblue" d="M861.63,-171.68C867.6,-170.33 873.69,-169.06 879.5,-168 1007.71,-144.66 1041.53,-150.72 1170.5,-132 1173.51,-131.56 1176.61,-131.09 1179.73,-130.61"/>
<polygon fill="midnightblue" stroke="midnightblue" points="860.68,-168.31 851.74,-173.99 862.27,-175.12 860.68,-168.31"/>
</g>
<!-- Node39 -->
<g id="node39" class="node">
<title>Node39</title>
<g id="a_node39"><a xlink:href="_k_omega_s_s_t_8_h.html" target="_top" xlink:title=" ">
<polygon fill="white" stroke="black" points="388.5,-112.5 388.5,-131.5 474.5,-131.5 474.5,-112.5 388.5,-112.5"/>
<text text-anchor="middle" x="431.5" y="-119.5" font-family="Helvetica,sans-Serif" font-size="10.00">KOmegaSST.H</text>
</a>
</g>
</g>
<!-- Node28&#45;&gt;Node39 -->
<g id="edge48" class="edge">
<title>Node28&#45;&gt;Node39</title>
<path fill="none" stroke="midnightblue" d="M758.49,-173.14C679.54,-161.04 543.91,-140.24 474.77,-129.63"/>
<polygon fill="midnightblue" stroke="midnightblue" points="758.36,-176.67 768.78,-174.72 759.42,-169.75 758.36,-176.67"/>
</g>
<!-- Node30 -->
<g id="node30" class="node">
<title>Node30</title>
<g id="a_node30"><a xlink:href="_a_m_d_8cpp.html" target="_top" xlink:title=" ">
<polygon fill="white" stroke="black" points="883.5,-56.5 883.5,-75.5 943.5,-75.5 943.5,-56.5 883.5,-56.5"/>
<text text-anchor="middle" x="913.5" y="-63.5" font-family="Helvetica,sans-Serif" font-size="10.00">AMD.cpp</text>
</a>
</g>
</g>
<!-- Node29&#45;&gt;Node30 -->
<g id="edge38" class="edge">
<title>Node29&#45;&gt;Node30</title>
<path fill="none" stroke="midnightblue" d="M910.25,-102.1C911.08,-93.14 912.03,-82.86 912.69,-75.75"/>
<polygon fill="midnightblue" stroke="midnightblue" points="906.76,-101.8 909.33,-112.08 913.73,-102.45 906.76,-101.8"/>
</g>
<!-- Node32 -->
<g id="node32" class="node">
<title>Node32</title>
<g id="a_node32"><a xlink:href="_a_m_d_no_therm_8cpp.html" target="_top" xlink:title=" ">
<polygon fill="white" stroke="black" points="962,-56.5 962,-75.5 1067,-75.5 1067,-56.5 962,-56.5"/>
<text text-anchor="middle" x="1014.5" y="-63.5" font-family="Helvetica,sans-Serif" font-size="10.00">AMDNoTherm.cpp</text>
</a>
</g>
</g>
<!-- Node31&#45;&gt;Node32 -->
<g id="edge40" class="edge">
<title>Node31&#45;&gt;Node32</title>
<path fill="none" stroke="midnightblue" d="M1011.25,-102.1C1012.08,-93.14 1013.03,-82.86 1013.69,-75.75"/>
<polygon fill="midnightblue" stroke="midnightblue" points="1007.76,-101.8 1010.33,-112.08 1014.73,-102.45 1007.76,-101.8"/>
</g>
<!-- Node34 -->
<g id="node34" class="node">
<title>Node34</title>
<g id="a_node34"><a xlink:href="_non_linear_s_g_s_term_8cpp.html" target="_top" xlink:title=" ">
<polygon fill="white" stroke="black" points="1085.5,-56.5 1085.5,-75.5 1215.5,-75.5 1215.5,-56.5 1085.5,-56.5"/>
<text text-anchor="middle" x="1150.5" y="-63.5" font-family="Helvetica,sans-Serif" font-size="10.00">NonLinearSGSTerm.cpp</text>
</a>
</g>
</g>
<!-- Node33&#45;&gt;Node34 -->
<g id="edge42" class="edge">
<title>Node33&#45;&gt;Node34</title>
<path fill="none" stroke="midnightblue" d="M1136.62,-102.69C1140.16,-93.59 1144.27,-83.01 1147.1,-75.75"/>
<polygon fill="midnightblue" stroke="midnightblue" points="1133.33,-101.49 1132.97,-112.08 1139.85,-104.03 1133.33,-101.49"/>
</g>
<!-- Node35 -->
<g id="node35" class="node">
<title>Node35</title>
<g id="a_node35"><a xlink:href="_kosovic_8cpp.html" target="_top" xlink:title=" ">
<polygon fill="white" stroke="black" points="1233.5,-56.5 1233.5,-75.5 1307.5,-75.5 1307.5,-56.5 1233.5,-56.5"/>
<text text-anchor="middle" x="1270.5" y="-63.5" font-family="Helvetica,sans-Serif" font-size="10.00">Kosovic.cpp</text>
</a>
</g>
</g>
<!-- Node33&#45;&gt;Node35 -->
<g id="edge43" class="edge">
<title>Node33&#45;&gt;Node35</title>
<path fill="none" stroke="midnightblue" d="M1161.43,-108.77C1187.91,-98.63 1224.89,-84.47 1248.26,-75.52"/>
<polygon fill="midnightblue" stroke="midnightblue" points="1159.93,-105.6 1151.84,-112.44 1162.43,-112.14 1159.93,-105.6"/>
</g>
<!-- Node36&#45;&gt;Node11 -->
<g id="edge45" class="edge">
<title>Node36&#45;&gt;Node11</title>
<path fill="none" stroke="midnightblue" d="M819.5,-101.8C819.5,-92.91 819.5,-82.78 819.5,-75.75"/>
<polygon fill="midnightblue" stroke="midnightblue" points="816,-102.08 819.5,-112.08 823,-102.08 816,-102.08"/>
</g>
<!-- Node38 -->
<g id="node38" class="node">
<title>Node38</title>
<g id="a_node38"><a xlink:href="_smagorinsky_8cpp.html" target="_top" xlink:title=" ">
<polygon fill="white" stroke="black" points="1325.5,-56.5 1325.5,-75.5 1423.5,-75.5 1423.5,-56.5 1325.5,-56.5"/>
<text text-anchor="middle" x="1374.5" y="-63.5" font-family="Helvetica,sans-Serif" font-size="10.00">Smagorinsky.cpp</text>
</a>
</g>
</g>
<!-- Node37&#45;&gt;Node38 -->
<g id="edge47" class="edge">
<title>Node37&#45;&gt;Node38</title>
<path fill="none" stroke="midnightblue" d="M1257.72,-109.04C1285.95,-98.88 1325.76,-84.55 1350.84,-75.52"/>
<polygon fill="midnightblue" stroke="midnightblue" points="1256.49,-105.76 1248.27,-112.44 1258.86,-112.35 1256.49,-105.76"/>
</g>
<!-- Node39&#45;&gt;Node5 -->
<g id="edge49" class="edge">
<title>Node39&#45;&gt;Node5</title>
<path fill="none" stroke="midnightblue" d="M432.35,-102.35C433.44,-78.25 435.3,-37.31 436.11,-19.59"/>
<polygon fill="midnightblue" stroke="midnightblue" points="428.85,-102.22 431.89,-112.37 435.84,-102.54 428.85,-102.22"/>
</g>
<!-- Node39&#45;&gt;Node6 -->
<g id="edge50" class="edge">
<title>Node39&#45;&gt;Node6</title>
<path fill="none" stroke="midnightblue" d="M415.21,-105C405.46,-95.43 393.45,-83.64 385.41,-75.75"/>
<polygon fill="midnightblue" stroke="midnightblue" points="412.83,-107.57 422.42,-112.08 417.73,-102.58 412.83,-107.57"/>
</g>
<!-- Node40 -->
<g id="node40" class="node">
<title>Node40</title>
<g id="a_node40"><a xlink:href="_k_omega_s_s_t_i_d_d_e_s_8_h.html" target="_top" xlink:title=" ">
<polygon fill="white" stroke="black" points="197.5,-56.5 197.5,-75.5 313.5,-75.5 313.5,-56.5 197.5,-56.5"/>
<text text-anchor="middle" x="255.5" y="-63.5" font-family="Helvetica,sans-Serif" font-size="10.00">KOmegaSSTIDDES.H</text>
</a>
</g>
</g>
<!-- Node39&#45;&gt;Node40 -->
<g id="edge51" class="edge">
<title>Node39&#45;&gt;Node40</title>
<path fill="none" stroke="midnightblue" d="M393.81,-109.44C360.63,-99.26 313.07,-84.66 283.26,-75.52"/>
<polygon fill="midnightblue" stroke="midnightblue" points="393.03,-112.86 403.61,-112.44 395.08,-106.16 393.03,-112.86"/>
</g>
<!-- Node40&#45;&gt;Node7 -->
<g id="edge52" class="edge">
<title>Node40&#45;&gt;Node7</title>
<path fill="none" stroke="midnightblue" d="M264.17,-46.98C268.59,-37.82 273.75,-27.09 277.29,-19.75"/>
<polygon fill="midnightblue" stroke="midnightblue" points="260.98,-45.55 259.79,-56.08 267.29,-48.59 260.98,-45.55"/>
</g>
</g>
</svg>
        <g id="navigator" transform="translate(0 0)" fill="#404254">
                <rect fill="#f2f5e9" fill-opacity="0.5" stroke="#606060" stroke-width=".5" x="0" y="0" width="60" height="60"/>
                <use id="zoomplus" xlink:href="#zoomPlus" x="17" y="9" onmousedown="handleZoom(evt,'in')"/>
                <use id="zoomminus" xlink:href="#zoomMin" x="42" y="9" onmousedown="handleZoom(evt,'out')"/>
                <use id="reset" xlink:href="#resetDef" x="30" y="36" onmousedown="handleReset()"/>
                <g id="arrowUp" xlink:href="#dirArrow" transform="translate(30 24)" onmousedown="handlePan(0,-1)">
                  <use xlink:href="#rim" fill="#404040">
                        <set attributeName="fill" to="#808080" begin="arrowUp.mouseover" end="arrowUp.mouseout"/>
                  </use>
                  <path fill="none" stroke="white" stroke-width="1.5" d="M0,-3.0v7 M-2.5,-0.5L0,-3.0L2.5,-0.5"/>
                </g>
                <g id="arrowRight" xlink:href="#dirArrow" transform="rotate(90) translate(36 -43)" onmousedown="handlePan(1,0)">
                  <use xlink:href="#rim" fill="#404040">
                        <set attributeName="fill" to="#808080" begin="arrowRight.mouseover" end="arrowRight.mouseout"/>
                  </use>
                  <path fill="none" stroke="white" stroke-width="1.5" d="M0,-3.0v7 M-2.5,-0.5L0,-3.0L2.5,-0.5"/>
                </g>
                <g id="arrowDown" xlink:href="#dirArrow" transform="rotate(180) translate(-30 -48)" onmousedown="handlePan(0,1)">
                  <use xlink:href="#rim" fill="#404040">
                        <set attributeName="fill" to="#808080" begin="arrowDown.mouseover" end="arrowDown.mouseout"/>
                  </use>
                  <path fill="none" stroke="white" stroke-width="1.5" d="M0,-3.0v7 M-2.5,-0.5L0,-3.0L2.5,-0.5"/>
                </g>
                <g id="arrowLeft" xlink:href="#dirArrow" transform="rotate(270) translate(-36 17)" onmousedown="handlePan(-1,0)">
                  <use xlink:href="#rim" fill="#404040">
                        <set attributeName="fill" to="#808080" begin="arrowLeft.mouseover" end="arrowLeft.mouseout"/>
                  </use>
                  <path fill="none" stroke="white" stroke-width="1.5" d="M0,-3.0v7 M-2.5,-0.5L0,-3.0L2.5,-0.5"/>
                </g>
        </g>
        <svg viewBox="0 0 15 15" width="100%" height="30px" preserveAspectRatio="xMaxYMin meet">
         <g id="arrow_out" transform="scale(0.3 0.3)">
          <a xlink:href="field__ops_8_h__dep__incl_org.svg" target="_base">
           <rect id="button" ry="5" rx="5" y="6" x="6" height="38" width="38"
                fill="#f2f5e9" fill-opacity="0.5" stroke="#606060" stroke-width="1.0"/>
           <path id="arrow"
             d="M 11.500037,31.436501 C 11.940474,20.09759 22.043105,11.32322 32.158766,21.979434 L 37.068811,17.246167 C 37.068811,17.246167 37.088388,32 37.088388,32 L 22.160133,31.978069 C 22.160133,31.978069 26.997745,27.140456 26.997745,27.140456 C 18.528582,18.264221 13.291696,25.230495 11.500037,31.436501 z"
             style="fill:#404040;"/>
          </a>
         </g>
        </svg>
</svg>
