<?xml version="1.0" encoding="UTF-8" standalone="no"?>
<!DOCTYPE svg PUBLIC "-//W3C//DTD SVG 1.1//EN"
 "http://www.w3.org/Graphics/SVG/1.1/DTD/svg11.dtd">
<!-- Generated by graphviz version 2.43.0 (0)
 -->
<!-- Title: gradient.H Pages: 1 -->
<svg width="1970pt" height="196pt"
 viewBox="0.00 0.00 1969.50 196.00" xmlns="http://www.w3.org/2000/svg" xmlns:xlink="http://www.w3.org/1999/xlink">
<g id="graph0" class="graph" transform="scale(1 1) rotate(0) translate(4 192)">
<title>gradient.H</title>
<polygon fill="white" stroke="transparent" points="-4,4 -4,-192 1965.5,-192 1965.5,4 -4,4"/>
<!-- Node1 -->
<g id="node1" class="node">
<title>Node1</title>
<g id="a_node1"><a xlink:title=" ">
<polygon fill="#bfbfbf" stroke="black" points="1048.5,-168.5 1048.5,-187.5 1116.5,-187.5 1116.5,-168.5 1048.5,-168.5"/>
<text text-anchor="middle" x="1082.5" y="-175.5" font-family="Helvetica,sans-Serif" font-size="10.00">gradient.H</text>
</a>
</g>
</g>
<!-- Node2 -->
<g id="node2" class="node">
<title>Node2</title>
<g id="a_node2"><a xlink:href="fvm_8_h.html" target="_top" xlink:title=" ">
<polygon fill="white" stroke="black" points="136,-112.5 136,-131.5 183,-131.5 183,-112.5 136,-112.5"/>
<text text-anchor="middle" x="159.5" y="-119.5" font-family="Helvetica,sans-Serif" font-size="10.00">fvm.H</text>
</a>
</g>
</g>
<!-- Node1&#45;&gt;Node2 -->
<g id="edge1" class="edge">
<title>Node1&#45;&gt;Node2</title>
<path fill="none" stroke="midnightblue" d="M1038.18,-175.63C912.41,-171.53 542.62,-158.01 236.5,-132 218.53,-130.47 198.27,-128.08 183.05,-126.14"/>
<polygon fill="midnightblue" stroke="midnightblue" points="1038.09,-179.13 1048.2,-175.95 1038.32,-172.13 1038.09,-179.13"/>
</g>
<!-- Node4 -->
<g id="node4" class="node">
<title>Node4</title>
<g id="a_node4"><a xlink:href="bluff__body__ops_8cpp.html" target="_top" xlink:title=" ">
<polygon fill="white" stroke="black" points="133.5,-56.5 133.5,-75.5 243.5,-75.5 243.5,-56.5 133.5,-56.5"/>
<text text-anchor="middle" x="188.5" y="-63.5" font-family="Helvetica,sans-Serif" font-size="10.00">bluff_body_ops.cpp</text>
</a>
</g>
</g>
<!-- Node1&#45;&gt;Node4 -->
<g id="edge3" class="edge">
<title>Node1&#45;&gt;Node4</title>
<path fill="none" stroke="midnightblue" d="M1037.93,-176.44C897.81,-174.35 467.5,-165.32 332.5,-132 282.44,-119.64 228.24,-90.38 202.99,-75.71"/>
<polygon fill="midnightblue" stroke="midnightblue" points="1038.23,-179.95 1048.28,-176.59 1038.33,-172.95 1038.23,-179.95"/>
</g>
<!-- Node5 -->
<g id="node5" class="node">
<title>Node5</title>
<g id="a_node5"><a xlink:href="bluff__body__ops_8_h.html" target="_top" xlink:title=" ">
<polygon fill="white" stroke="black" points="342,-112.5 342,-131.5 443,-131.5 443,-112.5 342,-112.5"/>
<text text-anchor="middle" x="392.5" y="-119.5" font-family="Helvetica,sans-Serif" font-size="10.00">bluff_body_ops.H</text>
</a>
</g>
</g>
<!-- Node1&#45;&gt;Node5 -->
<g id="edge4" class="edge">
<title>Node1&#45;&gt;Node5</title>
<path fill="none" stroke="midnightblue" d="M1038.14,-173.53C915.54,-163.93 572.64,-137.1 443.01,-126.95"/>
<polygon fill="midnightblue" stroke="midnightblue" points="1038.04,-177.03 1048.28,-174.32 1038.59,-170.05 1038.04,-177.03"/>
</g>
<!-- Node12 -->
<g id="node12" class="node">
<title>Node12</title>
<g id="a_node12"><a xlink:href="relaxation__zones__ops_8cpp.html" target="_top" xlink:title=" ">
<polygon fill="white" stroke="black" points="556,-56.5 556,-75.5 699,-75.5 699,-56.5 556,-56.5"/>
<text text-anchor="middle" x="627.5" y="-63.5" font-family="Helvetica,sans-Serif" font-size="10.00">relaxation_zones_ops.cpp</text>
</a>
</g>
</g>
<!-- Node1&#45;&gt;Node12 -->
<g id="edge12" class="edge">
<title>Node1&#45;&gt;Node12</title>
<path fill="none" stroke="midnightblue" d="M1038.03,-175.19C933.01,-170.54 676.17,-156.72 646.5,-132 629.7,-118 627.28,-90.03 627.22,-75.78"/>
<polygon fill="midnightblue" stroke="midnightblue" points="1038.16,-178.7 1048.3,-175.64 1038.46,-171.71 1038.16,-178.7"/>
</g>
<!-- Node13 -->
<g id="node13" class="node">
<title>Node13</title>
<g id="a_node13"><a xlink:href="relaxation__zones__ops_8_h.html" target="_top" xlink:title=" ">
<polygon fill="white" stroke="black" points="656,-112.5 656,-131.5 789,-131.5 789,-112.5 656,-112.5"/>
<text text-anchor="middle" x="722.5" y="-119.5" font-family="Helvetica,sans-Serif" font-size="10.00">relaxation_zones_ops.H</text>
</a>
</g>
</g>
<!-- Node1&#45;&gt;Node13 -->
<g id="edge13" class="edge">
<title>Node1&#45;&gt;Node13</title>
<path fill="none" stroke="midnightblue" d="M1038.35,-170.38C973.15,-160.6 851.12,-142.29 779.32,-131.52"/>
<polygon fill="midnightblue" stroke="midnightblue" points="1037.9,-173.85 1048.31,-171.87 1038.94,-166.93 1037.9,-173.85"/>
</g>
<!-- Node22 -->
<g id="node22" class="node">
<title>Node22</title>
<g id="a_node22"><a xlink:href="_dam_break_8cpp.html" target="_top" xlink:title=" ">
<polygon fill="white" stroke="black" points="807,-112.5 807,-131.5 896,-131.5 896,-112.5 807,-112.5"/>
<text text-anchor="middle" x="851.5" y="-119.5" font-family="Helvetica,sans-Serif" font-size="10.00">DamBreak.cpp</text>
</a>
</g>
</g>
<!-- Node1&#45;&gt;Node22 -->
<g id="edge23" class="edge">
<title>Node1&#45;&gt;Node22</title>
<path fill="none" stroke="midnightblue" d="M1038.65,-166.75C995.03,-156.55 928.87,-141.09 888.01,-131.54"/>
<polygon fill="midnightblue" stroke="midnightblue" points="1037.88,-170.16 1048.42,-169.03 1039.47,-163.35 1037.88,-170.16"/>
</g>
<!-- Node23 -->
<g id="node23" class="node">
<title>Node23</title>
<g id="a_node23"><a xlink:href="_sloshing_tank_8cpp.html" target="_top" xlink:title=" ">
<polygon fill="white" stroke="black" points="914,-112.5 914,-131.5 1015,-131.5 1015,-112.5 914,-112.5"/>
<text text-anchor="middle" x="964.5" y="-119.5" font-family="Helvetica,sans-Serif" font-size="10.00">SloshingTank.cpp</text>
</a>
</g>
</g>
<!-- Node1&#45;&gt;Node23 -->
<g id="edge24" class="edge">
<title>Node1&#45;&gt;Node23</title>
<path fill="none" stroke="midnightblue" d="M1054.6,-164.23C1032.53,-154.13 1002.32,-140.31 983.11,-131.52"/>
<polygon fill="midnightblue" stroke="midnightblue" points="1053.25,-167.46 1063.8,-168.44 1056.17,-161.1 1053.25,-167.46"/>
</g>
<!-- Node24 -->
<g id="node24" class="node">
<title>Node24</title>
<g id="a_node24"><a xlink:href="_zalesak_disk_8cpp.html" target="_top" xlink:title=" ">
<polygon fill="white" stroke="black" points="1033.5,-112.5 1033.5,-131.5 1131.5,-131.5 1131.5,-112.5 1033.5,-112.5"/>
<text text-anchor="middle" x="1082.5" y="-119.5" font-family="Helvetica,sans-Serif" font-size="10.00">ZalesakDisk.cpp</text>
</a>
</g>
</g>
<!-- Node1&#45;&gt;Node24 -->
<g id="edge25" class="edge">
<title>Node1&#45;&gt;Node24</title>
<path fill="none" stroke="midnightblue" d="M1082.5,-157.8C1082.5,-148.91 1082.5,-138.78 1082.5,-131.75"/>
<polygon fill="midnightblue" stroke="midnightblue" points="1079,-158.08 1082.5,-168.08 1086,-158.08 1079,-158.08"/>
</g>
<!-- Node25 -->
<g id="node25" class="node">
<title>Node25</title>
<g id="a_node25"><a xlink:href="_zalesak_disk_scalar_vel_8cpp.html" target="_top" xlink:title=" ">
<polygon fill="white" stroke="black" points="1150,-112.5 1150,-131.5 1293,-131.5 1293,-112.5 1150,-112.5"/>
<text text-anchor="middle" x="1221.5" y="-119.5" font-family="Helvetica,sans-Serif" font-size="10.00">ZalesakDiskScalarVel.cpp</text>
</a>
</g>
</g>
<!-- Node1&#45;&gt;Node25 -->
<g id="edge26" class="edge">
<title>Node1&#45;&gt;Node25</title>
<path fill="none" stroke="midnightblue" d="M1113.98,-164.77C1140.09,-154.63 1176.54,-140.47 1199.58,-131.52"/>
<polygon fill="midnightblue" stroke="midnightblue" points="1112.58,-161.56 1104.52,-168.44 1115.11,-168.08 1112.58,-161.56"/>
</g>
<!-- Node26 -->
<g id="node26" class="node">
<title>Node26</title>
<g id="a_node26"><a xlink:href="_a_m_d_8cpp.html" target="_top" xlink:title=" ">
<polygon fill="white" stroke="black" points="1311.5,-112.5 1311.5,-131.5 1371.5,-131.5 1371.5,-112.5 1311.5,-112.5"/>
<text text-anchor="middle" x="1341.5" y="-119.5" font-family="Helvetica,sans-Serif" font-size="10.00">AMD.cpp</text>
</a>
</g>
</g>
<!-- Node1&#45;&gt;Node26 -->
<g id="edge27" class="edge">
<title>Node1&#45;&gt;Node26</title>
<path fill="none" stroke="midnightblue" d="M1126.75,-168.29C1171.23,-159.45 1241.71,-145.23 1302.5,-132 1305.35,-131.38 1308.32,-130.72 1311.28,-130.05"/>
<polygon fill="midnightblue" stroke="midnightblue" points="1125.98,-164.87 1116.85,-170.25 1127.34,-171.74 1125.98,-164.87"/>
</g>
<!-- Node27 -->
<g id="node27" class="node">
<title>Node27</title>
<g id="a_node27"><a xlink:href="_a_m_d_no_therm_8cpp.html" target="_top" xlink:title=" ">
<polygon fill="white" stroke="black" points="1390,-112.5 1390,-131.5 1495,-131.5 1495,-112.5 1390,-112.5"/>
<text text-anchor="middle" x="1442.5" y="-119.5" font-family="Helvetica,sans-Serif" font-size="10.00">AMDNoTherm.cpp</text>
</a>
</g>
</g>
<!-- Node1&#45;&gt;Node27 -->
<g id="edge28" class="edge">
<title>Node1&#45;&gt;Node27</title>
<path fill="none" stroke="midnightblue" d="M1126.84,-170.35C1193.36,-160.37 1318.71,-141.57 1389.8,-130.91"/>
<polygon fill="midnightblue" stroke="midnightblue" points="1126.06,-166.93 1116.69,-171.87 1127.1,-173.85 1126.06,-166.93"/>
</g>
<!-- Node28 -->
<g id="node28" class="node">
<title>Node28</title>
<g id="a_node28"><a xlink:href="_one_eq_ksgs_8cpp.html" target="_top" xlink:title=" ">
<polygon fill="white" stroke="black" points="1513.5,-112.5 1513.5,-131.5 1605.5,-131.5 1605.5,-112.5 1513.5,-112.5"/>
<text text-anchor="middle" x="1559.5" y="-119.5" font-family="Helvetica,sans-Serif" font-size="10.00">OneEqKsgs.cpp</text>
</a>
</g>
</g>
<!-- Node1&#45;&gt;Node28 -->
<g id="edge29" class="edge">
<title>Node1&#45;&gt;Node28</title>
<path fill="none" stroke="midnightblue" d="M1127.06,-173.08C1204.14,-166.1 1367.29,-150.53 1504.5,-132 1507.38,-131.61 1510.33,-131.19 1513.31,-130.75"/>
<polygon fill="midnightblue" stroke="midnightblue" points="1126.41,-169.62 1116.77,-174 1127.04,-176.59 1126.41,-169.62"/>
</g>
<!-- Node29 -->
<g id="node29" class="node">
<title>Node29</title>
<g id="a_node29"><a xlink:href="_k_omega_s_s_t_8cpp.html" target="_top" xlink:title=" ">
<polygon fill="white" stroke="black" points="1624,-112.5 1624,-131.5 1719,-131.5 1719,-112.5 1624,-112.5"/>
<text text-anchor="middle" x="1671.5" y="-119.5" font-family="Helvetica,sans-Serif" font-size="10.00">KOmegaSST.cpp</text>
</a>
</g>
</g>
<!-- Node1&#45;&gt;Node29 -->
<g id="edge30" class="edge">
<title>Node1&#45;&gt;Node29</title>
<path fill="none" stroke="midnightblue" d="M1126.76,-174.34C1218.13,-168.61 1434.15,-153.84 1614.5,-132 1617.58,-131.63 1620.76,-131.21 1623.95,-130.77"/>
<polygon fill="midnightblue" stroke="midnightblue" points="1126.27,-170.86 1116.51,-174.98 1126.71,-177.85 1126.27,-170.86"/>
</g>
<!-- Node30 -->
<g id="node30" class="node">
<title>Node30</title>
<g id="a_node30"><a xlink:href="_k_omega_s_s_t_i_d_d_e_s_8cpp.html" target="_top" xlink:title=" ">
<polygon fill="white" stroke="black" points="1737.5,-112.5 1737.5,-131.5 1863.5,-131.5 1863.5,-112.5 1737.5,-112.5"/>
<text text-anchor="middle" x="1800.5" y="-119.5" font-family="Helvetica,sans-Serif" font-size="10.00">KOmegaSSTIDDES.cpp</text>
</a>
</g>
</g>
<!-- Node1&#45;&gt;Node30 -->
<g id="edge31" class="edge">
<title>Node1&#45;&gt;Node30</title>
<path fill="none" stroke="midnightblue" d="M1126.71,-174.76C1231.42,-169.26 1502.67,-153.96 1728.5,-132 1731.38,-131.72 1734.33,-131.42 1737.31,-131.1"/>
<polygon fill="midnightblue" stroke="midnightblue" points="1126.33,-171.27 1116.52,-175.29 1126.69,-178.26 1126.33,-171.27"/>
</g>
<!-- Node31 -->
<g id="node31" class="node">
<title>Node31</title>
<g id="a_node31"><a xlink:href="_a_b_l_stats_8cpp.html" target="_top" xlink:title=" ">
<polygon fill="white" stroke="black" points="1881.5,-112.5 1881.5,-131.5 1961.5,-131.5 1961.5,-112.5 1881.5,-112.5"/>
<text text-anchor="middle" x="1921.5" y="-119.5" font-family="Helvetica,sans-Serif" font-size="10.00">ABLStats.cpp</text>
</a>
</g>
</g>
<!-- Node1&#45;&gt;Node31 -->
<g id="edge32" class="edge">
<title>Node1&#45;&gt;Node31</title>
<path fill="none" stroke="midnightblue" d="M1126.79,-176.41C1247.08,-174.4 1589.82,-165.88 1872.5,-132 1875.42,-131.65 1878.43,-131.23 1881.45,-130.78"/>
<polygon fill="midnightblue" stroke="midnightblue" points="1126.45,-172.92 1116.51,-176.58 1126.57,-179.92 1126.45,-172.92"/>
</g>
<!-- Node3 -->
<g id="node3" class="node">
<title>Node3</title>
<g id="a_node3"><a xlink:href="_derived_qty_defs_8cpp.html" target="_top" xlink:title=" ">
<polygon fill="white" stroke="black" points="0,-56.5 0,-75.5 115,-75.5 115,-56.5 0,-56.5"/>
<text text-anchor="middle" x="57.5" y="-63.5" font-family="Helvetica,sans-Serif" font-size="10.00">DerivedQtyDefs.cpp</text>
</a>
</g>
</g>
<!-- Node2&#45;&gt;Node3 -->
<g id="edge2" class="edge">
<title>Node2&#45;&gt;Node3</title>
<path fill="none" stroke="midnightblue" d="M134.17,-107.59C115.31,-97.61 90.12,-84.27 73.85,-75.65"/>
<polygon fill="midnightblue" stroke="midnightblue" points="132.64,-110.74 143.11,-112.32 135.91,-104.55 132.64,-110.74"/>
</g>
<!-- Node5&#45;&gt;Node4 -->
<g id="edge5" class="edge">
<title>Node5&#45;&gt;Node4</title>
<path fill="none" stroke="midnightblue" d="M350.3,-109.83C311.78,-99.63 255.68,-84.78 220.67,-75.52"/>
<polygon fill="midnightblue" stroke="midnightblue" points="349.61,-113.27 360.18,-112.44 351.4,-106.5 349.61,-113.27"/>
</g>
<!-- Node6 -->
<g id="node6" class="node">
<title>Node6</title>
<g id="a_node6"><a xlink:href="box__ops_8_h.html" target="_top" xlink:title=" ">
<polygon fill="white" stroke="black" points="261.5,-56.5 261.5,-75.5 329.5,-75.5 329.5,-56.5 261.5,-56.5"/>
<text text-anchor="middle" x="295.5" y="-63.5" font-family="Helvetica,sans-Serif" font-size="10.00">box_ops.H</text>
</a>
</g>
</g>
<!-- Node5&#45;&gt;Node6 -->
<g id="edge6" class="edge">
<title>Node5&#45;&gt;Node6</title>
<path fill="none" stroke="midnightblue" d="M368.16,-107.45C350.26,-97.48 326.45,-84.23 311.05,-75.65"/>
<polygon fill="midnightblue" stroke="midnightblue" points="366.48,-110.52 376.92,-112.32 369.88,-104.4 366.48,-110.52"/>
</g>
<!-- Node8 -->
<g id="node8" class="node">
<title>Node8</title>
<g id="a_node8"><a xlink:href="cylinder__ops_8_h.html" target="_top" xlink:title=" ">
<polygon fill="white" stroke="black" points="348,-56.5 348,-75.5 437,-75.5 437,-56.5 348,-56.5"/>
<text text-anchor="middle" x="392.5" y="-63.5" font-family="Helvetica,sans-Serif" font-size="10.00">cylinder_ops.H</text>
</a>
</g>
</g>
<!-- Node5&#45;&gt;Node8 -->
<g id="edge8" class="edge">
<title>Node5&#45;&gt;Node8</title>
<path fill="none" stroke="midnightblue" d="M392.5,-101.8C392.5,-92.91 392.5,-82.78 392.5,-75.75"/>
<polygon fill="midnightblue" stroke="midnightblue" points="389,-102.08 392.5,-112.08 396,-102.08 389,-102.08"/>
</g>
<!-- Node10 -->
<g id="node10" class="node">
<title>Node10</title>
<g id="a_node10"><a xlink:href="sphere__ops_8_h.html" target="_top" xlink:title=" ">
<polygon fill="white" stroke="black" points="455,-56.5 455,-75.5 538,-75.5 538,-56.5 455,-56.5"/>
<text text-anchor="middle" x="496.5" y="-63.5" font-family="Helvetica,sans-Serif" font-size="10.00">sphere_ops.H</text>
</a>
</g>
</g>
<!-- Node5&#45;&gt;Node10 -->
<g id="edge10" class="edge">
<title>Node5&#45;&gt;Node10</title>
<path fill="none" stroke="midnightblue" d="M418.33,-107.59C437.56,-97.61 463.24,-84.27 479.83,-75.65"/>
<polygon fill="midnightblue" stroke="midnightblue" points="416.47,-104.61 409.21,-112.32 419.7,-110.82 416.47,-104.61"/>
</g>
<!-- Node7 -->
<g id="node7" class="node">
<title>Node7</title>
<g id="a_node7"><a xlink:href="_box_8cpp.html" target="_top" xlink:title=" ">
<polygon fill="white" stroke="black" points="267.5,-0.5 267.5,-19.5 323.5,-19.5 323.5,-0.5 267.5,-0.5"/>
<text text-anchor="middle" x="295.5" y="-7.5" font-family="Helvetica,sans-Serif" font-size="10.00">Box.cpp</text>
</a>
</g>
</g>
<!-- Node6&#45;&gt;Node7 -->
<g id="edge7" class="edge">
<title>Node6&#45;&gt;Node7</title>
<path fill="none" stroke="midnightblue" d="M295.5,-45.8C295.5,-36.91 295.5,-26.78 295.5,-19.75"/>
<polygon fill="midnightblue" stroke="midnightblue" points="292,-46.08 295.5,-56.08 299,-46.08 292,-46.08"/>
</g>
<!-- Node9 -->
<g id="node9" class="node">
<title>Node9</title>
<g id="a_node9"><a xlink:href="_cylinder_8cpp.html" target="_top" xlink:title=" ">
<polygon fill="white" stroke="black" points="354,-0.5 354,-19.5 431,-19.5 431,-0.5 354,-0.5"/>
<text text-anchor="middle" x="392.5" y="-7.5" font-family="Helvetica,sans-Serif" font-size="10.00">Cylinder.cpp</text>
</a>
</g>
</g>
<!-- Node8&#45;&gt;Node9 -->
<g id="edge9" class="edge">
<title>Node8&#45;&gt;Node9</title>
<path fill="none" stroke="midnightblue" d="M392.5,-45.8C392.5,-36.91 392.5,-26.78 392.5,-19.75"/>
<polygon fill="midnightblue" stroke="midnightblue" points="389,-46.08 392.5,-56.08 396,-46.08 389,-46.08"/>
</g>
<!-- Node11 -->
<g id="node11" class="node">
<title>Node11</title>
<g id="a_node11"><a xlink:href="_sphere_8cpp.html" target="_top" xlink:title=" ">
<polygon fill="white" stroke="black" points="461,-0.5 461,-19.5 532,-19.5 532,-0.5 461,-0.5"/>
<text text-anchor="middle" x="496.5" y="-7.5" font-family="Helvetica,sans-Serif" font-size="10.00">Sphere.cpp</text>
</a>
</g>
</g>
<!-- Node10&#45;&gt;Node11 -->
<g id="edge11" class="edge">
<title>Node10&#45;&gt;Node11</title>
<path fill="none" stroke="midnightblue" d="M496.5,-45.8C496.5,-36.91 496.5,-26.78 496.5,-19.75"/>
<polygon fill="midnightblue" stroke="midnightblue" points="493,-46.08 496.5,-56.08 500,-46.08 493,-46.08"/>
</g>
<!-- Node13&#45;&gt;Node12 -->
<g id="edge18" class="edge">
<title>Node13&#45;&gt;Node12</title>
<path fill="none" stroke="midnightblue" d="M698.18,-107.18C680.7,-97.24 657.67,-84.15 642.73,-75.65"/>
<polygon fill="midnightblue" stroke="midnightblue" points="696.81,-110.43 707.24,-112.32 700.27,-104.34 696.81,-110.43"/>
</g>
<!-- Node14 -->
<g id="node14" class="node">
<title>Node14</title>
<g id="a_node14"><a xlink:href="hos__waves__ops_8_h.html" target="_top" xlink:title=" ">
<polygon fill="white" stroke="black" points="717.5,-56.5 717.5,-75.5 821.5,-75.5 821.5,-56.5 717.5,-56.5"/>
<text text-anchor="middle" x="769.5" y="-63.5" font-family="Helvetica,sans-Serif" font-size="10.00">hos_waves_ops.H</text>
</a>
</g>
</g>
<!-- Node13&#45;&gt;Node14 -->
<g id="edge14" class="edge">
<title>Node13&#45;&gt;Node14</title>
<path fill="none" stroke="midnightblue" d="M736.92,-104.43C745.16,-94.97 755.15,-83.48 761.88,-75.75"/>
<polygon fill="midnightblue" stroke="midnightblue" points="734.19,-102.24 730.26,-112.08 739.47,-106.84 734.19,-102.24"/>
</g>
<!-- Node16 -->
<g id="node16" class="node">
<title>Node16</title>
<g id="a_node16"><a xlink:href="linear__waves__ops_8_h.html" target="_top" xlink:title=" ">
<polygon fill="white" stroke="black" points="839.5,-56.5 839.5,-75.5 953.5,-75.5 953.5,-56.5 839.5,-56.5"/>
<text text-anchor="middle" x="896.5" y="-63.5" font-family="Helvetica,sans-Serif" font-size="10.00">linear_waves_ops.H</text>
</a>
</g>
</g>
<!-- Node13&#45;&gt;Node16 -->
<g id="edge16" class="edge">
<title>Node13&#45;&gt;Node16</title>
<path fill="none" stroke="midnightblue" d="M759.76,-109.44C792.57,-99.26 839.58,-84.66 869.06,-75.52"/>
<polygon fill="midnightblue" stroke="midnightblue" points="758.58,-106.14 750.07,-112.44 760.66,-112.82 758.58,-106.14"/>
</g>
<!-- Node18 -->
<g id="node18" class="node">
<title>Node18</title>
<g id="a_node18"><a xlink:href="stokes__waves__ops_8_h.html" target="_top" xlink:title=" ">
<polygon fill="white" stroke="black" points="971.5,-56.5 971.5,-75.5 1089.5,-75.5 1089.5,-56.5 971.5,-56.5"/>
<text text-anchor="middle" x="1030.5" y="-63.5" font-family="Helvetica,sans-Serif" font-size="10.00">stokes_waves_ops.H</text>
</a>
</g>
</g>
<!-- Node13&#45;&gt;Node18 -->
<g id="edge19" class="edge">
<title>Node13&#45;&gt;Node18</title>
<path fill="none" stroke="midnightblue" d="M781.45,-110.66C839.66,-100.46 927.61,-85.04 981.92,-75.52"/>
<polygon fill="midnightblue" stroke="midnightblue" points="780.55,-107.27 771.3,-112.44 781.76,-114.16 780.55,-107.27"/>
</g>
<!-- Node20 -->
<g id="node20" class="node">
<title>Node20</title>
<g id="a_node20"><a xlink:href="waves2amr__ops_8_h.html" target="_top" xlink:title=" ">
<polygon fill="white" stroke="black" points="1108,-56.5 1108,-75.5 1215,-75.5 1215,-56.5 1108,-56.5"/>
<text text-anchor="middle" x="1161.5" y="-63.5" font-family="Helvetica,sans-Serif" font-size="10.00">waves2amr_ops.H</text>
</a>
</g>
</g>
<!-- Node13&#45;&gt;Node20 -->
<g id="edge21" class="edge">
<title>Node13&#45;&gt;Node20</title>
<path fill="none" stroke="midnightblue" d="M799.37,-111.78C932.98,-95.85 968.18,-93.1 1098.5,-76 1101.57,-75.6 1104.72,-75.18 1107.9,-74.74"/>
<polygon fill="midnightblue" stroke="midnightblue" points="798.67,-108.34 789.16,-113 799.5,-115.29 798.67,-108.34"/>
</g>
<!-- Node15 -->
<g id="node15" class="node">
<title>Node15</title>
<g id="a_node15"><a xlink:href="_h_o_s_waves_8cpp.html" target="_top" xlink:title=" ">
<polygon fill="white" stroke="black" points="724.5,-0.5 724.5,-19.5 814.5,-19.5 814.5,-0.5 724.5,-0.5"/>
<text text-anchor="middle" x="769.5" y="-7.5" font-family="Helvetica,sans-Serif" font-size="10.00">HOSWaves.cpp</text>
</a>
</g>
</g>
<!-- Node14&#45;&gt;Node15 -->
<g id="edge15" class="edge">
<title>Node14&#45;&gt;Node15</title>
<path fill="none" stroke="midnightblue" d="M769.5,-45.8C769.5,-36.91 769.5,-26.78 769.5,-19.75"/>
<polygon fill="midnightblue" stroke="midnightblue" points="766,-46.08 769.5,-56.08 773,-46.08 766,-46.08"/>
</g>
<!-- Node17 -->
<g id="node17" class="node">
<title>Node17</title>
<g id="a_node17"><a xlink:href="_linear_waves_8cpp.html" target="_top" xlink:title=" ">
<polygon fill="white" stroke="black" points="847,-0.5 847,-19.5 946,-19.5 946,-0.5 847,-0.5"/>
<text text-anchor="middle" x="896.5" y="-7.5" font-family="Helvetica,sans-Serif" font-size="10.00">LinearWaves.cpp</text>
</a>
</g>
</g>
<!-- Node16&#45;&gt;Node17 -->
<g id="edge17" class="edge">
<title>Node16&#45;&gt;Node17</title>
<path fill="none" stroke="midnightblue" d="M896.5,-45.8C896.5,-36.91 896.5,-26.78 896.5,-19.75"/>
<polygon fill="midnightblue" stroke="midnightblue" points="893,-46.08 896.5,-56.08 900,-46.08 893,-46.08"/>
</g>
<!-- Node19 -->
<g id="node19" class="node">
<title>Node19</title>
<g id="a_node19"><a xlink:href="_stokes_waves_8cpp.html" target="_top" xlink:title=" ">
<polygon fill="white" stroke="black" points="980,-0.5 980,-19.5 1081,-19.5 1081,-0.5 980,-0.5"/>
<text text-anchor="middle" x="1030.5" y="-7.5" font-family="Helvetica,sans-Serif" font-size="10.00">StokesWaves.cpp</text>
</a>
</g>
</g>
<!-- Node18&#45;&gt;Node19 -->
<g id="edge20" class="edge">
<title>Node18&#45;&gt;Node19</title>
<path fill="none" stroke="midnightblue" d="M1030.5,-45.8C1030.5,-36.91 1030.5,-26.78 1030.5,-19.75"/>
<polygon fill="midnightblue" stroke="midnightblue" points="1027,-46.08 1030.5,-56.08 1034,-46.08 1027,-46.08"/>
</g>
<!-- Node21 -->
<g id="node21" class="node">
<title>Node21</title>
<g id="a_node21"><a xlink:href="_w2_a_waves_8cpp.html" target="_top" xlink:title=" ">
<polygon fill="white" stroke="black" points="1116,-0.5 1116,-19.5 1207,-19.5 1207,-0.5 1116,-0.5"/>
<text text-anchor="middle" x="1161.5" y="-7.5" font-family="Helvetica,sans-Serif" font-size="10.00">W2AWaves.cpp</text>
</a>
</g>
</g>
<!-- Node20&#45;&gt;Node21 -->
<g id="edge22" class="edge">
<title>Node20&#45;&gt;Node21</title>
<path fill="none" stroke="midnightblue" d="M1161.5,-45.8C1161.5,-36.91 1161.5,-26.78 1161.5,-19.75"/>
<polygon fill="midnightblue" stroke="midnightblue" points="1158,-46.08 1161.5,-56.08 1165,-46.08 1158,-46.08"/>
</g>
</g>
</svg>
