<?xml version="1.0" encoding="UTF-8" standalone="no"?>
<!DOCTYPE svg PUBLIC "-//W3C//DTD SVG 1.1//EN"
 "http://www.w3.org/Graphics/SVG/1.1/DTD/svg11.dtd">
<!-- Generated by graphviz version 2.43.0 (0)
 -->
<!-- Title: Graphical Class Hierarchy Pages: 1 -->
<svg width="317pt" height="1183pt"
 viewBox="0.00 0.00 317.00 1182.50" xmlns="http://www.w3.org/2000/svg" xmlns:xlink="http://www.w3.org/1999/xlink">
<g id="graph0" class="graph" transform="scale(1 1) rotate(0) translate(4 1178.5)">
<title>Graphical Class Hierarchy</title>
<polygon fill="white" stroke="transparent" points="-4,4 -4,-1178.5 313,-1178.5 313,4 -4,4"/>
<!-- Node381 -->
<g id="node1" class="node">
<title>Node381</title>
<g id="a_node1"><a xlink:title=" ">
<polygon fill="white" stroke="#bfbfbf" points="0,-611 0,-630 100,-630 100,-611 0,-611"/>
<text text-anchor="middle" x="50" y="-618" font-family="Helvetica,sans-Serif" font-size="10.00">Physics::Register</text>
</a>
</g>
</g>
<!-- Node0 -->
<g id="node2" class="node">
<title>Node0</title>
<g id="a_node2"><a xlink:href="classamr__wind_1_1_a_b_l.html" target="_top" xlink:title="Atmospheric Boundary Layer physics.">
<polygon fill="white" stroke="black" points="178,-1155 178,-1174 267,-1174 267,-1155 178,-1155"/>
<text text-anchor="middle" x="222.5" y="-1162" font-family="Helvetica,sans-Serif" font-size="10.00">amr_wind::ABL</text>
</a>
</g>
</g>
<!-- Node381&#45;&gt;Node0 -->
<g id="edge1" class="edge">
<title>Node381&#45;&gt;Node0</title>
<path fill="none" stroke="midnightblue" d="M51.34,-640.15C53.24,-726.39 65.2,-1070.46 136,-1145.5 146.75,-1156.89 162.69,-1162.19 177.9,-1164.46"/>
<polygon fill="midnightblue" stroke="midnightblue" points="54.84,-640.06 51.14,-630.14 47.84,-640.2 54.84,-640.06"/>
</g>
<!-- Node383 -->
<g id="node3" class="node">
<title>Node383</title>
<g id="a_node3"><a xlink:href="classamr__wind_1_1_actuator_source_tagging.html" target="_top" xlink:title="Tracer Tagging physics.">
<polygon fill="white" stroke="black" points="150,-1105.5 150,-1135.5 295,-1135.5 295,-1105.5 150,-1105.5"/>
<text text-anchor="start" x="158" y="-1123.5" font-family="Helvetica,sans-Serif" font-size="10.00">amr_wind::ActuatorSource</text>
<text text-anchor="middle" x="222.5" y="-1112.5" font-family="Helvetica,sans-Serif" font-size="10.00">Tagging</text>
</a>
</g>
</g>
<!-- Node381&#45;&gt;Node383 -->
<g id="edge2" class="edge">
<title>Node381&#45;&gt;Node383</title>
<path fill="none" stroke="midnightblue" d="M51.86,-640.71C55.72,-722.33 74.11,-1026.58 136,-1095.5 139.93,-1099.87 144.57,-1103.5 149.63,-1106.5"/>
<polygon fill="midnightblue" stroke="midnightblue" points="55.34,-640.17 51.39,-630.34 48.34,-640.48 55.34,-640.17"/>
</g>
<!-- Node384 -->
<g id="node4" class="node">
<title>Node384</title>
<g id="a_node4"><a xlink:href="classamr__wind_1_1_boussinesq_bubble.html" target="_top" xlink:title="Boussinesq Bubble physics.">
<polygon fill="white" stroke="black" points="142.5,-1067 142.5,-1086 302.5,-1086 302.5,-1067 142.5,-1067"/>
<text text-anchor="middle" x="222.5" y="-1074" font-family="Helvetica,sans-Serif" font-size="10.00">amr_wind::BoussinesqBubble</text>
</a>
</g>
</g>
<!-- Node381&#45;&gt;Node384 -->
<g id="edge3" class="edge">
<title>Node381&#45;&gt;Node384</title>
<path fill="none" stroke="midnightblue" d="M52.07,-640.68C56.59,-718.34 76.76,-996.67 136,-1057.5 139.71,-1061.31 144.01,-1064.44 148.66,-1066.99"/>
<polygon fill="midnightblue" stroke="midnightblue" points="55.54,-640.15 51.49,-630.36 48.56,-640.54 55.54,-640.15"/>
</g>
<!-- Node385 -->
<g id="node5" class="node">
<title>Node385</title>
<g id="a_node5"><a xlink:href="classamr__wind_1_1_breaking_waves.html" target="_top" xlink:title="Numerical Wave Basin physics.">
<polygon fill="white" stroke="black" points="149.5,-1029 149.5,-1048 295.5,-1048 295.5,-1029 149.5,-1029"/>
<text text-anchor="middle" x="222.5" y="-1036" font-family="Helvetica,sans-Serif" font-size="10.00">amr_wind::BreakingWaves</text>
</a>
</g>
</g>
<!-- Node381&#45;&gt;Node385 -->
<g id="edge4" class="edge">
<title>Node381&#45;&gt;Node385</title>
<path fill="none" stroke="midnightblue" d="M52.44,-640.32C58.16,-713.15 81.57,-964.59 136,-1019.5 139.85,-1023.39 144.31,-1026.56 149.14,-1029.14"/>
<polygon fill="midnightblue" stroke="midnightblue" points="55.93,-639.93 51.68,-630.22 48.95,-640.46 55.93,-639.93"/>
</g>
<!-- Node386 -->
<g id="node6" class="node">
<title>Node386</title>
<g id="a_node6"><a xlink:href="classamr__wind_1_1_dam_break.html" target="_top" xlink:title=" ">
<polygon fill="white" stroke="black" points="161.5,-991 161.5,-1010 283.5,-1010 283.5,-991 161.5,-991"/>
<text text-anchor="middle" x="222.5" y="-998" font-family="Helvetica,sans-Serif" font-size="10.00">amr_wind::DamBreak</text>
</a>
</g>
</g>
<!-- Node381&#45;&gt;Node386 -->
<g id="edge5" class="edge">
<title>Node381&#45;&gt;Node386</title>
<path fill="none" stroke="midnightblue" d="M52.95,-640.6C60.02,-709.22 86.52,-932.64 136,-981.5 143.03,-988.44 152.01,-993.09 161.48,-996.15"/>
<polygon fill="midnightblue" stroke="midnightblue" points="56.4,-639.91 51.92,-630.31 49.44,-640.61 56.4,-639.91"/>
</g>
<!-- Node387 -->
<g id="node7" class="node">
<title>Node387</title>
<g id="a_node7"><a xlink:href="classamr__wind_1_1_ekman_spiral.html" target="_top" xlink:title="Ekman Spiral physics.">
<polygon fill="white" stroke="black" points="156.5,-953 156.5,-972 288.5,-972 288.5,-953 156.5,-953"/>
<text text-anchor="middle" x="222.5" y="-960" font-family="Helvetica,sans-Serif" font-size="10.00">amr_wind::EkmanSpiral</text>
</a>
</g>
</g>
<!-- Node381&#45;&gt;Node387 -->
<g id="edge6" class="edge">
<title>Node381&#45;&gt;Node387</title>
<path fill="none" stroke="midnightblue" d="M53.54,-640.52C62.01,-704.23 91.35,-900.54 136,-943.5 141.81,-949.09 148.88,-953.18 156.43,-956.15"/>
<polygon fill="midnightblue" stroke="midnightblue" points="56.96,-639.7 52.2,-630.24 50.02,-640.61 56.96,-639.7"/>
</g>
<!-- Node388 -->
<g id="node8" class="node">
<title>Node388</title>
<g id="a_node8"><a xlink:href="classamr__wind_1_1_free_stream.html" target="_top" xlink:title="Freestream physics.">
<polygon fill="white" stroke="black" points="159,-915 159,-934 286,-934 286,-915 159,-915"/>
<text text-anchor="middle" x="222.5" y="-922" font-family="Helvetica,sans-Serif" font-size="10.00">amr_wind::FreeStream</text>
</a>
</g>
</g>
<!-- Node381&#45;&gt;Node388 -->
<g id="edge7" class="edge">
<title>Node381&#45;&gt;Node388</title>
<path fill="none" stroke="midnightblue" d="M50.55,-640.28C50.53,-692.11 58.01,-832.88 136,-905.5 142.45,-911.51 150.37,-915.77 158.76,-918.77"/>
<polygon fill="midnightblue" stroke="midnightblue" points="54.05,-640.15 50.66,-630.11 47.05,-640.07 54.05,-640.15"/>
</g>
<!-- Node389 -->
<g id="node9" class="node">
<title>Node389</title>
<g id="a_node9"><a xlink:href="classamr__wind_1_1_intermittency.html" target="_top" xlink:title="Dummy transition model for overset exchange of the gamma variable.">
<polygon fill="white" stroke="black" points="154,-877 154,-896 291,-896 291,-877 154,-877"/>
<text text-anchor="middle" x="222.5" y="-884" font-family="Helvetica,sans-Serif" font-size="10.00">amr_wind::Intermittency</text>
</a>
</g>
</g>
<!-- Node381&#45;&gt;Node389 -->
<g id="edge8" class="edge">
<title>Node381&#45;&gt;Node389</title>
<path fill="none" stroke="midnightblue" d="M51.6,-640.14C54.15,-687.05 67.41,-806.24 136,-867.5 141.22,-872.16 147.32,-875.76 153.82,-878.53"/>
<polygon fill="midnightblue" stroke="midnightblue" points="55.09,-639.93 51.16,-630.09 48.1,-640.23 55.09,-639.93"/>
</g>
<!-- Node390 -->
<g id="node10" class="node">
<title>Node390</title>
<g id="a_node10"><a xlink:href="classamr__wind_1_1_multi_phase.html" target="_top" xlink:title=" ">
<polygon fill="white" stroke="black" points="160,-839 160,-858 285,-858 285,-839 160,-839"/>
<text text-anchor="middle" x="222.5" y="-846" font-family="Helvetica,sans-Serif" font-size="10.00">amr_wind::MultiPhase</text>
</a>
</g>
</g>
<!-- Node381&#45;&gt;Node390 -->
<g id="edge9" class="edge">
<title>Node381&#45;&gt;Node390</title>
<path fill="none" stroke="midnightblue" d="M53,-640.2C58.34,-681.93 76.8,-779.48 136,-829.5 142.85,-835.29 151.09,-839.42 159.7,-842.35"/>
<polygon fill="midnightblue" stroke="midnightblue" points="56.47,-639.74 51.84,-630.21 49.52,-640.55 56.47,-639.74"/>
</g>
<!-- Node391 -->
<g id="node11" class="node">
<title>Node391</title>
<g id="a_node11"><a xlink:href="classamr__wind_1_1_rain_drop.html" target="_top" xlink:title=" ">
<polygon fill="white" stroke="black" points="164.5,-801 164.5,-820 280.5,-820 280.5,-801 164.5,-801"/>
<text text-anchor="middle" x="222.5" y="-808" font-family="Helvetica,sans-Serif" font-size="10.00">amr_wind::RainDrop</text>
</a>
</g>
</g>
<!-- Node381&#45;&gt;Node391 -->
<g id="edge10" class="edge">
<title>Node381&#45;&gt;Node391</title>
<path fill="none" stroke="midnightblue" d="M54.97,-640.26C63.29,-676.26 86.06,-752.41 136,-791.5 144.14,-797.87 153.99,-802.2 164.07,-805.12"/>
<polygon fill="midnightblue" stroke="midnightblue" points="58.31,-639.11 52.76,-630.08 51.47,-640.59 58.31,-639.11"/>
</g>
<!-- Node392 -->
<g id="node12" class="node">
<title>Node392</title>
<g id="a_node12"><a xlink:href="classamr__wind_1_1_rayleigh_taylor.html" target="_top" xlink:title="Rayleigh Taylor physics.">
<polygon fill="white" stroke="black" points="151,-763 151,-782 294,-782 294,-763 151,-763"/>
<text text-anchor="middle" x="222.5" y="-770" font-family="Helvetica,sans-Serif" font-size="10.00">amr_wind::RayleighTaylor</text>
</a>
</g>
</g>
<!-- Node381&#45;&gt;Node392 -->
<g id="edge11" class="edge">
<title>Node381&#45;&gt;Node392</title>
<path fill="none" stroke="midnightblue" d="M57.68,-639.54C69,-668.86 94.8,-724.68 136,-753.5 141.48,-757.33 147.61,-760.41 153.99,-762.88"/>
<polygon fill="midnightblue" stroke="midnightblue" points="60.92,-638.2 54.17,-630.04 54.35,-640.63 60.92,-638.2"/>
</g>
<!-- Node393 -->
<g id="node13" class="node">
<title>Node393</title>
<g id="a_node13"><a xlink:href="classamr__wind_1_1_scalar_advection.html" target="_top" xlink:title="Scalar Advection physics.">
<polygon fill="white" stroke="black" points="148,-725 148,-744 297,-744 297,-725 148,-725"/>
<text text-anchor="middle" x="222.5" y="-732" font-family="Helvetica,sans-Serif" font-size="10.00">amr_wind::ScalarAdvection</text>
</a>
</g>
</g>
<!-- Node381&#45;&gt;Node393 -->
<g id="edge12" class="edge">
<title>Node381&#45;&gt;Node393</title>
<path fill="none" stroke="midnightblue" d="M62.16,-638.74C76.47,-660.52 103.39,-696.41 136,-715.5 142.56,-719.34 149.82,-722.41 157.26,-724.85"/>
<polygon fill="midnightblue" stroke="midnightblue" points="64.97,-636.65 56.65,-630.1 59.07,-640.41 64.97,-636.65"/>
</g>
<!-- Node394 -->
<g id="node14" class="node">
<title>Node394</title>
<g id="a_node14"><a xlink:href="classamr__wind_1_1_sloshing_tank.html" target="_top" xlink:title=" ">
<polygon fill="white" stroke="black" points="155.5,-687 155.5,-706 289.5,-706 289.5,-687 155.5,-687"/>
<text text-anchor="middle" x="222.5" y="-694" font-family="Helvetica,sans-Serif" font-size="10.00">amr_wind::SloshingTank</text>
</a>
</g>
</g>
<!-- Node381&#45;&gt;Node394 -->
<g id="edge13" class="edge">
<title>Node381&#45;&gt;Node394</title>
<path fill="none" stroke="midnightblue" d="M70.55,-636.72C87.03,-649.6 111.75,-667.11 136,-677.5 144.95,-681.33 154.76,-684.44 164.46,-686.93"/>
<polygon fill="midnightblue" stroke="midnightblue" points="72.29,-633.63 62.29,-630.11 67.92,-639.09 72.29,-633.63"/>
</g>
<!-- Node395 -->
<g id="node15" class="node">
<title>Node395</title>
<g id="a_node15"><a xlink:href="classamr__wind_1_1_synthetic_turbulence.html" target="_top" xlink:title=" ">
<polygon fill="white" stroke="black" points="138,-649 138,-668 307,-668 307,-649 138,-649"/>
<text text-anchor="middle" x="222.5" y="-656" font-family="Helvetica,sans-Serif" font-size="10.00">amr_wind::SyntheticTurbulence</text>
</a>
</g>
</g>
<!-- Node381&#45;&gt;Node395 -->
<g id="edge14" class="edge">
<title>Node381&#45;&gt;Node395</title>
<path fill="none" stroke="midnightblue" d="M103.83,-632.32C114.48,-634.7 125.6,-637.18 136,-639.5 149.8,-642.58 164.86,-645.92 178.44,-648.94"/>
<polygon fill="midnightblue" stroke="midnightblue" points="104.33,-628.84 93.8,-630.08 102.8,-635.68 104.33,-628.84"/>
</g>
<!-- Node396 -->
<g id="node16" class="node">
<title>Node396</title>
<g id="a_node16"><a xlink:href="classamr__wind_1_1_taylor_green_vortex.html" target="_top" xlink:title="Taylor Green Vortex physics.">
<polygon fill="white" stroke="black" points="142,-611 142,-630 303,-630 303,-611 142,-611"/>
<text text-anchor="middle" x="222.5" y="-618" font-family="Helvetica,sans-Serif" font-size="10.00">amr_wind::TaylorGreenVortex</text>
</a>
</g>
</g>
<!-- Node381&#45;&gt;Node396 -->
<g id="edge15" class="edge">
<title>Node381&#45;&gt;Node396</title>
<path fill="none" stroke="midnightblue" d="M110.6,-620.5C120.68,-620.5 131.29,-620.5 141.78,-620.5"/>
<polygon fill="midnightblue" stroke="midnightblue" points="110.32,-617 100.32,-620.5 110.32,-624 110.32,-617"/>
</g>
<!-- Node397 -->
<g id="node17" class="node">
<title>Node397</title>
<g id="a_node17"><a xlink:href="classamr__wind_1_1_vortex_dipole.html" target="_top" xlink:title="Vortex dipole Physics.">
<polygon fill="white" stroke="black" points="155.5,-573 155.5,-592 289.5,-592 289.5,-573 155.5,-573"/>
<text text-anchor="middle" x="222.5" y="-580" font-family="Helvetica,sans-Serif" font-size="10.00">amr_wind::VortexDipole</text>
</a>
</g>
</g>
<!-- Node381&#45;&gt;Node397 -->
<g id="edge16" class="edge">
<title>Node381&#45;&gt;Node397</title>
<path fill="none" stroke="midnightblue" d="M103.83,-608.68C114.48,-606.3 125.6,-603.82 136,-601.5 149.8,-598.42 164.86,-595.08 178.44,-592.06"/>
<polygon fill="midnightblue" stroke="midnightblue" points="102.8,-605.32 93.8,-610.92 104.33,-612.16 102.8,-605.32"/>
</g>
<!-- Node398 -->
<g id="node18" class="node">
<title>Node398</title>
<g id="a_node18"><a xlink:href="classamr__wind_1_1_vortex_patch.html" target="_top" xlink:title=" ">
<polygon fill="white" stroke="black" points="158.5,-535 158.5,-554 286.5,-554 286.5,-535 158.5,-535"/>
<text text-anchor="middle" x="222.5" y="-542" font-family="Helvetica,sans-Serif" font-size="10.00">amr_wind::VortexPatch</text>
</a>
</g>
</g>
<!-- Node381&#45;&gt;Node398 -->
<g id="edge17" class="edge">
<title>Node381&#45;&gt;Node398</title>
<path fill="none" stroke="midnightblue" d="M70.55,-604.28C87.03,-591.4 111.75,-573.89 136,-563.5 144.95,-559.67 154.76,-556.56 164.46,-554.07"/>
<polygon fill="midnightblue" stroke="midnightblue" points="67.92,-601.91 62.29,-610.89 72.29,-607.37 67.92,-601.91"/>
</g>
<!-- Node399 -->
<g id="node19" class="node">
<title>Node399</title>
<g id="a_node19"><a xlink:href="classamr__wind_1_1_vortex_patch_scalar_vel.html" target="_top" xlink:title=" ">
<polygon fill="white" stroke="black" points="136,-497 136,-516 309,-516 309,-497 136,-497"/>
<text text-anchor="middle" x="222.5" y="-504" font-family="Helvetica,sans-Serif" font-size="10.00">amr_wind::VortexPatchScalarVel</text>
</a>
</g>
</g>
<!-- Node381&#45;&gt;Node399 -->
<g id="edge18" class="edge">
<title>Node381&#45;&gt;Node399</title>
<path fill="none" stroke="midnightblue" d="M62.16,-602.26C76.47,-580.48 103.39,-544.59 136,-525.5 142.56,-521.66 149.82,-518.59 157.26,-516.15"/>
<polygon fill="midnightblue" stroke="midnightblue" points="59.07,-600.59 56.65,-610.9 64.97,-604.35 59.07,-600.59"/>
</g>
<!-- Node400 -->
<g id="node20" class="node">
<title>Node400</title>
<g id="a_node20"><a xlink:href="classamr__wind_1_1_vortex_ring.html" target="_top" xlink:title="Vortex ring physics.">
<polygon fill="white" stroke="black" points="160.5,-459 160.5,-478 284.5,-478 284.5,-459 160.5,-459"/>
<text text-anchor="middle" x="222.5" y="-466" font-family="Helvetica,sans-Serif" font-size="10.00">amr_wind::VortexRing</text>
</a>
</g>
</g>
<!-- Node381&#45;&gt;Node400 -->
<g id="edge19" class="edge">
<title>Node381&#45;&gt;Node400</title>
<path fill="none" stroke="midnightblue" d="M57.68,-601.46C69,-572.14 94.8,-516.32 136,-487.5 143.23,-482.44 151.57,-478.7 160.15,-475.94"/>
<polygon fill="midnightblue" stroke="midnightblue" points="54.35,-600.37 54.17,-610.96 60.92,-602.8 54.35,-600.37"/>
</g>
<!-- Node401 -->
<g id="node21" class="node">
<title>Node401</title>
<g id="a_node21"><a xlink:href="classamr__wind_1_1_zalesak_disk.html" target="_top" xlink:title=" ">
<polygon fill="white" stroke="black" points="157,-421 157,-440 288,-440 288,-421 157,-421"/>
<text text-anchor="middle" x="222.5" y="-428" font-family="Helvetica,sans-Serif" font-size="10.00">amr_wind::ZalesakDisk</text>
</a>
</g>
</g>
<!-- Node381&#45;&gt;Node401 -->
<g id="edge20" class="edge">
<title>Node381&#45;&gt;Node401</title>
<path fill="none" stroke="midnightblue" d="M54.97,-600.74C63.29,-564.74 86.06,-488.59 136,-449.5 142.11,-444.72 149.17,-441.09 156.58,-438.34"/>
<polygon fill="midnightblue" stroke="midnightblue" points="51.47,-600.41 52.76,-610.92 58.31,-601.89 51.47,-600.41"/>
</g>
<!-- Node402 -->
<g id="node22" class="node">
<title>Node402</title>
<g id="a_node22"><a xlink:href="classamr__wind_1_1actuator_1_1_actuator.html" target="_top" xlink:title="Actuator line/disk modeling for wind turbines.">
<polygon fill="white" stroke="black" points="167,-371.5 167,-401.5 278,-401.5 278,-371.5 167,-371.5"/>
<text text-anchor="start" x="175" y="-389.5" font-family="Helvetica,sans-Serif" font-size="10.00">amr_wind::actuator</text>
<text text-anchor="middle" x="222.5" y="-378.5" font-family="Helvetica,sans-Serif" font-size="10.00">::Actuator</text>
</a>
</g>
</g>
<!-- Node381&#45;&gt;Node402 -->
<g id="edge21" class="edge">
<title>Node381&#45;&gt;Node402</title>
<path fill="none" stroke="midnightblue" d="M53.3,-600.83C59.18,-559.53 78.6,-463.33 136,-411.5 144.61,-403.73 155.51,-398.36 166.63,-394.66"/>
<polygon fill="midnightblue" stroke="midnightblue" points="49.8,-600.57 51.98,-610.94 56.74,-601.48 49.8,-600.57"/>
</g>
<!-- Node403 -->
<g id="node23" class="node">
<title>Node403</title>
<g id="a_node23"><a xlink:href="classamr__wind_1_1burggraf_1_1_burggraf_flow.html" target="_top" xlink:title="Burggraf Flow physics.">
<polygon fill="white" stroke="black" points="166.5,-322.5 166.5,-352.5 278.5,-352.5 278.5,-322.5 166.5,-322.5"/>
<text text-anchor="start" x="174.5" y="-340.5" font-family="Helvetica,sans-Serif" font-size="10.00">amr_wind::burggraf</text>
<text text-anchor="middle" x="222.5" y="-329.5" font-family="Helvetica,sans-Serif" font-size="10.00">::BurggrafFlow</text>
</a>
</g>
</g>
<!-- Node381&#45;&gt;Node403 -->
<g id="edge22" class="edge">
<title>Node381&#45;&gt;Node403</title>
<path fill="none" stroke="midnightblue" d="M51.56,-600.63C54.02,-552.58 67.09,-429.12 136,-362.5 144.34,-354.44 155.13,-348.95 166.22,-345.23"/>
<polygon fill="midnightblue" stroke="midnightblue" points="48.05,-600.77 51.14,-610.91 55.05,-601.06 48.05,-600.77"/>
</g>
<!-- Node404 -->
<g id="node24" class="node">
<title>Node404</title>
<g id="a_node24"><a xlink:href="classamr__wind_1_1channel__flow_1_1_channel_flow.html" target="_top" xlink:title="Channel Flow physics.">
<polygon fill="white" stroke="black" points="155.5,-273.5 155.5,-303.5 289.5,-303.5 289.5,-273.5 155.5,-273.5"/>
<text text-anchor="start" x="163.5" y="-291.5" font-family="Helvetica,sans-Serif" font-size="10.00">amr_wind::channel_flow</text>
<text text-anchor="middle" x="222.5" y="-280.5" font-family="Helvetica,sans-Serif" font-size="10.00">::ChannelFlow</text>
</a>
</g>
</g>
<!-- Node381&#45;&gt;Node404 -->
<g id="edge23" class="edge">
<title>Node381&#45;&gt;Node404</title>
<path fill="none" stroke="midnightblue" d="M50.32,-600.62C49.62,-546.53 55.34,-395.33 136,-313.5 141.54,-307.88 148.26,-303.51 155.48,-300.11"/>
<polygon fill="midnightblue" stroke="midnightblue" points="46.83,-600.97 50.56,-610.89 53.83,-600.81 46.83,-600.97"/>
</g>
<!-- Node405 -->
<g id="node25" class="node">
<title>Node405</title>
<g id="a_node25"><a xlink:href="classamr__wind_1_1ctv_1_1_convecting_taylor_vortex.html" target="_top" xlink:title="Convecting Taylor Vortex physics.">
<polygon fill="white" stroke="black" points="149.5,-224.5 149.5,-254.5 295.5,-254.5 295.5,-224.5 149.5,-224.5"/>
<text text-anchor="start" x="157.5" y="-242.5" font-family="Helvetica,sans-Serif" font-size="10.00">amr_wind::ctv::Convecting</text>
<text text-anchor="middle" x="222.5" y="-231.5" font-family="Helvetica,sans-Serif" font-size="10.00">TaylorVortex</text>
</a>
</g>
</g>
<!-- Node381&#45;&gt;Node405 -->
<g id="edge24" class="edge">
<title>Node381&#45;&gt;Node405</title>
<path fill="none" stroke="midnightblue" d="M53.11,-600.79C60.71,-533.49 88.7,-314.23 136,-264.5 139.94,-260.35 144.53,-256.88 149.5,-253.98"/>
<polygon fill="midnightblue" stroke="midnightblue" points="49.62,-600.56 52,-610.88 56.57,-601.32 49.62,-600.56"/>
</g>
<!-- Node406 -->
<g id="node26" class="node">
<title>Node406</title>
<g id="a_node26"><a xlink:href="classamr__wind_1_1hybrid__rans__les__abl_1_1_hybrid_r_a_n_s_l_e_s_a_b_l.html" target="_top" xlink:title="Hybrid RANS/LES with ABL.">
<polygon fill="white" stroke="black" points="143.5,-175.5 143.5,-205.5 301.5,-205.5 301.5,-175.5 143.5,-175.5"/>
<text text-anchor="start" x="151.5" y="-193.5" font-family="Helvetica,sans-Serif" font-size="10.00">amr_wind::hybrid_rans</text>
<text text-anchor="middle" x="222.5" y="-182.5" font-family="Helvetica,sans-Serif" font-size="10.00">_les_abl::HybridRANSLESABL</text>
</a>
</g>
</g>
<!-- Node381&#45;&gt;Node406 -->
<g id="edge25" class="edge">
<title>Node381&#45;&gt;Node406</title>
<path fill="none" stroke="midnightblue" d="M52.52,-600.5C58.5,-527 82.74,-273.06 136,-215.5 139.57,-211.64 143.7,-208.37 148.18,-205.59"/>
<polygon fill="midnightblue" stroke="midnightblue" points="49.01,-600.45 51.72,-610.69 55.99,-601 49.01,-600.45"/>
</g>
<!-- Node407 -->
<g id="node27" class="node">
<title>Node407</title>
<g id="a_node27"><a xlink:href="classamr__wind_1_1ib_1_1_i_b.html" target="_top" xlink:title="Immersed boundary modeling for non&#45;blade wind components and complex terrain.">
<polygon fill="white" stroke="black" points="175,-137 175,-156 270,-156 270,-137 175,-137"/>
<text text-anchor="middle" x="222.5" y="-144" font-family="Helvetica,sans-Serif" font-size="10.00">amr_wind::ib::IB</text>
</a>
</g>
</g>
<!-- Node381&#45;&gt;Node407 -->
<g id="edge26" class="edge">
<title>Node381&#45;&gt;Node407</title>
<path fill="none" stroke="midnightblue" d="M51.92,-600.58C55.97,-521.43 74.86,-230.44 136,-166.5 146.11,-155.92 160.67,-150.47 174.91,-147.78"/>
<polygon fill="midnightblue" stroke="midnightblue" points="48.42,-600.51 51.42,-610.66 55.41,-600.85 48.42,-600.51"/>
</g>
<!-- Node408 -->
<g id="node28" class="node">
<title>Node408</title>
<g id="a_node28"><a xlink:href="classamr__wind_1_1mms_1_1_m_m_s.html" target="_top" xlink:title="Method of manufactured solutions physics.">
<polygon fill="white" stroke="black" points="160,-99 160,-118 285,-118 285,-99 160,-99"/>
<text text-anchor="middle" x="222.5" y="-106" font-family="Helvetica,sans-Serif" font-size="10.00">amr_wind::mms::MMS</text>
</a>
</g>
</g>
<!-- Node381&#45;&gt;Node408 -->
<g id="edge27" class="edge">
<title>Node381&#45;&gt;Node408</title>
<path fill="none" stroke="midnightblue" d="M51.58,-600.48C54.4,-516.94 69.47,-197.3 136,-127.5 142.5,-120.68 150.87,-116.04 159.82,-112.94"/>
<polygon fill="midnightblue" stroke="midnightblue" points="48.07,-600.54 51.26,-610.65 55.07,-600.76 48.07,-600.54"/>
</g>
<!-- Node409 -->
<g id="node29" class="node">
<title>Node409</title>
<g id="a_node29"><a xlink:href="classamr__wind_1_1ocean__waves_1_1_ocean_waves.html" target="_top" xlink:title="ocean waves modeling">
<polygon fill="white" stroke="black" points="154,-49.5 154,-79.5 291,-79.5 291,-49.5 154,-49.5"/>
<text text-anchor="start" x="162" y="-67.5" font-family="Helvetica,sans-Serif" font-size="10.00">amr_wind::ocean_waves</text>
<text text-anchor="middle" x="222.5" y="-56.5" font-family="Helvetica,sans-Serif" font-size="10.00">::OceanWaves</text>
</a>
</g>
</g>
<!-- Node381&#45;&gt;Node409 -->
<g id="edge28" class="edge">
<title>Node381&#45;&gt;Node409</title>
<path fill="none" stroke="midnightblue" d="M51.43,-600.74C53.7,-514 67.02,-167.75 136,-89.5 140.91,-83.93 146.98,-79.57 153.61,-76.16"/>
<polygon fill="midnightblue" stroke="midnightblue" points="47.93,-600.73 51.18,-610.81 54.92,-600.9 47.93,-600.73"/>
</g>
<!-- Node410 -->
<g id="node30" class="node">
<title>Node410</title>
<g id="a_node30"><a xlink:href="classamr__wind_1_1zds_1_1_zalesak_disk_scalar_vel.html" target="_top" xlink:title=" ">
<polygon fill="white" stroke="black" points="145.5,-0.5 145.5,-30.5 299.5,-30.5 299.5,-0.5 145.5,-0.5"/>
<text text-anchor="start" x="153.5" y="-18.5" font-family="Helvetica,sans-Serif" font-size="10.00">amr_wind::zds::ZalesakDisk</text>
<text text-anchor="middle" x="222.5" y="-7.5" font-family="Helvetica,sans-Serif" font-size="10.00">ScalarVel</text>
</a>
</g>
</g>
<!-- Node381&#45;&gt;Node410 -->
<g id="edge29" class="edge">
<title>Node381&#45;&gt;Node410</title>
<path fill="none" stroke="midnightblue" d="M51.13,-600.7C52.15,-509.06 60.9,-126.84 136,-40.5 139.35,-36.65 143.26,-33.38 147.52,-30.6"/>
<polygon fill="midnightblue" stroke="midnightblue" points="47.63,-600.79 51.04,-610.82 54.63,-600.85 47.63,-600.79"/>
</g>
</g>
</svg>
