<?xml version="1.0" encoding="UTF-8" standalone="no"?>
<!DOCTYPE svg PUBLIC "-//W3C//DTD SVG 1.1//EN"
 "http://www.w3.org/Graphics/SVG/1.1/DTD/svg11.dtd">
<!-- Generated by graphviz version 2.43.0 (0)
 -->
<!-- Title: linear_interpolation.H Pages: 1 -->
<svg width="1722pt" height="252pt"
 viewBox="0.00 0.00 1722.00 252.00" xmlns="http://www.w3.org/2000/svg" xmlns:xlink="http://www.w3.org/1999/xlink">
<g id="graph0" class="graph" transform="scale(1 1) rotate(0) translate(4 248)">
<title>linear_interpolation.H</title>
<polygon fill="white" stroke="transparent" points="-4,4 -4,-248 1718,-248 1718,4 -4,4"/>
<!-- Node1 -->
<g id="node1" class="node">
<title>Node1</title>
<g id="a_node1"><a xlink:title=" ">
<polygon fill="#bfbfbf" stroke="black" points="802.5,-224.5 802.5,-243.5 924.5,-243.5 924.5,-224.5 802.5,-224.5"/>
<text text-anchor="middle" x="863.5" y="-231.5" font-family="Helvetica,sans-Serif" font-size="10.00">linear_interpolation.H</text>
</a>
</g>
</g>
<!-- Node2 -->
<g id="node2" class="node">
<title>Node2</title>
<g id="a_node2"><a xlink:href="_a_b_l_forcing_8_h.html" target="_top" xlink:title=" ">
<polygon fill="white" stroke="black" points="97,-168.5 97,-187.5 178,-187.5 178,-168.5 97,-168.5"/>
<text text-anchor="middle" x="137.5" y="-175.5" font-family="Helvetica,sans-Serif" font-size="10.00">ABLForcing.H</text>
</a>
</g>
</g>
<!-- Node1&#45;&gt;Node2 -->
<g id="edge1" class="edge">
<title>Node1&#45;&gt;Node2</title>
<path fill="none" stroke="midnightblue" d="M792.14,-230.87C668.57,-226.59 406.94,-214.97 187.5,-188 184.44,-187.62 181.28,-187.18 178.1,-186.7"/>
<polygon fill="midnightblue" stroke="midnightblue" points="792.12,-234.37 802.23,-231.21 792.35,-227.37 792.12,-234.37"/>
</g>
<!-- Node6 -->
<g id="node6" class="node">
<title>Node6</title>
<g id="a_node6"><a xlink:href="icns_2source__terms_2_body_force_8cpp.html" target="_top" xlink:title=" ">
<polygon fill="white" stroke="black" points="196.5,-168.5 196.5,-187.5 284.5,-187.5 284.5,-168.5 196.5,-168.5"/>
<text text-anchor="middle" x="240.5" y="-175.5" font-family="Helvetica,sans-Serif" font-size="10.00">BodyForce.cpp</text>
</a>
</g>
</g>
<!-- Node1&#45;&gt;Node6 -->
<g id="edge5" class="edge">
<title>Node1&#45;&gt;Node6</title>
<path fill="none" stroke="midnightblue" d="M792.02,-229.41C683.84,-223.52 472.2,-210.18 293.5,-188 290.63,-187.64 287.68,-187.24 284.7,-186.81"/>
<polygon fill="midnightblue" stroke="midnightblue" points="791.99,-232.92 802.16,-229.96 792.37,-225.93 791.99,-232.92"/>
</g>
<!-- Node7 -->
<g id="node7" class="node">
<title>Node7</title>
<g id="a_node7"><a xlink:href="_geostrophic_forcing_8cpp.html" target="_top" xlink:title=" ">
<polygon fill="white" stroke="black" points="303,-168.5 303,-187.5 434,-187.5 434,-168.5 303,-168.5"/>
<text text-anchor="middle" x="368.5" y="-175.5" font-family="Helvetica,sans-Serif" font-size="10.00">GeostrophicForcing.cpp</text>
</a>
</g>
</g>
<!-- Node1&#45;&gt;Node7 -->
<g id="edge6" class="edge">
<title>Node1&#45;&gt;Node7</title>
<path fill="none" stroke="midnightblue" d="M792.12,-225.63C708.53,-216.94 565.91,-201.9 443.5,-188 440.5,-187.66 437.44,-187.31 434.34,-186.95"/>
<polygon fill="midnightblue" stroke="midnightblue" points="791.96,-229.13 802.26,-226.68 792.68,-222.17 791.96,-229.13"/>
</g>
<!-- Node8 -->
<g id="node8" class="node">
<title>Node8</title>
<g id="a_node8"><a xlink:href="_a_m_d_8_h.html" target="_top" xlink:title=" ">
<polygon fill="white" stroke="black" points="452.5,-168.5 452.5,-187.5 502.5,-187.5 502.5,-168.5 452.5,-168.5"/>
<text text-anchor="middle" x="477.5" y="-175.5" font-family="Helvetica,sans-Serif" font-size="10.00">AMD.H</text>
</a>
</g>
</g>
<!-- Node1&#45;&gt;Node8 -->
<g id="edge7" class="edge">
<title>Node1&#45;&gt;Node8</title>
<path fill="none" stroke="midnightblue" d="M792.15,-226.66C720.72,-219.66 607.89,-206.83 511.5,-188 508.62,-187.44 505.63,-186.77 502.67,-186.06"/>
<polygon fill="midnightblue" stroke="midnightblue" points="792.09,-230.17 802.38,-227.65 792.76,-223.2 792.09,-230.17"/>
</g>
<!-- Node10 -->
<g id="node10" class="node">
<title>Node10</title>
<g id="a_node10"><a xlink:href="_d_t_u_spinner_sampler_8cpp.html" target="_top" xlink:title=" ">
<polygon fill="white" stroke="black" points="520.5,-168.5 520.5,-187.5 654.5,-187.5 654.5,-168.5 520.5,-168.5"/>
<text text-anchor="middle" x="587.5" y="-175.5" font-family="Helvetica,sans-Serif" font-size="10.00">DTUSpinnerSampler.cpp</text>
</a>
</g>
</g>
<!-- Node1&#45;&gt;Node10 -->
<g id="edge9" class="edge">
<title>Node1&#45;&gt;Node10</title>
<path fill="none" stroke="midnightblue" d="M809.7,-222.47C757.54,-212.27 679.39,-196.98 631.03,-187.52"/>
<polygon fill="midnightblue" stroke="midnightblue" points="809.28,-225.96 819.77,-224.44 810.63,-219.09 809.28,-225.96"/>
</g>
<!-- Node11 -->
<g id="node11" class="node">
<title>Node11</title>
<g id="a_node11"><a xlink:href="_lidar_sampler_8cpp.html" target="_top" xlink:title=" ">
<polygon fill="white" stroke="black" points="673,-168.5 673,-187.5 774,-187.5 774,-168.5 673,-168.5"/>
<text text-anchor="middle" x="723.5" y="-175.5" font-family="Helvetica,sans-Serif" font-size="10.00">LidarSampler.cpp</text>
</a>
</g>
</g>
<!-- Node1&#45;&gt;Node11 -->
<g id="edge10" class="edge">
<title>Node1&#45;&gt;Node11</title>
<path fill="none" stroke="midnightblue" d="M831.8,-220.77C805.5,-210.63 768.78,-196.47 745.58,-187.52"/>
<polygon fill="midnightblue" stroke="midnightblue" points="830.73,-224.11 841.32,-224.44 833.25,-217.58 830.73,-224.11"/>
</g>
<!-- Node12 -->
<g id="node12" class="node">
<title>Node12</title>
<g id="a_node12"><a xlink:href="_a_b_l_mesoscale_forcing_8cpp.html" target="_top" xlink:title=" ">
<polygon fill="white" stroke="black" points="792,-168.5 792,-187.5 935,-187.5 935,-168.5 792,-168.5"/>
<text text-anchor="middle" x="863.5" y="-175.5" font-family="Helvetica,sans-Serif" font-size="10.00">ABLMesoscaleForcing.cpp</text>
</a>
</g>
</g>
<!-- Node1&#45;&gt;Node12 -->
<g id="edge11" class="edge">
<title>Node1&#45;&gt;Node12</title>
<path fill="none" stroke="midnightblue" d="M863.5,-213.8C863.5,-204.91 863.5,-194.78 863.5,-187.75"/>
<polygon fill="midnightblue" stroke="midnightblue" points="860,-214.08 863.5,-224.08 867,-214.08 860,-214.08"/>
</g>
<!-- Node13 -->
<g id="node13" class="node">
<title>Node13</title>
<g id="a_node13"><a xlink:href="_airfoil_table_8cpp.html" target="_top" xlink:title=" ">
<polygon fill="white" stroke="black" points="953.5,-168.5 953.5,-187.5 1045.5,-187.5 1045.5,-168.5 953.5,-168.5"/>
<text text-anchor="middle" x="999.5" y="-175.5" font-family="Helvetica,sans-Serif" font-size="10.00">AirfoilTable.cpp</text>
</a>
</g>
</g>
<!-- Node1&#45;&gt;Node13 -->
<g id="edge12" class="edge">
<title>Node1&#45;&gt;Node13</title>
<path fill="none" stroke="midnightblue" d="M894.63,-220.64C920.16,-210.5 955.61,-196.43 978.05,-187.52"/>
<polygon fill="midnightblue" stroke="midnightblue" points="893.05,-217.5 885.05,-224.44 895.64,-224.01 893.05,-217.5"/>
</g>
<!-- Node14 -->
<g id="node14" class="node">
<title>Node14</title>
<g id="a_node14"><a xlink:href="disk__ops_8_h.html" target="_top" xlink:title=" ">
<polygon fill="white" stroke="black" points="1063.5,-168.5 1063.5,-187.5 1133.5,-187.5 1133.5,-168.5 1063.5,-168.5"/>
<text text-anchor="middle" x="1098.5" y="-175.5" font-family="Helvetica,sans-Serif" font-size="10.00">disk_ops.H</text>
</a>
</g>
</g>
<!-- Node1&#45;&gt;Node14 -->
<g id="edge13" class="edge">
<title>Node1&#45;&gt;Node14</title>
<path fill="none" stroke="midnightblue" d="M910.57,-222.18C955.68,-211.82 1022.73,-196.41 1063.36,-187.08"/>
<polygon fill="midnightblue" stroke="midnightblue" points="909.7,-218.79 900.74,-224.44 911.27,-225.62 909.7,-218.79"/>
</g>
<!-- Node17 -->
<g id="node17" class="node">
<title>Node17</title>
<g id="a_node17"><a xlink:href="_joukowsky__ops_8_h.html" target="_top" xlink:title=" ">
<polygon fill="white" stroke="black" points="1043,-112.5 1043,-131.5 1144,-131.5 1144,-112.5 1043,-112.5"/>
<text text-anchor="middle" x="1093.5" y="-119.5" font-family="Helvetica,sans-Serif" font-size="10.00">Joukowsky_ops.H</text>
</a>
</g>
</g>
<!-- Node1&#45;&gt;Node17 -->
<g id="edge22" class="edge">
<title>Node1&#45;&gt;Node17</title>
<path fill="none" stroke="midnightblue" d="M934.9,-231.64C1008.58,-228.54 1116.33,-218.73 1142.5,-188 1158.99,-168.63 1128.07,-144.37 1108.25,-131.66"/>
<polygon fill="midnightblue" stroke="midnightblue" points="934.6,-228.15 924.75,-232.03 934.87,-235.14 934.6,-228.15"/>
</g>
<!-- Node19 -->
<g id="node19" class="node">
<title>Node19</title>
<g id="a_node19"><a xlink:href="uniform__ct__ops_8_h.html" target="_top" xlink:title=" ">
<polygon fill="white" stroke="black" points="1162.5,-112.5 1162.5,-131.5 1264.5,-131.5 1264.5,-112.5 1162.5,-112.5"/>
<text text-anchor="middle" x="1213.5" y="-119.5" font-family="Helvetica,sans-Serif" font-size="10.00">uniform_ct_ops.H</text>
</a>
</g>
</g>
<!-- Node1&#45;&gt;Node19 -->
<g id="edge23" class="edge">
<title>Node1&#45;&gt;Node19</title>
<path fill="none" stroke="midnightblue" d="M934.98,-227.98C1010.01,-221.69 1122.17,-209.09 1159.5,-188 1183.26,-174.58 1201,-146.35 1208.92,-131.91"/>
<polygon fill="midnightblue" stroke="midnightblue" points="934.33,-224.52 924.65,-228.82 934.9,-231.5 934.33,-224.52"/>
</g>
<!-- Node21 -->
<g id="node21" class="node">
<title>Node21</title>
<g id="a_node21"><a xlink:href="_f_l_l_c_op_8_h.html" target="_top" xlink:title=" ">
<polygon fill="white" stroke="black" points="1304.5,-168.5 1304.5,-187.5 1368.5,-187.5 1368.5,-168.5 1304.5,-168.5"/>
<text text-anchor="middle" x="1336.5" y="-175.5" font-family="Helvetica,sans-Serif" font-size="10.00">FLLCOp.H</text>
</a>
</g>
</g>
<!-- Node1&#45;&gt;Node21 -->
<g id="edge24" class="edge">
<title>Node1&#45;&gt;Node21</title>
<path fill="none" stroke="midnightblue" d="M934.99,-224.84C1039.36,-212.92 1229.21,-191.25 1304.5,-182.65"/>
<polygon fill="midnightblue" stroke="midnightblue" points="934.39,-221.38 924.85,-226 935.18,-228.34 934.39,-221.38"/>
</g>
<!-- Node25 -->
<g id="node25" class="node">
<title>Node25</title>
<g id="a_node25"><a xlink:href="fixed__wing__ops_8_h.html" target="_top" xlink:title=" ">
<polygon fill="white" stroke="black" points="1613,-56.5 1613,-75.5 1714,-75.5 1714,-56.5 1613,-56.5"/>
<text text-anchor="middle" x="1663.5" y="-63.5" font-family="Helvetica,sans-Serif" font-size="10.00">fixed_wing_ops.H</text>
</a>
</g>
</g>
<!-- Node1&#45;&gt;Node25 -->
<g id="edge33" class="edge">
<title>Node1&#45;&gt;Node25</title>
<path fill="none" stroke="midnightblue" d="M935.03,-232.21C1035.07,-229.87 1221.99,-221 1377.5,-188 1452.43,-172.1 1470.2,-162.43 1540.5,-132 1581.06,-114.44 1626.49,-88.77 1649.09,-75.56"/>
<polygon fill="midnightblue" stroke="midnightblue" points="934.66,-228.72 924.74,-232.44 934.81,-235.72 934.66,-228.72"/>
</g>
<!-- Node3 -->
<g id="node3" class="node">
<title>Node3</title>
<g id="a_node3"><a xlink:href="_a_b_l_forcing_8cpp.html" target="_top" xlink:title=" ">
<polygon fill="white" stroke="black" points="0,-112.5 0,-131.5 91,-131.5 91,-112.5 0,-112.5"/>
<text text-anchor="middle" x="45.5" y="-119.5" font-family="Helvetica,sans-Serif" font-size="10.00">ABLForcing.cpp</text>
</a>
</g>
</g>
<!-- Node2&#45;&gt;Node3 -->
<g id="edge2" class="edge">
<title>Node2&#45;&gt;Node3</title>
<path fill="none" stroke="midnightblue" d="M113.95,-163.18C97.02,-153.24 74.72,-140.15 60.24,-131.65"/>
<polygon fill="midnightblue" stroke="midnightblue" points="112.32,-166.28 122.72,-168.32 115.87,-160.24 112.32,-166.28"/>
</g>
<!-- Node4 -->
<g id="node4" class="node">
<title>Node4</title>
<g id="a_node4"><a xlink:href="_a_b_l_8cpp.html" target="_top" xlink:title=" ">
<polygon fill="white" stroke="black" points="109.5,-112.5 109.5,-131.5 165.5,-131.5 165.5,-112.5 109.5,-112.5"/>
<text text-anchor="middle" x="137.5" y="-119.5" font-family="Helvetica,sans-Serif" font-size="10.00">ABL.cpp</text>
</a>
</g>
</g>
<!-- Node2&#45;&gt;Node4 -->
<g id="edge3" class="edge">
<title>Node2&#45;&gt;Node4</title>
<path fill="none" stroke="midnightblue" d="M137.5,-157.8C137.5,-148.91 137.5,-138.78 137.5,-131.75"/>
<polygon fill="midnightblue" stroke="midnightblue" points="134,-158.08 137.5,-168.08 141,-158.08 134,-158.08"/>
</g>
<!-- Node5 -->
<g id="node5" class="node">
<title>Node5</title>
<g id="a_node5"><a xlink:href="_a_b_l_stats_8cpp.html" target="_top" xlink:title=" ">
<polygon fill="white" stroke="black" points="183.5,-112.5 183.5,-131.5 263.5,-131.5 263.5,-112.5 183.5,-112.5"/>
<text text-anchor="middle" x="223.5" y="-119.5" font-family="Helvetica,sans-Serif" font-size="10.00">ABLStats.cpp</text>
</a>
</g>
</g>
<!-- Node2&#45;&gt;Node5 -->
<g id="edge4" class="edge">
<title>Node2&#45;&gt;Node5</title>
<path fill="none" stroke="midnightblue" d="M159.95,-162.9C175.72,-153 196.31,-140.07 209.72,-131.65"/>
<polygon fill="midnightblue" stroke="midnightblue" points="157.93,-160.04 151.32,-168.32 161.65,-165.97 157.93,-160.04"/>
</g>
<!-- Node9 -->
<g id="node9" class="node">
<title>Node9</title>
<g id="a_node9"><a xlink:href="_a_m_d_8cpp.html" target="_top" xlink:title=" ">
<polygon fill="white" stroke="black" points="447.5,-112.5 447.5,-131.5 507.5,-131.5 507.5,-112.5 447.5,-112.5"/>
<text text-anchor="middle" x="477.5" y="-119.5" font-family="Helvetica,sans-Serif" font-size="10.00">AMD.cpp</text>
</a>
</g>
</g>
<!-- Node8&#45;&gt;Node9 -->
<g id="edge8" class="edge">
<title>Node8&#45;&gt;Node9</title>
<path fill="none" stroke="midnightblue" d="M477.5,-157.8C477.5,-148.91 477.5,-138.78 477.5,-131.75"/>
<polygon fill="midnightblue" stroke="midnightblue" points="474,-158.08 477.5,-168.08 481,-158.08 474,-158.08"/>
</g>
<!-- Node15 -->
<g id="node15" class="node">
<title>Node15</title>
<g id="a_node15"><a xlink:href="disk__ops_8cpp.html" target="_top" xlink:title=" ">
<polygon fill="white" stroke="black" points="944.5,-112.5 944.5,-131.5 1024.5,-131.5 1024.5,-112.5 944.5,-112.5"/>
<text text-anchor="middle" x="984.5" y="-119.5" font-family="Helvetica,sans-Serif" font-size="10.00">disk_ops.cpp</text>
</a>
</g>
</g>
<!-- Node14&#45;&gt;Node15 -->
<g id="edge14" class="edge">
<title>Node14&#45;&gt;Node15</title>
<path fill="none" stroke="midnightblue" d="M1071.26,-164.1C1049.96,-154.01 1020.96,-140.27 1002.48,-131.52"/>
<polygon fill="midnightblue" stroke="midnightblue" points="1069.9,-167.33 1080.44,-168.44 1072.9,-161 1069.9,-167.33"/>
</g>
<!-- Node16 -->
<g id="node16" class="node">
<title>Node16</title>
<g id="a_node16"><a xlink:href="_joukowsky__ops_8cpp.html" target="_top" xlink:title=" ">
<polygon fill="white" stroke="black" points="887.5,-56.5 887.5,-75.5 997.5,-75.5 997.5,-56.5 887.5,-56.5"/>
<text text-anchor="middle" x="942.5" y="-63.5" font-family="Helvetica,sans-Serif" font-size="10.00">Joukowsky_ops.cpp</text>
</a>
</g>
</g>
<!-- Node14&#45;&gt;Node16 -->
<g id="edge15" class="edge">
<title>Node14&#45;&gt;Node16</title>
<path fill="none" stroke="midnightblue" d="M1053.38,-167.47C1007.71,-157.37 942.8,-141.58 935.5,-132 922.85,-115.38 932,-89.07 938.15,-75.59"/>
<polygon fill="midnightblue" stroke="midnightblue" points="1052.86,-170.94 1063.37,-169.66 1054.35,-164.1 1052.86,-170.94"/>
</g>
<!-- Node14&#45;&gt;Node17 -->
<g id="edge16" class="edge">
<title>Node14&#45;&gt;Node17</title>
<path fill="none" stroke="midnightblue" d="M1096.75,-158.1C1095.92,-149.14 1094.97,-138.86 1094.31,-131.75"/>
<polygon fill="midnightblue" stroke="midnightblue" points="1093.27,-158.45 1097.67,-168.08 1100.24,-157.8 1093.27,-158.45"/>
</g>
<!-- Node14&#45;&gt;Node19 -->
<g id="edge19" class="edge">
<title>Node14&#45;&gt;Node19</title>
<path fill="none" stroke="midnightblue" d="M1125.98,-164.1C1147.47,-154.01 1176.72,-140.27 1195.36,-131.52"/>
<polygon fill="midnightblue" stroke="midnightblue" points="1124.29,-161.02 1116.72,-168.44 1127.26,-167.36 1124.29,-161.02"/>
</g>
<!-- Node17&#45;&gt;Node16 -->
<g id="edge18" class="edge">
<title>Node17&#45;&gt;Node16</title>
<path fill="none" stroke="midnightblue" d="M1060.05,-109.04C1031.64,-98.88 991.56,-84.55 966.31,-75.52"/>
<polygon fill="midnightblue" stroke="midnightblue" points="1058.98,-112.37 1069.57,-112.44 1061.34,-105.78 1058.98,-112.37"/>
</g>
<!-- Node18 -->
<g id="node18" class="node">
<title>Node18</title>
<g id="a_node18"><a xlink:href="_actuator_disk_8cpp.html" target="_top" xlink:title=" ">
<polygon fill="white" stroke="black" points="1040.5,-56.5 1040.5,-75.5 1140.5,-75.5 1140.5,-56.5 1040.5,-56.5"/>
<text text-anchor="middle" x="1090.5" y="-63.5" font-family="Helvetica,sans-Serif" font-size="10.00">ActuatorDisk.cpp</text>
</a>
</g>
</g>
<!-- Node17&#45;&gt;Node18 -->
<g id="edge17" class="edge">
<title>Node17&#45;&gt;Node18</title>
<path fill="none" stroke="midnightblue" d="M1092.43,-101.8C1091.94,-92.91 1091.38,-82.78 1090.99,-75.75"/>
<polygon fill="midnightblue" stroke="midnightblue" points="1088.96,-102.29 1093,-112.08 1095.94,-101.9 1088.96,-102.29"/>
</g>
<!-- Node19&#45;&gt;Node18 -->
<g id="edge20" class="edge">
<title>Node19&#45;&gt;Node18</title>
<path fill="none" stroke="midnightblue" d="M1184.73,-108.37C1161.69,-98.26 1130.02,-84.35 1109.9,-75.52"/>
<polygon fill="midnightblue" stroke="midnightblue" points="1183.45,-111.63 1194.01,-112.44 1186.26,-105.22 1183.45,-111.63"/>
</g>
<!-- Node20 -->
<g id="node20" class="node">
<title>Node20</title>
<g id="a_node20"><a xlink:href="uniform__ct__ops_8cpp.html" target="_top" xlink:title=" ">
<polygon fill="white" stroke="black" points="1158.5,-56.5 1158.5,-75.5 1270.5,-75.5 1270.5,-56.5 1158.5,-56.5"/>
<text text-anchor="middle" x="1214.5" y="-63.5" font-family="Helvetica,sans-Serif" font-size="10.00">uniform_ct_ops.cpp</text>
</a>
</g>
</g>
<!-- Node19&#45;&gt;Node20 -->
<g id="edge21" class="edge">
<title>Node19&#45;&gt;Node20</title>
<path fill="none" stroke="midnightblue" d="M1213.86,-101.8C1214.02,-92.91 1214.21,-82.78 1214.34,-75.75"/>
<polygon fill="midnightblue" stroke="midnightblue" points="1210.35,-102.02 1213.67,-112.08 1217.35,-102.15 1210.35,-102.02"/>
</g>
<!-- Node22 -->
<g id="node22" class="node">
<title>Node22</title>
<g id="a_node22"><a xlink:href="turbine__fast__ops_8_h.html" target="_top" xlink:title=" ">
<polygon fill="white" stroke="black" points="1282.5,-112.5 1282.5,-131.5 1390.5,-131.5 1390.5,-112.5 1282.5,-112.5"/>
<text text-anchor="middle" x="1336.5" y="-119.5" font-family="Helvetica,sans-Serif" font-size="10.00">turbine_fast_ops.H</text>
</a>
</g>
</g>
<!-- Node21&#45;&gt;Node22 -->
<g id="edge25" class="edge">
<title>Node21&#45;&gt;Node22</title>
<path fill="none" stroke="midnightblue" d="M1336.5,-157.8C1336.5,-148.91 1336.5,-138.78 1336.5,-131.75"/>
<polygon fill="midnightblue" stroke="midnightblue" points="1333,-158.08 1336.5,-168.08 1340,-158.08 1333,-158.08"/>
</g>
<!-- Node24 -->
<g id="node24" class="node">
<title>Node24</title>
<g id="a_node24"><a xlink:href="wing__ops_8_h.html" target="_top" xlink:title=" ">
<polygon fill="white" stroke="black" points="1459,-112.5 1459,-131.5 1532,-131.5 1532,-112.5 1459,-112.5"/>
<text text-anchor="middle" x="1495.5" y="-119.5" font-family="Helvetica,sans-Serif" font-size="10.00">wing_ops.H</text>
</a>
</g>
</g>
<!-- Node21&#45;&gt;Node24 -->
<g id="edge27" class="edge">
<title>Node21&#45;&gt;Node24</title>
<path fill="none" stroke="midnightblue" d="M1371.33,-165.17C1401.27,-155 1443.72,-140.59 1470.42,-131.52"/>
<polygon fill="midnightblue" stroke="midnightblue" points="1370.04,-161.91 1361.69,-168.44 1372.29,-168.54 1370.04,-161.91"/>
</g>
<!-- Node23 -->
<g id="node23" class="node">
<title>Node23</title>
<g id="a_node23"><a xlink:href="_turbine_fast_8cpp.html" target="_top" xlink:title=" ">
<polygon fill="white" stroke="black" points="1288.5,-56.5 1288.5,-75.5 1380.5,-75.5 1380.5,-56.5 1288.5,-56.5"/>
<text text-anchor="middle" x="1334.5" y="-63.5" font-family="Helvetica,sans-Serif" font-size="10.00">TurbineFast.cpp</text>
</a>
</g>
</g>
<!-- Node22&#45;&gt;Node23 -->
<g id="edge26" class="edge">
<title>Node22&#45;&gt;Node23</title>
<path fill="none" stroke="midnightblue" d="M1335.79,-101.8C1335.46,-92.91 1335.08,-82.78 1334.82,-75.75"/>
<polygon fill="midnightblue" stroke="midnightblue" points="1332.3,-102.22 1336.17,-112.08 1339.3,-101.96 1332.3,-102.22"/>
</g>
<!-- Node24&#45;&gt;Node25 -->
<g id="edge28" class="edge">
<title>Node24&#45;&gt;Node25</title>
<path fill="none" stroke="midnightblue" d="M1531.89,-109.3C1563.54,-99.13 1608.67,-84.62 1637,-75.52"/>
<polygon fill="midnightblue" stroke="midnightblue" points="1530.57,-106.05 1522.12,-112.44 1532.71,-112.72 1530.57,-106.05"/>
</g>
<!-- Node27 -->
<g id="node27" class="node">
<title>Node27</title>
<g id="a_node27"><a xlink:href="flat__plate__ops_8_h.html" target="_top" xlink:title=" ">
<polygon fill="white" stroke="black" points="1500,-56.5 1500,-75.5 1595,-75.5 1595,-56.5 1500,-56.5"/>
<text text-anchor="middle" x="1547.5" y="-63.5" font-family="Helvetica,sans-Serif" font-size="10.00">flat_plate_ops.H</text>
</a>
</g>
</g>
<!-- Node24&#45;&gt;Node27 -->
<g id="edge30" class="edge">
<title>Node24&#45;&gt;Node27</title>
<path fill="none" stroke="midnightblue" d="M1511.18,-104.72C1520.34,-95.2 1531.55,-83.56 1539.07,-75.75"/>
<polygon fill="midnightblue" stroke="midnightblue" points="1508.5,-102.45 1504.09,-112.08 1513.54,-107.31 1508.5,-102.45"/>
</g>
<!-- Node29 -->
<g id="node29" class="node">
<title>Node29</title>
<g id="a_node29"><a xlink:href="wing__ops_8cpp.html" target="_top" xlink:title=" ">
<polygon fill="white" stroke="black" points="1399,-56.5 1399,-75.5 1482,-75.5 1482,-56.5 1399,-56.5"/>
<text text-anchor="middle" x="1440.5" y="-63.5" font-family="Helvetica,sans-Serif" font-size="10.00">wing_ops.cpp</text>
</a>
</g>
</g>
<!-- Node24&#45;&gt;Node29 -->
<g id="edge32" class="edge">
<title>Node24&#45;&gt;Node29</title>
<path fill="none" stroke="midnightblue" d="M1479.21,-105C1469.46,-95.43 1457.45,-83.64 1449.41,-75.75"/>
<polygon fill="midnightblue" stroke="midnightblue" points="1476.83,-107.57 1486.42,-112.08 1481.73,-102.58 1476.83,-107.57"/>
</g>
<!-- Node26 -->
<g id="node26" class="node">
<title>Node26</title>
<g id="a_node26"><a xlink:href="_fixed_wing_8cpp.html" target="_top" xlink:title=" ">
<polygon fill="white" stroke="black" points="1620,-0.5 1620,-19.5 1707,-19.5 1707,-0.5 1620,-0.5"/>
<text text-anchor="middle" x="1663.5" y="-7.5" font-family="Helvetica,sans-Serif" font-size="10.00">FixedWing.cpp</text>
</a>
</g>
</g>
<!-- Node25&#45;&gt;Node26 -->
<g id="edge29" class="edge">
<title>Node25&#45;&gt;Node26</title>
<path fill="none" stroke="midnightblue" d="M1663.5,-45.8C1663.5,-36.91 1663.5,-26.78 1663.5,-19.75"/>
<polygon fill="midnightblue" stroke="midnightblue" points="1660,-46.08 1663.5,-56.08 1667,-46.08 1660,-46.08"/>
</g>
<!-- Node28 -->
<g id="node28" class="node">
<title>Node28</title>
<g id="a_node28"><a xlink:href="_flat_plate_8cpp.html" target="_top" xlink:title=" ">
<polygon fill="white" stroke="black" points="1507.5,-0.5 1507.5,-19.5 1587.5,-19.5 1587.5,-0.5 1507.5,-0.5"/>
<text text-anchor="middle" x="1547.5" y="-7.5" font-family="Helvetica,sans-Serif" font-size="10.00">FlatPlate.cpp</text>
</a>
</g>
</g>
<!-- Node27&#45;&gt;Node28 -->
<g id="edge31" class="edge">
<title>Node27&#45;&gt;Node28</title>
<path fill="none" stroke="midnightblue" d="M1547.5,-45.8C1547.5,-36.91 1547.5,-26.78 1547.5,-19.75"/>
<polygon fill="midnightblue" stroke="midnightblue" points="1544,-46.08 1547.5,-56.08 1551,-46.08 1544,-46.08"/>
</g>
</g>
</svg>
