<?xml version="1.0" encoding="UTF-8" standalone="no"?>
<!DOCTYPE svg PUBLIC "-//W3C//DTD SVG 1.1//EN"
 "http://www.w3.org/Graphics/SVG/1.1/DTD/svg11.dtd">
<!-- Generated by graphviz version 2.43.0 (0)
 -->
<!-- Title: linear_interpolation.H Pages: 1 -->
<svg width="2035pt" height="252pt"
 viewBox="0.00 0.00 2035.00 252.00" xmlns="http://www.w3.org/2000/svg" xmlns:xlink="http://www.w3.org/1999/xlink">
<g id="graph0" class="graph" transform="scale(1 1) rotate(0) translate(4 248)">
<title>linear_interpolation.H</title>
<polygon fill="white" stroke="transparent" points="-4,4 -4,-248 2031,-248 2031,4 -4,4"/>
<!-- Node1 -->
<g id="node1" class="node">
<title>Node1</title>
<g id="a_node1"><a xlink:title=" ">
<polygon fill="#bfbfbf" stroke="black" points="1123.5,-224.5 1123.5,-243.5 1245.5,-243.5 1245.5,-224.5 1123.5,-224.5"/>
<text text-anchor="middle" x="1184.5" y="-231.5" font-family="Helvetica,sans-Serif" font-size="10.00">linear_interpolation.H</text>
</a>
</g>
</g>
<!-- Node2 -->
<g id="node2" class="node">
<title>Node2</title>
<g id="a_node2"><a xlink:href="_a_b_l_forcing_8_h.html" target="_top" xlink:title=" ">
<polygon fill="white" stroke="black" points="97,-168.5 97,-187.5 178,-187.5 178,-168.5 97,-168.5"/>
<text text-anchor="middle" x="137.5" y="-175.5" font-family="Helvetica,sans-Serif" font-size="10.00">ABLForcing.H</text>
</a>
</g>
</g>
<!-- Node1&#45;&gt;Node2 -->
<g id="edge1" class="edge">
<title>Node1&#45;&gt;Node2</title>
<path fill="none" stroke="midnightblue" d="M1112.85,-233.03C948.65,-232.38 532.69,-226.68 187.5,-188 184.43,-187.66 181.27,-187.24 178.09,-186.77"/>
<polygon fill="midnightblue" stroke="midnightblue" points="1113.29,-236.53 1123.3,-233.06 1113.31,-229.53 1113.29,-236.53"/>
</g>
<!-- Node6 -->
<g id="node6" class="node">
<title>Node6</title>
<g id="a_node6"><a xlink:href="_a_b_l_meso_forcing_mom_8cpp.html" target="_top" xlink:title=" ">
<polygon fill="white" stroke="black" points="196.5,-168.5 196.5,-187.5 338.5,-187.5 338.5,-168.5 196.5,-168.5"/>
<text text-anchor="middle" x="267.5" y="-175.5" font-family="Helvetica,sans-Serif" font-size="10.00">ABLMesoForcingMom.cpp</text>
</a>
</g>
</g>
<!-- Node1&#45;&gt;Node6 -->
<g id="edge5" class="edge">
<title>Node1&#45;&gt;Node6</title>
<path fill="none" stroke="midnightblue" d="M1113.17,-230.57C968.57,-225.33 630.57,-211.51 347.5,-188 344.58,-187.76 341.59,-187.49 338.58,-187.21"/>
<polygon fill="midnightblue" stroke="midnightblue" points="1113.13,-234.07 1123.25,-230.93 1113.38,-227.07 1113.13,-234.07"/>
</g>
<!-- Node7 -->
<g id="node7" class="node">
<title>Node7</title>
<g id="a_node7"><a xlink:href="icns_2source__terms_2_body_force_8cpp.html" target="_top" xlink:title=" ">
<polygon fill="white" stroke="black" points="356.5,-168.5 356.5,-187.5 444.5,-187.5 444.5,-168.5 356.5,-168.5"/>
<text text-anchor="middle" x="400.5" y="-175.5" font-family="Helvetica,sans-Serif" font-size="10.00">BodyForce.cpp</text>
</a>
</g>
</g>
<!-- Node1&#45;&gt;Node7 -->
<g id="edge6" class="edge">
<title>Node1&#45;&gt;Node7</title>
<path fill="none" stroke="midnightblue" d="M1112.87,-231.13C981.69,-227.13 694.24,-215.77 453.5,-188 450.63,-187.67 447.67,-187.29 444.7,-186.87"/>
<polygon fill="midnightblue" stroke="midnightblue" points="1113.07,-234.63 1123.17,-231.44 1113.28,-227.64 1113.07,-234.63"/>
</g>
<!-- Node8 -->
<g id="node8" class="node">
<title>Node8</title>
<g id="a_node8"><a xlink:href="_geostrophic_forcing_8cpp.html" target="_top" xlink:title=" ">
<polygon fill="white" stroke="black" points="463,-168.5 463,-187.5 594,-187.5 594,-168.5 463,-168.5"/>
<text text-anchor="middle" x="528.5" y="-175.5" font-family="Helvetica,sans-Serif" font-size="10.00">GeostrophicForcing.cpp</text>
</a>
</g>
</g>
<!-- Node1&#45;&gt;Node8 -->
<g id="edge7" class="edge">
<title>Node1&#45;&gt;Node8</title>
<path fill="none" stroke="midnightblue" d="M1112.96,-228.48C1003.07,-221.31 786.17,-206.26 602.5,-188 599.8,-187.73 597.04,-187.45 594.25,-187.15"/>
<polygon fill="midnightblue" stroke="midnightblue" points="1113.05,-232 1123.25,-229.15 1113.5,-225.01 1113.05,-232"/>
</g>
<!-- Node9 -->
<g id="node9" class="node">
<title>Node9</title>
<g id="a_node9"><a xlink:href="_a_b_l_meso_forcing_temp_8cpp.html" target="_top" xlink:title=" ">
<polygon fill="white" stroke="black" points="612,-168.5 612,-187.5 755,-187.5 755,-168.5 612,-168.5"/>
<text text-anchor="middle" x="683.5" y="-175.5" font-family="Helvetica,sans-Serif" font-size="10.00">ABLMesoForcingTemp.cpp</text>
</a>
</g>
</g>
<!-- Node1&#45;&gt;Node9 -->
<g id="edge8" class="edge">
<title>Node1&#45;&gt;Node9</title>
<path fill="none" stroke="midnightblue" d="M1113.14,-225.44C1029.57,-216.57 886.97,-201.36 764.5,-188 761.41,-187.66 758.24,-187.32 755.05,-186.97"/>
<polygon fill="midnightblue" stroke="midnightblue" points="1112.97,-228.94 1123.28,-226.52 1113.71,-221.98 1112.97,-228.94"/>
</g>
<!-- Node10 -->
<g id="node10" class="node">
<title>Node10</title>
<g id="a_node10"><a xlink:href="_a_m_d_8_h.html" target="_top" xlink:title=" ">
<polygon fill="white" stroke="black" points="773.5,-168.5 773.5,-187.5 823.5,-187.5 823.5,-168.5 773.5,-168.5"/>
<text text-anchor="middle" x="798.5" y="-175.5" font-family="Helvetica,sans-Serif" font-size="10.00">AMD.H</text>
</a>
</g>
</g>
<!-- Node1&#45;&gt;Node10 -->
<g id="edge9" class="edge">
<title>Node1&#45;&gt;Node10</title>
<path fill="none" stroke="midnightblue" d="M1113.15,-226.66C1041.72,-219.66 928.89,-206.83 832.5,-188 829.62,-187.44 826.63,-186.77 823.67,-186.06"/>
<polygon fill="midnightblue" stroke="midnightblue" points="1113.09,-230.17 1123.38,-227.65 1113.76,-223.2 1113.09,-230.17"/>
</g>
<!-- Node12 -->
<g id="node12" class="node">
<title>Node12</title>
<g id="a_node12"><a xlink:href="_d_t_u_spinner_sampler_8cpp.html" target="_top" xlink:title=" ">
<polygon fill="white" stroke="black" points="841.5,-168.5 841.5,-187.5 975.5,-187.5 975.5,-168.5 841.5,-168.5"/>
<text text-anchor="middle" x="908.5" y="-175.5" font-family="Helvetica,sans-Serif" font-size="10.00">DTUSpinnerSampler.cpp</text>
</a>
</g>
</g>
<!-- Node1&#45;&gt;Node12 -->
<g id="edge11" class="edge">
<title>Node1&#45;&gt;Node12</title>
<path fill="none" stroke="midnightblue" d="M1130.7,-222.47C1078.54,-212.27 1000.39,-196.98 952.03,-187.52"/>
<polygon fill="midnightblue" stroke="midnightblue" points="1130.28,-225.96 1140.77,-224.44 1131.63,-219.09 1130.28,-225.96"/>
</g>
<!-- Node13 -->
<g id="node13" class="node">
<title>Node13</title>
<g id="a_node13"><a xlink:href="_lidar_sampler_8cpp.html" target="_top" xlink:title=" ">
<polygon fill="white" stroke="black" points="994,-168.5 994,-187.5 1095,-187.5 1095,-168.5 994,-168.5"/>
<text text-anchor="middle" x="1044.5" y="-175.5" font-family="Helvetica,sans-Serif" font-size="10.00">LidarSampler.cpp</text>
</a>
</g>
</g>
<!-- Node1&#45;&gt;Node13 -->
<g id="edge12" class="edge">
<title>Node1&#45;&gt;Node13</title>
<path fill="none" stroke="midnightblue" d="M1152.8,-220.77C1126.5,-210.63 1089.78,-196.47 1066.58,-187.52"/>
<polygon fill="midnightblue" stroke="midnightblue" points="1151.73,-224.11 1162.32,-224.44 1154.25,-217.58 1151.73,-224.11"/>
</g>
<!-- Node14 -->
<g id="node14" class="node">
<title>Node14</title>
<g id="a_node14"><a xlink:href="_a_b_l_mesoscale_forcing_8cpp.html" target="_top" xlink:title=" ">
<polygon fill="white" stroke="black" points="1113,-168.5 1113,-187.5 1256,-187.5 1256,-168.5 1113,-168.5"/>
<text text-anchor="middle" x="1184.5" y="-175.5" font-family="Helvetica,sans-Serif" font-size="10.00">ABLMesoscaleForcing.cpp</text>
</a>
</g>
</g>
<!-- Node1&#45;&gt;Node14 -->
<g id="edge13" class="edge">
<title>Node1&#45;&gt;Node14</title>
<path fill="none" stroke="midnightblue" d="M1184.5,-213.8C1184.5,-204.91 1184.5,-194.78 1184.5,-187.75"/>
<polygon fill="midnightblue" stroke="midnightblue" points="1181,-214.08 1184.5,-224.08 1188,-214.08 1181,-214.08"/>
</g>
<!-- Node15 -->
<g id="node15" class="node">
<title>Node15</title>
<g id="a_node15"><a xlink:href="_airfoil_table_8cpp.html" target="_top" xlink:title=" ">
<polygon fill="white" stroke="black" points="1274.5,-168.5 1274.5,-187.5 1366.5,-187.5 1366.5,-168.5 1274.5,-168.5"/>
<text text-anchor="middle" x="1320.5" y="-175.5" font-family="Helvetica,sans-Serif" font-size="10.00">AirfoilTable.cpp</text>
</a>
</g>
</g>
<!-- Node1&#45;&gt;Node15 -->
<g id="edge14" class="edge">
<title>Node1&#45;&gt;Node15</title>
<path fill="none" stroke="midnightblue" d="M1215.63,-220.64C1241.16,-210.5 1276.61,-196.43 1299.05,-187.52"/>
<polygon fill="midnightblue" stroke="midnightblue" points="1214.05,-217.5 1206.05,-224.44 1216.64,-224.01 1214.05,-217.5"/>
</g>
<!-- Node16 -->
<g id="node16" class="node">
<title>Node16</title>
<g id="a_node16"><a xlink:href="disk__ops_8_h.html" target="_top" xlink:title=" ">
<polygon fill="white" stroke="black" points="1384.5,-168.5 1384.5,-187.5 1454.5,-187.5 1454.5,-168.5 1384.5,-168.5"/>
<text text-anchor="middle" x="1419.5" y="-175.5" font-family="Helvetica,sans-Serif" font-size="10.00">disk_ops.H</text>
</a>
</g>
</g>
<!-- Node1&#45;&gt;Node16 -->
<g id="edge15" class="edge">
<title>Node1&#45;&gt;Node16</title>
<path fill="none" stroke="midnightblue" d="M1231.57,-222.18C1276.68,-211.82 1343.73,-196.41 1384.36,-187.08"/>
<polygon fill="midnightblue" stroke="midnightblue" points="1230.7,-218.79 1221.74,-224.44 1232.27,-225.62 1230.7,-218.79"/>
</g>
<!-- Node19 -->
<g id="node19" class="node">
<title>Node19</title>
<g id="a_node19"><a xlink:href="_joukowsky__ops_8_h.html" target="_top" xlink:title=" ">
<polygon fill="white" stroke="black" points="1357,-112.5 1357,-131.5 1458,-131.5 1458,-112.5 1357,-112.5"/>
<text text-anchor="middle" x="1407.5" y="-119.5" font-family="Helvetica,sans-Serif" font-size="10.00">Joukowsky_ops.H</text>
</a>
</g>
</g>
<!-- Node1&#45;&gt;Node19 -->
<g id="edge24" class="edge">
<title>Node1&#45;&gt;Node19</title>
<path fill="none" stroke="midnightblue" d="M1255.9,-231.64C1329.58,-228.54 1437.33,-218.73 1463.5,-188 1480.79,-167.7 1446.52,-144.01 1424.34,-131.59"/>
<polygon fill="midnightblue" stroke="midnightblue" points="1255.6,-228.15 1245.75,-232.03 1255.87,-235.14 1255.6,-228.15"/>
</g>
<!-- Node21 -->
<g id="node21" class="node">
<title>Node21</title>
<g id="a_node21"><a xlink:href="uniform__ct__ops_8_h.html" target="_top" xlink:title=" ">
<polygon fill="white" stroke="black" points="1476.5,-112.5 1476.5,-131.5 1578.5,-131.5 1578.5,-112.5 1476.5,-112.5"/>
<text text-anchor="middle" x="1527.5" y="-119.5" font-family="Helvetica,sans-Serif" font-size="10.00">uniform_ct_ops.H</text>
</a>
</g>
</g>
<!-- Node1&#45;&gt;Node21 -->
<g id="edge25" class="edge">
<title>Node1&#45;&gt;Node21</title>
<path fill="none" stroke="midnightblue" d="M1255.93,-228.47C1331.2,-222.61 1443.84,-210.37 1480.5,-188 1502.61,-174.51 1517.4,-146.31 1523.84,-131.9"/>
<polygon fill="midnightblue" stroke="midnightblue" points="1255.27,-225.01 1245.56,-229.26 1255.8,-231.99 1255.27,-225.01"/>
</g>
<!-- Node23 -->
<g id="node23" class="node">
<title>Node23</title>
<g id="a_node23"><a xlink:href="_f_l_l_c_8cpp.html" target="_top" xlink:title=" ">
<polygon fill="white" stroke="black" points="1548.5,-168.5 1548.5,-187.5 1608.5,-187.5 1608.5,-168.5 1548.5,-168.5"/>
<text text-anchor="middle" x="1578.5" y="-175.5" font-family="Helvetica,sans-Serif" font-size="10.00">FLLC.cpp</text>
</a>
</g>
</g>
<!-- Node1&#45;&gt;Node23 -->
<g id="edge26" class="edge">
<title>Node1&#45;&gt;Node23</title>
<path fill="none" stroke="midnightblue" d="M1255.87,-225.39C1326.76,-217.46 1438.45,-203.98 1534.5,-188 1538.96,-187.26 1543.66,-186.39 1548.26,-185.49"/>
<polygon fill="midnightblue" stroke="midnightblue" points="1255.27,-221.93 1245.71,-226.52 1256.04,-228.89 1255.27,-221.93"/>
</g>
<!-- Node24 -->
<g id="node24" class="node">
<title>Node24</title>
<g id="a_node24"><a xlink:href="_f_l_l_c_op_8_h.html" target="_top" xlink:title=" ">
<polygon fill="white" stroke="black" points="1626.5,-168.5 1626.5,-187.5 1690.5,-187.5 1690.5,-168.5 1626.5,-168.5"/>
<text text-anchor="middle" x="1658.5" y="-175.5" font-family="Helvetica,sans-Serif" font-size="10.00">FLLCOp.H</text>
</a>
</g>
</g>
<!-- Node1&#45;&gt;Node24 -->
<g id="edge27" class="edge">
<title>Node1&#45;&gt;Node24</title>
<path fill="none" stroke="midnightblue" d="M1255.92,-228.05C1342.02,-221.52 1490.95,-208.4 1617.5,-188 1620.38,-187.54 1623.36,-187 1626.34,-186.42"/>
<polygon fill="midnightblue" stroke="midnightblue" points="1255.45,-224.58 1245.74,-228.82 1255.97,-231.56 1255.45,-224.58"/>
</g>
<!-- Node27 -->
<g id="node27" class="node">
<title>Node27</title>
<g id="a_node27"><a xlink:href="wing__ops_8_h.html" target="_top" xlink:title=" ">
<polygon fill="white" stroke="black" points="1723,-112.5 1723,-131.5 1796,-131.5 1796,-112.5 1723,-112.5"/>
<text text-anchor="middle" x="1759.5" y="-119.5" font-family="Helvetica,sans-Serif" font-size="10.00">wing_ops.H</text>
</a>
</g>
</g>
<!-- Node1&#45;&gt;Node27 -->
<g id="edge37" class="edge">
<title>Node1&#45;&gt;Node27</title>
<path fill="none" stroke="midnightblue" d="M1255.86,-233.05C1378.47,-232.1 1623.29,-225.41 1699.5,-188 1725.42,-175.28 1745.63,-146.19 1754.53,-131.63"/>
<polygon fill="midnightblue" stroke="midnightblue" points="1255.8,-229.55 1245.82,-233.11 1255.84,-236.55 1255.8,-229.55"/>
</g>
<!-- Node28 -->
<g id="node28" class="node">
<title>Node28</title>
<g id="a_node28"><a xlink:href="fixed__wing__ops_8_h.html" target="_top" xlink:title=" ">
<polygon fill="white" stroke="black" points="1926,-56.5 1926,-75.5 2027,-75.5 2027,-56.5 1926,-56.5"/>
<text text-anchor="middle" x="1976.5" y="-63.5" font-family="Helvetica,sans-Serif" font-size="10.00">fixed_wing_ops.H</text>
</a>
</g>
</g>
<!-- Node1&#45;&gt;Node28 -->
<g id="edge36" class="edge">
<title>Node1&#45;&gt;Node28</title>
<path fill="none" stroke="midnightblue" d="M1255.95,-230.32C1382.25,-225.04 1639.79,-211.7 1726.5,-188 1823.01,-161.62 1927.32,-98.51 1963.37,-75.54"/>
<polygon fill="midnightblue" stroke="midnightblue" points="1255.47,-226.84 1245.62,-230.74 1255.76,-233.83 1255.47,-226.84"/>
</g>
<!-- Node3 -->
<g id="node3" class="node">
<title>Node3</title>
<g id="a_node3"><a xlink:href="_a_b_l_forcing_8cpp.html" target="_top" xlink:title=" ">
<polygon fill="white" stroke="black" points="0,-112.5 0,-131.5 91,-131.5 91,-112.5 0,-112.5"/>
<text text-anchor="middle" x="45.5" y="-119.5" font-family="Helvetica,sans-Serif" font-size="10.00">ABLForcing.cpp</text>
</a>
</g>
</g>
<!-- Node2&#45;&gt;Node3 -->
<g id="edge2" class="edge">
<title>Node2&#45;&gt;Node3</title>
<path fill="none" stroke="midnightblue" d="M113.95,-163.18C97.02,-153.24 74.72,-140.15 60.24,-131.65"/>
<polygon fill="midnightblue" stroke="midnightblue" points="112.32,-166.28 122.72,-168.32 115.87,-160.24 112.32,-166.28"/>
</g>
<!-- Node4 -->
<g id="node4" class="node">
<title>Node4</title>
<g id="a_node4"><a xlink:href="_a_b_l_8cpp.html" target="_top" xlink:title=" ">
<polygon fill="white" stroke="black" points="109.5,-112.5 109.5,-131.5 165.5,-131.5 165.5,-112.5 109.5,-112.5"/>
<text text-anchor="middle" x="137.5" y="-119.5" font-family="Helvetica,sans-Serif" font-size="10.00">ABL.cpp</text>
</a>
</g>
</g>
<!-- Node2&#45;&gt;Node4 -->
<g id="edge3" class="edge">
<title>Node2&#45;&gt;Node4</title>
<path fill="none" stroke="midnightblue" d="M137.5,-157.8C137.5,-148.91 137.5,-138.78 137.5,-131.75"/>
<polygon fill="midnightblue" stroke="midnightblue" points="134,-158.08 137.5,-168.08 141,-158.08 134,-158.08"/>
</g>
<!-- Node5 -->
<g id="node5" class="node">
<title>Node5</title>
<g id="a_node5"><a xlink:href="_a_b_l_stats_8cpp.html" target="_top" xlink:title=" ">
<polygon fill="white" stroke="black" points="183.5,-112.5 183.5,-131.5 263.5,-131.5 263.5,-112.5 183.5,-112.5"/>
<text text-anchor="middle" x="223.5" y="-119.5" font-family="Helvetica,sans-Serif" font-size="10.00">ABLStats.cpp</text>
</a>
</g>
</g>
<!-- Node2&#45;&gt;Node5 -->
<g id="edge4" class="edge">
<title>Node2&#45;&gt;Node5</title>
<path fill="none" stroke="midnightblue" d="M159.95,-162.9C175.72,-153 196.31,-140.07 209.72,-131.65"/>
<polygon fill="midnightblue" stroke="midnightblue" points="157.93,-160.04 151.32,-168.32 161.65,-165.97 157.93,-160.04"/>
</g>
<!-- Node11 -->
<g id="node11" class="node">
<title>Node11</title>
<g id="a_node11"><a xlink:href="_a_m_d_8cpp.html" target="_top" xlink:title=" ">
<polygon fill="white" stroke="black" points="768.5,-112.5 768.5,-131.5 828.5,-131.5 828.5,-112.5 768.5,-112.5"/>
<text text-anchor="middle" x="798.5" y="-119.5" font-family="Helvetica,sans-Serif" font-size="10.00">AMD.cpp</text>
</a>
</g>
</g>
<!-- Node10&#45;&gt;Node11 -->
<g id="edge10" class="edge">
<title>Node10&#45;&gt;Node11</title>
<path fill="none" stroke="midnightblue" d="M798.5,-157.8C798.5,-148.91 798.5,-138.78 798.5,-131.75"/>
<polygon fill="midnightblue" stroke="midnightblue" points="795,-158.08 798.5,-168.08 802,-158.08 795,-158.08"/>
</g>
<!-- Node17 -->
<g id="node17" class="node">
<title>Node17</title>
<g id="a_node17"><a xlink:href="disk__ops_8cpp.html" target="_top" xlink:title=" ">
<polygon fill="white" stroke="black" points="1258.5,-112.5 1258.5,-131.5 1338.5,-131.5 1338.5,-112.5 1258.5,-112.5"/>
<text text-anchor="middle" x="1298.5" y="-119.5" font-family="Helvetica,sans-Serif" font-size="10.00">disk_ops.cpp</text>
</a>
</g>
</g>
<!-- Node16&#45;&gt;Node17 -->
<g id="edge16" class="edge">
<title>Node16&#45;&gt;Node17</title>
<path fill="none" stroke="midnightblue" d="M1391.19,-164.37C1368.53,-154.26 1337.37,-140.35 1317.58,-131.52"/>
<polygon fill="midnightblue" stroke="midnightblue" points="1389.77,-167.56 1400.33,-168.44 1392.62,-161.17 1389.77,-167.56"/>
</g>
<!-- Node18 -->
<g id="node18" class="node">
<title>Node18</title>
<g id="a_node18"><a xlink:href="_joukowsky__ops_8cpp.html" target="_top" xlink:title=" ">
<polygon fill="white" stroke="black" points="1200.5,-56.5 1200.5,-75.5 1310.5,-75.5 1310.5,-56.5 1200.5,-56.5"/>
<text text-anchor="middle" x="1255.5" y="-63.5" font-family="Helvetica,sans-Serif" font-size="10.00">Joukowsky_ops.cpp</text>
</a>
</g>
</g>
<!-- Node16&#45;&gt;Node18 -->
<g id="edge17" class="edge">
<title>Node16&#45;&gt;Node18</title>
<path fill="none" stroke="midnightblue" d="M1374.37,-166.49C1325.34,-154.86 1253.41,-137.08 1249.5,-132 1236.78,-115.48 1245.45,-89.13 1251.32,-75.61"/>
<polygon fill="midnightblue" stroke="midnightblue" points="1373.61,-169.91 1384.15,-168.8 1375.22,-163.09 1373.61,-169.91"/>
</g>
<!-- Node16&#45;&gt;Node19 -->
<g id="edge18" class="edge">
<title>Node16&#45;&gt;Node19</title>
<path fill="none" stroke="midnightblue" d="M1415.3,-158.1C1413.31,-149.14 1411.02,-138.86 1409.44,-131.75"/>
<polygon fill="midnightblue" stroke="midnightblue" points="1411.93,-159.08 1417.52,-168.08 1418.77,-157.56 1411.93,-159.08"/>
</g>
<!-- Node16&#45;&gt;Node21 -->
<g id="edge21" class="edge">
<title>Node16&#45;&gt;Node21</title>
<path fill="none" stroke="midnightblue" d="M1446.05,-163.73C1466.05,-153.73 1492.89,-140.31 1510.19,-131.65"/>
<polygon fill="midnightblue" stroke="midnightblue" points="1444.23,-160.72 1436.85,-168.32 1447.36,-166.98 1444.23,-160.72"/>
</g>
<!-- Node19&#45;&gt;Node18 -->
<g id="edge20" class="edge">
<title>Node19&#45;&gt;Node18</title>
<path fill="none" stroke="midnightblue" d="M1373.83,-109.04C1345.23,-98.88 1304.89,-84.55 1279.47,-75.52"/>
<polygon fill="midnightblue" stroke="midnightblue" points="1372.82,-112.39 1383.42,-112.44 1375.16,-105.8 1372.82,-112.39"/>
</g>
<!-- Node20 -->
<g id="node20" class="node">
<title>Node20</title>
<g id="a_node20"><a xlink:href="_actuator_disk_8cpp.html" target="_top" xlink:title=" ">
<polygon fill="white" stroke="black" points="1353.5,-56.5 1353.5,-75.5 1453.5,-75.5 1453.5,-56.5 1353.5,-56.5"/>
<text text-anchor="middle" x="1403.5" y="-63.5" font-family="Helvetica,sans-Serif" font-size="10.00">ActuatorDisk.cpp</text>
</a>
</g>
</g>
<!-- Node19&#45;&gt;Node20 -->
<g id="edge19" class="edge">
<title>Node19&#45;&gt;Node20</title>
<path fill="none" stroke="midnightblue" d="M1406.1,-102.1C1405.44,-93.14 1404.67,-82.86 1404.15,-75.75"/>
<polygon fill="midnightblue" stroke="midnightblue" points="1402.61,-102.37 1406.84,-112.08 1409.59,-101.85 1402.61,-102.37"/>
</g>
<!-- Node21&#45;&gt;Node20 -->
<g id="edge22" class="edge">
<title>Node21&#45;&gt;Node20</title>
<path fill="none" stroke="midnightblue" d="M1498.49,-108.37C1475.27,-98.26 1443.34,-84.35 1423.06,-75.52"/>
<polygon fill="midnightblue" stroke="midnightblue" points="1497.29,-111.66 1507.85,-112.44 1500.08,-105.24 1497.29,-111.66"/>
</g>
<!-- Node22 -->
<g id="node22" class="node">
<title>Node22</title>
<g id="a_node22"><a xlink:href="uniform__ct__ops_8cpp.html" target="_top" xlink:title=" ">
<polygon fill="white" stroke="black" points="1471.5,-56.5 1471.5,-75.5 1583.5,-75.5 1583.5,-56.5 1471.5,-56.5"/>
<text text-anchor="middle" x="1527.5" y="-63.5" font-family="Helvetica,sans-Serif" font-size="10.00">uniform_ct_ops.cpp</text>
</a>
</g>
</g>
<!-- Node21&#45;&gt;Node22 -->
<g id="edge23" class="edge">
<title>Node21&#45;&gt;Node22</title>
<path fill="none" stroke="midnightblue" d="M1527.5,-101.8C1527.5,-92.91 1527.5,-82.78 1527.5,-75.75"/>
<polygon fill="midnightblue" stroke="midnightblue" points="1524,-102.08 1527.5,-112.08 1531,-102.08 1524,-102.08"/>
</g>
<!-- Node25 -->
<g id="node25" class="node">
<title>Node25</title>
<g id="a_node25"><a xlink:href="turbine__fast__ops_8_h.html" target="_top" xlink:title=" ">
<polygon fill="white" stroke="black" points="1596.5,-112.5 1596.5,-131.5 1704.5,-131.5 1704.5,-112.5 1596.5,-112.5"/>
<text text-anchor="middle" x="1650.5" y="-119.5" font-family="Helvetica,sans-Serif" font-size="10.00">turbine_fast_ops.H</text>
</a>
</g>
</g>
<!-- Node24&#45;&gt;Node25 -->
<g id="edge28" class="edge">
<title>Node24&#45;&gt;Node25</title>
<path fill="none" stroke="midnightblue" d="M1655.7,-158.1C1654.37,-149.14 1652.85,-138.86 1651.8,-131.75"/>
<polygon fill="midnightblue" stroke="midnightblue" points="1652.25,-158.7 1657.18,-168.08 1659.18,-157.68 1652.25,-158.7"/>
</g>
<!-- Node24&#45;&gt;Node27 -->
<g id="edge30" class="edge">
<title>Node24&#45;&gt;Node27</title>
<path fill="none" stroke="midnightblue" d="M1683.58,-163.59C1702.26,-153.61 1727.2,-140.27 1743.31,-131.65"/>
<polygon fill="midnightblue" stroke="midnightblue" points="1681.9,-160.52 1674.73,-168.32 1685.2,-166.7 1681.9,-160.52"/>
</g>
<!-- Node26 -->
<g id="node26" class="node">
<title>Node26</title>
<g id="a_node26"><a xlink:href="_turbine_fast_8cpp.html" target="_top" xlink:title=" ">
<polygon fill="white" stroke="black" points="1601.5,-56.5 1601.5,-75.5 1693.5,-75.5 1693.5,-56.5 1601.5,-56.5"/>
<text text-anchor="middle" x="1647.5" y="-63.5" font-family="Helvetica,sans-Serif" font-size="10.00">TurbineFast.cpp</text>
</a>
</g>
</g>
<!-- Node25&#45;&gt;Node26 -->
<g id="edge29" class="edge">
<title>Node25&#45;&gt;Node26</title>
<path fill="none" stroke="midnightblue" d="M1649.43,-101.8C1648.94,-92.91 1648.38,-82.78 1647.99,-75.75"/>
<polygon fill="midnightblue" stroke="midnightblue" points="1645.96,-102.29 1650,-112.08 1652.94,-101.9 1645.96,-102.29"/>
</g>
<!-- Node27&#45;&gt;Node28 -->
<g id="edge31" class="edge">
<title>Node27&#45;&gt;Node28</title>
<path fill="none" stroke="midnightblue" d="M1803.61,-110.02C1844.6,-99.82 1904.8,-84.84 1942.28,-75.52"/>
<polygon fill="midnightblue" stroke="midnightblue" points="1802.74,-106.63 1793.88,-112.44 1804.43,-113.43 1802.74,-106.63"/>
</g>
<!-- Node30 -->
<g id="node30" class="node">
<title>Node30</title>
<g id="a_node30"><a xlink:href="flat__plate__ops_8_h.html" target="_top" xlink:title=" ">
<polygon fill="white" stroke="black" points="1712,-56.5 1712,-75.5 1807,-75.5 1807,-56.5 1712,-56.5"/>
<text text-anchor="middle" x="1759.5" y="-63.5" font-family="Helvetica,sans-Serif" font-size="10.00">flat_plate_ops.H</text>
</a>
</g>
</g>
<!-- Node27&#45;&gt;Node30 -->
<g id="edge33" class="edge">
<title>Node27&#45;&gt;Node30</title>
<path fill="none" stroke="midnightblue" d="M1759.5,-101.8C1759.5,-92.91 1759.5,-82.78 1759.5,-75.75"/>
<polygon fill="midnightblue" stroke="midnightblue" points="1756,-102.08 1759.5,-112.08 1763,-102.08 1756,-102.08"/>
</g>
<!-- Node32 -->
<g id="node32" class="node">
<title>Node32</title>
<g id="a_node32"><a xlink:href="wing__ops_8cpp.html" target="_top" xlink:title=" ">
<polygon fill="white" stroke="black" points="1825,-56.5 1825,-75.5 1908,-75.5 1908,-56.5 1825,-56.5"/>
<text text-anchor="middle" x="1866.5" y="-63.5" font-family="Helvetica,sans-Serif" font-size="10.00">wing_ops.cpp</text>
</a>
</g>
</g>
<!-- Node27&#45;&gt;Node32 -->
<g id="edge35" class="edge">
<title>Node27&#45;&gt;Node32</title>
<path fill="none" stroke="midnightblue" d="M1785.8,-107.73C1805.61,-97.73 1832.21,-84.31 1849.35,-75.65"/>
<polygon fill="midnightblue" stroke="midnightblue" points="1784.04,-104.69 1776.69,-112.32 1787.2,-110.94 1784.04,-104.69"/>
</g>
<!-- Node29 -->
<g id="node29" class="node">
<title>Node29</title>
<g id="a_node29"><a xlink:href="_fixed_wing_8cpp.html" target="_top" xlink:title=" ">
<polygon fill="white" stroke="black" points="1933,-0.5 1933,-19.5 2020,-19.5 2020,-0.5 1933,-0.5"/>
<text text-anchor="middle" x="1976.5" y="-7.5" font-family="Helvetica,sans-Serif" font-size="10.00">FixedWing.cpp</text>
</a>
</g>
</g>
<!-- Node28&#45;&gt;Node29 -->
<g id="edge32" class="edge">
<title>Node28&#45;&gt;Node29</title>
<path fill="none" stroke="midnightblue" d="M1976.5,-45.8C1976.5,-36.91 1976.5,-26.78 1976.5,-19.75"/>
<polygon fill="midnightblue" stroke="midnightblue" points="1973,-46.08 1976.5,-56.08 1980,-46.08 1973,-46.08"/>
</g>
<!-- Node31 -->
<g id="node31" class="node">
<title>Node31</title>
<g id="a_node31"><a xlink:href="_flat_plate_8cpp.html" target="_top" xlink:title=" ">
<polygon fill="white" stroke="black" points="1719.5,-0.5 1719.5,-19.5 1799.5,-19.5 1799.5,-0.5 1719.5,-0.5"/>
<text text-anchor="middle" x="1759.5" y="-7.5" font-family="Helvetica,sans-Serif" font-size="10.00">FlatPlate.cpp</text>
</a>
</g>
</g>
<!-- Node30&#45;&gt;Node31 -->
<g id="edge34" class="edge">
<title>Node30&#45;&gt;Node31</title>
<path fill="none" stroke="midnightblue" d="M1759.5,-45.8C1759.5,-36.91 1759.5,-26.78 1759.5,-19.75"/>
<polygon fill="midnightblue" stroke="midnightblue" points="1756,-46.08 1759.5,-56.08 1763,-46.08 1756,-46.08"/>
</g>
</g>
</svg>
