<?xml version="1.0" encoding="UTF-8" standalone="no"?>
<!DOCTYPE svg PUBLIC "-//W3C//DTD SVG 1.1//EN"
 "http://www.w3.org/Graphics/SVG/1.1/DTD/svg11.dtd">
<!-- Generated by graphviz version 2.43.0 (0)
 -->
<!-- Title: stencils.H Pages: 1 -->
<svg width="2137pt" height="308pt"
 viewBox="0.00 0.00 2137.00 308.00" xmlns="http://www.w3.org/2000/svg" xmlns:xlink="http://www.w3.org/1999/xlink">
<g id="graph0" class="graph" transform="scale(1 1) rotate(0) translate(4 304)">
<title>stencils.H</title>
<polygon fill="white" stroke="transparent" points="-4,4 -4,-304 2133,-304 2133,4 -4,4"/>
<!-- Node1 -->
<g id="node1" class="node">
<title>Node1</title>
<g id="a_node1"><a xlink:title="Second&#45;order finite volume discretization stencil coefficients.">
<polygon fill="#bfbfbf" stroke="black" points="1943,-280.5 1943,-299.5 2008,-299.5 2008,-280.5 1943,-280.5"/>
<text text-anchor="middle" x="1975.5" y="-287.5" font-family="Helvetica,sans-Serif" font-size="10.00">stencils.H</text>
</a>
</g>
</g>
<!-- Node2 -->
<g id="node2" class="node">
<title>Node2</title>
<g id="a_node2"><a xlink:href="fvm__utils_8_h.html" target="_top" xlink:title=" ">
<polygon fill="white" stroke="black" points="472,-224.5 472,-243.5 545,-243.5 545,-224.5 472,-224.5"/>
<text text-anchor="middle" x="508.5" y="-231.5" font-family="Helvetica,sans-Serif" font-size="10.00">fvm_utils.H</text>
</a>
</g>
</g>
<!-- Node1&#45;&gt;Node2 -->
<g id="edge1" class="edge">
<title>Node1&#45;&gt;Node2</title>
<path fill="none" stroke="midnightblue" d="M1932.8,-287.43C1716.77,-279.48 746.6,-243.76 545.19,-236.35"/>
<polygon fill="midnightblue" stroke="midnightblue" points="1932.68,-290.93 1942.8,-287.8 1932.94,-283.93 1932.68,-290.93"/>
</g>
<!-- Node47 -->
<g id="node47" class="node">
<title>Node47</title>
<g id="a_node47"><a xlink:href="_a_m_d_8_h.html" target="_top" xlink:title=" ">
<polygon fill="white" stroke="black" points="1950.5,-224.5 1950.5,-243.5 2000.5,-243.5 2000.5,-224.5 1950.5,-224.5"/>
<text text-anchor="middle" x="1975.5" y="-231.5" font-family="Helvetica,sans-Serif" font-size="10.00">AMD.H</text>
</a>
</g>
</g>
<!-- Node1&#45;&gt;Node47 -->
<g id="edge63" class="edge">
<title>Node1&#45;&gt;Node47</title>
<path fill="none" stroke="midnightblue" d="M1975.5,-269.8C1975.5,-260.91 1975.5,-250.78 1975.5,-243.75"/>
<polygon fill="midnightblue" stroke="midnightblue" points="1972,-270.08 1975.5,-280.08 1979,-270.08 1972,-270.08"/>
</g>
<!-- Node48 -->
<g id="node48" class="node">
<title>Node48</title>
<g id="a_node48"><a xlink:href="_a_m_d_no_therm_8_h.html" target="_top" xlink:title=" ">
<polygon fill="white" stroke="black" points="2021,-224.5 2021,-243.5 2116,-243.5 2116,-224.5 2021,-224.5"/>
<text text-anchor="middle" x="2068.5" y="-231.5" font-family="Helvetica,sans-Serif" font-size="10.00">AMDNoTherm.H</text>
</a>
</g>
</g>
<!-- Node1&#45;&gt;Node48 -->
<g id="edge65" class="edge">
<title>Node1&#45;&gt;Node48</title>
<path fill="none" stroke="midnightblue" d="M1999.31,-275.18C2016.42,-265.24 2038.97,-252.15 2053.6,-243.65"/>
<polygon fill="midnightblue" stroke="midnightblue" points="1997.33,-272.28 1990.44,-280.32 2000.85,-278.33 1997.33,-272.28"/>
</g>
<!-- Node3 -->
<g id="node3" class="node">
<title>Node3</title>
<g id="a_node3"><a xlink:href="curvature_8_h.html" target="_top" xlink:title=" ">
<polygon fill="white" stroke="black" points="88.5,-168.5 88.5,-187.5 162.5,-187.5 162.5,-168.5 88.5,-168.5"/>
<text text-anchor="middle" x="125.5" y="-175.5" font-family="Helvetica,sans-Serif" font-size="10.00">curvature.H</text>
</a>
</g>
</g>
<!-- Node2&#45;&gt;Node3 -->
<g id="edge2" class="edge">
<title>Node2&#45;&gt;Node3</title>
<path fill="none" stroke="midnightblue" d="M462.04,-227.7C396.92,-220.06 274.89,-205 171.5,-188 168.61,-187.52 165.62,-187.01 162.62,-186.46"/>
<polygon fill="midnightblue" stroke="midnightblue" points="461.65,-231.18 471.99,-228.86 462.46,-224.22 461.65,-231.18"/>
</g>
<!-- Node6 -->
<g id="node6" class="node">
<title>Node6</title>
<g id="a_node6"><a xlink:href="divergence_8_h.html" target="_top" xlink:title=" ">
<polygon fill="white" stroke="black" points="560,-168.5 560,-187.5 641,-187.5 641,-168.5 560,-168.5"/>
<text text-anchor="middle" x="600.5" y="-175.5" font-family="Helvetica,sans-Serif" font-size="10.00">divergence.H</text>
</a>
</g>
</g>
<!-- Node2&#45;&gt;Node6 -->
<g id="edge5" class="edge">
<title>Node2&#45;&gt;Node6</title>
<path fill="none" stroke="midnightblue" d="M532.05,-219.18C548.98,-209.24 571.28,-196.15 585.76,-187.65"/>
<polygon fill="midnightblue" stroke="midnightblue" points="530.13,-216.24 523.28,-224.32 533.68,-222.28 530.13,-216.24"/>
</g>
<!-- Node8 -->
<g id="node8" class="node">
<title>Node8</title>
<g id="a_node8"><a xlink:href="filter_8_h.html" target="_top" xlink:title=" ">
<polygon fill="white" stroke="black" points="21,-168.5 21,-187.5 70,-187.5 70,-168.5 21,-168.5"/>
<text text-anchor="middle" x="45.5" y="-175.5" font-family="Helvetica,sans-Serif" font-size="10.00">filter.H</text>
</a>
</g>
</g>
<!-- Node2&#45;&gt;Node8 -->
<g id="edge8" class="edge">
<title>Node2&#45;&gt;Node8</title>
<path fill="none" stroke="midnightblue" d="M461.64,-230.46C382.41,-225.63 217.13,-213.28 79.5,-188 76.5,-187.45 73.37,-186.77 70.28,-186.03"/>
<polygon fill="midnightblue" stroke="midnightblue" points="461.6,-233.96 471.79,-231.06 462.01,-226.97 461.6,-233.96"/>
</g>
<!-- Node10 -->
<g id="node10" class="node">
<title>Node10</title>
<g id="a_node10"><a xlink:href="gradient_8_h.html" target="_top" xlink:title=" ">
<polygon fill="white" stroke="black" points="1164.5,-168.5 1164.5,-187.5 1232.5,-187.5 1232.5,-168.5 1164.5,-168.5"/>
<text text-anchor="middle" x="1198.5" y="-175.5" font-family="Helvetica,sans-Serif" font-size="10.00">gradient.H</text>
</a>
</g>
</g>
<!-- Node2&#45;&gt;Node10 -->
<g id="edge11" class="edge">
<title>Node2&#45;&gt;Node10</title>
<path fill="none" stroke="midnightblue" d="M555.17,-229.35C685.45,-219.15 1050.95,-190.55 1164.44,-181.67"/>
<polygon fill="midnightblue" stroke="midnightblue" points="554.81,-225.87 545.11,-230.13 555.35,-232.84 554.81,-225.87"/>
</g>
<!-- Node39 -->
<g id="node39" class="node">
<title>Node39</title>
<g id="a_node39"><a xlink:href="laplacian_8_h.html" target="_top" xlink:title=" ">
<polygon fill="white" stroke="black" points="294,-168.5 294,-187.5 365,-187.5 365,-168.5 294,-168.5"/>
<text text-anchor="middle" x="329.5" y="-175.5" font-family="Helvetica,sans-Serif" font-size="10.00">laplacian.H</text>
</a>
</g>
</g>
<!-- Node2&#45;&gt;Node39 -->
<g id="edge43" class="edge">
<title>Node2&#45;&gt;Node39</title>
<path fill="none" stroke="midnightblue" d="M470.17,-221.44C436.42,-211.26 388.05,-196.66 357.73,-187.52"/>
<polygon fill="midnightblue" stroke="midnightblue" points="469.55,-224.91 480.14,-224.44 471.57,-218.2 469.55,-224.91"/>
</g>
<!-- Node40 -->
<g id="node40" class="node">
<title>Node40</title>
<g id="a_node40"><a xlink:href="non_linear_sum_8_h.html" target="_top" xlink:title=" ">
<polygon fill="white" stroke="black" points="659,-168.5 659,-187.5 756,-187.5 756,-168.5 659,-168.5"/>
<text text-anchor="middle" x="707.5" y="-175.5" font-family="Helvetica,sans-Serif" font-size="10.00">nonLinearSum.H</text>
</a>
</g>
</g>
<!-- Node2&#45;&gt;Node40 -->
<g id="edge45" class="edge">
<title>Node2&#45;&gt;Node40</title>
<path fill="none" stroke="midnightblue" d="M550.15,-221.7C587.71,-211.51 642.11,-196.74 676.12,-187.52"/>
<polygon fill="midnightblue" stroke="midnightblue" points="548.77,-218.45 540.03,-224.44 550.6,-225.2 548.77,-218.45"/>
</g>
<!-- Node41 -->
<g id="node41" class="node">
<title>Node41</title>
<g id="a_node41"><a xlink:href="qcriterion_8_h.html" target="_top" xlink:title=" ">
<polygon fill="white" stroke="black" points="383.5,-168.5 383.5,-187.5 457.5,-187.5 457.5,-168.5 383.5,-168.5"/>
<text text-anchor="middle" x="420.5" y="-175.5" font-family="Helvetica,sans-Serif" font-size="10.00">qcriterion.H</text>
</a>
</g>
</g>
<!-- Node2&#45;&gt;Node41 -->
<g id="edge47" class="edge">
<title>Node2&#45;&gt;Node41</title>
<path fill="none" stroke="midnightblue" d="M485.52,-218.9C469.39,-209 448.32,-196.07 434.6,-187.65"/>
<polygon fill="midnightblue" stroke="midnightblue" points="484.01,-222.08 494.36,-224.32 487.67,-216.11 484.01,-222.08"/>
</g>
<!-- Node42 -->
<g id="node42" class="node">
<title>Node42</title>
<g id="a_node42"><a xlink:href="strainrate_8_h.html" target="_top" xlink:title=" ">
<polygon fill="white" stroke="black" points="774.5,-168.5 774.5,-187.5 848.5,-187.5 848.5,-168.5 774.5,-168.5"/>
<text text-anchor="middle" x="811.5" y="-175.5" font-family="Helvetica,sans-Serif" font-size="10.00">strainrate.H</text>
</a>
</g>
</g>
<!-- Node2&#45;&gt;Node42 -->
<g id="edge49" class="edge">
<title>Node2&#45;&gt;Node42</title>
<path fill="none" stroke="midnightblue" d="M555.3,-225.09C606.85,-216.32 692.17,-201.59 765.5,-188 768.38,-187.47 771.36,-186.9 774.36,-186.33"/>
<polygon fill="midnightblue" stroke="midnightblue" points="554.41,-221.69 545.14,-226.82 555.59,-228.59 554.41,-221.69"/>
</g>
<!-- Node44 -->
<g id="node44" class="node">
<title>Node44</title>
<g id="a_node44"><a xlink:href="vorticity_8_h.html" target="_top" xlink:title=" ">
<polygon fill="white" stroke="black" points="475.5,-168.5 475.5,-187.5 541.5,-187.5 541.5,-168.5 475.5,-168.5"/>
<text text-anchor="middle" x="508.5" y="-175.5" font-family="Helvetica,sans-Serif" font-size="10.00">vorticity.H</text>
</a>
</g>
</g>
<!-- Node2&#45;&gt;Node44 -->
<g id="edge56" class="edge">
<title>Node2&#45;&gt;Node44</title>
<path fill="none" stroke="midnightblue" d="M508.5,-213.8C508.5,-204.91 508.5,-194.78 508.5,-187.75"/>
<polygon fill="midnightblue" stroke="midnightblue" points="505,-214.08 508.5,-224.08 512,-214.08 505,-214.08"/>
</g>
<!-- Node45 -->
<g id="node45" class="node">
<title>Node45</title>
<g id="a_node45"><a xlink:href="vorticity__mag_8_h.html" target="_top" xlink:title=" ">
<polygon fill="white" stroke="black" points="181,-168.5 181,-187.5 276,-187.5 276,-168.5 181,-168.5"/>
<text text-anchor="middle" x="228.5" y="-175.5" font-family="Helvetica,sans-Serif" font-size="10.00">vorticity_mag.H</text>
</a>
</g>
</g>
<!-- Node2&#45;&gt;Node45 -->
<g id="edge59" class="edge">
<title>Node2&#45;&gt;Node45</title>
<path fill="none" stroke="midnightblue" d="M461.84,-224C409.31,-213.87 324.58,-197.53 272.97,-187.58"/>
<polygon fill="midnightblue" stroke="midnightblue" points="461.41,-227.48 471.89,-225.94 462.74,-220.61 461.41,-227.48"/>
</g>
<!-- Node4 -->
<g id="node4" class="node">
<title>Node4</title>
<g id="a_node4"><a xlink:href="fvm_8_h.html" target="_top" xlink:title=" ">
<polygon fill="white" stroke="black" points="354,-112.5 354,-131.5 401,-131.5 401,-112.5 354,-112.5"/>
<text text-anchor="middle" x="377.5" y="-119.5" font-family="Helvetica,sans-Serif" font-size="10.00">fvm.H</text>
</a>
</g>
</g>
<!-- Node3&#45;&gt;Node4 -->
<g id="edge3" class="edge">
<title>Node3&#45;&gt;Node4</title>
<path fill="none" stroke="midnightblue" d="M172.67,-166.89C226.52,-155.35 312.47,-136.94 353.79,-128.08"/>
<polygon fill="midnightblue" stroke="midnightblue" points="171.73,-163.51 162.68,-169.03 173.19,-170.36 171.73,-163.51"/>
</g>
<!-- Node5 -->
<g id="node5" class="node">
<title>Node5</title>
<g id="a_node5"><a xlink:href="_derived_qty_defs_8cpp.html" target="_top" xlink:title=" ">
<polygon fill="white" stroke="black" points="320,-56.5 320,-75.5 435,-75.5 435,-56.5 320,-56.5"/>
<text text-anchor="middle" x="377.5" y="-63.5" font-family="Helvetica,sans-Serif" font-size="10.00">DerivedQtyDefs.cpp</text>
</a>
</g>
</g>
<!-- Node4&#45;&gt;Node5 -->
<g id="edge4" class="edge">
<title>Node4&#45;&gt;Node5</title>
<path fill="none" stroke="midnightblue" d="M377.5,-101.8C377.5,-92.91 377.5,-82.78 377.5,-75.75"/>
<polygon fill="midnightblue" stroke="midnightblue" points="374,-102.08 377.5,-112.08 381,-102.08 374,-102.08"/>
</g>
<!-- Node6&#45;&gt;Node4 -->
<g id="edge6" class="edge">
<title>Node6&#45;&gt;Node4</title>
<path fill="none" stroke="midnightblue" d="M553.02,-166.22C514.52,-157.37 458.9,-144.33 410.5,-132 407.51,-131.24 404.37,-130.41 401.27,-129.58"/>
<polygon fill="midnightblue" stroke="midnightblue" points="552.39,-169.67 562.92,-168.49 553.95,-162.84 552.39,-169.67"/>
</g>
<!-- Node7 -->
<g id="node7" class="node">
<title>Node7</title>
<g id="a_node7"><a xlink:href="_kosovic_8cpp.html" target="_top" xlink:title=" ">
<polygon fill="white" stroke="black" points="563.5,-112.5 563.5,-131.5 637.5,-131.5 637.5,-112.5 563.5,-112.5"/>
<text text-anchor="middle" x="600.5" y="-119.5" font-family="Helvetica,sans-Serif" font-size="10.00">Kosovic.cpp</text>
</a>
</g>
</g>
<!-- Node6&#45;&gt;Node7 -->
<g id="edge7" class="edge">
<title>Node6&#45;&gt;Node7</title>
<path fill="none" stroke="midnightblue" d="M600.5,-157.8C600.5,-148.91 600.5,-138.78 600.5,-131.75"/>
<polygon fill="midnightblue" stroke="midnightblue" points="597,-158.08 600.5,-168.08 604,-158.08 597,-158.08"/>
</g>
<!-- Node8&#45;&gt;Node4 -->
<g id="edge9" class="edge">
<title>Node8&#45;&gt;Node4</title>
<path fill="none" stroke="midnightblue" d="M80.36,-168.03C188.03,-146.11 304.65,-131.45 353.78,-125.69"/>
<polygon fill="midnightblue" stroke="midnightblue" points="79.4,-164.65 70.31,-170.1 80.81,-171.51 79.4,-164.65"/>
</g>
<!-- Node9 -->
<g id="node9" class="node">
<title>Node9</title>
<g id="a_node9"><a xlink:href="_multi_phase_8cpp.html" target="_top" xlink:title=" ">
<polygon fill="white" stroke="black" points="0,-112.5 0,-131.5 91,-131.5 91,-112.5 0,-112.5"/>
<text text-anchor="middle" x="45.5" y="-119.5" font-family="Helvetica,sans-Serif" font-size="10.00">MultiPhase.cpp</text>
</a>
</g>
</g>
<!-- Node8&#45;&gt;Node9 -->
<g id="edge10" class="edge">
<title>Node8&#45;&gt;Node9</title>
<path fill="none" stroke="midnightblue" d="M45.5,-157.8C45.5,-148.91 45.5,-138.78 45.5,-131.75"/>
<polygon fill="midnightblue" stroke="midnightblue" points="42,-158.08 45.5,-168.08 49,-158.08 42,-158.08"/>
</g>
<!-- Node10&#45;&gt;Node4 -->
<g id="edge12" class="edge">
<title>Node10&#45;&gt;Node4</title>
<path fill="none" stroke="midnightblue" d="M1153.8,-175.68C1009.23,-171.21 555.3,-155.61 410.5,-132 407.45,-131.5 404.28,-130.84 401.16,-130.09"/>
<polygon fill="midnightblue" stroke="midnightblue" points="1153.96,-179.18 1164.06,-175.99 1154.18,-172.19 1153.96,-179.18"/>
</g>
<!-- Node11 -->
<g id="node11" class="node">
<title>Node11</title>
<g id="a_node11"><a xlink:href="bluff__body__ops_8cpp.html" target="_top" xlink:title=" ">
<polygon fill="white" stroke="black" points="1097.5,-56.5 1097.5,-75.5 1207.5,-75.5 1207.5,-56.5 1097.5,-56.5"/>
<text text-anchor="middle" x="1152.5" y="-63.5" font-family="Helvetica,sans-Serif" font-size="10.00">bluff_body_ops.cpp</text>
</a>
</g>
</g>
<!-- Node10&#45;&gt;Node11 -->
<g id="edge13" class="edge">
<title>Node10&#45;&gt;Node11</title>
<path fill="none" stroke="midnightblue" d="M1175.25,-162.68C1165.02,-154.99 1154.07,-144.5 1148.5,-132 1140.22,-113.41 1145.56,-88.83 1149.46,-75.87"/>
<polygon fill="midnightblue" stroke="midnightblue" points="1173.34,-165.62 1183.55,-168.47 1177.35,-159.88 1173.34,-165.62"/>
</g>
<!-- Node12 -->
<g id="node12" class="node">
<title>Node12</title>
<g id="a_node12"><a xlink:href="bluff__body__ops_8_h.html" target="_top" xlink:title=" ">
<polygon fill="white" stroke="black" points="995,-112.5 995,-131.5 1096,-131.5 1096,-112.5 995,-112.5"/>
<text text-anchor="middle" x="1045.5" y="-119.5" font-family="Helvetica,sans-Serif" font-size="10.00">bluff_body_ops.H</text>
</a>
</g>
</g>
<!-- Node10&#45;&gt;Node12 -->
<g id="edge14" class="edge">
<title>Node10&#45;&gt;Node12</title>
<path fill="none" stroke="midnightblue" d="M1164.61,-165.04C1135.82,-154.88 1095.21,-140.55 1069.63,-131.52"/>
<polygon fill="midnightblue" stroke="midnightblue" points="1163.66,-168.42 1174.26,-168.44 1165.99,-161.81 1163.66,-168.42"/>
</g>
<!-- Node19 -->
<g id="node19" class="node">
<title>Node19</title>
<g id="a_node19"><a xlink:href="relaxation__zones__ops_8cpp.html" target="_top" xlink:title=" ">
<polygon fill="white" stroke="black" points="1368,-56.5 1368,-75.5 1511,-75.5 1511,-56.5 1368,-56.5"/>
<text text-anchor="middle" x="1439.5" y="-63.5" font-family="Helvetica,sans-Serif" font-size="10.00">relaxation_zones_ops.cpp</text>
</a>
</g>
</g>
<!-- Node10&#45;&gt;Node19 -->
<g id="edge22" class="edge">
<title>Node10&#45;&gt;Node19</title>
<path fill="none" stroke="midnightblue" d="M1186.69,-159.52C1178.66,-145.24 1171.32,-125.3 1182.5,-112 1205.77,-84.3 1300.08,-73.65 1367.7,-69.55"/>
<polygon fill="midnightblue" stroke="midnightblue" points="1183.92,-161.68 1192.15,-168.35 1189.87,-158.01 1183.92,-161.68"/>
</g>
<!-- Node20 -->
<g id="node20" class="node">
<title>Node20</title>
<g id="a_node20"><a xlink:href="relaxation__zones__ops_8_h.html" target="_top" xlink:title=" ">
<polygon fill="white" stroke="black" points="1794,-112.5 1794,-131.5 1927,-131.5 1927,-112.5 1794,-112.5"/>
<text text-anchor="middle" x="1860.5" y="-119.5" font-family="Helvetica,sans-Serif" font-size="10.00">relaxation_zones_ops.H</text>
</a>
</g>
</g>
<!-- Node10&#45;&gt;Node20 -->
<g id="edge23" class="edge">
<title>Node10&#45;&gt;Node20</title>
<path fill="none" stroke="midnightblue" d="M1242.66,-174.23C1340.41,-167.97 1582.41,-151.72 1784.5,-132 1787.54,-131.7 1790.65,-131.39 1793.79,-131.06"/>
<polygon fill="midnightblue" stroke="midnightblue" points="1242.32,-170.75 1232.56,-174.88 1242.76,-177.73 1242.32,-170.75"/>
</g>
<!-- Node29 -->
<g id="node29" class="node">
<title>Node29</title>
<g id="a_node29"><a xlink:href="_dam_break_8cpp.html" target="_top" xlink:title=" ">
<polygon fill="white" stroke="black" points="1191,-112.5 1191,-131.5 1280,-131.5 1280,-112.5 1191,-112.5"/>
<text text-anchor="middle" x="1235.5" y="-119.5" font-family="Helvetica,sans-Serif" font-size="10.00">DamBreak.cpp</text>
</a>
</g>
</g>
<!-- Node10&#45;&gt;Node29 -->
<g id="edge33" class="edge">
<title>Node10&#45;&gt;Node29</title>
<path fill="none" stroke="midnightblue" d="M1210.45,-159.57C1216.81,-150.27 1224.37,-139.25 1229.5,-131.75"/>
<polygon fill="midnightblue" stroke="midnightblue" points="1207.37,-157.86 1204.61,-168.08 1213.15,-161.81 1207.37,-157.86"/>
</g>
<!-- Node30 -->
<g id="node30" class="node">
<title>Node30</title>
<g id="a_node30"><a xlink:href="_sloshing_tank_8cpp.html" target="_top" xlink:title=" ">
<polygon fill="white" stroke="black" points="1298,-112.5 1298,-131.5 1399,-131.5 1399,-112.5 1298,-112.5"/>
<text text-anchor="middle" x="1348.5" y="-119.5" font-family="Helvetica,sans-Serif" font-size="10.00">SloshingTank.cpp</text>
</a>
</g>
</g>
<!-- Node10&#45;&gt;Node30 -->
<g id="edge34" class="edge">
<title>Node10&#45;&gt;Node30</title>
<path fill="none" stroke="midnightblue" d="M1231.72,-165.04C1259.95,-154.88 1299.76,-140.55 1324.84,-131.52"/>
<polygon fill="midnightblue" stroke="midnightblue" points="1230.49,-161.76 1222.27,-168.44 1232.86,-168.35 1230.49,-161.76"/>
</g>
<!-- Node31 -->
<g id="node31" class="node">
<title>Node31</title>
<g id="a_node31"><a xlink:href="_zalesak_disk_8cpp.html" target="_top" xlink:title=" ">
<polygon fill="white" stroke="black" points="1417.5,-112.5 1417.5,-131.5 1515.5,-131.5 1515.5,-112.5 1417.5,-112.5"/>
<text text-anchor="middle" x="1466.5" y="-119.5" font-family="Helvetica,sans-Serif" font-size="10.00">ZalesakDisk.cpp</text>
</a>
</g>
</g>
<!-- Node10&#45;&gt;Node31 -->
<g id="edge35" class="edge">
<title>Node10&#45;&gt;Node31</title>
<path fill="none" stroke="midnightblue" d="M1242.64,-168.11C1292.94,-157.97 1374.55,-141.53 1424.11,-131.54"/>
<polygon fill="midnightblue" stroke="midnightblue" points="1241.83,-164.7 1232.71,-170.11 1243.21,-171.56 1241.83,-164.7"/>
</g>
<!-- Node32 -->
<g id="node32" class="node">
<title>Node32</title>
<g id="a_node32"><a xlink:href="_zalesak_disk_scalar_vel_8cpp.html" target="_top" xlink:title=" ">
<polygon fill="white" stroke="black" points="1534,-112.5 1534,-131.5 1677,-131.5 1677,-112.5 1534,-112.5"/>
<text text-anchor="middle" x="1605.5" y="-119.5" font-family="Helvetica,sans-Serif" font-size="10.00">ZalesakDiskScalarVel.cpp</text>
</a>
</g>
</g>
<!-- Node10&#45;&gt;Node32 -->
<g id="edge36" class="edge">
<title>Node10&#45;&gt;Node32</title>
<path fill="none" stroke="midnightblue" d="M1242.6,-171.15C1314.66,-161.59 1457.94,-142.58 1541.29,-131.52"/>
<polygon fill="midnightblue" stroke="midnightblue" points="1241.95,-167.7 1232.5,-172.49 1242.87,-174.64 1241.95,-167.7"/>
</g>
<!-- Node33 -->
<g id="node33" class="node">
<title>Node33</title>
<g id="a_node33"><a xlink:href="_a_m_d_8cpp.html" target="_top" xlink:title=" ">
<polygon fill="white" stroke="black" points="1945.5,-112.5 1945.5,-131.5 2005.5,-131.5 2005.5,-112.5 1945.5,-112.5"/>
<text text-anchor="middle" x="1975.5" y="-119.5" font-family="Helvetica,sans-Serif" font-size="10.00">AMD.cpp</text>
</a>
</g>
</g>
<!-- Node10&#45;&gt;Node33 -->
<g id="edge37" class="edge">
<title>Node10&#45;&gt;Node33</title>
<path fill="none" stroke="midnightblue" d="M1242.71,-176.85C1357.7,-175.92 1675.33,-169.83 1936.5,-132 1939.39,-131.58 1942.38,-131.06 1945.36,-130.48"/>
<polygon fill="midnightblue" stroke="midnightblue" points="1242.52,-173.35 1232.54,-176.93 1242.57,-180.35 1242.52,-173.35"/>
</g>
<!-- Node34 -->
<g id="node34" class="node">
<title>Node34</title>
<g id="a_node34"><a xlink:href="_a_m_d_no_therm_8cpp.html" target="_top" xlink:title=" ">
<polygon fill="white" stroke="black" points="2024,-112.5 2024,-131.5 2129,-131.5 2129,-112.5 2024,-112.5"/>
<text text-anchor="middle" x="2076.5" y="-119.5" font-family="Helvetica,sans-Serif" font-size="10.00">AMDNoTherm.cpp</text>
</a>
</g>
</g>
<!-- Node10&#45;&gt;Node34 -->
<g id="edge38" class="edge">
<title>Node10&#45;&gt;Node34</title>
<path fill="none" stroke="midnightblue" d="M1242.94,-175.94C1365.9,-172.71 1720.93,-161.34 2014.5,-132 2017.53,-131.7 2020.64,-131.35 2023.77,-130.98"/>
<polygon fill="midnightblue" stroke="midnightblue" points="1242.69,-172.45 1232.79,-176.2 1242.88,-179.44 1242.69,-172.45"/>
</g>
<!-- Node35 -->
<g id="node35" class="node">
<title>Node35</title>
<g id="a_node35"><a xlink:href="_one_eq_ksgs_8cpp.html" target="_top" xlink:title=" ">
<polygon fill="white" stroke="black" points="771.5,-112.5 771.5,-131.5 863.5,-131.5 863.5,-112.5 771.5,-112.5"/>
<text text-anchor="middle" x="817.5" y="-119.5" font-family="Helvetica,sans-Serif" font-size="10.00">OneEqKsgs.cpp</text>
</a>
</g>
</g>
<!-- Node10&#45;&gt;Node35 -->
<g id="edge39" class="edge">
<title>Node10&#45;&gt;Node35</title>
<path fill="none" stroke="midnightblue" d="M1154.39,-171.2C1091.84,-162.91 973.83,-147.01 873.5,-132 870.29,-131.52 866.97,-131.01 863.63,-130.5"/>
<polygon fill="midnightblue" stroke="midnightblue" points="1153.93,-174.67 1164.31,-172.51 1154.85,-167.73 1153.93,-174.67"/>
</g>
<!-- Node36 -->
<g id="node36" class="node">
<title>Node36</title>
<g id="a_node36"><a xlink:href="_k_omega_s_s_t_8cpp.html" target="_top" xlink:title=" ">
<polygon fill="white" stroke="black" points="882,-112.5 882,-131.5 977,-131.5 977,-112.5 882,-112.5"/>
<text text-anchor="middle" x="929.5" y="-119.5" font-family="Helvetica,sans-Serif" font-size="10.00">KOmegaSST.cpp</text>
</a>
</g>
</g>
<!-- Node10&#45;&gt;Node36 -->
<g id="edge40" class="edge">
<title>Node10&#45;&gt;Node36</title>
<path fill="none" stroke="midnightblue" d="M1154.48,-168.16C1104.05,-158.04 1021.99,-141.57 972.15,-131.56"/>
<polygon fill="midnightblue" stroke="midnightblue" points="1153.94,-171.62 1164.43,-170.16 1155.32,-164.76 1153.94,-171.62"/>
</g>
<!-- Node37 -->
<g id="node37" class="node">
<title>Node37</title>
<g id="a_node37"><a xlink:href="_k_omega_s_s_t_i_d_d_e_s_8cpp.html" target="_top" xlink:title=" ">
<polygon fill="white" stroke="black" points="419.5,-112.5 419.5,-131.5 545.5,-131.5 545.5,-112.5 419.5,-112.5"/>
<text text-anchor="middle" x="482.5" y="-119.5" font-family="Helvetica,sans-Serif" font-size="10.00">KOmegaSSTIDDES.cpp</text>
</a>
</g>
</g>
<!-- Node10&#45;&gt;Node37 -->
<g id="edge41" class="edge">
<title>Node10&#45;&gt;Node37</title>
<path fill="none" stroke="midnightblue" d="M1154.05,-174.73C1049.4,-169.21 779.36,-153.89 554.5,-132 551.62,-131.72 548.67,-131.42 545.69,-131.1"/>
<polygon fill="midnightblue" stroke="midnightblue" points="1154.07,-178.24 1164.24,-175.27 1154.43,-171.25 1154.07,-178.24"/>
</g>
<!-- Node38 -->
<g id="node38" class="node">
<title>Node38</title>
<g id="a_node38"><a xlink:href="_a_b_l_stats_8cpp.html" target="_top" xlink:title=" ">
<polygon fill="white" stroke="black" points="1695.5,-112.5 1695.5,-131.5 1775.5,-131.5 1775.5,-112.5 1695.5,-112.5"/>
<text text-anchor="middle" x="1735.5" y="-119.5" font-family="Helvetica,sans-Serif" font-size="10.00">ABLStats.cpp</text>
</a>
</g>
</g>
<!-- Node10&#45;&gt;Node38 -->
<g id="edge42" class="edge">
<title>Node10&#45;&gt;Node38</title>
<path fill="none" stroke="midnightblue" d="M1242.8,-174.25C1328.68,-168.63 1523.66,-154.42 1686.5,-132 1689.41,-131.6 1692.42,-131.15 1695.44,-130.66"/>
<polygon fill="midnightblue" stroke="midnightblue" points="1242.39,-170.77 1232.64,-174.91 1242.84,-177.76 1242.39,-170.77"/>
</g>
<!-- Node12&#45;&gt;Node11 -->
<g id="edge15" class="edge">
<title>Node12&#45;&gt;Node11</title>
<path fill="none" stroke="midnightblue" d="M1071.8,-107.73C1091.61,-97.73 1118.21,-84.31 1135.35,-75.65"/>
<polygon fill="midnightblue" stroke="midnightblue" points="1070.04,-104.69 1062.69,-112.32 1073.2,-110.94 1070.04,-104.69"/>
</g>
<!-- Node13 -->
<g id="node13" class="node">
<title>Node13</title>
<g id="a_node13"><a xlink:href="box__ops_8_h.html" target="_top" xlink:title=" ">
<polygon fill="white" stroke="black" points="1011.5,-56.5 1011.5,-75.5 1079.5,-75.5 1079.5,-56.5 1011.5,-56.5"/>
<text text-anchor="middle" x="1045.5" y="-63.5" font-family="Helvetica,sans-Serif" font-size="10.00">box_ops.H</text>
</a>
</g>
</g>
<!-- Node12&#45;&gt;Node13 -->
<g id="edge16" class="edge">
<title>Node12&#45;&gt;Node13</title>
<path fill="none" stroke="midnightblue" d="M1045.5,-101.8C1045.5,-92.91 1045.5,-82.78 1045.5,-75.75"/>
<polygon fill="midnightblue" stroke="midnightblue" points="1042,-102.08 1045.5,-112.08 1049,-102.08 1042,-102.08"/>
</g>
<!-- Node15 -->
<g id="node15" class="node">
<title>Node15</title>
<g id="a_node15"><a xlink:href="cylinder__ops_8_h.html" target="_top" xlink:title=" ">
<polygon fill="white" stroke="black" points="803,-56.5 803,-75.5 892,-75.5 892,-56.5 803,-56.5"/>
<text text-anchor="middle" x="847.5" y="-63.5" font-family="Helvetica,sans-Serif" font-size="10.00">cylinder_ops.H</text>
</a>
</g>
</g>
<!-- Node12&#45;&gt;Node15 -->
<g id="edge18" class="edge">
<title>Node12&#45;&gt;Node15</title>
<path fill="none" stroke="midnightblue" d="M1004.06,-109.7C966.69,-99.51 912.56,-84.74 878.73,-75.52"/>
<polygon fill="midnightblue" stroke="midnightblue" points="1003.56,-113.19 1014.13,-112.44 1005.4,-106.44 1003.56,-113.19"/>
</g>
<!-- Node17 -->
<g id="node17" class="node">
<title>Node17</title>
<g id="a_node17"><a xlink:href="sphere__ops_8_h.html" target="_top" xlink:title=" ">
<polygon fill="white" stroke="black" points="910,-56.5 910,-75.5 993,-75.5 993,-56.5 910,-56.5"/>
<text text-anchor="middle" x="951.5" y="-63.5" font-family="Helvetica,sans-Serif" font-size="10.00">sphere_ops.H</text>
</a>
</g>
</g>
<!-- Node12&#45;&gt;Node17 -->
<g id="edge20" class="edge">
<title>Node12&#45;&gt;Node17</title>
<path fill="none" stroke="midnightblue" d="M1021.44,-107.18C1004.14,-97.24 981.35,-84.15 966.57,-75.65"/>
<polygon fill="midnightblue" stroke="midnightblue" points="1019.98,-110.38 1030.4,-112.32 1023.47,-104.31 1019.98,-110.38"/>
</g>
<!-- Node14 -->
<g id="node14" class="node">
<title>Node14</title>
<g id="a_node14"><a xlink:href="_box_8cpp.html" target="_top" xlink:title=" ">
<polygon fill="white" stroke="black" points="1017.5,-0.5 1017.5,-19.5 1073.5,-19.5 1073.5,-0.5 1017.5,-0.5"/>
<text text-anchor="middle" x="1045.5" y="-7.5" font-family="Helvetica,sans-Serif" font-size="10.00">Box.cpp</text>
</a>
</g>
</g>
<!-- Node13&#45;&gt;Node14 -->
<g id="edge17" class="edge">
<title>Node13&#45;&gt;Node14</title>
<path fill="none" stroke="midnightblue" d="M1045.5,-45.8C1045.5,-36.91 1045.5,-26.78 1045.5,-19.75"/>
<polygon fill="midnightblue" stroke="midnightblue" points="1042,-46.08 1045.5,-56.08 1049,-46.08 1042,-46.08"/>
</g>
<!-- Node16 -->
<g id="node16" class="node">
<title>Node16</title>
<g id="a_node16"><a xlink:href="_cylinder_8cpp.html" target="_top" xlink:title=" ">
<polygon fill="white" stroke="black" points="809,-0.5 809,-19.5 886,-19.5 886,-0.5 809,-0.5"/>
<text text-anchor="middle" x="847.5" y="-7.5" font-family="Helvetica,sans-Serif" font-size="10.00">Cylinder.cpp</text>
</a>
</g>
</g>
<!-- Node15&#45;&gt;Node16 -->
<g id="edge19" class="edge">
<title>Node15&#45;&gt;Node16</title>
<path fill="none" stroke="midnightblue" d="M847.5,-45.8C847.5,-36.91 847.5,-26.78 847.5,-19.75"/>
<polygon fill="midnightblue" stroke="midnightblue" points="844,-46.08 847.5,-56.08 851,-46.08 844,-46.08"/>
</g>
<!-- Node18 -->
<g id="node18" class="node">
<title>Node18</title>
<g id="a_node18"><a xlink:href="_sphere_8cpp.html" target="_top" xlink:title=" ">
<polygon fill="white" stroke="black" points="916,-0.5 916,-19.5 987,-19.5 987,-0.5 916,-0.5"/>
<text text-anchor="middle" x="951.5" y="-7.5" font-family="Helvetica,sans-Serif" font-size="10.00">Sphere.cpp</text>
</a>
</g>
</g>
<!-- Node17&#45;&gt;Node18 -->
<g id="edge21" class="edge">
<title>Node17&#45;&gt;Node18</title>
<path fill="none" stroke="midnightblue" d="M951.5,-45.8C951.5,-36.91 951.5,-26.78 951.5,-19.75"/>
<polygon fill="midnightblue" stroke="midnightblue" points="948,-46.08 951.5,-56.08 955,-46.08 948,-46.08"/>
</g>
<!-- Node20&#45;&gt;Node19 -->
<g id="edge28" class="edge">
<title>Node20&#45;&gt;Node19</title>
<path fill="none" stroke="midnightblue" d="M1783.84,-111.17C1704.35,-100.97 1581.36,-85.2 1505.9,-75.52"/>
<polygon fill="midnightblue" stroke="midnightblue" points="1783.43,-114.64 1793.79,-112.44 1784.32,-107.7 1783.43,-114.64"/>
</g>
<!-- Node21 -->
<g id="node21" class="node">
<title>Node21</title>
<g id="a_node21"><a xlink:href="hos__waves__ops_8_h.html" target="_top" xlink:title=" ">
<polygon fill="white" stroke="black" points="1744.5,-56.5 1744.5,-75.5 1848.5,-75.5 1848.5,-56.5 1744.5,-56.5"/>
<text text-anchor="middle" x="1796.5" y="-63.5" font-family="Helvetica,sans-Serif" font-size="10.00">hos_waves_ops.H</text>
</a>
</g>
</g>
<!-- Node20&#45;&gt;Node21 -->
<g id="edge24" class="edge">
<title>Node20&#45;&gt;Node21</title>
<path fill="none" stroke="midnightblue" d="M1842.51,-105.82C1831.04,-96.15 1816.59,-83.95 1806.97,-75.83"/>
<polygon fill="midnightblue" stroke="midnightblue" points="1840.32,-108.55 1850.22,-112.32 1844.83,-103.2 1840.32,-108.55"/>
</g>
<!-- Node23 -->
<g id="node23" class="node">
<title>Node23</title>
<g id="a_node23"><a xlink:href="linear__waves__ops_8_h.html" target="_top" xlink:title=" ">
<polygon fill="white" stroke="black" points="1866.5,-56.5 1866.5,-75.5 1980.5,-75.5 1980.5,-56.5 1866.5,-56.5"/>
<text text-anchor="middle" x="1923.5" y="-63.5" font-family="Helvetica,sans-Serif" font-size="10.00">linear_waves_ops.H</text>
</a>
</g>
</g>
<!-- Node20&#45;&gt;Node23 -->
<g id="edge26" class="edge">
<title>Node20&#45;&gt;Node23</title>
<path fill="none" stroke="midnightblue" d="M1878.54,-105.54C1889.77,-95.91 1903.82,-83.87 1913.19,-75.83"/>
<polygon fill="midnightblue" stroke="midnightblue" points="1875.94,-103.16 1870.62,-112.32 1880.49,-108.47 1875.94,-103.16"/>
</g>
<!-- Node25 -->
<g id="node25" class="node">
<title>Node25</title>
<g id="a_node25"><a xlink:href="stokes__waves__ops_8_h.html" target="_top" xlink:title=" ">
<polygon fill="white" stroke="black" points="1608.5,-56.5 1608.5,-75.5 1726.5,-75.5 1726.5,-56.5 1608.5,-56.5"/>
<text text-anchor="middle" x="1667.5" y="-63.5" font-family="Helvetica,sans-Serif" font-size="10.00">stokes_waves_ops.H</text>
</a>
</g>
</g>
<!-- Node20&#45;&gt;Node25 -->
<g id="edge29" class="edge">
<title>Node20&#45;&gt;Node25</title>
<path fill="none" stroke="midnightblue" d="M1820.11,-109.7C1783.68,-99.51 1730.91,-84.74 1697.94,-75.52"/>
<polygon fill="midnightblue" stroke="midnightblue" points="1819.35,-113.12 1829.92,-112.44 1821.23,-106.38 1819.35,-113.12"/>
</g>
<!-- Node27 -->
<g id="node27" class="node">
<title>Node27</title>
<g id="a_node27"><a xlink:href="waves2amr__ops_8_h.html" target="_top" xlink:title=" ">
<polygon fill="white" stroke="black" points="1999,-56.5 1999,-75.5 2106,-75.5 2106,-56.5 1999,-56.5"/>
<text text-anchor="middle" x="2052.5" y="-63.5" font-family="Helvetica,sans-Serif" font-size="10.00">waves2amr_ops.H</text>
</a>
</g>
</g>
<!-- Node20&#45;&gt;Node27 -->
<g id="edge31" class="edge">
<title>Node20&#45;&gt;Node27</title>
<path fill="none" stroke="midnightblue" d="M1900.68,-109.7C1936.92,-99.51 1989.41,-84.74 2022.22,-75.52"/>
<polygon fill="midnightblue" stroke="midnightblue" points="1899.6,-106.37 1890.92,-112.44 1901.5,-113.11 1899.6,-106.37"/>
</g>
<!-- Node22 -->
<g id="node22" class="node">
<title>Node22</title>
<g id="a_node22"><a xlink:href="_h_o_s_waves_8cpp.html" target="_top" xlink:title=" ">
<polygon fill="white" stroke="black" points="1751.5,-0.5 1751.5,-19.5 1841.5,-19.5 1841.5,-0.5 1751.5,-0.5"/>
<text text-anchor="middle" x="1796.5" y="-7.5" font-family="Helvetica,sans-Serif" font-size="10.00">HOSWaves.cpp</text>
</a>
</g>
</g>
<!-- Node21&#45;&gt;Node22 -->
<g id="edge25" class="edge">
<title>Node21&#45;&gt;Node22</title>
<path fill="none" stroke="midnightblue" d="M1796.5,-45.8C1796.5,-36.91 1796.5,-26.78 1796.5,-19.75"/>
<polygon fill="midnightblue" stroke="midnightblue" points="1793,-46.08 1796.5,-56.08 1800,-46.08 1793,-46.08"/>
</g>
<!-- Node24 -->
<g id="node24" class="node">
<title>Node24</title>
<g id="a_node24"><a xlink:href="_linear_waves_8cpp.html" target="_top" xlink:title=" ">
<polygon fill="white" stroke="black" points="1874,-0.5 1874,-19.5 1973,-19.5 1973,-0.5 1874,-0.5"/>
<text text-anchor="middle" x="1923.5" y="-7.5" font-family="Helvetica,sans-Serif" font-size="10.00">LinearWaves.cpp</text>
</a>
</g>
</g>
<!-- Node23&#45;&gt;Node24 -->
<g id="edge27" class="edge">
<title>Node23&#45;&gt;Node24</title>
<path fill="none" stroke="midnightblue" d="M1923.5,-45.8C1923.5,-36.91 1923.5,-26.78 1923.5,-19.75"/>
<polygon fill="midnightblue" stroke="midnightblue" points="1920,-46.08 1923.5,-56.08 1927,-46.08 1920,-46.08"/>
</g>
<!-- Node26 -->
<g id="node26" class="node">
<title>Node26</title>
<g id="a_node26"><a xlink:href="_stokes_waves_8cpp.html" target="_top" xlink:title=" ">
<polygon fill="white" stroke="black" points="1617,-0.5 1617,-19.5 1718,-19.5 1718,-0.5 1617,-0.5"/>
<text text-anchor="middle" x="1667.5" y="-7.5" font-family="Helvetica,sans-Serif" font-size="10.00">StokesWaves.cpp</text>
</a>
</g>
</g>
<!-- Node25&#45;&gt;Node26 -->
<g id="edge30" class="edge">
<title>Node25&#45;&gt;Node26</title>
<path fill="none" stroke="midnightblue" d="M1667.5,-45.8C1667.5,-36.91 1667.5,-26.78 1667.5,-19.75"/>
<polygon fill="midnightblue" stroke="midnightblue" points="1664,-46.08 1667.5,-56.08 1671,-46.08 1664,-46.08"/>
</g>
<!-- Node28 -->
<g id="node28" class="node">
<title>Node28</title>
<g id="a_node28"><a xlink:href="_w2_a_waves_8cpp.html" target="_top" xlink:title=" ">
<polygon fill="white" stroke="black" points="2007,-0.5 2007,-19.5 2098,-19.5 2098,-0.5 2007,-0.5"/>
<text text-anchor="middle" x="2052.5" y="-7.5" font-family="Helvetica,sans-Serif" font-size="10.00">W2AWaves.cpp</text>
</a>
</g>
</g>
<!-- Node27&#45;&gt;Node28 -->
<g id="edge32" class="edge">
<title>Node27&#45;&gt;Node28</title>
<path fill="none" stroke="midnightblue" d="M2052.5,-45.8C2052.5,-36.91 2052.5,-26.78 2052.5,-19.75"/>
<polygon fill="midnightblue" stroke="midnightblue" points="2049,-46.08 2052.5,-56.08 2056,-46.08 2049,-46.08"/>
</g>
<!-- Node39&#45;&gt;Node4 -->
<g id="edge44" class="edge">
<title>Node39&#45;&gt;Node4</title>
<path fill="none" stroke="midnightblue" d="M344.23,-160.43C352.64,-150.97 362.85,-139.48 369.72,-131.75"/>
<polygon fill="midnightblue" stroke="midnightblue" points="341.45,-158.28 337.43,-168.08 346.69,-162.93 341.45,-158.28"/>
</g>
<!-- Node40&#45;&gt;Node7 -->
<g id="edge46" class="edge">
<title>Node40&#45;&gt;Node7</title>
<path fill="none" stroke="midnightblue" d="M681.2,-163.73C661.39,-153.73 634.79,-140.31 617.65,-131.65"/>
<polygon fill="midnightblue" stroke="midnightblue" points="679.8,-166.94 690.31,-168.32 682.96,-160.69 679.8,-166.94"/>
</g>
<!-- Node41&#45;&gt;Node4 -->
<g id="edge48" class="edge">
<title>Node41&#45;&gt;Node4</title>
<path fill="none" stroke="midnightblue" d="M407.08,-160.14C399.59,-150.74 390.56,-139.4 384.47,-131.75"/>
<polygon fill="midnightblue" stroke="midnightblue" points="404.43,-162.44 413.4,-168.08 409.91,-158.08 404.43,-162.44"/>
</g>
<!-- Node42&#45;&gt;Node4 -->
<g id="edge50" class="edge">
<title>Node42&#45;&gt;Node4</title>
<path fill="none" stroke="midnightblue" d="M764.35,-167.97C606.85,-145.4 563.22,-160.37 410.5,-132 407.46,-131.44 404.3,-130.73 401.18,-129.96"/>
<polygon fill="midnightblue" stroke="midnightblue" points="763.99,-171.45 774.39,-169.44 765,-164.53 763.99,-171.45"/>
</g>
<!-- Node42&#45;&gt;Node7 -->
<g id="edge51" class="edge">
<title>Node42&#45;&gt;Node7</title>
<path fill="none" stroke="midnightblue" d="M768.36,-165.96C728.51,-155.76 670.14,-140.82 633.78,-131.52"/>
<polygon fill="midnightblue" stroke="midnightblue" points="767.51,-169.35 778.07,-168.44 769.25,-162.57 767.51,-169.35"/>
</g>
<!-- Node42&#45;&gt;Node35 -->
<g id="edge52" class="edge">
<title>Node42&#45;&gt;Node35</title>
<path fill="none" stroke="midnightblue" d="M813.6,-158.1C814.6,-149.14 815.74,-138.86 816.53,-131.75"/>
<polygon fill="midnightblue" stroke="midnightblue" points="810.12,-157.76 812.49,-168.08 817.07,-158.53 810.12,-157.76"/>
</g>
<!-- Node42&#45;&gt;Node36 -->
<g id="edge54" class="edge">
<title>Node42&#45;&gt;Node36</title>
<path fill="none" stroke="midnightblue" d="M839.4,-164.23C861.47,-154.13 891.68,-140.31 910.89,-131.52"/>
<polygon fill="midnightblue" stroke="midnightblue" points="837.83,-161.1 830.2,-168.44 840.75,-167.46 837.83,-161.1"/>
</g>
<!-- Node42&#45;&gt;Node37 -->
<g id="edge55" class="edge">
<title>Node42&#45;&gt;Node37</title>
<path fill="none" stroke="midnightblue" d="M764.44,-167.86C680.78,-153.13 595.13,-139.85 540.05,-131.54"/>
<polygon fill="midnightblue" stroke="midnightblue" points="763.91,-171.32 774.36,-169.62 765.13,-164.43 763.91,-171.32"/>
</g>
<!-- Node43 -->
<g id="node43" class="node">
<title>Node43</title>
<g id="a_node43"><a xlink:href="_smagorinsky_8cpp.html" target="_top" xlink:title=" ">
<polygon fill="white" stroke="black" points="655.5,-112.5 655.5,-131.5 753.5,-131.5 753.5,-112.5 655.5,-112.5"/>
<text text-anchor="middle" x="704.5" y="-119.5" font-family="Helvetica,sans-Serif" font-size="10.00">Smagorinsky.cpp</text>
</a>
</g>
</g>
<!-- Node42&#45;&gt;Node43 -->
<g id="edge53" class="edge">
<title>Node42&#45;&gt;Node43</title>
<path fill="none" stroke="midnightblue" d="M785.2,-163.73C765.39,-153.73 738.79,-140.31 721.65,-131.65"/>
<polygon fill="midnightblue" stroke="midnightblue" points="783.8,-166.94 794.31,-168.32 786.96,-160.69 783.8,-166.94"/>
</g>
<!-- Node44&#45;&gt;Node4 -->
<g id="edge57" class="edge">
<title>Node44&#45;&gt;Node4</title>
<path fill="none" stroke="midnightblue" d="M478.18,-164.5C453.62,-154.38 419.68,-140.39 398.16,-131.52"/>
<polygon fill="midnightblue" stroke="midnightblue" points="477.16,-167.87 487.74,-168.44 479.83,-161.4 477.16,-167.87"/>
</g>
<!-- Node44&#45;&gt;Node37 -->
<g id="edge58" class="edge">
<title>Node44&#45;&gt;Node37</title>
<path fill="none" stroke="midnightblue" d="M499.83,-158.98C495.41,-149.82 490.25,-139.09 486.71,-131.75"/>
<polygon fill="midnightblue" stroke="midnightblue" points="496.71,-160.59 504.21,-168.08 503.02,-157.55 496.71,-160.59"/>
</g>
<!-- Node45&#45;&gt;Node4 -->
<g id="edge60" class="edge">
<title>Node45&#45;&gt;Node4</title>
<path fill="none" stroke="midnightblue" d="M261.87,-164.91C289.88,-154.75 329.2,-140.51 354,-131.52"/>
<polygon fill="midnightblue" stroke="midnightblue" points="260.32,-161.75 252.11,-168.44 262.7,-168.33 260.32,-161.75"/>
</g>
<!-- Node45&#45;&gt;Node37 -->
<g id="edge61" class="edge">
<title>Node45&#45;&gt;Node37</title>
<path fill="none" stroke="midnightblue" d="M278.62,-166.35C326.62,-156.14 398.12,-140.94 442.44,-131.52"/>
<polygon fill="midnightblue" stroke="midnightblue" points="277.8,-162.94 268.75,-168.44 279.26,-169.79 277.8,-162.94"/>
</g>
<!-- Node46 -->
<g id="node46" class="node">
<title>Node46</title>
<g id="a_node46"><a xlink:href="_enstrophy_8cpp.html" target="_top" xlink:title=" ">
<polygon fill="white" stroke="black" points="186.5,-112.5 186.5,-131.5 270.5,-131.5 270.5,-112.5 186.5,-112.5"/>
<text text-anchor="middle" x="228.5" y="-119.5" font-family="Helvetica,sans-Serif" font-size="10.00">Enstrophy.cpp</text>
</a>
</g>
</g>
<!-- Node45&#45;&gt;Node46 -->
<g id="edge62" class="edge">
<title>Node45&#45;&gt;Node46</title>
<path fill="none" stroke="midnightblue" d="M228.5,-157.8C228.5,-148.91 228.5,-138.78 228.5,-131.75"/>
<polygon fill="midnightblue" stroke="midnightblue" points="225,-158.08 228.5,-168.08 232,-158.08 225,-158.08"/>
</g>
<!-- Node47&#45;&gt;Node33 -->
<g id="edge64" class="edge">
<title>Node47&#45;&gt;Node33</title>
<path fill="none" stroke="midnightblue" d="M1975.5,-214.35C1975.5,-190.25 1975.5,-149.31 1975.5,-131.59"/>
<polygon fill="midnightblue" stroke="midnightblue" points="1972,-214.37 1975.5,-224.37 1979,-214.37 1972,-214.37"/>
</g>
<!-- Node48&#45;&gt;Node34 -->
<g id="edge66" class="edge">
<title>Node48&#45;&gt;Node34</title>
<path fill="none" stroke="midnightblue" d="M2069.86,-214.35C2071.61,-190.25 2074.59,-149.31 2075.88,-131.59"/>
<polygon fill="midnightblue" stroke="midnightblue" points="2066.36,-214.14 2069.13,-224.37 2073.34,-214.65 2066.36,-214.14"/>
</g>
</g>
</svg>
