<?xml version="1.0" encoding="UTF-8" standalone="no"?>
<!DOCTYPE svg PUBLIC "-//W3C//DTD SVG 1.1//EN"
 "http://www.w3.org/Graphics/SVG/1.1/DTD/svg11.dtd">
<!-- Generated by graphviz version 2.43.0 (0)
 -->
<!-- Title: amr_wind::ocean_waves::RelaxZonesType Pages: 1 -->
<svg width="491pt" height="186pt"
 viewBox="0.00 0.00 491.00 186.00" xmlns="http://www.w3.org/2000/svg" xmlns:xlink="http://www.w3.org/1999/xlink">
<g id="graph0" class="graph" transform="scale(1 1) rotate(0) translate(4 182)">
<title>amr_wind::ocean_waves::RelaxZonesType</title>
<polygon fill="white" stroke="transparent" points="-4,4 -4,-182 487,-182 487,4 -4,4"/>
<!-- Node1 -->
<g id="node1" class="node">
<title>Node1</title>
<g id="a_node1"><a xlink:title=" ">
<polygon fill="#bfbfbf" stroke="black" points="173,-73.5 173,-103.5 310,-103.5 310,-73.5 173,-73.5"/>
<text text-anchor="start" x="181" y="-91.5" font-family="Helvetica,sans-Serif" font-size="10.00">amr_wind::ocean_waves</text>
<text text-anchor="middle" x="241.5" y="-80.5" font-family="Helvetica,sans-Serif" font-size="10.00">::RelaxZonesType</text>
</a>
</g>
</g>
<!-- Node3 -->
<g id="node3" class="node">
<title>Node3</title>
<g id="a_node3"><a xlink:href="structamr__wind_1_1ocean__waves_1_1_h_o_s_waves.html" target="_top" xlink:title=" ">
<polygon fill="white" stroke="black" points="346,-147.5 346,-177.5 483,-177.5 483,-147.5 346,-147.5"/>
<text text-anchor="start" x="354" y="-165.5" font-family="Helvetica,sans-Serif" font-size="10.00">amr_wind::ocean_waves</text>
<text text-anchor="middle" x="414.5" y="-154.5" font-family="Helvetica,sans-Serif" font-size="10.00">::HOSWaves</text>
</a>
</g>
</g>
<!-- Node1&#45;&gt;Node3 -->
<g id="edge2" class="edge">
<title>Node1&#45;&gt;Node3</title>
<path fill="none" stroke="midnightblue" d="M280.65,-108.16C300,-117.81 324.01,-129.31 346,-138.5 353.34,-141.57 361.24,-144.6 368.94,-147.43"/>
<polygon fill="midnightblue" stroke="midnightblue" points="282.06,-104.95 271.56,-103.58 278.92,-111.2 282.06,-104.95"/>
</g>
<!-- Node4 -->
<g id="node4" class="node">
<title>Node4</title>
<g id="a_node4"><a xlink:href="structamr__wind_1_1ocean__waves_1_1_linear_waves.html" target="_top" xlink:title=" ">
<polygon fill="white" stroke="black" points="346,-98.5 346,-128.5 483,-128.5 483,-98.5 346,-98.5"/>
<text text-anchor="start" x="354" y="-116.5" font-family="Helvetica,sans-Serif" font-size="10.00">amr_wind::ocean_waves</text>
<text text-anchor="middle" x="414.5" y="-105.5" font-family="Helvetica,sans-Serif" font-size="10.00">::LinearWaves</text>
</a>
</g>
</g>
<!-- Node1&#45;&gt;Node4 -->
<g id="edge3" class="edge">
<title>Node1&#45;&gt;Node4</title>
<path fill="none" stroke="midnightblue" d="M320.1,-99.85C328.69,-101.1 337.39,-102.37 345.85,-103.61"/>
<polygon fill="midnightblue" stroke="midnightblue" points="320.48,-96.36 310.08,-98.38 319.47,-103.29 320.48,-96.36"/>
</g>
<!-- Node5 -->
<g id="node5" class="node">
<title>Node5</title>
<g id="a_node5"><a xlink:href="structamr__wind_1_1ocean__waves_1_1_stokes_waves.html" target="_top" xlink:title=" ">
<polygon fill="white" stroke="black" points="346,-49.5 346,-79.5 483,-79.5 483,-49.5 346,-49.5"/>
<text text-anchor="start" x="354" y="-67.5" font-family="Helvetica,sans-Serif" font-size="10.00">amr_wind::ocean_waves</text>
<text text-anchor="middle" x="414.5" y="-56.5" font-family="Helvetica,sans-Serif" font-size="10.00">::StokesWaves</text>
</a>
</g>
</g>
<!-- Node1&#45;&gt;Node5 -->
<g id="edge4" class="edge">
<title>Node1&#45;&gt;Node5</title>
<path fill="none" stroke="midnightblue" d="M320.1,-77.61C328.69,-76.4 337.39,-75.18 345.85,-74"/>
<polygon fill="midnightblue" stroke="midnightblue" points="319.5,-74.16 310.08,-79.01 320.47,-81.09 319.5,-74.16"/>
</g>
<!-- Node6 -->
<g id="node6" class="node">
<title>Node6</title>
<g id="a_node6"><a xlink:href="structamr__wind_1_1ocean__waves_1_1_w2_a_waves.html" target="_top" xlink:title=" ">
<polygon fill="white" stroke="black" points="346,-0.5 346,-30.5 483,-30.5 483,-0.5 346,-0.5"/>
<text text-anchor="start" x="354" y="-18.5" font-family="Helvetica,sans-Serif" font-size="10.00">amr_wind::ocean_waves</text>
<text text-anchor="middle" x="414.5" y="-7.5" font-family="Helvetica,sans-Serif" font-size="10.00">::W2AWaves</text>
</a>
</g>
</g>
<!-- Node1&#45;&gt;Node6 -->
<g id="edge5" class="edge">
<title>Node1&#45;&gt;Node6</title>
<path fill="none" stroke="midnightblue" d="M281.53,-68.88C300.74,-59.52 324.37,-48.44 346,-39.5 353.36,-36.46 361.25,-33.44 368.96,-30.62"/>
<polygon fill="midnightblue" stroke="midnightblue" points="279.92,-65.78 272.48,-73.32 283,-72.06 279.92,-65.78"/>
</g>
<!-- Node2 -->
<g id="node2" class="node">
<title>Node2</title>
<g id="a_node2"><a xlink:href="structamr__wind_1_1ocean__waves_1_1_ocean_waves_type.html" target="_top" xlink:title="Abstract representation of an ocean wave type.">
<polygon fill="white" stroke="black" points="0,-73.5 0,-103.5 137,-103.5 137,-73.5 0,-73.5"/>
<text text-anchor="start" x="8" y="-91.5" font-family="Helvetica,sans-Serif" font-size="10.00">amr_wind::ocean_waves</text>
<text text-anchor="middle" x="68.5" y="-80.5" font-family="Helvetica,sans-Serif" font-size="10.00">::OceanWavesType</text>
</a>
</g>
</g>
<!-- Node2&#45;&gt;Node1 -->
<g id="edge1" class="edge">
<title>Node2&#45;&gt;Node1</title>
<path fill="none" stroke="midnightblue" d="M147.1,-88.5C155.69,-88.5 164.39,-88.5 172.85,-88.5"/>
<polygon fill="midnightblue" stroke="midnightblue" points="147.08,-85 137.08,-88.5 147.08,-92 147.08,-85"/>
</g>
</g>
</svg>
