<?xml version="1.0" encoding="UTF-8" standalone="no"?>
<!DOCTYPE svg PUBLIC "-//W3C//DTD SVG 1.1//EN"
 "http://www.w3.org/Graphics/SVG/1.1/DTD/svg11.dtd">
<!-- Generated by graphviz version 2.43.0 (0)
 -->
<!-- Title: tensor.H Pages: 1 -->
<svg width="2550pt" height="308pt"
 viewBox="0.00 0.00 2549.50 308.00" xmlns="http://www.w3.org/2000/svg" xmlns:xlink="http://www.w3.org/1999/xlink">
<g id="graph0" class="graph" transform="scale(1 1) rotate(0) translate(4 304)">
<title>tensor.H</title>
<polygon fill="white" stroke="transparent" points="-4,4 -4,-304 2545.5,-304 2545.5,4 -4,4"/>
<!-- Node1 -->
<g id="node1" class="node">
<title>Node1</title>
<g id="a_node1"><a xlink:title=" ">
<polygon fill="#bfbfbf" stroke="black" points="1485.5,-280.5 1485.5,-299.5 1542.5,-299.5 1542.5,-280.5 1485.5,-280.5"/>
<text text-anchor="middle" x="1514" y="-287.5" font-family="Helvetica,sans-Serif" font-size="10.00">tensor.H</text>
</a>
</g>
</g>
<!-- Node2 -->
<g id="node2" class="node">
<title>Node2</title>
<g id="a_node2"><a xlink:href="tensor_i_8_h.html" target="_top" xlink:title=" ">
<polygon fill="white" stroke="black" points="1483.5,-224.5 1483.5,-243.5 1544.5,-243.5 1544.5,-224.5 1483.5,-224.5"/>
<text text-anchor="middle" x="1514" y="-231.5" font-family="Helvetica,sans-Serif" font-size="10.00">tensorI.H</text>
</a>
</g>
</g>
<!-- Node1&#45;&gt;Node2 -->
<g id="edge1" class="edge">
<title>Node1&#45;&gt;Node2</title>
<path fill="none" stroke="midnightblue" d="M1507.53,-270.1C1506.9,-261.14 1507.34,-250.86 1508.87,-243.75"/>
<polygon fill="midnightblue" stroke="midnightblue" points="1504.07,-270.62 1508.83,-280.08 1511.01,-269.71 1504.07,-270.62"/>
</g>
<!-- Node3 -->
<g id="node3" class="node">
<title>Node3</title>
<g id="a_node3"><a xlink:href="vector__space_8_h.html" target="_top" xlink:title=" ">
<polygon fill="white" stroke="black" points="1563,-224.5 1563,-243.5 1655,-243.5 1655,-224.5 1563,-224.5"/>
<text text-anchor="middle" x="1609" y="-231.5" font-family="Helvetica,sans-Serif" font-size="10.00">vector_space.H</text>
</a>
</g>
</g>
<!-- Node1&#45;&gt;Node3 -->
<g id="edge3" class="edge">
<title>Node1&#45;&gt;Node3</title>
<path fill="none" stroke="midnightblue" d="M1538.32,-275.18C1555.8,-265.24 1578.83,-252.15 1593.77,-243.65"/>
<polygon fill="midnightblue" stroke="midnightblue" points="1536.23,-272.34 1529.26,-280.32 1539.69,-278.43 1536.23,-272.34"/>
</g>
<!-- Node2&#45;&gt;Node1 -->
<g id="edge2" class="edge">
<title>Node2&#45;&gt;Node1</title>
<path fill="none" stroke="midnightblue" d="M1520.46,-253.69C1521.11,-262.64 1520.68,-272.93 1519.17,-280.08"/>
<polygon fill="midnightblue" stroke="midnightblue" points="1523.92,-253.2 1519.13,-243.75 1516.98,-254.13 1523.92,-253.2"/>
</g>
<!-- Node4 -->
<g id="node4" class="node">
<title>Node4</title>
<g id="a_node4"><a xlink:href="_multi_parser_8_h.html" target="_top" xlink:title=" ">
<polygon fill="white" stroke="black" points="510.5,-112.5 510.5,-131.5 591.5,-131.5 591.5,-112.5 510.5,-112.5"/>
<text text-anchor="middle" x="551" y="-119.5" font-family="Helvetica,sans-Serif" font-size="10.00">MultiParser.H</text>
</a>
</g>
</g>
<!-- Node3&#45;&gt;Node4 -->
<g id="edge4" class="edge">
<title>Node3&#45;&gt;Node4</title>
<path fill="none" stroke="midnightblue" d="M1552.88,-224.14C1232.61,-191.37 1147.09,-231.7 833,-188 739.45,-174.98 631.22,-146.03 580.32,-131.57"/>
<polygon fill="midnightblue" stroke="midnightblue" points="1552.6,-227.63 1562.91,-225.18 1553.32,-220.67 1552.6,-227.63"/>
</g>
<!-- Node57 -->
<g id="node14" class="node">
<title>Node57</title>
<g id="a_node14"><a xlink:href="_bluff_body_8_h.html" target="_top" xlink:title=" ">
<polygon fill="white" stroke="black" points="155.5,-112.5 155.5,-131.5 228.5,-131.5 228.5,-112.5 155.5,-112.5"/>
<text text-anchor="middle" x="192" y="-119.5" font-family="Helvetica,sans-Serif" font-size="10.00">BluffBody.H</text>
</a>
</g>
</g>
<!-- Node3&#45;&gt;Node57 -->
<g id="edge18" class="edge">
<title>Node3&#45;&gt;Node57</title>
<path fill="none" stroke="midnightblue" d="M1552.92,-224.29C1373.66,-211.6 419.15,-230.27 288,-188 251.79,-176.33 216.72,-146.46 200.84,-131.63"/>
<polygon fill="midnightblue" stroke="midnightblue" points="1552.66,-227.78 1562.92,-225.1 1553.23,-220.8 1552.66,-227.78"/>
</g>
<!-- Node61 -->
<g id="node18" class="node">
<title>Node61</title>
<g id="a_node18"><a xlink:href="_i_b_types_8_h.html" target="_top" xlink:title=" ">
<polygon fill="white" stroke="black" points="297.5,-168.5 297.5,-187.5 362.5,-187.5 362.5,-168.5 297.5,-168.5"/>
<text text-anchor="middle" x="330" y="-175.5" font-family="Helvetica,sans-Serif" font-size="10.00">IBTypes.H</text>
</a>
</g>
</g>
<!-- Node3&#45;&gt;Node61 -->
<g id="edge23" class="edge">
<title>Node3&#45;&gt;Node61</title>
<path fill="none" stroke="midnightblue" d="M1552.94,-224.23C1392.2,-210.88 540.88,-185.24 362.7,-179.96"/>
<polygon fill="midnightblue" stroke="midnightblue" points="1552.64,-227.72 1562.91,-225.13 1553.27,-220.75 1552.64,-227.72"/>
</g>
<!-- Node63 -->
<g id="node20" class="node">
<title>Node63</title>
<g id="a_node20"><a xlink:href="_ocean_waves_types_8_h.html" target="_top" xlink:title=" ">
<polygon fill="white" stroke="black" points="842,-168.5 842,-187.5 960,-187.5 960,-168.5 842,-168.5"/>
<text text-anchor="middle" x="901" y="-175.5" font-family="Helvetica,sans-Serif" font-size="10.00">OceanWavesTypes.H</text>
</a>
</g>
</g>
<!-- Node3&#45;&gt;Node63 -->
<g id="edge30" class="edge">
<title>Node3&#45;&gt;Node63</title>
<path fill="none" stroke="midnightblue" d="M1552.88,-224.11C1305.23,-196.61 1240.6,-207.3 997,-188 985.07,-187.05 972.31,-185.94 960.12,-184.81"/>
<polygon fill="midnightblue" stroke="midnightblue" points="1552.58,-227.6 1562.9,-225.24 1553.35,-220.65 1552.58,-227.6"/>
</g>
<!-- Node65 -->
<g id="node22" class="node">
<title>Node65</title>
<g id="a_node22"><a xlink:href="_relaxation_zones_8_h.html" target="_top" xlink:title=" ">
<polygon fill="white" stroke="black" points="929,-112.5 929,-131.5 1039,-131.5 1039,-112.5 929,-112.5"/>
<text text-anchor="middle" x="984" y="-119.5" font-family="Helvetica,sans-Serif" font-size="10.00">RelaxationZones.H</text>
</a>
</g>
</g>
<!-- Node3&#45;&gt;Node65 -->
<g id="edge42" class="edge">
<title>Node3&#45;&gt;Node65</title>
<path fill="none" stroke="midnightblue" d="M1552.87,-224.12C1357.2,-201.78 1300.05,-239.47 1115,-188 1069.01,-175.21 1019.92,-146.15 997.08,-131.61"/>
<polygon fill="midnightblue" stroke="midnightblue" points="1552.55,-227.6 1562.9,-225.3 1553.37,-220.65 1552.55,-227.6"/>
</g>
<!-- Node70 -->
<g id="node27" class="node">
<title>Node70</title>
<g id="a_node27"><a xlink:href="_synthetic_turbulence_8_h.html" target="_top" xlink:title=" ">
<polygon fill="white" stroke="black" points="1124.5,-168.5 1124.5,-187.5 1249.5,-187.5 1249.5,-168.5 1124.5,-168.5"/>
<text text-anchor="middle" x="1187" y="-175.5" font-family="Helvetica,sans-Serif" font-size="10.00">SyntheticTurbulence.H</text>
</a>
</g>
</g>
<!-- Node3&#45;&gt;Node70 -->
<g id="edge43" class="edge">
<title>Node3&#45;&gt;Node70</title>
<path fill="none" stroke="midnightblue" d="M1552.64,-224C1439.44,-208.07 1320.4,-194.04 1249.59,-185.98"/>
<polygon fill="midnightblue" stroke="midnightblue" points="1552.48,-227.51 1562.88,-225.45 1553.46,-220.58 1552.48,-227.51"/>
</g>
<!-- Node72 -->
<g id="node29" class="node">
<title>Node72</title>
<g id="a_node29"><a xlink:href="_d_t_u_spinner_sampler_8_h.html" target="_top" xlink:title=" ">
<polygon fill="white" stroke="black" points="1329.5,-112.5 1329.5,-131.5 1454.5,-131.5 1454.5,-112.5 1329.5,-112.5"/>
<text text-anchor="middle" x="1392" y="-119.5" font-family="Helvetica,sans-Serif" font-size="10.00">DTUSpinnerSampler.H</text>
</a>
</g>
</g>
<!-- Node3&#45;&gt;Node72 -->
<g id="edge45" class="edge">
<title>Node3&#45;&gt;Node72</title>
<path fill="none" stroke="midnightblue" d="M1563.75,-221.74C1537.27,-214.18 1503.71,-202.87 1476,-188 1446.1,-171.96 1415.79,-145.4 1401.1,-131.73"/>
<polygon fill="midnightblue" stroke="midnightblue" points="1562.95,-225.15 1573.52,-224.46 1564.82,-218.41 1562.95,-225.15"/>
</g>
<!-- Node74 -->
<g id="node31" class="node">
<title>Node74</title>
<g id="a_node31"><a xlink:href="_lidar_sampler_8_h.html" target="_top" xlink:title=" ">
<polygon fill="white" stroke="black" points="1337.5,-168.5 1337.5,-187.5 1428.5,-187.5 1428.5,-168.5 1337.5,-168.5"/>
<text text-anchor="middle" x="1383" y="-175.5" font-family="Helvetica,sans-Serif" font-size="10.00">LidarSampler.H</text>
</a>
</g>
</g>
<!-- Node3&#45;&gt;Node74 -->
<g id="edge47" class="edge">
<title>Node3&#45;&gt;Node74</title>
<path fill="none" stroke="midnightblue" d="M1563.33,-222.09C1520.64,-211.89 1457.75,-196.86 1418.64,-187.52"/>
<polygon fill="midnightblue" stroke="midnightblue" points="1562.65,-225.52 1573.19,-224.44 1564.28,-218.72 1562.65,-225.52"/>
</g>
<!-- Node76 -->
<g id="node33" class="node">
<title>Node76</title>
<g id="a_node33"><a xlink:href="_radar_sampler_8_h.html" target="_top" xlink:title=" ">
<polygon fill="white" stroke="black" points="1595.5,-112.5 1595.5,-131.5 1690.5,-131.5 1690.5,-112.5 1595.5,-112.5"/>
<text text-anchor="middle" x="1643" y="-119.5" font-family="Helvetica,sans-Serif" font-size="10.00">RadarSampler.H</text>
</a>
</g>
</g>
<!-- Node3&#45;&gt;Node76 -->
<g id="edge50" class="edge">
<title>Node3&#45;&gt;Node76</title>
<path fill="none" stroke="midnightblue" d="M1614.22,-214.47C1617.94,-201.44 1623.12,-183.6 1628,-168 1631.98,-155.27 1636.93,-140.63 1640.03,-131.6"/>
<polygon fill="midnightblue" stroke="midnightblue" points="1610.84,-213.56 1611.48,-224.14 1617.57,-215.47 1610.84,-213.56"/>
</g>
<!-- Node78 -->
<g id="node35" class="node">
<title>Node78</title>
<g id="a_node35"><a xlink:href="_sampling_utils_8_h.html" target="_top" xlink:title=" ">
<polygon fill="white" stroke="black" points="1485.5,-168.5 1485.5,-187.5 1580.5,-187.5 1580.5,-168.5 1485.5,-168.5"/>
<text text-anchor="middle" x="1533" y="-175.5" font-family="Helvetica,sans-Serif" font-size="10.00">SamplingUtils.H</text>
</a>
</g>
</g>
<!-- Node3&#45;&gt;Node78 -->
<g id="edge52" class="edge">
<title>Node3&#45;&gt;Node78</title>
<path fill="none" stroke="midnightblue" d="M1588.42,-218.38C1574.69,-208.62 1557.07,-196.11 1545.43,-187.83"/>
<polygon fill="midnightblue" stroke="midnightblue" points="1586.61,-221.38 1596.79,-224.32 1590.66,-215.68 1586.61,-221.38"/>
</g>
<!-- Node80 -->
<g id="node37" class="node">
<title>Node80</title>
<g id="a_node37"><a xlink:href="_box_refiner_8_h.html" target="_top" xlink:title=" ">
<polygon fill="white" stroke="black" points="1637,-168.5 1637,-187.5 1717,-187.5 1717,-168.5 1637,-168.5"/>
<text text-anchor="middle" x="1677" y="-175.5" font-family="Helvetica,sans-Serif" font-size="10.00">BoxRefiner.H</text>
</a>
</g>
</g>
<!-- Node3&#45;&gt;Node80 -->
<g id="edge56" class="edge">
<title>Node3&#45;&gt;Node80</title>
<path fill="none" stroke="midnightblue" d="M1627.76,-218.1C1640,-208.38 1655.56,-196.03 1665.88,-187.83"/>
<polygon fill="midnightblue" stroke="midnightblue" points="1625.58,-215.36 1619.93,-224.32 1629.93,-220.85 1625.58,-215.36"/>
</g>
<!-- Node82 -->
<g id="node39" class="node">
<title>Node82</title>
<g id="a_node39"><a xlink:href="_cylinder_refiner_8_h.html" target="_top" xlink:title=" ">
<polygon fill="white" stroke="black" points="1735.5,-168.5 1735.5,-187.5 1836.5,-187.5 1836.5,-168.5 1735.5,-168.5"/>
<text text-anchor="middle" x="1786" y="-175.5" font-family="Helvetica,sans-Serif" font-size="10.00">CylinderRefiner.H</text>
</a>
</g>
</g>
<!-- Node3&#45;&gt;Node82 -->
<g id="edge58" class="edge">
<title>Node3&#45;&gt;Node82</title>
<path fill="none" stroke="midnightblue" d="M1646.9,-221.44C1680.28,-211.26 1728.1,-196.66 1758.09,-187.52"/>
<polygon fill="midnightblue" stroke="midnightblue" points="1645.59,-218.18 1637.05,-224.44 1647.63,-224.87 1645.59,-218.18"/>
</g>
<!-- Node84 -->
<g id="node41" class="node">
<title>Node84</title>
<g id="a_node41"><a xlink:href="_a_b_l_modulated_power_law_8_h.html" target="_top" xlink:title=" ">
<polygon fill="white" stroke="black" points="1855,-168.5 1855,-187.5 2001,-187.5 2001,-168.5 1855,-168.5"/>
<text text-anchor="middle" x="1928" y="-175.5" font-family="Helvetica,sans-Serif" font-size="10.00">ABLModulatedPowerLaw.H</text>
</a>
</g>
</g>
<!-- Node3&#45;&gt;Node84 -->
<g id="edge60" class="edge">
<title>Node3&#45;&gt;Node84</title>
<path fill="none" stroke="midnightblue" d="M1665.13,-223.5C1725.3,-213.31 1819.96,-197.29 1877.76,-187.5"/>
<polygon fill="midnightblue" stroke="midnightblue" points="1664.32,-220.09 1655.04,-225.21 1665.49,-226.99 1664.32,-220.09"/>
</g>
<!-- Node103 -->
<g id="node45" class="node">
<title>Node103</title>
<g id="a_node45"><a xlink:href="actuator__types_8_h.html" target="_top" xlink:title=" ">
<polygon fill="white" stroke="red" points="2019,-168.5 2019,-187.5 2119,-187.5 2119,-168.5 2019,-168.5"/>
<text text-anchor="middle" x="2069" y="-175.5" font-family="Helvetica,sans-Serif" font-size="10.00">actuator_types.H</text>
</a>
</g>
</g>
<!-- Node3&#45;&gt;Node103 -->
<g id="edge65" class="edge">
<title>Node3&#45;&gt;Node103</title>
<path fill="none" stroke="midnightblue" d="M1665.12,-227.41C1742.74,-219.52 1887.21,-204.25 2010,-188 2012.88,-187.62 2015.83,-187.21 2018.81,-186.79"/>
<polygon fill="midnightblue" stroke="midnightblue" points="1664.68,-223.94 1655.08,-228.43 1665.38,-230.9 1664.68,-223.94"/>
</g>
<!-- Node117 -->
<g id="node46" class="node">
<title>Node117</title>
<g id="a_node46"><a xlink:href="_actuator_wing_8_h.html" target="_top" xlink:title=" ">
<polygon fill="white" stroke="red" points="2145.5,-112.5 2145.5,-131.5 2238.5,-131.5 2238.5,-112.5 2145.5,-112.5"/>
<text text-anchor="middle" x="2192" y="-119.5" font-family="Helvetica,sans-Serif" font-size="10.00">ActuatorWing.H</text>
</a>
</g>
</g>
<!-- Node3&#45;&gt;Node117 -->
<g id="edge72" class="edge">
<title>Node3&#45;&gt;Node117</title>
<path fill="none" stroke="midnightblue" d="M1665.19,-232.98C1782.06,-232.17 2047.17,-226.03 2128,-188 2154.94,-175.32 2176.83,-146.21 2186.55,-131.64"/>
<polygon fill="midnightblue" stroke="midnightblue" points="1665,-229.48 1655.02,-233.04 1665.04,-236.48 1665,-229.48"/>
</g>
<!-- Node118 -->
<g id="node47" class="node">
<title>Node118</title>
<g id="a_node47"><a xlink:href="actuator__utils_8_h.html" target="_top" xlink:title=" ">
<polygon fill="white" stroke="red" points="2175,-168.5 2175,-187.5 2269,-187.5 2269,-168.5 2175,-168.5"/>
<text text-anchor="middle" x="2222" y="-175.5" font-family="Helvetica,sans-Serif" font-size="10.00">actuator_utils.H</text>
</a>
</g>
</g>
<!-- Node3&#45;&gt;Node118 -->
<g id="edge67" class="edge">
<title>Node3&#45;&gt;Node118</title>
<path fill="none" stroke="midnightblue" d="M1665.44,-229.62C1765.49,-223.35 1980.4,-208.66 2161,-188 2165.47,-187.49 2170.11,-186.9 2174.75,-186.28"/>
<polygon fill="midnightblue" stroke="midnightblue" points="1665.02,-226.14 1655.26,-230.25 1665.46,-233.12 1665.02,-226.14"/>
</g>
<!-- Node120 -->
<g id="node48" class="node">
<title>Node120</title>
<g id="a_node48"><a xlink:href="_actuator_container_8_h.html" target="_top" xlink:title=" ">
<polygon fill="white" stroke="red" points="2287.5,-168.5 2287.5,-187.5 2402.5,-187.5 2402.5,-168.5 2287.5,-168.5"/>
<text text-anchor="middle" x="2345" y="-175.5" font-family="Helvetica,sans-Serif" font-size="10.00">ActuatorContainer.H</text>
</a>
</g>
</g>
<!-- Node3&#45;&gt;Node120 -->
<g id="edge68" class="edge">
<title>Node3&#45;&gt;Node120</title>
<path fill="none" stroke="midnightblue" d="M1665.32,-230.48C1780.55,-225.03 2051.45,-210.81 2278,-188 2281.04,-187.69 2284.15,-187.36 2287.29,-187"/>
<polygon fill="midnightblue" stroke="midnightblue" points="1665.14,-226.98 1655.32,-230.94 1665.47,-233.97 1665.14,-226.98"/>
</g>
<!-- Node111 -->
<g id="node49" class="node">
<title>Node111</title>
<g id="a_node49"><a xlink:href="_actuator_disk_8_h.html" target="_top" xlink:title=" ">
<polygon fill="white" stroke="red" points="2421,-168.5 2421,-187.5 2511,-187.5 2511,-168.5 2421,-168.5"/>
<text text-anchor="middle" x="2466" y="-175.5" font-family="Helvetica,sans-Serif" font-size="10.00">ActuatorDisk.H</text>
</a>
</g>
</g>
<!-- Node3&#45;&gt;Node111 -->
<g id="edge69" class="edge">
<title>Node3&#45;&gt;Node111</title>
<path fill="none" stroke="midnightblue" d="M1665.46,-231.89C1796.68,-228.86 2132.29,-218.54 2411,-188 2414.17,-187.65 2417.44,-187.24 2420.73,-186.8"/>
<polygon fill="midnightblue" stroke="midnightblue" points="1665.17,-228.4 1655.25,-232.12 1665.33,-235.39 1665.17,-228.4"/>
</g>
<!-- Node112 -->
<g id="node50" class="node">
<title>Node112</title>
<g id="a_node50"><a xlink:href="_joukowsky_8_h.html" target="_top" xlink:title=" ">
<polygon fill="white" stroke="red" points="2464.5,-112.5 2464.5,-131.5 2541.5,-131.5 2541.5,-112.5 2464.5,-112.5"/>
<text text-anchor="middle" x="2503" y="-119.5" font-family="Helvetica,sans-Serif" font-size="10.00">Joukowsky.H</text>
</a>
</g>
</g>
<!-- Node3&#45;&gt;Node112 -->
<g id="edge71" class="edge">
<title>Node3&#45;&gt;Node112</title>
<path fill="none" stroke="midnightblue" d="M1665.55,-232.33C1859.94,-229.75 2490.47,-219.03 2520,-188 2534.8,-172.45 2519.54,-145.68 2509.79,-131.84"/>
<polygon fill="midnightblue" stroke="midnightblue" points="1665.22,-228.83 1655.27,-232.46 1665.31,-235.83 1665.22,-228.83"/>
</g>
<!-- Node5 -->
<g id="node5" class="node">
<title>Node5</title>
<g id="a_node5"><a xlink:href="bluff__body__ops_8cpp.html" target="_top" xlink:title=" ">
<polygon fill="white" stroke="black" points="250,-0.5 250,-19.5 360,-19.5 360,-0.5 250,-0.5"/>
<text text-anchor="middle" x="305" y="-7.5" font-family="Helvetica,sans-Serif" font-size="10.00">bluff_body_ops.cpp</text>
</a>
</g>
</g>
<!-- Node4&#45;&gt;Node5 -->
<g id="edge5" class="edge">
<title>Node4&#45;&gt;Node5</title>
<path fill="none" stroke="midnightblue" d="M524.42,-107.89C506.46,-98.99 482.25,-86.9 461,-76 444.02,-67.29 440.39,-63.86 423,-56 391.63,-41.83 354.36,-28.11 330.22,-19.62"/>
<polygon fill="midnightblue" stroke="midnightblue" points="523.18,-111.18 533.69,-112.48 526.28,-104.91 523.18,-111.18"/>
</g>
<!-- Node6 -->
<g id="node6" class="node">
<title>Node6</title>
<g id="a_node6"><a xlink:href="bluff__body__ops_8_h.html" target="_top" xlink:title=" ">
<polygon fill="white" stroke="red" points="228.5,-56.5 228.5,-75.5 329.5,-75.5 329.5,-56.5 228.5,-56.5"/>
<text text-anchor="middle" x="279" y="-63.5" font-family="Helvetica,sans-Serif" font-size="10.00">bluff_body_ops.H</text>
</a>
</g>
</g>
<!-- Node4&#45;&gt;Node6 -->
<g id="edge6" class="edge">
<title>Node4&#45;&gt;Node6</title>
<path fill="none" stroke="midnightblue" d="M500.41,-110.96C449.15,-100.78 370.7,-85.21 322.25,-75.59"/>
<polygon fill="midnightblue" stroke="midnightblue" points="499.79,-114.4 510.28,-112.92 501.15,-107.54 499.79,-114.4"/>
</g>
<!-- Node13 -->
<g id="node7" class="node">
<title>Node13</title>
<g id="a_node7"><a xlink:href="_i_b_8cpp.html" target="_top" xlink:title=" ">
<polygon fill="white" stroke="black" points="380.5,-0.5 380.5,-19.5 427.5,-19.5 427.5,-0.5 380.5,-0.5"/>
<text text-anchor="middle" x="404" y="-7.5" font-family="Helvetica,sans-Serif" font-size="10.00">IB.cpp</text>
</a>
</g>
</g>
<!-- Node4&#45;&gt;Node13 -->
<g id="edge8" class="edge">
<title>Node4&#45;&gt;Node13</title>
<path fill="none" stroke="midnightblue" d="M531.11,-106.12C499.91,-82.77 440.44,-38.27 415.48,-19.59"/>
<polygon fill="midnightblue" stroke="midnightblue" points="529.36,-109.18 539.47,-112.37 533.56,-103.57 529.36,-109.18"/>
</g>
<!-- Node14 -->
<g id="node8" class="node">
<title>Node14</title>
<g id="a_node8"><a xlink:href="_i_b_model_8_h.html" target="_top" xlink:title=" ">
<polygon fill="white" stroke="red" points="347.5,-56.5 347.5,-75.5 414.5,-75.5 414.5,-56.5 347.5,-56.5"/>
<text text-anchor="middle" x="381" y="-63.5" font-family="Helvetica,sans-Serif" font-size="10.00">IBModel.H</text>
</a>
</g>
</g>
<!-- Node4&#45;&gt;Node14 -->
<g id="edge9" class="edge">
<title>Node4&#45;&gt;Node14</title>
<path fill="none" stroke="midnightblue" d="M514.18,-109.3C482.15,-99.13 436.48,-84.62 407.81,-75.52"/>
<polygon fill="midnightblue" stroke="midnightblue" points="513.47,-112.75 524.06,-112.44 515.59,-106.08 513.47,-112.75"/>
</g>
<!-- Node15 -->
<g id="node9" class="node">
<title>Node15</title>
<g id="a_node9"><a xlink:href="_ocean_waves_8cpp.html" target="_top" xlink:title=" ">
<polygon fill="white" stroke="black" points="524,-0.5 524,-19.5 624,-19.5 624,-0.5 524,-0.5"/>
<text text-anchor="middle" x="574" y="-7.5" font-family="Helvetica,sans-Serif" font-size="10.00">OceanWaves.cpp</text>
</a>
</g>
</g>
<!-- Node4&#45;&gt;Node15 -->
<g id="edge11" class="edge">
<title>Node4&#45;&gt;Node15</title>
<path fill="none" stroke="midnightblue" d="M542.35,-102.99C537.18,-89.74 532.59,-71.42 538,-56 543.1,-41.46 555.09,-28.13 563.84,-19.81"/>
<polygon fill="midnightblue" stroke="midnightblue" points="539.23,-104.61 546.43,-112.38 545.65,-101.82 539.23,-104.61"/>
</g>
<!-- Node16 -->
<g id="node10" class="node">
<title>Node16</title>
<g id="a_node10"><a xlink:href="_ocean_waves_model_8_h.html" target="_top" xlink:title=" ">
<polygon fill="white" stroke="red" points="675,-56.5 675,-75.5 795,-75.5 795,-56.5 675,-56.5"/>
<text text-anchor="middle" x="735" y="-63.5" font-family="Helvetica,sans-Serif" font-size="10.00">OceanWavesModel.H</text>
</a>
</g>
</g>
<!-- Node4&#45;&gt;Node16 -->
<g id="edge12" class="edge">
<title>Node4&#45;&gt;Node16</title>
<path fill="none" stroke="midnightblue" d="M589.95,-109.57C624.66,-99.38 674.68,-84.7 705.98,-75.52"/>
<polygon fill="midnightblue" stroke="midnightblue" points="588.77,-106.27 580.16,-112.44 590.74,-112.99 588.77,-106.27"/>
</g>
<!-- Node21 -->
<g id="node11" class="node">
<title>Node21</title>
<g id="a_node11"><a xlink:href="relaxation__zones__ops_8cpp.html" target="_top" xlink:title=" ">
<polygon fill="white" stroke="black" points="752.5,-0.5 752.5,-19.5 895.5,-19.5 895.5,-0.5 752.5,-0.5"/>
<text text-anchor="middle" x="824" y="-7.5" font-family="Helvetica,sans-Serif" font-size="10.00">relaxation_zones_ops.cpp</text>
</a>
</g>
</g>
<!-- Node4&#45;&gt;Node21 -->
<g id="edge14" class="edge">
<title>Node4&#45;&gt;Node21</title>
<path fill="none" stroke="midnightblue" d="M574.57,-107.28C605.41,-89.39 656.65,-59.91 666,-56 704.95,-39.72 751.67,-27.22 784.16,-19.58"/>
<polygon fill="midnightblue" stroke="midnightblue" points="572.61,-104.37 565.72,-112.42 576.12,-110.43 572.61,-104.37"/>
</g>
<!-- Node22 -->
<g id="node12" class="node">
<title>Node22</title>
<g id="a_node12"><a xlink:href="relaxation__zones__ops_8_h.html" target="_top" xlink:title=" ">
<polygon fill="white" stroke="red" points="813.5,-56.5 813.5,-75.5 946.5,-75.5 946.5,-56.5 813.5,-56.5"/>
<text text-anchor="middle" x="880" y="-63.5" font-family="Helvetica,sans-Serif" font-size="10.00">relaxation_zones_ops.H</text>
</a>
</g>
</g>
<!-- Node4&#45;&gt;Node22 -->
<g id="edge15" class="edge">
<title>Node4&#45;&gt;Node22</title>
<path fill="none" stroke="midnightblue" d="M601.91,-112.64C663.36,-102.56 766.14,-85.69 828.05,-75.53"/>
<polygon fill="midnightblue" stroke="midnightblue" points="600.97,-109.25 591.67,-114.32 602.11,-116.16 600.97,-109.25"/>
</g>
<!-- Node27 -->
<g id="node13" class="node">
<title>Node27</title>
<g id="a_node13"><a xlink:href="_act_parser_8_h.html" target="_top" xlink:title=" ">
<polygon fill="white" stroke="red" points="547,-56.5 547,-75.5 619,-75.5 619,-56.5 547,-56.5"/>
<text text-anchor="middle" x="583" y="-63.5" font-family="Helvetica,sans-Serif" font-size="10.00">ActParser.H</text>
</a>
</g>
</g>
<!-- Node4&#45;&gt;Node27 -->
<g id="edge17" class="edge">
<title>Node4&#45;&gt;Node27</title>
<path fill="none" stroke="midnightblue" d="M561.5,-103.27C566.97,-94.05 573.42,-83.17 577.81,-75.75"/>
<polygon fill="midnightblue" stroke="midnightblue" points="558.37,-101.7 556.28,-112.08 564.39,-105.26 558.37,-101.7"/>
</g>
<!-- Node6&#45;&gt;Node5 -->
<g id="edge7" class="edge">
<title>Node6&#45;&gt;Node5</title>
<path fill="none" stroke="midnightblue" d="M287.67,-46.98C292.09,-37.82 297.25,-27.09 300.79,-19.75"/>
<polygon fill="midnightblue" stroke="midnightblue" points="284.48,-45.55 283.29,-56.08 290.79,-48.59 284.48,-45.55"/>
</g>
<!-- Node14&#45;&gt;Node13 -->
<g id="edge10" class="edge">
<title>Node14&#45;&gt;Node13</title>
<path fill="none" stroke="midnightblue" d="M388.8,-46.69C392.68,-37.59 397.18,-27.01 400.27,-19.75"/>
<polygon fill="midnightblue" stroke="midnightblue" points="385.5,-45.51 384.8,-56.08 391.94,-48.25 385.5,-45.51"/>
</g>
<!-- Node16&#45;&gt;Node15 -->
<g id="edge13" class="edge">
<title>Node16&#45;&gt;Node15</title>
<path fill="none" stroke="midnightblue" d="M699.74,-53.17C669.42,-43 626.43,-28.59 599.39,-19.52"/>
<polygon fill="midnightblue" stroke="midnightblue" points="698.9,-56.58 709.49,-56.44 701.12,-49.95 698.9,-56.58"/>
</g>
<!-- Node22&#45;&gt;Node21 -->
<g id="edge16" class="edge">
<title>Node22&#45;&gt;Node21</title>
<path fill="none" stroke="midnightblue" d="M863.67,-49.25C853.74,-39.67 841.41,-27.79 833.16,-19.83"/>
<polygon fill="midnightblue" stroke="midnightblue" points="861.37,-51.9 871,-56.32 866.23,-46.86 861.37,-51.9"/>
</g>
<!-- Node57&#45;&gt;Node6 -->
<g id="edge19" class="edge">
<title>Node57&#45;&gt;Node6</title>
<path fill="none" stroke="midnightblue" d="M214.72,-106.9C230.67,-97 251.5,-84.07 265.06,-75.65"/>
<polygon fill="midnightblue" stroke="midnightblue" points="212.63,-104.08 205.98,-112.32 216.32,-110.02 212.63,-104.08"/>
</g>
<!-- Node58 -->
<g id="node15" class="node">
<title>Node58</title>
<g id="a_node15"><a xlink:href="_box_8_h.html" target="_top" xlink:title=" ">
<polygon fill="white" stroke="red" points="0,-56.5 0,-75.5 46,-75.5 46,-56.5 0,-56.5"/>
<text text-anchor="middle" x="23" y="-63.5" font-family="Helvetica,sans-Serif" font-size="10.00">Box.H</text>
</a>
</g>
</g>
<!-- Node57&#45;&gt;Node58 -->
<g id="edge20" class="edge">
<title>Node57&#45;&gt;Node58</title>
<path fill="none" stroke="midnightblue" d="M155.43,-109.32C122.24,-98.71 74.3,-83.39 46.12,-74.39"/>
<polygon fill="midnightblue" stroke="midnightblue" points="154.63,-112.73 165.22,-112.44 156.76,-106.07 154.63,-112.73"/>
</g>
<!-- Node59 -->
<g id="node16" class="node">
<title>Node59</title>
<g id="a_node16"><a xlink:href="_cylinder_8_h.html" target="_top" xlink:title=" ">
<polygon fill="white" stroke="red" points="64.5,-56.5 64.5,-75.5 131.5,-75.5 131.5,-56.5 64.5,-56.5"/>
<text text-anchor="middle" x="98" y="-63.5" font-family="Helvetica,sans-Serif" font-size="10.00">Cylinder.H</text>
</a>
</g>
</g>
<!-- Node57&#45;&gt;Node59 -->
<g id="edge21" class="edge">
<title>Node57&#45;&gt;Node59</title>
<path fill="none" stroke="midnightblue" d="M167.94,-107.18C150.64,-97.24 127.85,-84.15 113.07,-75.65"/>
<polygon fill="midnightblue" stroke="midnightblue" points="166.48,-110.38 176.9,-112.32 169.97,-104.31 166.48,-110.38"/>
</g>
<!-- Node60 -->
<g id="node17" class="node">
<title>Node60</title>
<g id="a_node17"><a xlink:href="_sphere_8_h.html" target="_top" xlink:title=" ">
<polygon fill="white" stroke="red" points="149.5,-56.5 149.5,-75.5 210.5,-75.5 210.5,-56.5 149.5,-56.5"/>
<text text-anchor="middle" x="180" y="-63.5" font-family="Helvetica,sans-Serif" font-size="10.00">Sphere.H</text>
</a>
</g>
</g>
<!-- Node57&#45;&gt;Node60 -->
<g id="edge22" class="edge">
<title>Node57&#45;&gt;Node60</title>
<path fill="none" stroke="midnightblue" d="M187.8,-102.1C185.81,-93.14 183.52,-82.86 181.94,-75.75"/>
<polygon fill="midnightblue" stroke="midnightblue" points="184.43,-103.08 190.02,-112.08 191.27,-101.56 184.43,-103.08"/>
</g>
<!-- Node61&#45;&gt;Node6 -->
<g id="edge24" class="edge">
<title>Node61&#45;&gt;Node6</title>
<path fill="none" stroke="midnightblue" d="M313.67,-161.03C306.32,-152.97 298.15,-142.65 293,-132 283.96,-113.29 280.71,-88.76 279.58,-75.84"/>
<polygon fill="midnightblue" stroke="midnightblue" points="311.17,-163.47 320.62,-168.27 316.22,-158.63 311.17,-163.47"/>
</g>
<!-- Node61&#45;&gt;Node14 -->
<g id="edge26" class="edge">
<title>Node61&#45;&gt;Node14</title>
<path fill="none" stroke="midnightblue" d="M346.33,-161.03C353.68,-152.97 361.85,-142.65 367,-132 376.04,-113.29 379.29,-88.76 380.42,-75.84"/>
<polygon fill="midnightblue" stroke="midnightblue" points="343.78,-158.63 339.38,-168.27 348.83,-163.47 343.78,-158.63"/>
</g>
<!-- Node61&#45;&gt;Node57 -->
<g id="edge25" class="edge">
<title>Node61&#45;&gt;Node57</title>
<path fill="none" stroke="midnightblue" d="M298.75,-164.77C272.83,-154.63 236.64,-140.47 213.76,-131.52"/>
<polygon fill="midnightblue" stroke="midnightblue" points="297.55,-168.06 308.13,-168.44 300.1,-161.54 297.55,-168.06"/>
</g>
<!-- Node62 -->
<g id="node19" class="node">
<title>Node62</title>
<g id="a_node19"><a xlink:href="_i_b_ops_8_h.html" target="_top" xlink:title=" ">
<polygon fill="white" stroke="red" points="302,-112.5 302,-131.5 358,-131.5 358,-112.5 302,-112.5"/>
<text text-anchor="middle" x="330" y="-119.5" font-family="Helvetica,sans-Serif" font-size="10.00">IBOps.H</text>
</a>
</g>
</g>
<!-- Node61&#45;&gt;Node62 -->
<g id="edge27" class="edge">
<title>Node61&#45;&gt;Node62</title>
<path fill="none" stroke="midnightblue" d="M330,-157.8C330,-148.91 330,-138.78 330,-131.75"/>
<polygon fill="midnightblue" stroke="midnightblue" points="326.5,-158.08 330,-168.08 333.5,-158.08 326.5,-158.08"/>
</g>
<!-- Node62&#45;&gt;Node6 -->
<g id="edge28" class="edge">
<title>Node62&#45;&gt;Node6</title>
<path fill="none" stroke="midnightblue" d="M314.62,-104.72C305.63,-95.2 294.64,-83.56 287.26,-75.75"/>
<polygon fill="midnightblue" stroke="midnightblue" points="312.17,-107.22 321.58,-112.08 317.26,-102.41 312.17,-107.22"/>
</g>
<!-- Node62&#45;&gt;Node14 -->
<g id="edge29" class="edge">
<title>Node62&#45;&gt;Node14</title>
<path fill="none" stroke="midnightblue" d="M345.38,-104.72C354.37,-95.2 365.36,-83.56 372.74,-75.75"/>
<polygon fill="midnightblue" stroke="midnightblue" points="342.74,-102.41 338.42,-112.08 347.83,-107.22 342.74,-102.41"/>
</g>
<!-- Node63&#45;&gt;Node16 -->
<g id="edge31" class="edge">
<title>Node63&#45;&gt;Node16</title>
<path fill="none" stroke="midnightblue" d="M831.89,-170.1C804.42,-164.04 774.54,-152.8 754,-132 738.8,-116.61 735.63,-89.76 735.06,-75.88"/>
<polygon fill="midnightblue" stroke="midnightblue" points="831.38,-173.56 841.87,-172.1 832.76,-166.7 831.38,-173.56"/>
</g>
<!-- Node63&#45;&gt;Node22 -->
<g id="edge35" class="edge">
<title>Node63&#45;&gt;Node22</title>
<path fill="none" stroke="midnightblue" d="M897.44,-158.35C892.84,-134.25 885.02,-93.31 881.64,-75.59"/>
<polygon fill="midnightblue" stroke="midnightblue" points="894.04,-159.2 899.35,-168.37 900.91,-157.89 894.04,-159.2"/>
</g>
<!-- Node64 -->
<g id="node21" class="node">
<title>Node64</title>
<g id="a_node21"><a xlink:href="_ocean_waves_ops_8_h.html" target="_top" xlink:title=" ">
<polygon fill="white" stroke="red" points="763.5,-112.5 763.5,-131.5 872.5,-131.5 872.5,-112.5 763.5,-112.5"/>
<text text-anchor="middle" x="818" y="-119.5" font-family="Helvetica,sans-Serif" font-size="10.00">OceanWavesOps.H</text>
</a>
</g>
</g>
<!-- Node63&#45;&gt;Node64 -->
<g id="edge32" class="edge">
<title>Node63&#45;&gt;Node64</title>
<path fill="none" stroke="midnightblue" d="M878.9,-162.62C863.74,-152.76 844.12,-139.99 831.3,-131.65"/>
<polygon fill="midnightblue" stroke="midnightblue" points="877.37,-165.8 887.66,-168.32 881.19,-159.94 877.37,-165.8"/>
</g>
<!-- Node63&#45;&gt;Node65 -->
<g id="edge36" class="edge">
<title>Node63&#45;&gt;Node65</title>
<path fill="none" stroke="midnightblue" d="M923.1,-162.62C938.26,-152.76 957.88,-139.99 970.7,-131.65"/>
<polygon fill="midnightblue" stroke="midnightblue" points="920.81,-159.94 914.34,-168.32 924.63,-165.8 920.81,-159.94"/>
</g>
<!-- Node64&#45;&gt;Node16 -->
<g id="edge33" class="edge">
<title>Node64&#45;&gt;Node16</title>
<path fill="none" stroke="midnightblue" d="M795.9,-106.62C780.74,-96.76 761.12,-83.99 748.3,-75.65"/>
<polygon fill="midnightblue" stroke="midnightblue" points="794.37,-109.8 804.66,-112.32 798.19,-103.94 794.37,-109.8"/>
</g>
<!-- Node64&#45;&gt;Node22 -->
<g id="edge34" class="edge">
<title>Node64&#45;&gt;Node22</title>
<path fill="none" stroke="midnightblue" d="M835.75,-105.54C846.81,-95.91 860.63,-83.87 869.86,-75.83"/>
<polygon fill="midnightblue" stroke="midnightblue" points="833.2,-103.12 827.96,-112.32 837.8,-108.4 833.2,-103.12"/>
</g>
<!-- Node65&#45;&gt;Node22 -->
<g id="edge39" class="edge">
<title>Node65&#45;&gt;Node22</title>
<path fill="none" stroke="midnightblue" d="M958.17,-107.59C938.94,-97.61 913.26,-84.27 896.67,-75.65"/>
<polygon fill="midnightblue" stroke="midnightblue" points="956.8,-110.82 967.29,-112.32 960.03,-104.61 956.8,-110.82"/>
</g>
<!-- Node66 -->
<g id="node23" class="node">
<title>Node66</title>
<g id="a_node23"><a xlink:href="_h_o_s_waves_8_h.html" target="_top" xlink:title=" ">
<polygon fill="white" stroke="red" points="1282,-56.5 1282,-75.5 1362,-75.5 1362,-56.5 1282,-56.5"/>
<text text-anchor="middle" x="1322" y="-63.5" font-family="Helvetica,sans-Serif" font-size="10.00">HOSWaves.H</text>
</a>
</g>
</g>
<!-- Node65&#45;&gt;Node66 -->
<g id="edge37" class="edge">
<title>Node65&#45;&gt;Node66</title>
<path fill="none" stroke="midnightblue" d="M1049.2,-111.25C1107.62,-102.41 1195.61,-88.84 1272,-76 1275.22,-75.46 1278.55,-74.89 1281.9,-74.3"/>
<polygon fill="midnightblue" stroke="midnightblue" points="1048.37,-107.84 1039,-112.79 1049.42,-114.76 1048.37,-107.84"/>
</g>
<!-- Node67 -->
<g id="node24" class="node">
<title>Node67</title>
<g id="a_node24"><a xlink:href="_linear_waves_8_h.html" target="_top" xlink:title=" ">
<polygon fill="white" stroke="red" points="964.5,-56.5 964.5,-75.5 1053.5,-75.5 1053.5,-56.5 964.5,-56.5"/>
<text text-anchor="middle" x="1009" y="-63.5" font-family="Helvetica,sans-Serif" font-size="10.00">LinearWaves.H</text>
</a>
</g>
</g>
<!-- Node65&#45;&gt;Node67 -->
<g id="edge38" class="edge">
<title>Node65&#45;&gt;Node67</title>
<path fill="none" stroke="midnightblue" d="M992.34,-102.98C996.58,-93.82 1001.55,-83.09 1004.95,-75.75"/>
<polygon fill="midnightblue" stroke="midnightblue" points="989.15,-101.54 988.13,-112.08 995.51,-104.48 989.15,-101.54"/>
</g>
<!-- Node68 -->
<g id="node25" class="node">
<title>Node68</title>
<g id="a_node25"><a xlink:href="_stokes_waves_8_h.html" target="_top" xlink:title=" ">
<polygon fill="white" stroke="red" points="1072,-56.5 1072,-75.5 1164,-75.5 1164,-56.5 1072,-56.5"/>
<text text-anchor="middle" x="1118" y="-63.5" font-family="Helvetica,sans-Serif" font-size="10.00">StokesWaves.H</text>
</a>
</g>
</g>
<!-- Node65&#45;&gt;Node68 -->
<g id="edge40" class="edge">
<title>Node65&#45;&gt;Node68</title>
<path fill="none" stroke="midnightblue" d="M1014.68,-108.64C1039.82,-98.5 1074.75,-84.43 1096.87,-75.52"/>
<polygon fill="midnightblue" stroke="midnightblue" points="1013.2,-105.46 1005.23,-112.44 1015.82,-111.95 1013.2,-105.46"/>
</g>
<!-- Node69 -->
<g id="node26" class="node">
<title>Node69</title>
<g id="a_node26"><a xlink:href="_w2_a_waves_8_h.html" target="_top" xlink:title=" ">
<polygon fill="white" stroke="red" points="1182.5,-56.5 1182.5,-75.5 1263.5,-75.5 1263.5,-56.5 1182.5,-56.5"/>
<text text-anchor="middle" x="1223" y="-63.5" font-family="Helvetica,sans-Serif" font-size="10.00">W2AWaves.H</text>
</a>
</g>
</g>
<!-- Node65&#45;&gt;Node69 -->
<g id="edge41" class="edge">
<title>Node65&#45;&gt;Node69</title>
<path fill="none" stroke="midnightblue" d="M1031.72,-110.22C1076.89,-100.01 1143.77,-84.9 1185.31,-75.52"/>
<polygon fill="midnightblue" stroke="midnightblue" points="1030.85,-106.83 1021.87,-112.44 1032.4,-113.65 1030.85,-106.83"/>
</g>
<!-- Node71 -->
<g id="node28" class="node">
<title>Node71</title>
<g id="a_node28"><a xlink:href="_synthetic_turbulence_8cpp.html" target="_top" xlink:title=" ">
<polygon fill="white" stroke="black" points="1057.5,-112.5 1057.5,-131.5 1192.5,-131.5 1192.5,-112.5 1057.5,-112.5"/>
<text text-anchor="middle" x="1125" y="-119.5" font-family="Helvetica,sans-Serif" font-size="10.00">SyntheticTurbulence.cpp</text>
</a>
</g>
</g>
<!-- Node70&#45;&gt;Node71 -->
<g id="edge44" class="edge">
<title>Node70&#45;&gt;Node71</title>
<path fill="none" stroke="midnightblue" d="M1169.25,-161.54C1158.19,-151.91 1144.37,-139.87 1135.14,-131.83"/>
<polygon fill="midnightblue" stroke="midnightblue" points="1167.2,-164.4 1177.04,-168.32 1171.8,-159.12 1167.2,-164.4"/>
</g>
<!-- Node73 -->
<g id="node30" class="node">
<title>Node73</title>
<g id="a_node30"><a xlink:href="_d_t_u_spinner_sampler_8cpp.html" target="_top" xlink:title=" ">
<polygon fill="white" stroke="black" points="1380,-56.5 1380,-75.5 1514,-75.5 1514,-56.5 1380,-56.5"/>
<text text-anchor="middle" x="1447" y="-63.5" font-family="Helvetica,sans-Serif" font-size="10.00">DTUSpinnerSampler.cpp</text>
</a>
</g>
</g>
<!-- Node72&#45;&gt;Node73 -->
<g id="edge46" class="edge">
<title>Node72&#45;&gt;Node73</title>
<path fill="none" stroke="midnightblue" d="M1408.29,-105C1418.04,-95.43 1430.05,-83.64 1438.09,-75.75"/>
<polygon fill="midnightblue" stroke="midnightblue" points="1405.77,-102.58 1401.08,-112.08 1410.67,-107.57 1405.77,-102.58"/>
</g>
<!-- Node74&#45;&gt;Node72 -->
<g id="edge48" class="edge">
<title>Node74&#45;&gt;Node72</title>
<path fill="none" stroke="midnightblue" d="M1386.15,-158.1C1387.64,-149.14 1389.36,-138.86 1390.54,-131.75"/>
<polygon fill="midnightblue" stroke="midnightblue" points="1382.68,-157.64 1384.49,-168.08 1389.58,-158.79 1382.68,-157.64"/>
</g>
<!-- Node75 -->
<g id="node32" class="node">
<title>Node75</title>
<g id="a_node32"><a xlink:href="_lidar_sampler_8cpp.html" target="_top" xlink:title=" ">
<polygon fill="white" stroke="black" points="1210.5,-112.5 1210.5,-131.5 1311.5,-131.5 1311.5,-112.5 1210.5,-112.5"/>
<text text-anchor="middle" x="1261" y="-119.5" font-family="Helvetica,sans-Serif" font-size="10.00">LidarSampler.cpp</text>
</a>
</g>
</g>
<!-- Node74&#45;&gt;Node75 -->
<g id="edge49" class="edge">
<title>Node74&#45;&gt;Node75</title>
<path fill="none" stroke="midnightblue" d="M1354.46,-164.37C1331.61,-154.26 1300.19,-140.35 1280.24,-131.52"/>
<polygon fill="midnightblue" stroke="midnightblue" points="1353.11,-167.6 1363.67,-168.44 1355.94,-161.2 1353.11,-167.6"/>
</g>
<!-- Node77 -->
<g id="node34" class="node">
<title>Node77</title>
<g id="a_node34"><a xlink:href="_radar_sampler_8cpp.html" target="_top" xlink:title=" ">
<polygon fill="white" stroke="black" points="1590.5,-56.5 1590.5,-75.5 1695.5,-75.5 1695.5,-56.5 1590.5,-56.5"/>
<text text-anchor="middle" x="1643" y="-63.5" font-family="Helvetica,sans-Serif" font-size="10.00">RadarSampler.cpp</text>
</a>
</g>
</g>
<!-- Node76&#45;&gt;Node77 -->
<g id="edge51" class="edge">
<title>Node76&#45;&gt;Node77</title>
<path fill="none" stroke="midnightblue" d="M1643,-101.8C1643,-92.91 1643,-82.78 1643,-75.75"/>
<polygon fill="midnightblue" stroke="midnightblue" points="1639.5,-102.08 1643,-112.08 1646.5,-102.08 1639.5,-102.08"/>
</g>
<!-- Node78&#45;&gt;Node72 -->
<g id="edge53" class="edge">
<title>Node78&#45;&gt;Node72</title>
<path fill="none" stroke="midnightblue" d="M1501.07,-164.77C1474.59,-154.63 1437.61,-140.47 1414.24,-131.52"/>
<polygon fill="midnightblue" stroke="midnightblue" points="1500.07,-168.14 1510.66,-168.44 1502.57,-161.6 1500.07,-168.14"/>
</g>
<!-- Node78&#45;&gt;Node76 -->
<g id="edge54" class="edge">
<title>Node78&#45;&gt;Node76</title>
<path fill="none" stroke="midnightblue" d="M1559.76,-163.86C1580.16,-153.85 1607.67,-140.35 1625.37,-131.65"/>
<polygon fill="midnightblue" stroke="midnightblue" points="1558.11,-160.78 1550.67,-168.32 1561.19,-167.06 1558.11,-160.78"/>
</g>
<!-- Node79 -->
<g id="node36" class="node">
<title>Node79</title>
<g id="a_node36"><a xlink:href="_sampling_utils_8cpp.html" target="_top" xlink:title=" ">
<polygon fill="white" stroke="black" points="1472.5,-112.5 1472.5,-131.5 1577.5,-131.5 1577.5,-112.5 1472.5,-112.5"/>
<text text-anchor="middle" x="1525" y="-119.5" font-family="Helvetica,sans-Serif" font-size="10.00">SamplingUtils.cpp</text>
</a>
</g>
</g>
<!-- Node78&#45;&gt;Node79 -->
<g id="edge55" class="edge">
<title>Node78&#45;&gt;Node79</title>
<path fill="none" stroke="midnightblue" d="M1530.2,-158.1C1528.87,-149.14 1527.35,-138.86 1526.3,-131.75"/>
<polygon fill="midnightblue" stroke="midnightblue" points="1526.75,-158.7 1531.68,-168.08 1533.68,-157.68 1526.75,-158.7"/>
</g>
<!-- Node81 -->
<g id="node38" class="node">
<title>Node81</title>
<g id="a_node38"><a xlink:href="_box_refiner_8cpp.html" target="_top" xlink:title=" ">
<polygon fill="white" stroke="black" points="1708.5,-112.5 1708.5,-131.5 1797.5,-131.5 1797.5,-112.5 1708.5,-112.5"/>
<text text-anchor="middle" x="1753" y="-119.5" font-family="Helvetica,sans-Serif" font-size="10.00">BoxRefiner.cpp</text>
</a>
</g>
</g>
<!-- Node80&#45;&gt;Node81 -->
<g id="edge57" class="edge">
<title>Node80&#45;&gt;Node81</title>
<path fill="none" stroke="midnightblue" d="M1697.58,-162.38C1711.31,-152.62 1728.93,-140.11 1740.57,-131.83"/>
<polygon fill="midnightblue" stroke="midnightblue" points="1695.34,-159.68 1689.21,-168.32 1699.39,-165.38 1695.34,-159.68"/>
</g>
<!-- Node83 -->
<g id="node40" class="node">
<title>Node83</title>
<g id="a_node40"><a xlink:href="_cylinder_refiner_8cpp.html" target="_top" xlink:title=" ">
<polygon fill="white" stroke="black" points="1815.5,-112.5 1815.5,-131.5 1926.5,-131.5 1926.5,-112.5 1815.5,-112.5"/>
<text text-anchor="middle" x="1871" y="-119.5" font-family="Helvetica,sans-Serif" font-size="10.00">CylinderRefiner.cpp</text>
</a>
</g>
</g>
<!-- Node82&#45;&gt;Node83 -->
<g id="edge59" class="edge">
<title>Node82&#45;&gt;Node83</title>
<path fill="none" stroke="midnightblue" d="M1808.19,-162.9C1823.78,-153 1844.13,-140.07 1857.38,-131.65"/>
<polygon fill="midnightblue" stroke="midnightblue" points="1806.22,-160.01 1799.66,-168.32 1809.97,-165.92 1806.22,-160.01"/>
</g>
<!-- Node85 -->
<g id="node42" class="node">
<title>Node85</title>
<g id="a_node42"><a xlink:href="_a_b_l_8_h.html" target="_top" xlink:title=" ">
<polygon fill="white" stroke="red" points="1945,-112.5 1945,-131.5 1991,-131.5 1991,-112.5 1945,-112.5"/>
<text text-anchor="middle" x="1968" y="-119.5" font-family="Helvetica,sans-Serif" font-size="10.00">ABL.H</text>
</a>
</g>
</g>
<!-- Node84&#45;&gt;Node85 -->
<g id="edge61" class="edge">
<title>Node84&#45;&gt;Node85</title>
<path fill="none" stroke="midnightblue" d="M1940.7,-159.86C1947.63,-150.5 1955.91,-139.33 1961.52,-131.75"/>
<polygon fill="midnightblue" stroke="midnightblue" points="1937.75,-157.96 1934.61,-168.08 1943.37,-162.13 1937.75,-157.96"/>
</g>
<!-- Node100 -->
<g id="node43" class="node">
<title>Node100</title>
<g id="a_node43"><a xlink:href="_a_b_l_fill_m_p_l_8_h.html" target="_top" xlink:title=" ">
<polygon fill="white" stroke="red" points="2009,-112.5 2009,-131.5 2089,-131.5 2089,-112.5 2009,-112.5"/>
<text text-anchor="middle" x="2049" y="-119.5" font-family="Helvetica,sans-Serif" font-size="10.00">ABLFillMPL.H</text>
</a>
</g>
</g>
<!-- Node84&#45;&gt;Node100 -->
<g id="edge62" class="edge">
<title>Node84&#45;&gt;Node100</title>
<path fill="none" stroke="midnightblue" d="M1956.31,-164.37C1978.97,-154.26 2010.13,-140.35 2029.92,-131.52"/>
<polygon fill="midnightblue" stroke="midnightblue" points="1954.88,-161.17 1947.17,-168.44 1957.73,-167.56 1954.88,-161.17"/>
</g>
<!-- Node102 -->
<g id="node44" class="node">
<title>Node102</title>
<g id="a_node44"><a xlink:href="_a_b_l_modulated_power_law_8cpp.html" target="_top" xlink:title=" ">
<polygon fill="white" stroke="black" points="2005,-56.5 2005,-75.5 2161,-75.5 2161,-56.5 2005,-56.5"/>
<text text-anchor="middle" x="2083" y="-63.5" font-family="Helvetica,sans-Serif" font-size="10.00">ABLModulatedPowerLaw.cpp</text>
</a>
</g>
</g>
<!-- Node84&#45;&gt;Node102 -->
<g id="edge64" class="edge">
<title>Node84&#45;&gt;Node102</title>
<path fill="none" stroke="midnightblue" d="M2000.69,-166.73C2041.14,-159.37 2085.74,-147.92 2098,-132 2111,-115.11 2097.56,-88.92 2088.98,-75.53"/>
<polygon fill="midnightblue" stroke="midnightblue" points="2000.04,-163.3 1990.79,-168.47 2001.25,-170.19 2000.04,-163.3"/>
</g>
<!-- Node100&#45;&gt;Node102 -->
<g id="edge63" class="edge">
<title>Node100&#45;&gt;Node102</title>
<path fill="none" stroke="midnightblue" d="M2059.98,-103.57C2065.83,-94.27 2072.77,-83.25 2077.49,-75.75"/>
<polygon fill="midnightblue" stroke="midnightblue" points="2056.98,-101.76 2054.61,-112.08 2062.9,-105.49 2056.98,-101.76"/>
</g>
<!-- Node103&#45;&gt;Node117 -->
<g id="edge66" class="edge">
<title>Node103&#45;&gt;Node117</title>
<path fill="none" stroke="midnightblue" d="M2097.77,-164.37C2120.81,-154.26 2152.48,-140.35 2172.6,-131.52"/>
<polygon fill="midnightblue" stroke="midnightblue" points="2096.24,-161.22 2088.49,-168.44 2099.05,-167.63 2096.24,-161.22"/>
</g>
<!-- Node111&#45;&gt;Node112 -->
<g id="edge70" class="edge">
<title>Node111&#45;&gt;Node112</title>
<path fill="none" stroke="midnightblue" d="M2477.95,-159.57C2484.31,-150.27 2491.87,-139.25 2497,-131.75"/>
<polygon fill="midnightblue" stroke="midnightblue" points="2474.87,-157.86 2472.11,-168.08 2480.65,-161.81 2474.87,-157.86"/>
</g>
</g>
</svg>
