<?xml version="1.0" encoding="UTF-8" standalone="no"?>
<!DOCTYPE svg PUBLIC "-//W3C//DTD SVG 1.1//EN"
 "http://www.w3.org/Graphics/SVG/1.1/DTD/svg11.dtd">
<!-- Generated by graphviz version 2.43.0 (0)
 -->
<!-- Title: trig_ops.H Pages: 1 -->
<!--zoomable 364 -->
<svg id="main" version="1.1" xmlns="http://www.w3.org/2000/svg" xmlns:xlink="http://www.w3.org/1999/xlink" xml:space="preserve" onload="init(evt)">
<style type="text/css"><![CDATA[
.edge:hover path { stroke: red; }
.edge:hover polygon { stroke: red; fill: red; }
]]></style>
<script type="text/javascript"><![CDATA[
var edges = document.getElementsByTagName('g');
if (edges && edges.length) {
  for (var i=0;i<edges.length;i++) {
    if (edges[i].id.substr(0,4)=='edge') {
      edges[i].setAttribute('class','edge');
    }
  }
}
]]></script>
        <defs>
                <circle id="rim" cx="0" cy="0" r="7"/>
                <circle id="rim2" cx="0" cy="0" r="3.5"/>
                <g id="zoomPlus">
                        <use xlink:href="#rim" fill="#404040">
                                <set attributeName="fill" to="#808080" begin="zoomplus.mouseover" end="zoomplus.mouseout"/>
                        </use>
                        <path d="M-4,0h8M0,-4v8" fill="none" stroke="white" stroke-width="1.5" pointer-events="none"/>
                </g>
                <g id="zoomMin">
                        <use xlink:href="#rim" fill="#404040">
                                <set attributeName="fill" to="#808080" begin="zoomminus.mouseover" end="zoomminus.mouseout"/>
                        </use>
                        <path d="M-4,0h8" fill="none" stroke="white" stroke-width="1.5" pointer-events="none"/>
                </g>
                <g id="dirArrow">
                        <path fill="none" stroke="white" stroke-width="1.5" d="M0,-3.0v7 M-2.5,-0.5L0,-3.0L2.5,-0.5"/>
                </g>
               <g id="resetDef">
                       <use xlink:href="#rim2" fill="#404040">
                               <set attributeName="fill" to="#808080" begin="reset.mouseover" end="reset.mouseout"/>
                       </use>
               </g>
        </defs>

<script type="text/javascript">
var viewWidth = 3517;
var viewHeight = 364;
var sectionId = 'dynsection-1';
</script>
<script xlink:href="svgpan.js"/>
<svg id="graph" class="graph">
<g id="viewport">
<title>trig_ops.H</title>
<polygon fill="white" stroke="transparent" points="-4,4 -4,-360 3513,-360 3513,4 -4,4"/>
<!-- Node1 -->
<g id="node1" class="node">
<title>Node1</title>
<g id="a_node1"><a xlink:title="Trigonometric utilities.">
<polygon fill="#bfbfbf" stroke="black" points="1559,-336.5 1559,-355.5 1625,-355.5 1625,-336.5 1559,-336.5"/>
<text text-anchor="middle" x="1592" y="-343.5" font-family="Helvetica,sans-Serif" font-size="10.00">trig_ops.H</text>
</a>
</g>
</g>
<!-- Node2 -->
<g id="node2" class="node">
<title>Node2</title>
<g id="a_node2"><a xlink:href="_wall_function_8cpp.html" target="_top" xlink:title=" ">
<polygon fill="white" stroke="black" points="226.5,-280.5 226.5,-299.5 325.5,-299.5 325.5,-280.5 226.5,-280.5"/>
<text text-anchor="middle" x="276" y="-287.5" font-family="Helvetica,sans-Serif" font-size="10.00">WallFunction.cpp</text>
</a>
</g>
</g>
<!-- Node1&#45;&gt;Node2 -->
<g id="edge1" class="edge">
<title>Node1&#45;&gt;Node2</title>
<path fill="none" stroke="midnightblue" d="M1548.09,-345.07C1386.78,-344.97 811.78,-341.54 340,-300 335.31,-299.59 330.43,-299.07 325.56,-298.49"/>
<polygon fill="midnightblue" stroke="midnightblue" points="1548.55,-348.57 1558.55,-345.07 1548.55,-341.57 1548.55,-348.57"/>
</g>
<!-- Node3 -->
<g id="node3" class="node">
<title>Node3</title>
<g id="a_node3"><a xlink:href="tensor_i_8_h.html" target="_top" xlink:title=" ">
<polygon fill="white" stroke="black" points="404.5,-280.5 404.5,-299.5 465.5,-299.5 465.5,-280.5 404.5,-280.5"/>
<text text-anchor="middle" x="435" y="-287.5" font-family="Helvetica,sans-Serif" font-size="10.00">tensorI.H</text>
</a>
</g>
</g>
<!-- Node1&#45;&gt;Node3 -->
<g id="edge2" class="edge">
<title>Node1&#45;&gt;Node3</title>
<path fill="none" stroke="midnightblue" d="M1548.88,-345.21C1400.76,-345.53 899.28,-343.12 488,-300 480.76,-299.24 473.01,-298.11 465.74,-296.9"/>
<polygon fill="midnightblue" stroke="midnightblue" points="1548.93,-348.71 1558.92,-345.19 1548.91,-341.71 1548.93,-348.71"/>
</g>
<!-- Node87 -->
<g id="node6" class="node">
<title>Node87</title>
<g id="a_node6"><a xlink:href="_a_b_l_modulated_power_law_8_h.html" target="_top" xlink:title=" ">
<polygon fill="white" stroke="black" points="281,-112.5 281,-131.5 427,-131.5 427,-112.5 281,-112.5"/>
<text text-anchor="middle" x="354" y="-119.5" font-family="Helvetica,sans-Serif" font-size="10.00">ABLModulatedPowerLaw.H</text>
</a>
</g>
</g>
<!-- Node1&#45;&gt;Node87 -->
<g id="edge49" class="edge">
<title>Node1&#45;&gt;Node87</title>
<path fill="none" stroke="midnightblue" d="M1548.6,-344.83C1339.06,-343.84 440.31,-337.42 395,-300 342.71,-256.81 349.33,-161.32 352.79,-131.84"/>
<polygon fill="midnightblue" stroke="midnightblue" points="1548.88,-348.33 1558.89,-344.88 1548.91,-341.33 1548.88,-348.33"/>
</g>
<!-- Node91 -->
<g id="node10" class="node">
<title>Node91</title>
<g id="a_node10"><a xlink:href="_a_b_l_forcing_8cpp.html" target="_top" xlink:title=" ">
<polygon fill="white" stroke="black" points="1012.5,-0.5 1012.5,-19.5 1103.5,-19.5 1103.5,-0.5 1012.5,-0.5"/>
<text text-anchor="middle" x="1058" y="-7.5" font-family="Helvetica,sans-Serif" font-size="10.00">ABLForcing.cpp</text>
</a>
</g>
</g>
<!-- Node1&#45;&gt;Node91 -->
<g id="edge20" class="edge">
<title>Node1&#45;&gt;Node91</title>
<path fill="none" stroke="midnightblue" d="M1548.71,-344.99C1376.53,-344.68 745.82,-340.74 667,-300 634.38,-283.14 616,-271.72 616,-235 616,-235 616,-235 616,-177 616,-137.38 642.98,-132.31 677,-112 734.44,-77.72 926.35,-36.89 1013.84,-19.51"/>
<polygon fill="midnightblue" stroke="midnightblue" points="1548.9,-348.49 1558.91,-345.01 1548.91,-341.49 1548.9,-348.49"/>
</g>
<!-- Node94 -->
<g id="node12" class="node">
<title>Node94</title>
<g id="a_node12"><a xlink:href="_hurricane_forcing_8cpp.html" target="_top" xlink:title=" ">
<polygon fill="white" stroke="black" points="174.5,-0.5 174.5,-19.5 293.5,-19.5 293.5,-0.5 174.5,-0.5"/>
<text text-anchor="middle" x="234" y="-7.5" font-family="Helvetica,sans-Serif" font-size="10.00">HurricaneForcing.cpp</text>
</a>
</g>
</g>
<!-- Node1&#45;&gt;Node94 -->
<g id="edge28" class="edge">
<title>Node1&#45;&gt;Node94</title>
<path fill="none" stroke="midnightblue" d="M1548.83,-345.15C1364.28,-345.53 646.94,-344.12 557,-300 523.02,-283.34 502,-272.84 502,-235 502,-235 502,-235 502,-121 502,-73.09 353.6,-35.57 277.66,-19.51"/>
<polygon fill="midnightblue" stroke="midnightblue" points="1548.98,-348.65 1558.97,-345.13 1548.96,-341.65 1548.98,-348.65"/>
</g>
<!-- Node96 -->
<g id="node13" class="node">
<title>Node96</title>
<g id="a_node13"><a xlink:href="_hurricane_temp_forcing_8cpp.html" target="_top" xlink:title=" ">
<polygon fill="white" stroke="black" points="312,-0.5 312,-19.5 458,-19.5 458,-0.5 312,-0.5"/>
<text text-anchor="middle" x="385" y="-7.5" font-family="Helvetica,sans-Serif" font-size="10.00">HurricaneTempForcing.cpp</text>
</a>
</g>
</g>
<!-- Node1&#45;&gt;Node96 -->
<g id="edge31" class="edge">
<title>Node1&#45;&gt;Node96</title>
<path fill="none" stroke="midnightblue" d="M1548.61,-345.1C1367.88,-345.22 680.23,-342.86 594,-300 560.37,-283.28 540,-272.56 540,-235 540,-235 540,-235 540,-121 540,-90.2 538.02,-77.53 516,-56 496.48,-36.92 468.52,-25.92 443.44,-19.57"/>
<polygon fill="midnightblue" stroke="midnightblue" points="1548.8,-348.6 1558.8,-345.09 1548.8,-341.6 1548.8,-348.6"/>
</g>
<!-- Node97 -->
<g id="node14" class="node">
<title>Node97</title>
<g id="a_node14"><a xlink:href="helics_8cpp.html" target="_top" xlink:title=" ">
<polygon fill="white" stroke="black" points="476.5,-0.5 476.5,-19.5 541.5,-19.5 541.5,-0.5 476.5,-0.5"/>
<text text-anchor="middle" x="509" y="-7.5" font-family="Helvetica,sans-Serif" font-size="10.00">helics.cpp</text>
</a>
</g>
</g>
<!-- Node1&#45;&gt;Node97 -->
<g id="edge32" class="edge">
<title>Node1&#45;&gt;Node97</title>
<path fill="none" stroke="midnightblue" d="M1548.79,-345.04C1372.55,-344.91 713.59,-341.62 631,-300 597.71,-283.23 578,-272.28 578,-235 578,-235 578,-235 578,-121 578,-90.2 570.61,-81.93 554,-56 544.71,-41.49 530.03,-27.95 519.98,-19.59"/>
<polygon fill="midnightblue" stroke="midnightblue" points="1548.97,-348.54 1558.97,-345.04 1548.97,-341.54 1548.97,-348.54"/>
</g>
<!-- Node104 -->
<g id="node16" class="node">
<title>Node104</title>
<g id="a_node16"><a xlink:href="_a_b_l_wall_function_8cpp.html" target="_top" xlink:title=" ">
<polygon fill="white" stroke="black" points="1220.5,-0.5 1220.5,-19.5 1337.5,-19.5 1337.5,-0.5 1220.5,-0.5"/>
<text text-anchor="middle" x="1279" y="-7.5" font-family="Helvetica,sans-Serif" font-size="10.00">ABLWallFunction.cpp</text>
</a>
</g>
</g>
<!-- Node1&#45;&gt;Node104 -->
<g id="edge50" class="edge">
<title>Node1&#45;&gt;Node104</title>
<path fill="none" stroke="midnightblue" d="M1635.41,-344.62C1914.29,-342.13 3443.78,-327.24 3483,-300 3508.56,-282.25 3509,-266.11 3509,-235 3509,-235 3509,-235 3509,-121 3509,-8.95 1689.35,-9.58 1337.5,-10.74"/>
<polygon fill="midnightblue" stroke="midnightblue" points="1635.24,-341.13 1625.27,-344.71 1635.3,-348.13 1635.24,-341.13"/>
</g>
<!-- Node126 -->
<g id="node19" class="node">
<title>Node126</title>
<g id="a_node19"><a xlink:href="_a_b_l_forcing_8_h.html" target="_top" xlink:title=" ">
<polygon fill="white" stroke="black" points="971.5,-56.5 971.5,-75.5 1052.5,-75.5 1052.5,-56.5 971.5,-56.5"/>
<text text-anchor="middle" x="1012" y="-63.5" font-family="Helvetica,sans-Serif" font-size="10.00">ABLForcing.H</text>
</a>
</g>
</g>
<!-- Node1&#45;&gt;Node126 -->
<g id="edge21" class="edge">
<title>Node1&#45;&gt;Node126</title>
<path fill="none" stroke="midnightblue" d="M1548.71,-345.07C1380.03,-345.04 772.52,-341.98 698,-300 667.61,-282.88 654,-269.89 654,-235 654,-235 654,-235 654,-177 654,-136.14 682.55,-130.46 719,-112 762.44,-89.99 901.78,-75.93 971.49,-70.09"/>
<polygon fill="midnightblue" stroke="midnightblue" points="1548.94,-348.57 1558.94,-345.07 1548.94,-341.57 1548.94,-348.57"/>
</g>
<!-- Node128 -->
<g id="node21" class="node">
<title>Node128</title>
<g id="a_node21"><a xlink:href="icns_2source__terms_2_body_force_8cpp.html" target="_top" xlink:title=" ">
<polygon fill="white" stroke="black" points="720,-280.5 720,-299.5 808,-299.5 808,-280.5 720,-280.5"/>
<text text-anchor="middle" x="764" y="-287.5" font-family="Helvetica,sans-Serif" font-size="10.00">BodyForce.cpp</text>
</a>
</g>
</g>
<!-- Node1&#45;&gt;Node128 -->
<g id="edge25" class="edge">
<title>Node1&#45;&gt;Node128</title>
<path fill="none" stroke="midnightblue" d="M1548.58,-344.16C1430.62,-341.5 1094.53,-331.52 817,-300 814.13,-299.67 811.17,-299.29 808.19,-298.88"/>
<polygon fill="midnightblue" stroke="midnightblue" points="1548.58,-347.66 1558.65,-344.38 1548.73,-340.66 1548.58,-347.66"/>
</g>
<!-- Node129 -->
<g id="node22" class="node">
<title>Node129</title>
<g id="a_node22"><a xlink:href="_coriolis_forcing_8cpp.html" target="_top" xlink:title=" ">
<polygon fill="white" stroke="black" points="826.5,-280.5 826.5,-299.5 935.5,-299.5 935.5,-280.5 826.5,-280.5"/>
<text text-anchor="middle" x="881" y="-287.5" font-family="Helvetica,sans-Serif" font-size="10.00">CoriolisForcing.cpp</text>
</a>
</g>
</g>
<!-- Node1&#45;&gt;Node129 -->
<g id="edge26" class="edge">
<title>Node1&#45;&gt;Node129</title>
<path fill="none" stroke="midnightblue" d="M1548.75,-343.08C1444.49,-338.22 1171.14,-324.08 944,-300 941.25,-299.71 938.44,-299.39 935.61,-299.05"/>
<polygon fill="midnightblue" stroke="midnightblue" points="1548.73,-346.59 1558.88,-343.55 1549.05,-339.59 1548.73,-346.59"/>
</g>
<!-- Node130 -->
<g id="node23" class="node">
<title>Node130</title>
<g id="a_node23"><a xlink:href="_geostrophic_forcing_8cpp.html" target="_top" xlink:title=" ">
<polygon fill="white" stroke="black" points="953.5,-280.5 953.5,-299.5 1084.5,-299.5 1084.5,-280.5 953.5,-280.5"/>
<text text-anchor="middle" x="1019" y="-287.5" font-family="Helvetica,sans-Serif" font-size="10.00">GeostrophicForcing.cpp</text>
</a>
</g>
</g>
<!-- Node1&#45;&gt;Node130 -->
<g id="edge27" class="edge">
<title>Node1&#45;&gt;Node130</title>
<path fill="none" stroke="midnightblue" d="M1548.78,-341.52C1462.33,-334.48 1262,-317.67 1094,-300 1091,-299.68 1087.93,-299.35 1084.84,-299.01"/>
<polygon fill="midnightblue" stroke="midnightblue" points="1548.5,-345.01 1558.75,-342.33 1549.06,-338.04 1548.5,-345.01"/>
</g>
<!-- Node131 -->
<g id="node24" class="node">
<title>Node131</title>
<g id="a_node24"><a xlink:href="_rayleigh_damping_8cpp.html" target="_top" xlink:title=" ">
<polygon fill="white" stroke="black" points="1103,-280.5 1103,-299.5 1227,-299.5 1227,-280.5 1103,-280.5"/>
<text text-anchor="middle" x="1165" y="-287.5" font-family="Helvetica,sans-Serif" font-size="10.00">RayleighDamping.cpp</text>
</a>
</g>
</g>
<!-- Node1&#45;&gt;Node131 -->
<g id="edge29" class="edge">
<title>Node1&#45;&gt;Node131</title>
<path fill="none" stroke="midnightblue" d="M1548.43,-339.5C1481.33,-331.02 1348.64,-314.26 1236,-300 1233.16,-299.64 1230.27,-299.27 1227.34,-298.9"/>
<polygon fill="midnightblue" stroke="midnightblue" points="1548.26,-343 1558.62,-340.79 1549.14,-336.06 1548.26,-343"/>
</g>
<!-- Node132 -->
<g id="node25" class="node">
<title>Node132</title>
<g id="a_node25"><a xlink:href="temperature_2source__terms_2_body_force_8cpp.html" target="_top" xlink:title=" ">
<polygon fill="white" stroke="black" points="1245,-280.5 1245,-299.5 1333,-299.5 1333,-280.5 1245,-280.5"/>
<text text-anchor="middle" x="1289" y="-287.5" font-family="Helvetica,sans-Serif" font-size="10.00">BodyForce.cpp</text>
</a>
</g>
</g>
<!-- Node1&#45;&gt;Node132 -->
<g id="edge30" class="edge">
<title>Node1&#45;&gt;Node132</title>
<path fill="none" stroke="midnightblue" d="M1548.83,-337.31C1491.55,-327.1 1390.98,-309.17 1333.2,-298.88"/>
<polygon fill="midnightblue" stroke="midnightblue" points="1548.54,-340.81 1559,-339.12 1549.77,-333.92 1548.54,-340.81"/>
</g>
<!-- Node133 -->
<g id="node26" class="node">
<title>Node133</title>
<g id="a_node26"><a xlink:href="_burggraf_flow_8cpp.html" target="_top" xlink:title=" ">
<polygon fill="white" stroke="black" points="1351.5,-280.5 1351.5,-299.5 1452.5,-299.5 1452.5,-280.5 1351.5,-280.5"/>
<text text-anchor="middle" x="1402" y="-287.5" font-family="Helvetica,sans-Serif" font-size="10.00">BurggrafFlow.cpp</text>
</a>
</g>
</g>
<!-- Node1&#45;&gt;Node133 -->
<g id="edge33" class="edge">
<title>Node1&#45;&gt;Node133</title>
<path fill="none" stroke="midnightblue" d="M1552.24,-333.7C1516.38,-323.51 1464.43,-308.74 1431.97,-299.52"/>
<polygon fill="midnightblue" stroke="midnightblue" points="1551.32,-337.08 1561.89,-336.44 1553.23,-330.34 1551.32,-337.08"/>
</g>
<!-- Node134 -->
<g id="node27" class="node">
<title>Node134</title>
<g id="a_node27"><a xlink:href="_channel_flow_8cpp.html" target="_top" xlink:title=" ">
<polygon fill="white" stroke="black" points="1470.5,-280.5 1470.5,-299.5 1569.5,-299.5 1569.5,-280.5 1470.5,-280.5"/>
<text text-anchor="middle" x="1520" y="-287.5" font-family="Helvetica,sans-Serif" font-size="10.00">ChannelFlow.cpp</text>
</a>
</g>
</g>
<!-- Node1&#45;&gt;Node134 -->
<g id="edge34" class="edge">
<title>Node1&#45;&gt;Node134</title>
<path fill="none" stroke="midnightblue" d="M1572.13,-330.1C1559.18,-320.38 1542.7,-308.03 1531.78,-299.83"/>
<polygon fill="midnightblue" stroke="midnightblue" points="1570.33,-333.12 1580.43,-336.32 1574.53,-327.52 1570.33,-333.12"/>
</g>
<!-- Node135 -->
<g id="node28" class="node">
<title>Node135</title>
<g id="a_node28"><a xlink:href="_convecting_taylor_vortex_8cpp.html" target="_top" xlink:title=" ">
<polygon fill="white" stroke="black" points="1588,-280.5 1588,-299.5 1740,-299.5 1740,-280.5 1588,-280.5"/>
<text text-anchor="middle" x="1664" y="-287.5" font-family="Helvetica,sans-Serif" font-size="10.00">ConvectingTaylorVortex.cpp</text>
</a>
</g>
</g>
<!-- Node1&#45;&gt;Node135 -->
<g id="edge35" class="edge">
<title>Node1&#45;&gt;Node135</title>
<path fill="none" stroke="midnightblue" d="M1611.87,-330.1C1624.82,-320.38 1641.3,-308.03 1652.22,-299.83"/>
<polygon fill="midnightblue" stroke="midnightblue" points="1609.47,-327.52 1603.57,-336.32 1613.67,-333.12 1609.47,-327.52"/>
</g>
<!-- Node136 -->
<g id="node29" class="node">
<title>Node136</title>
<g id="a_node29"><a xlink:href="_ekman_spiral_8cpp.html" target="_top" xlink:title=" ">
<polygon fill="white" stroke="black" points="1758,-280.5 1758,-299.5 1856,-299.5 1856,-280.5 1758,-280.5"/>
<text text-anchor="middle" x="1807" y="-287.5" font-family="Helvetica,sans-Serif" font-size="10.00">EkmanSpiral.cpp</text>
</a>
</g>
</g>
<!-- Node1&#45;&gt;Node136 -->
<g id="edge36" class="edge">
<title>Node1&#45;&gt;Node136</title>
<path fill="none" stroke="midnightblue" d="M1635.01,-334.2C1675.65,-323.99 1735.79,-308.88 1773.13,-299.51"/>
<polygon fill="midnightblue" stroke="midnightblue" points="1633.97,-330.85 1625.12,-336.68 1635.67,-337.64 1633.97,-330.85"/>
</g>
<!-- Node137 -->
<g id="node30" class="node">
<title>Node137</title>
<g id="a_node30"><a xlink:href="_free_stream_8cpp.html" target="_top" xlink:title=" ">
<polygon fill="white" stroke="black" points="1874.5,-280.5 1874.5,-299.5 1967.5,-299.5 1967.5,-280.5 1874.5,-280.5"/>
<text text-anchor="middle" x="1921" y="-287.5" font-family="Helvetica,sans-Serif" font-size="10.00">FreeStream.cpp</text>
</a>
</g>
</g>
<!-- Node1&#45;&gt;Node137 -->
<g id="edge37" class="edge">
<title>Node1&#45;&gt;Node137</title>
<path fill="none" stroke="midnightblue" d="M1635.26,-337.9C1697.16,-327.74 1810.56,-309.13 1874.31,-298.66"/>
<polygon fill="midnightblue" stroke="midnightblue" points="1634.35,-334.5 1625.05,-339.58 1635.49,-341.41 1634.35,-334.5"/>
</g>
<!-- Node138 -->
<g id="node31" class="node">
<title>Node138</title>
<g id="a_node31"><a xlink:href="_intermittency_8cpp.html" target="_top" xlink:title=" ">
<polygon fill="white" stroke="black" points="1985.5,-280.5 1985.5,-299.5 2086.5,-299.5 2086.5,-280.5 1985.5,-280.5"/>
<text text-anchor="middle" x="2036" y="-287.5" font-family="Helvetica,sans-Serif" font-size="10.00">Intermittency.cpp</text>
</a>
</g>
</g>
<!-- Node1&#45;&gt;Node138 -->
<g id="edge38" class="edge">
<title>Node1&#45;&gt;Node138</title>
<path fill="none" stroke="midnightblue" d="M1635.55,-340.36C1706.81,-332.66 1852.76,-316.46 1976,-300 1979.03,-299.6 1982.14,-299.17 1985.28,-298.73"/>
<polygon fill="midnightblue" stroke="midnightblue" points="1634.74,-336.93 1625.18,-341.48 1635.49,-343.89 1634.74,-336.93"/>
</g>
<!-- Node139 -->
<g id="node32" class="node">
<title>Node139</title>
<g id="a_node32"><a xlink:href="_breaking_waves_8cpp.html" target="_top" xlink:title=" ">
<polygon fill="white" stroke="black" points="2104.5,-280.5 2104.5,-299.5 2217.5,-299.5 2217.5,-280.5 2104.5,-280.5"/>
<text text-anchor="middle" x="2161" y="-287.5" font-family="Helvetica,sans-Serif" font-size="10.00">BreakingWaves.cpp</text>
</a>
</g>
</g>
<!-- Node1&#45;&gt;Node139 -->
<g id="edge39" class="edge">
<title>Node1&#45;&gt;Node139</title>
<path fill="none" stroke="midnightblue" d="M1635.04,-341.83C1722.04,-335.26 1925.05,-319.18 2095,-300 2098.1,-299.65 2101.29,-299.27 2104.5,-298.88"/>
<polygon fill="midnightblue" stroke="midnightblue" points="1634.72,-338.34 1625.01,-342.58 1635.24,-345.32 1634.72,-338.34"/>
</g>
<!-- Node140 -->
<g id="node33" class="node">
<title>Node140</title>
<g id="a_node33"><a xlink:href="_scalar_advection_8_h.html" target="_top" xlink:title=" ">
<polygon fill="white" stroke="black" points="2236,-280.5 2236,-299.5 2342,-299.5 2342,-280.5 2236,-280.5"/>
<text text-anchor="middle" x="2289" y="-287.5" font-family="Helvetica,sans-Serif" font-size="10.00">ScalarAdvection.H</text>
</a>
</g>
</g>
<!-- Node1&#45;&gt;Node140 -->
<g id="edge40" class="edge">
<title>Node1&#45;&gt;Node140</title>
<path fill="none" stroke="midnightblue" d="M1635.36,-342.99C1738.13,-337.98 2004.52,-323.65 2226,-300 2229.19,-299.66 2232.46,-299.28 2235.76,-298.88"/>
<polygon fill="midnightblue" stroke="midnightblue" points="1634.89,-339.5 1625.07,-343.48 1635.23,-346.5 1634.89,-339.5"/>
</g>
<!-- Node74 -->
<g id="node35" class="node">
<title>Node74</title>
<g id="a_node35"><a xlink:href="_synthetic_turbulence_8cpp.html" target="_top" xlink:title=" ">
<polygon fill="white" stroke="black" points="2360.5,-280.5 2360.5,-299.5 2495.5,-299.5 2495.5,-280.5 2360.5,-280.5"/>
<text text-anchor="middle" x="2428" y="-287.5" font-family="Helvetica,sans-Serif" font-size="10.00">SyntheticTurbulence.cpp</text>
</a>
</g>
</g>
<!-- Node1&#45;&gt;Node74 -->
<g id="edge42" class="edge">
<title>Node1&#45;&gt;Node74</title>
<path fill="none" stroke="midnightblue" d="M1635.61,-343.29C1751.97,-338.53 2079.4,-323.9 2351,-300 2354.08,-299.73 2357.23,-299.43 2360.42,-299.12"/>
<polygon fill="midnightblue" stroke="midnightblue" points="1635.19,-339.8 1625.34,-343.7 1635.48,-346.8 1635.19,-339.8"/>
</g>
<!-- Node142 -->
<g id="node36" class="node">
<title>Node142</title>
<g id="a_node36"><a xlink:href="_taylor_green_vortex_8cpp.html" target="_top" xlink:title=" ">
<polygon fill="white" stroke="black" points="2513.5,-280.5 2513.5,-299.5 2640.5,-299.5 2640.5,-280.5 2513.5,-280.5"/>
<text text-anchor="middle" x="2577" y="-287.5" font-family="Helvetica,sans-Serif" font-size="10.00">TaylorGreenVortex.cpp</text>
</a>
</g>
</g>
<!-- Node1&#45;&gt;Node142 -->
<g id="edge43" class="edge">
<title>Node1&#45;&gt;Node142</title>
<path fill="none" stroke="midnightblue" d="M1635.22,-343.99C1766.22,-340.7 2170.31,-328.76 2504,-300 2507.05,-299.74 2510.18,-299.44 2513.33,-299.13"/>
<polygon fill="midnightblue" stroke="midnightblue" points="1635.1,-340.5 1625.19,-344.24 1635.27,-347.49 1635.1,-340.5"/>
</g>
<!-- Node143 -->
<g id="node37" class="node">
<title>Node143</title>
<g id="a_node37"><a xlink:href="_vortex_dipole_8cpp.html" target="_top" xlink:title=" ">
<polygon fill="white" stroke="black" points="2659,-280.5 2659,-299.5 2759,-299.5 2759,-280.5 2659,-280.5"/>
<text text-anchor="middle" x="2709" y="-287.5" font-family="Helvetica,sans-Serif" font-size="10.00">VortexDipole.cpp</text>
</a>
</g>
</g>
<!-- Node1&#45;&gt;Node143 -->
<g id="edge44" class="edge">
<title>Node1&#45;&gt;Node143</title>
<path fill="none" stroke="midnightblue" d="M1635.64,-344.8C1780.28,-343.79 2257.03,-337.63 2649,-300 2652.25,-299.69 2655.59,-299.32 2658.96,-298.91"/>
<polygon fill="midnightblue" stroke="midnightblue" points="1635.39,-341.3 1625.41,-344.87 1635.43,-348.3 1635.39,-341.3"/>
</g>
<!-- Node144 -->
<g id="node38" class="node">
<title>Node144</title>
<g id="a_node38"><a xlink:href="_vortex_ring_8cpp.html" target="_top" xlink:title=" ">
<polygon fill="white" stroke="black" points="2777,-280.5 2777,-299.5 2867,-299.5 2867,-280.5 2777,-280.5"/>
<text text-anchor="middle" x="2822" y="-287.5" font-family="Helvetica,sans-Serif" font-size="10.00">VortexRing.cpp</text>
</a>
</g>
</g>
<!-- Node1&#45;&gt;Node144 -->
<g id="edge45" class="edge">
<title>Node1&#45;&gt;Node144</title>
<path fill="none" stroke="midnightblue" d="M1635.35,-345.32C1789.77,-346.05 2327.39,-344.96 2768,-300 2770.93,-299.7 2773.94,-299.34 2776.98,-298.94"/>
<polygon fill="midnightblue" stroke="midnightblue" points="1635.33,-341.82 1625.31,-345.27 1635.3,-348.82 1635.33,-341.82"/>
</g>
<!-- Node80 -->
<g id="node39" class="node">
<title>Node80</title>
<g id="a_node39"><a xlink:href="_radar_sampler_8cpp.html" target="_top" xlink:title=" ">
<polygon fill="white" stroke="black" points="2885.5,-280.5 2885.5,-299.5 2990.5,-299.5 2990.5,-280.5 2885.5,-280.5"/>
<text text-anchor="middle" x="2938" y="-287.5" font-family="Helvetica,sans-Serif" font-size="10.00">RadarSampler.cpp</text>
</a>
</g>
</g>
<!-- Node1&#45;&gt;Node80 -->
<g id="edge46" class="edge">
<title>Node1&#45;&gt;Node80</title>
<path fill="none" stroke="midnightblue" d="M1635.44,-345.19C1798.66,-345.56 2390.69,-343.6 2876,-300 2879.03,-299.73 2882.14,-299.41 2885.28,-299.05"/>
<polygon fill="midnightblue" stroke="midnightblue" points="1635.32,-341.69 1625.31,-345.17 1635.3,-348.69 1635.32,-341.69"/>
</g>
<!-- Node145 -->
<g id="node40" class="node">
<title>Node145</title>
<g id="a_node40"><a xlink:href="_a_b_l_field_init_8cpp.html" target="_top" xlink:title=" ">
<polygon fill="white" stroke="black" points="3008.5,-280.5 3008.5,-299.5 3103.5,-299.5 3103.5,-280.5 3008.5,-280.5"/>
<text text-anchor="middle" x="3056" y="-287.5" font-family="Helvetica,sans-Serif" font-size="10.00">ABLFieldInit.cpp</text>
</a>
</g>
</g>
<!-- Node1&#45;&gt;Node145 -->
<g id="edge47" class="edge">
<title>Node1&#45;&gt;Node145</title>
<path fill="none" stroke="midnightblue" d="M1635.26,-344.34C1841.31,-341.11 2724.57,-325.95 2999,-300 3002.09,-299.71 3005.27,-299.35 3008.47,-298.96"/>
<polygon fill="midnightblue" stroke="midnightblue" points="1635.08,-340.85 1625.13,-344.5 1635.19,-347.85 1635.08,-340.85"/>
</g>
<!-- Node146 -->
<g id="node41" class="node">
<title>Node146</title>
<g id="a_node41"><a xlink:href="_a_b_l_field_init_file_8cpp.html" target="_top" xlink:title=" ">
<polygon fill="white" stroke="black" points="3122,-280.5 3122,-299.5 3234,-299.5 3234,-280.5 3122,-280.5"/>
<text text-anchor="middle" x="3178" y="-287.5" font-family="Helvetica,sans-Serif" font-size="10.00">ABLFieldInitFile.cpp</text>
</a>
</g>
</g>
<!-- Node1&#45;&gt;Node146 -->
<g id="edge48" class="edge">
<title>Node1&#45;&gt;Node146</title>
<path fill="none" stroke="midnightblue" d="M1635.41,-345.39C1816.45,-346.69 2529,-348.24 3112,-300 3115.23,-299.73 3118.54,-299.42 3121.88,-299.07"/>
<polygon fill="midnightblue" stroke="midnightblue" points="1635.26,-341.89 1625.23,-345.32 1635.21,-348.89 1635.26,-341.89"/>
</g>
<!-- Node43 -->
<g id="node42" class="node">
<title>Node43</title>
<g id="a_node42"><a xlink:href="_joukowsky__ops_8_h.html" target="_top" xlink:title=" ">
<polygon fill="white" stroke="black" points="3252.5,-280.5 3252.5,-299.5 3353.5,-299.5 3353.5,-280.5 3252.5,-280.5"/>
<text text-anchor="middle" x="3303" y="-287.5" font-family="Helvetica,sans-Serif" font-size="10.00">Joukowsky_ops.H</text>
</a>
</g>
</g>
<!-- Node1&#45;&gt;Node43 -->
<g id="edge51" class="edge">
<title>Node1&#45;&gt;Node43</title>
<path fill="none" stroke="midnightblue" d="M1635.23,-344.53C1862.12,-341.98 2917.38,-328.75 3243,-300 3246.04,-299.73 3249.17,-299.41 3252.31,-299.05"/>
<polygon fill="midnightblue" stroke="midnightblue" points="1635.02,-341.04 1625.06,-344.65 1635.09,-348.04 1635.02,-341.04"/>
</g>
<!-- Node44 -->
<g id="node45" class="node">
<title>Node44</title>
<g id="a_node45"><a xlink:href="uniform__ct__ops_8_h.html" target="_top" xlink:title=" ">
<polygon fill="white" stroke="black" points="3372,-280.5 3372,-299.5 3474,-299.5 3474,-280.5 3372,-280.5"/>
<text text-anchor="middle" x="3423" y="-287.5" font-family="Helvetica,sans-Serif" font-size="10.00">uniform_ct_ops.H</text>
</a>
</g>
</g>
<!-- Node1&#45;&gt;Node44 -->
<g id="edge54" class="edge">
<title>Node1&#45;&gt;Node44</title>
<path fill="none" stroke="midnightblue" d="M1635.3,-344.63C1872.06,-342.47 3012.2,-330.65 3363,-300 3365.94,-299.74 3368.95,-299.44 3371.99,-299.09"/>
<polygon fill="midnightblue" stroke="midnightblue" points="1634.99,-341.13 1625.03,-344.72 1635.06,-348.13 1634.99,-341.13"/>
</g>
<!-- Node147 -->
<g id="node47" class="node">
<title>Node147</title>
<g id="a_node47"><a xlink:href="_m_o_data_8_h.html" target="_top" xlink:title=" ">
<polygon fill="white" stroke="black" points="788.5,-168.5 788.5,-187.5 855.5,-187.5 855.5,-168.5 788.5,-168.5"/>
<text text-anchor="middle" x="822" y="-175.5" font-family="Helvetica,sans-Serif" font-size="10.00">MOData.H</text>
</a>
</g>
</g>
<!-- Node1&#45;&gt;Node147 -->
<g id="edge57" class="edge">
<title>Node1&#45;&gt;Node147</title>
<path fill="none" stroke="midnightblue" d="M1548.99,-344.43C1376.16,-341.93 740.16,-330.68 711,-300 671.53,-258.46 762.47,-207.56 803.37,-187.6"/>
<polygon fill="midnightblue" stroke="midnightblue" points="1548.94,-347.93 1558.99,-344.57 1549.04,-340.93 1548.94,-347.93"/>
</g>
<!-- Node4 -->
<g id="node4" class="node">
<title>Node4</title>
<g id="a_node4"><a xlink:href="tensor_8_h.html" target="_top" xlink:title=" ">
<polygon fill="white" stroke="black" points="406.5,-224.5 406.5,-243.5 463.5,-243.5 463.5,-224.5 406.5,-224.5"/>
<text text-anchor="middle" x="435" y="-231.5" font-family="Helvetica,sans-Serif" font-size="10.00">tensor.H</text>
</a>
</g>
</g>
<!-- Node3&#45;&gt;Node4 -->
<g id="edge3" class="edge">
<title>Node3&#45;&gt;Node4</title>
<path fill="none" stroke="midnightblue" d="M428.53,-270.1C427.9,-261.14 428.34,-250.86 429.87,-243.75"/>
<polygon fill="midnightblue" stroke="midnightblue" points="425.07,-270.62 429.83,-280.08 432.01,-269.71 425.07,-270.62"/>
</g>
<!-- Node4&#45;&gt;Node3 -->
<g id="edge4" class="edge">
<title>Node4&#45;&gt;Node3</title>
<path fill="none" stroke="midnightblue" d="M441.46,-253.69C442.11,-262.64 441.68,-272.93 440.17,-280.08"/>
<polygon fill="midnightblue" stroke="midnightblue" points="444.92,-253.2 440.13,-243.75 437.98,-254.13 444.92,-253.2"/>
</g>
<!-- Node5 -->
<g id="node5" class="node">
<title>Node5</title>
<g id="a_node5"><a xlink:href="vector__space_8_h.html" target="_top" xlink:title=" ">
<polygon fill="white" stroke="red" points="382,-168.5 382,-187.5 474,-187.5 474,-168.5 382,-168.5"/>
<text text-anchor="middle" x="428" y="-175.5" font-family="Helvetica,sans-Serif" font-size="10.00">vector_space.H</text>
</a>
</g>
</g>
<!-- Node4&#45;&gt;Node5 -->
<g id="edge5" class="edge">
<title>Node4&#45;&gt;Node5</title>
<path fill="none" stroke="midnightblue" d="M432.55,-214.1C431.39,-205.14 430.06,-194.86 429.13,-187.75"/>
<polygon fill="midnightblue" stroke="midnightblue" points="429.09,-214.62 433.84,-224.08 436.03,-213.72 429.09,-214.62"/>
</g>
<!-- Node5&#45;&gt;Node87 -->
<g id="edge6" class="edge">
<title>Node5&#45;&gt;Node87</title>
<path fill="none" stroke="midnightblue" d="M407.97,-162.38C394.59,-152.62 377.44,-140.11 366.11,-131.83"/>
<polygon fill="midnightblue" stroke="midnightblue" points="405.97,-165.26 416.11,-168.32 410.1,-159.6 405.97,-165.26"/>
</g>
<!-- Node88 -->
<g id="node7" class="node">
<title>Node88</title>
<g id="a_node7"><a xlink:href="_a_b_l_8_h.html" target="_top" xlink:title=" ">
<polygon fill="white" stroke="red" points="606,-56.5 606,-75.5 652,-75.5 652,-56.5 606,-56.5"/>
<text text-anchor="middle" x="629" y="-63.5" font-family="Helvetica,sans-Serif" font-size="10.00">ABL.H</text>
</a>
</g>
</g>
<!-- Node87&#45;&gt;Node88 -->
<g id="edge7" class="edge">
<title>Node87&#45;&gt;Node88</title>
<path fill="none" stroke="midnightblue" d="M407.65,-110.47C467.77,-98.66 562.51,-80.06 605.9,-71.54"/>
<polygon fill="midnightblue" stroke="midnightblue" points="406.71,-107.08 397.57,-112.44 408.06,-113.95 406.71,-107.08"/>
</g>
<!-- Node105 -->
<g id="node17" class="node">
<title>Node105</title>
<g id="a_node17"><a xlink:href="_a_b_l_fill_m_p_l_8_h.html" target="_top" xlink:title=" ">
<polygon fill="white" stroke="red" points="262,-56.5 262,-75.5 342,-75.5 342,-56.5 262,-56.5"/>
<text text-anchor="middle" x="302" y="-63.5" font-family="Helvetica,sans-Serif" font-size="10.00">ABLFillMPL.H</text>
</a>
</g>
</g>
<!-- Node87&#45;&gt;Node105 -->
<g id="edge17" class="edge">
<title>Node87&#45;&gt;Node105</title>
<path fill="none" stroke="midnightblue" d="M338.32,-104.72C329.16,-95.2 317.95,-83.56 310.43,-75.75"/>
<polygon fill="midnightblue" stroke="midnightblue" points="335.96,-107.31 345.41,-112.08 341,-102.45 335.96,-107.31"/>
</g>
<!-- Node107 -->
<g id="node18" class="node">
<title>Node107</title>
<g id="a_node18"><a xlink:href="_a_b_l_modulated_power_law_8cpp.html" target="_top" xlink:title=" ">
<polygon fill="white" stroke="black" points="0,-0.5 0,-19.5 156,-19.5 156,-0.5 0,-0.5"/>
<text text-anchor="middle" x="78" y="-7.5" font-family="Helvetica,sans-Serif" font-size="10.00">ABLModulatedPowerLaw.cpp</text>
</a>
</g>
</g>
<!-- Node87&#45;&gt;Node107 -->
<g id="edge19" class="edge">
<title>Node87&#45;&gt;Node107</title>
<path fill="none" stroke="midnightblue" d="M322.85,-108.59C266.31,-86.05 148.13,-38.95 99.56,-19.59"/>
<polygon fill="midnightblue" stroke="midnightblue" points="321.76,-111.92 332.34,-112.37 324.35,-105.41 321.76,-111.92"/>
</g>
<!-- Node89 -->
<g id="node8" class="node">
<title>Node89</title>
<g id="a_node8"><a xlink:href="_c_f_d_sim_8cpp.html" target="_top" xlink:title=" ">
<polygon fill="white" stroke="black" points="716,-0.5 716,-19.5 792,-19.5 792,-0.5 716,-0.5"/>
<text text-anchor="middle" x="754" y="-7.5" font-family="Helvetica,sans-Serif" font-size="10.00">CFDSim.cpp</text>
</a>
</g>
</g>
<!-- Node88&#45;&gt;Node89 -->
<g id="edge8" class="edge">
<title>Node88&#45;&gt;Node89</title>
<path fill="none" stroke="midnightblue" d="M658.24,-52.37C681.65,-42.26 713.84,-28.35 734.29,-19.52"/>
<polygon fill="midnightblue" stroke="midnightblue" points="656.6,-49.26 648.81,-56.44 659.37,-55.69 656.6,-49.26"/>
</g>
<!-- Node90 -->
<g id="node9" class="node">
<title>Node90</title>
<g id="a_node9"><a xlink:href="icns__advection_8cpp.html" target="_top" xlink:title=" ">
<polygon fill="white" stroke="black" points="810,-0.5 810,-19.5 920,-19.5 920,-0.5 810,-0.5"/>
<text text-anchor="middle" x="865" y="-7.5" font-family="Helvetica,sans-Serif" font-size="10.00">icns_advection.cpp</text>
</a>
</g>
</g>
<!-- Node88&#45;&gt;Node90 -->
<g id="edge9" class="edge">
<title>Node88&#45;&gt;Node90</title>
<path fill="none" stroke="midnightblue" d="M662.14,-56.91C663.44,-56.6 664.73,-56.3 666,-56 721.69,-42.93 786.31,-28.44 826.44,-19.53"/>
<polygon fill="midnightblue" stroke="midnightblue" points="660.99,-53.59 652.08,-59.33 662.62,-60.4 660.99,-53.59"/>
</g>
<!-- Node88&#45;&gt;Node91 -->
<g id="edge10" class="edge">
<title>Node88&#45;&gt;Node91</title>
<path fill="none" stroke="midnightblue" d="M662.21,-56.7C663.49,-56.45 664.75,-56.22 666,-56 814.39,-30.14 853.73,-40.17 1003,-20 1006.07,-19.59 1009.23,-19.13 1012.41,-18.66"/>
<polygon fill="midnightblue" stroke="midnightblue" points="661.43,-53.29 652.39,-58.82 662.9,-60.13 661.43,-53.29"/>
</g>
<!-- Node92 -->
<g id="node11" class="node">
<title>Node92</title>
<g id="a_node11"><a xlink:href="_a_b_l_mean_boussinesq_8cpp.html" target="_top" xlink:title=" ">
<polygon fill="white" stroke="black" points="560,-0.5 560,-19.5 698,-19.5 698,-0.5 560,-0.5"/>
<text text-anchor="middle" x="629" y="-7.5" font-family="Helvetica,sans-Serif" font-size="10.00">ABLMeanBoussinesq.cpp</text>
</a>
</g>
</g>
<!-- Node88&#45;&gt;Node92 -->
<g id="edge11" class="edge">
<title>Node88&#45;&gt;Node92</title>
<path fill="none" stroke="midnightblue" d="M629,-45.8C629,-36.91 629,-26.78 629,-19.75"/>
<polygon fill="midnightblue" stroke="midnightblue" points="625.5,-46.08 629,-56.08 632.5,-46.08 625.5,-46.08"/>
</g>
<!-- Node88&#45;&gt;Node94 -->
<g id="edge12" class="edge">
<title>Node88&#45;&gt;Node94</title>
<path fill="none" stroke="midnightblue" d="M595.81,-60.46C529.14,-51.35 378.1,-30.7 293.78,-19.17"/>
<polygon fill="midnightblue" stroke="midnightblue" points="595.38,-63.94 605.77,-61.82 596.33,-57 595.38,-63.94"/>
</g>
<!-- Node88&#45;&gt;Node96 -->
<g id="edge13" class="edge">
<title>Node88&#45;&gt;Node96</title>
<path fill="none" stroke="midnightblue" d="M595.77,-57.65C550.85,-47.7 470.89,-30.01 423.43,-19.5"/>
<polygon fill="midnightblue" stroke="midnightblue" points="595.08,-61.08 605.6,-59.82 596.6,-54.24 595.08,-61.08"/>
</g>
<!-- Node88&#45;&gt;Node97 -->
<g id="edge14" class="edge">
<title>Node88&#45;&gt;Node97</title>
<path fill="none" stroke="midnightblue" d="M600.63,-52.23C578.18,-42.13 547.46,-28.31 527.93,-19.52"/>
<polygon fill="midnightblue" stroke="midnightblue" points="599.43,-55.53 609.99,-56.44 602.3,-49.15 599.43,-55.53"/>
</g>
<!-- Node102 -->
<g id="node15" class="node">
<title>Node102</title>
<g id="a_node15"><a xlink:href="_a_b_l_8cpp.html" target="_top" xlink:title=" ">
<polygon fill="white" stroke="black" points="938,-0.5 938,-19.5 994,-19.5 994,-0.5 938,-0.5"/>
<text text-anchor="middle" x="966" y="-7.5" font-family="Helvetica,sans-Serif" font-size="10.00">ABL.cpp</text>
</a>
</g>
</g>
<!-- Node88&#45;&gt;Node102 -->
<g id="edge15" class="edge">
<title>Node88&#45;&gt;Node102</title>
<path fill="none" stroke="midnightblue" d="M662.11,-56.77C663.42,-56.5 664.72,-56.24 666,-56 781.91,-34.03 813.09,-41.97 929,-20 931.86,-19.46 934.83,-18.84 937.78,-18.18"/>
<polygon fill="midnightblue" stroke="midnightblue" points="661.02,-53.43 652.01,-59.02 662.53,-60.26 661.02,-53.43"/>
</g>
<!-- Node88&#45;&gt;Node104 -->
<g id="edge16" class="edge">
<title>Node88&#45;&gt;Node104</title>
<path fill="none" stroke="midnightblue" d="M662.08,-63.08C750.99,-57.76 1002.52,-41.84 1211,-20 1214.08,-19.68 1217.23,-19.33 1220.42,-18.96"/>
<polygon fill="midnightblue" stroke="midnightblue" points="661.83,-59.58 652.05,-63.67 662.24,-66.57 661.83,-59.58"/>
</g>
<!-- Node105&#45;&gt;Node107 -->
<g id="edge18" class="edge">
<title>Node105&#45;&gt;Node107</title>
<path fill="none" stroke="midnightblue" d="M256.74,-54.09C214.42,-43.89 152.09,-28.86 113.33,-19.52"/>
<polygon fill="midnightblue" stroke="midnightblue" points="255.96,-57.5 266.51,-56.44 257.61,-50.7 255.96,-57.5"/>
</g>
<!-- Node126&#45;&gt;Node91 -->
<g id="edge22" class="edge">
<title>Node126&#45;&gt;Node91</title>
<path fill="none" stroke="midnightblue" d="M1026.11,-48.43C1034.18,-38.97 1043.96,-27.48 1050.55,-19.75"/>
<polygon fill="midnightblue" stroke="midnightblue" points="1023.42,-46.2 1019.6,-56.08 1028.75,-50.74 1023.42,-46.2"/>
</g>
<!-- Node126&#45;&gt;Node102 -->
<g id="edge23" class="edge">
<title>Node126&#45;&gt;Node102</title>
<path fill="none" stroke="midnightblue" d="M997.89,-48.43C989.82,-38.97 980.04,-27.48 973.45,-19.75"/>
<polygon fill="midnightblue" stroke="midnightblue" points="995.25,-50.74 1004.4,-56.08 1000.58,-46.2 995.25,-50.74"/>
</g>
<!-- Node127 -->
<g id="node20" class="node">
<title>Node127</title>
<g id="a_node20"><a xlink:href="_a_b_l_stats_8cpp.html" target="_top" xlink:title=" ">
<polygon fill="white" stroke="black" points="1122,-0.5 1122,-19.5 1202,-19.5 1202,-0.5 1122,-0.5"/>
<text text-anchor="middle" x="1162" y="-7.5" font-family="Helvetica,sans-Serif" font-size="10.00">ABLStats.cpp</text>
</a>
</g>
</g>
<!-- Node126&#45;&gt;Node127 -->
<g id="edge24" class="edge">
<title>Node126&#45;&gt;Node127</title>
<path fill="none" stroke="midnightblue" d="M1045.22,-53.04C1073.45,-42.88 1113.26,-28.55 1138.34,-19.52"/>
<polygon fill="midnightblue" stroke="midnightblue" points="1043.99,-49.76 1035.77,-56.44 1046.36,-56.35 1043.99,-49.76"/>
</g>
<!-- Node141 -->
<g id="node34" class="node">
<title>Node141</title>
<g id="a_node34"><a xlink:href="_scalar_advection_8cpp.html" target="_top" xlink:title=" ">
<polygon fill="white" stroke="black" points="2231,-224.5 2231,-243.5 2347,-243.5 2347,-224.5 2231,-224.5"/>
<text text-anchor="middle" x="2289" y="-231.5" font-family="Helvetica,sans-Serif" font-size="10.00">ScalarAdvection.cpp</text>
</a>
</g>
</g>
<!-- Node140&#45;&gt;Node141 -->
<g id="edge41" class="edge">
<title>Node140&#45;&gt;Node141</title>
<path fill="none" stroke="midnightblue" d="M2289,-269.8C2289,-260.91 2289,-250.78 2289,-243.75"/>
<polygon fill="midnightblue" stroke="midnightblue" points="2285.5,-270.08 2289,-280.08 2292.5,-270.08 2285.5,-270.08"/>
</g>
<!-- Node35 -->
<g id="node43" class="node">
<title>Node35</title>
<g id="a_node43"><a xlink:href="_actuator_disk_8cpp.html" target="_top" xlink:title=" ">
<polygon fill="white" stroke="black" points="3251,-224.5 3251,-243.5 3351,-243.5 3351,-224.5 3251,-224.5"/>
<text text-anchor="middle" x="3301" y="-231.5" font-family="Helvetica,sans-Serif" font-size="10.00">ActuatorDisk.cpp</text>
</a>
</g>
</g>
<!-- Node43&#45;&gt;Node35 -->
<g id="edge52" class="edge">
<title>Node43&#45;&gt;Node35</title>
<path fill="none" stroke="midnightblue" d="M3302.29,-269.8C3301.96,-260.91 3301.58,-250.78 3301.32,-243.75"/>
<polygon fill="midnightblue" stroke="midnightblue" points="3298.8,-270.22 3302.67,-280.08 3305.8,-269.96 3298.8,-270.22"/>
</g>
<!-- Node42 -->
<g id="node44" class="node">
<title>Node42</title>
<g id="a_node44"><a xlink:href="_joukowsky__ops_8cpp.html" target="_top" xlink:title=" ">
<polygon fill="white" stroke="black" points="3123,-224.5 3123,-243.5 3233,-243.5 3233,-224.5 3123,-224.5"/>
<text text-anchor="middle" x="3178" y="-231.5" font-family="Helvetica,sans-Serif" font-size="10.00">Joukowsky_ops.cpp</text>
</a>
</g>
</g>
<!-- Node43&#45;&gt;Node42 -->
<g id="edge53" class="edge">
<title>Node43&#45;&gt;Node42</title>
<path fill="none" stroke="midnightblue" d="M3273.76,-276.37C3250.35,-266.26 3218.16,-252.35 3197.71,-243.52"/>
<polygon fill="midnightblue" stroke="midnightblue" points="3272.63,-279.69 3283.19,-280.44 3275.4,-273.26 3272.63,-279.69"/>
</g>
<!-- Node44&#45;&gt;Node35 -->
<g id="edge55" class="edge">
<title>Node44&#45;&gt;Node35</title>
<path fill="none" stroke="midnightblue" d="M3394.46,-276.37C3371.61,-266.26 3340.19,-252.35 3320.24,-243.52"/>
<polygon fill="midnightblue" stroke="midnightblue" points="3393.11,-279.6 3403.67,-280.44 3395.94,-273.2 3393.11,-279.6"/>
</g>
<!-- Node45 -->
<g id="node46" class="node">
<title>Node45</title>
<g id="a_node46"><a xlink:href="uniform__ct__ops_8cpp.html" target="_top" xlink:title=" ">
<polygon fill="white" stroke="black" points="3369,-224.5 3369,-243.5 3481,-243.5 3481,-224.5 3369,-224.5"/>
<text text-anchor="middle" x="3425" y="-231.5" font-family="Helvetica,sans-Serif" font-size="10.00">uniform_ct_ops.cpp</text>
</a>
</g>
</g>
<!-- Node44&#45;&gt;Node45 -->
<g id="edge56" class="edge">
<title>Node44&#45;&gt;Node45</title>
<path fill="none" stroke="midnightblue" d="M3423.71,-269.8C3424.04,-260.91 3424.42,-250.78 3424.68,-243.75"/>
<polygon fill="midnightblue" stroke="midnightblue" points="3420.2,-269.96 3423.33,-280.08 3427.2,-270.22 3420.2,-269.96"/>
</g>
<!-- Node148 -->
<g id="node48" class="node">
<title>Node148</title>
<g id="a_node48"><a xlink:href="_a_b_l_wall_function_8_h.html" target="_top" xlink:title=" ">
<polygon fill="white" stroke="red" points="823.5,-112.5 823.5,-131.5 930.5,-131.5 930.5,-112.5 823.5,-112.5"/>
<text text-anchor="middle" x="877" y="-119.5" font-family="Helvetica,sans-Serif" font-size="10.00">ABLWallFunction.H</text>
</a>
</g>
</g>
<!-- Node147&#45;&gt;Node148 -->
<g id="edge58" class="edge">
<title>Node147&#45;&gt;Node148</title>
<path fill="none" stroke="midnightblue" d="M838.29,-161C848.04,-151.43 860.05,-139.64 868.09,-131.75"/>
<polygon fill="midnightblue" stroke="midnightblue" points="835.77,-158.58 831.08,-168.08 840.67,-163.57 835.77,-158.58"/>
</g>
<!-- Node152 -->
<g id="node49" class="node">
<title>Node152</title>
<g id="a_node49"><a xlink:href="_m_o_data_8cpp.html" target="_top" xlink:title=" ">
<polygon fill="white" stroke="black" points="728.5,-112.5 728.5,-131.5 805.5,-131.5 805.5,-112.5 728.5,-112.5"/>
<text text-anchor="middle" x="767" y="-119.5" font-family="Helvetica,sans-Serif" font-size="10.00">MOData.cpp</text>
</a>
</g>
</g>
<!-- Node147&#45;&gt;Node152 -->
<g id="edge61" class="edge">
<title>Node147&#45;&gt;Node152</title>
<path fill="none" stroke="midnightblue" d="M805.71,-161C795.96,-151.43 783.95,-139.64 775.91,-131.75"/>
<polygon fill="midnightblue" stroke="midnightblue" points="803.33,-163.57 812.92,-168.08 808.23,-158.58 803.33,-163.57"/>
</g>
<!-- Node153 -->
<g id="node50" class="node">
<title>Node153</title>
<g id="a_node50"><a xlink:href="_shear_stress_8_h.html" target="_top" xlink:title=" ">
<polygon fill="white" stroke="red" points="1190.5,-56.5 1190.5,-75.5 1275.5,-75.5 1275.5,-56.5 1190.5,-56.5"/>
<text text-anchor="middle" x="1233" y="-63.5" font-family="Helvetica,sans-Serif" font-size="10.00">ShearStress.H</text>
</a>
</g>
</g>
<!-- Node147&#45;&gt;Node153 -->
<g id="edge62" class="edge">
<title>Node147&#45;&gt;Node153</title>
<path fill="none" stroke="midnightblue" d="M863.67,-165.85C945.91,-143.84 1127.53,-95.23 1201.11,-75.53"/>
<polygon fill="midnightblue" stroke="midnightblue" points="862.66,-162.49 853.91,-168.46 864.47,-169.26 862.66,-162.49"/>
</g>
<!-- Node148&#45;&gt;Node88 -->
<g id="edge59" class="edge">
<title>Node148&#45;&gt;Node88</title>
<path fill="none" stroke="midnightblue" d="M827.8,-110.29C774.57,-98.7 691.99,-80.72 652.11,-72.03"/>
<polygon fill="midnightblue" stroke="midnightblue" points="827.19,-113.74 837.7,-112.44 828.68,-106.9 827.19,-113.74"/>
</g>
<!-- Node148&#45;&gt;Node104 -->
<g id="edge60" class="edge">
<title>Node148&#45;&gt;Node104</title>
<path fill="none" stroke="midnightblue" d="M924.21,-110.14C961.48,-101.4 1014.73,-88.55 1061,-76 1130.18,-57.24 1210.85,-32.41 1251.94,-19.54"/>
<polygon fill="midnightblue" stroke="midnightblue" points="923.09,-106.81 914.14,-112.49 924.68,-113.62 923.09,-106.81"/>
</g>
<!-- Node153&#45;&gt;Node104 -->
<g id="edge63" class="edge">
<title>Node153&#45;&gt;Node104</title>
<path fill="none" stroke="midnightblue" d="M1247.11,-48.43C1255.18,-38.97 1264.96,-27.48 1271.55,-19.75"/>
<polygon fill="midnightblue" stroke="midnightblue" points="1244.42,-46.2 1240.6,-56.08 1249.75,-50.74 1244.42,-46.2"/>
</g>
</g>
</svg>
        <g id="navigator" transform="translate(0 0)" fill="#404254">
                <rect fill="#f2f5e9" fill-opacity="0.5" stroke="#606060" stroke-width=".5" x="0" y="0" width="60" height="60"/>
                <use id="zoomplus" xlink:href="#zoomPlus" x="17" y="9" onmousedown="handleZoom(evt,'in')"/>
                <use id="zoomminus" xlink:href="#zoomMin" x="42" y="9" onmousedown="handleZoom(evt,'out')"/>
                <use id="reset" xlink:href="#resetDef" x="30" y="36" onmousedown="handleReset()"/>
                <g id="arrowUp" xlink:href="#dirArrow" transform="translate(30 24)" onmousedown="handlePan(0,-1)">
                  <use xlink:href="#rim" fill="#404040">
                        <set attributeName="fill" to="#808080" begin="arrowUp.mouseover" end="arrowUp.mouseout"/>
                  </use>
                  <path fill="none" stroke="white" stroke-width="1.5" d="M0,-3.0v7 M-2.5,-0.5L0,-3.0L2.5,-0.5"/>
                </g>
                <g id="arrowRight" xlink:href="#dirArrow" transform="rotate(90) translate(36 -43)" onmousedown="handlePan(1,0)">
                  <use xlink:href="#rim" fill="#404040">
                        <set attributeName="fill" to="#808080" begin="arrowRight.mouseover" end="arrowRight.mouseout"/>
                  </use>
                  <path fill="none" stroke="white" stroke-width="1.5" d="M0,-3.0v7 M-2.5,-0.5L0,-3.0L2.5,-0.5"/>
                </g>
                <g id="arrowDown" xlink:href="#dirArrow" transform="rotate(180) translate(-30 -48)" onmousedown="handlePan(0,1)">
                  <use xlink:href="#rim" fill="#404040">
                        <set attributeName="fill" to="#808080" begin="arrowDown.mouseover" end="arrowDown.mouseout"/>
                  </use>
                  <path fill="none" stroke="white" stroke-width="1.5" d="M0,-3.0v7 M-2.5,-0.5L0,-3.0L2.5,-0.5"/>
                </g>
                <g id="arrowLeft" xlink:href="#dirArrow" transform="rotate(270) translate(-36 17)" onmousedown="handlePan(-1,0)">
                  <use xlink:href="#rim" fill="#404040">
                        <set attributeName="fill" to="#808080" begin="arrowLeft.mouseover" end="arrowLeft.mouseout"/>
                  </use>
                  <path fill="none" stroke="white" stroke-width="1.5" d="M0,-3.0v7 M-2.5,-0.5L0,-3.0L2.5,-0.5"/>
                </g>
        </g>
        <svg viewBox="0 0 15 15" width="100%" height="30px" preserveAspectRatio="xMaxYMin meet">
         <g id="arrow_out" transform="scale(0.3 0.3)">
          <a xlink:href="trig__ops_8_h__dep__incl_org.svg" target="_base">
           <rect id="button" ry="5" rx="5" y="6" x="6" height="38" width="38"
                fill="#f2f5e9" fill-opacity="0.5" stroke="#606060" stroke-width="1.0"/>
           <path id="arrow"
             d="M 11.500037,31.436501 C 11.940474,20.09759 22.043105,11.32322 32.158766,21.979434 L 37.068811,17.246167 C 37.068811,17.246167 37.088388,32 37.088388,32 L 22.160133,31.978069 C 22.160133,31.978069 26.997745,27.140456 26.997745,27.140456 C 18.528582,18.264221 13.291696,25.230495 11.500037,31.436501 z"
             style="fill:#404040;"/>
          </a>
         </g>
        </svg>
</svg>
