<?xml version="1.0" encoding="UTF-8" standalone="no"?>
<!DOCTYPE svg PUBLIC "-//W3C//DTD SVG 1.1//EN"
 "http://www.w3.org/Graphics/SVG/1.1/DTD/svg11.dtd">
<!-- Generated by graphviz version 2.43.0 (0)
 -->
<!-- Title: vector_space.H Pages: 1 -->
<svg width="2676pt" height="308pt"
 viewBox="0.00 0.00 2675.50 308.00" xmlns="http://www.w3.org/2000/svg" xmlns:xlink="http://www.w3.org/1999/xlink">
<g id="graph0" class="graph" transform="scale(1 1) rotate(0) translate(4 304)">
<title>vector_space.H</title>
<polygon fill="white" stroke="transparent" points="-4,4 -4,-304 2671.5,-304 2671.5,4 -4,4"/>
<!-- Node1 -->
<g id="node1" class="node">
<title>Node1</title>
<g id="a_node1"><a xlink:title=" ">
<polygon fill="#bfbfbf" stroke="black" points="1667.5,-280.5 1667.5,-299.5 1759.5,-299.5 1759.5,-280.5 1667.5,-280.5"/>
<text text-anchor="middle" x="1713.5" y="-287.5" font-family="Helvetica,sans-Serif" font-size="10.00">vector_space.H</text>
</a>
</g>
</g>
<!-- Node2 -->
<g id="node2" class="node">
<title>Node2</title>
<g id="a_node2"><a xlink:href="_multi_parser_8_h.html" target="_top" xlink:title=" ">
<polygon fill="white" stroke="black" points="498,-168.5 498,-187.5 579,-187.5 579,-168.5 498,-168.5"/>
<text text-anchor="middle" x="538.5" y="-175.5" font-family="Helvetica,sans-Serif" font-size="10.00">MultiParser.H</text>
</a>
</g>
</g>
<!-- Node1&#45;&gt;Node2 -->
<g id="edge1" class="edge">
<title>Node1&#45;&gt;Node2</title>
<path fill="none" stroke="midnightblue" d="M1657.17,-288.55C1522.47,-286.92 1171.25,-279.32 880.5,-244 768.01,-230.33 636.84,-201.82 574.69,-187.54"/>
<polygon fill="midnightblue" stroke="midnightblue" points="1657.22,-292.05 1667.26,-288.67 1657.3,-285.05 1657.22,-292.05"/>
</g>
<!-- Node55 -->
<g id="node14" class="node">
<title>Node55</title>
<g id="a_node14"><a xlink:href="_bluff_body_8_h.html" target="_top" xlink:title=" ">
<polygon fill="white" stroke="black" points="155,-168.5 155,-187.5 228,-187.5 228,-168.5 155,-168.5"/>
<text text-anchor="middle" x="191.5" y="-175.5" font-family="Helvetica,sans-Serif" font-size="10.00">BluffBody.H</text>
</a>
</g>
</g>
<!-- Node1&#45;&gt;Node55 -->
<g id="edge17" class="edge">
<title>Node1&#45;&gt;Node55</title>
<path fill="none" stroke="midnightblue" d="M1656.93,-289.05C1408.43,-289.05 420.19,-286.33 288.5,-244 252.02,-232.28 216.54,-202.43 200.46,-187.62"/>
<polygon fill="midnightblue" stroke="midnightblue" points="1657.17,-292.55 1667.17,-289.05 1657.17,-285.55 1657.17,-292.55"/>
</g>
<!-- Node59 -->
<g id="node18" class="node">
<title>Node59</title>
<g id="a_node18"><a xlink:href="_i_b_types_8_h.html" target="_top" xlink:title=" ">
<polygon fill="white" stroke="black" points="298,-224.5 298,-243.5 363,-243.5 363,-224.5 298,-224.5"/>
<text text-anchor="middle" x="330.5" y="-231.5" font-family="Helvetica,sans-Serif" font-size="10.00">IBTypes.H</text>
</a>
</g>
</g>
<!-- Node1&#45;&gt;Node59 -->
<g id="edge22" class="edge">
<title>Node1&#45;&gt;Node59</title>
<path fill="none" stroke="midnightblue" d="M1657.24,-286.8C1425.01,-277.74 544.66,-243.36 363.3,-236.28"/>
<polygon fill="midnightblue" stroke="midnightblue" points="1657.36,-290.31 1667.49,-287.2 1657.63,-283.32 1657.36,-290.31"/>
</g>
<!-- Node61 -->
<g id="node20" class="node">
<title>Node61</title>
<g id="a_node20"><a xlink:href="_ocean_waves_types_8_h.html" target="_top" xlink:title=" ">
<polygon fill="white" stroke="black" points="889.5,-224.5 889.5,-243.5 1007.5,-243.5 1007.5,-224.5 889.5,-224.5"/>
<text text-anchor="middle" x="948.5" y="-231.5" font-family="Helvetica,sans-Serif" font-size="10.00">OceanWavesTypes.H</text>
</a>
</g>
</g>
<!-- Node1&#45;&gt;Node61 -->
<g id="edge29" class="edge">
<title>Node1&#45;&gt;Node61</title>
<path fill="none" stroke="midnightblue" d="M1657.25,-285.03C1516.74,-275.11 1151.42,-249.32 1007.76,-239.18"/>
<polygon fill="midnightblue" stroke="midnightblue" points="1657.15,-288.53 1667.37,-285.74 1657.64,-281.55 1657.15,-288.53"/>
</g>
<!-- Node63 -->
<g id="node22" class="node">
<title>Node63</title>
<g id="a_node22"><a xlink:href="_relaxation_zones_8_h.html" target="_top" xlink:title=" ">
<polygon fill="white" stroke="black" points="1061.5,-168.5 1061.5,-187.5 1171.5,-187.5 1171.5,-168.5 1061.5,-168.5"/>
<text text-anchor="middle" x="1116.5" y="-175.5" font-family="Helvetica,sans-Serif" font-size="10.00">RelaxationZones.H</text>
</a>
</g>
</g>
<!-- Node1&#45;&gt;Node63 -->
<g id="edge41" class="edge">
<title>Node1&#45;&gt;Node63</title>
<path fill="none" stroke="midnightblue" d="M1657.45,-286.21C1580.03,-281.55 1436.36,-269.99 1316.5,-244 1249.96,-229.57 1174.22,-201.67 1138,-187.58"/>
<polygon fill="midnightblue" stroke="midnightblue" points="1657.28,-289.7 1667.46,-286.79 1657.69,-282.72 1657.28,-289.7"/>
</g>
<!-- Node68 -->
<g id="node27" class="node">
<title>Node68</title>
<g id="a_node27"><a xlink:href="_synthetic_turbulence_8_h.html" target="_top" xlink:title=" ">
<polygon fill="white" stroke="black" points="1520,-224.5 1520,-243.5 1645,-243.5 1645,-224.5 1520,-224.5"/>
<text text-anchor="middle" x="1582.5" y="-231.5" font-family="Helvetica,sans-Serif" font-size="10.00">SyntheticTurbulence.H</text>
</a>
</g>
</g>
<!-- Node1&#45;&gt;Node68 -->
<g id="edge42" class="edge">
<title>Node1&#45;&gt;Node68</title>
<path fill="none" stroke="midnightblue" d="M1683.18,-276.5C1658.62,-266.38 1624.68,-252.39 1603.16,-243.52"/>
<polygon fill="midnightblue" stroke="midnightblue" points="1682.16,-279.87 1692.74,-280.44 1684.83,-273.4 1682.16,-279.87"/>
</g>
<!-- Node70 -->
<g id="node29" class="node">
<title>Node70</title>
<g id="a_node29"><a xlink:href="_d_t_u_spinner_sampler_8_h.html" target="_top" xlink:title=" ">
<polygon fill="white" stroke="black" points="1768,-168.5 1768,-187.5 1893,-187.5 1893,-168.5 1768,-168.5"/>
<text text-anchor="middle" x="1830.5" y="-175.5" font-family="Helvetica,sans-Serif" font-size="10.00">DTUSpinnerSampler.H</text>
</a>
</g>
</g>
<!-- Node1&#45;&gt;Node70 -->
<g id="edge44" class="edge">
<title>Node1&#45;&gt;Node70</title>
<path fill="none" stroke="midnightblue" d="M1732.66,-273.86C1743.18,-265.35 1756.32,-254.37 1767.5,-244 1788.24,-224.76 1810.96,-200.44 1822.62,-187.7"/>
<polygon fill="midnightblue" stroke="midnightblue" points="1730.16,-271.38 1724.55,-280.36 1734.54,-276.84 1730.16,-271.38"/>
</g>
<!-- Node72 -->
<g id="node31" class="node">
<title>Node72</title>
<g id="a_node31"><a xlink:href="_lidar_sampler_8_h.html" target="_top" xlink:title=" ">
<polygon fill="white" stroke="black" points="1668,-224.5 1668,-243.5 1759,-243.5 1759,-224.5 1668,-224.5"/>
<text text-anchor="middle" x="1713.5" y="-231.5" font-family="Helvetica,sans-Serif" font-size="10.00">LidarSampler.H</text>
</a>
</g>
</g>
<!-- Node1&#45;&gt;Node72 -->
<g id="edge46" class="edge">
<title>Node1&#45;&gt;Node72</title>
<path fill="none" stroke="midnightblue" d="M1713.5,-269.8C1713.5,-260.91 1713.5,-250.78 1713.5,-243.75"/>
<polygon fill="midnightblue" stroke="midnightblue" points="1710,-270.08 1713.5,-280.08 1717,-270.08 1710,-270.08"/>
</g>
<!-- Node74 -->
<g id="node33" class="node">
<title>Node74</title>
<g id="a_node33"><a xlink:href="_radar_sampler_8_h.html" target="_top" xlink:title=" ">
<polygon fill="white" stroke="black" points="2034,-168.5 2034,-187.5 2129,-187.5 2129,-168.5 2034,-168.5"/>
<text text-anchor="middle" x="2081.5" y="-175.5" font-family="Helvetica,sans-Serif" font-size="10.00">RadarSampler.H</text>
</a>
</g>
</g>
<!-- Node1&#45;&gt;Node74 -->
<g id="edge49" class="edge">
<title>Node1&#45;&gt;Node74</title>
<path fill="none" stroke="midnightblue" d="M1769.79,-281.3C1815.64,-274.17 1881.68,-261.95 1937.5,-244 1985.81,-228.47 2039.5,-201.44 2065.56,-187.64"/>
<polygon fill="midnightblue" stroke="midnightblue" points="1769.11,-277.86 1759.75,-282.83 1770.16,-284.78 1769.11,-277.86"/>
</g>
<!-- Node76 -->
<g id="node35" class="node">
<title>Node76</title>
<g id="a_node35"><a xlink:href="_sampling_utils_8_h.html" target="_top" xlink:title=" ">
<polygon fill="white" stroke="black" points="1834,-224.5 1834,-243.5 1929,-243.5 1929,-224.5 1834,-224.5"/>
<text text-anchor="middle" x="1881.5" y="-231.5" font-family="Helvetica,sans-Serif" font-size="10.00">SamplingUtils.H</text>
</a>
</g>
</g>
<!-- Node1&#45;&gt;Node76 -->
<g id="edge51" class="edge">
<title>Node1&#45;&gt;Node76</title>
<path fill="none" stroke="midnightblue" d="M1749.89,-277.3C1781.54,-267.13 1826.67,-252.62 1855,-243.52"/>
<polygon fill="midnightblue" stroke="midnightblue" points="1748.57,-274.05 1740.12,-280.44 1750.71,-280.72 1748.57,-274.05"/>
</g>
<!-- Node78 -->
<g id="node37" class="node">
<title>Node78</title>
<g id="a_node37"><a xlink:href="_box_refiner_8_h.html" target="_top" xlink:title=" ">
<polygon fill="white" stroke="black" points="2015.5,-224.5 2015.5,-243.5 2095.5,-243.5 2095.5,-224.5 2015.5,-224.5"/>
<text text-anchor="middle" x="2055.5" y="-231.5" font-family="Helvetica,sans-Serif" font-size="10.00">BoxRefiner.H</text>
</a>
</g>
</g>
<!-- Node1&#45;&gt;Node78 -->
<g id="edge55" class="edge">
<title>Node1&#45;&gt;Node78</title>
<path fill="none" stroke="midnightblue" d="M1769.9,-280.09C1839.1,-269.17 1954.68,-250.92 2015.42,-241.33"/>
<polygon fill="midnightblue" stroke="midnightblue" points="1768.96,-276.7 1759.62,-281.72 1770.05,-283.61 1768.96,-276.7"/>
</g>
<!-- Node80 -->
<g id="node39" class="node">
<title>Node80</title>
<g id="a_node39"><a xlink:href="_cylinder_refiner_8_h.html" target="_top" xlink:title=" ">
<polygon fill="white" stroke="black" points="2119,-224.5 2119,-243.5 2220,-243.5 2220,-224.5 2119,-224.5"/>
<text text-anchor="middle" x="2169.5" y="-231.5" font-family="Helvetica,sans-Serif" font-size="10.00">CylinderRefiner.H</text>
</a>
</g>
</g>
<!-- Node1&#45;&gt;Node80 -->
<g id="edge57" class="edge">
<title>Node1&#45;&gt;Node80</title>
<path fill="none" stroke="midnightblue" d="M1769.89,-282.92C1845.93,-274.63 1985.54,-259.08 2104.5,-244 2109.13,-243.41 2113.95,-242.78 2118.77,-242.14"/>
<polygon fill="midnightblue" stroke="midnightblue" points="1769.15,-279.48 1759.59,-284.04 1769.91,-286.44 1769.15,-279.48"/>
</g>
<!-- Node82 -->
<g id="node41" class="node">
<title>Node82</title>
<g id="a_node41"><a xlink:href="_a_b_l_modulated_power_law_8_h.html" target="_top" xlink:title=" ">
<polygon fill="white" stroke="black" points="2241.5,-224.5 2241.5,-243.5 2387.5,-243.5 2387.5,-224.5 2241.5,-224.5"/>
<text text-anchor="middle" x="2314.5" y="-231.5" font-family="Helvetica,sans-Serif" font-size="10.00">ABLModulatedPowerLaw.H</text>
</a>
</g>
</g>
<!-- Node1&#45;&gt;Node82 -->
<g id="edge59" class="edge">
<title>Node1&#45;&gt;Node82</title>
<path fill="none" stroke="midnightblue" d="M1769.91,-284.39C1864.69,-276.57 2061.87,-260 2228.5,-244 2232.68,-243.6 2236.98,-243.18 2241.32,-242.74"/>
<polygon fill="midnightblue" stroke="midnightblue" points="1769.37,-280.92 1759.69,-285.23 1769.94,-287.9 1769.37,-280.92"/>
</g>
<!-- Node101 -->
<g id="node45" class="node">
<title>Node101</title>
<g id="a_node45"><a xlink:href="actuator__types_8_h.html" target="_top" xlink:title=" ">
<polygon fill="white" stroke="red" points="1341.5,-224.5 1341.5,-243.5 1441.5,-243.5 1441.5,-224.5 1341.5,-224.5"/>
<text text-anchor="middle" x="1391.5" y="-231.5" font-family="Helvetica,sans-Serif" font-size="10.00">actuator_types.H</text>
</a>
</g>
</g>
<!-- Node1&#45;&gt;Node101 -->
<g id="edge64" class="edge">
<title>Node1&#45;&gt;Node101</title>
<path fill="none" stroke="midnightblue" d="M1657.15,-279.55C1596.19,-269.33 1499.9,-253.18 1441.52,-243.39"/>
<polygon fill="midnightblue" stroke="midnightblue" points="1656.92,-283.06 1667.37,-281.26 1658.08,-276.16 1656.92,-283.06"/>
</g>
<!-- Node115 -->
<g id="node46" class="node">
<title>Node115</title>
<g id="a_node46"><a xlink:href="_actuator_wing_8_h.html" target="_top" xlink:title=" ">
<polygon fill="white" stroke="red" points="1268,-168.5 1268,-187.5 1361,-187.5 1361,-168.5 1268,-168.5"/>
<text text-anchor="middle" x="1314.5" y="-175.5" font-family="Helvetica,sans-Serif" font-size="10.00">ActuatorWing.H</text>
</a>
</g>
</g>
<!-- Node1&#45;&gt;Node115 -->
<g id="edge74" class="edge">
<title>Node1&#45;&gt;Node115</title>
<path fill="none" stroke="midnightblue" d="M1657.12,-289.79C1563.13,-289.92 1380.01,-284.76 1332.5,-244 1315.97,-229.82 1313.96,-201.93 1314.09,-187.74"/>
<polygon fill="midnightblue" stroke="midnightblue" points="1657.32,-293.29 1667.31,-289.76 1657.29,-286.29 1657.32,-293.29"/>
</g>
<!-- Node116 -->
<g id="node47" class="node">
<title>Node116</title>
<g id="a_node47"><a xlink:href="actuator__utils_8_h.html" target="_top" xlink:title=" ">
<polygon fill="white" stroke="red" points="1457.5,-56.5 1457.5,-75.5 1551.5,-75.5 1551.5,-56.5 1457.5,-56.5"/>
<text text-anchor="middle" x="1504.5" y="-63.5" font-family="Helvetica,sans-Serif" font-size="10.00">actuator_utils.H</text>
</a>
</g>
</g>
<!-- Node1&#45;&gt;Node116 -->
<g id="edge68" class="edge">
<title>Node1&#45;&gt;Node116</title>
<path fill="none" stroke="midnightblue" d="M1657.12,-282.33C1605.04,-275.14 1532.52,-262.25 1510.5,-244 1459.36,-201.62 1490.25,-104.75 1501.15,-75.51"/>
<polygon fill="midnightblue" stroke="midnightblue" points="1656.86,-285.82 1667.24,-283.68 1657.79,-278.88 1656.86,-285.82"/>
</g>
<!-- Node118 -->
<g id="node48" class="node">
<title>Node118</title>
<g id="a_node48"><a xlink:href="_actuator_container_8_h.html" target="_top" xlink:title=" ">
<polygon fill="white" stroke="red" points="2406,-224.5 2406,-243.5 2521,-243.5 2521,-224.5 2406,-224.5"/>
<text text-anchor="middle" x="2463.5" y="-231.5" font-family="Helvetica,sans-Serif" font-size="10.00">ActuatorContainer.H</text>
</a>
</g>
</g>
<!-- Node1&#45;&gt;Node118 -->
<g id="edge70" class="edge">
<title>Node1&#45;&gt;Node118</title>
<path fill="none" stroke="midnightblue" d="M1769.69,-286.59C1886.58,-281.29 2164.36,-267.21 2396.5,-244 2399.54,-243.7 2402.65,-243.36 2405.79,-243.01"/>
<polygon fill="midnightblue" stroke="midnightblue" points="1769.39,-283.1 1759.56,-287.04 1769.7,-290.09 1769.39,-283.1"/>
</g>
<!-- Node109 -->
<g id="node49" class="node">
<title>Node109</title>
<g id="a_node49"><a xlink:href="_actuator_disk_8_h.html" target="_top" xlink:title=" ">
<polygon fill="white" stroke="red" points="2577.5,-224.5 2577.5,-243.5 2667.5,-243.5 2667.5,-224.5 2577.5,-224.5"/>
<text text-anchor="middle" x="2622.5" y="-231.5" font-family="Helvetica,sans-Serif" font-size="10.00">ActuatorDisk.H</text>
</a>
</g>
</g>
<!-- Node1&#45;&gt;Node109 -->
<g id="edge71" class="edge">
<title>Node1&#45;&gt;Node109</title>
<path fill="none" stroke="midnightblue" d="M1769.91,-287.93C1906.45,-284.93 2265.49,-274.54 2563.5,-244 2568.04,-243.54 2572.75,-242.96 2577.46,-242.34"/>
<polygon fill="midnightblue" stroke="midnightblue" points="1769.62,-284.44 1759.69,-288.15 1769.77,-291.44 1769.62,-284.44"/>
</g>
<!-- Node110 -->
<g id="node50" class="node">
<title>Node110</title>
<g id="a_node50"><a xlink:href="_joukowsky_8_h.html" target="_top" xlink:title=" ">
<polygon fill="white" stroke="red" points="2584,-168.5 2584,-187.5 2661,-187.5 2661,-168.5 2584,-168.5"/>
<text text-anchor="middle" x="2622.5" y="-175.5" font-family="Helvetica,sans-Serif" font-size="10.00">Joukowsky.H</text>
</a>
</g>
</g>
<!-- Node1&#45;&gt;Node110 -->
<g id="edge73" class="edge">
<title>Node1&#45;&gt;Node110</title>
<path fill="none" stroke="midnightblue" d="M1769.92,-287.68C1942.88,-283.37 2458.24,-268.61 2529.5,-244 2547.47,-237.79 2591.2,-204 2611.64,-187.74"/>
<polygon fill="midnightblue" stroke="midnightblue" points="1769.67,-284.18 1759.76,-287.93 1769.84,-291.18 1769.67,-284.18"/>
</g>
<!-- Node3 -->
<g id="node3" class="node">
<title>Node3</title>
<g id="a_node3"><a xlink:href="bluff__body__ops_8cpp.html" target="_top" xlink:title=" ">
<polygon fill="white" stroke="black" points="250.5,-56.5 250.5,-75.5 360.5,-75.5 360.5,-56.5 250.5,-56.5"/>
<text text-anchor="middle" x="305.5" y="-63.5" font-family="Helvetica,sans-Serif" font-size="10.00">bluff_body_ops.cpp</text>
</a>
</g>
</g>
<!-- Node2&#45;&gt;Node3 -->
<g id="edge2" class="edge">
<title>Node2&#45;&gt;Node3</title>
<path fill="none" stroke="midnightblue" d="M514.11,-163.65C497.98,-154.78 476.41,-142.81 457.5,-132 442.28,-123.3 439.3,-119.59 423.5,-112 392.87,-97.28 356.07,-83.89 331.81,-75.61"/>
<polygon fill="midnightblue" stroke="midnightblue" points="512.46,-166.74 522.91,-168.49 515.83,-160.6 512.46,-166.74"/>
</g>
<!-- Node4 -->
<g id="node4" class="node">
<title>Node4</title>
<g id="a_node4"><a xlink:href="bluff__body__ops_8_h.html" target="_top" xlink:title=" ">
<polygon fill="white" stroke="red" points="229,-112.5 229,-131.5 330,-131.5 330,-112.5 229,-112.5"/>
<text text-anchor="middle" x="279.5" y="-119.5" font-family="Helvetica,sans-Serif" font-size="10.00">bluff_body_ops.H</text>
</a>
</g>
</g>
<!-- Node2&#45;&gt;Node4 -->
<g id="edge3" class="edge">
<title>Node2&#45;&gt;Node4</title>
<path fill="none" stroke="midnightblue" d="M487.69,-166.41C438.78,-156.21 365.74,-140.98 320.44,-131.54"/>
<polygon fill="midnightblue" stroke="midnightblue" points="487.24,-169.89 497.75,-168.5 488.67,-163.04 487.24,-169.89"/>
</g>
<!-- Node11 -->
<g id="node5" class="node">
<title>Node11</title>
<g id="a_node5"><a xlink:href="_i_b_8cpp.html" target="_top" xlink:title=" ">
<polygon fill="white" stroke="black" points="381,-56.5 381,-75.5 428,-75.5 428,-56.5 381,-56.5"/>
<text text-anchor="middle" x="404.5" y="-63.5" font-family="Helvetica,sans-Serif" font-size="10.00">IB.cpp</text>
</a>
</g>
</g>
<!-- Node2&#45;&gt;Node11 -->
<g id="edge5" class="edge">
<title>Node2&#45;&gt;Node11</title>
<path fill="none" stroke="midnightblue" d="M520,-161.82C491.46,-138.39 437.62,-94.19 414.97,-75.59"/>
<polygon fill="midnightblue" stroke="midnightblue" points="518.04,-164.73 527.99,-168.37 522.48,-159.32 518.04,-164.73"/>
</g>
<!-- Node12 -->
<g id="node6" class="node">
<title>Node12</title>
<g id="a_node6"><a xlink:href="_i_b_model_8_h.html" target="_top" xlink:title=" ">
<polygon fill="white" stroke="red" points="348,-112.5 348,-131.5 415,-131.5 415,-112.5 348,-112.5"/>
<text text-anchor="middle" x="381.5" y="-119.5" font-family="Helvetica,sans-Serif" font-size="10.00">IBModel.H</text>
</a>
</g>
</g>
<!-- Node2&#45;&gt;Node12 -->
<g id="edge6" class="edge">
<title>Node2&#45;&gt;Node12</title>
<path fill="none" stroke="midnightblue" d="M504.11,-165.17C474.55,-155 432.63,-140.59 406.26,-131.52"/>
<polygon fill="midnightblue" stroke="midnightblue" points="503.03,-168.5 513.62,-168.44 505.3,-161.88 503.03,-168.5"/>
</g>
<!-- Node13 -->
<g id="node7" class="node">
<title>Node13</title>
<g id="a_node7"><a xlink:href="_ocean_waves_8cpp.html" target="_top" xlink:title=" ">
<polygon fill="white" stroke="black" points="524.5,-56.5 524.5,-75.5 624.5,-75.5 624.5,-56.5 524.5,-56.5"/>
<text text-anchor="middle" x="574.5" y="-63.5" font-family="Helvetica,sans-Serif" font-size="10.00">OceanWaves.cpp</text>
</a>
</g>
</g>
<!-- Node2&#45;&gt;Node13 -->
<g id="edge8" class="edge">
<title>Node2&#45;&gt;Node13</title>
<path fill="none" stroke="midnightblue" d="M537.39,-158.04C537.23,-144.78 538.25,-126.85 543.5,-112 548.5,-97.87 559.14,-84.04 566.55,-75.52"/>
<polygon fill="midnightblue" stroke="midnightblue" points="533.9,-158.43 537.76,-168.29 540.9,-158.17 533.9,-158.43"/>
</g>
<!-- Node14 -->
<g id="node8" class="node">
<title>Node14</title>
<g id="a_node8"><a xlink:href="_ocean_waves_model_8_h.html" target="_top" xlink:title=" ">
<polygon fill="white" stroke="red" points="675.5,-112.5 675.5,-131.5 795.5,-131.5 795.5,-112.5 675.5,-112.5"/>
<text text-anchor="middle" x="735.5" y="-119.5" font-family="Helvetica,sans-Serif" font-size="10.00">OceanWavesModel.H</text>
</a>
</g>
</g>
<!-- Node2&#45;&gt;Node14 -->
<g id="edge9" class="edge">
<title>Node2&#45;&gt;Node14</title>
<path fill="none" stroke="midnightblue" d="M579.73,-165.7C616.91,-155.51 670.77,-140.74 704.43,-131.52"/>
<polygon fill="midnightblue" stroke="midnightblue" points="578.43,-162.42 569.72,-168.44 580.28,-169.18 578.43,-162.42"/>
</g>
<!-- Node19 -->
<g id="node9" class="node">
<title>Node19</title>
<g id="a_node9"><a xlink:href="relaxation__zones__ops_8cpp.html" target="_top" xlink:title=" ">
<polygon fill="white" stroke="black" points="699,-56.5 699,-75.5 842,-75.5 842,-56.5 699,-56.5"/>
<text text-anchor="middle" x="770.5" y="-63.5" font-family="Helvetica,sans-Serif" font-size="10.00">relaxation_zones_ops.cpp</text>
</a>
</g>
</g>
<!-- Node2&#45;&gt;Node19 -->
<g id="edge11" class="edge">
<title>Node2&#45;&gt;Node19</title>
<path fill="none" stroke="midnightblue" d="M544.57,-158.68C550.43,-143.86 560.75,-123.6 576.5,-112 611.72,-86.06 659.5,-74.77 698.83,-69.98"/>
<polygon fill="midnightblue" stroke="midnightblue" points="541.19,-157.72 541.08,-168.31 547.78,-160.1 541.19,-157.72"/>
</g>
<!-- Node20 -->
<g id="node10" class="node">
<title>Node20</title>
<g id="a_node10"><a xlink:href="relaxation__zones__ops_8_h.html" target="_top" xlink:title=" ">
<polygon fill="white" stroke="red" points="814,-112.5 814,-131.5 947,-131.5 947,-112.5 814,-112.5"/>
<text text-anchor="middle" x="880.5" y="-119.5" font-family="Helvetica,sans-Serif" font-size="10.00">relaxation_zones_ops.H</text>
</a>
</g>
</g>
<!-- Node2&#45;&gt;Node20 -->
<g id="edge12" class="edge">
<title>Node2&#45;&gt;Node20</title>
<path fill="none" stroke="midnightblue" d="M589.26,-168.98C652.87,-158.94 761.4,-141.81 826.49,-131.53"/>
<polygon fill="midnightblue" stroke="midnightblue" points="588.41,-165.58 579.07,-170.59 589.5,-172.49 588.41,-165.58"/>
</g>
<!-- Node25 -->
<g id="node11" class="node">
<title>Node25</title>
<g id="a_node11"><a xlink:href="_act_parser_8_h.html" target="_top" xlink:title=" ">
<polygon fill="white" stroke="red" points="585.5,-112.5 585.5,-131.5 657.5,-131.5 657.5,-112.5 585.5,-112.5"/>
<text text-anchor="middle" x="621.5" y="-119.5" font-family="Helvetica,sans-Serif" font-size="10.00">ActParser.H</text>
</a>
</g>
</g>
<!-- Node2&#45;&gt;Node25 -->
<g id="edge14" class="edge">
<title>Node2&#45;&gt;Node25</title>
<path fill="none" stroke="midnightblue" d="M560.6,-162.62C575.76,-152.76 595.38,-139.99 608.2,-131.65"/>
<polygon fill="midnightblue" stroke="midnightblue" points="558.31,-159.94 551.84,-168.32 562.13,-165.8 558.31,-159.94"/>
</g>
<!-- Node4&#45;&gt;Node3 -->
<g id="edge4" class="edge">
<title>Node4&#45;&gt;Node3</title>
<path fill="none" stroke="midnightblue" d="M288.17,-102.98C292.59,-93.82 297.75,-83.09 301.29,-75.75"/>
<polygon fill="midnightblue" stroke="midnightblue" points="284.98,-101.55 283.79,-112.08 291.29,-104.59 284.98,-101.55"/>
</g>
<!-- Node12&#45;&gt;Node11 -->
<g id="edge7" class="edge">
<title>Node12&#45;&gt;Node11</title>
<path fill="none" stroke="midnightblue" d="M389.3,-102.69C393.18,-93.59 397.68,-83.01 400.77,-75.75"/>
<polygon fill="midnightblue" stroke="midnightblue" points="386,-101.51 385.3,-112.08 392.44,-104.25 386,-101.51"/>
</g>
<!-- Node14&#45;&gt;Node13 -->
<g id="edge10" class="edge">
<title>Node14&#45;&gt;Node13</title>
<path fill="none" stroke="midnightblue" d="M700.24,-109.17C669.92,-99 626.93,-84.59 599.89,-75.52"/>
<polygon fill="midnightblue" stroke="midnightblue" points="699.4,-112.58 709.99,-112.44 701.62,-105.95 699.4,-112.58"/>
</g>
<!-- Node20&#45;&gt;Node19 -->
<g id="edge13" class="edge">
<title>Node20&#45;&gt;Node19</title>
<path fill="none" stroke="midnightblue" d="M853.74,-107.86C833.34,-97.85 805.83,-84.35 788.13,-75.65"/>
<polygon fill="midnightblue" stroke="midnightblue" points="852.31,-111.06 862.83,-112.32 855.39,-104.78 852.31,-111.06"/>
</g>
<!-- Node27 -->
<g id="node12" class="node">
<title>Node27</title>
<g id="a_node12"><a xlink:href="actuator__ops_8_h.html" target="_top" xlink:title=" ">
<polygon fill="white" stroke="red" points="1311.5,-56.5 1311.5,-75.5 1401.5,-75.5 1401.5,-56.5 1311.5,-56.5"/>
<text text-anchor="middle" x="1356.5" y="-63.5" font-family="Helvetica,sans-Serif" font-size="10.00">actuator_ops.H</text>
</a>
</g>
</g>
<!-- Node25&#45;&gt;Node27 -->
<g id="edge15" class="edge">
<title>Node25&#45;&gt;Node27</title>
<path fill="none" stroke="midnightblue" d="M667.71,-112.01C916.08,-79.81 1202.58,-70.44 1311.5,-67.88"/>
<polygon fill="midnightblue" stroke="midnightblue" points="667.24,-108.54 657.78,-113.32 668.15,-115.49 667.24,-108.54"/>
</g>
<!-- Node28 -->
<g id="node13" class="node">
<title>Node28</title>
<g id="a_node13"><a xlink:href="_act_src_line_op_8_h.html" target="_top" xlink:title=" ">
<polygon fill="white" stroke="red" points="1383.5,-0.5 1383.5,-19.5 1475.5,-19.5 1475.5,-0.5 1383.5,-0.5"/>
<text text-anchor="middle" x="1429.5" y="-7.5" font-family="Helvetica,sans-Serif" font-size="10.00">ActSrcLineOp.H</text>
</a>
</g>
</g>
<!-- Node27&#45;&gt;Node28 -->
<g id="edge16" class="edge">
<title>Node27&#45;&gt;Node28</title>
<path fill="none" stroke="midnightblue" d="M1376.64,-50.1C1389.78,-40.38 1406.48,-28.03 1417.56,-19.83"/>
<polygon fill="midnightblue" stroke="midnightblue" points="1374.19,-47.56 1368.23,-56.32 1378.35,-53.19 1374.19,-47.56"/>
</g>
<!-- Node55&#45;&gt;Node4 -->
<g id="edge18" class="edge">
<title>Node55&#45;&gt;Node4</title>
<path fill="none" stroke="midnightblue" d="M214.48,-162.9C230.61,-153 251.68,-140.07 265.4,-131.65"/>
<polygon fill="midnightblue" stroke="midnightblue" points="212.33,-160.11 205.64,-168.32 215.99,-166.08 212.33,-160.11"/>
</g>
<!-- Node56 -->
<g id="node15" class="node">
<title>Node56</title>
<g id="a_node15"><a xlink:href="_box_8_h.html" target="_top" xlink:title=" ">
<polygon fill="white" stroke="red" points="79.5,-112.5 79.5,-131.5 125.5,-131.5 125.5,-112.5 79.5,-112.5"/>
<text text-anchor="middle" x="102.5" y="-119.5" font-family="Helvetica,sans-Serif" font-size="10.00">Box.H</text>
</a>
</g>
</g>
<!-- Node55&#45;&gt;Node56 -->
<g id="edge19" class="edge">
<title>Node55&#45;&gt;Node56</title>
<path fill="none" stroke="midnightblue" d="M168.26,-162.9C151.94,-153 130.63,-140.07 116.76,-131.65"/>
<polygon fill="midnightblue" stroke="midnightblue" points="166.84,-166.13 177.2,-168.32 170.47,-160.14 166.84,-166.13"/>
</g>
<!-- Node57 -->
<g id="node16" class="node">
<title>Node57</title>
<g id="a_node16"><a xlink:href="_cylinder_8_h.html" target="_top" xlink:title=" ">
<polygon fill="white" stroke="red" points="144,-112.5 144,-131.5 211,-131.5 211,-112.5 144,-112.5"/>
<text text-anchor="middle" x="177.5" y="-119.5" font-family="Helvetica,sans-Serif" font-size="10.00">Cylinder.H</text>
</a>
</g>
</g>
<!-- Node55&#45;&gt;Node57 -->
<g id="edge20" class="edge">
<title>Node55&#45;&gt;Node57</title>
<path fill="none" stroke="midnightblue" d="M186.68,-158.4C184.33,-149.36 181.63,-138.94 179.77,-131.75"/>
<polygon fill="midnightblue" stroke="midnightblue" points="183.29,-159.28 189.19,-168.08 190.07,-157.52 183.29,-159.28"/>
</g>
<!-- Node58 -->
<g id="node17" class="node">
<title>Node58</title>
<g id="a_node17"><a xlink:href="_sphere_8_h.html" target="_top" xlink:title=" ">
<polygon fill="white" stroke="red" points="0,-112.5 0,-131.5 61,-131.5 61,-112.5 0,-112.5"/>
<text text-anchor="middle" x="30.5" y="-119.5" font-family="Helvetica,sans-Serif" font-size="10.00">Sphere.H</text>
</a>
</g>
</g>
<!-- Node55&#45;&gt;Node58 -->
<g id="edge21" class="edge">
<title>Node55&#45;&gt;Node58</title>
<path fill="none" stroke="midnightblue" d="M156.24,-165.17C125.92,-155 82.93,-140.59 55.89,-131.52"/>
<polygon fill="midnightblue" stroke="midnightblue" points="155.4,-168.58 165.99,-168.44 157.62,-161.95 155.4,-168.58"/>
</g>
<!-- Node59&#45;&gt;Node4 -->
<g id="edge23" class="edge">
<title>Node59&#45;&gt;Node4</title>
<path fill="none" stroke="midnightblue" d="M314.17,-217.03C306.82,-208.97 298.65,-198.65 293.5,-188 284.46,-169.29 281.21,-144.76 280.08,-131.84"/>
<polygon fill="midnightblue" stroke="midnightblue" points="311.67,-219.47 321.12,-224.27 316.72,-214.63 311.67,-219.47"/>
</g>
<!-- Node59&#45;&gt;Node12 -->
<g id="edge25" class="edge">
<title>Node59&#45;&gt;Node12</title>
<path fill="none" stroke="midnightblue" d="M346.83,-217.03C354.18,-208.97 362.35,-198.65 367.5,-188 376.54,-169.29 379.79,-144.76 380.92,-131.84"/>
<polygon fill="midnightblue" stroke="midnightblue" points="344.28,-214.63 339.88,-224.27 349.33,-219.47 344.28,-214.63"/>
</g>
<!-- Node59&#45;&gt;Node55 -->
<g id="edge24" class="edge">
<title>Node59&#45;&gt;Node55</title>
<path fill="none" stroke="midnightblue" d="M299.02,-220.77C272.91,-210.63 236.46,-196.47 213.42,-187.52"/>
<polygon fill="midnightblue" stroke="midnightblue" points="297.89,-224.08 308.48,-224.44 300.42,-217.56 297.89,-224.08"/>
</g>
<!-- Node60 -->
<g id="node19" class="node">
<title>Node60</title>
<g id="a_node19"><a xlink:href="_i_b_ops_8_h.html" target="_top" xlink:title=" ">
<polygon fill="white" stroke="red" points="302.5,-168.5 302.5,-187.5 358.5,-187.5 358.5,-168.5 302.5,-168.5"/>
<text text-anchor="middle" x="330.5" y="-175.5" font-family="Helvetica,sans-Serif" font-size="10.00">IBOps.H</text>
</a>
</g>
</g>
<!-- Node59&#45;&gt;Node60 -->
<g id="edge26" class="edge">
<title>Node59&#45;&gt;Node60</title>
<path fill="none" stroke="midnightblue" d="M330.5,-213.8C330.5,-204.91 330.5,-194.78 330.5,-187.75"/>
<polygon fill="midnightblue" stroke="midnightblue" points="327,-214.08 330.5,-224.08 334,-214.08 327,-214.08"/>
</g>
<!-- Node60&#45;&gt;Node4 -->
<g id="edge27" class="edge">
<title>Node60&#45;&gt;Node4</title>
<path fill="none" stroke="midnightblue" d="M315.12,-160.72C306.13,-151.2 295.14,-139.56 287.76,-131.75"/>
<polygon fill="midnightblue" stroke="midnightblue" points="312.67,-163.22 322.08,-168.08 317.76,-158.41 312.67,-163.22"/>
</g>
<!-- Node60&#45;&gt;Node12 -->
<g id="edge28" class="edge">
<title>Node60&#45;&gt;Node12</title>
<path fill="none" stroke="midnightblue" d="M345.88,-160.72C354.87,-151.2 365.86,-139.56 373.24,-131.75"/>
<polygon fill="midnightblue" stroke="midnightblue" points="343.24,-158.41 338.92,-168.08 348.33,-163.22 343.24,-158.41"/>
</g>
<!-- Node61&#45;&gt;Node14 -->
<g id="edge30" class="edge">
<title>Node61&#45;&gt;Node14</title>
<path fill="none" stroke="midnightblue" d="M891,-222.17C862.7,-215.2 828.88,-204.32 801.5,-188 776.08,-172.85 753.11,-145.9 742.19,-131.94"/>
<polygon fill="midnightblue" stroke="midnightblue" points="890.22,-225.59 900.76,-224.48 891.83,-218.77 890.22,-225.59"/>
</g>
<!-- Node61&#45;&gt;Node20 -->
<g id="edge34" class="edge">
<title>Node61&#45;&gt;Node20</title>
<path fill="none" stroke="midnightblue" d="M945.43,-214.33C942.57,-200.71 937.39,-182.24 928.5,-168 919.18,-153.08 903.71,-139.82 892.85,-131.63"/>
<polygon fill="midnightblue" stroke="midnightblue" points="942.03,-215.22 947.31,-224.42 948.92,-213.94 942.03,-215.22"/>
</g>
<!-- Node62 -->
<g id="node21" class="node">
<title>Node62</title>
<g id="a_node21"><a xlink:href="_ocean_waves_ops_8_h.html" target="_top" xlink:title=" ">
<polygon fill="white" stroke="red" points="811,-168.5 811,-187.5 920,-187.5 920,-168.5 811,-168.5"/>
<text text-anchor="middle" x="865.5" y="-175.5" font-family="Helvetica,sans-Serif" font-size="10.00">OceanWavesOps.H</text>
</a>
</g>
</g>
<!-- Node61&#45;&gt;Node62 -->
<g id="edge31" class="edge">
<title>Node61&#45;&gt;Node62</title>
<path fill="none" stroke="midnightblue" d="M926.4,-218.62C911.24,-208.76 891.62,-195.99 878.8,-187.65"/>
<polygon fill="midnightblue" stroke="midnightblue" points="924.87,-221.8 935.16,-224.32 928.69,-215.94 924.87,-221.8"/>
</g>
<!-- Node61&#45;&gt;Node63 -->
<g id="edge35" class="edge">
<title>Node61&#45;&gt;Node63</title>
<path fill="none" stroke="midnightblue" d="M984.89,-221.3C1016.54,-211.13 1061.67,-196.62 1090,-187.52"/>
<polygon fill="midnightblue" stroke="midnightblue" points="983.57,-218.05 975.12,-224.44 985.71,-224.72 983.57,-218.05"/>
</g>
<!-- Node62&#45;&gt;Node14 -->
<g id="edge32" class="edge">
<title>Node62&#45;&gt;Node14</title>
<path fill="none" stroke="midnightblue" d="M835.41,-164.5C811.04,-154.38 777.36,-140.39 756,-131.52"/>
<polygon fill="midnightblue" stroke="midnightblue" points="834.32,-167.84 844.9,-168.44 837.01,-161.38 834.32,-167.84"/>
</g>
<!-- Node62&#45;&gt;Node20 -->
<g id="edge33" class="edge">
<title>Node62&#45;&gt;Node20</title>
<path fill="none" stroke="midnightblue" d="M870.67,-158.4C873.18,-149.36 876.07,-138.94 878.07,-131.75"/>
<polygon fill="midnightblue" stroke="midnightblue" points="867.28,-157.51 867.98,-168.08 874.03,-159.38 867.28,-157.51"/>
</g>
<!-- Node63&#45;&gt;Node20 -->
<g id="edge38" class="edge">
<title>Node63&#45;&gt;Node20</title>
<path fill="none" stroke="midnightblue" d="M1069.09,-166.15C1024.5,-155.95 958.65,-140.88 917.72,-131.52"/>
<polygon fill="midnightblue" stroke="midnightblue" points="1068.58,-169.62 1079.11,-168.44 1070.14,-162.8 1068.58,-169.62"/>
</g>
<!-- Node64 -->
<g id="node23" class="node">
<title>Node64</title>
<g id="a_node23"><a xlink:href="_h_o_s_waves_8_h.html" target="_top" xlink:title=" ">
<polygon fill="white" stroke="red" points="1175.5,-112.5 1175.5,-131.5 1255.5,-131.5 1255.5,-112.5 1175.5,-112.5"/>
<text text-anchor="middle" x="1215.5" y="-119.5" font-family="Helvetica,sans-Serif" font-size="10.00">HOSWaves.H</text>
</a>
</g>
</g>
<!-- Node63&#45;&gt;Node64 -->
<g id="edge36" class="edge">
<title>Node63&#45;&gt;Node64</title>
<path fill="none" stroke="midnightblue" d="M1141.34,-163.45C1159.61,-153.48 1183.92,-140.23 1199.63,-131.65"/>
<polygon fill="midnightblue" stroke="midnightblue" points="1139.51,-160.46 1132.41,-168.32 1142.86,-166.61 1139.51,-160.46"/>
</g>
<!-- Node65 -->
<g id="node24" class="node">
<title>Node65</title>
<g id="a_node24"><a xlink:href="_linear_waves_8_h.html" target="_top" xlink:title=" ">
<polygon fill="white" stroke="red" points="1274,-112.5 1274,-131.5 1363,-131.5 1363,-112.5 1274,-112.5"/>
<text text-anchor="middle" x="1318.5" y="-119.5" font-family="Helvetica,sans-Serif" font-size="10.00">LinearWaves.H</text>
</a>
</g>
</g>
<!-- Node63&#45;&gt;Node65 -->
<g id="edge37" class="edge">
<title>Node63&#45;&gt;Node65</title>
<path fill="none" stroke="midnightblue" d="M1158.29,-165.83C1196.43,-155.63 1251.98,-140.78 1286.64,-131.52"/>
<polygon fill="midnightblue" stroke="midnightblue" points="1157.26,-162.48 1148.51,-168.44 1159.07,-169.24 1157.26,-162.48"/>
</g>
<!-- Node66 -->
<g id="node25" class="node">
<title>Node66</title>
<g id="a_node25"><a xlink:href="_stokes_waves_8_h.html" target="_top" xlink:title=" ">
<polygon fill="white" stroke="red" points="965.5,-112.5 965.5,-131.5 1057.5,-131.5 1057.5,-112.5 965.5,-112.5"/>
<text text-anchor="middle" x="1011.5" y="-119.5" font-family="Helvetica,sans-Serif" font-size="10.00">StokesWaves.H</text>
</a>
</g>
</g>
<!-- Node63&#45;&gt;Node66 -->
<g id="edge39" class="edge">
<title>Node63&#45;&gt;Node66</title>
<path fill="none" stroke="midnightblue" d="M1090.69,-163.73C1071.25,-153.73 1045.15,-140.31 1028.33,-131.65"/>
<polygon fill="midnightblue" stroke="midnightblue" points="1089.14,-166.86 1099.63,-168.32 1092.34,-160.64 1089.14,-166.86"/>
</g>
<!-- Node67 -->
<g id="node26" class="node">
<title>Node67</title>
<g id="a_node26"><a xlink:href="_w2_a_waves_8_h.html" target="_top" xlink:title=" ">
<polygon fill="white" stroke="red" points="1076,-112.5 1076,-131.5 1157,-131.5 1157,-112.5 1076,-112.5"/>
<text text-anchor="middle" x="1116.5" y="-119.5" font-family="Helvetica,sans-Serif" font-size="10.00">W2AWaves.H</text>
</a>
</g>
</g>
<!-- Node63&#45;&gt;Node67 -->
<g id="edge40" class="edge">
<title>Node63&#45;&gt;Node67</title>
<path fill="none" stroke="midnightblue" d="M1116.5,-157.8C1116.5,-148.91 1116.5,-138.78 1116.5,-131.75"/>
<polygon fill="midnightblue" stroke="midnightblue" points="1113,-158.08 1116.5,-168.08 1120,-158.08 1113,-158.08"/>
</g>
<!-- Node69 -->
<g id="node28" class="node">
<title>Node69</title>
<g id="a_node28"><a xlink:href="_synthetic_turbulence_8cpp.html" target="_top" xlink:title=" ">
<polygon fill="white" stroke="black" points="1496,-168.5 1496,-187.5 1631,-187.5 1631,-168.5 1496,-168.5"/>
<text text-anchor="middle" x="1563.5" y="-175.5" font-family="Helvetica,sans-Serif" font-size="10.00">SyntheticTurbulence.cpp</text>
</a>
</g>
</g>
<!-- Node68&#45;&gt;Node69 -->
<g id="edge43" class="edge">
<title>Node68&#45;&gt;Node69</title>
<path fill="none" stroke="midnightblue" d="M1575.95,-214.4C1572.78,-205.36 1569.11,-194.94 1566.58,-187.75"/>
<polygon fill="midnightblue" stroke="midnightblue" points="1572.74,-215.81 1579.36,-224.08 1579.35,-213.49 1572.74,-215.81"/>
</g>
<!-- Node71 -->
<g id="node30" class="node">
<title>Node71</title>
<g id="a_node30"><a xlink:href="_d_t_u_spinner_sampler_8cpp.html" target="_top" xlink:title=" ">
<polygon fill="white" stroke="black" points="1763.5,-112.5 1763.5,-131.5 1897.5,-131.5 1897.5,-112.5 1763.5,-112.5"/>
<text text-anchor="middle" x="1830.5" y="-119.5" font-family="Helvetica,sans-Serif" font-size="10.00">DTUSpinnerSampler.cpp</text>
</a>
</g>
</g>
<!-- Node70&#45;&gt;Node71 -->
<g id="edge45" class="edge">
<title>Node70&#45;&gt;Node71</title>
<path fill="none" stroke="midnightblue" d="M1830.5,-157.8C1830.5,-148.91 1830.5,-138.78 1830.5,-131.75"/>
<polygon fill="midnightblue" stroke="midnightblue" points="1827,-158.08 1830.5,-168.08 1834,-158.08 1827,-158.08"/>
</g>
<!-- Node72&#45;&gt;Node70 -->
<g id="edge47" class="edge">
<title>Node72&#45;&gt;Node70</title>
<path fill="none" stroke="midnightblue" d="M1741.16,-220.23C1763.05,-210.13 1793,-196.31 1812.05,-187.52"/>
<polygon fill="midnightblue" stroke="midnightblue" points="1739.65,-217.08 1732.04,-224.44 1742.59,-223.43 1739.65,-217.08"/>
</g>
<!-- Node73 -->
<g id="node32" class="node">
<title>Node73</title>
<g id="a_node32"><a xlink:href="_lidar_sampler_8cpp.html" target="_top" xlink:title=" ">
<polygon fill="white" stroke="black" points="1649,-168.5 1649,-187.5 1750,-187.5 1750,-168.5 1649,-168.5"/>
<text text-anchor="middle" x="1699.5" y="-175.5" font-family="Helvetica,sans-Serif" font-size="10.00">LidarSampler.cpp</text>
</a>
</g>
</g>
<!-- Node72&#45;&gt;Node73 -->
<g id="edge48" class="edge">
<title>Node72&#45;&gt;Node73</title>
<path fill="none" stroke="midnightblue" d="M1708.68,-214.4C1706.33,-205.36 1703.63,-194.94 1701.77,-187.75"/>
<polygon fill="midnightblue" stroke="midnightblue" points="1705.29,-215.28 1711.19,-224.08 1712.07,-213.52 1705.29,-215.28"/>
</g>
<!-- Node75 -->
<g id="node34" class="node">
<title>Node75</title>
<g id="a_node34"><a xlink:href="_radar_sampler_8cpp.html" target="_top" xlink:title=" ">
<polygon fill="white" stroke="black" points="2029,-112.5 2029,-131.5 2134,-131.5 2134,-112.5 2029,-112.5"/>
<text text-anchor="middle" x="2081.5" y="-119.5" font-family="Helvetica,sans-Serif" font-size="10.00">RadarSampler.cpp</text>
</a>
</g>
</g>
<!-- Node74&#45;&gt;Node75 -->
<g id="edge50" class="edge">
<title>Node74&#45;&gt;Node75</title>
<path fill="none" stroke="midnightblue" d="M2081.5,-157.8C2081.5,-148.91 2081.5,-138.78 2081.5,-131.75"/>
<polygon fill="midnightblue" stroke="midnightblue" points="2078,-158.08 2081.5,-168.08 2085,-158.08 2078,-158.08"/>
</g>
<!-- Node76&#45;&gt;Node70 -->
<g id="edge52" class="edge">
<title>Node76&#45;&gt;Node70</title>
<path fill="none" stroke="midnightblue" d="M1866.12,-216.72C1857.13,-207.2 1846.14,-195.56 1838.76,-187.75"/>
<polygon fill="midnightblue" stroke="midnightblue" points="1863.67,-219.22 1873.08,-224.08 1868.76,-214.41 1863.67,-219.22"/>
</g>
<!-- Node76&#45;&gt;Node74 -->
<g id="edge53" class="edge">
<title>Node76&#45;&gt;Node74</title>
<path fill="none" stroke="midnightblue" d="M1922.87,-221.83C1960.64,-211.63 2015.64,-196.78 2049.96,-187.52"/>
<polygon fill="midnightblue" stroke="midnightblue" points="1921.93,-218.46 1913.19,-224.44 1923.76,-225.22 1921.93,-218.46"/>
</g>
<!-- Node77 -->
<g id="node36" class="node">
<title>Node77</title>
<g id="a_node36"><a xlink:href="_sampling_utils_8cpp.html" target="_top" xlink:title=" ">
<polygon fill="white" stroke="black" points="1911,-168.5 1911,-187.5 2016,-187.5 2016,-168.5 1911,-168.5"/>
<text text-anchor="middle" x="1963.5" y="-175.5" font-family="Helvetica,sans-Serif" font-size="10.00">SamplingUtils.cpp</text>
</a>
</g>
</g>
<!-- Node76&#45;&gt;Node77 -->
<g id="edge54" class="edge">
<title>Node76&#45;&gt;Node77</title>
<path fill="none" stroke="midnightblue" d="M1903.33,-218.62C1918.31,-208.76 1937.7,-195.99 1950.36,-187.65"/>
<polygon fill="midnightblue" stroke="midnightblue" points="1901.1,-215.9 1894.67,-224.32 1904.95,-221.75 1901.1,-215.9"/>
</g>
<!-- Node79 -->
<g id="node38" class="node">
<title>Node79</title>
<g id="a_node38"><a xlink:href="_box_refiner_8cpp.html" target="_top" xlink:title=" ">
<polygon fill="white" stroke="black" points="2147,-168.5 2147,-187.5 2236,-187.5 2236,-168.5 2147,-168.5"/>
<text text-anchor="middle" x="2191.5" y="-175.5" font-family="Helvetica,sans-Serif" font-size="10.00">BoxRefiner.cpp</text>
</a>
</g>
</g>
<!-- Node78&#45;&gt;Node79 -->
<g id="edge56" class="edge">
<title>Node78&#45;&gt;Node79</title>
<path fill="none" stroke="midnightblue" d="M2086.63,-220.64C2112.16,-210.5 2147.61,-196.43 2170.05,-187.52"/>
<polygon fill="midnightblue" stroke="midnightblue" points="2085.05,-217.5 2077.05,-224.44 2087.64,-224.01 2085.05,-217.5"/>
</g>
<!-- Node81 -->
<g id="node40" class="node">
<title>Node81</title>
<g id="a_node40"><a xlink:href="_cylinder_refiner_8cpp.html" target="_top" xlink:title=" ">
<polygon fill="white" stroke="black" points="2254,-168.5 2254,-187.5 2365,-187.5 2365,-168.5 2254,-168.5"/>
<text text-anchor="middle" x="2309.5" y="-175.5" font-family="Helvetica,sans-Serif" font-size="10.00">CylinderRefiner.cpp</text>
</a>
</g>
</g>
<!-- Node80&#45;&gt;Node81 -->
<g id="edge58" class="edge">
<title>Node80&#45;&gt;Node81</title>
<path fill="none" stroke="midnightblue" d="M2201.2,-220.77C2227.5,-210.63 2264.22,-196.47 2287.42,-187.52"/>
<polygon fill="midnightblue" stroke="midnightblue" points="2199.75,-217.58 2191.68,-224.44 2202.27,-224.11 2199.75,-217.58"/>
</g>
<!-- Node83 -->
<g id="node42" class="node">
<title>Node83</title>
<g id="a_node42"><a xlink:href="_a_b_l_8_h.html" target="_top" xlink:title=" ">
<polygon fill="white" stroke="red" points="2383.5,-168.5 2383.5,-187.5 2429.5,-187.5 2429.5,-168.5 2383.5,-168.5"/>
<text text-anchor="middle" x="2406.5" y="-175.5" font-family="Helvetica,sans-Serif" font-size="10.00">ABL.H</text>
</a>
</g>
</g>
<!-- Node82&#45;&gt;Node83 -->
<g id="edge60" class="edge">
<title>Node82&#45;&gt;Node83</title>
<path fill="none" stroke="midnightblue" d="M2338.05,-219.18C2354.98,-209.24 2377.28,-196.15 2391.76,-187.65"/>
<polygon fill="midnightblue" stroke="midnightblue" points="2336.13,-216.24 2329.28,-224.32 2339.68,-222.28 2336.13,-216.24"/>
</g>
<!-- Node98 -->
<g id="node43" class="node">
<title>Node98</title>
<g id="a_node43"><a xlink:href="_a_b_l_fill_m_p_l_8_h.html" target="_top" xlink:title=" ">
<polygon fill="white" stroke="red" points="2485.5,-168.5 2485.5,-187.5 2565.5,-187.5 2565.5,-168.5 2485.5,-168.5"/>
<text text-anchor="middle" x="2525.5" y="-175.5" font-family="Helvetica,sans-Serif" font-size="10.00">ABLFillMPL.H</text>
</a>
</g>
</g>
<!-- Node82&#45;&gt;Node98 -->
<g id="edge61" class="edge">
<title>Node82&#45;&gt;Node98</title>
<path fill="none" stroke="midnightblue" d="M2357.64,-221.96C2397.49,-211.76 2455.86,-196.82 2492.22,-187.52"/>
<polygon fill="midnightblue" stroke="midnightblue" points="2356.75,-218.57 2347.93,-224.44 2358.49,-225.35 2356.75,-218.57"/>
</g>
<!-- Node100 -->
<g id="node44" class="node">
<title>Node100</title>
<g id="a_node44"><a xlink:href="_a_b_l_modulated_power_law_8cpp.html" target="_top" xlink:title=" ">
<polygon fill="white" stroke="black" points="2413.5,-112.5 2413.5,-131.5 2569.5,-131.5 2569.5,-112.5 2413.5,-112.5"/>
<text text-anchor="middle" x="2491.5" y="-119.5" font-family="Helvetica,sans-Serif" font-size="10.00">ABLModulatedPowerLaw.cpp</text>
</a>
</g>
</g>
<!-- Node82&#45;&gt;Node100 -->
<g id="edge63" class="edge">
<title>Node82&#45;&gt;Node100</title>
<path fill="none" stroke="midnightblue" d="M2363.62,-221.78C2387.67,-214.71 2416.18,-203.85 2438.5,-188 2460.34,-172.49 2478.17,-145.7 2486.46,-131.85"/>
<polygon fill="midnightblue" stroke="midnightblue" points="2362.64,-218.42 2353.95,-224.49 2364.53,-225.16 2362.64,-218.42"/>
</g>
<!-- Node98&#45;&gt;Node100 -->
<g id="edge62" class="edge">
<title>Node98&#45;&gt;Node100</title>
<path fill="none" stroke="midnightblue" d="M2514.52,-159.57C2508.67,-150.27 2501.73,-139.25 2497.01,-131.75"/>
<polygon fill="midnightblue" stroke="midnightblue" points="2511.6,-161.49 2519.89,-168.08 2517.52,-157.76 2511.6,-161.49"/>
</g>
<!-- Node101&#45;&gt;Node27 -->
<g id="edge66" class="edge">
<title>Node101&#45;&gt;Node27</title>
<path fill="none" stroke="midnightblue" d="M1389.33,-214.25C1386.36,-190.31 1380.34,-147.7 1371.5,-112 1368.29,-99.05 1363.14,-84.47 1359.78,-75.51"/>
<polygon fill="midnightblue" stroke="midnightblue" points="1385.89,-214.89 1390.55,-224.4 1392.84,-214.05 1385.89,-214.89"/>
</g>
<!-- Node101&#45;&gt;Node28 -->
<g id="edge65" class="edge">
<title>Node101&#45;&gt;Node28</title>
<path fill="none" stroke="midnightblue" d="M1394.7,-214.3C1402.52,-168.64 1422.34,-52.85 1427.98,-19.88"/>
<polygon fill="midnightblue" stroke="midnightblue" points="1391.23,-213.85 1392.99,-224.3 1398.13,-215.03 1391.23,-213.85"/>
</g>
<!-- Node101&#45;&gt;Node115 -->
<g id="edge67" class="edge">
<title>Node101&#45;&gt;Node115</title>
<path fill="none" stroke="midnightblue" d="M1370.6,-218.34C1356.59,-208.52 1338.62,-195.91 1326.84,-187.65"/>
<polygon fill="midnightblue" stroke="midnightblue" points="1368.93,-221.45 1379.13,-224.32 1372.95,-215.72 1368.93,-221.45"/>
</g>
<!-- Node116&#45;&gt;Node28 -->
<g id="edge69" class="edge">
<title>Node116&#45;&gt;Node28</title>
<path fill="none" stroke="midnightblue" d="M1484.19,-50.38C1470.64,-40.62 1453.26,-28.11 1441.77,-19.83"/>
<polygon fill="midnightblue" stroke="midnightblue" points="1482.29,-53.32 1492.45,-56.32 1486.38,-47.64 1482.29,-53.32"/>
</g>
<!-- Node109&#45;&gt;Node110 -->
<g id="edge72" class="edge">
<title>Node109&#45;&gt;Node110</title>
<path fill="none" stroke="midnightblue" d="M2622.5,-213.8C2622.5,-204.91 2622.5,-194.78 2622.5,-187.75"/>
<polygon fill="midnightblue" stroke="midnightblue" points="2619,-214.08 2622.5,-224.08 2626,-214.08 2619,-214.08"/>
</g>
</g>
</svg>
