<?xml version="1.0" encoding="UTF-8" standalone="no"?>
<!DOCTYPE svg PUBLIC "-//W3C//DTD SVG 1.1//EN"
 "http://www.w3.org/Graphics/SVG/1.1/DTD/svg11.dtd">
<!-- Generated by graphviz version 2.43.0 (0)
 -->
<!-- Title: volume_fractions.H Pages: 1 -->
<svg width="1557pt" height="196pt"
 viewBox="0.00 0.00 1557.00 196.00" xmlns="http://www.w3.org/2000/svg" xmlns:xlink="http://www.w3.org/1999/xlink">
<g id="graph0" class="graph" transform="scale(1 1) rotate(0) translate(4 192)">
<title>volume_fractions.H</title>
<polygon fill="white" stroke="transparent" points="-4,4 -4,-192 1553,-192 1553,4 -4,4"/>
<!-- Node1 -->
<g id="node1" class="node">
<title>Node1</title>
<g id="a_node1"><a xlink:title=" ">
<polygon fill="#bfbfbf" stroke="black" points="726.5,-168.5 726.5,-187.5 838.5,-187.5 838.5,-168.5 726.5,-168.5"/>
<text text-anchor="middle" x="782.5" y="-175.5" font-family="Helvetica,sans-Serif" font-size="10.00">volume_fractions.H</text>
</a>
</g>
</g>
<!-- Node2 -->
<g id="node2" class="node">
<title>Node2</title>
<g id="a_node2"><a xlink:href="_a_b_l_forcing_8cpp.html" target="_top" xlink:title=" ">
<polygon fill="white" stroke="black" points="0,-112.5 0,-131.5 91,-131.5 91,-112.5 0,-112.5"/>
<text text-anchor="middle" x="45.5" y="-119.5" font-family="Helvetica,sans-Serif" font-size="10.00">ABLForcing.cpp</text>
</a>
</g>
</g>
<!-- Node1&#45;&gt;Node2 -->
<g id="edge1" class="edge">
<title>Node1&#45;&gt;Node2</title>
<path fill="none" stroke="midnightblue" d="M715.78,-174.81C593.32,-170.29 324.6,-158.11 99.5,-132 96.76,-131.68 93.95,-131.32 91.12,-130.93"/>
<polygon fill="midnightblue" stroke="midnightblue" points="715.99,-178.32 726.11,-175.18 716.24,-171.32 715.99,-178.32"/>
</g>
<!-- Node3 -->
<g id="node3" class="node">
<title>Node3</title>
<g id="a_node3"><a xlink:href="_geostrophic_forcing_8cpp.html" target="_top" xlink:title=" ">
<polygon fill="white" stroke="black" points="109,-112.5 109,-131.5 240,-131.5 240,-112.5 109,-112.5"/>
<text text-anchor="middle" x="174.5" y="-119.5" font-family="Helvetica,sans-Serif" font-size="10.00">GeostrophicForcing.cpp</text>
</a>
</g>
</g>
<!-- Node1&#45;&gt;Node3 -->
<g id="edge2" class="edge">
<title>Node1&#45;&gt;Node3</title>
<path fill="none" stroke="midnightblue" d="M716.26,-172.21C615.25,-164.72 416.71,-149.31 248.5,-132 245.8,-131.72 243.04,-131.43 240.25,-131.12"/>
<polygon fill="midnightblue" stroke="midnightblue" points="716.08,-175.71 726.31,-172.95 716.6,-168.72 716.08,-175.71"/>
</g>
<!-- Node4 -->
<g id="node4" class="node">
<title>Node4</title>
<g id="a_node4"><a xlink:href="split__advection_8_h.html" target="_top" xlink:title=" ">
<polygon fill="white" stroke="black" points="258,-112.5 258,-131.5 359,-131.5 359,-112.5 258,-112.5"/>
<text text-anchor="middle" x="308.5" y="-119.5" font-family="Helvetica,sans-Serif" font-size="10.00">split_advection.H</text>
</a>
</g>
</g>
<!-- Node1&#45;&gt;Node4 -->
<g id="edge3" class="edge">
<title>Node1&#45;&gt;Node4</title>
<path fill="none" stroke="midnightblue" d="M716,-170.61C634.14,-162.55 490.89,-147.82 368.5,-132 365.47,-131.61 362.36,-131.19 359.22,-130.76"/>
<polygon fill="midnightblue" stroke="midnightblue" points="715.87,-174.12 726.17,-171.61 716.55,-167.15 715.87,-174.12"/>
</g>
<!-- Node6 -->
<g id="node6" class="node">
<title>Node6</title>
<g id="a_node6"><a xlink:href="vof__momentum__flux_8_h.html" target="_top" xlink:title=" ">
<polygon fill="white" stroke="black" points="377.5,-112.5 377.5,-131.5 505.5,-131.5 505.5,-112.5 377.5,-112.5"/>
<text text-anchor="middle" x="441.5" y="-119.5" font-family="Helvetica,sans-Serif" font-size="10.00">vof_momentum_flux.H</text>
</a>
</g>
</g>
<!-- Node1&#45;&gt;Node6 -->
<g id="edge5" class="edge">
<title>Node1&#45;&gt;Node6</title>
<path fill="none" stroke="midnightblue" d="M718.43,-166.85C654,-156.65 555.78,-141.1 495.28,-131.52"/>
<polygon fill="midnightblue" stroke="midnightblue" points="718.04,-170.34 728.47,-168.44 719.14,-163.42 718.04,-170.34"/>
</g>
<!-- Node10 -->
<g id="node10" class="node">
<title>Node10</title>
<g id="a_node10"><a xlink:href="incflo__compute__dt_8cpp.html" target="_top" xlink:title=" ">
<polygon fill="white" stroke="black" points="523.5,-112.5 523.5,-131.5 649.5,-131.5 649.5,-112.5 523.5,-112.5"/>
<text text-anchor="middle" x="586.5" y="-119.5" font-family="Helvetica,sans-Serif" font-size="10.00">incflo_compute_dt.cpp</text>
</a>
</g>
</g>
<!-- Node1&#45;&gt;Node10 -->
<g id="edge9" class="edge">
<title>Node1&#45;&gt;Node10</title>
<path fill="none" stroke="midnightblue" d="M741.48,-165.7C704.49,-155.51 650.9,-140.74 617.41,-131.52"/>
<polygon fill="midnightblue" stroke="midnightblue" points="740.87,-169.16 751.44,-168.44 742.73,-162.41 740.87,-169.16"/>
</g>
<!-- Node11 -->
<g id="node11" class="node">
<title>Node11</title>
<g id="a_node11"><a xlink:href="hos__waves__ops_8_h.html" target="_top" xlink:title=" ">
<polygon fill="white" stroke="black" points="667.5,-112.5 667.5,-131.5 771.5,-131.5 771.5,-112.5 667.5,-112.5"/>
<text text-anchor="middle" x="719.5" y="-119.5" font-family="Helvetica,sans-Serif" font-size="10.00">hos_waves_ops.H</text>
</a>
</g>
</g>
<!-- Node1&#45;&gt;Node11 -->
<g id="edge10" class="edge">
<title>Node1&#45;&gt;Node11</title>
<path fill="none" stroke="midnightblue" d="M764.46,-161.54C753.23,-151.91 739.18,-139.87 729.81,-131.83"/>
<polygon fill="midnightblue" stroke="midnightblue" points="762.51,-164.47 772.38,-168.32 767.06,-159.16 762.51,-164.47"/>
</g>
<!-- Node13 -->
<g id="node13" class="node">
<title>Node13</title>
<g id="a_node13"><a xlink:href="linear__waves__ops_8_h.html" target="_top" xlink:title=" ">
<polygon fill="white" stroke="black" points="789.5,-112.5 789.5,-131.5 903.5,-131.5 903.5,-112.5 789.5,-112.5"/>
<text text-anchor="middle" x="846.5" y="-119.5" font-family="Helvetica,sans-Serif" font-size="10.00">linear_waves_ops.H</text>
</a>
</g>
</g>
<!-- Node1&#45;&gt;Node13 -->
<g id="edge12" class="edge">
<title>Node1&#45;&gt;Node13</title>
<path fill="none" stroke="midnightblue" d="M800.49,-161.82C811.96,-152.15 826.41,-139.95 836.03,-131.83"/>
<polygon fill="midnightblue" stroke="midnightblue" points="798.17,-159.2 792.78,-168.32 802.68,-164.55 798.17,-159.2"/>
</g>
<!-- Node15 -->
<g id="node15" class="node">
<title>Node15</title>
<g id="a_node15"><a xlink:href="relaxation__zones__ops_8cpp.html" target="_top" xlink:title=" ">
<polygon fill="white" stroke="black" points="922,-112.5 922,-131.5 1065,-131.5 1065,-112.5 922,-112.5"/>
<text text-anchor="middle" x="993.5" y="-119.5" font-family="Helvetica,sans-Serif" font-size="10.00">relaxation_zones_ops.cpp</text>
</a>
</g>
</g>
<!-- Node1&#45;&gt;Node15 -->
<g id="edge14" class="edge">
<title>Node1&#45;&gt;Node15</title>
<path fill="none" stroke="midnightblue" d="M825.64,-165.96C865.49,-155.76 923.86,-140.82 960.22,-131.52"/>
<polygon fill="midnightblue" stroke="midnightblue" points="824.75,-162.57 815.93,-168.44 826.49,-169.35 824.75,-162.57"/>
</g>
<!-- Node16 -->
<g id="node16" class="node">
<title>Node16</title>
<g id="a_node16"><a xlink:href="stokes__waves__ops_8_h.html" target="_top" xlink:title=" ">
<polygon fill="white" stroke="black" points="1083.5,-112.5 1083.5,-131.5 1201.5,-131.5 1201.5,-112.5 1083.5,-112.5"/>
<text text-anchor="middle" x="1142.5" y="-119.5" font-family="Helvetica,sans-Serif" font-size="10.00">stokes_waves_ops.H</text>
</a>
</g>
</g>
<!-- Node1&#45;&gt;Node16 -->
<g id="edge15" class="edge">
<title>Node1&#45;&gt;Node16</title>
<path fill="none" stroke="midnightblue" d="M848.92,-167.04C916.93,-156.84 1021.5,-141.15 1085.75,-131.51"/>
<polygon fill="midnightblue" stroke="midnightblue" points="848.12,-163.62 838.75,-168.56 849.16,-170.54 848.12,-163.62"/>
</g>
<!-- Node18 -->
<g id="node18" class="node">
<title>Node18</title>
<g id="a_node18"><a xlink:href="waves2amr__ops_8_h.html" target="_top" xlink:title=" ">
<polygon fill="white" stroke="black" points="1220,-112.5 1220,-131.5 1327,-131.5 1327,-112.5 1220,-112.5"/>
<text text-anchor="middle" x="1273.5" y="-119.5" font-family="Helvetica,sans-Serif" font-size="10.00">waves2amr_ops.H</text>
</a>
</g>
</g>
<!-- Node1&#45;&gt;Node18 -->
<g id="edge17" class="edge">
<title>Node1&#45;&gt;Node18</title>
<path fill="none" stroke="midnightblue" d="M848.85,-170.79C933.06,-162.74 1082.73,-147.84 1210.5,-132 1213.57,-131.62 1216.72,-131.21 1219.9,-130.79"/>
<polygon fill="midnightblue" stroke="midnightblue" points="848.28,-167.33 838.66,-171.77 848.95,-174.3 848.28,-167.33"/>
</g>
<!-- Node20 -->
<g id="node20" class="node">
<title>Node20</title>
<g id="a_node20"><a xlink:href="_multi_phase_8cpp.html" target="_top" xlink:title=" ">
<polygon fill="white" stroke="black" points="1345,-112.5 1345,-131.5 1436,-131.5 1436,-112.5 1345,-112.5"/>
<text text-anchor="middle" x="1390.5" y="-119.5" font-family="Helvetica,sans-Serif" font-size="10.00">MultiPhase.cpp</text>
</a>
</g>
</g>
<!-- Node1&#45;&gt;Node20 -->
<g id="edge19" class="edge">
<title>Node1&#45;&gt;Node20</title>
<path fill="none" stroke="midnightblue" d="M848.94,-173.41C953.11,-167.38 1161.1,-153.7 1336.5,-132 1339.24,-131.66 1342.04,-131.28 1344.87,-130.88"/>
<polygon fill="midnightblue" stroke="midnightblue" points="848.67,-169.92 838.89,-173.99 849.07,-176.91 848.67,-169.92"/>
</g>
<!-- Node21 -->
<g id="node21" class="node">
<title>Node21</title>
<g id="a_node21"><a xlink:href="_free_surface_8cpp.html" target="_top" xlink:title=" ">
<polygon fill="white" stroke="black" points="1454,-112.5 1454,-131.5 1549,-131.5 1549,-112.5 1454,-112.5"/>
<text text-anchor="middle" x="1501.5" y="-119.5" font-family="Helvetica,sans-Serif" font-size="10.00">FreeSurface.cpp</text>
</a>
</g>
</g>
<!-- Node1&#45;&gt;Node21 -->
<g id="edge20" class="edge">
<title>Node1&#45;&gt;Node21</title>
<path fill="none" stroke="midnightblue" d="M848.62,-174.52C968.09,-169.59 1227.75,-156.83 1445.5,-132 1448.24,-131.69 1451.05,-131.34 1453.88,-130.96"/>
<polygon fill="midnightblue" stroke="midnightblue" points="848.39,-171.03 838.54,-174.93 848.67,-178.02 848.39,-171.03"/>
</g>
<!-- Node5 -->
<g id="node5" class="node">
<title>Node5</title>
<g id="a_node5"><a xlink:href="_split_advection_8cpp.html" target="_top" xlink:title=" ">
<polygon fill="white" stroke="black" points="255,-56.5 255,-75.5 362,-75.5 362,-56.5 255,-56.5"/>
<text text-anchor="middle" x="308.5" y="-63.5" font-family="Helvetica,sans-Serif" font-size="10.00">SplitAdvection.cpp</text>
</a>
</g>
</g>
<!-- Node4&#45;&gt;Node5 -->
<g id="edge4" class="edge">
<title>Node4&#45;&gt;Node5</title>
<path fill="none" stroke="midnightblue" d="M308.5,-101.8C308.5,-92.91 308.5,-82.78 308.5,-75.75"/>
<polygon fill="midnightblue" stroke="midnightblue" points="305,-102.08 308.5,-112.08 312,-102.08 305,-102.08"/>
</g>
<!-- Node7 -->
<g id="node7" class="node">
<title>Node7</title>
<g id="a_node7"><a xlink:href="icns__advection_8_h.html" target="_top" xlink:title=" ">
<polygon fill="white" stroke="black" points="391.5,-56.5 391.5,-75.5 491.5,-75.5 491.5,-56.5 391.5,-56.5"/>
<text text-anchor="middle" x="441.5" y="-63.5" font-family="Helvetica,sans-Serif" font-size="10.00">icns_advection.H</text>
</a>
</g>
</g>
<!-- Node6&#45;&gt;Node7 -->
<g id="edge6" class="edge">
<title>Node6&#45;&gt;Node7</title>
<path fill="none" stroke="midnightblue" d="M441.5,-101.8C441.5,-92.91 441.5,-82.78 441.5,-75.75"/>
<polygon fill="midnightblue" stroke="midnightblue" points="438,-102.08 441.5,-112.08 445,-102.08 438,-102.08"/>
</g>
<!-- Node8 -->
<g id="node8" class="node">
<title>Node8</title>
<g id="a_node8"><a xlink:href="icns_8cpp.html" target="_top" xlink:title=" ">
<polygon fill="white" stroke="black" points="363.5,-0.5 363.5,-19.5 419.5,-19.5 419.5,-0.5 363.5,-0.5"/>
<text text-anchor="middle" x="391.5" y="-7.5" font-family="Helvetica,sans-Serif" font-size="10.00">icns.cpp</text>
</a>
</g>
</g>
<!-- Node7&#45;&gt;Node8 -->
<g id="edge7" class="edge">
<title>Node7&#45;&gt;Node8</title>
<path fill="none" stroke="midnightblue" d="M426.42,-48.72C417.61,-39.2 406.83,-27.56 399.6,-19.75"/>
<polygon fill="midnightblue" stroke="midnightblue" points="423.88,-51.12 433.24,-56.08 429.02,-46.37 423.88,-51.12"/>
</g>
<!-- Node9 -->
<g id="node9" class="node">
<title>Node9</title>
<g id="a_node9"><a xlink:href="icns__advection_8cpp.html" target="_top" xlink:title=" ">
<polygon fill="white" stroke="black" points="437.5,-0.5 437.5,-19.5 547.5,-19.5 547.5,-0.5 437.5,-0.5"/>
<text text-anchor="middle" x="492.5" y="-7.5" font-family="Helvetica,sans-Serif" font-size="10.00">icns_advection.cpp</text>
</a>
</g>
</g>
<!-- Node7&#45;&gt;Node9 -->
<g id="edge8" class="edge">
<title>Node7&#45;&gt;Node9</title>
<path fill="none" stroke="midnightblue" d="M456.88,-48.72C465.87,-39.2 476.86,-27.56 484.24,-19.75"/>
<polygon fill="midnightblue" stroke="midnightblue" points="454.24,-46.41 449.92,-56.08 459.33,-51.22 454.24,-46.41"/>
</g>
<!-- Node12 -->
<g id="node12" class="node">
<title>Node12</title>
<g id="a_node12"><a xlink:href="_h_o_s_waves_8cpp.html" target="_top" xlink:title=" ">
<polygon fill="white" stroke="black" points="674.5,-56.5 674.5,-75.5 764.5,-75.5 764.5,-56.5 674.5,-56.5"/>
<text text-anchor="middle" x="719.5" y="-63.5" font-family="Helvetica,sans-Serif" font-size="10.00">HOSWaves.cpp</text>
</a>
</g>
</g>
<!-- Node11&#45;&gt;Node12 -->
<g id="edge11" class="edge">
<title>Node11&#45;&gt;Node12</title>
<path fill="none" stroke="midnightblue" d="M719.5,-101.8C719.5,-92.91 719.5,-82.78 719.5,-75.75"/>
<polygon fill="midnightblue" stroke="midnightblue" points="716,-102.08 719.5,-112.08 723,-102.08 716,-102.08"/>
</g>
<!-- Node14 -->
<g id="node14" class="node">
<title>Node14</title>
<g id="a_node14"><a xlink:href="_linear_waves_8cpp.html" target="_top" xlink:title=" ">
<polygon fill="white" stroke="black" points="797,-56.5 797,-75.5 896,-75.5 896,-56.5 797,-56.5"/>
<text text-anchor="middle" x="846.5" y="-63.5" font-family="Helvetica,sans-Serif" font-size="10.00">LinearWaves.cpp</text>
</a>
</g>
</g>
<!-- Node13&#45;&gt;Node14 -->
<g id="edge13" class="edge">
<title>Node13&#45;&gt;Node14</title>
<path fill="none" stroke="midnightblue" d="M846.5,-101.8C846.5,-92.91 846.5,-82.78 846.5,-75.75"/>
<polygon fill="midnightblue" stroke="midnightblue" points="843,-102.08 846.5,-112.08 850,-102.08 843,-102.08"/>
</g>
<!-- Node17 -->
<g id="node17" class="node">
<title>Node17</title>
<g id="a_node17"><a xlink:href="_stokes_waves_8cpp.html" target="_top" xlink:title=" ">
<polygon fill="white" stroke="black" points="1092,-56.5 1092,-75.5 1193,-75.5 1193,-56.5 1092,-56.5"/>
<text text-anchor="middle" x="1142.5" y="-63.5" font-family="Helvetica,sans-Serif" font-size="10.00">StokesWaves.cpp</text>
</a>
</g>
</g>
<!-- Node16&#45;&gt;Node17 -->
<g id="edge16" class="edge">
<title>Node16&#45;&gt;Node17</title>
<path fill="none" stroke="midnightblue" d="M1142.5,-101.8C1142.5,-92.91 1142.5,-82.78 1142.5,-75.75"/>
<polygon fill="midnightblue" stroke="midnightblue" points="1139,-102.08 1142.5,-112.08 1146,-102.08 1139,-102.08"/>
</g>
<!-- Node19 -->
<g id="node19" class="node">
<title>Node19</title>
<g id="a_node19"><a xlink:href="_w2_a_waves_8cpp.html" target="_top" xlink:title=" ">
<polygon fill="white" stroke="black" points="1228,-56.5 1228,-75.5 1319,-75.5 1319,-56.5 1228,-56.5"/>
<text text-anchor="middle" x="1273.5" y="-63.5" font-family="Helvetica,sans-Serif" font-size="10.00">W2AWaves.cpp</text>
</a>
</g>
</g>
<!-- Node18&#45;&gt;Node19 -->
<g id="edge18" class="edge">
<title>Node18&#45;&gt;Node19</title>
<path fill="none" stroke="midnightblue" d="M1273.5,-101.8C1273.5,-92.91 1273.5,-82.78 1273.5,-75.75"/>
<polygon fill="midnightblue" stroke="midnightblue" points="1270,-102.08 1273.5,-112.08 1277,-102.08 1270,-102.08"/>
</g>
</g>
</svg>
